%TF.GenerationSoftware,KiCad,Pcbnew,7.0.10*%
%TF.CreationDate,2024-02-20T10:07:26+01:00*%
%TF.ProjectId,arenaPCBv1,6172656e-6150-4434-9276-312e6b696361,rev?*%
%TF.SameCoordinates,Original*%
%TF.FileFunction,Legend,Top*%
%TF.FilePolarity,Positive*%
%FSLAX46Y46*%
G04 Gerber Fmt 4.6, Leading zero omitted, Abs format (unit mm)*
G04 Created by KiCad (PCBNEW 7.0.10) date 2024-02-20 10:07:26*
%MOMM*%
%LPD*%
G01*
G04 APERTURE LIST*
%ADD10C,0.150000*%
%ADD11C,0.200000*%
%ADD12C,0.120000*%
%ADD13C,0.152400*%
%ADD14C,0.508000*%
G04 APERTURE END LIST*
D10*
X148783922Y-100215819D02*
X149117255Y-101215819D01*
X149117255Y-101215819D02*
X149450588Y-100215819D01*
X150355350Y-101120580D02*
X150307731Y-101168200D01*
X150307731Y-101168200D02*
X150164874Y-101215819D01*
X150164874Y-101215819D02*
X150069636Y-101215819D01*
X150069636Y-101215819D02*
X149926779Y-101168200D01*
X149926779Y-101168200D02*
X149831541Y-101072961D01*
X149831541Y-101072961D02*
X149783922Y-100977723D01*
X149783922Y-100977723D02*
X149736303Y-100787247D01*
X149736303Y-100787247D02*
X149736303Y-100644390D01*
X149736303Y-100644390D02*
X149783922Y-100453914D01*
X149783922Y-100453914D02*
X149831541Y-100358676D01*
X149831541Y-100358676D02*
X149926779Y-100263438D01*
X149926779Y-100263438D02*
X150069636Y-100215819D01*
X150069636Y-100215819D02*
X150164874Y-100215819D01*
X150164874Y-100215819D02*
X150307731Y-100263438D01*
X150307731Y-100263438D02*
X150355350Y-100311057D01*
X151355350Y-101120580D02*
X151307731Y-101168200D01*
X151307731Y-101168200D02*
X151164874Y-101215819D01*
X151164874Y-101215819D02*
X151069636Y-101215819D01*
X151069636Y-101215819D02*
X150926779Y-101168200D01*
X150926779Y-101168200D02*
X150831541Y-101072961D01*
X150831541Y-101072961D02*
X150783922Y-100977723D01*
X150783922Y-100977723D02*
X150736303Y-100787247D01*
X150736303Y-100787247D02*
X150736303Y-100644390D01*
X150736303Y-100644390D02*
X150783922Y-100453914D01*
X150783922Y-100453914D02*
X150831541Y-100358676D01*
X150831541Y-100358676D02*
X150926779Y-100263438D01*
X150926779Y-100263438D02*
X151069636Y-100215819D01*
X151069636Y-100215819D02*
X151164874Y-100215819D01*
X151164874Y-100215819D02*
X151307731Y-100263438D01*
X151307731Y-100263438D02*
X151355350Y-100311057D01*
X149450588Y-102803438D02*
X149355350Y-102755819D01*
X149355350Y-102755819D02*
X149212493Y-102755819D01*
X149212493Y-102755819D02*
X149069636Y-102803438D01*
X149069636Y-102803438D02*
X148974398Y-102898676D01*
X148974398Y-102898676D02*
X148926779Y-102993914D01*
X148926779Y-102993914D02*
X148879160Y-103184390D01*
X148879160Y-103184390D02*
X148879160Y-103327247D01*
X148879160Y-103327247D02*
X148926779Y-103517723D01*
X148926779Y-103517723D02*
X148974398Y-103612961D01*
X148974398Y-103612961D02*
X149069636Y-103708200D01*
X149069636Y-103708200D02*
X149212493Y-103755819D01*
X149212493Y-103755819D02*
X149307731Y-103755819D01*
X149307731Y-103755819D02*
X149450588Y-103708200D01*
X149450588Y-103708200D02*
X149498207Y-103660580D01*
X149498207Y-103660580D02*
X149498207Y-103327247D01*
X149498207Y-103327247D02*
X149307731Y-103327247D01*
X149926779Y-103755819D02*
X149926779Y-102755819D01*
X149926779Y-102755819D02*
X150498207Y-103755819D01*
X150498207Y-103755819D02*
X150498207Y-102755819D01*
X150974398Y-103755819D02*
X150974398Y-102755819D01*
X150974398Y-102755819D02*
X151212493Y-102755819D01*
X151212493Y-102755819D02*
X151355350Y-102803438D01*
X151355350Y-102803438D02*
X151450588Y-102898676D01*
X151450588Y-102898676D02*
X151498207Y-102993914D01*
X151498207Y-102993914D02*
X151545826Y-103184390D01*
X151545826Y-103184390D02*
X151545826Y-103327247D01*
X151545826Y-103327247D02*
X151498207Y-103517723D01*
X151498207Y-103517723D02*
X151450588Y-103612961D01*
X151450588Y-103612961D02*
X151355350Y-103708200D01*
X151355350Y-103708200D02*
X151212493Y-103755819D01*
X151212493Y-103755819D02*
X150974398Y-103755819D01*
X154432000Y-104648000D02*
X157226000Y-100584000D01*
X156972000Y-109220000D02*
X154432000Y-104648000D01*
X162052000Y-109220000D02*
X156972000Y-109220000D01*
X164592000Y-105156000D02*
X162052000Y-109220000D01*
X162052000Y-100584000D02*
X164592000Y-105156000D01*
X157226000Y-100584000D02*
X162052000Y-100584000D01*
X157734000Y-106172000D02*
X161290000Y-106172000D01*
X161290000Y-103632000D01*
X157734000Y-103632000D01*
X157734000Y-106172000D01*
X161290000Y-104648000D02*
X161798000Y-103751922D01*
X161798000Y-106172000D02*
X161290000Y-105156000D01*
X160274000Y-106172000D02*
X160782000Y-106680000D01*
X158750000Y-106172000D02*
X158242000Y-106680000D01*
X157734000Y-105156000D02*
X157226000Y-106052078D01*
X157734000Y-104648000D02*
X157226000Y-103751922D01*
X158750000Y-103632000D02*
X158242000Y-103124000D01*
X160274000Y-103632000D02*
X160782000Y-103124000D01*
X162933923Y-107307922D02*
G75*
G03*
X160662077Y-107307922I-1135923J0D01*
G01*
X160662077Y-107307922D02*
G75*
G03*
X162933923Y-107307922I1135923J0D01*
G01*
X162933923Y-102616000D02*
G75*
G03*
X160662077Y-102616000I-1135923J0D01*
G01*
X160662077Y-102616000D02*
G75*
G03*
X162933923Y-102616000I1135923J0D01*
G01*
X158361923Y-102616000D02*
G75*
G03*
X156090077Y-102616000I-1135923J0D01*
G01*
X156090077Y-102616000D02*
G75*
G03*
X158361923Y-102616000I1135923J0D01*
G01*
X158361923Y-107188000D02*
G75*
G03*
X156090077Y-107188000I-1135923J0D01*
G01*
X156090077Y-107188000D02*
G75*
G03*
X158361923Y-107188000I1135923J0D01*
G01*
X158023160Y-99041057D02*
X158070779Y-98993438D01*
X158070779Y-98993438D02*
X158166017Y-98945819D01*
X158166017Y-98945819D02*
X158404112Y-98945819D01*
X158404112Y-98945819D02*
X158499350Y-98993438D01*
X158499350Y-98993438D02*
X158546969Y-99041057D01*
X158546969Y-99041057D02*
X158594588Y-99136295D01*
X158594588Y-99136295D02*
X158594588Y-99231533D01*
X158594588Y-99231533D02*
X158546969Y-99374390D01*
X158546969Y-99374390D02*
X157975541Y-99945819D01*
X157975541Y-99945819D02*
X158594588Y-99945819D01*
X159213636Y-98945819D02*
X159308874Y-98945819D01*
X159308874Y-98945819D02*
X159404112Y-98993438D01*
X159404112Y-98993438D02*
X159451731Y-99041057D01*
X159451731Y-99041057D02*
X159499350Y-99136295D01*
X159499350Y-99136295D02*
X159546969Y-99326771D01*
X159546969Y-99326771D02*
X159546969Y-99564866D01*
X159546969Y-99564866D02*
X159499350Y-99755342D01*
X159499350Y-99755342D02*
X159451731Y-99850580D01*
X159451731Y-99850580D02*
X159404112Y-99898200D01*
X159404112Y-99898200D02*
X159308874Y-99945819D01*
X159308874Y-99945819D02*
X159213636Y-99945819D01*
X159213636Y-99945819D02*
X159118398Y-99898200D01*
X159118398Y-99898200D02*
X159070779Y-99850580D01*
X159070779Y-99850580D02*
X159023160Y-99755342D01*
X159023160Y-99755342D02*
X158975541Y-99564866D01*
X158975541Y-99564866D02*
X158975541Y-99326771D01*
X158975541Y-99326771D02*
X159023160Y-99136295D01*
X159023160Y-99136295D02*
X159070779Y-99041057D01*
X159070779Y-99041057D02*
X159118398Y-98993438D01*
X159118398Y-98993438D02*
X159213636Y-98945819D01*
X159927922Y-99041057D02*
X159975541Y-98993438D01*
X159975541Y-98993438D02*
X160070779Y-98945819D01*
X160070779Y-98945819D02*
X160308874Y-98945819D01*
X160308874Y-98945819D02*
X160404112Y-98993438D01*
X160404112Y-98993438D02*
X160451731Y-99041057D01*
X160451731Y-99041057D02*
X160499350Y-99136295D01*
X160499350Y-99136295D02*
X160499350Y-99231533D01*
X160499350Y-99231533D02*
X160451731Y-99374390D01*
X160451731Y-99374390D02*
X159880303Y-99945819D01*
X159880303Y-99945819D02*
X160499350Y-99945819D01*
X161356493Y-99279152D02*
X161356493Y-99945819D01*
X161118398Y-98898200D02*
X160880303Y-99612485D01*
X160880303Y-99612485D02*
X161499350Y-99612485D01*
X103254180Y-94840588D02*
X103254180Y-94269160D01*
X103254180Y-94554874D02*
X104254180Y-94554874D01*
X104254180Y-94554874D02*
X104111323Y-94459636D01*
X104111323Y-94459636D02*
X104016085Y-94364398D01*
X104016085Y-94364398D02*
X103968466Y-94269160D01*
X104158942Y-95221541D02*
X104206561Y-95269160D01*
X104206561Y-95269160D02*
X104254180Y-95364398D01*
X104254180Y-95364398D02*
X104254180Y-95602493D01*
X104254180Y-95602493D02*
X104206561Y-95697731D01*
X104206561Y-95697731D02*
X104158942Y-95745350D01*
X104158942Y-95745350D02*
X104063704Y-95792969D01*
X104063704Y-95792969D02*
X103968466Y-95792969D01*
X103968466Y-95792969D02*
X103825609Y-95745350D01*
X103825609Y-95745350D02*
X103254180Y-95173922D01*
X103254180Y-95173922D02*
X103254180Y-95792969D01*
X104254180Y-96078684D02*
X103254180Y-96412017D01*
X103254180Y-96412017D02*
X104254180Y-96745350D01*
X103158942Y-96840589D02*
X103158942Y-97602493D01*
X103254180Y-97840589D02*
X104254180Y-97840589D01*
X103254180Y-98316779D02*
X104254180Y-98316779D01*
X104254180Y-98316779D02*
X103254180Y-98888207D01*
X103254180Y-98888207D02*
X104254180Y-98888207D01*
X103254180Y-99364398D02*
X104254180Y-99364398D01*
X104254180Y-99364398D02*
X104254180Y-99745350D01*
X104254180Y-99745350D02*
X104206561Y-99840588D01*
X104206561Y-99840588D02*
X104158942Y-99888207D01*
X104158942Y-99888207D02*
X104063704Y-99935826D01*
X104063704Y-99935826D02*
X103920847Y-99935826D01*
X103920847Y-99935826D02*
X103825609Y-99888207D01*
X103825609Y-99888207D02*
X103777990Y-99840588D01*
X103777990Y-99840588D02*
X103730371Y-99745350D01*
X103730371Y-99745350D02*
X103730371Y-99364398D01*
X104254180Y-100364398D02*
X103444657Y-100364398D01*
X103444657Y-100364398D02*
X103349419Y-100412017D01*
X103349419Y-100412017D02*
X103301800Y-100459636D01*
X103301800Y-100459636D02*
X103254180Y-100554874D01*
X103254180Y-100554874D02*
X103254180Y-100745350D01*
X103254180Y-100745350D02*
X103301800Y-100840588D01*
X103301800Y-100840588D02*
X103349419Y-100888207D01*
X103349419Y-100888207D02*
X103444657Y-100935826D01*
X103444657Y-100935826D02*
X104254180Y-100935826D01*
X104254180Y-101269160D02*
X104254180Y-101840588D01*
X103254180Y-101554874D02*
X104254180Y-101554874D01*
X141179779Y-67306819D02*
X141179779Y-66306819D01*
X141179779Y-66306819D02*
X141513112Y-67021104D01*
X141513112Y-67021104D02*
X141846445Y-66306819D01*
X141846445Y-66306819D02*
X141846445Y-67306819D01*
X142275017Y-67259200D02*
X142417874Y-67306819D01*
X142417874Y-67306819D02*
X142655969Y-67306819D01*
X142655969Y-67306819D02*
X142751207Y-67259200D01*
X142751207Y-67259200D02*
X142798826Y-67211580D01*
X142798826Y-67211580D02*
X142846445Y-67116342D01*
X142846445Y-67116342D02*
X142846445Y-67021104D01*
X142846445Y-67021104D02*
X142798826Y-66925866D01*
X142798826Y-66925866D02*
X142751207Y-66878247D01*
X142751207Y-66878247D02*
X142655969Y-66830628D01*
X142655969Y-66830628D02*
X142465493Y-66783009D01*
X142465493Y-66783009D02*
X142370255Y-66735390D01*
X142370255Y-66735390D02*
X142322636Y-66687771D01*
X142322636Y-66687771D02*
X142275017Y-66592533D01*
X142275017Y-66592533D02*
X142275017Y-66497295D01*
X142275017Y-66497295D02*
X142322636Y-66402057D01*
X142322636Y-66402057D02*
X142370255Y-66354438D01*
X142370255Y-66354438D02*
X142465493Y-66306819D01*
X142465493Y-66306819D02*
X142703588Y-66306819D01*
X142703588Y-66306819D02*
X142846445Y-66354438D01*
X143798826Y-67306819D02*
X143227398Y-67306819D01*
X143513112Y-67306819D02*
X143513112Y-66306819D01*
X143513112Y-66306819D02*
X143417874Y-66449676D01*
X143417874Y-66449676D02*
X143322636Y-66544914D01*
X143322636Y-66544914D02*
X143227398Y-66592533D01*
X152990779Y-97421819D02*
X152990779Y-98231342D01*
X152990779Y-98231342D02*
X153038398Y-98326580D01*
X153038398Y-98326580D02*
X153086017Y-98374200D01*
X153086017Y-98374200D02*
X153181255Y-98421819D01*
X153181255Y-98421819D02*
X153371731Y-98421819D01*
X153371731Y-98421819D02*
X153466969Y-98374200D01*
X153466969Y-98374200D02*
X153514588Y-98326580D01*
X153514588Y-98326580D02*
X153562207Y-98231342D01*
X153562207Y-98231342D02*
X153562207Y-97421819D01*
X154038398Y-98421819D02*
X154038398Y-97421819D01*
X154466969Y-98136104D02*
X154943159Y-98136104D01*
X154371731Y-98421819D02*
X154705064Y-97421819D01*
X154705064Y-97421819D02*
X155038397Y-98421819D01*
X156705064Y-98421819D02*
X156371731Y-97945628D01*
X156133636Y-98421819D02*
X156133636Y-97421819D01*
X156133636Y-97421819D02*
X156514588Y-97421819D01*
X156514588Y-97421819D02*
X156609826Y-97469438D01*
X156609826Y-97469438D02*
X156657445Y-97517057D01*
X156657445Y-97517057D02*
X156705064Y-97612295D01*
X156705064Y-97612295D02*
X156705064Y-97755152D01*
X156705064Y-97755152D02*
X156657445Y-97850390D01*
X156657445Y-97850390D02*
X156609826Y-97898009D01*
X156609826Y-97898009D02*
X156514588Y-97945628D01*
X156514588Y-97945628D02*
X156133636Y-97945628D01*
X157609826Y-98421819D02*
X157133636Y-98421819D01*
X157133636Y-98421819D02*
X157133636Y-97421819D01*
X158705065Y-98421819D02*
X158705065Y-97421819D01*
X158705065Y-97421819D02*
X158943160Y-97421819D01*
X158943160Y-97421819D02*
X159086017Y-97469438D01*
X159086017Y-97469438D02*
X159181255Y-97564676D01*
X159181255Y-97564676D02*
X159228874Y-97659914D01*
X159228874Y-97659914D02*
X159276493Y-97850390D01*
X159276493Y-97850390D02*
X159276493Y-97993247D01*
X159276493Y-97993247D02*
X159228874Y-98183723D01*
X159228874Y-98183723D02*
X159181255Y-98278961D01*
X159181255Y-98278961D02*
X159086017Y-98374200D01*
X159086017Y-98374200D02*
X158943160Y-98421819D01*
X158943160Y-98421819D02*
X158705065Y-98421819D01*
X160276493Y-98421819D02*
X159943160Y-97945628D01*
X159705065Y-98421819D02*
X159705065Y-97421819D01*
X159705065Y-97421819D02*
X160086017Y-97421819D01*
X160086017Y-97421819D02*
X160181255Y-97469438D01*
X160181255Y-97469438D02*
X160228874Y-97517057D01*
X160228874Y-97517057D02*
X160276493Y-97612295D01*
X160276493Y-97612295D02*
X160276493Y-97755152D01*
X160276493Y-97755152D02*
X160228874Y-97850390D01*
X160228874Y-97850390D02*
X160181255Y-97898009D01*
X160181255Y-97898009D02*
X160086017Y-97945628D01*
X160086017Y-97945628D02*
X159705065Y-97945628D01*
X160895541Y-97421819D02*
X161086017Y-97421819D01*
X161086017Y-97421819D02*
X161181255Y-97469438D01*
X161181255Y-97469438D02*
X161276493Y-97564676D01*
X161276493Y-97564676D02*
X161324112Y-97755152D01*
X161324112Y-97755152D02*
X161324112Y-98088485D01*
X161324112Y-98088485D02*
X161276493Y-98278961D01*
X161276493Y-98278961D02*
X161181255Y-98374200D01*
X161181255Y-98374200D02*
X161086017Y-98421819D01*
X161086017Y-98421819D02*
X160895541Y-98421819D01*
X160895541Y-98421819D02*
X160800303Y-98374200D01*
X160800303Y-98374200D02*
X160705065Y-98278961D01*
X160705065Y-98278961D02*
X160657446Y-98088485D01*
X160657446Y-98088485D02*
X160657446Y-97755152D01*
X160657446Y-97755152D02*
X160705065Y-97564676D01*
X160705065Y-97564676D02*
X160800303Y-97469438D01*
X160800303Y-97469438D02*
X160895541Y-97421819D01*
X161752684Y-98421819D02*
X161752684Y-97421819D01*
X161752684Y-97421819D02*
X162324112Y-98421819D01*
X162324112Y-98421819D02*
X162324112Y-97421819D01*
X162800303Y-97898009D02*
X163133636Y-97898009D01*
X163276493Y-98421819D02*
X162800303Y-98421819D01*
X162800303Y-98421819D02*
X162800303Y-97421819D01*
X162800303Y-97421819D02*
X163276493Y-97421819D01*
X164419351Y-98136104D02*
X164895541Y-98136104D01*
X164324113Y-98421819D02*
X164657446Y-97421819D01*
X164657446Y-97421819D02*
X164990779Y-98421819D01*
X165895541Y-98421819D02*
X165562208Y-97945628D01*
X165324113Y-98421819D02*
X165324113Y-97421819D01*
X165324113Y-97421819D02*
X165705065Y-97421819D01*
X165705065Y-97421819D02*
X165800303Y-97469438D01*
X165800303Y-97469438D02*
X165847922Y-97517057D01*
X165847922Y-97517057D02*
X165895541Y-97612295D01*
X165895541Y-97612295D02*
X165895541Y-97755152D01*
X165895541Y-97755152D02*
X165847922Y-97850390D01*
X165847922Y-97850390D02*
X165800303Y-97898009D01*
X165800303Y-97898009D02*
X165705065Y-97945628D01*
X165705065Y-97945628D02*
X165324113Y-97945628D01*
X166324113Y-97898009D02*
X166657446Y-97898009D01*
X166800303Y-98421819D02*
X166324113Y-98421819D01*
X166324113Y-98421819D02*
X166324113Y-97421819D01*
X166324113Y-97421819D02*
X166800303Y-97421819D01*
X167228875Y-98421819D02*
X167228875Y-97421819D01*
X167228875Y-97421819D02*
X167800303Y-98421819D01*
X167800303Y-98421819D02*
X167800303Y-97421819D01*
X168228875Y-98136104D02*
X168705065Y-98136104D01*
X168133637Y-98421819D02*
X168466970Y-97421819D01*
X168466970Y-97421819D02*
X168800303Y-98421819D01*
X132924779Y-63369819D02*
X132924779Y-62369819D01*
X132924779Y-62369819D02*
X133162874Y-62369819D01*
X133162874Y-62369819D02*
X133305731Y-62417438D01*
X133305731Y-62417438D02*
X133400969Y-62512676D01*
X133400969Y-62512676D02*
X133448588Y-62607914D01*
X133448588Y-62607914D02*
X133496207Y-62798390D01*
X133496207Y-62798390D02*
X133496207Y-62941247D01*
X133496207Y-62941247D02*
X133448588Y-63131723D01*
X133448588Y-63131723D02*
X133400969Y-63226961D01*
X133400969Y-63226961D02*
X133305731Y-63322200D01*
X133305731Y-63322200D02*
X133162874Y-63369819D01*
X133162874Y-63369819D02*
X132924779Y-63369819D01*
X133924779Y-63369819D02*
X133924779Y-62369819D01*
X134972397Y-63369819D02*
X134639064Y-62893628D01*
X134400969Y-63369819D02*
X134400969Y-62369819D01*
X134400969Y-62369819D02*
X134781921Y-62369819D01*
X134781921Y-62369819D02*
X134877159Y-62417438D01*
X134877159Y-62417438D02*
X134924778Y-62465057D01*
X134924778Y-62465057D02*
X134972397Y-62560295D01*
X134972397Y-62560295D02*
X134972397Y-62703152D01*
X134972397Y-62703152D02*
X134924778Y-62798390D01*
X134924778Y-62798390D02*
X134877159Y-62846009D01*
X134877159Y-62846009D02*
X134781921Y-62893628D01*
X134781921Y-62893628D02*
X134400969Y-62893628D01*
X135782207Y-57781819D02*
X135448874Y-57305628D01*
X135210779Y-57781819D02*
X135210779Y-56781819D01*
X135210779Y-56781819D02*
X135591731Y-56781819D01*
X135591731Y-56781819D02*
X135686969Y-56829438D01*
X135686969Y-56829438D02*
X135734588Y-56877057D01*
X135734588Y-56877057D02*
X135782207Y-56972295D01*
X135782207Y-56972295D02*
X135782207Y-57115152D01*
X135782207Y-57115152D02*
X135734588Y-57210390D01*
X135734588Y-57210390D02*
X135686969Y-57258009D01*
X135686969Y-57258009D02*
X135591731Y-57305628D01*
X135591731Y-57305628D02*
X135210779Y-57305628D01*
X136210779Y-57781819D02*
X136210779Y-56781819D01*
X136210779Y-56781819D02*
X136591731Y-56781819D01*
X136591731Y-56781819D02*
X136686969Y-56829438D01*
X136686969Y-56829438D02*
X136734588Y-56877057D01*
X136734588Y-56877057D02*
X136782207Y-56972295D01*
X136782207Y-56972295D02*
X136782207Y-57115152D01*
X136782207Y-57115152D02*
X136734588Y-57210390D01*
X136734588Y-57210390D02*
X136686969Y-57258009D01*
X136686969Y-57258009D02*
X136591731Y-57305628D01*
X136591731Y-57305628D02*
X136210779Y-57305628D01*
X137210779Y-57781819D02*
X137210779Y-56781819D01*
X137448874Y-57877057D02*
X138210778Y-57877057D01*
X138448874Y-57781819D02*
X138448874Y-56781819D01*
X138925064Y-57781819D02*
X138925064Y-56781819D01*
X138925064Y-56781819D02*
X139496492Y-57781819D01*
X139496492Y-57781819D02*
X139496492Y-56781819D01*
X139972683Y-57781819D02*
X139972683Y-56781819D01*
X139972683Y-56781819D02*
X140353635Y-56781819D01*
X140353635Y-56781819D02*
X140448873Y-56829438D01*
X140448873Y-56829438D02*
X140496492Y-56877057D01*
X140496492Y-56877057D02*
X140544111Y-56972295D01*
X140544111Y-56972295D02*
X140544111Y-57115152D01*
X140544111Y-57115152D02*
X140496492Y-57210390D01*
X140496492Y-57210390D02*
X140448873Y-57258009D01*
X140448873Y-57258009D02*
X140353635Y-57305628D01*
X140353635Y-57305628D02*
X139972683Y-57305628D01*
X140972683Y-56781819D02*
X140972683Y-57591342D01*
X140972683Y-57591342D02*
X141020302Y-57686580D01*
X141020302Y-57686580D02*
X141067921Y-57734200D01*
X141067921Y-57734200D02*
X141163159Y-57781819D01*
X141163159Y-57781819D02*
X141353635Y-57781819D01*
X141353635Y-57781819D02*
X141448873Y-57734200D01*
X141448873Y-57734200D02*
X141496492Y-57686580D01*
X141496492Y-57686580D02*
X141544111Y-57591342D01*
X141544111Y-57591342D02*
X141544111Y-56781819D01*
X141877445Y-56781819D02*
X142448873Y-56781819D01*
X142163159Y-57781819D02*
X142163159Y-56781819D01*
X131654779Y-71243819D02*
X131654779Y-70243819D01*
X131654779Y-70720009D02*
X132226207Y-70720009D01*
X132226207Y-71243819D02*
X132226207Y-70243819D01*
X132654779Y-70958104D02*
X133130969Y-70958104D01*
X132559541Y-71243819D02*
X132892874Y-70243819D01*
X132892874Y-70243819D02*
X133226207Y-71243819D01*
X134035731Y-71243819D02*
X133559541Y-71243819D01*
X133559541Y-71243819D02*
X133559541Y-70243819D01*
X134892874Y-71243819D02*
X134321446Y-71243819D01*
X134607160Y-71243819D02*
X134607160Y-70243819D01*
X134607160Y-70243819D02*
X134511922Y-70386676D01*
X134511922Y-70386676D02*
X134416684Y-70481914D01*
X134416684Y-70481914D02*
X134321446Y-70529533D01*
X108286779Y-61591819D02*
X108286779Y-60591819D01*
X108715350Y-60687057D02*
X108762969Y-60639438D01*
X108762969Y-60639438D02*
X108858207Y-60591819D01*
X108858207Y-60591819D02*
X109096302Y-60591819D01*
X109096302Y-60591819D02*
X109191540Y-60639438D01*
X109191540Y-60639438D02*
X109239159Y-60687057D01*
X109239159Y-60687057D02*
X109286778Y-60782295D01*
X109286778Y-60782295D02*
X109286778Y-60877533D01*
X109286778Y-60877533D02*
X109239159Y-61020390D01*
X109239159Y-61020390D02*
X108667731Y-61591819D01*
X108667731Y-61591819D02*
X109286778Y-61591819D01*
X110286778Y-61496580D02*
X110239159Y-61544200D01*
X110239159Y-61544200D02*
X110096302Y-61591819D01*
X110096302Y-61591819D02*
X110001064Y-61591819D01*
X110001064Y-61591819D02*
X109858207Y-61544200D01*
X109858207Y-61544200D02*
X109762969Y-61448961D01*
X109762969Y-61448961D02*
X109715350Y-61353723D01*
X109715350Y-61353723D02*
X109667731Y-61163247D01*
X109667731Y-61163247D02*
X109667731Y-61020390D01*
X109667731Y-61020390D02*
X109715350Y-60829914D01*
X109715350Y-60829914D02*
X109762969Y-60734676D01*
X109762969Y-60734676D02*
X109858207Y-60639438D01*
X109858207Y-60639438D02*
X110001064Y-60591819D01*
X110001064Y-60591819D02*
X110096302Y-60591819D01*
X110096302Y-60591819D02*
X110239159Y-60639438D01*
X110239159Y-60639438D02*
X110286778Y-60687057D01*
X110477255Y-61687057D02*
X111239159Y-61687057D01*
X112001064Y-61591819D02*
X111429636Y-61591819D01*
X111715350Y-61591819D02*
X111715350Y-60591819D01*
X111715350Y-60591819D02*
X111620112Y-60734676D01*
X111620112Y-60734676D02*
X111524874Y-60829914D01*
X111524874Y-60829914D02*
X111429636Y-60877533D01*
X127939969Y-65401819D02*
X127463779Y-65401819D01*
X127463779Y-65401819D02*
X127463779Y-64401819D01*
X128273303Y-65401819D02*
X128273303Y-64401819D01*
X128749493Y-65401819D02*
X128749493Y-64401819D01*
X128749493Y-64401819D02*
X129082826Y-65116104D01*
X129082826Y-65116104D02*
X129416159Y-64401819D01*
X129416159Y-64401819D02*
X129416159Y-65401819D01*
X129892350Y-65401819D02*
X129892350Y-64401819D01*
X130225683Y-64401819D02*
X130797111Y-64401819D01*
X130511397Y-65401819D02*
X130511397Y-64401819D01*
X175088779Y-110867819D02*
X175088779Y-109867819D01*
X175088779Y-109867819D02*
X175326874Y-109867819D01*
X175326874Y-109867819D02*
X175469731Y-109915438D01*
X175469731Y-109915438D02*
X175564969Y-110010676D01*
X175564969Y-110010676D02*
X175612588Y-110105914D01*
X175612588Y-110105914D02*
X175660207Y-110296390D01*
X175660207Y-110296390D02*
X175660207Y-110439247D01*
X175660207Y-110439247D02*
X175612588Y-110629723D01*
X175612588Y-110629723D02*
X175564969Y-110724961D01*
X175564969Y-110724961D02*
X175469731Y-110820200D01*
X175469731Y-110820200D02*
X175326874Y-110867819D01*
X175326874Y-110867819D02*
X175088779Y-110867819D01*
X176660207Y-110867819D02*
X176326874Y-110391628D01*
X176088779Y-110867819D02*
X176088779Y-109867819D01*
X176088779Y-109867819D02*
X176469731Y-109867819D01*
X176469731Y-109867819D02*
X176564969Y-109915438D01*
X176564969Y-109915438D02*
X176612588Y-109963057D01*
X176612588Y-109963057D02*
X176660207Y-110058295D01*
X176660207Y-110058295D02*
X176660207Y-110201152D01*
X176660207Y-110201152D02*
X176612588Y-110296390D01*
X176612588Y-110296390D02*
X176564969Y-110344009D01*
X176564969Y-110344009D02*
X176469731Y-110391628D01*
X176469731Y-110391628D02*
X176088779Y-110391628D01*
X176945922Y-109867819D02*
X177279255Y-110867819D01*
X177279255Y-110867819D02*
X177612588Y-109867819D01*
X178088779Y-110296390D02*
X177993541Y-110248771D01*
X177993541Y-110248771D02*
X177945922Y-110201152D01*
X177945922Y-110201152D02*
X177898303Y-110105914D01*
X177898303Y-110105914D02*
X177898303Y-110058295D01*
X177898303Y-110058295D02*
X177945922Y-109963057D01*
X177945922Y-109963057D02*
X177993541Y-109915438D01*
X177993541Y-109915438D02*
X178088779Y-109867819D01*
X178088779Y-109867819D02*
X178279255Y-109867819D01*
X178279255Y-109867819D02*
X178374493Y-109915438D01*
X178374493Y-109915438D02*
X178422112Y-109963057D01*
X178422112Y-109963057D02*
X178469731Y-110058295D01*
X178469731Y-110058295D02*
X178469731Y-110105914D01*
X178469731Y-110105914D02*
X178422112Y-110201152D01*
X178422112Y-110201152D02*
X178374493Y-110248771D01*
X178374493Y-110248771D02*
X178279255Y-110296390D01*
X178279255Y-110296390D02*
X178088779Y-110296390D01*
X178088779Y-110296390D02*
X177993541Y-110344009D01*
X177993541Y-110344009D02*
X177945922Y-110391628D01*
X177945922Y-110391628D02*
X177898303Y-110486866D01*
X177898303Y-110486866D02*
X177898303Y-110677342D01*
X177898303Y-110677342D02*
X177945922Y-110772580D01*
X177945922Y-110772580D02*
X177993541Y-110820200D01*
X177993541Y-110820200D02*
X178088779Y-110867819D01*
X178088779Y-110867819D02*
X178279255Y-110867819D01*
X178279255Y-110867819D02*
X178374493Y-110820200D01*
X178374493Y-110820200D02*
X178422112Y-110772580D01*
X178422112Y-110772580D02*
X178469731Y-110677342D01*
X178469731Y-110677342D02*
X178469731Y-110486866D01*
X178469731Y-110486866D02*
X178422112Y-110391628D01*
X178422112Y-110391628D02*
X178374493Y-110344009D01*
X178374493Y-110344009D02*
X178279255Y-110296390D01*
X179041160Y-110296390D02*
X178945922Y-110248771D01*
X178945922Y-110248771D02*
X178898303Y-110201152D01*
X178898303Y-110201152D02*
X178850684Y-110105914D01*
X178850684Y-110105914D02*
X178850684Y-110058295D01*
X178850684Y-110058295D02*
X178898303Y-109963057D01*
X178898303Y-109963057D02*
X178945922Y-109915438D01*
X178945922Y-109915438D02*
X179041160Y-109867819D01*
X179041160Y-109867819D02*
X179231636Y-109867819D01*
X179231636Y-109867819D02*
X179326874Y-109915438D01*
X179326874Y-109915438D02*
X179374493Y-109963057D01*
X179374493Y-109963057D02*
X179422112Y-110058295D01*
X179422112Y-110058295D02*
X179422112Y-110105914D01*
X179422112Y-110105914D02*
X179374493Y-110201152D01*
X179374493Y-110201152D02*
X179326874Y-110248771D01*
X179326874Y-110248771D02*
X179231636Y-110296390D01*
X179231636Y-110296390D02*
X179041160Y-110296390D01*
X179041160Y-110296390D02*
X178945922Y-110344009D01*
X178945922Y-110344009D02*
X178898303Y-110391628D01*
X178898303Y-110391628D02*
X178850684Y-110486866D01*
X178850684Y-110486866D02*
X178850684Y-110677342D01*
X178850684Y-110677342D02*
X178898303Y-110772580D01*
X178898303Y-110772580D02*
X178945922Y-110820200D01*
X178945922Y-110820200D02*
X179041160Y-110867819D01*
X179041160Y-110867819D02*
X179231636Y-110867819D01*
X179231636Y-110867819D02*
X179326874Y-110820200D01*
X179326874Y-110820200D02*
X179374493Y-110772580D01*
X179374493Y-110772580D02*
X179422112Y-110677342D01*
X179422112Y-110677342D02*
X179422112Y-110486866D01*
X179422112Y-110486866D02*
X179374493Y-110391628D01*
X179374493Y-110391628D02*
X179326874Y-110344009D01*
X179326874Y-110344009D02*
X179231636Y-110296390D01*
X179803065Y-109963057D02*
X179850684Y-109915438D01*
X179850684Y-109915438D02*
X179945922Y-109867819D01*
X179945922Y-109867819D02*
X180184017Y-109867819D01*
X180184017Y-109867819D02*
X180279255Y-109915438D01*
X180279255Y-109915438D02*
X180326874Y-109963057D01*
X180326874Y-109963057D02*
X180374493Y-110058295D01*
X180374493Y-110058295D02*
X180374493Y-110153533D01*
X180374493Y-110153533D02*
X180326874Y-110296390D01*
X180326874Y-110296390D02*
X179755446Y-110867819D01*
X179755446Y-110867819D02*
X180374493Y-110867819D01*
X181279255Y-109867819D02*
X180803065Y-109867819D01*
X180803065Y-109867819D02*
X180755446Y-110344009D01*
X180755446Y-110344009D02*
X180803065Y-110296390D01*
X180803065Y-110296390D02*
X180898303Y-110248771D01*
X180898303Y-110248771D02*
X181136398Y-110248771D01*
X181136398Y-110248771D02*
X181231636Y-110296390D01*
X181231636Y-110296390D02*
X181279255Y-110344009D01*
X181279255Y-110344009D02*
X181326874Y-110439247D01*
X181326874Y-110439247D02*
X181326874Y-110677342D01*
X181326874Y-110677342D02*
X181279255Y-110772580D01*
X181279255Y-110772580D02*
X181231636Y-110820200D01*
X181231636Y-110820200D02*
X181136398Y-110867819D01*
X181136398Y-110867819D02*
X180898303Y-110867819D01*
X180898303Y-110867819D02*
X180803065Y-110820200D01*
X180803065Y-110820200D02*
X180755446Y-110772580D01*
X176415819Y-66608077D02*
X176415819Y-66036649D01*
X177415819Y-66322363D02*
X176415819Y-66322363D01*
X176892009Y-65369982D02*
X176939628Y-65227125D01*
X176939628Y-65227125D02*
X176987247Y-65179506D01*
X176987247Y-65179506D02*
X177082485Y-65131887D01*
X177082485Y-65131887D02*
X177225342Y-65131887D01*
X177225342Y-65131887D02*
X177320580Y-65179506D01*
X177320580Y-65179506D02*
X177368200Y-65227125D01*
X177368200Y-65227125D02*
X177415819Y-65322363D01*
X177415819Y-65322363D02*
X177415819Y-65703315D01*
X177415819Y-65703315D02*
X176415819Y-65703315D01*
X176415819Y-65703315D02*
X176415819Y-65369982D01*
X176415819Y-65369982D02*
X176463438Y-65274744D01*
X176463438Y-65274744D02*
X176511057Y-65227125D01*
X176511057Y-65227125D02*
X176606295Y-65179506D01*
X176606295Y-65179506D02*
X176701533Y-65179506D01*
X176701533Y-65179506D02*
X176796771Y-65227125D01*
X176796771Y-65227125D02*
X176844390Y-65274744D01*
X176844390Y-65274744D02*
X176892009Y-65369982D01*
X176892009Y-65369982D02*
X176892009Y-65703315D01*
X176415819Y-64274744D02*
X176415819Y-64465220D01*
X176415819Y-64465220D02*
X176463438Y-64560458D01*
X176463438Y-64560458D02*
X176511057Y-64608077D01*
X176511057Y-64608077D02*
X176653914Y-64703315D01*
X176653914Y-64703315D02*
X176844390Y-64750934D01*
X176844390Y-64750934D02*
X177225342Y-64750934D01*
X177225342Y-64750934D02*
X177320580Y-64703315D01*
X177320580Y-64703315D02*
X177368200Y-64655696D01*
X177368200Y-64655696D02*
X177415819Y-64560458D01*
X177415819Y-64560458D02*
X177415819Y-64369982D01*
X177415819Y-64369982D02*
X177368200Y-64274744D01*
X177368200Y-64274744D02*
X177320580Y-64227125D01*
X177320580Y-64227125D02*
X177225342Y-64179506D01*
X177225342Y-64179506D02*
X176987247Y-64179506D01*
X176987247Y-64179506D02*
X176892009Y-64227125D01*
X176892009Y-64227125D02*
X176844390Y-64274744D01*
X176844390Y-64274744D02*
X176796771Y-64369982D01*
X176796771Y-64369982D02*
X176796771Y-64560458D01*
X176796771Y-64560458D02*
X176844390Y-64655696D01*
X176844390Y-64655696D02*
X176892009Y-64703315D01*
X176892009Y-64703315D02*
X176987247Y-64750934D01*
X176415819Y-63322363D02*
X176415819Y-63512839D01*
X176415819Y-63512839D02*
X176463438Y-63608077D01*
X176463438Y-63608077D02*
X176511057Y-63655696D01*
X176511057Y-63655696D02*
X176653914Y-63750934D01*
X176653914Y-63750934D02*
X176844390Y-63798553D01*
X176844390Y-63798553D02*
X177225342Y-63798553D01*
X177225342Y-63798553D02*
X177320580Y-63750934D01*
X177320580Y-63750934D02*
X177368200Y-63703315D01*
X177368200Y-63703315D02*
X177415819Y-63608077D01*
X177415819Y-63608077D02*
X177415819Y-63417601D01*
X177415819Y-63417601D02*
X177368200Y-63322363D01*
X177368200Y-63322363D02*
X177320580Y-63274744D01*
X177320580Y-63274744D02*
X177225342Y-63227125D01*
X177225342Y-63227125D02*
X176987247Y-63227125D01*
X176987247Y-63227125D02*
X176892009Y-63274744D01*
X176892009Y-63274744D02*
X176844390Y-63322363D01*
X176844390Y-63322363D02*
X176796771Y-63417601D01*
X176796771Y-63417601D02*
X176796771Y-63608077D01*
X176796771Y-63608077D02*
X176844390Y-63703315D01*
X176844390Y-63703315D02*
X176892009Y-63750934D01*
X176892009Y-63750934D02*
X176987247Y-63798553D01*
X177415819Y-62274744D02*
X177415819Y-62846172D01*
X177415819Y-62560458D02*
X176415819Y-62560458D01*
X176415819Y-62560458D02*
X176558676Y-62655696D01*
X176558676Y-62655696D02*
X176653914Y-62750934D01*
X176653914Y-62750934D02*
X176701533Y-62846172D01*
X176511057Y-61893791D02*
X176463438Y-61846172D01*
X176463438Y-61846172D02*
X176415819Y-61750934D01*
X176415819Y-61750934D02*
X176415819Y-61512839D01*
X176415819Y-61512839D02*
X176463438Y-61417601D01*
X176463438Y-61417601D02*
X176511057Y-61369982D01*
X176511057Y-61369982D02*
X176606295Y-61322363D01*
X176606295Y-61322363D02*
X176701533Y-61322363D01*
X176701533Y-61322363D02*
X176844390Y-61369982D01*
X176844390Y-61369982D02*
X177415819Y-61941410D01*
X177415819Y-61941410D02*
X177415819Y-61322363D01*
X176892009Y-60560458D02*
X176892009Y-60893791D01*
X177415819Y-60893791D02*
X176415819Y-60893791D01*
X176415819Y-60893791D02*
X176415819Y-60417601D01*
X177415819Y-60036648D02*
X176415819Y-60036648D01*
X176415819Y-60036648D02*
X177415819Y-59465220D01*
X177415819Y-59465220D02*
X176415819Y-59465220D01*
X176463438Y-58465220D02*
X176415819Y-58560458D01*
X176415819Y-58560458D02*
X176415819Y-58703315D01*
X176415819Y-58703315D02*
X176463438Y-58846172D01*
X176463438Y-58846172D02*
X176558676Y-58941410D01*
X176558676Y-58941410D02*
X176653914Y-58989029D01*
X176653914Y-58989029D02*
X176844390Y-59036648D01*
X176844390Y-59036648D02*
X176987247Y-59036648D01*
X176987247Y-59036648D02*
X177177723Y-58989029D01*
X177177723Y-58989029D02*
X177272961Y-58941410D01*
X177272961Y-58941410D02*
X177368200Y-58846172D01*
X177368200Y-58846172D02*
X177415819Y-58703315D01*
X177415819Y-58703315D02*
X177415819Y-58608077D01*
X177415819Y-58608077D02*
X177368200Y-58465220D01*
X177368200Y-58465220D02*
X177320580Y-58417601D01*
X177320580Y-58417601D02*
X176987247Y-58417601D01*
X176987247Y-58417601D02*
X176987247Y-58608077D01*
X107683445Y-84293057D02*
X107588207Y-84245438D01*
X107588207Y-84245438D02*
X107492969Y-84150200D01*
X107492969Y-84150200D02*
X107350112Y-84007342D01*
X107350112Y-84007342D02*
X107254874Y-83959723D01*
X107254874Y-83959723D02*
X107159636Y-83959723D01*
X107207255Y-84197819D02*
X107112017Y-84150200D01*
X107112017Y-84150200D02*
X107016779Y-84054961D01*
X107016779Y-84054961D02*
X106969160Y-83864485D01*
X106969160Y-83864485D02*
X106969160Y-83531152D01*
X106969160Y-83531152D02*
X107016779Y-83340676D01*
X107016779Y-83340676D02*
X107112017Y-83245438D01*
X107112017Y-83245438D02*
X107207255Y-83197819D01*
X107207255Y-83197819D02*
X107397731Y-83197819D01*
X107397731Y-83197819D02*
X107492969Y-83245438D01*
X107492969Y-83245438D02*
X107588207Y-83340676D01*
X107588207Y-83340676D02*
X107635826Y-83531152D01*
X107635826Y-83531152D02*
X107635826Y-83864485D01*
X107635826Y-83864485D02*
X107588207Y-84054961D01*
X107588207Y-84054961D02*
X107492969Y-84150200D01*
X107492969Y-84150200D02*
X107397731Y-84197819D01*
X107397731Y-84197819D02*
X107207255Y-84197819D01*
X108064398Y-84197819D02*
X108064398Y-83197819D01*
X108302493Y-84293057D02*
X109064397Y-84293057D01*
X109873921Y-84102580D02*
X109826302Y-84150200D01*
X109826302Y-84150200D02*
X109683445Y-84197819D01*
X109683445Y-84197819D02*
X109588207Y-84197819D01*
X109588207Y-84197819D02*
X109445350Y-84150200D01*
X109445350Y-84150200D02*
X109350112Y-84054961D01*
X109350112Y-84054961D02*
X109302493Y-83959723D01*
X109302493Y-83959723D02*
X109254874Y-83769247D01*
X109254874Y-83769247D02*
X109254874Y-83626390D01*
X109254874Y-83626390D02*
X109302493Y-83435914D01*
X109302493Y-83435914D02*
X109350112Y-83340676D01*
X109350112Y-83340676D02*
X109445350Y-83245438D01*
X109445350Y-83245438D02*
X109588207Y-83197819D01*
X109588207Y-83197819D02*
X109683445Y-83197819D01*
X109683445Y-83197819D02*
X109826302Y-83245438D01*
X109826302Y-83245438D02*
X109873921Y-83293057D01*
X110492969Y-83197819D02*
X110683445Y-83197819D01*
X110683445Y-83197819D02*
X110778683Y-83245438D01*
X110778683Y-83245438D02*
X110873921Y-83340676D01*
X110873921Y-83340676D02*
X110921540Y-83531152D01*
X110921540Y-83531152D02*
X110921540Y-83864485D01*
X110921540Y-83864485D02*
X110873921Y-84054961D01*
X110873921Y-84054961D02*
X110778683Y-84150200D01*
X110778683Y-84150200D02*
X110683445Y-84197819D01*
X110683445Y-84197819D02*
X110492969Y-84197819D01*
X110492969Y-84197819D02*
X110397731Y-84150200D01*
X110397731Y-84150200D02*
X110302493Y-84054961D01*
X110302493Y-84054961D02*
X110254874Y-83864485D01*
X110254874Y-83864485D02*
X110254874Y-83531152D01*
X110254874Y-83531152D02*
X110302493Y-83340676D01*
X110302493Y-83340676D02*
X110397731Y-83245438D01*
X110397731Y-83245438D02*
X110492969Y-83197819D01*
X111350112Y-84197819D02*
X111350112Y-83197819D01*
X111350112Y-83197819D02*
X111921540Y-84197819D01*
X111921540Y-84197819D02*
X111921540Y-83197819D01*
X112397731Y-84197819D02*
X112397731Y-83197819D01*
X112397731Y-83197819D02*
X112969159Y-84197819D01*
X112969159Y-84197819D02*
X112969159Y-83197819D01*
X134353445Y-73498057D02*
X134258207Y-73450438D01*
X134258207Y-73450438D02*
X134162969Y-73355200D01*
X134162969Y-73355200D02*
X134020112Y-73212342D01*
X134020112Y-73212342D02*
X133924874Y-73164723D01*
X133924874Y-73164723D02*
X133829636Y-73164723D01*
X133877255Y-73402819D02*
X133782017Y-73355200D01*
X133782017Y-73355200D02*
X133686779Y-73259961D01*
X133686779Y-73259961D02*
X133639160Y-73069485D01*
X133639160Y-73069485D02*
X133639160Y-72736152D01*
X133639160Y-72736152D02*
X133686779Y-72545676D01*
X133686779Y-72545676D02*
X133782017Y-72450438D01*
X133782017Y-72450438D02*
X133877255Y-72402819D01*
X133877255Y-72402819D02*
X134067731Y-72402819D01*
X134067731Y-72402819D02*
X134162969Y-72450438D01*
X134162969Y-72450438D02*
X134258207Y-72545676D01*
X134258207Y-72545676D02*
X134305826Y-72736152D01*
X134305826Y-72736152D02*
X134305826Y-73069485D01*
X134305826Y-73069485D02*
X134258207Y-73259961D01*
X134258207Y-73259961D02*
X134162969Y-73355200D01*
X134162969Y-73355200D02*
X134067731Y-73402819D01*
X134067731Y-73402819D02*
X133877255Y-73402819D01*
X134734398Y-73402819D02*
X134734398Y-72402819D01*
X141132160Y-69180104D02*
X141608350Y-69180104D01*
X141036922Y-69465819D02*
X141370255Y-68465819D01*
X141370255Y-68465819D02*
X141703588Y-69465819D01*
X142036922Y-69465819D02*
X142036922Y-68465819D01*
X142513112Y-69465819D02*
X142513112Y-68465819D01*
X142513112Y-68465819D02*
X143084540Y-69465819D01*
X143084540Y-69465819D02*
X143084540Y-68465819D01*
X144084540Y-69465819D02*
X143513112Y-69465819D01*
X143798826Y-69465819D02*
X143798826Y-68465819D01*
X143798826Y-68465819D02*
X143703588Y-68608676D01*
X143703588Y-68608676D02*
X143608350Y-68703914D01*
X143608350Y-68703914D02*
X143513112Y-68751533D01*
X141179779Y-71497819D02*
X141179779Y-70497819D01*
X141179779Y-70974009D02*
X141751207Y-70974009D01*
X141751207Y-71497819D02*
X141751207Y-70497819D01*
X142179779Y-71212104D02*
X142655969Y-71212104D01*
X142084541Y-71497819D02*
X142417874Y-70497819D01*
X142417874Y-70497819D02*
X142751207Y-71497819D01*
X143560731Y-71497819D02*
X143084541Y-71497819D01*
X143084541Y-71497819D02*
X143084541Y-70497819D01*
X143846446Y-70593057D02*
X143894065Y-70545438D01*
X143894065Y-70545438D02*
X143989303Y-70497819D01*
X143989303Y-70497819D02*
X144227398Y-70497819D01*
X144227398Y-70497819D02*
X144322636Y-70545438D01*
X144322636Y-70545438D02*
X144370255Y-70593057D01*
X144370255Y-70593057D02*
X144417874Y-70688295D01*
X144417874Y-70688295D02*
X144417874Y-70783533D01*
X144417874Y-70783533D02*
X144370255Y-70926390D01*
X144370255Y-70926390D02*
X143798827Y-71497819D01*
X143798827Y-71497819D02*
X144417874Y-71497819D01*
X133067588Y-60385438D02*
X132972350Y-60337819D01*
X132972350Y-60337819D02*
X132829493Y-60337819D01*
X132829493Y-60337819D02*
X132686636Y-60385438D01*
X132686636Y-60385438D02*
X132591398Y-60480676D01*
X132591398Y-60480676D02*
X132543779Y-60575914D01*
X132543779Y-60575914D02*
X132496160Y-60766390D01*
X132496160Y-60766390D02*
X132496160Y-60909247D01*
X132496160Y-60909247D02*
X132543779Y-61099723D01*
X132543779Y-61099723D02*
X132591398Y-61194961D01*
X132591398Y-61194961D02*
X132686636Y-61290200D01*
X132686636Y-61290200D02*
X132829493Y-61337819D01*
X132829493Y-61337819D02*
X132924731Y-61337819D01*
X132924731Y-61337819D02*
X133067588Y-61290200D01*
X133067588Y-61290200D02*
X133115207Y-61242580D01*
X133115207Y-61242580D02*
X133115207Y-60909247D01*
X133115207Y-60909247D02*
X132924731Y-60909247D01*
X133543779Y-61337819D02*
X133543779Y-60337819D01*
X133543779Y-60337819D02*
X134115207Y-61337819D01*
X134115207Y-61337819D02*
X134115207Y-60337819D01*
X134591398Y-61337819D02*
X134591398Y-60337819D01*
X134591398Y-60337819D02*
X134829493Y-60337819D01*
X134829493Y-60337819D02*
X134972350Y-60385438D01*
X134972350Y-60385438D02*
X135067588Y-60480676D01*
X135067588Y-60480676D02*
X135115207Y-60575914D01*
X135115207Y-60575914D02*
X135162826Y-60766390D01*
X135162826Y-60766390D02*
X135162826Y-60909247D01*
X135162826Y-60909247D02*
X135115207Y-61099723D01*
X135115207Y-61099723D02*
X135067588Y-61194961D01*
X135067588Y-61194961D02*
X134972350Y-61290200D01*
X134972350Y-61290200D02*
X134829493Y-61337819D01*
X134829493Y-61337819D02*
X134591398Y-61337819D01*
X131146779Y-67433819D02*
X131146779Y-66433819D01*
X131146779Y-66433819D02*
X131527731Y-66433819D01*
X131527731Y-66433819D02*
X131622969Y-66481438D01*
X131622969Y-66481438D02*
X131670588Y-66529057D01*
X131670588Y-66529057D02*
X131718207Y-66624295D01*
X131718207Y-66624295D02*
X131718207Y-66767152D01*
X131718207Y-66767152D02*
X131670588Y-66862390D01*
X131670588Y-66862390D02*
X131622969Y-66910009D01*
X131622969Y-66910009D02*
X131527731Y-66957628D01*
X131527731Y-66957628D02*
X131146779Y-66957628D01*
X132051541Y-66433819D02*
X132289636Y-67433819D01*
X132289636Y-67433819D02*
X132480112Y-66719533D01*
X132480112Y-66719533D02*
X132670588Y-67433819D01*
X132670588Y-67433819D02*
X132908684Y-66433819D01*
X133289636Y-67433819D02*
X133289636Y-66433819D01*
X133289636Y-66433819D02*
X133622969Y-67148104D01*
X133622969Y-67148104D02*
X133956302Y-66433819D01*
X133956302Y-66433819D02*
X133956302Y-67433819D01*
X134384874Y-67148104D02*
X134861064Y-67148104D01*
X134289636Y-67433819D02*
X134622969Y-66433819D01*
X134622969Y-66433819D02*
X134956302Y-67433819D01*
X141052779Y-65401819D02*
X141052779Y-64401819D01*
X141052779Y-64401819D02*
X141386112Y-65116104D01*
X141386112Y-65116104D02*
X141719445Y-64401819D01*
X141719445Y-64401819D02*
X141719445Y-65401819D01*
X142148017Y-65354200D02*
X142290874Y-65401819D01*
X142290874Y-65401819D02*
X142528969Y-65401819D01*
X142528969Y-65401819D02*
X142624207Y-65354200D01*
X142624207Y-65354200D02*
X142671826Y-65306580D01*
X142671826Y-65306580D02*
X142719445Y-65211342D01*
X142719445Y-65211342D02*
X142719445Y-65116104D01*
X142719445Y-65116104D02*
X142671826Y-65020866D01*
X142671826Y-65020866D02*
X142624207Y-64973247D01*
X142624207Y-64973247D02*
X142528969Y-64925628D01*
X142528969Y-64925628D02*
X142338493Y-64878009D01*
X142338493Y-64878009D02*
X142243255Y-64830390D01*
X142243255Y-64830390D02*
X142195636Y-64782771D01*
X142195636Y-64782771D02*
X142148017Y-64687533D01*
X142148017Y-64687533D02*
X142148017Y-64592295D01*
X142148017Y-64592295D02*
X142195636Y-64497057D01*
X142195636Y-64497057D02*
X142243255Y-64449438D01*
X142243255Y-64449438D02*
X142338493Y-64401819D01*
X142338493Y-64401819D02*
X142576588Y-64401819D01*
X142576588Y-64401819D02*
X142719445Y-64449438D01*
X143052779Y-64401819D02*
X143671826Y-64401819D01*
X143671826Y-64401819D02*
X143338493Y-64782771D01*
X143338493Y-64782771D02*
X143481350Y-64782771D01*
X143481350Y-64782771D02*
X143576588Y-64830390D01*
X143576588Y-64830390D02*
X143624207Y-64878009D01*
X143624207Y-64878009D02*
X143671826Y-64973247D01*
X143671826Y-64973247D02*
X143671826Y-65211342D01*
X143671826Y-65211342D02*
X143624207Y-65306580D01*
X143624207Y-65306580D02*
X143576588Y-65354200D01*
X143576588Y-65354200D02*
X143481350Y-65401819D01*
X143481350Y-65401819D02*
X143195636Y-65401819D01*
X143195636Y-65401819D02*
X143100398Y-65354200D01*
X143100398Y-65354200D02*
X143052779Y-65306580D01*
X141132160Y-63322200D02*
X141275017Y-63369819D01*
X141275017Y-63369819D02*
X141513112Y-63369819D01*
X141513112Y-63369819D02*
X141608350Y-63322200D01*
X141608350Y-63322200D02*
X141655969Y-63274580D01*
X141655969Y-63274580D02*
X141703588Y-63179342D01*
X141703588Y-63179342D02*
X141703588Y-63084104D01*
X141703588Y-63084104D02*
X141655969Y-62988866D01*
X141655969Y-62988866D02*
X141608350Y-62941247D01*
X141608350Y-62941247D02*
X141513112Y-62893628D01*
X141513112Y-62893628D02*
X141322636Y-62846009D01*
X141322636Y-62846009D02*
X141227398Y-62798390D01*
X141227398Y-62798390D02*
X141179779Y-62750771D01*
X141179779Y-62750771D02*
X141132160Y-62655533D01*
X141132160Y-62655533D02*
X141132160Y-62560295D01*
X141132160Y-62560295D02*
X141179779Y-62465057D01*
X141179779Y-62465057D02*
X141227398Y-62417438D01*
X141227398Y-62417438D02*
X141322636Y-62369819D01*
X141322636Y-62369819D02*
X141560731Y-62369819D01*
X141560731Y-62369819D02*
X141703588Y-62417438D01*
X141989303Y-62369819D02*
X142560731Y-62369819D01*
X142275017Y-63369819D02*
X142275017Y-62369819D01*
X142894065Y-62846009D02*
X143227398Y-62846009D01*
X143370255Y-63369819D02*
X142894065Y-63369819D01*
X142894065Y-63369819D02*
X142894065Y-62369819D01*
X142894065Y-62369819D02*
X143370255Y-62369819D01*
X143798827Y-63369819D02*
X143798827Y-62369819D01*
X143798827Y-62369819D02*
X144179779Y-62369819D01*
X144179779Y-62369819D02*
X144275017Y-62417438D01*
X144275017Y-62417438D02*
X144322636Y-62465057D01*
X144322636Y-62465057D02*
X144370255Y-62560295D01*
X144370255Y-62560295D02*
X144370255Y-62703152D01*
X144370255Y-62703152D02*
X144322636Y-62798390D01*
X144322636Y-62798390D02*
X144275017Y-62846009D01*
X144275017Y-62846009D02*
X144179779Y-62893628D01*
X144179779Y-62893628D02*
X143798827Y-62893628D01*
X146354969Y-106549819D02*
X145878779Y-106549819D01*
X145878779Y-106549819D02*
X145878779Y-105549819D01*
X146688303Y-106026009D02*
X147021636Y-106026009D01*
X147164493Y-106549819D02*
X146688303Y-106549819D01*
X146688303Y-106549819D02*
X146688303Y-105549819D01*
X146688303Y-105549819D02*
X147164493Y-105549819D01*
X147593065Y-106549819D02*
X147593065Y-105549819D01*
X147593065Y-105549819D02*
X147831160Y-105549819D01*
X147831160Y-105549819D02*
X147974017Y-105597438D01*
X147974017Y-105597438D02*
X148069255Y-105692676D01*
X148069255Y-105692676D02*
X148116874Y-105787914D01*
X148116874Y-105787914D02*
X148164493Y-105978390D01*
X148164493Y-105978390D02*
X148164493Y-106121247D01*
X148164493Y-106121247D02*
X148116874Y-106311723D01*
X148116874Y-106311723D02*
X148069255Y-106406961D01*
X148069255Y-106406961D02*
X147974017Y-106502200D01*
X147974017Y-106502200D02*
X147831160Y-106549819D01*
X147831160Y-106549819D02*
X147593065Y-106549819D01*
X197789800Y-91983160D02*
X197742180Y-92126017D01*
X197742180Y-92126017D02*
X197742180Y-92364112D01*
X197742180Y-92364112D02*
X197789800Y-92459350D01*
X197789800Y-92459350D02*
X197837419Y-92506969D01*
X197837419Y-92506969D02*
X197932657Y-92554588D01*
X197932657Y-92554588D02*
X198027895Y-92554588D01*
X198027895Y-92554588D02*
X198123133Y-92506969D01*
X198123133Y-92506969D02*
X198170752Y-92459350D01*
X198170752Y-92459350D02*
X198218371Y-92364112D01*
X198218371Y-92364112D02*
X198265990Y-92173636D01*
X198265990Y-92173636D02*
X198313609Y-92078398D01*
X198313609Y-92078398D02*
X198361228Y-92030779D01*
X198361228Y-92030779D02*
X198456466Y-91983160D01*
X198456466Y-91983160D02*
X198551704Y-91983160D01*
X198551704Y-91983160D02*
X198646942Y-92030779D01*
X198646942Y-92030779D02*
X198694561Y-92078398D01*
X198694561Y-92078398D02*
X198742180Y-92173636D01*
X198742180Y-92173636D02*
X198742180Y-92411731D01*
X198742180Y-92411731D02*
X198694561Y-92554588D01*
X198742180Y-92840303D02*
X198742180Y-93411731D01*
X197742180Y-93126017D02*
X198742180Y-93126017D01*
X198265990Y-93745065D02*
X198265990Y-94078398D01*
X197742180Y-94221255D02*
X197742180Y-93745065D01*
X197742180Y-93745065D02*
X198742180Y-93745065D01*
X198742180Y-93745065D02*
X198742180Y-94221255D01*
X197742180Y-94649827D02*
X198742180Y-94649827D01*
X198742180Y-94649827D02*
X198742180Y-95030779D01*
X198742180Y-95030779D02*
X198694561Y-95126017D01*
X198694561Y-95126017D02*
X198646942Y-95173636D01*
X198646942Y-95173636D02*
X198551704Y-95221255D01*
X198551704Y-95221255D02*
X198408847Y-95221255D01*
X198408847Y-95221255D02*
X198313609Y-95173636D01*
X198313609Y-95173636D02*
X198265990Y-95126017D01*
X198265990Y-95126017D02*
X198218371Y-95030779D01*
X198218371Y-95030779D02*
X198218371Y-94649827D01*
X197742180Y-95649827D02*
X198742180Y-95649827D01*
X198742180Y-95649827D02*
X198742180Y-96030779D01*
X198742180Y-96030779D02*
X198694561Y-96126017D01*
X198694561Y-96126017D02*
X198646942Y-96173636D01*
X198646942Y-96173636D02*
X198551704Y-96221255D01*
X198551704Y-96221255D02*
X198408847Y-96221255D01*
X198408847Y-96221255D02*
X198313609Y-96173636D01*
X198313609Y-96173636D02*
X198265990Y-96126017D01*
X198265990Y-96126017D02*
X198218371Y-96030779D01*
X198218371Y-96030779D02*
X198218371Y-95649827D01*
X198265990Y-96649827D02*
X198265990Y-96983160D01*
X197742180Y-97126017D02*
X197742180Y-96649827D01*
X197742180Y-96649827D02*
X198742180Y-96649827D01*
X198742180Y-96649827D02*
X198742180Y-97126017D01*
X197742180Y-98126017D02*
X198218371Y-97792684D01*
X197742180Y-97554589D02*
X198742180Y-97554589D01*
X198742180Y-97554589D02*
X198742180Y-97935541D01*
X198742180Y-97935541D02*
X198694561Y-98030779D01*
X198694561Y-98030779D02*
X198646942Y-98078398D01*
X198646942Y-98078398D02*
X198551704Y-98126017D01*
X198551704Y-98126017D02*
X198408847Y-98126017D01*
X198408847Y-98126017D02*
X198313609Y-98078398D01*
X198313609Y-98078398D02*
X198265990Y-98030779D01*
X198265990Y-98030779D02*
X198218371Y-97935541D01*
X198218371Y-97935541D02*
X198218371Y-97554589D01*
X132416779Y-65401819D02*
X132416779Y-64401819D01*
X132416779Y-64401819D02*
X132750112Y-65116104D01*
X132750112Y-65116104D02*
X133083445Y-64401819D01*
X133083445Y-64401819D02*
X133083445Y-65401819D01*
X133512017Y-65354200D02*
X133654874Y-65401819D01*
X133654874Y-65401819D02*
X133892969Y-65401819D01*
X133892969Y-65401819D02*
X133988207Y-65354200D01*
X133988207Y-65354200D02*
X134035826Y-65306580D01*
X134035826Y-65306580D02*
X134083445Y-65211342D01*
X134083445Y-65211342D02*
X134083445Y-65116104D01*
X134083445Y-65116104D02*
X134035826Y-65020866D01*
X134035826Y-65020866D02*
X133988207Y-64973247D01*
X133988207Y-64973247D02*
X133892969Y-64925628D01*
X133892969Y-64925628D02*
X133702493Y-64878009D01*
X133702493Y-64878009D02*
X133607255Y-64830390D01*
X133607255Y-64830390D02*
X133559636Y-64782771D01*
X133559636Y-64782771D02*
X133512017Y-64687533D01*
X133512017Y-64687533D02*
X133512017Y-64592295D01*
X133512017Y-64592295D02*
X133559636Y-64497057D01*
X133559636Y-64497057D02*
X133607255Y-64449438D01*
X133607255Y-64449438D02*
X133702493Y-64401819D01*
X133702493Y-64401819D02*
X133940588Y-64401819D01*
X133940588Y-64401819D02*
X134083445Y-64449438D01*
X134464398Y-64497057D02*
X134512017Y-64449438D01*
X134512017Y-64449438D02*
X134607255Y-64401819D01*
X134607255Y-64401819D02*
X134845350Y-64401819D01*
X134845350Y-64401819D02*
X134940588Y-64449438D01*
X134940588Y-64449438D02*
X134988207Y-64497057D01*
X134988207Y-64497057D02*
X135035826Y-64592295D01*
X135035826Y-64592295D02*
X135035826Y-64687533D01*
X135035826Y-64687533D02*
X134988207Y-64830390D01*
X134988207Y-64830390D02*
X134416779Y-65401819D01*
X134416779Y-65401819D02*
X135035826Y-65401819D01*
X141106779Y-60948866D02*
X141868684Y-60948866D01*
X141487731Y-61329819D02*
X141487731Y-60567914D01*
X142249636Y-60329819D02*
X142868683Y-60329819D01*
X142868683Y-60329819D02*
X142535350Y-60710771D01*
X142535350Y-60710771D02*
X142678207Y-60710771D01*
X142678207Y-60710771D02*
X142773445Y-60758390D01*
X142773445Y-60758390D02*
X142821064Y-60806009D01*
X142821064Y-60806009D02*
X142868683Y-60901247D01*
X142868683Y-60901247D02*
X142868683Y-61139342D01*
X142868683Y-61139342D02*
X142821064Y-61234580D01*
X142821064Y-61234580D02*
X142773445Y-61282200D01*
X142773445Y-61282200D02*
X142678207Y-61329819D01*
X142678207Y-61329819D02*
X142392493Y-61329819D01*
X142392493Y-61329819D02*
X142297255Y-61282200D01*
X142297255Y-61282200D02*
X142249636Y-61234580D01*
X143154398Y-60329819D02*
X143487731Y-61329819D01*
X143487731Y-61329819D02*
X143821064Y-60329819D01*
X144059160Y-60329819D02*
X144678207Y-60329819D01*
X144678207Y-60329819D02*
X144344874Y-60710771D01*
X144344874Y-60710771D02*
X144487731Y-60710771D01*
X144487731Y-60710771D02*
X144582969Y-60758390D01*
X144582969Y-60758390D02*
X144630588Y-60806009D01*
X144630588Y-60806009D02*
X144678207Y-60901247D01*
X144678207Y-60901247D02*
X144678207Y-61139342D01*
X144678207Y-61139342D02*
X144630588Y-61234580D01*
X144630588Y-61234580D02*
X144582969Y-61282200D01*
X144582969Y-61282200D02*
X144487731Y-61329819D01*
X144487731Y-61329819D02*
X144202017Y-61329819D01*
X144202017Y-61329819D02*
X144106779Y-61282200D01*
X144106779Y-61282200D02*
X144059160Y-61234580D01*
X141132160Y-75514200D02*
X141275017Y-75561819D01*
X141275017Y-75561819D02*
X141513112Y-75561819D01*
X141513112Y-75561819D02*
X141608350Y-75514200D01*
X141608350Y-75514200D02*
X141655969Y-75466580D01*
X141655969Y-75466580D02*
X141703588Y-75371342D01*
X141703588Y-75371342D02*
X141703588Y-75276104D01*
X141703588Y-75276104D02*
X141655969Y-75180866D01*
X141655969Y-75180866D02*
X141608350Y-75133247D01*
X141608350Y-75133247D02*
X141513112Y-75085628D01*
X141513112Y-75085628D02*
X141322636Y-75038009D01*
X141322636Y-75038009D02*
X141227398Y-74990390D01*
X141227398Y-74990390D02*
X141179779Y-74942771D01*
X141179779Y-74942771D02*
X141132160Y-74847533D01*
X141132160Y-74847533D02*
X141132160Y-74752295D01*
X141132160Y-74752295D02*
X141179779Y-74657057D01*
X141179779Y-74657057D02*
X141227398Y-74609438D01*
X141227398Y-74609438D02*
X141322636Y-74561819D01*
X141322636Y-74561819D02*
X141560731Y-74561819D01*
X141560731Y-74561819D02*
X141703588Y-74609438D01*
X142132160Y-75561819D02*
X142132160Y-74561819D01*
X142132160Y-74561819D02*
X142370255Y-74561819D01*
X142370255Y-74561819D02*
X142513112Y-74609438D01*
X142513112Y-74609438D02*
X142608350Y-74704676D01*
X142608350Y-74704676D02*
X142655969Y-74799914D01*
X142655969Y-74799914D02*
X142703588Y-74990390D01*
X142703588Y-74990390D02*
X142703588Y-75133247D01*
X142703588Y-75133247D02*
X142655969Y-75323723D01*
X142655969Y-75323723D02*
X142608350Y-75418961D01*
X142608350Y-75418961D02*
X142513112Y-75514200D01*
X142513112Y-75514200D02*
X142370255Y-75561819D01*
X142370255Y-75561819D02*
X142132160Y-75561819D01*
X143084541Y-75276104D02*
X143560731Y-75276104D01*
X142989303Y-75561819D02*
X143322636Y-74561819D01*
X143322636Y-74561819D02*
X143655969Y-75561819D01*
X185550180Y-62820779D02*
X186550180Y-62820779D01*
X186550180Y-62820779D02*
X186550180Y-63058874D01*
X186550180Y-63058874D02*
X186502561Y-63201731D01*
X186502561Y-63201731D02*
X186407323Y-63296969D01*
X186407323Y-63296969D02*
X186312085Y-63344588D01*
X186312085Y-63344588D02*
X186121609Y-63392207D01*
X186121609Y-63392207D02*
X185978752Y-63392207D01*
X185978752Y-63392207D02*
X185788276Y-63344588D01*
X185788276Y-63344588D02*
X185693038Y-63296969D01*
X185693038Y-63296969D02*
X185597800Y-63201731D01*
X185597800Y-63201731D02*
X185550180Y-63058874D01*
X185550180Y-63058874D02*
X185550180Y-62820779D01*
X185645419Y-64392207D02*
X185597800Y-64344588D01*
X185597800Y-64344588D02*
X185550180Y-64201731D01*
X185550180Y-64201731D02*
X185550180Y-64106493D01*
X185550180Y-64106493D02*
X185597800Y-63963636D01*
X185597800Y-63963636D02*
X185693038Y-63868398D01*
X185693038Y-63868398D02*
X185788276Y-63820779D01*
X185788276Y-63820779D02*
X185978752Y-63773160D01*
X185978752Y-63773160D02*
X186121609Y-63773160D01*
X186121609Y-63773160D02*
X186312085Y-63820779D01*
X186312085Y-63820779D02*
X186407323Y-63868398D01*
X186407323Y-63868398D02*
X186502561Y-63963636D01*
X186502561Y-63963636D02*
X186550180Y-64106493D01*
X186550180Y-64106493D02*
X186550180Y-64201731D01*
X186550180Y-64201731D02*
X186502561Y-64344588D01*
X186502561Y-64344588D02*
X186454942Y-64392207D01*
X185454942Y-64582684D02*
X185454942Y-65344588D01*
X185550180Y-65582684D02*
X186550180Y-65582684D01*
X186550180Y-65582684D02*
X185835895Y-65916017D01*
X185835895Y-65916017D02*
X186550180Y-66249350D01*
X186550180Y-66249350D02*
X185550180Y-66249350D01*
X186550180Y-66916017D02*
X186550180Y-67106493D01*
X186550180Y-67106493D02*
X186502561Y-67201731D01*
X186502561Y-67201731D02*
X186407323Y-67296969D01*
X186407323Y-67296969D02*
X186216847Y-67344588D01*
X186216847Y-67344588D02*
X185883514Y-67344588D01*
X185883514Y-67344588D02*
X185693038Y-67296969D01*
X185693038Y-67296969D02*
X185597800Y-67201731D01*
X185597800Y-67201731D02*
X185550180Y-67106493D01*
X185550180Y-67106493D02*
X185550180Y-66916017D01*
X185550180Y-66916017D02*
X185597800Y-66820779D01*
X185597800Y-66820779D02*
X185693038Y-66725541D01*
X185693038Y-66725541D02*
X185883514Y-66677922D01*
X185883514Y-66677922D02*
X186216847Y-66677922D01*
X186216847Y-66677922D02*
X186407323Y-66725541D01*
X186407323Y-66725541D02*
X186502561Y-66820779D01*
X186502561Y-66820779D02*
X186550180Y-66916017D01*
X186550180Y-67630303D02*
X186550180Y-68201731D01*
X185550180Y-67916017D02*
X186550180Y-67916017D01*
X186550180Y-68725541D02*
X186550180Y-68916017D01*
X186550180Y-68916017D02*
X186502561Y-69011255D01*
X186502561Y-69011255D02*
X186407323Y-69106493D01*
X186407323Y-69106493D02*
X186216847Y-69154112D01*
X186216847Y-69154112D02*
X185883514Y-69154112D01*
X185883514Y-69154112D02*
X185693038Y-69106493D01*
X185693038Y-69106493D02*
X185597800Y-69011255D01*
X185597800Y-69011255D02*
X185550180Y-68916017D01*
X185550180Y-68916017D02*
X185550180Y-68725541D01*
X185550180Y-68725541D02*
X185597800Y-68630303D01*
X185597800Y-68630303D02*
X185693038Y-68535065D01*
X185693038Y-68535065D02*
X185883514Y-68487446D01*
X185883514Y-68487446D02*
X186216847Y-68487446D01*
X186216847Y-68487446D02*
X186407323Y-68535065D01*
X186407323Y-68535065D02*
X186502561Y-68630303D01*
X186502561Y-68630303D02*
X186550180Y-68725541D01*
X185550180Y-70154112D02*
X186026371Y-69820779D01*
X185550180Y-69582684D02*
X186550180Y-69582684D01*
X186550180Y-69582684D02*
X186550180Y-69963636D01*
X186550180Y-69963636D02*
X186502561Y-70058874D01*
X186502561Y-70058874D02*
X186454942Y-70106493D01*
X186454942Y-70106493D02*
X186359704Y-70154112D01*
X186359704Y-70154112D02*
X186216847Y-70154112D01*
X186216847Y-70154112D02*
X186121609Y-70106493D01*
X186121609Y-70106493D02*
X186073990Y-70058874D01*
X186073990Y-70058874D02*
X186026371Y-69963636D01*
X186026371Y-69963636D02*
X186026371Y-69582684D01*
X131861160Y-69180104D02*
X132337350Y-69180104D01*
X131765922Y-69465819D02*
X132099255Y-68465819D01*
X132099255Y-68465819D02*
X132432588Y-69465819D01*
X132765922Y-69465819D02*
X132765922Y-68465819D01*
X133242112Y-69465819D02*
X133242112Y-68465819D01*
X133242112Y-68465819D02*
X133813540Y-69465819D01*
X133813540Y-69465819D02*
X133813540Y-68465819D01*
X134242112Y-68561057D02*
X134289731Y-68513438D01*
X134289731Y-68513438D02*
X134384969Y-68465819D01*
X134384969Y-68465819D02*
X134623064Y-68465819D01*
X134623064Y-68465819D02*
X134718302Y-68513438D01*
X134718302Y-68513438D02*
X134765921Y-68561057D01*
X134765921Y-68561057D02*
X134813540Y-68656295D01*
X134813540Y-68656295D02*
X134813540Y-68751533D01*
X134813540Y-68751533D02*
X134765921Y-68894390D01*
X134765921Y-68894390D02*
X134194493Y-69465819D01*
X134194493Y-69465819D02*
X134813540Y-69465819D01*
X141106779Y-72806009D02*
X141440112Y-72806009D01*
X141582969Y-73329819D02*
X141106779Y-73329819D01*
X141106779Y-73329819D02*
X141106779Y-72329819D01*
X141106779Y-72329819D02*
X141582969Y-72329819D01*
X142011541Y-73329819D02*
X142011541Y-72329819D01*
X142011541Y-72329819D02*
X142582969Y-73329819D01*
X142582969Y-73329819D02*
X142582969Y-72329819D01*
X143059160Y-73329819D02*
X143059160Y-72329819D01*
X143059160Y-72329819D02*
X143297255Y-72329819D01*
X143297255Y-72329819D02*
X143440112Y-72377438D01*
X143440112Y-72377438D02*
X143535350Y-72472676D01*
X143535350Y-72472676D02*
X143582969Y-72567914D01*
X143582969Y-72567914D02*
X143630588Y-72758390D01*
X143630588Y-72758390D02*
X143630588Y-72901247D01*
X143630588Y-72901247D02*
X143582969Y-73091723D01*
X143582969Y-73091723D02*
X143535350Y-73186961D01*
X143535350Y-73186961D02*
X143440112Y-73282200D01*
X143440112Y-73282200D02*
X143297255Y-73329819D01*
X143297255Y-73329819D02*
X143059160Y-73329819D01*
X108032779Y-70481819D02*
X108032779Y-69481819D01*
X108461350Y-69577057D02*
X108508969Y-69529438D01*
X108508969Y-69529438D02*
X108604207Y-69481819D01*
X108604207Y-69481819D02*
X108842302Y-69481819D01*
X108842302Y-69481819D02*
X108937540Y-69529438D01*
X108937540Y-69529438D02*
X108985159Y-69577057D01*
X108985159Y-69577057D02*
X109032778Y-69672295D01*
X109032778Y-69672295D02*
X109032778Y-69767533D01*
X109032778Y-69767533D02*
X108985159Y-69910390D01*
X108985159Y-69910390D02*
X108413731Y-70481819D01*
X108413731Y-70481819D02*
X109032778Y-70481819D01*
X110032778Y-70386580D02*
X109985159Y-70434200D01*
X109985159Y-70434200D02*
X109842302Y-70481819D01*
X109842302Y-70481819D02*
X109747064Y-70481819D01*
X109747064Y-70481819D02*
X109604207Y-70434200D01*
X109604207Y-70434200D02*
X109508969Y-70338961D01*
X109508969Y-70338961D02*
X109461350Y-70243723D01*
X109461350Y-70243723D02*
X109413731Y-70053247D01*
X109413731Y-70053247D02*
X109413731Y-69910390D01*
X109413731Y-69910390D02*
X109461350Y-69719914D01*
X109461350Y-69719914D02*
X109508969Y-69624676D01*
X109508969Y-69624676D02*
X109604207Y-69529438D01*
X109604207Y-69529438D02*
X109747064Y-69481819D01*
X109747064Y-69481819D02*
X109842302Y-69481819D01*
X109842302Y-69481819D02*
X109985159Y-69529438D01*
X109985159Y-69529438D02*
X110032778Y-69577057D01*
X110223255Y-70577057D02*
X110985159Y-70577057D01*
X111175636Y-69577057D02*
X111223255Y-69529438D01*
X111223255Y-69529438D02*
X111318493Y-69481819D01*
X111318493Y-69481819D02*
X111556588Y-69481819D01*
X111556588Y-69481819D02*
X111651826Y-69529438D01*
X111651826Y-69529438D02*
X111699445Y-69577057D01*
X111699445Y-69577057D02*
X111747064Y-69672295D01*
X111747064Y-69672295D02*
X111747064Y-69767533D01*
X111747064Y-69767533D02*
X111699445Y-69910390D01*
X111699445Y-69910390D02*
X111128017Y-70481819D01*
X111128017Y-70481819D02*
X111747064Y-70481819D01*
X132496160Y-75387200D02*
X132639017Y-75434819D01*
X132639017Y-75434819D02*
X132877112Y-75434819D01*
X132877112Y-75434819D02*
X132972350Y-75387200D01*
X132972350Y-75387200D02*
X133019969Y-75339580D01*
X133019969Y-75339580D02*
X133067588Y-75244342D01*
X133067588Y-75244342D02*
X133067588Y-75149104D01*
X133067588Y-75149104D02*
X133019969Y-75053866D01*
X133019969Y-75053866D02*
X132972350Y-75006247D01*
X132972350Y-75006247D02*
X132877112Y-74958628D01*
X132877112Y-74958628D02*
X132686636Y-74911009D01*
X132686636Y-74911009D02*
X132591398Y-74863390D01*
X132591398Y-74863390D02*
X132543779Y-74815771D01*
X132543779Y-74815771D02*
X132496160Y-74720533D01*
X132496160Y-74720533D02*
X132496160Y-74625295D01*
X132496160Y-74625295D02*
X132543779Y-74530057D01*
X132543779Y-74530057D02*
X132591398Y-74482438D01*
X132591398Y-74482438D02*
X132686636Y-74434819D01*
X132686636Y-74434819D02*
X132924731Y-74434819D01*
X132924731Y-74434819D02*
X133067588Y-74482438D01*
X134067588Y-75339580D02*
X134019969Y-75387200D01*
X134019969Y-75387200D02*
X133877112Y-75434819D01*
X133877112Y-75434819D02*
X133781874Y-75434819D01*
X133781874Y-75434819D02*
X133639017Y-75387200D01*
X133639017Y-75387200D02*
X133543779Y-75291961D01*
X133543779Y-75291961D02*
X133496160Y-75196723D01*
X133496160Y-75196723D02*
X133448541Y-75006247D01*
X133448541Y-75006247D02*
X133448541Y-74863390D01*
X133448541Y-74863390D02*
X133496160Y-74672914D01*
X133496160Y-74672914D02*
X133543779Y-74577676D01*
X133543779Y-74577676D02*
X133639017Y-74482438D01*
X133639017Y-74482438D02*
X133781874Y-74434819D01*
X133781874Y-74434819D02*
X133877112Y-74434819D01*
X133877112Y-74434819D02*
X134019969Y-74482438D01*
X134019969Y-74482438D02*
X134067588Y-74530057D01*
X134972350Y-75434819D02*
X134496160Y-75434819D01*
X134496160Y-75434819D02*
X134496160Y-74434819D01*
X129817905Y-95450819D02*
X129817905Y-94450819D01*
X129817905Y-94450819D02*
X130056000Y-94450819D01*
X130056000Y-94450819D02*
X130198857Y-94498438D01*
X130198857Y-94498438D02*
X130294095Y-94593676D01*
X130294095Y-94593676D02*
X130341714Y-94688914D01*
X130341714Y-94688914D02*
X130389333Y-94879390D01*
X130389333Y-94879390D02*
X130389333Y-95022247D01*
X130389333Y-95022247D02*
X130341714Y-95212723D01*
X130341714Y-95212723D02*
X130294095Y-95307961D01*
X130294095Y-95307961D02*
X130198857Y-95403200D01*
X130198857Y-95403200D02*
X130056000Y-95450819D01*
X130056000Y-95450819D02*
X129817905Y-95450819D01*
X131341714Y-95450819D02*
X130770286Y-95450819D01*
X131056000Y-95450819D02*
X131056000Y-94450819D01*
X131056000Y-94450819D02*
X130960762Y-94593676D01*
X130960762Y-94593676D02*
X130865524Y-94688914D01*
X130865524Y-94688914D02*
X130770286Y-94736533D01*
X130588095Y-104039200D02*
X130730952Y-104086819D01*
X130730952Y-104086819D02*
X130969047Y-104086819D01*
X130969047Y-104086819D02*
X131064285Y-104039200D01*
X131064285Y-104039200D02*
X131111904Y-103991580D01*
X131111904Y-103991580D02*
X131159523Y-103896342D01*
X131159523Y-103896342D02*
X131159523Y-103801104D01*
X131159523Y-103801104D02*
X131111904Y-103705866D01*
X131111904Y-103705866D02*
X131064285Y-103658247D01*
X131064285Y-103658247D02*
X130969047Y-103610628D01*
X130969047Y-103610628D02*
X130778571Y-103563009D01*
X130778571Y-103563009D02*
X130683333Y-103515390D01*
X130683333Y-103515390D02*
X130635714Y-103467771D01*
X130635714Y-103467771D02*
X130588095Y-103372533D01*
X130588095Y-103372533D02*
X130588095Y-103277295D01*
X130588095Y-103277295D02*
X130635714Y-103182057D01*
X130635714Y-103182057D02*
X130683333Y-103134438D01*
X130683333Y-103134438D02*
X130778571Y-103086819D01*
X130778571Y-103086819D02*
X131016666Y-103086819D01*
X131016666Y-103086819D02*
X131159523Y-103134438D01*
X132111904Y-104086819D02*
X131540476Y-104086819D01*
X131826190Y-104086819D02*
X131826190Y-103086819D01*
X131826190Y-103086819D02*
X131730952Y-103229676D01*
X131730952Y-103229676D02*
X131635714Y-103324914D01*
X131635714Y-103324914D02*
X131540476Y-103372533D01*
X132492857Y-103182057D02*
X132540476Y-103134438D01*
X132540476Y-103134438D02*
X132635714Y-103086819D01*
X132635714Y-103086819D02*
X132873809Y-103086819D01*
X132873809Y-103086819D02*
X132969047Y-103134438D01*
X132969047Y-103134438D02*
X133016666Y-103182057D01*
X133016666Y-103182057D02*
X133064285Y-103277295D01*
X133064285Y-103277295D02*
X133064285Y-103372533D01*
X133064285Y-103372533D02*
X133016666Y-103515390D01*
X133016666Y-103515390D02*
X132445238Y-104086819D01*
X132445238Y-104086819D02*
X133064285Y-104086819D01*
X134016666Y-103134438D02*
X133921428Y-103086819D01*
X133921428Y-103086819D02*
X133778571Y-103086819D01*
X133778571Y-103086819D02*
X133635714Y-103134438D01*
X133635714Y-103134438D02*
X133540476Y-103229676D01*
X133540476Y-103229676D02*
X133492857Y-103324914D01*
X133492857Y-103324914D02*
X133445238Y-103515390D01*
X133445238Y-103515390D02*
X133445238Y-103658247D01*
X133445238Y-103658247D02*
X133492857Y-103848723D01*
X133492857Y-103848723D02*
X133540476Y-103943961D01*
X133540476Y-103943961D02*
X133635714Y-104039200D01*
X133635714Y-104039200D02*
X133778571Y-104086819D01*
X133778571Y-104086819D02*
X133873809Y-104086819D01*
X133873809Y-104086819D02*
X134016666Y-104039200D01*
X134016666Y-104039200D02*
X134064285Y-103991580D01*
X134064285Y-103991580D02*
X134064285Y-103658247D01*
X134064285Y-103658247D02*
X133873809Y-103658247D01*
X135064285Y-103991580D02*
X135016666Y-104039200D01*
X135016666Y-104039200D02*
X134873809Y-104086819D01*
X134873809Y-104086819D02*
X134778571Y-104086819D01*
X134778571Y-104086819D02*
X134635714Y-104039200D01*
X134635714Y-104039200D02*
X134540476Y-103943961D01*
X134540476Y-103943961D02*
X134492857Y-103848723D01*
X134492857Y-103848723D02*
X134445238Y-103658247D01*
X134445238Y-103658247D02*
X134445238Y-103515390D01*
X134445238Y-103515390D02*
X134492857Y-103324914D01*
X134492857Y-103324914D02*
X134540476Y-103229676D01*
X134540476Y-103229676D02*
X134635714Y-103134438D01*
X134635714Y-103134438D02*
X134778571Y-103086819D01*
X134778571Y-103086819D02*
X134873809Y-103086819D01*
X134873809Y-103086819D02*
X135016666Y-103134438D01*
X135016666Y-103134438D02*
X135064285Y-103182057D01*
X135492857Y-104086819D02*
X135492857Y-103086819D01*
X135492857Y-103563009D02*
X136064285Y-103563009D01*
X136064285Y-104086819D02*
X136064285Y-103086819D01*
X116278819Y-80748094D02*
X115278819Y-80748094D01*
X115278819Y-80748094D02*
X115278819Y-80509999D01*
X115278819Y-80509999D02*
X115326438Y-80367142D01*
X115326438Y-80367142D02*
X115421676Y-80271904D01*
X115421676Y-80271904D02*
X115516914Y-80224285D01*
X115516914Y-80224285D02*
X115707390Y-80176666D01*
X115707390Y-80176666D02*
X115850247Y-80176666D01*
X115850247Y-80176666D02*
X116040723Y-80224285D01*
X116040723Y-80224285D02*
X116135961Y-80271904D01*
X116135961Y-80271904D02*
X116231200Y-80367142D01*
X116231200Y-80367142D02*
X116278819Y-80509999D01*
X116278819Y-80509999D02*
X116278819Y-80748094D01*
X115374057Y-79795713D02*
X115326438Y-79748094D01*
X115326438Y-79748094D02*
X115278819Y-79652856D01*
X115278819Y-79652856D02*
X115278819Y-79414761D01*
X115278819Y-79414761D02*
X115326438Y-79319523D01*
X115326438Y-79319523D02*
X115374057Y-79271904D01*
X115374057Y-79271904D02*
X115469295Y-79224285D01*
X115469295Y-79224285D02*
X115564533Y-79224285D01*
X115564533Y-79224285D02*
X115707390Y-79271904D01*
X115707390Y-79271904D02*
X116278819Y-79843332D01*
X116278819Y-79843332D02*
X116278819Y-79224285D01*
X124867200Y-83025904D02*
X124914819Y-82883047D01*
X124914819Y-82883047D02*
X124914819Y-82644952D01*
X124914819Y-82644952D02*
X124867200Y-82549714D01*
X124867200Y-82549714D02*
X124819580Y-82502095D01*
X124819580Y-82502095D02*
X124724342Y-82454476D01*
X124724342Y-82454476D02*
X124629104Y-82454476D01*
X124629104Y-82454476D02*
X124533866Y-82502095D01*
X124533866Y-82502095D02*
X124486247Y-82549714D01*
X124486247Y-82549714D02*
X124438628Y-82644952D01*
X124438628Y-82644952D02*
X124391009Y-82835428D01*
X124391009Y-82835428D02*
X124343390Y-82930666D01*
X124343390Y-82930666D02*
X124295771Y-82978285D01*
X124295771Y-82978285D02*
X124200533Y-83025904D01*
X124200533Y-83025904D02*
X124105295Y-83025904D01*
X124105295Y-83025904D02*
X124010057Y-82978285D01*
X124010057Y-82978285D02*
X123962438Y-82930666D01*
X123962438Y-82930666D02*
X123914819Y-82835428D01*
X123914819Y-82835428D02*
X123914819Y-82597333D01*
X123914819Y-82597333D02*
X123962438Y-82454476D01*
X124914819Y-81502095D02*
X124914819Y-82073523D01*
X124914819Y-81787809D02*
X123914819Y-81787809D01*
X123914819Y-81787809D02*
X124057676Y-81883047D01*
X124057676Y-81883047D02*
X124152914Y-81978285D01*
X124152914Y-81978285D02*
X124200533Y-82073523D01*
X124010057Y-81121142D02*
X123962438Y-81073523D01*
X123962438Y-81073523D02*
X123914819Y-80978285D01*
X123914819Y-80978285D02*
X123914819Y-80740190D01*
X123914819Y-80740190D02*
X123962438Y-80644952D01*
X123962438Y-80644952D02*
X124010057Y-80597333D01*
X124010057Y-80597333D02*
X124105295Y-80549714D01*
X124105295Y-80549714D02*
X124200533Y-80549714D01*
X124200533Y-80549714D02*
X124343390Y-80597333D01*
X124343390Y-80597333D02*
X124914819Y-81168761D01*
X124914819Y-81168761D02*
X124914819Y-80549714D01*
X123962438Y-79597333D02*
X123914819Y-79692571D01*
X123914819Y-79692571D02*
X123914819Y-79835428D01*
X123914819Y-79835428D02*
X123962438Y-79978285D01*
X123962438Y-79978285D02*
X124057676Y-80073523D01*
X124057676Y-80073523D02*
X124152914Y-80121142D01*
X124152914Y-80121142D02*
X124343390Y-80168761D01*
X124343390Y-80168761D02*
X124486247Y-80168761D01*
X124486247Y-80168761D02*
X124676723Y-80121142D01*
X124676723Y-80121142D02*
X124771961Y-80073523D01*
X124771961Y-80073523D02*
X124867200Y-79978285D01*
X124867200Y-79978285D02*
X124914819Y-79835428D01*
X124914819Y-79835428D02*
X124914819Y-79740190D01*
X124914819Y-79740190D02*
X124867200Y-79597333D01*
X124867200Y-79597333D02*
X124819580Y-79549714D01*
X124819580Y-79549714D02*
X124486247Y-79549714D01*
X124486247Y-79549714D02*
X124486247Y-79740190D01*
X124819580Y-78549714D02*
X124867200Y-78597333D01*
X124867200Y-78597333D02*
X124914819Y-78740190D01*
X124914819Y-78740190D02*
X124914819Y-78835428D01*
X124914819Y-78835428D02*
X124867200Y-78978285D01*
X124867200Y-78978285D02*
X124771961Y-79073523D01*
X124771961Y-79073523D02*
X124676723Y-79121142D01*
X124676723Y-79121142D02*
X124486247Y-79168761D01*
X124486247Y-79168761D02*
X124343390Y-79168761D01*
X124343390Y-79168761D02*
X124152914Y-79121142D01*
X124152914Y-79121142D02*
X124057676Y-79073523D01*
X124057676Y-79073523D02*
X123962438Y-78978285D01*
X123962438Y-78978285D02*
X123914819Y-78835428D01*
X123914819Y-78835428D02*
X123914819Y-78740190D01*
X123914819Y-78740190D02*
X123962438Y-78597333D01*
X123962438Y-78597333D02*
X124010057Y-78549714D01*
X124914819Y-78121142D02*
X123914819Y-78121142D01*
X124391009Y-78121142D02*
X124391009Y-77549714D01*
X124914819Y-77549714D02*
X123914819Y-77549714D01*
X134063333Y-81943580D02*
X134015714Y-81991200D01*
X134015714Y-81991200D02*
X133872857Y-82038819D01*
X133872857Y-82038819D02*
X133777619Y-82038819D01*
X133777619Y-82038819D02*
X133634762Y-81991200D01*
X133634762Y-81991200D02*
X133539524Y-81895961D01*
X133539524Y-81895961D02*
X133491905Y-81800723D01*
X133491905Y-81800723D02*
X133444286Y-81610247D01*
X133444286Y-81610247D02*
X133444286Y-81467390D01*
X133444286Y-81467390D02*
X133491905Y-81276914D01*
X133491905Y-81276914D02*
X133539524Y-81181676D01*
X133539524Y-81181676D02*
X133634762Y-81086438D01*
X133634762Y-81086438D02*
X133777619Y-81038819D01*
X133777619Y-81038819D02*
X133872857Y-81038819D01*
X133872857Y-81038819D02*
X134015714Y-81086438D01*
X134015714Y-81086438D02*
X134063333Y-81134057D01*
X135015714Y-82038819D02*
X134444286Y-82038819D01*
X134730000Y-82038819D02*
X134730000Y-81038819D01*
X134730000Y-81038819D02*
X134634762Y-81181676D01*
X134634762Y-81181676D02*
X134539524Y-81276914D01*
X134539524Y-81276914D02*
X134444286Y-81324533D01*
X101822381Y-56969819D02*
X101822381Y-55969819D01*
X101822381Y-55969819D02*
X102155714Y-56684104D01*
X102155714Y-56684104D02*
X102489047Y-55969819D01*
X102489047Y-55969819D02*
X102489047Y-56969819D01*
X102965238Y-56874580D02*
X103012857Y-56922200D01*
X103012857Y-56922200D02*
X102965238Y-56969819D01*
X102965238Y-56969819D02*
X102917619Y-56922200D01*
X102917619Y-56922200D02*
X102965238Y-56874580D01*
X102965238Y-56874580D02*
X102965238Y-56969819D01*
X103393809Y-56065057D02*
X103441428Y-56017438D01*
X103441428Y-56017438D02*
X103536666Y-55969819D01*
X103536666Y-55969819D02*
X103774761Y-55969819D01*
X103774761Y-55969819D02*
X103869999Y-56017438D01*
X103869999Y-56017438D02*
X103917618Y-56065057D01*
X103917618Y-56065057D02*
X103965237Y-56160295D01*
X103965237Y-56160295D02*
X103965237Y-56255533D01*
X103965237Y-56255533D02*
X103917618Y-56398390D01*
X103917618Y-56398390D02*
X103346190Y-56969819D01*
X103346190Y-56969819D02*
X103965237Y-56969819D01*
X109394666Y-63208819D02*
X109394666Y-63923104D01*
X109394666Y-63923104D02*
X109347047Y-64065961D01*
X109347047Y-64065961D02*
X109251809Y-64161200D01*
X109251809Y-64161200D02*
X109108952Y-64208819D01*
X109108952Y-64208819D02*
X109013714Y-64208819D01*
X110299428Y-63542152D02*
X110299428Y-64208819D01*
X110061333Y-63161200D02*
X109823238Y-63875485D01*
X109823238Y-63875485D02*
X110442285Y-63875485D01*
X199612381Y-106774819D02*
X199612381Y-105774819D01*
X199612381Y-105774819D02*
X199945714Y-106489104D01*
X199945714Y-106489104D02*
X200279047Y-105774819D01*
X200279047Y-105774819D02*
X200279047Y-106774819D01*
X200755238Y-106679580D02*
X200802857Y-106727200D01*
X200802857Y-106727200D02*
X200755238Y-106774819D01*
X200755238Y-106774819D02*
X200707619Y-106727200D01*
X200707619Y-106727200D02*
X200755238Y-106679580D01*
X200755238Y-106679580D02*
X200755238Y-106774819D01*
X201183809Y-105870057D02*
X201231428Y-105822438D01*
X201231428Y-105822438D02*
X201326666Y-105774819D01*
X201326666Y-105774819D02*
X201564761Y-105774819D01*
X201564761Y-105774819D02*
X201659999Y-105822438D01*
X201659999Y-105822438D02*
X201707618Y-105870057D01*
X201707618Y-105870057D02*
X201755237Y-105965295D01*
X201755237Y-105965295D02*
X201755237Y-106060533D01*
X201755237Y-106060533D02*
X201707618Y-106203390D01*
X201707618Y-106203390D02*
X201136190Y-106774819D01*
X201136190Y-106774819D02*
X201755237Y-106774819D01*
X198157180Y-100250666D02*
X197442895Y-100250666D01*
X197442895Y-100250666D02*
X197300038Y-100203047D01*
X197300038Y-100203047D02*
X197204800Y-100107809D01*
X197204800Y-100107809D02*
X197157180Y-99964952D01*
X197157180Y-99964952D02*
X197157180Y-99869714D01*
X198157180Y-100631619D02*
X198157180Y-101298285D01*
X198157180Y-101298285D02*
X197157180Y-100869714D01*
X152741333Y-74527580D02*
X152693714Y-74575200D01*
X152693714Y-74575200D02*
X152550857Y-74622819D01*
X152550857Y-74622819D02*
X152455619Y-74622819D01*
X152455619Y-74622819D02*
X152312762Y-74575200D01*
X152312762Y-74575200D02*
X152217524Y-74479961D01*
X152217524Y-74479961D02*
X152169905Y-74384723D01*
X152169905Y-74384723D02*
X152122286Y-74194247D01*
X152122286Y-74194247D02*
X152122286Y-74051390D01*
X152122286Y-74051390D02*
X152169905Y-73860914D01*
X152169905Y-73860914D02*
X152217524Y-73765676D01*
X152217524Y-73765676D02*
X152312762Y-73670438D01*
X152312762Y-73670438D02*
X152455619Y-73622819D01*
X152455619Y-73622819D02*
X152550857Y-73622819D01*
X152550857Y-73622819D02*
X152693714Y-73670438D01*
X152693714Y-73670438D02*
X152741333Y-73718057D01*
X153646095Y-73622819D02*
X153169905Y-73622819D01*
X153169905Y-73622819D02*
X153122286Y-74099009D01*
X153122286Y-74099009D02*
X153169905Y-74051390D01*
X153169905Y-74051390D02*
X153265143Y-74003771D01*
X153265143Y-74003771D02*
X153503238Y-74003771D01*
X153503238Y-74003771D02*
X153598476Y-74051390D01*
X153598476Y-74051390D02*
X153646095Y-74099009D01*
X153646095Y-74099009D02*
X153693714Y-74194247D01*
X153693714Y-74194247D02*
X153693714Y-74432342D01*
X153693714Y-74432342D02*
X153646095Y-74527580D01*
X153646095Y-74527580D02*
X153598476Y-74575200D01*
X153598476Y-74575200D02*
X153503238Y-74622819D01*
X153503238Y-74622819D02*
X153265143Y-74622819D01*
X153265143Y-74622819D02*
X153169905Y-74575200D01*
X153169905Y-74575200D02*
X153122286Y-74527580D01*
X151868380Y-76146819D02*
X151296952Y-76146819D01*
X151582666Y-76146819D02*
X151582666Y-75146819D01*
X151582666Y-75146819D02*
X151487428Y-75289676D01*
X151487428Y-75289676D02*
X151392190Y-75384914D01*
X151392190Y-75384914D02*
X151296952Y-75432533D01*
X152487428Y-75146819D02*
X152582666Y-75146819D01*
X152582666Y-75146819D02*
X152677904Y-75194438D01*
X152677904Y-75194438D02*
X152725523Y-75242057D01*
X152725523Y-75242057D02*
X152773142Y-75337295D01*
X152773142Y-75337295D02*
X152820761Y-75527771D01*
X152820761Y-75527771D02*
X152820761Y-75765866D01*
X152820761Y-75765866D02*
X152773142Y-75956342D01*
X152773142Y-75956342D02*
X152725523Y-76051580D01*
X152725523Y-76051580D02*
X152677904Y-76099200D01*
X152677904Y-76099200D02*
X152582666Y-76146819D01*
X152582666Y-76146819D02*
X152487428Y-76146819D01*
X152487428Y-76146819D02*
X152392190Y-76099200D01*
X152392190Y-76099200D02*
X152344571Y-76051580D01*
X152344571Y-76051580D02*
X152296952Y-75956342D01*
X152296952Y-75956342D02*
X152249333Y-75765866D01*
X152249333Y-75765866D02*
X152249333Y-75527771D01*
X152249333Y-75527771D02*
X152296952Y-75337295D01*
X152296952Y-75337295D02*
X152344571Y-75242057D01*
X152344571Y-75242057D02*
X152392190Y-75194438D01*
X152392190Y-75194438D02*
X152487428Y-75146819D01*
X153439809Y-75146819D02*
X153535047Y-75146819D01*
X153535047Y-75146819D02*
X153630285Y-75194438D01*
X153630285Y-75194438D02*
X153677904Y-75242057D01*
X153677904Y-75242057D02*
X153725523Y-75337295D01*
X153725523Y-75337295D02*
X153773142Y-75527771D01*
X153773142Y-75527771D02*
X153773142Y-75765866D01*
X153773142Y-75765866D02*
X153725523Y-75956342D01*
X153725523Y-75956342D02*
X153677904Y-76051580D01*
X153677904Y-76051580D02*
X153630285Y-76099200D01*
X153630285Y-76099200D02*
X153535047Y-76146819D01*
X153535047Y-76146819D02*
X153439809Y-76146819D01*
X153439809Y-76146819D02*
X153344571Y-76099200D01*
X153344571Y-76099200D02*
X153296952Y-76051580D01*
X153296952Y-76051580D02*
X153249333Y-75956342D01*
X153249333Y-75956342D02*
X153201714Y-75765866D01*
X153201714Y-75765866D02*
X153201714Y-75527771D01*
X153201714Y-75527771D02*
X153249333Y-75337295D01*
X153249333Y-75337295D02*
X153296952Y-75242057D01*
X153296952Y-75242057D02*
X153344571Y-75194438D01*
X153344571Y-75194438D02*
X153439809Y-75146819D01*
X154201714Y-75480152D02*
X154201714Y-76146819D01*
X154201714Y-75575390D02*
X154249333Y-75527771D01*
X154249333Y-75527771D02*
X154344571Y-75480152D01*
X154344571Y-75480152D02*
X154487428Y-75480152D01*
X154487428Y-75480152D02*
X154582666Y-75527771D01*
X154582666Y-75527771D02*
X154630285Y-75623009D01*
X154630285Y-75623009D02*
X154630285Y-76146819D01*
X155439809Y-75623009D02*
X155106476Y-75623009D01*
X155106476Y-76146819D02*
X155106476Y-75146819D01*
X155106476Y-75146819D02*
X155582666Y-75146819D01*
X129653333Y-74368819D02*
X129320000Y-73892628D01*
X129081905Y-74368819D02*
X129081905Y-73368819D01*
X129081905Y-73368819D02*
X129462857Y-73368819D01*
X129462857Y-73368819D02*
X129558095Y-73416438D01*
X129558095Y-73416438D02*
X129605714Y-73464057D01*
X129605714Y-73464057D02*
X129653333Y-73559295D01*
X129653333Y-73559295D02*
X129653333Y-73702152D01*
X129653333Y-73702152D02*
X129605714Y-73797390D01*
X129605714Y-73797390D02*
X129558095Y-73845009D01*
X129558095Y-73845009D02*
X129462857Y-73892628D01*
X129462857Y-73892628D02*
X129081905Y-73892628D01*
X130510476Y-73702152D02*
X130510476Y-74368819D01*
X130272381Y-73321200D02*
X130034286Y-74035485D01*
X130034286Y-74035485D02*
X130653333Y-74035485D01*
X128034286Y-78194819D02*
X128653333Y-78194819D01*
X128653333Y-78194819D02*
X128320000Y-78575771D01*
X128320000Y-78575771D02*
X128462857Y-78575771D01*
X128462857Y-78575771D02*
X128558095Y-78623390D01*
X128558095Y-78623390D02*
X128605714Y-78671009D01*
X128605714Y-78671009D02*
X128653333Y-78766247D01*
X128653333Y-78766247D02*
X128653333Y-79004342D01*
X128653333Y-79004342D02*
X128605714Y-79099580D01*
X128605714Y-79099580D02*
X128558095Y-79147200D01*
X128558095Y-79147200D02*
X128462857Y-79194819D01*
X128462857Y-79194819D02*
X128177143Y-79194819D01*
X128177143Y-79194819D02*
X128081905Y-79147200D01*
X128081905Y-79147200D02*
X128034286Y-79099580D01*
X128986667Y-78194819D02*
X129605714Y-78194819D01*
X129605714Y-78194819D02*
X129272381Y-78575771D01*
X129272381Y-78575771D02*
X129415238Y-78575771D01*
X129415238Y-78575771D02*
X129510476Y-78623390D01*
X129510476Y-78623390D02*
X129558095Y-78671009D01*
X129558095Y-78671009D02*
X129605714Y-78766247D01*
X129605714Y-78766247D02*
X129605714Y-79004342D01*
X129605714Y-79004342D02*
X129558095Y-79099580D01*
X129558095Y-79099580D02*
X129510476Y-79147200D01*
X129510476Y-79147200D02*
X129415238Y-79194819D01*
X129415238Y-79194819D02*
X129129524Y-79194819D01*
X129129524Y-79194819D02*
X129034286Y-79147200D01*
X129034286Y-79147200D02*
X128986667Y-79099580D01*
X130224762Y-78194819D02*
X130320000Y-78194819D01*
X130320000Y-78194819D02*
X130415238Y-78242438D01*
X130415238Y-78242438D02*
X130462857Y-78290057D01*
X130462857Y-78290057D02*
X130510476Y-78385295D01*
X130510476Y-78385295D02*
X130558095Y-78575771D01*
X130558095Y-78575771D02*
X130558095Y-78813866D01*
X130558095Y-78813866D02*
X130510476Y-79004342D01*
X130510476Y-79004342D02*
X130462857Y-79099580D01*
X130462857Y-79099580D02*
X130415238Y-79147200D01*
X130415238Y-79147200D02*
X130320000Y-79194819D01*
X130320000Y-79194819D02*
X130224762Y-79194819D01*
X130224762Y-79194819D02*
X130129524Y-79147200D01*
X130129524Y-79147200D02*
X130081905Y-79099580D01*
X130081905Y-79099580D02*
X130034286Y-79004342D01*
X130034286Y-79004342D02*
X129986667Y-78813866D01*
X129986667Y-78813866D02*
X129986667Y-78575771D01*
X129986667Y-78575771D02*
X130034286Y-78385295D01*
X130034286Y-78385295D02*
X130081905Y-78290057D01*
X130081905Y-78290057D02*
X130129524Y-78242438D01*
X130129524Y-78242438D02*
X130224762Y-78194819D01*
X131558095Y-79194819D02*
X131224762Y-78718628D01*
X130986667Y-79194819D02*
X130986667Y-78194819D01*
X130986667Y-78194819D02*
X131367619Y-78194819D01*
X131367619Y-78194819D02*
X131462857Y-78242438D01*
X131462857Y-78242438D02*
X131510476Y-78290057D01*
X131510476Y-78290057D02*
X131558095Y-78385295D01*
X131558095Y-78385295D02*
X131558095Y-78528152D01*
X131558095Y-78528152D02*
X131510476Y-78623390D01*
X131510476Y-78623390D02*
X131462857Y-78671009D01*
X131462857Y-78671009D02*
X131367619Y-78718628D01*
X131367619Y-78718628D02*
X130986667Y-78718628D01*
X148677333Y-72273580D02*
X148629714Y-72321200D01*
X148629714Y-72321200D02*
X148486857Y-72368819D01*
X148486857Y-72368819D02*
X148391619Y-72368819D01*
X148391619Y-72368819D02*
X148248762Y-72321200D01*
X148248762Y-72321200D02*
X148153524Y-72225961D01*
X148153524Y-72225961D02*
X148105905Y-72130723D01*
X148105905Y-72130723D02*
X148058286Y-71940247D01*
X148058286Y-71940247D02*
X148058286Y-71797390D01*
X148058286Y-71797390D02*
X148105905Y-71606914D01*
X148105905Y-71606914D02*
X148153524Y-71511676D01*
X148153524Y-71511676D02*
X148248762Y-71416438D01*
X148248762Y-71416438D02*
X148391619Y-71368819D01*
X148391619Y-71368819D02*
X148486857Y-71368819D01*
X148486857Y-71368819D02*
X148629714Y-71416438D01*
X148629714Y-71416438D02*
X148677333Y-71464057D01*
X149534476Y-71368819D02*
X149344000Y-71368819D01*
X149344000Y-71368819D02*
X149248762Y-71416438D01*
X149248762Y-71416438D02*
X149201143Y-71464057D01*
X149201143Y-71464057D02*
X149105905Y-71606914D01*
X149105905Y-71606914D02*
X149058286Y-71797390D01*
X149058286Y-71797390D02*
X149058286Y-72178342D01*
X149058286Y-72178342D02*
X149105905Y-72273580D01*
X149105905Y-72273580D02*
X149153524Y-72321200D01*
X149153524Y-72321200D02*
X149248762Y-72368819D01*
X149248762Y-72368819D02*
X149439238Y-72368819D01*
X149439238Y-72368819D02*
X149534476Y-72321200D01*
X149534476Y-72321200D02*
X149582095Y-72273580D01*
X149582095Y-72273580D02*
X149629714Y-72178342D01*
X149629714Y-72178342D02*
X149629714Y-71940247D01*
X149629714Y-71940247D02*
X149582095Y-71845009D01*
X149582095Y-71845009D02*
X149534476Y-71797390D01*
X149534476Y-71797390D02*
X149439238Y-71749771D01*
X149439238Y-71749771D02*
X149248762Y-71749771D01*
X149248762Y-71749771D02*
X149153524Y-71797390D01*
X149153524Y-71797390D02*
X149105905Y-71845009D01*
X149105905Y-71845009D02*
X149058286Y-71940247D01*
X147772571Y-63668819D02*
X147201143Y-63668819D01*
X147486857Y-63668819D02*
X147486857Y-62668819D01*
X147486857Y-62668819D02*
X147391619Y-62811676D01*
X147391619Y-62811676D02*
X147296381Y-62906914D01*
X147296381Y-62906914D02*
X147201143Y-62954533D01*
X148391619Y-62668819D02*
X148486857Y-62668819D01*
X148486857Y-62668819D02*
X148582095Y-62716438D01*
X148582095Y-62716438D02*
X148629714Y-62764057D01*
X148629714Y-62764057D02*
X148677333Y-62859295D01*
X148677333Y-62859295D02*
X148724952Y-63049771D01*
X148724952Y-63049771D02*
X148724952Y-63287866D01*
X148724952Y-63287866D02*
X148677333Y-63478342D01*
X148677333Y-63478342D02*
X148629714Y-63573580D01*
X148629714Y-63573580D02*
X148582095Y-63621200D01*
X148582095Y-63621200D02*
X148486857Y-63668819D01*
X148486857Y-63668819D02*
X148391619Y-63668819D01*
X148391619Y-63668819D02*
X148296381Y-63621200D01*
X148296381Y-63621200D02*
X148248762Y-63573580D01*
X148248762Y-63573580D02*
X148201143Y-63478342D01*
X148201143Y-63478342D02*
X148153524Y-63287866D01*
X148153524Y-63287866D02*
X148153524Y-63049771D01*
X148153524Y-63049771D02*
X148201143Y-62859295D01*
X148201143Y-62859295D02*
X148248762Y-62764057D01*
X148248762Y-62764057D02*
X148296381Y-62716438D01*
X148296381Y-62716438D02*
X148391619Y-62668819D01*
X149582095Y-63002152D02*
X149582095Y-63668819D01*
X149153524Y-63002152D02*
X149153524Y-63525961D01*
X149153524Y-63525961D02*
X149201143Y-63621200D01*
X149201143Y-63621200D02*
X149296381Y-63668819D01*
X149296381Y-63668819D02*
X149439238Y-63668819D01*
X149439238Y-63668819D02*
X149534476Y-63621200D01*
X149534476Y-63621200D02*
X149582095Y-63573580D01*
X150391619Y-63145009D02*
X150058286Y-63145009D01*
X150058286Y-63668819D02*
X150058286Y-62668819D01*
X150058286Y-62668819D02*
X150534476Y-62668819D01*
X122120819Y-59068666D02*
X121644628Y-59401999D01*
X122120819Y-59640094D02*
X121120819Y-59640094D01*
X121120819Y-59640094D02*
X121120819Y-59259142D01*
X121120819Y-59259142D02*
X121168438Y-59163904D01*
X121168438Y-59163904D02*
X121216057Y-59116285D01*
X121216057Y-59116285D02*
X121311295Y-59068666D01*
X121311295Y-59068666D02*
X121454152Y-59068666D01*
X121454152Y-59068666D02*
X121549390Y-59116285D01*
X121549390Y-59116285D02*
X121597009Y-59163904D01*
X121597009Y-59163904D02*
X121644628Y-59259142D01*
X121644628Y-59259142D02*
X121644628Y-59640094D01*
X121216057Y-58687713D02*
X121168438Y-58640094D01*
X121168438Y-58640094D02*
X121120819Y-58544856D01*
X121120819Y-58544856D02*
X121120819Y-58306761D01*
X121120819Y-58306761D02*
X121168438Y-58211523D01*
X121168438Y-58211523D02*
X121216057Y-58163904D01*
X121216057Y-58163904D02*
X121311295Y-58116285D01*
X121311295Y-58116285D02*
X121406533Y-58116285D01*
X121406533Y-58116285D02*
X121549390Y-58163904D01*
X121549390Y-58163904D02*
X122120819Y-58735332D01*
X122120819Y-58735332D02*
X122120819Y-58116285D01*
X122486057Y-59554904D02*
X122438438Y-59507285D01*
X122438438Y-59507285D02*
X122390819Y-59412047D01*
X122390819Y-59412047D02*
X122390819Y-59173952D01*
X122390819Y-59173952D02*
X122438438Y-59078714D01*
X122438438Y-59078714D02*
X122486057Y-59031095D01*
X122486057Y-59031095D02*
X122581295Y-58983476D01*
X122581295Y-58983476D02*
X122676533Y-58983476D01*
X122676533Y-58983476D02*
X122819390Y-59031095D01*
X122819390Y-59031095D02*
X123390819Y-59602523D01*
X123390819Y-59602523D02*
X123390819Y-58983476D01*
X123390819Y-58554904D02*
X122390819Y-58554904D01*
X123390819Y-57983476D02*
X122819390Y-58412047D01*
X122390819Y-57983476D02*
X122962247Y-58554904D01*
X122486057Y-57602523D02*
X122438438Y-57554904D01*
X122438438Y-57554904D02*
X122390819Y-57459666D01*
X122390819Y-57459666D02*
X122390819Y-57221571D01*
X122390819Y-57221571D02*
X122438438Y-57126333D01*
X122438438Y-57126333D02*
X122486057Y-57078714D01*
X122486057Y-57078714D02*
X122581295Y-57031095D01*
X122581295Y-57031095D02*
X122676533Y-57031095D01*
X122676533Y-57031095D02*
X122819390Y-57078714D01*
X122819390Y-57078714D02*
X123390819Y-57650142D01*
X123390819Y-57650142D02*
X123390819Y-57031095D01*
X173228095Y-87084819D02*
X173228095Y-87894342D01*
X173228095Y-87894342D02*
X173275714Y-87989580D01*
X173275714Y-87989580D02*
X173323333Y-88037200D01*
X173323333Y-88037200D02*
X173418571Y-88084819D01*
X173418571Y-88084819D02*
X173609047Y-88084819D01*
X173609047Y-88084819D02*
X173704285Y-88037200D01*
X173704285Y-88037200D02*
X173751904Y-87989580D01*
X173751904Y-87989580D02*
X173799523Y-87894342D01*
X173799523Y-87894342D02*
X173799523Y-87084819D01*
X174799523Y-88084819D02*
X174228095Y-88084819D01*
X174513809Y-88084819D02*
X174513809Y-87084819D01*
X174513809Y-87084819D02*
X174418571Y-87227676D01*
X174418571Y-87227676D02*
X174323333Y-87322914D01*
X174323333Y-87322914D02*
X174228095Y-87370533D01*
X101822381Y-106774819D02*
X101822381Y-105774819D01*
X101822381Y-105774819D02*
X102155714Y-106489104D01*
X102155714Y-106489104D02*
X102489047Y-105774819D01*
X102489047Y-105774819D02*
X102489047Y-106774819D01*
X102965238Y-106679580D02*
X103012857Y-106727200D01*
X103012857Y-106727200D02*
X102965238Y-106774819D01*
X102965238Y-106774819D02*
X102917619Y-106727200D01*
X102917619Y-106727200D02*
X102965238Y-106679580D01*
X102965238Y-106679580D02*
X102965238Y-106774819D01*
X103393809Y-105870057D02*
X103441428Y-105822438D01*
X103441428Y-105822438D02*
X103536666Y-105774819D01*
X103536666Y-105774819D02*
X103774761Y-105774819D01*
X103774761Y-105774819D02*
X103869999Y-105822438D01*
X103869999Y-105822438D02*
X103917618Y-105870057D01*
X103917618Y-105870057D02*
X103965237Y-105965295D01*
X103965237Y-105965295D02*
X103965237Y-106060533D01*
X103965237Y-106060533D02*
X103917618Y-106203390D01*
X103917618Y-106203390D02*
X103346190Y-106774819D01*
X103346190Y-106774819D02*
X103965237Y-106774819D01*
X117675819Y-59195666D02*
X117199628Y-59528999D01*
X117675819Y-59767094D02*
X116675819Y-59767094D01*
X116675819Y-59767094D02*
X116675819Y-59386142D01*
X116675819Y-59386142D02*
X116723438Y-59290904D01*
X116723438Y-59290904D02*
X116771057Y-59243285D01*
X116771057Y-59243285D02*
X116866295Y-59195666D01*
X116866295Y-59195666D02*
X117009152Y-59195666D01*
X117009152Y-59195666D02*
X117104390Y-59243285D01*
X117104390Y-59243285D02*
X117152009Y-59290904D01*
X117152009Y-59290904D02*
X117199628Y-59386142D01*
X117199628Y-59386142D02*
X117199628Y-59767094D01*
X116675819Y-58862332D02*
X116675819Y-58243285D01*
X116675819Y-58243285D02*
X117056771Y-58576618D01*
X117056771Y-58576618D02*
X117056771Y-58433761D01*
X117056771Y-58433761D02*
X117104390Y-58338523D01*
X117104390Y-58338523D02*
X117152009Y-58290904D01*
X117152009Y-58290904D02*
X117247247Y-58243285D01*
X117247247Y-58243285D02*
X117485342Y-58243285D01*
X117485342Y-58243285D02*
X117580580Y-58290904D01*
X117580580Y-58290904D02*
X117628200Y-58338523D01*
X117628200Y-58338523D02*
X117675819Y-58433761D01*
X117675819Y-58433761D02*
X117675819Y-58719475D01*
X117675819Y-58719475D02*
X117628200Y-58814713D01*
X117628200Y-58814713D02*
X117580580Y-58862332D01*
X118041057Y-59655904D02*
X117993438Y-59608285D01*
X117993438Y-59608285D02*
X117945819Y-59513047D01*
X117945819Y-59513047D02*
X117945819Y-59274952D01*
X117945819Y-59274952D02*
X117993438Y-59179714D01*
X117993438Y-59179714D02*
X118041057Y-59132095D01*
X118041057Y-59132095D02*
X118136295Y-59084476D01*
X118136295Y-59084476D02*
X118231533Y-59084476D01*
X118231533Y-59084476D02*
X118374390Y-59132095D01*
X118374390Y-59132095D02*
X118945819Y-59703523D01*
X118945819Y-59703523D02*
X118945819Y-59084476D01*
X118945819Y-58655904D02*
X117945819Y-58655904D01*
X118945819Y-58084476D02*
X118374390Y-58513047D01*
X117945819Y-58084476D02*
X118517247Y-58655904D01*
X118041057Y-57703523D02*
X117993438Y-57655904D01*
X117993438Y-57655904D02*
X117945819Y-57560666D01*
X117945819Y-57560666D02*
X117945819Y-57322571D01*
X117945819Y-57322571D02*
X117993438Y-57227333D01*
X117993438Y-57227333D02*
X118041057Y-57179714D01*
X118041057Y-57179714D02*
X118136295Y-57132095D01*
X118136295Y-57132095D02*
X118231533Y-57132095D01*
X118231533Y-57132095D02*
X118374390Y-57179714D01*
X118374390Y-57179714D02*
X118945819Y-57751142D01*
X118945819Y-57751142D02*
X118945819Y-57132095D01*
X146478666Y-97268819D02*
X146478666Y-97983104D01*
X146478666Y-97983104D02*
X146431047Y-98125961D01*
X146431047Y-98125961D02*
X146335809Y-98221200D01*
X146335809Y-98221200D02*
X146192952Y-98268819D01*
X146192952Y-98268819D02*
X146097714Y-98268819D01*
X147431047Y-97268819D02*
X146954857Y-97268819D01*
X146954857Y-97268819D02*
X146907238Y-97745009D01*
X146907238Y-97745009D02*
X146954857Y-97697390D01*
X146954857Y-97697390D02*
X147050095Y-97649771D01*
X147050095Y-97649771D02*
X147288190Y-97649771D01*
X147288190Y-97649771D02*
X147383428Y-97697390D01*
X147383428Y-97697390D02*
X147431047Y-97745009D01*
X147431047Y-97745009D02*
X147478666Y-97840247D01*
X147478666Y-97840247D02*
X147478666Y-98078342D01*
X147478666Y-98078342D02*
X147431047Y-98173580D01*
X147431047Y-98173580D02*
X147383428Y-98221200D01*
X147383428Y-98221200D02*
X147288190Y-98268819D01*
X147288190Y-98268819D02*
X147050095Y-98268819D01*
X147050095Y-98268819D02*
X146954857Y-98221200D01*
X146954857Y-98221200D02*
X146907238Y-98173580D01*
X149886819Y-92116666D02*
X149410628Y-92449999D01*
X149886819Y-92688094D02*
X148886819Y-92688094D01*
X148886819Y-92688094D02*
X148886819Y-92307142D01*
X148886819Y-92307142D02*
X148934438Y-92211904D01*
X148934438Y-92211904D02*
X148982057Y-92164285D01*
X148982057Y-92164285D02*
X149077295Y-92116666D01*
X149077295Y-92116666D02*
X149220152Y-92116666D01*
X149220152Y-92116666D02*
X149315390Y-92164285D01*
X149315390Y-92164285D02*
X149363009Y-92211904D01*
X149363009Y-92211904D02*
X149410628Y-92307142D01*
X149410628Y-92307142D02*
X149410628Y-92688094D01*
X149886819Y-91164285D02*
X149886819Y-91735713D01*
X149886819Y-91449999D02*
X148886819Y-91449999D01*
X148886819Y-91449999D02*
X149029676Y-91545237D01*
X149029676Y-91545237D02*
X149124914Y-91640475D01*
X149124914Y-91640475D02*
X149172533Y-91735713D01*
X143646819Y-93259523D02*
X143646819Y-92640476D01*
X143646819Y-92640476D02*
X144027771Y-92973809D01*
X144027771Y-92973809D02*
X144027771Y-92830952D01*
X144027771Y-92830952D02*
X144075390Y-92735714D01*
X144075390Y-92735714D02*
X144123009Y-92688095D01*
X144123009Y-92688095D02*
X144218247Y-92640476D01*
X144218247Y-92640476D02*
X144456342Y-92640476D01*
X144456342Y-92640476D02*
X144551580Y-92688095D01*
X144551580Y-92688095D02*
X144599200Y-92735714D01*
X144599200Y-92735714D02*
X144646819Y-92830952D01*
X144646819Y-92830952D02*
X144646819Y-93116666D01*
X144646819Y-93116666D02*
X144599200Y-93211904D01*
X144599200Y-93211904D02*
X144551580Y-93259523D01*
X144646819Y-92211904D02*
X143646819Y-92211904D01*
X144646819Y-91640476D02*
X144075390Y-92069047D01*
X143646819Y-91640476D02*
X144218247Y-92211904D01*
X143646819Y-91307142D02*
X143646819Y-90688095D01*
X143646819Y-90688095D02*
X144027771Y-91021428D01*
X144027771Y-91021428D02*
X144027771Y-90878571D01*
X144027771Y-90878571D02*
X144075390Y-90783333D01*
X144075390Y-90783333D02*
X144123009Y-90735714D01*
X144123009Y-90735714D02*
X144218247Y-90688095D01*
X144218247Y-90688095D02*
X144456342Y-90688095D01*
X144456342Y-90688095D02*
X144551580Y-90735714D01*
X144551580Y-90735714D02*
X144599200Y-90783333D01*
X144599200Y-90783333D02*
X144646819Y-90878571D01*
X144646819Y-90878571D02*
X144646819Y-91164285D01*
X144646819Y-91164285D02*
X144599200Y-91259523D01*
X144599200Y-91259523D02*
X144551580Y-91307142D01*
X198103080Y-67177465D02*
X197388795Y-67177465D01*
X197388795Y-67177465D02*
X197245938Y-67129846D01*
X197245938Y-67129846D02*
X197150700Y-67034608D01*
X197150700Y-67034608D02*
X197103080Y-66891751D01*
X197103080Y-66891751D02*
X197103080Y-66796513D01*
X197674509Y-67796513D02*
X197722128Y-67701275D01*
X197722128Y-67701275D02*
X197769747Y-67653656D01*
X197769747Y-67653656D02*
X197864985Y-67606037D01*
X197864985Y-67606037D02*
X197912604Y-67606037D01*
X197912604Y-67606037D02*
X198007842Y-67653656D01*
X198007842Y-67653656D02*
X198055461Y-67701275D01*
X198055461Y-67701275D02*
X198103080Y-67796513D01*
X198103080Y-67796513D02*
X198103080Y-67986989D01*
X198103080Y-67986989D02*
X198055461Y-68082227D01*
X198055461Y-68082227D02*
X198007842Y-68129846D01*
X198007842Y-68129846D02*
X197912604Y-68177465D01*
X197912604Y-68177465D02*
X197864985Y-68177465D01*
X197864985Y-68177465D02*
X197769747Y-68129846D01*
X197769747Y-68129846D02*
X197722128Y-68082227D01*
X197722128Y-68082227D02*
X197674509Y-67986989D01*
X197674509Y-67986989D02*
X197674509Y-67796513D01*
X197674509Y-67796513D02*
X197626890Y-67701275D01*
X197626890Y-67701275D02*
X197579271Y-67653656D01*
X197579271Y-67653656D02*
X197484033Y-67606037D01*
X197484033Y-67606037D02*
X197293557Y-67606037D01*
X197293557Y-67606037D02*
X197198319Y-67653656D01*
X197198319Y-67653656D02*
X197150700Y-67701275D01*
X197150700Y-67701275D02*
X197103080Y-67796513D01*
X197103080Y-67796513D02*
X197103080Y-67986989D01*
X197103080Y-67986989D02*
X197150700Y-68082227D01*
X197150700Y-68082227D02*
X197198319Y-68129846D01*
X197198319Y-68129846D02*
X197293557Y-68177465D01*
X197293557Y-68177465D02*
X197484033Y-68177465D01*
X197484033Y-68177465D02*
X197579271Y-68129846D01*
X197579271Y-68129846D02*
X197626890Y-68082227D01*
X197626890Y-68082227D02*
X197674509Y-67986989D01*
X122481009Y-98133333D02*
X122481009Y-98466666D01*
X123004819Y-98466666D02*
X122004819Y-98466666D01*
X122004819Y-98466666D02*
X122004819Y-97990476D01*
X123004819Y-97085714D02*
X123004819Y-97657142D01*
X123004819Y-97371428D02*
X122004819Y-97371428D01*
X122004819Y-97371428D02*
X122147676Y-97466666D01*
X122147676Y-97466666D02*
X122242914Y-97561904D01*
X122242914Y-97561904D02*
X122290533Y-97657142D01*
X118004819Y-102704761D02*
X117004819Y-102704761D01*
X117004819Y-102704761D02*
X117719104Y-102371428D01*
X117719104Y-102371428D02*
X117004819Y-102038095D01*
X117004819Y-102038095D02*
X118004819Y-102038095D01*
X117481009Y-101228571D02*
X117481009Y-101561904D01*
X118004819Y-101561904D02*
X117004819Y-101561904D01*
X117004819Y-101561904D02*
X117004819Y-101085714D01*
X117623866Y-100704761D02*
X117623866Y-99942857D01*
X118004819Y-98895238D02*
X117528628Y-99228571D01*
X118004819Y-99466666D02*
X117004819Y-99466666D01*
X117004819Y-99466666D02*
X117004819Y-99085714D01*
X117004819Y-99085714D02*
X117052438Y-98990476D01*
X117052438Y-98990476D02*
X117100057Y-98942857D01*
X117100057Y-98942857D02*
X117195295Y-98895238D01*
X117195295Y-98895238D02*
X117338152Y-98895238D01*
X117338152Y-98895238D02*
X117433390Y-98942857D01*
X117433390Y-98942857D02*
X117481009Y-98990476D01*
X117481009Y-98990476D02*
X117528628Y-99085714D01*
X117528628Y-99085714D02*
X117528628Y-99466666D01*
X117052438Y-97942857D02*
X117004819Y-98038095D01*
X117004819Y-98038095D02*
X117004819Y-98180952D01*
X117004819Y-98180952D02*
X117052438Y-98323809D01*
X117052438Y-98323809D02*
X117147676Y-98419047D01*
X117147676Y-98419047D02*
X117242914Y-98466666D01*
X117242914Y-98466666D02*
X117433390Y-98514285D01*
X117433390Y-98514285D02*
X117576247Y-98514285D01*
X117576247Y-98514285D02*
X117766723Y-98466666D01*
X117766723Y-98466666D02*
X117861961Y-98419047D01*
X117861961Y-98419047D02*
X117957200Y-98323809D01*
X117957200Y-98323809D02*
X118004819Y-98180952D01*
X118004819Y-98180952D02*
X118004819Y-98085714D01*
X118004819Y-98085714D02*
X117957200Y-97942857D01*
X117957200Y-97942857D02*
X117909580Y-97895238D01*
X117909580Y-97895238D02*
X117576247Y-97895238D01*
X117576247Y-97895238D02*
X117576247Y-98085714D01*
X117004819Y-97038095D02*
X117004819Y-97228571D01*
X117004819Y-97228571D02*
X117052438Y-97323809D01*
X117052438Y-97323809D02*
X117100057Y-97371428D01*
X117100057Y-97371428D02*
X117242914Y-97466666D01*
X117242914Y-97466666D02*
X117433390Y-97514285D01*
X117433390Y-97514285D02*
X117814342Y-97514285D01*
X117814342Y-97514285D02*
X117909580Y-97466666D01*
X117909580Y-97466666D02*
X117957200Y-97419047D01*
X117957200Y-97419047D02*
X118004819Y-97323809D01*
X118004819Y-97323809D02*
X118004819Y-97133333D01*
X118004819Y-97133333D02*
X117957200Y-97038095D01*
X117957200Y-97038095D02*
X117909580Y-96990476D01*
X117909580Y-96990476D02*
X117814342Y-96942857D01*
X117814342Y-96942857D02*
X117576247Y-96942857D01*
X117576247Y-96942857D02*
X117481009Y-96990476D01*
X117481009Y-96990476D02*
X117433390Y-97038095D01*
X117433390Y-97038095D02*
X117385771Y-97133333D01*
X117385771Y-97133333D02*
X117385771Y-97323809D01*
X117385771Y-97323809D02*
X117433390Y-97419047D01*
X117433390Y-97419047D02*
X117481009Y-97466666D01*
X117481009Y-97466666D02*
X117576247Y-97514285D01*
X117004819Y-96038095D02*
X117004819Y-96514285D01*
X117004819Y-96514285D02*
X117481009Y-96561904D01*
X117481009Y-96561904D02*
X117433390Y-96514285D01*
X117433390Y-96514285D02*
X117385771Y-96419047D01*
X117385771Y-96419047D02*
X117385771Y-96180952D01*
X117385771Y-96180952D02*
X117433390Y-96085714D01*
X117433390Y-96085714D02*
X117481009Y-96038095D01*
X117481009Y-96038095D02*
X117576247Y-95990476D01*
X117576247Y-95990476D02*
X117814342Y-95990476D01*
X117814342Y-95990476D02*
X117909580Y-96038095D01*
X117909580Y-96038095D02*
X117957200Y-96085714D01*
X117957200Y-96085714D02*
X118004819Y-96180952D01*
X118004819Y-96180952D02*
X118004819Y-96419047D01*
X118004819Y-96419047D02*
X117957200Y-96514285D01*
X117957200Y-96514285D02*
X117909580Y-96561904D01*
X117004819Y-95371428D02*
X117004819Y-95276190D01*
X117004819Y-95276190D02*
X117052438Y-95180952D01*
X117052438Y-95180952D02*
X117100057Y-95133333D01*
X117100057Y-95133333D02*
X117195295Y-95085714D01*
X117195295Y-95085714D02*
X117385771Y-95038095D01*
X117385771Y-95038095D02*
X117623866Y-95038095D01*
X117623866Y-95038095D02*
X117814342Y-95085714D01*
X117814342Y-95085714D02*
X117909580Y-95133333D01*
X117909580Y-95133333D02*
X117957200Y-95180952D01*
X117957200Y-95180952D02*
X118004819Y-95276190D01*
X118004819Y-95276190D02*
X118004819Y-95371428D01*
X118004819Y-95371428D02*
X117957200Y-95466666D01*
X117957200Y-95466666D02*
X117909580Y-95514285D01*
X117909580Y-95514285D02*
X117814342Y-95561904D01*
X117814342Y-95561904D02*
X117623866Y-95609523D01*
X117623866Y-95609523D02*
X117385771Y-95609523D01*
X117385771Y-95609523D02*
X117195295Y-95561904D01*
X117195295Y-95561904D02*
X117100057Y-95514285D01*
X117100057Y-95514285D02*
X117052438Y-95466666D01*
X117052438Y-95466666D02*
X117004819Y-95371428D01*
X117623866Y-94609523D02*
X117623866Y-93847619D01*
X117004819Y-93180952D02*
X117004819Y-93085714D01*
X117004819Y-93085714D02*
X117052438Y-92990476D01*
X117052438Y-92990476D02*
X117100057Y-92942857D01*
X117100057Y-92942857D02*
X117195295Y-92895238D01*
X117195295Y-92895238D02*
X117385771Y-92847619D01*
X117385771Y-92847619D02*
X117623866Y-92847619D01*
X117623866Y-92847619D02*
X117814342Y-92895238D01*
X117814342Y-92895238D02*
X117909580Y-92942857D01*
X117909580Y-92942857D02*
X117957200Y-92990476D01*
X117957200Y-92990476D02*
X118004819Y-93085714D01*
X118004819Y-93085714D02*
X118004819Y-93180952D01*
X118004819Y-93180952D02*
X117957200Y-93276190D01*
X117957200Y-93276190D02*
X117909580Y-93323809D01*
X117909580Y-93323809D02*
X117814342Y-93371428D01*
X117814342Y-93371428D02*
X117623866Y-93419047D01*
X117623866Y-93419047D02*
X117385771Y-93419047D01*
X117385771Y-93419047D02*
X117195295Y-93371428D01*
X117195295Y-93371428D02*
X117100057Y-93323809D01*
X117100057Y-93323809D02*
X117052438Y-93276190D01*
X117052438Y-93276190D02*
X117004819Y-93180952D01*
X109394666Y-73114819D02*
X109394666Y-73829104D01*
X109394666Y-73829104D02*
X109347047Y-73971961D01*
X109347047Y-73971961D02*
X109251809Y-74067200D01*
X109251809Y-74067200D02*
X109108952Y-74114819D01*
X109108952Y-74114819D02*
X109013714Y-74114819D01*
X110394666Y-74114819D02*
X109823238Y-74114819D01*
X110108952Y-74114819D02*
X110108952Y-73114819D01*
X110108952Y-73114819D02*
X110013714Y-73257676D01*
X110013714Y-73257676D02*
X109918476Y-73352914D01*
X109918476Y-73352914D02*
X109823238Y-73400533D01*
X163409333Y-80623580D02*
X163361714Y-80671200D01*
X163361714Y-80671200D02*
X163218857Y-80718819D01*
X163218857Y-80718819D02*
X163123619Y-80718819D01*
X163123619Y-80718819D02*
X162980762Y-80671200D01*
X162980762Y-80671200D02*
X162885524Y-80575961D01*
X162885524Y-80575961D02*
X162837905Y-80480723D01*
X162837905Y-80480723D02*
X162790286Y-80290247D01*
X162790286Y-80290247D02*
X162790286Y-80147390D01*
X162790286Y-80147390D02*
X162837905Y-79956914D01*
X162837905Y-79956914D02*
X162885524Y-79861676D01*
X162885524Y-79861676D02*
X162980762Y-79766438D01*
X162980762Y-79766438D02*
X163123619Y-79718819D01*
X163123619Y-79718819D02*
X163218857Y-79718819D01*
X163218857Y-79718819D02*
X163361714Y-79766438D01*
X163361714Y-79766438D02*
X163409333Y-79814057D01*
X163742667Y-79718819D02*
X164361714Y-79718819D01*
X164361714Y-79718819D02*
X164028381Y-80099771D01*
X164028381Y-80099771D02*
X164171238Y-80099771D01*
X164171238Y-80099771D02*
X164266476Y-80147390D01*
X164266476Y-80147390D02*
X164314095Y-80195009D01*
X164314095Y-80195009D02*
X164361714Y-80290247D01*
X164361714Y-80290247D02*
X164361714Y-80528342D01*
X164361714Y-80528342D02*
X164314095Y-80623580D01*
X164314095Y-80623580D02*
X164266476Y-80671200D01*
X164266476Y-80671200D02*
X164171238Y-80718819D01*
X164171238Y-80718819D02*
X163885524Y-80718819D01*
X163885524Y-80718819D02*
X163790286Y-80671200D01*
X163790286Y-80671200D02*
X163742667Y-80623580D01*
X166568571Y-80718819D02*
X165997143Y-80718819D01*
X166282857Y-80718819D02*
X166282857Y-79718819D01*
X166282857Y-79718819D02*
X166187619Y-79861676D01*
X166187619Y-79861676D02*
X166092381Y-79956914D01*
X166092381Y-79956914D02*
X165997143Y-80004533D01*
X167187619Y-79718819D02*
X167282857Y-79718819D01*
X167282857Y-79718819D02*
X167378095Y-79766438D01*
X167378095Y-79766438D02*
X167425714Y-79814057D01*
X167425714Y-79814057D02*
X167473333Y-79909295D01*
X167473333Y-79909295D02*
X167520952Y-80099771D01*
X167520952Y-80099771D02*
X167520952Y-80337866D01*
X167520952Y-80337866D02*
X167473333Y-80528342D01*
X167473333Y-80528342D02*
X167425714Y-80623580D01*
X167425714Y-80623580D02*
X167378095Y-80671200D01*
X167378095Y-80671200D02*
X167282857Y-80718819D01*
X167282857Y-80718819D02*
X167187619Y-80718819D01*
X167187619Y-80718819D02*
X167092381Y-80671200D01*
X167092381Y-80671200D02*
X167044762Y-80623580D01*
X167044762Y-80623580D02*
X166997143Y-80528342D01*
X166997143Y-80528342D02*
X166949524Y-80337866D01*
X166949524Y-80337866D02*
X166949524Y-80099771D01*
X166949524Y-80099771D02*
X166997143Y-79909295D01*
X166997143Y-79909295D02*
X167044762Y-79814057D01*
X167044762Y-79814057D02*
X167092381Y-79766438D01*
X167092381Y-79766438D02*
X167187619Y-79718819D01*
X168378095Y-80052152D02*
X168378095Y-80718819D01*
X167949524Y-80052152D02*
X167949524Y-80575961D01*
X167949524Y-80575961D02*
X167997143Y-80671200D01*
X167997143Y-80671200D02*
X168092381Y-80718819D01*
X168092381Y-80718819D02*
X168235238Y-80718819D01*
X168235238Y-80718819D02*
X168330476Y-80671200D01*
X168330476Y-80671200D02*
X168378095Y-80623580D01*
X169187619Y-80195009D02*
X168854286Y-80195009D01*
X168854286Y-80718819D02*
X168854286Y-79718819D01*
X168854286Y-79718819D02*
X169330476Y-79718819D01*
X128825666Y-58382819D02*
X128825666Y-59097104D01*
X128825666Y-59097104D02*
X128778047Y-59239961D01*
X128778047Y-59239961D02*
X128682809Y-59335200D01*
X128682809Y-59335200D02*
X128539952Y-59382819D01*
X128539952Y-59382819D02*
X128444714Y-59382819D01*
X129206619Y-58382819D02*
X129825666Y-58382819D01*
X129825666Y-58382819D02*
X129492333Y-58763771D01*
X129492333Y-58763771D02*
X129635190Y-58763771D01*
X129635190Y-58763771D02*
X129730428Y-58811390D01*
X129730428Y-58811390D02*
X129778047Y-58859009D01*
X129778047Y-58859009D02*
X129825666Y-58954247D01*
X129825666Y-58954247D02*
X129825666Y-59192342D01*
X129825666Y-59192342D02*
X129778047Y-59287580D01*
X129778047Y-59287580D02*
X129730428Y-59335200D01*
X129730428Y-59335200D02*
X129635190Y-59382819D01*
X129635190Y-59382819D02*
X129349476Y-59382819D01*
X129349476Y-59382819D02*
X129254238Y-59335200D01*
X129254238Y-59335200D02*
X129206619Y-59287580D01*
X199612381Y-56969819D02*
X199612381Y-55969819D01*
X199612381Y-55969819D02*
X199945714Y-56684104D01*
X199945714Y-56684104D02*
X200279047Y-55969819D01*
X200279047Y-55969819D02*
X200279047Y-56969819D01*
X200755238Y-56874580D02*
X200802857Y-56922200D01*
X200802857Y-56922200D02*
X200755238Y-56969819D01*
X200755238Y-56969819D02*
X200707619Y-56922200D01*
X200707619Y-56922200D02*
X200755238Y-56874580D01*
X200755238Y-56874580D02*
X200755238Y-56969819D01*
X201183809Y-56065057D02*
X201231428Y-56017438D01*
X201231428Y-56017438D02*
X201326666Y-55969819D01*
X201326666Y-55969819D02*
X201564761Y-55969819D01*
X201564761Y-55969819D02*
X201659999Y-56017438D01*
X201659999Y-56017438D02*
X201707618Y-56065057D01*
X201707618Y-56065057D02*
X201755237Y-56160295D01*
X201755237Y-56160295D02*
X201755237Y-56255533D01*
X201755237Y-56255533D02*
X201707618Y-56398390D01*
X201707618Y-56398390D02*
X201136190Y-56969819D01*
X201136190Y-56969819D02*
X201755237Y-56969819D01*
X114845180Y-97710666D02*
X114130895Y-97710666D01*
X114130895Y-97710666D02*
X113988038Y-97663047D01*
X113988038Y-97663047D02*
X113892800Y-97567809D01*
X113892800Y-97567809D02*
X113845180Y-97424952D01*
X113845180Y-97424952D02*
X113845180Y-97329714D01*
X114845180Y-98615428D02*
X114845180Y-98424952D01*
X114845180Y-98424952D02*
X114797561Y-98329714D01*
X114797561Y-98329714D02*
X114749942Y-98282095D01*
X114749942Y-98282095D02*
X114607085Y-98186857D01*
X114607085Y-98186857D02*
X114416609Y-98139238D01*
X114416609Y-98139238D02*
X114035657Y-98139238D01*
X114035657Y-98139238D02*
X113940419Y-98186857D01*
X113940419Y-98186857D02*
X113892800Y-98234476D01*
X113892800Y-98234476D02*
X113845180Y-98329714D01*
X113845180Y-98329714D02*
X113845180Y-98520190D01*
X113845180Y-98520190D02*
X113892800Y-98615428D01*
X113892800Y-98615428D02*
X113940419Y-98663047D01*
X113940419Y-98663047D02*
X114035657Y-98710666D01*
X114035657Y-98710666D02*
X114273752Y-98710666D01*
X114273752Y-98710666D02*
X114368990Y-98663047D01*
X114368990Y-98663047D02*
X114416609Y-98615428D01*
X114416609Y-98615428D02*
X114464228Y-98520190D01*
X114464228Y-98520190D02*
X114464228Y-98329714D01*
X114464228Y-98329714D02*
X114416609Y-98234476D01*
X114416609Y-98234476D02*
X114368990Y-98186857D01*
X114368990Y-98186857D02*
X114273752Y-98139238D01*
X137842666Y-55207819D02*
X137842666Y-55922104D01*
X137842666Y-55922104D02*
X137795047Y-56064961D01*
X137795047Y-56064961D02*
X137699809Y-56160200D01*
X137699809Y-56160200D02*
X137556952Y-56207819D01*
X137556952Y-56207819D02*
X137461714Y-56207819D01*
X138366476Y-56207819D02*
X138556952Y-56207819D01*
X138556952Y-56207819D02*
X138652190Y-56160200D01*
X138652190Y-56160200D02*
X138699809Y-56112580D01*
X138699809Y-56112580D02*
X138795047Y-55969723D01*
X138795047Y-55969723D02*
X138842666Y-55779247D01*
X138842666Y-55779247D02*
X138842666Y-55398295D01*
X138842666Y-55398295D02*
X138795047Y-55303057D01*
X138795047Y-55303057D02*
X138747428Y-55255438D01*
X138747428Y-55255438D02*
X138652190Y-55207819D01*
X138652190Y-55207819D02*
X138461714Y-55207819D01*
X138461714Y-55207819D02*
X138366476Y-55255438D01*
X138366476Y-55255438D02*
X138318857Y-55303057D01*
X138318857Y-55303057D02*
X138271238Y-55398295D01*
X138271238Y-55398295D02*
X138271238Y-55636390D01*
X138271238Y-55636390D02*
X138318857Y-55731628D01*
X138318857Y-55731628D02*
X138366476Y-55779247D01*
X138366476Y-55779247D02*
X138461714Y-55826866D01*
X138461714Y-55826866D02*
X138652190Y-55826866D01*
X138652190Y-55826866D02*
X138747428Y-55779247D01*
X138747428Y-55779247D02*
X138795047Y-55731628D01*
X138795047Y-55731628D02*
X138842666Y-55636390D01*
X173188333Y-72354580D02*
X173140714Y-72402200D01*
X173140714Y-72402200D02*
X172997857Y-72449819D01*
X172997857Y-72449819D02*
X172902619Y-72449819D01*
X172902619Y-72449819D02*
X172759762Y-72402200D01*
X172759762Y-72402200D02*
X172664524Y-72306961D01*
X172664524Y-72306961D02*
X172616905Y-72211723D01*
X172616905Y-72211723D02*
X172569286Y-72021247D01*
X172569286Y-72021247D02*
X172569286Y-71878390D01*
X172569286Y-71878390D02*
X172616905Y-71687914D01*
X172616905Y-71687914D02*
X172664524Y-71592676D01*
X172664524Y-71592676D02*
X172759762Y-71497438D01*
X172759762Y-71497438D02*
X172902619Y-71449819D01*
X172902619Y-71449819D02*
X172997857Y-71449819D01*
X172997857Y-71449819D02*
X173140714Y-71497438D01*
X173140714Y-71497438D02*
X173188333Y-71545057D01*
X174045476Y-71783152D02*
X174045476Y-72449819D01*
X173807381Y-71402200D02*
X173569286Y-72116485D01*
X173569286Y-72116485D02*
X174188333Y-72116485D01*
X171807380Y-77049819D02*
X171235952Y-77049819D01*
X171521666Y-77049819D02*
X171521666Y-76049819D01*
X171521666Y-76049819D02*
X171426428Y-76192676D01*
X171426428Y-76192676D02*
X171331190Y-76287914D01*
X171331190Y-76287914D02*
X171235952Y-76335533D01*
X172426428Y-76049819D02*
X172521666Y-76049819D01*
X172521666Y-76049819D02*
X172616904Y-76097438D01*
X172616904Y-76097438D02*
X172664523Y-76145057D01*
X172664523Y-76145057D02*
X172712142Y-76240295D01*
X172712142Y-76240295D02*
X172759761Y-76430771D01*
X172759761Y-76430771D02*
X172759761Y-76668866D01*
X172759761Y-76668866D02*
X172712142Y-76859342D01*
X172712142Y-76859342D02*
X172664523Y-76954580D01*
X172664523Y-76954580D02*
X172616904Y-77002200D01*
X172616904Y-77002200D02*
X172521666Y-77049819D01*
X172521666Y-77049819D02*
X172426428Y-77049819D01*
X172426428Y-77049819D02*
X172331190Y-77002200D01*
X172331190Y-77002200D02*
X172283571Y-76954580D01*
X172283571Y-76954580D02*
X172235952Y-76859342D01*
X172235952Y-76859342D02*
X172188333Y-76668866D01*
X172188333Y-76668866D02*
X172188333Y-76430771D01*
X172188333Y-76430771D02*
X172235952Y-76240295D01*
X172235952Y-76240295D02*
X172283571Y-76145057D01*
X172283571Y-76145057D02*
X172331190Y-76097438D01*
X172331190Y-76097438D02*
X172426428Y-76049819D01*
X173378809Y-76049819D02*
X173474047Y-76049819D01*
X173474047Y-76049819D02*
X173569285Y-76097438D01*
X173569285Y-76097438D02*
X173616904Y-76145057D01*
X173616904Y-76145057D02*
X173664523Y-76240295D01*
X173664523Y-76240295D02*
X173712142Y-76430771D01*
X173712142Y-76430771D02*
X173712142Y-76668866D01*
X173712142Y-76668866D02*
X173664523Y-76859342D01*
X173664523Y-76859342D02*
X173616904Y-76954580D01*
X173616904Y-76954580D02*
X173569285Y-77002200D01*
X173569285Y-77002200D02*
X173474047Y-77049819D01*
X173474047Y-77049819D02*
X173378809Y-77049819D01*
X173378809Y-77049819D02*
X173283571Y-77002200D01*
X173283571Y-77002200D02*
X173235952Y-76954580D01*
X173235952Y-76954580D02*
X173188333Y-76859342D01*
X173188333Y-76859342D02*
X173140714Y-76668866D01*
X173140714Y-76668866D02*
X173140714Y-76430771D01*
X173140714Y-76430771D02*
X173188333Y-76240295D01*
X173188333Y-76240295D02*
X173235952Y-76145057D01*
X173235952Y-76145057D02*
X173283571Y-76097438D01*
X173283571Y-76097438D02*
X173378809Y-76049819D01*
X174140714Y-76383152D02*
X174140714Y-77049819D01*
X174140714Y-76478390D02*
X174188333Y-76430771D01*
X174188333Y-76430771D02*
X174283571Y-76383152D01*
X174283571Y-76383152D02*
X174426428Y-76383152D01*
X174426428Y-76383152D02*
X174521666Y-76430771D01*
X174521666Y-76430771D02*
X174569285Y-76526009D01*
X174569285Y-76526009D02*
X174569285Y-77049819D01*
X175378809Y-76526009D02*
X175045476Y-76526009D01*
X175045476Y-77049819D02*
X175045476Y-76049819D01*
X175045476Y-76049819D02*
X175521666Y-76049819D01*
X188809333Y-81131580D02*
X188761714Y-81179200D01*
X188761714Y-81179200D02*
X188618857Y-81226819D01*
X188618857Y-81226819D02*
X188523619Y-81226819D01*
X188523619Y-81226819D02*
X188380762Y-81179200D01*
X188380762Y-81179200D02*
X188285524Y-81083961D01*
X188285524Y-81083961D02*
X188237905Y-80988723D01*
X188237905Y-80988723D02*
X188190286Y-80798247D01*
X188190286Y-80798247D02*
X188190286Y-80655390D01*
X188190286Y-80655390D02*
X188237905Y-80464914D01*
X188237905Y-80464914D02*
X188285524Y-80369676D01*
X188285524Y-80369676D02*
X188380762Y-80274438D01*
X188380762Y-80274438D02*
X188523619Y-80226819D01*
X188523619Y-80226819D02*
X188618857Y-80226819D01*
X188618857Y-80226819D02*
X188761714Y-80274438D01*
X188761714Y-80274438D02*
X188809333Y-80322057D01*
X189190286Y-80322057D02*
X189237905Y-80274438D01*
X189237905Y-80274438D02*
X189333143Y-80226819D01*
X189333143Y-80226819D02*
X189571238Y-80226819D01*
X189571238Y-80226819D02*
X189666476Y-80274438D01*
X189666476Y-80274438D02*
X189714095Y-80322057D01*
X189714095Y-80322057D02*
X189761714Y-80417295D01*
X189761714Y-80417295D02*
X189761714Y-80512533D01*
X189761714Y-80512533D02*
X189714095Y-80655390D01*
X189714095Y-80655390D02*
X189142667Y-81226819D01*
X189142667Y-81226819D02*
X189761714Y-81226819D01*
X187682380Y-84909819D02*
X187110952Y-84909819D01*
X187396666Y-84909819D02*
X187396666Y-83909819D01*
X187396666Y-83909819D02*
X187301428Y-84052676D01*
X187301428Y-84052676D02*
X187206190Y-84147914D01*
X187206190Y-84147914D02*
X187110952Y-84195533D01*
X188301428Y-83909819D02*
X188396666Y-83909819D01*
X188396666Y-83909819D02*
X188491904Y-83957438D01*
X188491904Y-83957438D02*
X188539523Y-84005057D01*
X188539523Y-84005057D02*
X188587142Y-84100295D01*
X188587142Y-84100295D02*
X188634761Y-84290771D01*
X188634761Y-84290771D02*
X188634761Y-84528866D01*
X188634761Y-84528866D02*
X188587142Y-84719342D01*
X188587142Y-84719342D02*
X188539523Y-84814580D01*
X188539523Y-84814580D02*
X188491904Y-84862200D01*
X188491904Y-84862200D02*
X188396666Y-84909819D01*
X188396666Y-84909819D02*
X188301428Y-84909819D01*
X188301428Y-84909819D02*
X188206190Y-84862200D01*
X188206190Y-84862200D02*
X188158571Y-84814580D01*
X188158571Y-84814580D02*
X188110952Y-84719342D01*
X188110952Y-84719342D02*
X188063333Y-84528866D01*
X188063333Y-84528866D02*
X188063333Y-84290771D01*
X188063333Y-84290771D02*
X188110952Y-84100295D01*
X188110952Y-84100295D02*
X188158571Y-84005057D01*
X188158571Y-84005057D02*
X188206190Y-83957438D01*
X188206190Y-83957438D02*
X188301428Y-83909819D01*
X189253809Y-83909819D02*
X189349047Y-83909819D01*
X189349047Y-83909819D02*
X189444285Y-83957438D01*
X189444285Y-83957438D02*
X189491904Y-84005057D01*
X189491904Y-84005057D02*
X189539523Y-84100295D01*
X189539523Y-84100295D02*
X189587142Y-84290771D01*
X189587142Y-84290771D02*
X189587142Y-84528866D01*
X189587142Y-84528866D02*
X189539523Y-84719342D01*
X189539523Y-84719342D02*
X189491904Y-84814580D01*
X189491904Y-84814580D02*
X189444285Y-84862200D01*
X189444285Y-84862200D02*
X189349047Y-84909819D01*
X189349047Y-84909819D02*
X189253809Y-84909819D01*
X189253809Y-84909819D02*
X189158571Y-84862200D01*
X189158571Y-84862200D02*
X189110952Y-84814580D01*
X189110952Y-84814580D02*
X189063333Y-84719342D01*
X189063333Y-84719342D02*
X189015714Y-84528866D01*
X189015714Y-84528866D02*
X189015714Y-84290771D01*
X189015714Y-84290771D02*
X189063333Y-84100295D01*
X189063333Y-84100295D02*
X189110952Y-84005057D01*
X189110952Y-84005057D02*
X189158571Y-83957438D01*
X189158571Y-83957438D02*
X189253809Y-83909819D01*
X190444285Y-84243152D02*
X190444285Y-84909819D01*
X190015714Y-84243152D02*
X190015714Y-84766961D01*
X190015714Y-84766961D02*
X190063333Y-84862200D01*
X190063333Y-84862200D02*
X190158571Y-84909819D01*
X190158571Y-84909819D02*
X190301428Y-84909819D01*
X190301428Y-84909819D02*
X190396666Y-84862200D01*
X190396666Y-84862200D02*
X190444285Y-84814580D01*
X191253809Y-84386009D02*
X190920476Y-84386009D01*
X190920476Y-84909819D02*
X190920476Y-83909819D01*
X190920476Y-83909819D02*
X191396666Y-83909819D01*
X108886666Y-54572819D02*
X108886666Y-55287104D01*
X108886666Y-55287104D02*
X108839047Y-55429961D01*
X108839047Y-55429961D02*
X108743809Y-55525200D01*
X108743809Y-55525200D02*
X108600952Y-55572819D01*
X108600952Y-55572819D02*
X108505714Y-55572819D01*
X109315238Y-54668057D02*
X109362857Y-54620438D01*
X109362857Y-54620438D02*
X109458095Y-54572819D01*
X109458095Y-54572819D02*
X109696190Y-54572819D01*
X109696190Y-54572819D02*
X109791428Y-54620438D01*
X109791428Y-54620438D02*
X109839047Y-54668057D01*
X109839047Y-54668057D02*
X109886666Y-54763295D01*
X109886666Y-54763295D02*
X109886666Y-54858533D01*
X109886666Y-54858533D02*
X109839047Y-55001390D01*
X109839047Y-55001390D02*
X109267619Y-55572819D01*
X109267619Y-55572819D02*
X109886666Y-55572819D01*
X124047238Y-74633942D02*
X124142476Y-74681561D01*
X124142476Y-74681561D02*
X124237714Y-74776800D01*
X124237714Y-74776800D02*
X124380571Y-74919657D01*
X124380571Y-74919657D02*
X124475809Y-74967276D01*
X124475809Y-74967276D02*
X124571047Y-74967276D01*
X124523428Y-74729180D02*
X124618666Y-74776800D01*
X124618666Y-74776800D02*
X124713904Y-74872038D01*
X124713904Y-74872038D02*
X124761523Y-75062514D01*
X124761523Y-75062514D02*
X124761523Y-75395847D01*
X124761523Y-75395847D02*
X124713904Y-75586323D01*
X124713904Y-75586323D02*
X124618666Y-75681561D01*
X124618666Y-75681561D02*
X124523428Y-75729180D01*
X124523428Y-75729180D02*
X124332952Y-75729180D01*
X124332952Y-75729180D02*
X124237714Y-75681561D01*
X124237714Y-75681561D02*
X124142476Y-75586323D01*
X124142476Y-75586323D02*
X124094857Y-75395847D01*
X124094857Y-75395847D02*
X124094857Y-75062514D01*
X124094857Y-75062514D02*
X124142476Y-74872038D01*
X124142476Y-74872038D02*
X124237714Y-74776800D01*
X124237714Y-74776800D02*
X124332952Y-74729180D01*
X124332952Y-74729180D02*
X124523428Y-74729180D01*
X123142476Y-74729180D02*
X123713904Y-74729180D01*
X123428190Y-74729180D02*
X123428190Y-75729180D01*
X123428190Y-75729180D02*
X123523428Y-75586323D01*
X123523428Y-75586323D02*
X123618666Y-75491085D01*
X123618666Y-75491085D02*
X123713904Y-75443466D01*
X124971523Y-68155180D02*
X124971523Y-69155180D01*
X123923905Y-68155180D02*
X124257238Y-68631371D01*
X124495333Y-68155180D02*
X124495333Y-69155180D01*
X124495333Y-69155180D02*
X124114381Y-69155180D01*
X124114381Y-69155180D02*
X124019143Y-69107561D01*
X124019143Y-69107561D02*
X123971524Y-69059942D01*
X123971524Y-69059942D02*
X123923905Y-68964704D01*
X123923905Y-68964704D02*
X123923905Y-68821847D01*
X123923905Y-68821847D02*
X123971524Y-68726609D01*
X123971524Y-68726609D02*
X124019143Y-68678990D01*
X124019143Y-68678990D02*
X124114381Y-68631371D01*
X124114381Y-68631371D02*
X124495333Y-68631371D01*
X123019143Y-68155180D02*
X123495333Y-68155180D01*
X123495333Y-68155180D02*
X123495333Y-69155180D01*
X122352476Y-68678990D02*
X122209619Y-68631371D01*
X122209619Y-68631371D02*
X122162000Y-68583752D01*
X122162000Y-68583752D02*
X122114381Y-68488514D01*
X122114381Y-68488514D02*
X122114381Y-68345657D01*
X122114381Y-68345657D02*
X122162000Y-68250419D01*
X122162000Y-68250419D02*
X122209619Y-68202800D01*
X122209619Y-68202800D02*
X122304857Y-68155180D01*
X122304857Y-68155180D02*
X122685809Y-68155180D01*
X122685809Y-68155180D02*
X122685809Y-69155180D01*
X122685809Y-69155180D02*
X122352476Y-69155180D01*
X122352476Y-69155180D02*
X122257238Y-69107561D01*
X122257238Y-69107561D02*
X122209619Y-69059942D01*
X122209619Y-69059942D02*
X122162000Y-68964704D01*
X122162000Y-68964704D02*
X122162000Y-68869466D01*
X122162000Y-68869466D02*
X122209619Y-68774228D01*
X122209619Y-68774228D02*
X122257238Y-68726609D01*
X122257238Y-68726609D02*
X122352476Y-68678990D01*
X122352476Y-68678990D02*
X122685809Y-68678990D01*
X121781047Y-69155180D02*
X121162000Y-69155180D01*
X121162000Y-69155180D02*
X121495333Y-68774228D01*
X121495333Y-68774228D02*
X121352476Y-68774228D01*
X121352476Y-68774228D02*
X121257238Y-68726609D01*
X121257238Y-68726609D02*
X121209619Y-68678990D01*
X121209619Y-68678990D02*
X121162000Y-68583752D01*
X121162000Y-68583752D02*
X121162000Y-68345657D01*
X121162000Y-68345657D02*
X121209619Y-68250419D01*
X121209619Y-68250419D02*
X121257238Y-68202800D01*
X121257238Y-68202800D02*
X121352476Y-68155180D01*
X121352476Y-68155180D02*
X121638190Y-68155180D01*
X121638190Y-68155180D02*
X121733428Y-68202800D01*
X121733428Y-68202800D02*
X121781047Y-68250419D01*
X120542952Y-69155180D02*
X120447714Y-69155180D01*
X120447714Y-69155180D02*
X120352476Y-69107561D01*
X120352476Y-69107561D02*
X120304857Y-69059942D01*
X120304857Y-69059942D02*
X120257238Y-68964704D01*
X120257238Y-68964704D02*
X120209619Y-68774228D01*
X120209619Y-68774228D02*
X120209619Y-68536133D01*
X120209619Y-68536133D02*
X120257238Y-68345657D01*
X120257238Y-68345657D02*
X120304857Y-68250419D01*
X120304857Y-68250419D02*
X120352476Y-68202800D01*
X120352476Y-68202800D02*
X120447714Y-68155180D01*
X120447714Y-68155180D02*
X120542952Y-68155180D01*
X120542952Y-68155180D02*
X120638190Y-68202800D01*
X120638190Y-68202800D02*
X120685809Y-68250419D01*
X120685809Y-68250419D02*
X120733428Y-68345657D01*
X120733428Y-68345657D02*
X120781047Y-68536133D01*
X120781047Y-68536133D02*
X120781047Y-68774228D01*
X120781047Y-68774228D02*
X120733428Y-68964704D01*
X120733428Y-68964704D02*
X120685809Y-69059942D01*
X120685809Y-69059942D02*
X120638190Y-69107561D01*
X120638190Y-69107561D02*
X120542952Y-69155180D01*
X119876285Y-69155180D02*
X119257238Y-69155180D01*
X119257238Y-69155180D02*
X119590571Y-68774228D01*
X119590571Y-68774228D02*
X119447714Y-68774228D01*
X119447714Y-68774228D02*
X119352476Y-68726609D01*
X119352476Y-68726609D02*
X119304857Y-68678990D01*
X119304857Y-68678990D02*
X119257238Y-68583752D01*
X119257238Y-68583752D02*
X119257238Y-68345657D01*
X119257238Y-68345657D02*
X119304857Y-68250419D01*
X119304857Y-68250419D02*
X119352476Y-68202800D01*
X119352476Y-68202800D02*
X119447714Y-68155180D01*
X119447714Y-68155180D02*
X119733428Y-68155180D01*
X119733428Y-68155180D02*
X119828666Y-68202800D01*
X119828666Y-68202800D02*
X119876285Y-68250419D01*
X118400095Y-68821847D02*
X118400095Y-68155180D01*
X118638190Y-69202800D02*
X118876285Y-68488514D01*
X118876285Y-68488514D02*
X118257238Y-68488514D01*
X152870819Y-64007904D02*
X153680342Y-64007904D01*
X153680342Y-64007904D02*
X153775580Y-63960285D01*
X153775580Y-63960285D02*
X153823200Y-63912666D01*
X153823200Y-63912666D02*
X153870819Y-63817428D01*
X153870819Y-63817428D02*
X153870819Y-63626952D01*
X153870819Y-63626952D02*
X153823200Y-63531714D01*
X153823200Y-63531714D02*
X153775580Y-63484095D01*
X153775580Y-63484095D02*
X153680342Y-63436476D01*
X153680342Y-63436476D02*
X152870819Y-63436476D01*
X152966057Y-63007904D02*
X152918438Y-62960285D01*
X152918438Y-62960285D02*
X152870819Y-62865047D01*
X152870819Y-62865047D02*
X152870819Y-62626952D01*
X152870819Y-62626952D02*
X152918438Y-62531714D01*
X152918438Y-62531714D02*
X152966057Y-62484095D01*
X152966057Y-62484095D02*
X153061295Y-62436476D01*
X153061295Y-62436476D02*
X153156533Y-62436476D01*
X153156533Y-62436476D02*
X153299390Y-62484095D01*
X153299390Y-62484095D02*
X153870819Y-63055523D01*
X153870819Y-63055523D02*
X153870819Y-62436476D01*
%TO.C,D1*%
X129794000Y-95885000D02*
X129794000Y-97028000D01*
X129794000Y-101092000D02*
X129794000Y-102235000D01*
X129794000Y-102235000D02*
X136894000Y-102235000D01*
X131826000Y-95885000D02*
X131826000Y-102235000D01*
D11*
X131966000Y-95940000D02*
X131966000Y-102180000D01*
D10*
X132106000Y-95885000D02*
X132106000Y-102235000D01*
X136894000Y-95885000D02*
X129794000Y-95885000D01*
X136894000Y-97028000D02*
X136894000Y-95885000D01*
X136894000Y-102235000D02*
X136894000Y-101092000D01*
%TO.C,D2*%
X116713000Y-83820000D02*
X117856000Y-83820000D01*
X121920000Y-83820000D02*
X123063000Y-83820000D01*
X123063000Y-83820000D02*
X123063000Y-76720000D01*
X116713000Y-81788000D02*
X123063000Y-81788000D01*
D11*
X116768000Y-81648000D02*
X123008000Y-81648000D01*
D10*
X116713000Y-81508000D02*
X123063000Y-81508000D01*
X116713000Y-76720000D02*
X116713000Y-83820000D01*
X117856000Y-76720000D02*
X116713000Y-76720000D01*
X123063000Y-76720000D02*
X121920000Y-76720000D01*
D12*
%TO.C,C1*%
X128870000Y-92179563D02*
X128870000Y-89394000D01*
X139590000Y-82524000D02*
X139590000Y-86374000D01*
X128870000Y-83588437D02*
X129934437Y-82524000D01*
X139590000Y-93244000D02*
X139590000Y-89394000D01*
X129934437Y-82524000D02*
X139590000Y-82524000D01*
X128870000Y-92179563D02*
X129934437Y-93244000D01*
X128005000Y-84499000D02*
X128005000Y-85749000D01*
X128870000Y-83588437D02*
X128870000Y-86374000D01*
X127380000Y-85124000D02*
X128630000Y-85124000D01*
X129934437Y-93244000D02*
X139590000Y-93244000D01*
D13*
%TO.C,J4*%
X105586208Y-64983000D02*
X105586208Y-68793000D01*
X105586208Y-68793000D02*
X113384008Y-68793000D01*
X113384008Y-64983000D02*
X105586208Y-64983000D01*
X113384008Y-68793000D02*
X113384008Y-64983000D01*
D14*
X114400008Y-67310000D02*
G75*
G03*
X113638008Y-67310000I-381000J0D01*
G01*
X113638008Y-67310000D02*
G75*
G03*
X114400008Y-67310000I381000J0D01*
G01*
D13*
%TO.C,J7*%
X196691000Y-91372898D02*
X187877201Y-91372898D01*
X187877201Y-91372898D02*
X187877201Y-107451098D01*
X196691000Y-107451098D02*
X196691000Y-91372898D01*
X187877201Y-107451098D02*
X196691000Y-107451098D01*
D14*
X194945000Y-89594898D02*
G75*
G03*
X194183000Y-89594898I-381000J0D01*
G01*
X194183000Y-89594898D02*
G75*
G03*
X194945000Y-89594898I381000J0D01*
G01*
D12*
%TO.C,C5*%
X149555252Y-76036000D02*
X148132748Y-76036000D01*
X149555252Y-73316000D02*
X148132748Y-73316000D01*
%TO.C,R4*%
X130263737Y-77555000D02*
X128816263Y-77555000D01*
X130263737Y-74845000D02*
X128816263Y-74845000D01*
%TO.C,C6*%
X145434000Y-64154000D02*
X145434000Y-66504000D01*
X145434000Y-70974000D02*
X145434000Y-68624000D01*
X151189563Y-64154000D02*
X145434000Y-64154000D01*
X151189563Y-70974000D02*
X145434000Y-70974000D01*
X152254000Y-65218437D02*
X151189563Y-64154000D01*
X152254000Y-65218437D02*
X152254000Y-66504000D01*
X152254000Y-69909563D02*
X151189563Y-70974000D01*
X152254000Y-69909563D02*
X152254000Y-68624000D01*
X152887750Y-69805250D02*
X152887750Y-69017750D01*
X153281500Y-69411500D02*
X152494000Y-69411500D01*
%TO.C,R2*%
X123783000Y-61633263D02*
X123783000Y-63080737D01*
X121073000Y-61633263D02*
X121073000Y-63080737D01*
%TO.C,U1*%
X169796000Y-88516000D02*
X169796000Y-89916000D01*
X169796000Y-91186000D02*
X169796000Y-109096000D01*
X169796000Y-109096000D02*
X185296000Y-109096000D01*
X171196000Y-88516000D02*
X169796000Y-88516000D01*
X172466000Y-88516000D02*
X172466000Y-91186000D01*
X172466000Y-91186000D02*
X169796000Y-91186000D01*
X172466000Y-91186000D02*
X172466000Y-109096000D01*
X182626000Y-88516000D02*
X182626000Y-109096000D01*
X185296000Y-88516000D02*
X172466000Y-88516000D01*
X185296000Y-109096000D02*
X185296000Y-88516000D01*
%TO.C,R3*%
X119211000Y-61760263D02*
X119211000Y-63207737D01*
X116501000Y-61760263D02*
X116501000Y-63207737D01*
%TO.C,J5*%
X145482000Y-101854000D02*
X145482000Y-104454000D01*
X145482000Y-101854000D02*
X148142000Y-101854000D01*
X145482000Y-104454000D02*
X148142000Y-104454000D01*
X146812000Y-99254000D02*
X148142000Y-99254000D01*
X148142000Y-99254000D02*
X148142000Y-100584000D01*
X148142000Y-101854000D02*
X148142000Y-104454000D01*
%TO.C,R1*%
X148522000Y-89772936D02*
X148522000Y-94127064D01*
X145102000Y-89772936D02*
X145102000Y-94127064D01*
D13*
%TO.C,J8*%
X196430900Y-54637799D02*
X187617101Y-54637799D01*
X187617101Y-54637799D02*
X187617101Y-78636002D01*
X196430900Y-78636002D02*
X196430900Y-54637799D01*
X187617101Y-78636002D02*
X196430900Y-78636002D01*
D14*
X194684900Y-52859799D02*
G75*
G03*
X193922900Y-52859799I-381000J0D01*
G01*
X193922900Y-52859799D02*
G75*
G03*
X194684900Y-52859799I381000J0D01*
G01*
D12*
%TO.C,F1*%
X121650000Y-92100000D02*
X118450000Y-92100000D01*
X121650000Y-92100000D02*
X121650000Y-94371000D01*
X118450000Y-92100000D02*
X118450000Y-99472000D01*
X121650000Y-96129000D02*
X121650000Y-103500000D01*
X118450000Y-101229000D02*
X118450000Y-103500000D01*
X121650000Y-103500000D02*
X118450000Y-103500000D01*
D13*
%TO.C,J1*%
X105397300Y-82842100D02*
X114160300Y-82842100D01*
X114160300Y-82842100D02*
X114160300Y-74739500D01*
X105397300Y-74739500D02*
X105397300Y-82842100D01*
X114160300Y-74739500D02*
X105397300Y-74739500D01*
D14*
X104940100Y-80772000D02*
G75*
G03*
X104432100Y-80772000I-254000J0D01*
G01*
X104432100Y-80772000D02*
G75*
G03*
X104940100Y-80772000I254000J0D01*
G01*
D12*
%TO.C,C3*%
X170172500Y-77412500D02*
X169385000Y-77412500D01*
X169778750Y-77806250D02*
X169778750Y-77018750D01*
X169145000Y-77910563D02*
X169145000Y-76625000D01*
X169145000Y-77910563D02*
X168080563Y-78975000D01*
X169145000Y-73219437D02*
X169145000Y-74505000D01*
X169145000Y-73219437D02*
X168080563Y-72155000D01*
X168080563Y-78975000D02*
X162325000Y-78975000D01*
X168080563Y-72155000D02*
X162325000Y-72155000D01*
X162325000Y-78975000D02*
X162325000Y-76625000D01*
X162325000Y-72155000D02*
X162325000Y-74505000D01*
D13*
%TO.C,J3*%
X126796099Y-60157000D02*
X126796099Y-63916200D01*
X126796099Y-63916200D02*
X131545899Y-63916200D01*
X131545899Y-60157000D02*
X126796099Y-60157000D01*
X131545899Y-63916200D02*
X131545899Y-60157000D01*
D14*
X125399099Y-62484000D02*
G75*
G03*
X124637099Y-62484000I-381000J0D01*
G01*
X124637099Y-62484000D02*
G75*
G03*
X125399099Y-62484000I381000J0D01*
G01*
D12*
%TO.C,J6*%
X113320000Y-92650000D02*
X105120000Y-92650000D01*
X105120000Y-92650000D02*
X105120000Y-102850000D01*
X105120000Y-102850000D02*
X113320000Y-102850000D01*
X113320000Y-102850000D02*
X113320000Y-92650000D01*
%TO.C,J9*%
X139460000Y-58070000D02*
X139160000Y-58670000D01*
X138860000Y-58070000D02*
X139460000Y-58070000D01*
X139160000Y-58670000D02*
X138860000Y-58070000D01*
X140770000Y-58870000D02*
X135550000Y-58870000D01*
X138060000Y-58870000D02*
X138060000Y-59730000D01*
X137260000Y-58870000D02*
X137260000Y-59730000D01*
X135550000Y-58870000D02*
X135550000Y-76990000D01*
X140260000Y-59730000D02*
X136060000Y-59730000D01*
X136060000Y-59730000D02*
X136060000Y-76130000D01*
X135550000Y-60900000D02*
X136060000Y-60900000D01*
X140770000Y-61460000D02*
X140260000Y-61460000D01*
X140770000Y-62400000D02*
X140260000Y-62400000D01*
X135550000Y-62400000D02*
X136060000Y-62400000D01*
X140770000Y-73460000D02*
X140260000Y-73460000D01*
X135550000Y-73460000D02*
X136060000Y-73460000D01*
X140770000Y-74400000D02*
X140260000Y-74400000D01*
X135550000Y-74960000D02*
X136060000Y-74960000D01*
X140260000Y-76130000D02*
X140260000Y-59730000D01*
X136060000Y-76130000D02*
X140260000Y-76130000D01*
X140770000Y-76990000D02*
X140770000Y-58870000D01*
X138060000Y-76990000D02*
X138060000Y-76130000D01*
X137260000Y-76990000D02*
X137260000Y-76130000D01*
X135550000Y-76990000D02*
X140770000Y-76990000D01*
%TO.C,C4*%
X172643748Y-75655000D02*
X174066252Y-75655000D01*
X172643748Y-72935000D02*
X174066252Y-72935000D01*
%TO.C,C2*%
X174134000Y-79028000D02*
X175384000Y-79028000D01*
X174759000Y-78403000D02*
X174759000Y-79653000D01*
X175624000Y-77492437D02*
X175624000Y-80278000D01*
X175624000Y-77492437D02*
X176688437Y-76428000D01*
X175624000Y-86083563D02*
X175624000Y-83298000D01*
X175624000Y-86083563D02*
X176688437Y-87148000D01*
X176688437Y-76428000D02*
X186344000Y-76428000D01*
X176688437Y-87148000D02*
X186344000Y-87148000D01*
X186344000Y-76428000D02*
X186344000Y-80278000D01*
X186344000Y-87148000D02*
X186344000Y-83298000D01*
D13*
%TO.C,J2*%
X105586208Y-56093000D02*
X105586208Y-59903000D01*
X105586208Y-59903000D02*
X113384008Y-59903000D01*
X113384008Y-56093000D02*
X105586208Y-56093000D01*
X113384008Y-59903000D02*
X113384008Y-56093000D01*
D14*
X114400008Y-58420000D02*
G75*
G03*
X113638008Y-58420000I-381000J0D01*
G01*
X113638008Y-58420000D02*
G75*
G03*
X114400008Y-58420000I381000J0D01*
G01*
D12*
%TO.C,Q1*%
X126532000Y-74390000D02*
X126532000Y-69749000D01*
X126532000Y-74390000D02*
X116292000Y-74390000D01*
X126532000Y-72880000D02*
X116292000Y-72880000D01*
X126532000Y-69749000D02*
X116292000Y-69749000D01*
X123262000Y-74390000D02*
X123262000Y-72880000D01*
X119561000Y-74390000D02*
X119561000Y-72880000D01*
X116292000Y-74390000D02*
X116292000Y-69749000D01*
%TO.C,U2*%
X154556000Y-70996000D02*
X155956000Y-70996000D01*
X157226000Y-70996000D02*
X175136000Y-70996000D01*
X175136000Y-70996000D02*
X175136000Y-55496000D01*
X154556000Y-69596000D02*
X154556000Y-70996000D01*
X154556000Y-68326000D02*
X157226000Y-68326000D01*
X157226000Y-68326000D02*
X157226000Y-70996000D01*
X157226000Y-68326000D02*
X175136000Y-68326000D01*
X154556000Y-58166000D02*
X175136000Y-58166000D01*
X154556000Y-55496000D02*
X154556000Y-68326000D01*
X175136000Y-55496000D02*
X154556000Y-55496000D01*
%TD*%
M02*
