%TF.GenerationSoftware,KiCad,Pcbnew,7.0.10*%
%TF.CreationDate,2024-02-20T10:07:26+01:00*%
%TF.ProjectId,arenaPCBv1,6172656e-6150-4434-9276-312e6b696361,rev?*%
%TF.SameCoordinates,Original*%
%TF.FileFunction,Soldermask,Bot*%
%TF.FilePolarity,Negative*%
%FSLAX46Y46*%
G04 Gerber Fmt 4.6, Leading zero omitted, Abs format (unit mm)*
G04 Created by KiCad (PCBNEW 7.0.10) date 2024-02-20 10:07:26*
%MOMM*%
%LPD*%
G01*
G04 APERTURE LIST*
G04 Aperture macros list*
%AMRoundRect*
0 Rectangle with rounded corners*
0 $1 Rounding radius*
0 $2 $3 $4 $5 $6 $7 $8 $9 X,Y pos of 4 corners*
0 Add a 4 corners polygon primitive as box body*
4,1,4,$2,$3,$4,$5,$6,$7,$8,$9,$2,$3,0*
0 Add four circle primitives for the rounded corners*
1,1,$1+$1,$2,$3*
1,1,$1+$1,$4,$5*
1,1,$1+$1,$6,$7*
1,1,$1+$1,$8,$9*
0 Add four rect primitives between the rounded corners*
20,1,$1+$1,$2,$3,$4,$5,0*
20,1,$1+$1,$4,$5,$6,$7,0*
20,1,$1+$1,$6,$7,$8,$9,0*
20,1,$1+$1,$8,$9,$2,$3,0*%
G04 Aperture macros list end*
%ADD10C,3.800000*%
%ADD11C,1.320800*%
%ADD12C,2.260600*%
%ADD13R,1.600000X1.600000*%
%ADD14O,1.600000X1.600000*%
%ADD15R,1.700000X1.700000*%
%ADD16O,1.700000X1.700000*%
%ADD17C,2.010000*%
%ADD18C,2.159000*%
%ADD19C,1.244600*%
%ADD20C,1.270000*%
%ADD21RoundRect,0.250000X-0.350000X0.350000X-0.350000X-0.350000X0.350000X-0.350000X0.350000X0.350000X0*%
%ADD22C,1.200000*%
%ADD23R,1.905000X2.000000*%
%ADD24O,1.905000X2.000000*%
G04 APERTURE END LIST*
D10*
%TO.C,M.2*%
X102870000Y-53340000D03*
%TD*%
D11*
%TO.C,J4*%
X111760000Y-67310000D03*
X110260001Y-67310000D03*
X108759999Y-67310000D03*
X107259999Y-67310000D03*
%TD*%
D10*
%TO.C,M.2*%
X200660000Y-109220000D03*
%TD*%
D12*
%TO.C,J7*%
X194564000Y-93472000D03*
X194564000Y-97432000D03*
X194564000Y-101391999D03*
X194564000Y-105351999D03*
%TD*%
D13*
%TO.C,U1*%
X171196000Y-89916000D03*
D14*
X171196000Y-92456000D03*
X171196000Y-94996000D03*
X171196000Y-97536000D03*
X171196000Y-100076000D03*
X171196000Y-102616000D03*
X171196000Y-105156000D03*
X171196000Y-107696000D03*
X183896000Y-107696000D03*
X183896000Y-105156000D03*
X183896000Y-102616000D03*
X183896000Y-100076000D03*
X183896000Y-97536000D03*
X183896000Y-94996000D03*
X183896000Y-92456000D03*
X183896000Y-89916000D03*
%TD*%
D10*
%TO.C,M.2*%
X102870000Y-109220000D03*
%TD*%
D15*
%TO.C,J5*%
X146812000Y-100584000D03*
D16*
X146812000Y-103124000D03*
%TD*%
D12*
%TO.C,J8*%
X194303900Y-56736901D03*
X194303900Y-60696901D03*
X194303900Y-64656900D03*
X194303900Y-68616900D03*
X194303900Y-72576900D03*
X194303900Y-76536900D03*
%TD*%
D17*
%TO.C,F1*%
X120650000Y-95250000D03*
X119450000Y-100350000D03*
%TD*%
D18*
%TO.C,J1*%
X109220000Y-80772000D03*
X109220000Y-76809600D03*
%TD*%
D19*
%TO.C,J3*%
X128420998Y-62484000D03*
X129921000Y-62484000D03*
%TD*%
D10*
%TO.C,M.2*%
X200660000Y-53340000D03*
%TD*%
D20*
%TO.C,J6*%
X109220000Y-95250000D03*
X109220000Y-100250000D03*
%TD*%
D21*
%TO.C,J9*%
X139160000Y-60930000D03*
D22*
X137160000Y-60930000D03*
X139160000Y-62930000D03*
X137160000Y-62930000D03*
X139160000Y-64930000D03*
X137160000Y-64930000D03*
X139160000Y-66930000D03*
X137160000Y-66930000D03*
X139160000Y-68930000D03*
X137160000Y-68930000D03*
X139160000Y-70930000D03*
X137160000Y-70930000D03*
X139160000Y-72930000D03*
X137160000Y-72930000D03*
X139160000Y-74930000D03*
X137160000Y-74930000D03*
%TD*%
D11*
%TO.C,J2*%
X111760000Y-58420000D03*
X110260001Y-58420000D03*
X108759999Y-58420000D03*
X107259999Y-58420000D03*
%TD*%
D23*
%TO.C,Q1*%
X123952000Y-71120000D03*
D24*
X121412000Y-71120000D03*
X118872000Y-71120000D03*
%TD*%
D13*
%TO.C,U2*%
X155956000Y-69596000D03*
D14*
X158496000Y-69596000D03*
X161036000Y-69596000D03*
X163576000Y-69596000D03*
X166116000Y-69596000D03*
X168656000Y-69596000D03*
X171196000Y-69596000D03*
X173736000Y-69596000D03*
X173736000Y-56896000D03*
X171196000Y-56896000D03*
X168656000Y-56896000D03*
X166116000Y-56896000D03*
X163576000Y-56896000D03*
X161036000Y-56896000D03*
X158496000Y-56896000D03*
X155956000Y-56896000D03*
%TD*%
M02*
