%TF.GenerationSoftware,KiCad,Pcbnew,7.0.10*%
%TF.CreationDate,2024-02-16T16:08:38+01:00*%
%TF.ProjectId,arenaPCBv1,6172656e-6150-4434-9276-312e6b696361,rev?*%
%TF.SameCoordinates,Original*%
%TF.FileFunction,Legend,Top*%
%TF.FilePolarity,Positive*%
%FSLAX46Y46*%
G04 Gerber Fmt 4.6, Leading zero omitted, Abs format (unit mm)*
G04 Created by KiCad (PCBNEW 7.0.10) date 2024-02-16 16:08:38*
%MOMM*%
%LPD*%
G01*
G04 APERTURE LIST*
%ADD10C,0.150000*%
%ADD11C,0.508000*%
%ADD12C,0.152400*%
%ADD13C,0.120000*%
G04 APERTURE END LIST*
D10*
X155673588Y-103501819D02*
X155102160Y-103501819D01*
X155387874Y-103501819D02*
X155387874Y-102501819D01*
X155387874Y-102501819D02*
X155292636Y-102644676D01*
X155292636Y-102644676D02*
X155197398Y-102739914D01*
X155197398Y-102739914D02*
X155102160Y-102787533D01*
X156530731Y-102501819D02*
X156340255Y-102501819D01*
X156340255Y-102501819D02*
X156245017Y-102549438D01*
X156245017Y-102549438D02*
X156197398Y-102597057D01*
X156197398Y-102597057D02*
X156102160Y-102739914D01*
X156102160Y-102739914D02*
X156054541Y-102930390D01*
X156054541Y-102930390D02*
X156054541Y-103311342D01*
X156054541Y-103311342D02*
X156102160Y-103406580D01*
X156102160Y-103406580D02*
X156149779Y-103454200D01*
X156149779Y-103454200D02*
X156245017Y-103501819D01*
X156245017Y-103501819D02*
X156435493Y-103501819D01*
X156435493Y-103501819D02*
X156530731Y-103454200D01*
X156530731Y-103454200D02*
X156578350Y-103406580D01*
X156578350Y-103406580D02*
X156625969Y-103311342D01*
X156625969Y-103311342D02*
X156625969Y-103073247D01*
X156625969Y-103073247D02*
X156578350Y-102978009D01*
X156578350Y-102978009D02*
X156530731Y-102930390D01*
X156530731Y-102930390D02*
X156435493Y-102882771D01*
X156435493Y-102882771D02*
X156245017Y-102882771D01*
X156245017Y-102882771D02*
X156149779Y-102930390D01*
X156149779Y-102930390D02*
X156102160Y-102978009D01*
X156102160Y-102978009D02*
X156054541Y-103073247D01*
X157768826Y-102454200D02*
X156911684Y-103739914D01*
X158292636Y-102501819D02*
X158387874Y-102501819D01*
X158387874Y-102501819D02*
X158483112Y-102549438D01*
X158483112Y-102549438D02*
X158530731Y-102597057D01*
X158530731Y-102597057D02*
X158578350Y-102692295D01*
X158578350Y-102692295D02*
X158625969Y-102882771D01*
X158625969Y-102882771D02*
X158625969Y-103120866D01*
X158625969Y-103120866D02*
X158578350Y-103311342D01*
X158578350Y-103311342D02*
X158530731Y-103406580D01*
X158530731Y-103406580D02*
X158483112Y-103454200D01*
X158483112Y-103454200D02*
X158387874Y-103501819D01*
X158387874Y-103501819D02*
X158292636Y-103501819D01*
X158292636Y-103501819D02*
X158197398Y-103454200D01*
X158197398Y-103454200D02*
X158149779Y-103406580D01*
X158149779Y-103406580D02*
X158102160Y-103311342D01*
X158102160Y-103311342D02*
X158054541Y-103120866D01*
X158054541Y-103120866D02*
X158054541Y-102882771D01*
X158054541Y-102882771D02*
X158102160Y-102692295D01*
X158102160Y-102692295D02*
X158149779Y-102597057D01*
X158149779Y-102597057D02*
X158197398Y-102549438D01*
X158197398Y-102549438D02*
X158292636Y-102501819D01*
X159006922Y-102597057D02*
X159054541Y-102549438D01*
X159054541Y-102549438D02*
X159149779Y-102501819D01*
X159149779Y-102501819D02*
X159387874Y-102501819D01*
X159387874Y-102501819D02*
X159483112Y-102549438D01*
X159483112Y-102549438D02*
X159530731Y-102597057D01*
X159530731Y-102597057D02*
X159578350Y-102692295D01*
X159578350Y-102692295D02*
X159578350Y-102787533D01*
X159578350Y-102787533D02*
X159530731Y-102930390D01*
X159530731Y-102930390D02*
X158959303Y-103501819D01*
X158959303Y-103501819D02*
X159578350Y-103501819D01*
X160721207Y-102454200D02*
X159864065Y-103739914D01*
X161006922Y-102597057D02*
X161054541Y-102549438D01*
X161054541Y-102549438D02*
X161149779Y-102501819D01*
X161149779Y-102501819D02*
X161387874Y-102501819D01*
X161387874Y-102501819D02*
X161483112Y-102549438D01*
X161483112Y-102549438D02*
X161530731Y-102597057D01*
X161530731Y-102597057D02*
X161578350Y-102692295D01*
X161578350Y-102692295D02*
X161578350Y-102787533D01*
X161578350Y-102787533D02*
X161530731Y-102930390D01*
X161530731Y-102930390D02*
X160959303Y-103501819D01*
X160959303Y-103501819D02*
X161578350Y-103501819D01*
X162197398Y-102501819D02*
X162292636Y-102501819D01*
X162292636Y-102501819D02*
X162387874Y-102549438D01*
X162387874Y-102549438D02*
X162435493Y-102597057D01*
X162435493Y-102597057D02*
X162483112Y-102692295D01*
X162483112Y-102692295D02*
X162530731Y-102882771D01*
X162530731Y-102882771D02*
X162530731Y-103120866D01*
X162530731Y-103120866D02*
X162483112Y-103311342D01*
X162483112Y-103311342D02*
X162435493Y-103406580D01*
X162435493Y-103406580D02*
X162387874Y-103454200D01*
X162387874Y-103454200D02*
X162292636Y-103501819D01*
X162292636Y-103501819D02*
X162197398Y-103501819D01*
X162197398Y-103501819D02*
X162102160Y-103454200D01*
X162102160Y-103454200D02*
X162054541Y-103406580D01*
X162054541Y-103406580D02*
X162006922Y-103311342D01*
X162006922Y-103311342D02*
X161959303Y-103120866D01*
X161959303Y-103120866D02*
X161959303Y-102882771D01*
X161959303Y-102882771D02*
X162006922Y-102692295D01*
X162006922Y-102692295D02*
X162054541Y-102597057D01*
X162054541Y-102597057D02*
X162102160Y-102549438D01*
X162102160Y-102549438D02*
X162197398Y-102501819D01*
X162911684Y-102597057D02*
X162959303Y-102549438D01*
X162959303Y-102549438D02*
X163054541Y-102501819D01*
X163054541Y-102501819D02*
X163292636Y-102501819D01*
X163292636Y-102501819D02*
X163387874Y-102549438D01*
X163387874Y-102549438D02*
X163435493Y-102597057D01*
X163435493Y-102597057D02*
X163483112Y-102692295D01*
X163483112Y-102692295D02*
X163483112Y-102787533D01*
X163483112Y-102787533D02*
X163435493Y-102930390D01*
X163435493Y-102930390D02*
X162864065Y-103501819D01*
X162864065Y-103501819D02*
X163483112Y-103501819D01*
X164340255Y-102835152D02*
X164340255Y-103501819D01*
X164102160Y-102454200D02*
X163864065Y-103168485D01*
X163864065Y-103168485D02*
X164483112Y-103168485D01*
X152228779Y-100723819D02*
X152228779Y-101533342D01*
X152228779Y-101533342D02*
X152276398Y-101628580D01*
X152276398Y-101628580D02*
X152324017Y-101676200D01*
X152324017Y-101676200D02*
X152419255Y-101723819D01*
X152419255Y-101723819D02*
X152609731Y-101723819D01*
X152609731Y-101723819D02*
X152704969Y-101676200D01*
X152704969Y-101676200D02*
X152752588Y-101628580D01*
X152752588Y-101628580D02*
X152800207Y-101533342D01*
X152800207Y-101533342D02*
X152800207Y-100723819D01*
X153276398Y-101723819D02*
X153276398Y-100723819D01*
X153704969Y-101438104D02*
X154181159Y-101438104D01*
X153609731Y-101723819D02*
X153943064Y-100723819D01*
X153943064Y-100723819D02*
X154276397Y-101723819D01*
X155324017Y-101438104D02*
X155800207Y-101438104D01*
X155228779Y-101723819D02*
X155562112Y-100723819D01*
X155562112Y-100723819D02*
X155895445Y-101723819D01*
X156228779Y-101723819D02*
X156228779Y-100723819D01*
X157466874Y-101723819D02*
X157466874Y-100723819D01*
X157466874Y-100723819D02*
X157704969Y-100723819D01*
X157704969Y-100723819D02*
X157847826Y-100771438D01*
X157847826Y-100771438D02*
X157943064Y-100866676D01*
X157943064Y-100866676D02*
X157990683Y-100961914D01*
X157990683Y-100961914D02*
X158038302Y-101152390D01*
X158038302Y-101152390D02*
X158038302Y-101295247D01*
X158038302Y-101295247D02*
X157990683Y-101485723D01*
X157990683Y-101485723D02*
X157943064Y-101580961D01*
X157943064Y-101580961D02*
X157847826Y-101676200D01*
X157847826Y-101676200D02*
X157704969Y-101723819D01*
X157704969Y-101723819D02*
X157466874Y-101723819D01*
X159038302Y-101723819D02*
X158704969Y-101247628D01*
X158466874Y-101723819D02*
X158466874Y-100723819D01*
X158466874Y-100723819D02*
X158847826Y-100723819D01*
X158847826Y-100723819D02*
X158943064Y-100771438D01*
X158943064Y-100771438D02*
X158990683Y-100819057D01*
X158990683Y-100819057D02*
X159038302Y-100914295D01*
X159038302Y-100914295D02*
X159038302Y-101057152D01*
X159038302Y-101057152D02*
X158990683Y-101152390D01*
X158990683Y-101152390D02*
X158943064Y-101200009D01*
X158943064Y-101200009D02*
X158847826Y-101247628D01*
X158847826Y-101247628D02*
X158466874Y-101247628D01*
X159657350Y-100723819D02*
X159847826Y-100723819D01*
X159847826Y-100723819D02*
X159943064Y-100771438D01*
X159943064Y-100771438D02*
X160038302Y-100866676D01*
X160038302Y-100866676D02*
X160085921Y-101057152D01*
X160085921Y-101057152D02*
X160085921Y-101390485D01*
X160085921Y-101390485D02*
X160038302Y-101580961D01*
X160038302Y-101580961D02*
X159943064Y-101676200D01*
X159943064Y-101676200D02*
X159847826Y-101723819D01*
X159847826Y-101723819D02*
X159657350Y-101723819D01*
X159657350Y-101723819D02*
X159562112Y-101676200D01*
X159562112Y-101676200D02*
X159466874Y-101580961D01*
X159466874Y-101580961D02*
X159419255Y-101390485D01*
X159419255Y-101390485D02*
X159419255Y-101057152D01*
X159419255Y-101057152D02*
X159466874Y-100866676D01*
X159466874Y-100866676D02*
X159562112Y-100771438D01*
X159562112Y-100771438D02*
X159657350Y-100723819D01*
X160514493Y-101723819D02*
X160514493Y-100723819D01*
X160514493Y-100723819D02*
X161085921Y-101723819D01*
X161085921Y-101723819D02*
X161085921Y-100723819D01*
X161562112Y-101200009D02*
X161895445Y-101200009D01*
X162038302Y-101723819D02*
X161562112Y-101723819D01*
X161562112Y-101723819D02*
X161562112Y-100723819D01*
X161562112Y-100723819D02*
X162038302Y-100723819D01*
X163181160Y-101438104D02*
X163657350Y-101438104D01*
X163085922Y-101723819D02*
X163419255Y-100723819D01*
X163419255Y-100723819D02*
X163752588Y-101723819D01*
X164657350Y-101723819D02*
X164324017Y-101247628D01*
X164085922Y-101723819D02*
X164085922Y-100723819D01*
X164085922Y-100723819D02*
X164466874Y-100723819D01*
X164466874Y-100723819D02*
X164562112Y-100771438D01*
X164562112Y-100771438D02*
X164609731Y-100819057D01*
X164609731Y-100819057D02*
X164657350Y-100914295D01*
X164657350Y-100914295D02*
X164657350Y-101057152D01*
X164657350Y-101057152D02*
X164609731Y-101152390D01*
X164609731Y-101152390D02*
X164562112Y-101200009D01*
X164562112Y-101200009D02*
X164466874Y-101247628D01*
X164466874Y-101247628D02*
X164085922Y-101247628D01*
X165085922Y-101200009D02*
X165419255Y-101200009D01*
X165562112Y-101723819D02*
X165085922Y-101723819D01*
X165085922Y-101723819D02*
X165085922Y-100723819D01*
X165085922Y-100723819D02*
X165562112Y-100723819D01*
X165990684Y-101723819D02*
X165990684Y-100723819D01*
X165990684Y-100723819D02*
X166562112Y-101723819D01*
X166562112Y-101723819D02*
X166562112Y-100723819D01*
X166990684Y-101438104D02*
X167466874Y-101438104D01*
X166895446Y-101723819D02*
X167228779Y-100723819D01*
X167228779Y-100723819D02*
X167562112Y-101723819D01*
X132496160Y-75387200D02*
X132639017Y-75434819D01*
X132639017Y-75434819D02*
X132877112Y-75434819D01*
X132877112Y-75434819D02*
X132972350Y-75387200D01*
X132972350Y-75387200D02*
X133019969Y-75339580D01*
X133019969Y-75339580D02*
X133067588Y-75244342D01*
X133067588Y-75244342D02*
X133067588Y-75149104D01*
X133067588Y-75149104D02*
X133019969Y-75053866D01*
X133019969Y-75053866D02*
X132972350Y-75006247D01*
X132972350Y-75006247D02*
X132877112Y-74958628D01*
X132877112Y-74958628D02*
X132686636Y-74911009D01*
X132686636Y-74911009D02*
X132591398Y-74863390D01*
X132591398Y-74863390D02*
X132543779Y-74815771D01*
X132543779Y-74815771D02*
X132496160Y-74720533D01*
X132496160Y-74720533D02*
X132496160Y-74625295D01*
X132496160Y-74625295D02*
X132543779Y-74530057D01*
X132543779Y-74530057D02*
X132591398Y-74482438D01*
X132591398Y-74482438D02*
X132686636Y-74434819D01*
X132686636Y-74434819D02*
X132924731Y-74434819D01*
X132924731Y-74434819D02*
X133067588Y-74482438D01*
X134067588Y-75339580D02*
X134019969Y-75387200D01*
X134019969Y-75387200D02*
X133877112Y-75434819D01*
X133877112Y-75434819D02*
X133781874Y-75434819D01*
X133781874Y-75434819D02*
X133639017Y-75387200D01*
X133639017Y-75387200D02*
X133543779Y-75291961D01*
X133543779Y-75291961D02*
X133496160Y-75196723D01*
X133496160Y-75196723D02*
X133448541Y-75006247D01*
X133448541Y-75006247D02*
X133448541Y-74863390D01*
X133448541Y-74863390D02*
X133496160Y-74672914D01*
X133496160Y-74672914D02*
X133543779Y-74577676D01*
X133543779Y-74577676D02*
X133639017Y-74482438D01*
X133639017Y-74482438D02*
X133781874Y-74434819D01*
X133781874Y-74434819D02*
X133877112Y-74434819D01*
X133877112Y-74434819D02*
X134019969Y-74482438D01*
X134019969Y-74482438D02*
X134067588Y-74530057D01*
X134972350Y-75434819D02*
X134496160Y-75434819D01*
X134496160Y-75434819D02*
X134496160Y-74434819D01*
X134353445Y-73498057D02*
X134258207Y-73450438D01*
X134258207Y-73450438D02*
X134162969Y-73355200D01*
X134162969Y-73355200D02*
X134020112Y-73212342D01*
X134020112Y-73212342D02*
X133924874Y-73164723D01*
X133924874Y-73164723D02*
X133829636Y-73164723D01*
X133877255Y-73402819D02*
X133782017Y-73355200D01*
X133782017Y-73355200D02*
X133686779Y-73259961D01*
X133686779Y-73259961D02*
X133639160Y-73069485D01*
X133639160Y-73069485D02*
X133639160Y-72736152D01*
X133639160Y-72736152D02*
X133686779Y-72545676D01*
X133686779Y-72545676D02*
X133782017Y-72450438D01*
X133782017Y-72450438D02*
X133877255Y-72402819D01*
X133877255Y-72402819D02*
X134067731Y-72402819D01*
X134067731Y-72402819D02*
X134162969Y-72450438D01*
X134162969Y-72450438D02*
X134258207Y-72545676D01*
X134258207Y-72545676D02*
X134305826Y-72736152D01*
X134305826Y-72736152D02*
X134305826Y-73069485D01*
X134305826Y-73069485D02*
X134258207Y-73259961D01*
X134258207Y-73259961D02*
X134162969Y-73355200D01*
X134162969Y-73355200D02*
X134067731Y-73402819D01*
X134067731Y-73402819D02*
X133877255Y-73402819D01*
X134734398Y-73402819D02*
X134734398Y-72402819D01*
X131654779Y-71243819D02*
X131654779Y-70243819D01*
X131654779Y-70720009D02*
X132226207Y-70720009D01*
X132226207Y-71243819D02*
X132226207Y-70243819D01*
X132654779Y-70958104D02*
X133130969Y-70958104D01*
X132559541Y-71243819D02*
X132892874Y-70243819D01*
X132892874Y-70243819D02*
X133226207Y-71243819D01*
X134035731Y-71243819D02*
X133559541Y-71243819D01*
X133559541Y-71243819D02*
X133559541Y-70243819D01*
X134892874Y-71243819D02*
X134321446Y-71243819D01*
X134607160Y-71243819D02*
X134607160Y-70243819D01*
X134607160Y-70243819D02*
X134511922Y-70386676D01*
X134511922Y-70386676D02*
X134416684Y-70481914D01*
X134416684Y-70481914D02*
X134321446Y-70529533D01*
X131861160Y-69180104D02*
X132337350Y-69180104D01*
X131765922Y-69465819D02*
X132099255Y-68465819D01*
X132099255Y-68465819D02*
X132432588Y-69465819D01*
X132765922Y-69465819D02*
X132765922Y-68465819D01*
X133242112Y-69465819D02*
X133242112Y-68465819D01*
X133242112Y-68465819D02*
X133813540Y-69465819D01*
X133813540Y-69465819D02*
X133813540Y-68465819D01*
X134242112Y-68561057D02*
X134289731Y-68513438D01*
X134289731Y-68513438D02*
X134384969Y-68465819D01*
X134384969Y-68465819D02*
X134623064Y-68465819D01*
X134623064Y-68465819D02*
X134718302Y-68513438D01*
X134718302Y-68513438D02*
X134765921Y-68561057D01*
X134765921Y-68561057D02*
X134813540Y-68656295D01*
X134813540Y-68656295D02*
X134813540Y-68751533D01*
X134813540Y-68751533D02*
X134765921Y-68894390D01*
X134765921Y-68894390D02*
X134194493Y-69465819D01*
X134194493Y-69465819D02*
X134813540Y-69465819D01*
X131146779Y-67433819D02*
X131146779Y-66433819D01*
X131146779Y-66433819D02*
X131527731Y-66433819D01*
X131527731Y-66433819D02*
X131622969Y-66481438D01*
X131622969Y-66481438D02*
X131670588Y-66529057D01*
X131670588Y-66529057D02*
X131718207Y-66624295D01*
X131718207Y-66624295D02*
X131718207Y-66767152D01*
X131718207Y-66767152D02*
X131670588Y-66862390D01*
X131670588Y-66862390D02*
X131622969Y-66910009D01*
X131622969Y-66910009D02*
X131527731Y-66957628D01*
X131527731Y-66957628D02*
X131146779Y-66957628D01*
X132051541Y-66433819D02*
X132289636Y-67433819D01*
X132289636Y-67433819D02*
X132480112Y-66719533D01*
X132480112Y-66719533D02*
X132670588Y-67433819D01*
X132670588Y-67433819D02*
X132908684Y-66433819D01*
X133289636Y-67433819D02*
X133289636Y-66433819D01*
X133289636Y-66433819D02*
X133622969Y-67148104D01*
X133622969Y-67148104D02*
X133956302Y-66433819D01*
X133956302Y-66433819D02*
X133956302Y-67433819D01*
X134384874Y-67148104D02*
X134861064Y-67148104D01*
X134289636Y-67433819D02*
X134622969Y-66433819D01*
X134622969Y-66433819D02*
X134956302Y-67433819D01*
X132416779Y-65401819D02*
X132416779Y-64401819D01*
X132416779Y-64401819D02*
X132750112Y-65116104D01*
X132750112Y-65116104D02*
X133083445Y-64401819D01*
X133083445Y-64401819D02*
X133083445Y-65401819D01*
X133512017Y-65354200D02*
X133654874Y-65401819D01*
X133654874Y-65401819D02*
X133892969Y-65401819D01*
X133892969Y-65401819D02*
X133988207Y-65354200D01*
X133988207Y-65354200D02*
X134035826Y-65306580D01*
X134035826Y-65306580D02*
X134083445Y-65211342D01*
X134083445Y-65211342D02*
X134083445Y-65116104D01*
X134083445Y-65116104D02*
X134035826Y-65020866D01*
X134035826Y-65020866D02*
X133988207Y-64973247D01*
X133988207Y-64973247D02*
X133892969Y-64925628D01*
X133892969Y-64925628D02*
X133702493Y-64878009D01*
X133702493Y-64878009D02*
X133607255Y-64830390D01*
X133607255Y-64830390D02*
X133559636Y-64782771D01*
X133559636Y-64782771D02*
X133512017Y-64687533D01*
X133512017Y-64687533D02*
X133512017Y-64592295D01*
X133512017Y-64592295D02*
X133559636Y-64497057D01*
X133559636Y-64497057D02*
X133607255Y-64449438D01*
X133607255Y-64449438D02*
X133702493Y-64401819D01*
X133702493Y-64401819D02*
X133940588Y-64401819D01*
X133940588Y-64401819D02*
X134083445Y-64449438D01*
X134464398Y-64497057D02*
X134512017Y-64449438D01*
X134512017Y-64449438D02*
X134607255Y-64401819D01*
X134607255Y-64401819D02*
X134845350Y-64401819D01*
X134845350Y-64401819D02*
X134940588Y-64449438D01*
X134940588Y-64449438D02*
X134988207Y-64497057D01*
X134988207Y-64497057D02*
X135035826Y-64592295D01*
X135035826Y-64592295D02*
X135035826Y-64687533D01*
X135035826Y-64687533D02*
X134988207Y-64830390D01*
X134988207Y-64830390D02*
X134416779Y-65401819D01*
X134416779Y-65401819D02*
X135035826Y-65401819D01*
X132924779Y-63369819D02*
X132924779Y-62369819D01*
X132924779Y-62369819D02*
X133162874Y-62369819D01*
X133162874Y-62369819D02*
X133305731Y-62417438D01*
X133305731Y-62417438D02*
X133400969Y-62512676D01*
X133400969Y-62512676D02*
X133448588Y-62607914D01*
X133448588Y-62607914D02*
X133496207Y-62798390D01*
X133496207Y-62798390D02*
X133496207Y-62941247D01*
X133496207Y-62941247D02*
X133448588Y-63131723D01*
X133448588Y-63131723D02*
X133400969Y-63226961D01*
X133400969Y-63226961D02*
X133305731Y-63322200D01*
X133305731Y-63322200D02*
X133162874Y-63369819D01*
X133162874Y-63369819D02*
X132924779Y-63369819D01*
X133924779Y-63369819D02*
X133924779Y-62369819D01*
X134972397Y-63369819D02*
X134639064Y-62893628D01*
X134400969Y-63369819D02*
X134400969Y-62369819D01*
X134400969Y-62369819D02*
X134781921Y-62369819D01*
X134781921Y-62369819D02*
X134877159Y-62417438D01*
X134877159Y-62417438D02*
X134924778Y-62465057D01*
X134924778Y-62465057D02*
X134972397Y-62560295D01*
X134972397Y-62560295D02*
X134972397Y-62703152D01*
X134972397Y-62703152D02*
X134924778Y-62798390D01*
X134924778Y-62798390D02*
X134877159Y-62846009D01*
X134877159Y-62846009D02*
X134781921Y-62893628D01*
X134781921Y-62893628D02*
X134400969Y-62893628D01*
X141132160Y-75514200D02*
X141275017Y-75561819D01*
X141275017Y-75561819D02*
X141513112Y-75561819D01*
X141513112Y-75561819D02*
X141608350Y-75514200D01*
X141608350Y-75514200D02*
X141655969Y-75466580D01*
X141655969Y-75466580D02*
X141703588Y-75371342D01*
X141703588Y-75371342D02*
X141703588Y-75276104D01*
X141703588Y-75276104D02*
X141655969Y-75180866D01*
X141655969Y-75180866D02*
X141608350Y-75133247D01*
X141608350Y-75133247D02*
X141513112Y-75085628D01*
X141513112Y-75085628D02*
X141322636Y-75038009D01*
X141322636Y-75038009D02*
X141227398Y-74990390D01*
X141227398Y-74990390D02*
X141179779Y-74942771D01*
X141179779Y-74942771D02*
X141132160Y-74847533D01*
X141132160Y-74847533D02*
X141132160Y-74752295D01*
X141132160Y-74752295D02*
X141179779Y-74657057D01*
X141179779Y-74657057D02*
X141227398Y-74609438D01*
X141227398Y-74609438D02*
X141322636Y-74561819D01*
X141322636Y-74561819D02*
X141560731Y-74561819D01*
X141560731Y-74561819D02*
X141703588Y-74609438D01*
X142132160Y-75561819D02*
X142132160Y-74561819D01*
X142132160Y-74561819D02*
X142370255Y-74561819D01*
X142370255Y-74561819D02*
X142513112Y-74609438D01*
X142513112Y-74609438D02*
X142608350Y-74704676D01*
X142608350Y-74704676D02*
X142655969Y-74799914D01*
X142655969Y-74799914D02*
X142703588Y-74990390D01*
X142703588Y-74990390D02*
X142703588Y-75133247D01*
X142703588Y-75133247D02*
X142655969Y-75323723D01*
X142655969Y-75323723D02*
X142608350Y-75418961D01*
X142608350Y-75418961D02*
X142513112Y-75514200D01*
X142513112Y-75514200D02*
X142370255Y-75561819D01*
X142370255Y-75561819D02*
X142132160Y-75561819D01*
X143084541Y-75276104D02*
X143560731Y-75276104D01*
X142989303Y-75561819D02*
X143322636Y-74561819D01*
X143322636Y-74561819D02*
X143655969Y-75561819D01*
X141106779Y-72806009D02*
X141440112Y-72806009D01*
X141582969Y-73329819D02*
X141106779Y-73329819D01*
X141106779Y-73329819D02*
X141106779Y-72329819D01*
X141106779Y-72329819D02*
X141582969Y-72329819D01*
X142011541Y-73329819D02*
X142011541Y-72329819D01*
X142011541Y-72329819D02*
X142582969Y-73329819D01*
X142582969Y-73329819D02*
X142582969Y-72329819D01*
X143059160Y-73329819D02*
X143059160Y-72329819D01*
X143059160Y-72329819D02*
X143297255Y-72329819D01*
X143297255Y-72329819D02*
X143440112Y-72377438D01*
X143440112Y-72377438D02*
X143535350Y-72472676D01*
X143535350Y-72472676D02*
X143582969Y-72567914D01*
X143582969Y-72567914D02*
X143630588Y-72758390D01*
X143630588Y-72758390D02*
X143630588Y-72901247D01*
X143630588Y-72901247D02*
X143582969Y-73091723D01*
X143582969Y-73091723D02*
X143535350Y-73186961D01*
X143535350Y-73186961D02*
X143440112Y-73282200D01*
X143440112Y-73282200D02*
X143297255Y-73329819D01*
X143297255Y-73329819D02*
X143059160Y-73329819D01*
X141179779Y-71497819D02*
X141179779Y-70497819D01*
X141179779Y-70974009D02*
X141751207Y-70974009D01*
X141751207Y-71497819D02*
X141751207Y-70497819D01*
X142179779Y-71212104D02*
X142655969Y-71212104D01*
X142084541Y-71497819D02*
X142417874Y-70497819D01*
X142417874Y-70497819D02*
X142751207Y-71497819D01*
X143560731Y-71497819D02*
X143084541Y-71497819D01*
X143084541Y-71497819D02*
X143084541Y-70497819D01*
X143846446Y-70593057D02*
X143894065Y-70545438D01*
X143894065Y-70545438D02*
X143989303Y-70497819D01*
X143989303Y-70497819D02*
X144227398Y-70497819D01*
X144227398Y-70497819D02*
X144322636Y-70545438D01*
X144322636Y-70545438D02*
X144370255Y-70593057D01*
X144370255Y-70593057D02*
X144417874Y-70688295D01*
X144417874Y-70688295D02*
X144417874Y-70783533D01*
X144417874Y-70783533D02*
X144370255Y-70926390D01*
X144370255Y-70926390D02*
X143798827Y-71497819D01*
X143798827Y-71497819D02*
X144417874Y-71497819D01*
X141132160Y-69180104D02*
X141608350Y-69180104D01*
X141036922Y-69465819D02*
X141370255Y-68465819D01*
X141370255Y-68465819D02*
X141703588Y-69465819D01*
X142036922Y-69465819D02*
X142036922Y-68465819D01*
X142513112Y-69465819D02*
X142513112Y-68465819D01*
X142513112Y-68465819D02*
X143084540Y-69465819D01*
X143084540Y-69465819D02*
X143084540Y-68465819D01*
X144084540Y-69465819D02*
X143513112Y-69465819D01*
X143798826Y-69465819D02*
X143798826Y-68465819D01*
X143798826Y-68465819D02*
X143703588Y-68608676D01*
X143703588Y-68608676D02*
X143608350Y-68703914D01*
X143608350Y-68703914D02*
X143513112Y-68751533D01*
X141179779Y-67306819D02*
X141179779Y-66306819D01*
X141179779Y-66306819D02*
X141513112Y-67021104D01*
X141513112Y-67021104D02*
X141846445Y-66306819D01*
X141846445Y-66306819D02*
X141846445Y-67306819D01*
X142275017Y-67259200D02*
X142417874Y-67306819D01*
X142417874Y-67306819D02*
X142655969Y-67306819D01*
X142655969Y-67306819D02*
X142751207Y-67259200D01*
X142751207Y-67259200D02*
X142798826Y-67211580D01*
X142798826Y-67211580D02*
X142846445Y-67116342D01*
X142846445Y-67116342D02*
X142846445Y-67021104D01*
X142846445Y-67021104D02*
X142798826Y-66925866D01*
X142798826Y-66925866D02*
X142751207Y-66878247D01*
X142751207Y-66878247D02*
X142655969Y-66830628D01*
X142655969Y-66830628D02*
X142465493Y-66783009D01*
X142465493Y-66783009D02*
X142370255Y-66735390D01*
X142370255Y-66735390D02*
X142322636Y-66687771D01*
X142322636Y-66687771D02*
X142275017Y-66592533D01*
X142275017Y-66592533D02*
X142275017Y-66497295D01*
X142275017Y-66497295D02*
X142322636Y-66402057D01*
X142322636Y-66402057D02*
X142370255Y-66354438D01*
X142370255Y-66354438D02*
X142465493Y-66306819D01*
X142465493Y-66306819D02*
X142703588Y-66306819D01*
X142703588Y-66306819D02*
X142846445Y-66354438D01*
X143798826Y-67306819D02*
X143227398Y-67306819D01*
X143513112Y-67306819D02*
X143513112Y-66306819D01*
X143513112Y-66306819D02*
X143417874Y-66449676D01*
X143417874Y-66449676D02*
X143322636Y-66544914D01*
X143322636Y-66544914D02*
X143227398Y-66592533D01*
X141052779Y-65401819D02*
X141052779Y-64401819D01*
X141052779Y-64401819D02*
X141386112Y-65116104D01*
X141386112Y-65116104D02*
X141719445Y-64401819D01*
X141719445Y-64401819D02*
X141719445Y-65401819D01*
X142148017Y-65354200D02*
X142290874Y-65401819D01*
X142290874Y-65401819D02*
X142528969Y-65401819D01*
X142528969Y-65401819D02*
X142624207Y-65354200D01*
X142624207Y-65354200D02*
X142671826Y-65306580D01*
X142671826Y-65306580D02*
X142719445Y-65211342D01*
X142719445Y-65211342D02*
X142719445Y-65116104D01*
X142719445Y-65116104D02*
X142671826Y-65020866D01*
X142671826Y-65020866D02*
X142624207Y-64973247D01*
X142624207Y-64973247D02*
X142528969Y-64925628D01*
X142528969Y-64925628D02*
X142338493Y-64878009D01*
X142338493Y-64878009D02*
X142243255Y-64830390D01*
X142243255Y-64830390D02*
X142195636Y-64782771D01*
X142195636Y-64782771D02*
X142148017Y-64687533D01*
X142148017Y-64687533D02*
X142148017Y-64592295D01*
X142148017Y-64592295D02*
X142195636Y-64497057D01*
X142195636Y-64497057D02*
X142243255Y-64449438D01*
X142243255Y-64449438D02*
X142338493Y-64401819D01*
X142338493Y-64401819D02*
X142576588Y-64401819D01*
X142576588Y-64401819D02*
X142719445Y-64449438D01*
X143052779Y-64401819D02*
X143671826Y-64401819D01*
X143671826Y-64401819D02*
X143338493Y-64782771D01*
X143338493Y-64782771D02*
X143481350Y-64782771D01*
X143481350Y-64782771D02*
X143576588Y-64830390D01*
X143576588Y-64830390D02*
X143624207Y-64878009D01*
X143624207Y-64878009D02*
X143671826Y-64973247D01*
X143671826Y-64973247D02*
X143671826Y-65211342D01*
X143671826Y-65211342D02*
X143624207Y-65306580D01*
X143624207Y-65306580D02*
X143576588Y-65354200D01*
X143576588Y-65354200D02*
X143481350Y-65401819D01*
X143481350Y-65401819D02*
X143195636Y-65401819D01*
X143195636Y-65401819D02*
X143100398Y-65354200D01*
X143100398Y-65354200D02*
X143052779Y-65306580D01*
X141132160Y-63322200D02*
X141275017Y-63369819D01*
X141275017Y-63369819D02*
X141513112Y-63369819D01*
X141513112Y-63369819D02*
X141608350Y-63322200D01*
X141608350Y-63322200D02*
X141655969Y-63274580D01*
X141655969Y-63274580D02*
X141703588Y-63179342D01*
X141703588Y-63179342D02*
X141703588Y-63084104D01*
X141703588Y-63084104D02*
X141655969Y-62988866D01*
X141655969Y-62988866D02*
X141608350Y-62941247D01*
X141608350Y-62941247D02*
X141513112Y-62893628D01*
X141513112Y-62893628D02*
X141322636Y-62846009D01*
X141322636Y-62846009D02*
X141227398Y-62798390D01*
X141227398Y-62798390D02*
X141179779Y-62750771D01*
X141179779Y-62750771D02*
X141132160Y-62655533D01*
X141132160Y-62655533D02*
X141132160Y-62560295D01*
X141132160Y-62560295D02*
X141179779Y-62465057D01*
X141179779Y-62465057D02*
X141227398Y-62417438D01*
X141227398Y-62417438D02*
X141322636Y-62369819D01*
X141322636Y-62369819D02*
X141560731Y-62369819D01*
X141560731Y-62369819D02*
X141703588Y-62417438D01*
X141989303Y-62369819D02*
X142560731Y-62369819D01*
X142275017Y-63369819D02*
X142275017Y-62369819D01*
X142894065Y-62846009D02*
X143227398Y-62846009D01*
X143370255Y-63369819D02*
X142894065Y-63369819D01*
X142894065Y-63369819D02*
X142894065Y-62369819D01*
X142894065Y-62369819D02*
X143370255Y-62369819D01*
X143798827Y-63369819D02*
X143798827Y-62369819D01*
X143798827Y-62369819D02*
X144179779Y-62369819D01*
X144179779Y-62369819D02*
X144275017Y-62417438D01*
X144275017Y-62417438D02*
X144322636Y-62465057D01*
X144322636Y-62465057D02*
X144370255Y-62560295D01*
X144370255Y-62560295D02*
X144370255Y-62703152D01*
X144370255Y-62703152D02*
X144322636Y-62798390D01*
X144322636Y-62798390D02*
X144275017Y-62846009D01*
X144275017Y-62846009D02*
X144179779Y-62893628D01*
X144179779Y-62893628D02*
X143798827Y-62893628D01*
X141106779Y-60948866D02*
X141868684Y-60948866D01*
X141487731Y-61329819D02*
X141487731Y-60567914D01*
X142249636Y-60329819D02*
X142868683Y-60329819D01*
X142868683Y-60329819D02*
X142535350Y-60710771D01*
X142535350Y-60710771D02*
X142678207Y-60710771D01*
X142678207Y-60710771D02*
X142773445Y-60758390D01*
X142773445Y-60758390D02*
X142821064Y-60806009D01*
X142821064Y-60806009D02*
X142868683Y-60901247D01*
X142868683Y-60901247D02*
X142868683Y-61139342D01*
X142868683Y-61139342D02*
X142821064Y-61234580D01*
X142821064Y-61234580D02*
X142773445Y-61282200D01*
X142773445Y-61282200D02*
X142678207Y-61329819D01*
X142678207Y-61329819D02*
X142392493Y-61329819D01*
X142392493Y-61329819D02*
X142297255Y-61282200D01*
X142297255Y-61282200D02*
X142249636Y-61234580D01*
X143154398Y-60329819D02*
X143487731Y-61329819D01*
X143487731Y-61329819D02*
X143821064Y-60329819D01*
X144059160Y-60329819D02*
X144678207Y-60329819D01*
X144678207Y-60329819D02*
X144344874Y-60710771D01*
X144344874Y-60710771D02*
X144487731Y-60710771D01*
X144487731Y-60710771D02*
X144582969Y-60758390D01*
X144582969Y-60758390D02*
X144630588Y-60806009D01*
X144630588Y-60806009D02*
X144678207Y-60901247D01*
X144678207Y-60901247D02*
X144678207Y-61139342D01*
X144678207Y-61139342D02*
X144630588Y-61234580D01*
X144630588Y-61234580D02*
X144582969Y-61282200D01*
X144582969Y-61282200D02*
X144487731Y-61329819D01*
X144487731Y-61329819D02*
X144202017Y-61329819D01*
X144202017Y-61329819D02*
X144106779Y-61282200D01*
X144106779Y-61282200D02*
X144059160Y-61234580D01*
X135782207Y-57781819D02*
X135448874Y-57305628D01*
X135210779Y-57781819D02*
X135210779Y-56781819D01*
X135210779Y-56781819D02*
X135591731Y-56781819D01*
X135591731Y-56781819D02*
X135686969Y-56829438D01*
X135686969Y-56829438D02*
X135734588Y-56877057D01*
X135734588Y-56877057D02*
X135782207Y-56972295D01*
X135782207Y-56972295D02*
X135782207Y-57115152D01*
X135782207Y-57115152D02*
X135734588Y-57210390D01*
X135734588Y-57210390D02*
X135686969Y-57258009D01*
X135686969Y-57258009D02*
X135591731Y-57305628D01*
X135591731Y-57305628D02*
X135210779Y-57305628D01*
X136210779Y-57781819D02*
X136210779Y-56781819D01*
X136210779Y-56781819D02*
X136591731Y-56781819D01*
X136591731Y-56781819D02*
X136686969Y-56829438D01*
X136686969Y-56829438D02*
X136734588Y-56877057D01*
X136734588Y-56877057D02*
X136782207Y-56972295D01*
X136782207Y-56972295D02*
X136782207Y-57115152D01*
X136782207Y-57115152D02*
X136734588Y-57210390D01*
X136734588Y-57210390D02*
X136686969Y-57258009D01*
X136686969Y-57258009D02*
X136591731Y-57305628D01*
X136591731Y-57305628D02*
X136210779Y-57305628D01*
X137210779Y-57781819D02*
X137210779Y-56781819D01*
X137448874Y-57877057D02*
X138210778Y-57877057D01*
X138448874Y-57781819D02*
X138448874Y-56781819D01*
X138925064Y-57781819D02*
X138925064Y-56781819D01*
X138925064Y-56781819D02*
X139496492Y-57781819D01*
X139496492Y-57781819D02*
X139496492Y-56781819D01*
X139972683Y-57781819D02*
X139972683Y-56781819D01*
X139972683Y-56781819D02*
X140353635Y-56781819D01*
X140353635Y-56781819D02*
X140448873Y-56829438D01*
X140448873Y-56829438D02*
X140496492Y-56877057D01*
X140496492Y-56877057D02*
X140544111Y-56972295D01*
X140544111Y-56972295D02*
X140544111Y-57115152D01*
X140544111Y-57115152D02*
X140496492Y-57210390D01*
X140496492Y-57210390D02*
X140448873Y-57258009D01*
X140448873Y-57258009D02*
X140353635Y-57305628D01*
X140353635Y-57305628D02*
X139972683Y-57305628D01*
X140972683Y-56781819D02*
X140972683Y-57591342D01*
X140972683Y-57591342D02*
X141020302Y-57686580D01*
X141020302Y-57686580D02*
X141067921Y-57734200D01*
X141067921Y-57734200D02*
X141163159Y-57781819D01*
X141163159Y-57781819D02*
X141353635Y-57781819D01*
X141353635Y-57781819D02*
X141448873Y-57734200D01*
X141448873Y-57734200D02*
X141496492Y-57686580D01*
X141496492Y-57686580D02*
X141544111Y-57591342D01*
X141544111Y-57591342D02*
X141544111Y-56781819D01*
X141877445Y-56781819D02*
X142448873Y-56781819D01*
X142163159Y-57781819D02*
X142163159Y-56781819D01*
X133067588Y-60385438D02*
X132972350Y-60337819D01*
X132972350Y-60337819D02*
X132829493Y-60337819D01*
X132829493Y-60337819D02*
X132686636Y-60385438D01*
X132686636Y-60385438D02*
X132591398Y-60480676D01*
X132591398Y-60480676D02*
X132543779Y-60575914D01*
X132543779Y-60575914D02*
X132496160Y-60766390D01*
X132496160Y-60766390D02*
X132496160Y-60909247D01*
X132496160Y-60909247D02*
X132543779Y-61099723D01*
X132543779Y-61099723D02*
X132591398Y-61194961D01*
X132591398Y-61194961D02*
X132686636Y-61290200D01*
X132686636Y-61290200D02*
X132829493Y-61337819D01*
X132829493Y-61337819D02*
X132924731Y-61337819D01*
X132924731Y-61337819D02*
X133067588Y-61290200D01*
X133067588Y-61290200D02*
X133115207Y-61242580D01*
X133115207Y-61242580D02*
X133115207Y-60909247D01*
X133115207Y-60909247D02*
X132924731Y-60909247D01*
X133543779Y-61337819D02*
X133543779Y-60337819D01*
X133543779Y-60337819D02*
X134115207Y-61337819D01*
X134115207Y-61337819D02*
X134115207Y-60337819D01*
X134591398Y-61337819D02*
X134591398Y-60337819D01*
X134591398Y-60337819D02*
X134829493Y-60337819D01*
X134829493Y-60337819D02*
X134972350Y-60385438D01*
X134972350Y-60385438D02*
X135067588Y-60480676D01*
X135067588Y-60480676D02*
X135115207Y-60575914D01*
X135115207Y-60575914D02*
X135162826Y-60766390D01*
X135162826Y-60766390D02*
X135162826Y-60909247D01*
X135162826Y-60909247D02*
X135115207Y-61099723D01*
X135115207Y-61099723D02*
X135067588Y-61194961D01*
X135067588Y-61194961D02*
X134972350Y-61290200D01*
X134972350Y-61290200D02*
X134829493Y-61337819D01*
X134829493Y-61337819D02*
X134591398Y-61337819D01*
X146354969Y-106549819D02*
X145878779Y-106549819D01*
X145878779Y-106549819D02*
X145878779Y-105549819D01*
X146688303Y-106026009D02*
X147021636Y-106026009D01*
X147164493Y-106549819D02*
X146688303Y-106549819D01*
X146688303Y-106549819D02*
X146688303Y-105549819D01*
X146688303Y-105549819D02*
X147164493Y-105549819D01*
X147593065Y-106549819D02*
X147593065Y-105549819D01*
X147593065Y-105549819D02*
X147831160Y-105549819D01*
X147831160Y-105549819D02*
X147974017Y-105597438D01*
X147974017Y-105597438D02*
X148069255Y-105692676D01*
X148069255Y-105692676D02*
X148116874Y-105787914D01*
X148116874Y-105787914D02*
X148164493Y-105978390D01*
X148164493Y-105978390D02*
X148164493Y-106121247D01*
X148164493Y-106121247D02*
X148116874Y-106311723D01*
X148116874Y-106311723D02*
X148069255Y-106406961D01*
X148069255Y-106406961D02*
X147974017Y-106502200D01*
X147974017Y-106502200D02*
X147831160Y-106549819D01*
X147831160Y-106549819D02*
X147593065Y-106549819D01*
X197789800Y-91983160D02*
X197742180Y-92126017D01*
X197742180Y-92126017D02*
X197742180Y-92364112D01*
X197742180Y-92364112D02*
X197789800Y-92459350D01*
X197789800Y-92459350D02*
X197837419Y-92506969D01*
X197837419Y-92506969D02*
X197932657Y-92554588D01*
X197932657Y-92554588D02*
X198027895Y-92554588D01*
X198027895Y-92554588D02*
X198123133Y-92506969D01*
X198123133Y-92506969D02*
X198170752Y-92459350D01*
X198170752Y-92459350D02*
X198218371Y-92364112D01*
X198218371Y-92364112D02*
X198265990Y-92173636D01*
X198265990Y-92173636D02*
X198313609Y-92078398D01*
X198313609Y-92078398D02*
X198361228Y-92030779D01*
X198361228Y-92030779D02*
X198456466Y-91983160D01*
X198456466Y-91983160D02*
X198551704Y-91983160D01*
X198551704Y-91983160D02*
X198646942Y-92030779D01*
X198646942Y-92030779D02*
X198694561Y-92078398D01*
X198694561Y-92078398D02*
X198742180Y-92173636D01*
X198742180Y-92173636D02*
X198742180Y-92411731D01*
X198742180Y-92411731D02*
X198694561Y-92554588D01*
X198742180Y-92840303D02*
X198742180Y-93411731D01*
X197742180Y-93126017D02*
X198742180Y-93126017D01*
X198265990Y-93745065D02*
X198265990Y-94078398D01*
X197742180Y-94221255D02*
X197742180Y-93745065D01*
X197742180Y-93745065D02*
X198742180Y-93745065D01*
X198742180Y-93745065D02*
X198742180Y-94221255D01*
X197742180Y-94649827D02*
X198742180Y-94649827D01*
X198742180Y-94649827D02*
X198742180Y-95030779D01*
X198742180Y-95030779D02*
X198694561Y-95126017D01*
X198694561Y-95126017D02*
X198646942Y-95173636D01*
X198646942Y-95173636D02*
X198551704Y-95221255D01*
X198551704Y-95221255D02*
X198408847Y-95221255D01*
X198408847Y-95221255D02*
X198313609Y-95173636D01*
X198313609Y-95173636D02*
X198265990Y-95126017D01*
X198265990Y-95126017D02*
X198218371Y-95030779D01*
X198218371Y-95030779D02*
X198218371Y-94649827D01*
X197742180Y-95649827D02*
X198742180Y-95649827D01*
X198742180Y-95649827D02*
X198742180Y-96030779D01*
X198742180Y-96030779D02*
X198694561Y-96126017D01*
X198694561Y-96126017D02*
X198646942Y-96173636D01*
X198646942Y-96173636D02*
X198551704Y-96221255D01*
X198551704Y-96221255D02*
X198408847Y-96221255D01*
X198408847Y-96221255D02*
X198313609Y-96173636D01*
X198313609Y-96173636D02*
X198265990Y-96126017D01*
X198265990Y-96126017D02*
X198218371Y-96030779D01*
X198218371Y-96030779D02*
X198218371Y-95649827D01*
X198265990Y-96649827D02*
X198265990Y-96983160D01*
X197742180Y-97126017D02*
X197742180Y-96649827D01*
X197742180Y-96649827D02*
X198742180Y-96649827D01*
X198742180Y-96649827D02*
X198742180Y-97126017D01*
X197742180Y-98126017D02*
X198218371Y-97792684D01*
X197742180Y-97554589D02*
X198742180Y-97554589D01*
X198742180Y-97554589D02*
X198742180Y-97935541D01*
X198742180Y-97935541D02*
X198694561Y-98030779D01*
X198694561Y-98030779D02*
X198646942Y-98078398D01*
X198646942Y-98078398D02*
X198551704Y-98126017D01*
X198551704Y-98126017D02*
X198408847Y-98126017D01*
X198408847Y-98126017D02*
X198313609Y-98078398D01*
X198313609Y-98078398D02*
X198265990Y-98030779D01*
X198265990Y-98030779D02*
X198218371Y-97935541D01*
X198218371Y-97935541D02*
X198218371Y-97554589D01*
X185550180Y-62820779D02*
X186550180Y-62820779D01*
X186550180Y-62820779D02*
X186550180Y-63058874D01*
X186550180Y-63058874D02*
X186502561Y-63201731D01*
X186502561Y-63201731D02*
X186407323Y-63296969D01*
X186407323Y-63296969D02*
X186312085Y-63344588D01*
X186312085Y-63344588D02*
X186121609Y-63392207D01*
X186121609Y-63392207D02*
X185978752Y-63392207D01*
X185978752Y-63392207D02*
X185788276Y-63344588D01*
X185788276Y-63344588D02*
X185693038Y-63296969D01*
X185693038Y-63296969D02*
X185597800Y-63201731D01*
X185597800Y-63201731D02*
X185550180Y-63058874D01*
X185550180Y-63058874D02*
X185550180Y-62820779D01*
X185645419Y-64392207D02*
X185597800Y-64344588D01*
X185597800Y-64344588D02*
X185550180Y-64201731D01*
X185550180Y-64201731D02*
X185550180Y-64106493D01*
X185550180Y-64106493D02*
X185597800Y-63963636D01*
X185597800Y-63963636D02*
X185693038Y-63868398D01*
X185693038Y-63868398D02*
X185788276Y-63820779D01*
X185788276Y-63820779D02*
X185978752Y-63773160D01*
X185978752Y-63773160D02*
X186121609Y-63773160D01*
X186121609Y-63773160D02*
X186312085Y-63820779D01*
X186312085Y-63820779D02*
X186407323Y-63868398D01*
X186407323Y-63868398D02*
X186502561Y-63963636D01*
X186502561Y-63963636D02*
X186550180Y-64106493D01*
X186550180Y-64106493D02*
X186550180Y-64201731D01*
X186550180Y-64201731D02*
X186502561Y-64344588D01*
X186502561Y-64344588D02*
X186454942Y-64392207D01*
X185454942Y-64582684D02*
X185454942Y-65344588D01*
X185550180Y-65582684D02*
X186550180Y-65582684D01*
X186550180Y-65582684D02*
X185835895Y-65916017D01*
X185835895Y-65916017D02*
X186550180Y-66249350D01*
X186550180Y-66249350D02*
X185550180Y-66249350D01*
X186550180Y-66916017D02*
X186550180Y-67106493D01*
X186550180Y-67106493D02*
X186502561Y-67201731D01*
X186502561Y-67201731D02*
X186407323Y-67296969D01*
X186407323Y-67296969D02*
X186216847Y-67344588D01*
X186216847Y-67344588D02*
X185883514Y-67344588D01*
X185883514Y-67344588D02*
X185693038Y-67296969D01*
X185693038Y-67296969D02*
X185597800Y-67201731D01*
X185597800Y-67201731D02*
X185550180Y-67106493D01*
X185550180Y-67106493D02*
X185550180Y-66916017D01*
X185550180Y-66916017D02*
X185597800Y-66820779D01*
X185597800Y-66820779D02*
X185693038Y-66725541D01*
X185693038Y-66725541D02*
X185883514Y-66677922D01*
X185883514Y-66677922D02*
X186216847Y-66677922D01*
X186216847Y-66677922D02*
X186407323Y-66725541D01*
X186407323Y-66725541D02*
X186502561Y-66820779D01*
X186502561Y-66820779D02*
X186550180Y-66916017D01*
X186550180Y-67630303D02*
X186550180Y-68201731D01*
X185550180Y-67916017D02*
X186550180Y-67916017D01*
X186550180Y-68725541D02*
X186550180Y-68916017D01*
X186550180Y-68916017D02*
X186502561Y-69011255D01*
X186502561Y-69011255D02*
X186407323Y-69106493D01*
X186407323Y-69106493D02*
X186216847Y-69154112D01*
X186216847Y-69154112D02*
X185883514Y-69154112D01*
X185883514Y-69154112D02*
X185693038Y-69106493D01*
X185693038Y-69106493D02*
X185597800Y-69011255D01*
X185597800Y-69011255D02*
X185550180Y-68916017D01*
X185550180Y-68916017D02*
X185550180Y-68725541D01*
X185550180Y-68725541D02*
X185597800Y-68630303D01*
X185597800Y-68630303D02*
X185693038Y-68535065D01*
X185693038Y-68535065D02*
X185883514Y-68487446D01*
X185883514Y-68487446D02*
X186216847Y-68487446D01*
X186216847Y-68487446D02*
X186407323Y-68535065D01*
X186407323Y-68535065D02*
X186502561Y-68630303D01*
X186502561Y-68630303D02*
X186550180Y-68725541D01*
X185550180Y-70154112D02*
X186026371Y-69820779D01*
X185550180Y-69582684D02*
X186550180Y-69582684D01*
X186550180Y-69582684D02*
X186550180Y-69963636D01*
X186550180Y-69963636D02*
X186502561Y-70058874D01*
X186502561Y-70058874D02*
X186454942Y-70106493D01*
X186454942Y-70106493D02*
X186359704Y-70154112D01*
X186359704Y-70154112D02*
X186216847Y-70154112D01*
X186216847Y-70154112D02*
X186121609Y-70106493D01*
X186121609Y-70106493D02*
X186073990Y-70058874D01*
X186073990Y-70058874D02*
X186026371Y-69963636D01*
X186026371Y-69963636D02*
X186026371Y-69582684D01*
X176415819Y-66608077D02*
X176415819Y-66036649D01*
X177415819Y-66322363D02*
X176415819Y-66322363D01*
X176892009Y-65369982D02*
X176939628Y-65227125D01*
X176939628Y-65227125D02*
X176987247Y-65179506D01*
X176987247Y-65179506D02*
X177082485Y-65131887D01*
X177082485Y-65131887D02*
X177225342Y-65131887D01*
X177225342Y-65131887D02*
X177320580Y-65179506D01*
X177320580Y-65179506D02*
X177368200Y-65227125D01*
X177368200Y-65227125D02*
X177415819Y-65322363D01*
X177415819Y-65322363D02*
X177415819Y-65703315D01*
X177415819Y-65703315D02*
X176415819Y-65703315D01*
X176415819Y-65703315D02*
X176415819Y-65369982D01*
X176415819Y-65369982D02*
X176463438Y-65274744D01*
X176463438Y-65274744D02*
X176511057Y-65227125D01*
X176511057Y-65227125D02*
X176606295Y-65179506D01*
X176606295Y-65179506D02*
X176701533Y-65179506D01*
X176701533Y-65179506D02*
X176796771Y-65227125D01*
X176796771Y-65227125D02*
X176844390Y-65274744D01*
X176844390Y-65274744D02*
X176892009Y-65369982D01*
X176892009Y-65369982D02*
X176892009Y-65703315D01*
X176415819Y-64274744D02*
X176415819Y-64465220D01*
X176415819Y-64465220D02*
X176463438Y-64560458D01*
X176463438Y-64560458D02*
X176511057Y-64608077D01*
X176511057Y-64608077D02*
X176653914Y-64703315D01*
X176653914Y-64703315D02*
X176844390Y-64750934D01*
X176844390Y-64750934D02*
X177225342Y-64750934D01*
X177225342Y-64750934D02*
X177320580Y-64703315D01*
X177320580Y-64703315D02*
X177368200Y-64655696D01*
X177368200Y-64655696D02*
X177415819Y-64560458D01*
X177415819Y-64560458D02*
X177415819Y-64369982D01*
X177415819Y-64369982D02*
X177368200Y-64274744D01*
X177368200Y-64274744D02*
X177320580Y-64227125D01*
X177320580Y-64227125D02*
X177225342Y-64179506D01*
X177225342Y-64179506D02*
X176987247Y-64179506D01*
X176987247Y-64179506D02*
X176892009Y-64227125D01*
X176892009Y-64227125D02*
X176844390Y-64274744D01*
X176844390Y-64274744D02*
X176796771Y-64369982D01*
X176796771Y-64369982D02*
X176796771Y-64560458D01*
X176796771Y-64560458D02*
X176844390Y-64655696D01*
X176844390Y-64655696D02*
X176892009Y-64703315D01*
X176892009Y-64703315D02*
X176987247Y-64750934D01*
X176415819Y-63322363D02*
X176415819Y-63512839D01*
X176415819Y-63512839D02*
X176463438Y-63608077D01*
X176463438Y-63608077D02*
X176511057Y-63655696D01*
X176511057Y-63655696D02*
X176653914Y-63750934D01*
X176653914Y-63750934D02*
X176844390Y-63798553D01*
X176844390Y-63798553D02*
X177225342Y-63798553D01*
X177225342Y-63798553D02*
X177320580Y-63750934D01*
X177320580Y-63750934D02*
X177368200Y-63703315D01*
X177368200Y-63703315D02*
X177415819Y-63608077D01*
X177415819Y-63608077D02*
X177415819Y-63417601D01*
X177415819Y-63417601D02*
X177368200Y-63322363D01*
X177368200Y-63322363D02*
X177320580Y-63274744D01*
X177320580Y-63274744D02*
X177225342Y-63227125D01*
X177225342Y-63227125D02*
X176987247Y-63227125D01*
X176987247Y-63227125D02*
X176892009Y-63274744D01*
X176892009Y-63274744D02*
X176844390Y-63322363D01*
X176844390Y-63322363D02*
X176796771Y-63417601D01*
X176796771Y-63417601D02*
X176796771Y-63608077D01*
X176796771Y-63608077D02*
X176844390Y-63703315D01*
X176844390Y-63703315D02*
X176892009Y-63750934D01*
X176892009Y-63750934D02*
X176987247Y-63798553D01*
X177415819Y-62274744D02*
X177415819Y-62846172D01*
X177415819Y-62560458D02*
X176415819Y-62560458D01*
X176415819Y-62560458D02*
X176558676Y-62655696D01*
X176558676Y-62655696D02*
X176653914Y-62750934D01*
X176653914Y-62750934D02*
X176701533Y-62846172D01*
X176511057Y-61893791D02*
X176463438Y-61846172D01*
X176463438Y-61846172D02*
X176415819Y-61750934D01*
X176415819Y-61750934D02*
X176415819Y-61512839D01*
X176415819Y-61512839D02*
X176463438Y-61417601D01*
X176463438Y-61417601D02*
X176511057Y-61369982D01*
X176511057Y-61369982D02*
X176606295Y-61322363D01*
X176606295Y-61322363D02*
X176701533Y-61322363D01*
X176701533Y-61322363D02*
X176844390Y-61369982D01*
X176844390Y-61369982D02*
X177415819Y-61941410D01*
X177415819Y-61941410D02*
X177415819Y-61322363D01*
X176892009Y-60560458D02*
X176892009Y-60893791D01*
X177415819Y-60893791D02*
X176415819Y-60893791D01*
X176415819Y-60893791D02*
X176415819Y-60417601D01*
X177415819Y-60036648D02*
X176415819Y-60036648D01*
X176415819Y-60036648D02*
X177415819Y-59465220D01*
X177415819Y-59465220D02*
X176415819Y-59465220D01*
X176463438Y-58465220D02*
X176415819Y-58560458D01*
X176415819Y-58560458D02*
X176415819Y-58703315D01*
X176415819Y-58703315D02*
X176463438Y-58846172D01*
X176463438Y-58846172D02*
X176558676Y-58941410D01*
X176558676Y-58941410D02*
X176653914Y-58989029D01*
X176653914Y-58989029D02*
X176844390Y-59036648D01*
X176844390Y-59036648D02*
X176987247Y-59036648D01*
X176987247Y-59036648D02*
X177177723Y-58989029D01*
X177177723Y-58989029D02*
X177272961Y-58941410D01*
X177272961Y-58941410D02*
X177368200Y-58846172D01*
X177368200Y-58846172D02*
X177415819Y-58703315D01*
X177415819Y-58703315D02*
X177415819Y-58608077D01*
X177415819Y-58608077D02*
X177368200Y-58465220D01*
X177368200Y-58465220D02*
X177320580Y-58417601D01*
X177320580Y-58417601D02*
X176987247Y-58417601D01*
X176987247Y-58417601D02*
X176987247Y-58608077D01*
X175088779Y-99437819D02*
X175088779Y-98437819D01*
X175088779Y-98437819D02*
X175326874Y-98437819D01*
X175326874Y-98437819D02*
X175469731Y-98485438D01*
X175469731Y-98485438D02*
X175564969Y-98580676D01*
X175564969Y-98580676D02*
X175612588Y-98675914D01*
X175612588Y-98675914D02*
X175660207Y-98866390D01*
X175660207Y-98866390D02*
X175660207Y-99009247D01*
X175660207Y-99009247D02*
X175612588Y-99199723D01*
X175612588Y-99199723D02*
X175564969Y-99294961D01*
X175564969Y-99294961D02*
X175469731Y-99390200D01*
X175469731Y-99390200D02*
X175326874Y-99437819D01*
X175326874Y-99437819D02*
X175088779Y-99437819D01*
X176660207Y-99437819D02*
X176326874Y-98961628D01*
X176088779Y-99437819D02*
X176088779Y-98437819D01*
X176088779Y-98437819D02*
X176469731Y-98437819D01*
X176469731Y-98437819D02*
X176564969Y-98485438D01*
X176564969Y-98485438D02*
X176612588Y-98533057D01*
X176612588Y-98533057D02*
X176660207Y-98628295D01*
X176660207Y-98628295D02*
X176660207Y-98771152D01*
X176660207Y-98771152D02*
X176612588Y-98866390D01*
X176612588Y-98866390D02*
X176564969Y-98914009D01*
X176564969Y-98914009D02*
X176469731Y-98961628D01*
X176469731Y-98961628D02*
X176088779Y-98961628D01*
X176945922Y-98437819D02*
X177279255Y-99437819D01*
X177279255Y-99437819D02*
X177612588Y-98437819D01*
X178088779Y-98866390D02*
X177993541Y-98818771D01*
X177993541Y-98818771D02*
X177945922Y-98771152D01*
X177945922Y-98771152D02*
X177898303Y-98675914D01*
X177898303Y-98675914D02*
X177898303Y-98628295D01*
X177898303Y-98628295D02*
X177945922Y-98533057D01*
X177945922Y-98533057D02*
X177993541Y-98485438D01*
X177993541Y-98485438D02*
X178088779Y-98437819D01*
X178088779Y-98437819D02*
X178279255Y-98437819D01*
X178279255Y-98437819D02*
X178374493Y-98485438D01*
X178374493Y-98485438D02*
X178422112Y-98533057D01*
X178422112Y-98533057D02*
X178469731Y-98628295D01*
X178469731Y-98628295D02*
X178469731Y-98675914D01*
X178469731Y-98675914D02*
X178422112Y-98771152D01*
X178422112Y-98771152D02*
X178374493Y-98818771D01*
X178374493Y-98818771D02*
X178279255Y-98866390D01*
X178279255Y-98866390D02*
X178088779Y-98866390D01*
X178088779Y-98866390D02*
X177993541Y-98914009D01*
X177993541Y-98914009D02*
X177945922Y-98961628D01*
X177945922Y-98961628D02*
X177898303Y-99056866D01*
X177898303Y-99056866D02*
X177898303Y-99247342D01*
X177898303Y-99247342D02*
X177945922Y-99342580D01*
X177945922Y-99342580D02*
X177993541Y-99390200D01*
X177993541Y-99390200D02*
X178088779Y-99437819D01*
X178088779Y-99437819D02*
X178279255Y-99437819D01*
X178279255Y-99437819D02*
X178374493Y-99390200D01*
X178374493Y-99390200D02*
X178422112Y-99342580D01*
X178422112Y-99342580D02*
X178469731Y-99247342D01*
X178469731Y-99247342D02*
X178469731Y-99056866D01*
X178469731Y-99056866D02*
X178422112Y-98961628D01*
X178422112Y-98961628D02*
X178374493Y-98914009D01*
X178374493Y-98914009D02*
X178279255Y-98866390D01*
X179041160Y-98866390D02*
X178945922Y-98818771D01*
X178945922Y-98818771D02*
X178898303Y-98771152D01*
X178898303Y-98771152D02*
X178850684Y-98675914D01*
X178850684Y-98675914D02*
X178850684Y-98628295D01*
X178850684Y-98628295D02*
X178898303Y-98533057D01*
X178898303Y-98533057D02*
X178945922Y-98485438D01*
X178945922Y-98485438D02*
X179041160Y-98437819D01*
X179041160Y-98437819D02*
X179231636Y-98437819D01*
X179231636Y-98437819D02*
X179326874Y-98485438D01*
X179326874Y-98485438D02*
X179374493Y-98533057D01*
X179374493Y-98533057D02*
X179422112Y-98628295D01*
X179422112Y-98628295D02*
X179422112Y-98675914D01*
X179422112Y-98675914D02*
X179374493Y-98771152D01*
X179374493Y-98771152D02*
X179326874Y-98818771D01*
X179326874Y-98818771D02*
X179231636Y-98866390D01*
X179231636Y-98866390D02*
X179041160Y-98866390D01*
X179041160Y-98866390D02*
X178945922Y-98914009D01*
X178945922Y-98914009D02*
X178898303Y-98961628D01*
X178898303Y-98961628D02*
X178850684Y-99056866D01*
X178850684Y-99056866D02*
X178850684Y-99247342D01*
X178850684Y-99247342D02*
X178898303Y-99342580D01*
X178898303Y-99342580D02*
X178945922Y-99390200D01*
X178945922Y-99390200D02*
X179041160Y-99437819D01*
X179041160Y-99437819D02*
X179231636Y-99437819D01*
X179231636Y-99437819D02*
X179326874Y-99390200D01*
X179326874Y-99390200D02*
X179374493Y-99342580D01*
X179374493Y-99342580D02*
X179422112Y-99247342D01*
X179422112Y-99247342D02*
X179422112Y-99056866D01*
X179422112Y-99056866D02*
X179374493Y-98961628D01*
X179374493Y-98961628D02*
X179326874Y-98914009D01*
X179326874Y-98914009D02*
X179231636Y-98866390D01*
X179803065Y-98533057D02*
X179850684Y-98485438D01*
X179850684Y-98485438D02*
X179945922Y-98437819D01*
X179945922Y-98437819D02*
X180184017Y-98437819D01*
X180184017Y-98437819D02*
X180279255Y-98485438D01*
X180279255Y-98485438D02*
X180326874Y-98533057D01*
X180326874Y-98533057D02*
X180374493Y-98628295D01*
X180374493Y-98628295D02*
X180374493Y-98723533D01*
X180374493Y-98723533D02*
X180326874Y-98866390D01*
X180326874Y-98866390D02*
X179755446Y-99437819D01*
X179755446Y-99437819D02*
X180374493Y-99437819D01*
X181279255Y-98437819D02*
X180803065Y-98437819D01*
X180803065Y-98437819D02*
X180755446Y-98914009D01*
X180755446Y-98914009D02*
X180803065Y-98866390D01*
X180803065Y-98866390D02*
X180898303Y-98818771D01*
X180898303Y-98818771D02*
X181136398Y-98818771D01*
X181136398Y-98818771D02*
X181231636Y-98866390D01*
X181231636Y-98866390D02*
X181279255Y-98914009D01*
X181279255Y-98914009D02*
X181326874Y-99009247D01*
X181326874Y-99009247D02*
X181326874Y-99247342D01*
X181326874Y-99247342D02*
X181279255Y-99342580D01*
X181279255Y-99342580D02*
X181231636Y-99390200D01*
X181231636Y-99390200D02*
X181136398Y-99437819D01*
X181136398Y-99437819D02*
X180898303Y-99437819D01*
X180898303Y-99437819D02*
X180803065Y-99390200D01*
X180803065Y-99390200D02*
X180755446Y-99342580D01*
X127939969Y-65401819D02*
X127463779Y-65401819D01*
X127463779Y-65401819D02*
X127463779Y-64401819D01*
X128273303Y-65401819D02*
X128273303Y-64401819D01*
X128749493Y-65401819D02*
X128749493Y-64401819D01*
X128749493Y-64401819D02*
X129082826Y-65116104D01*
X129082826Y-65116104D02*
X129416159Y-64401819D01*
X129416159Y-64401819D02*
X129416159Y-65401819D01*
X129892350Y-65401819D02*
X129892350Y-64401819D01*
X130225683Y-64401819D02*
X130797111Y-64401819D01*
X130511397Y-65401819D02*
X130511397Y-64401819D01*
X103254180Y-94840588D02*
X103254180Y-94269160D01*
X103254180Y-94554874D02*
X104254180Y-94554874D01*
X104254180Y-94554874D02*
X104111323Y-94459636D01*
X104111323Y-94459636D02*
X104016085Y-94364398D01*
X104016085Y-94364398D02*
X103968466Y-94269160D01*
X104158942Y-95221541D02*
X104206561Y-95269160D01*
X104206561Y-95269160D02*
X104254180Y-95364398D01*
X104254180Y-95364398D02*
X104254180Y-95602493D01*
X104254180Y-95602493D02*
X104206561Y-95697731D01*
X104206561Y-95697731D02*
X104158942Y-95745350D01*
X104158942Y-95745350D02*
X104063704Y-95792969D01*
X104063704Y-95792969D02*
X103968466Y-95792969D01*
X103968466Y-95792969D02*
X103825609Y-95745350D01*
X103825609Y-95745350D02*
X103254180Y-95173922D01*
X103254180Y-95173922D02*
X103254180Y-95792969D01*
X104254180Y-96078684D02*
X103254180Y-96412017D01*
X103254180Y-96412017D02*
X104254180Y-96745350D01*
X103158942Y-96840589D02*
X103158942Y-97602493D01*
X103254180Y-97840589D02*
X104254180Y-97840589D01*
X103254180Y-98316779D02*
X104254180Y-98316779D01*
X104254180Y-98316779D02*
X103254180Y-98888207D01*
X103254180Y-98888207D02*
X104254180Y-98888207D01*
X103254180Y-99364398D02*
X104254180Y-99364398D01*
X104254180Y-99364398D02*
X104254180Y-99745350D01*
X104254180Y-99745350D02*
X104206561Y-99840588D01*
X104206561Y-99840588D02*
X104158942Y-99888207D01*
X104158942Y-99888207D02*
X104063704Y-99935826D01*
X104063704Y-99935826D02*
X103920847Y-99935826D01*
X103920847Y-99935826D02*
X103825609Y-99888207D01*
X103825609Y-99888207D02*
X103777990Y-99840588D01*
X103777990Y-99840588D02*
X103730371Y-99745350D01*
X103730371Y-99745350D02*
X103730371Y-99364398D01*
X104254180Y-100364398D02*
X103444657Y-100364398D01*
X103444657Y-100364398D02*
X103349419Y-100412017D01*
X103349419Y-100412017D02*
X103301800Y-100459636D01*
X103301800Y-100459636D02*
X103254180Y-100554874D01*
X103254180Y-100554874D02*
X103254180Y-100745350D01*
X103254180Y-100745350D02*
X103301800Y-100840588D01*
X103301800Y-100840588D02*
X103349419Y-100888207D01*
X103349419Y-100888207D02*
X103444657Y-100935826D01*
X103444657Y-100935826D02*
X104254180Y-100935826D01*
X104254180Y-101269160D02*
X104254180Y-101840588D01*
X103254180Y-101554874D02*
X104254180Y-101554874D01*
X107683445Y-84293057D02*
X107588207Y-84245438D01*
X107588207Y-84245438D02*
X107492969Y-84150200D01*
X107492969Y-84150200D02*
X107350112Y-84007342D01*
X107350112Y-84007342D02*
X107254874Y-83959723D01*
X107254874Y-83959723D02*
X107159636Y-83959723D01*
X107207255Y-84197819D02*
X107112017Y-84150200D01*
X107112017Y-84150200D02*
X107016779Y-84054961D01*
X107016779Y-84054961D02*
X106969160Y-83864485D01*
X106969160Y-83864485D02*
X106969160Y-83531152D01*
X106969160Y-83531152D02*
X107016779Y-83340676D01*
X107016779Y-83340676D02*
X107112017Y-83245438D01*
X107112017Y-83245438D02*
X107207255Y-83197819D01*
X107207255Y-83197819D02*
X107397731Y-83197819D01*
X107397731Y-83197819D02*
X107492969Y-83245438D01*
X107492969Y-83245438D02*
X107588207Y-83340676D01*
X107588207Y-83340676D02*
X107635826Y-83531152D01*
X107635826Y-83531152D02*
X107635826Y-83864485D01*
X107635826Y-83864485D02*
X107588207Y-84054961D01*
X107588207Y-84054961D02*
X107492969Y-84150200D01*
X107492969Y-84150200D02*
X107397731Y-84197819D01*
X107397731Y-84197819D02*
X107207255Y-84197819D01*
X108064398Y-84197819D02*
X108064398Y-83197819D01*
X108302493Y-84293057D02*
X109064397Y-84293057D01*
X109873921Y-84102580D02*
X109826302Y-84150200D01*
X109826302Y-84150200D02*
X109683445Y-84197819D01*
X109683445Y-84197819D02*
X109588207Y-84197819D01*
X109588207Y-84197819D02*
X109445350Y-84150200D01*
X109445350Y-84150200D02*
X109350112Y-84054961D01*
X109350112Y-84054961D02*
X109302493Y-83959723D01*
X109302493Y-83959723D02*
X109254874Y-83769247D01*
X109254874Y-83769247D02*
X109254874Y-83626390D01*
X109254874Y-83626390D02*
X109302493Y-83435914D01*
X109302493Y-83435914D02*
X109350112Y-83340676D01*
X109350112Y-83340676D02*
X109445350Y-83245438D01*
X109445350Y-83245438D02*
X109588207Y-83197819D01*
X109588207Y-83197819D02*
X109683445Y-83197819D01*
X109683445Y-83197819D02*
X109826302Y-83245438D01*
X109826302Y-83245438D02*
X109873921Y-83293057D01*
X110492969Y-83197819D02*
X110683445Y-83197819D01*
X110683445Y-83197819D02*
X110778683Y-83245438D01*
X110778683Y-83245438D02*
X110873921Y-83340676D01*
X110873921Y-83340676D02*
X110921540Y-83531152D01*
X110921540Y-83531152D02*
X110921540Y-83864485D01*
X110921540Y-83864485D02*
X110873921Y-84054961D01*
X110873921Y-84054961D02*
X110778683Y-84150200D01*
X110778683Y-84150200D02*
X110683445Y-84197819D01*
X110683445Y-84197819D02*
X110492969Y-84197819D01*
X110492969Y-84197819D02*
X110397731Y-84150200D01*
X110397731Y-84150200D02*
X110302493Y-84054961D01*
X110302493Y-84054961D02*
X110254874Y-83864485D01*
X110254874Y-83864485D02*
X110254874Y-83531152D01*
X110254874Y-83531152D02*
X110302493Y-83340676D01*
X110302493Y-83340676D02*
X110397731Y-83245438D01*
X110397731Y-83245438D02*
X110492969Y-83197819D01*
X111350112Y-84197819D02*
X111350112Y-83197819D01*
X111350112Y-83197819D02*
X111921540Y-84197819D01*
X111921540Y-84197819D02*
X111921540Y-83197819D01*
X112397731Y-84197819D02*
X112397731Y-83197819D01*
X112397731Y-83197819D02*
X112969159Y-84197819D01*
X112969159Y-84197819D02*
X112969159Y-83197819D01*
X108032779Y-70481819D02*
X108032779Y-69481819D01*
X108461350Y-69577057D02*
X108508969Y-69529438D01*
X108508969Y-69529438D02*
X108604207Y-69481819D01*
X108604207Y-69481819D02*
X108842302Y-69481819D01*
X108842302Y-69481819D02*
X108937540Y-69529438D01*
X108937540Y-69529438D02*
X108985159Y-69577057D01*
X108985159Y-69577057D02*
X109032778Y-69672295D01*
X109032778Y-69672295D02*
X109032778Y-69767533D01*
X109032778Y-69767533D02*
X108985159Y-69910390D01*
X108985159Y-69910390D02*
X108413731Y-70481819D01*
X108413731Y-70481819D02*
X109032778Y-70481819D01*
X110032778Y-70386580D02*
X109985159Y-70434200D01*
X109985159Y-70434200D02*
X109842302Y-70481819D01*
X109842302Y-70481819D02*
X109747064Y-70481819D01*
X109747064Y-70481819D02*
X109604207Y-70434200D01*
X109604207Y-70434200D02*
X109508969Y-70338961D01*
X109508969Y-70338961D02*
X109461350Y-70243723D01*
X109461350Y-70243723D02*
X109413731Y-70053247D01*
X109413731Y-70053247D02*
X109413731Y-69910390D01*
X109413731Y-69910390D02*
X109461350Y-69719914D01*
X109461350Y-69719914D02*
X109508969Y-69624676D01*
X109508969Y-69624676D02*
X109604207Y-69529438D01*
X109604207Y-69529438D02*
X109747064Y-69481819D01*
X109747064Y-69481819D02*
X109842302Y-69481819D01*
X109842302Y-69481819D02*
X109985159Y-69529438D01*
X109985159Y-69529438D02*
X110032778Y-69577057D01*
X110223255Y-70577057D02*
X110985159Y-70577057D01*
X111175636Y-69577057D02*
X111223255Y-69529438D01*
X111223255Y-69529438D02*
X111318493Y-69481819D01*
X111318493Y-69481819D02*
X111556588Y-69481819D01*
X111556588Y-69481819D02*
X111651826Y-69529438D01*
X111651826Y-69529438D02*
X111699445Y-69577057D01*
X111699445Y-69577057D02*
X111747064Y-69672295D01*
X111747064Y-69672295D02*
X111747064Y-69767533D01*
X111747064Y-69767533D02*
X111699445Y-69910390D01*
X111699445Y-69910390D02*
X111128017Y-70481819D01*
X111128017Y-70481819D02*
X111747064Y-70481819D01*
X108286779Y-61591819D02*
X108286779Y-60591819D01*
X108715350Y-60687057D02*
X108762969Y-60639438D01*
X108762969Y-60639438D02*
X108858207Y-60591819D01*
X108858207Y-60591819D02*
X109096302Y-60591819D01*
X109096302Y-60591819D02*
X109191540Y-60639438D01*
X109191540Y-60639438D02*
X109239159Y-60687057D01*
X109239159Y-60687057D02*
X109286778Y-60782295D01*
X109286778Y-60782295D02*
X109286778Y-60877533D01*
X109286778Y-60877533D02*
X109239159Y-61020390D01*
X109239159Y-61020390D02*
X108667731Y-61591819D01*
X108667731Y-61591819D02*
X109286778Y-61591819D01*
X110286778Y-61496580D02*
X110239159Y-61544200D01*
X110239159Y-61544200D02*
X110096302Y-61591819D01*
X110096302Y-61591819D02*
X110001064Y-61591819D01*
X110001064Y-61591819D02*
X109858207Y-61544200D01*
X109858207Y-61544200D02*
X109762969Y-61448961D01*
X109762969Y-61448961D02*
X109715350Y-61353723D01*
X109715350Y-61353723D02*
X109667731Y-61163247D01*
X109667731Y-61163247D02*
X109667731Y-61020390D01*
X109667731Y-61020390D02*
X109715350Y-60829914D01*
X109715350Y-60829914D02*
X109762969Y-60734676D01*
X109762969Y-60734676D02*
X109858207Y-60639438D01*
X109858207Y-60639438D02*
X110001064Y-60591819D01*
X110001064Y-60591819D02*
X110096302Y-60591819D01*
X110096302Y-60591819D02*
X110239159Y-60639438D01*
X110239159Y-60639438D02*
X110286778Y-60687057D01*
X110477255Y-61687057D02*
X111239159Y-61687057D01*
X112001064Y-61591819D02*
X111429636Y-61591819D01*
X111715350Y-61591819D02*
X111715350Y-60591819D01*
X111715350Y-60591819D02*
X111620112Y-60734676D01*
X111620112Y-60734676D02*
X111524874Y-60829914D01*
X111524874Y-60829914D02*
X111429636Y-60877533D01*
X199612381Y-106774819D02*
X199612381Y-105774819D01*
X199612381Y-105774819D02*
X199945714Y-106489104D01*
X199945714Y-106489104D02*
X200279047Y-105774819D01*
X200279047Y-105774819D02*
X200279047Y-106774819D01*
X200755238Y-106679580D02*
X200802857Y-106727200D01*
X200802857Y-106727200D02*
X200755238Y-106774819D01*
X200755238Y-106774819D02*
X200707619Y-106727200D01*
X200707619Y-106727200D02*
X200755238Y-106679580D01*
X200755238Y-106679580D02*
X200755238Y-106774819D01*
X201183809Y-105870057D02*
X201231428Y-105822438D01*
X201231428Y-105822438D02*
X201326666Y-105774819D01*
X201326666Y-105774819D02*
X201564761Y-105774819D01*
X201564761Y-105774819D02*
X201659999Y-105822438D01*
X201659999Y-105822438D02*
X201707618Y-105870057D01*
X201707618Y-105870057D02*
X201755237Y-105965295D01*
X201755237Y-105965295D02*
X201755237Y-106060533D01*
X201755237Y-106060533D02*
X201707618Y-106203390D01*
X201707618Y-106203390D02*
X201136190Y-106774819D01*
X201136190Y-106774819D02*
X201755237Y-106774819D01*
X199612381Y-56969819D02*
X199612381Y-55969819D01*
X199612381Y-55969819D02*
X199945714Y-56684104D01*
X199945714Y-56684104D02*
X200279047Y-55969819D01*
X200279047Y-55969819D02*
X200279047Y-56969819D01*
X200755238Y-56874580D02*
X200802857Y-56922200D01*
X200802857Y-56922200D02*
X200755238Y-56969819D01*
X200755238Y-56969819D02*
X200707619Y-56922200D01*
X200707619Y-56922200D02*
X200755238Y-56874580D01*
X200755238Y-56874580D02*
X200755238Y-56969819D01*
X201183809Y-56065057D02*
X201231428Y-56017438D01*
X201231428Y-56017438D02*
X201326666Y-55969819D01*
X201326666Y-55969819D02*
X201564761Y-55969819D01*
X201564761Y-55969819D02*
X201659999Y-56017438D01*
X201659999Y-56017438D02*
X201707618Y-56065057D01*
X201707618Y-56065057D02*
X201755237Y-56160295D01*
X201755237Y-56160295D02*
X201755237Y-56255533D01*
X201755237Y-56255533D02*
X201707618Y-56398390D01*
X201707618Y-56398390D02*
X201136190Y-56969819D01*
X201136190Y-56969819D02*
X201755237Y-56969819D01*
X101822381Y-56969819D02*
X101822381Y-55969819D01*
X101822381Y-55969819D02*
X102155714Y-56684104D01*
X102155714Y-56684104D02*
X102489047Y-55969819D01*
X102489047Y-55969819D02*
X102489047Y-56969819D01*
X102965238Y-56874580D02*
X103012857Y-56922200D01*
X103012857Y-56922200D02*
X102965238Y-56969819D01*
X102965238Y-56969819D02*
X102917619Y-56922200D01*
X102917619Y-56922200D02*
X102965238Y-56874580D01*
X102965238Y-56874580D02*
X102965238Y-56969819D01*
X103393809Y-56065057D02*
X103441428Y-56017438D01*
X103441428Y-56017438D02*
X103536666Y-55969819D01*
X103536666Y-55969819D02*
X103774761Y-55969819D01*
X103774761Y-55969819D02*
X103869999Y-56017438D01*
X103869999Y-56017438D02*
X103917618Y-56065057D01*
X103917618Y-56065057D02*
X103965237Y-56160295D01*
X103965237Y-56160295D02*
X103965237Y-56255533D01*
X103965237Y-56255533D02*
X103917618Y-56398390D01*
X103917618Y-56398390D02*
X103346190Y-56969819D01*
X103346190Y-56969819D02*
X103965237Y-56969819D01*
X101822381Y-106774819D02*
X101822381Y-105774819D01*
X101822381Y-105774819D02*
X102155714Y-106489104D01*
X102155714Y-106489104D02*
X102489047Y-105774819D01*
X102489047Y-105774819D02*
X102489047Y-106774819D01*
X102965238Y-106679580D02*
X103012857Y-106727200D01*
X103012857Y-106727200D02*
X102965238Y-106774819D01*
X102965238Y-106774819D02*
X102917619Y-106727200D01*
X102917619Y-106727200D02*
X102965238Y-106679580D01*
X102965238Y-106679580D02*
X102965238Y-106774819D01*
X103393809Y-105870057D02*
X103441428Y-105822438D01*
X103441428Y-105822438D02*
X103536666Y-105774819D01*
X103536666Y-105774819D02*
X103774761Y-105774819D01*
X103774761Y-105774819D02*
X103869999Y-105822438D01*
X103869999Y-105822438D02*
X103917618Y-105870057D01*
X103917618Y-105870057D02*
X103965237Y-105965295D01*
X103965237Y-105965295D02*
X103965237Y-106060533D01*
X103965237Y-106060533D02*
X103917618Y-106203390D01*
X103917618Y-106203390D02*
X103346190Y-106774819D01*
X103346190Y-106774819D02*
X103965237Y-106774819D01*
X128825666Y-58382819D02*
X128825666Y-59097104D01*
X128825666Y-59097104D02*
X128778047Y-59239961D01*
X128778047Y-59239961D02*
X128682809Y-59335200D01*
X128682809Y-59335200D02*
X128539952Y-59382819D01*
X128539952Y-59382819D02*
X128444714Y-59382819D01*
X129206619Y-58382819D02*
X129825666Y-58382819D01*
X129825666Y-58382819D02*
X129492333Y-58763771D01*
X129492333Y-58763771D02*
X129635190Y-58763771D01*
X129635190Y-58763771D02*
X129730428Y-58811390D01*
X129730428Y-58811390D02*
X129778047Y-58859009D01*
X129778047Y-58859009D02*
X129825666Y-58954247D01*
X129825666Y-58954247D02*
X129825666Y-59192342D01*
X129825666Y-59192342D02*
X129778047Y-59287580D01*
X129778047Y-59287580D02*
X129730428Y-59335200D01*
X129730428Y-59335200D02*
X129635190Y-59382819D01*
X129635190Y-59382819D02*
X129349476Y-59382819D01*
X129349476Y-59382819D02*
X129254238Y-59335200D01*
X129254238Y-59335200D02*
X129206619Y-59287580D01*
X152870819Y-64007904D02*
X153680342Y-64007904D01*
X153680342Y-64007904D02*
X153775580Y-63960285D01*
X153775580Y-63960285D02*
X153823200Y-63912666D01*
X153823200Y-63912666D02*
X153870819Y-63817428D01*
X153870819Y-63817428D02*
X153870819Y-63626952D01*
X153870819Y-63626952D02*
X153823200Y-63531714D01*
X153823200Y-63531714D02*
X153775580Y-63484095D01*
X153775580Y-63484095D02*
X153680342Y-63436476D01*
X153680342Y-63436476D02*
X152870819Y-63436476D01*
X152966057Y-63007904D02*
X152918438Y-62960285D01*
X152918438Y-62960285D02*
X152870819Y-62865047D01*
X152870819Y-62865047D02*
X152870819Y-62626952D01*
X152870819Y-62626952D02*
X152918438Y-62531714D01*
X152918438Y-62531714D02*
X152966057Y-62484095D01*
X152966057Y-62484095D02*
X153061295Y-62436476D01*
X153061295Y-62436476D02*
X153156533Y-62436476D01*
X153156533Y-62436476D02*
X153299390Y-62484095D01*
X153299390Y-62484095D02*
X153870819Y-63055523D01*
X153870819Y-63055523D02*
X153870819Y-62436476D01*
X173228095Y-87084819D02*
X173228095Y-87894342D01*
X173228095Y-87894342D02*
X173275714Y-87989580D01*
X173275714Y-87989580D02*
X173323333Y-88037200D01*
X173323333Y-88037200D02*
X173418571Y-88084819D01*
X173418571Y-88084819D02*
X173609047Y-88084819D01*
X173609047Y-88084819D02*
X173704285Y-88037200D01*
X173704285Y-88037200D02*
X173751904Y-87989580D01*
X173751904Y-87989580D02*
X173799523Y-87894342D01*
X173799523Y-87894342D02*
X173799523Y-87084819D01*
X174799523Y-88084819D02*
X174228095Y-88084819D01*
X174513809Y-88084819D02*
X174513809Y-87084819D01*
X174513809Y-87084819D02*
X174418571Y-87227676D01*
X174418571Y-87227676D02*
X174323333Y-87322914D01*
X174323333Y-87322914D02*
X174228095Y-87370533D01*
X127087333Y-72336819D02*
X126754000Y-71860628D01*
X126515905Y-72336819D02*
X126515905Y-71336819D01*
X126515905Y-71336819D02*
X126896857Y-71336819D01*
X126896857Y-71336819D02*
X126992095Y-71384438D01*
X126992095Y-71384438D02*
X127039714Y-71432057D01*
X127039714Y-71432057D02*
X127087333Y-71527295D01*
X127087333Y-71527295D02*
X127087333Y-71670152D01*
X127087333Y-71670152D02*
X127039714Y-71765390D01*
X127039714Y-71765390D02*
X126992095Y-71813009D01*
X126992095Y-71813009D02*
X126896857Y-71860628D01*
X126896857Y-71860628D02*
X126515905Y-71860628D01*
X127944476Y-71670152D02*
X127944476Y-72336819D01*
X127706381Y-71289200D02*
X127468286Y-72003485D01*
X127468286Y-72003485D02*
X128087333Y-72003485D01*
X125468286Y-76162819D02*
X126087333Y-76162819D01*
X126087333Y-76162819D02*
X125754000Y-76543771D01*
X125754000Y-76543771D02*
X125896857Y-76543771D01*
X125896857Y-76543771D02*
X125992095Y-76591390D01*
X125992095Y-76591390D02*
X126039714Y-76639009D01*
X126039714Y-76639009D02*
X126087333Y-76734247D01*
X126087333Y-76734247D02*
X126087333Y-76972342D01*
X126087333Y-76972342D02*
X126039714Y-77067580D01*
X126039714Y-77067580D02*
X125992095Y-77115200D01*
X125992095Y-77115200D02*
X125896857Y-77162819D01*
X125896857Y-77162819D02*
X125611143Y-77162819D01*
X125611143Y-77162819D02*
X125515905Y-77115200D01*
X125515905Y-77115200D02*
X125468286Y-77067580D01*
X126420667Y-76162819D02*
X127039714Y-76162819D01*
X127039714Y-76162819D02*
X126706381Y-76543771D01*
X126706381Y-76543771D02*
X126849238Y-76543771D01*
X126849238Y-76543771D02*
X126944476Y-76591390D01*
X126944476Y-76591390D02*
X126992095Y-76639009D01*
X126992095Y-76639009D02*
X127039714Y-76734247D01*
X127039714Y-76734247D02*
X127039714Y-76972342D01*
X127039714Y-76972342D02*
X126992095Y-77067580D01*
X126992095Y-77067580D02*
X126944476Y-77115200D01*
X126944476Y-77115200D02*
X126849238Y-77162819D01*
X126849238Y-77162819D02*
X126563524Y-77162819D01*
X126563524Y-77162819D02*
X126468286Y-77115200D01*
X126468286Y-77115200D02*
X126420667Y-77067580D01*
X127658762Y-76162819D02*
X127754000Y-76162819D01*
X127754000Y-76162819D02*
X127849238Y-76210438D01*
X127849238Y-76210438D02*
X127896857Y-76258057D01*
X127896857Y-76258057D02*
X127944476Y-76353295D01*
X127944476Y-76353295D02*
X127992095Y-76543771D01*
X127992095Y-76543771D02*
X127992095Y-76781866D01*
X127992095Y-76781866D02*
X127944476Y-76972342D01*
X127944476Y-76972342D02*
X127896857Y-77067580D01*
X127896857Y-77067580D02*
X127849238Y-77115200D01*
X127849238Y-77115200D02*
X127754000Y-77162819D01*
X127754000Y-77162819D02*
X127658762Y-77162819D01*
X127658762Y-77162819D02*
X127563524Y-77115200D01*
X127563524Y-77115200D02*
X127515905Y-77067580D01*
X127515905Y-77067580D02*
X127468286Y-76972342D01*
X127468286Y-76972342D02*
X127420667Y-76781866D01*
X127420667Y-76781866D02*
X127420667Y-76543771D01*
X127420667Y-76543771D02*
X127468286Y-76353295D01*
X127468286Y-76353295D02*
X127515905Y-76258057D01*
X127515905Y-76258057D02*
X127563524Y-76210438D01*
X127563524Y-76210438D02*
X127658762Y-76162819D01*
X128992095Y-77162819D02*
X128658762Y-76686628D01*
X128420667Y-77162819D02*
X128420667Y-76162819D01*
X128420667Y-76162819D02*
X128801619Y-76162819D01*
X128801619Y-76162819D02*
X128896857Y-76210438D01*
X128896857Y-76210438D02*
X128944476Y-76258057D01*
X128944476Y-76258057D02*
X128992095Y-76353295D01*
X128992095Y-76353295D02*
X128992095Y-76496152D01*
X128992095Y-76496152D02*
X128944476Y-76591390D01*
X128944476Y-76591390D02*
X128896857Y-76639009D01*
X128896857Y-76639009D02*
X128801619Y-76686628D01*
X128801619Y-76686628D02*
X128420667Y-76686628D01*
X117675819Y-59195666D02*
X117199628Y-59528999D01*
X117675819Y-59767094D02*
X116675819Y-59767094D01*
X116675819Y-59767094D02*
X116675819Y-59386142D01*
X116675819Y-59386142D02*
X116723438Y-59290904D01*
X116723438Y-59290904D02*
X116771057Y-59243285D01*
X116771057Y-59243285D02*
X116866295Y-59195666D01*
X116866295Y-59195666D02*
X117009152Y-59195666D01*
X117009152Y-59195666D02*
X117104390Y-59243285D01*
X117104390Y-59243285D02*
X117152009Y-59290904D01*
X117152009Y-59290904D02*
X117199628Y-59386142D01*
X117199628Y-59386142D02*
X117199628Y-59767094D01*
X116675819Y-58862332D02*
X116675819Y-58243285D01*
X116675819Y-58243285D02*
X117056771Y-58576618D01*
X117056771Y-58576618D02*
X117056771Y-58433761D01*
X117056771Y-58433761D02*
X117104390Y-58338523D01*
X117104390Y-58338523D02*
X117152009Y-58290904D01*
X117152009Y-58290904D02*
X117247247Y-58243285D01*
X117247247Y-58243285D02*
X117485342Y-58243285D01*
X117485342Y-58243285D02*
X117580580Y-58290904D01*
X117580580Y-58290904D02*
X117628200Y-58338523D01*
X117628200Y-58338523D02*
X117675819Y-58433761D01*
X117675819Y-58433761D02*
X117675819Y-58719475D01*
X117675819Y-58719475D02*
X117628200Y-58814713D01*
X117628200Y-58814713D02*
X117580580Y-58862332D01*
X118041057Y-59655904D02*
X117993438Y-59608285D01*
X117993438Y-59608285D02*
X117945819Y-59513047D01*
X117945819Y-59513047D02*
X117945819Y-59274952D01*
X117945819Y-59274952D02*
X117993438Y-59179714D01*
X117993438Y-59179714D02*
X118041057Y-59132095D01*
X118041057Y-59132095D02*
X118136295Y-59084476D01*
X118136295Y-59084476D02*
X118231533Y-59084476D01*
X118231533Y-59084476D02*
X118374390Y-59132095D01*
X118374390Y-59132095D02*
X118945819Y-59703523D01*
X118945819Y-59703523D02*
X118945819Y-59084476D01*
X118945819Y-58655904D02*
X117945819Y-58655904D01*
X118945819Y-58084476D02*
X118374390Y-58513047D01*
X117945819Y-58084476D02*
X118517247Y-58655904D01*
X118041057Y-57703523D02*
X117993438Y-57655904D01*
X117993438Y-57655904D02*
X117945819Y-57560666D01*
X117945819Y-57560666D02*
X117945819Y-57322571D01*
X117945819Y-57322571D02*
X117993438Y-57227333D01*
X117993438Y-57227333D02*
X118041057Y-57179714D01*
X118041057Y-57179714D02*
X118136295Y-57132095D01*
X118136295Y-57132095D02*
X118231533Y-57132095D01*
X118231533Y-57132095D02*
X118374390Y-57179714D01*
X118374390Y-57179714D02*
X118945819Y-57751142D01*
X118945819Y-57751142D02*
X118945819Y-57132095D01*
X122120819Y-59068666D02*
X121644628Y-59401999D01*
X122120819Y-59640094D02*
X121120819Y-59640094D01*
X121120819Y-59640094D02*
X121120819Y-59259142D01*
X121120819Y-59259142D02*
X121168438Y-59163904D01*
X121168438Y-59163904D02*
X121216057Y-59116285D01*
X121216057Y-59116285D02*
X121311295Y-59068666D01*
X121311295Y-59068666D02*
X121454152Y-59068666D01*
X121454152Y-59068666D02*
X121549390Y-59116285D01*
X121549390Y-59116285D02*
X121597009Y-59163904D01*
X121597009Y-59163904D02*
X121644628Y-59259142D01*
X121644628Y-59259142D02*
X121644628Y-59640094D01*
X121216057Y-58687713D02*
X121168438Y-58640094D01*
X121168438Y-58640094D02*
X121120819Y-58544856D01*
X121120819Y-58544856D02*
X121120819Y-58306761D01*
X121120819Y-58306761D02*
X121168438Y-58211523D01*
X121168438Y-58211523D02*
X121216057Y-58163904D01*
X121216057Y-58163904D02*
X121311295Y-58116285D01*
X121311295Y-58116285D02*
X121406533Y-58116285D01*
X121406533Y-58116285D02*
X121549390Y-58163904D01*
X121549390Y-58163904D02*
X122120819Y-58735332D01*
X122120819Y-58735332D02*
X122120819Y-58116285D01*
X122486057Y-59554904D02*
X122438438Y-59507285D01*
X122438438Y-59507285D02*
X122390819Y-59412047D01*
X122390819Y-59412047D02*
X122390819Y-59173952D01*
X122390819Y-59173952D02*
X122438438Y-59078714D01*
X122438438Y-59078714D02*
X122486057Y-59031095D01*
X122486057Y-59031095D02*
X122581295Y-58983476D01*
X122581295Y-58983476D02*
X122676533Y-58983476D01*
X122676533Y-58983476D02*
X122819390Y-59031095D01*
X122819390Y-59031095D02*
X123390819Y-59602523D01*
X123390819Y-59602523D02*
X123390819Y-58983476D01*
X123390819Y-58554904D02*
X122390819Y-58554904D01*
X123390819Y-57983476D02*
X122819390Y-58412047D01*
X122390819Y-57983476D02*
X122962247Y-58554904D01*
X122486057Y-57602523D02*
X122438438Y-57554904D01*
X122438438Y-57554904D02*
X122390819Y-57459666D01*
X122390819Y-57459666D02*
X122390819Y-57221571D01*
X122390819Y-57221571D02*
X122438438Y-57126333D01*
X122438438Y-57126333D02*
X122486057Y-57078714D01*
X122486057Y-57078714D02*
X122581295Y-57031095D01*
X122581295Y-57031095D02*
X122676533Y-57031095D01*
X122676533Y-57031095D02*
X122819390Y-57078714D01*
X122819390Y-57078714D02*
X123390819Y-57650142D01*
X123390819Y-57650142D02*
X123390819Y-57031095D01*
X149886819Y-92116666D02*
X149410628Y-92449999D01*
X149886819Y-92688094D02*
X148886819Y-92688094D01*
X148886819Y-92688094D02*
X148886819Y-92307142D01*
X148886819Y-92307142D02*
X148934438Y-92211904D01*
X148934438Y-92211904D02*
X148982057Y-92164285D01*
X148982057Y-92164285D02*
X149077295Y-92116666D01*
X149077295Y-92116666D02*
X149220152Y-92116666D01*
X149220152Y-92116666D02*
X149315390Y-92164285D01*
X149315390Y-92164285D02*
X149363009Y-92211904D01*
X149363009Y-92211904D02*
X149410628Y-92307142D01*
X149410628Y-92307142D02*
X149410628Y-92688094D01*
X149886819Y-91164285D02*
X149886819Y-91735713D01*
X149886819Y-91449999D02*
X148886819Y-91449999D01*
X148886819Y-91449999D02*
X149029676Y-91545237D01*
X149029676Y-91545237D02*
X149124914Y-91640475D01*
X149124914Y-91640475D02*
X149172533Y-91735713D01*
X143646819Y-93259523D02*
X143646819Y-92640476D01*
X143646819Y-92640476D02*
X144027771Y-92973809D01*
X144027771Y-92973809D02*
X144027771Y-92830952D01*
X144027771Y-92830952D02*
X144075390Y-92735714D01*
X144075390Y-92735714D02*
X144123009Y-92688095D01*
X144123009Y-92688095D02*
X144218247Y-92640476D01*
X144218247Y-92640476D02*
X144456342Y-92640476D01*
X144456342Y-92640476D02*
X144551580Y-92688095D01*
X144551580Y-92688095D02*
X144599200Y-92735714D01*
X144599200Y-92735714D02*
X144646819Y-92830952D01*
X144646819Y-92830952D02*
X144646819Y-93116666D01*
X144646819Y-93116666D02*
X144599200Y-93211904D01*
X144599200Y-93211904D02*
X144551580Y-93259523D01*
X144646819Y-92211904D02*
X143646819Y-92211904D01*
X144646819Y-91640476D02*
X144075390Y-92069047D01*
X143646819Y-91640476D02*
X144218247Y-92211904D01*
X143646819Y-91307142D02*
X143646819Y-90688095D01*
X143646819Y-90688095D02*
X144027771Y-91021428D01*
X144027771Y-91021428D02*
X144027771Y-90878571D01*
X144027771Y-90878571D02*
X144075390Y-90783333D01*
X144075390Y-90783333D02*
X144123009Y-90735714D01*
X144123009Y-90735714D02*
X144218247Y-90688095D01*
X144218247Y-90688095D02*
X144456342Y-90688095D01*
X144456342Y-90688095D02*
X144551580Y-90735714D01*
X144551580Y-90735714D02*
X144599200Y-90783333D01*
X144599200Y-90783333D02*
X144646819Y-90878571D01*
X144646819Y-90878571D02*
X144646819Y-91164285D01*
X144646819Y-91164285D02*
X144599200Y-91259523D01*
X144599200Y-91259523D02*
X144551580Y-91307142D01*
X122049942Y-77124761D02*
X122097561Y-77029523D01*
X122097561Y-77029523D02*
X122192800Y-76934285D01*
X122192800Y-76934285D02*
X122335657Y-76791428D01*
X122335657Y-76791428D02*
X122383276Y-76696190D01*
X122383276Y-76696190D02*
X122383276Y-76600952D01*
X122145180Y-76648571D02*
X122192800Y-76553333D01*
X122192800Y-76553333D02*
X122288038Y-76458095D01*
X122288038Y-76458095D02*
X122478514Y-76410476D01*
X122478514Y-76410476D02*
X122811847Y-76410476D01*
X122811847Y-76410476D02*
X123002323Y-76458095D01*
X123002323Y-76458095D02*
X123097561Y-76553333D01*
X123097561Y-76553333D02*
X123145180Y-76648571D01*
X123145180Y-76648571D02*
X123145180Y-76839047D01*
X123145180Y-76839047D02*
X123097561Y-76934285D01*
X123097561Y-76934285D02*
X123002323Y-77029523D01*
X123002323Y-77029523D02*
X122811847Y-77077142D01*
X122811847Y-77077142D02*
X122478514Y-77077142D01*
X122478514Y-77077142D02*
X122288038Y-77029523D01*
X122288038Y-77029523D02*
X122192800Y-76934285D01*
X122192800Y-76934285D02*
X122145180Y-76839047D01*
X122145180Y-76839047D02*
X122145180Y-76648571D01*
X122145180Y-78029523D02*
X122145180Y-77458095D01*
X122145180Y-77743809D02*
X123145180Y-77743809D01*
X123145180Y-77743809D02*
X123002323Y-77648571D01*
X123002323Y-77648571D02*
X122907085Y-77553333D01*
X122907085Y-77553333D02*
X122859466Y-77458095D01*
X115145180Y-73910476D02*
X116145180Y-73910476D01*
X115145180Y-74958094D02*
X115621371Y-74624761D01*
X115145180Y-74386666D02*
X116145180Y-74386666D01*
X116145180Y-74386666D02*
X116145180Y-74767618D01*
X116145180Y-74767618D02*
X116097561Y-74862856D01*
X116097561Y-74862856D02*
X116049942Y-74910475D01*
X116049942Y-74910475D02*
X115954704Y-74958094D01*
X115954704Y-74958094D02*
X115811847Y-74958094D01*
X115811847Y-74958094D02*
X115716609Y-74910475D01*
X115716609Y-74910475D02*
X115668990Y-74862856D01*
X115668990Y-74862856D02*
X115621371Y-74767618D01*
X115621371Y-74767618D02*
X115621371Y-74386666D01*
X115145180Y-75862856D02*
X115145180Y-75386666D01*
X115145180Y-75386666D02*
X116145180Y-75386666D01*
X115668990Y-76529523D02*
X115621371Y-76672380D01*
X115621371Y-76672380D02*
X115573752Y-76719999D01*
X115573752Y-76719999D02*
X115478514Y-76767618D01*
X115478514Y-76767618D02*
X115335657Y-76767618D01*
X115335657Y-76767618D02*
X115240419Y-76719999D01*
X115240419Y-76719999D02*
X115192800Y-76672380D01*
X115192800Y-76672380D02*
X115145180Y-76577142D01*
X115145180Y-76577142D02*
X115145180Y-76196190D01*
X115145180Y-76196190D02*
X116145180Y-76196190D01*
X116145180Y-76196190D02*
X116145180Y-76529523D01*
X116145180Y-76529523D02*
X116097561Y-76624761D01*
X116097561Y-76624761D02*
X116049942Y-76672380D01*
X116049942Y-76672380D02*
X115954704Y-76719999D01*
X115954704Y-76719999D02*
X115859466Y-76719999D01*
X115859466Y-76719999D02*
X115764228Y-76672380D01*
X115764228Y-76672380D02*
X115716609Y-76624761D01*
X115716609Y-76624761D02*
X115668990Y-76529523D01*
X115668990Y-76529523D02*
X115668990Y-76196190D01*
X116145180Y-77100952D02*
X116145180Y-77719999D01*
X116145180Y-77719999D02*
X115764228Y-77386666D01*
X115764228Y-77386666D02*
X115764228Y-77529523D01*
X115764228Y-77529523D02*
X115716609Y-77624761D01*
X115716609Y-77624761D02*
X115668990Y-77672380D01*
X115668990Y-77672380D02*
X115573752Y-77719999D01*
X115573752Y-77719999D02*
X115335657Y-77719999D01*
X115335657Y-77719999D02*
X115240419Y-77672380D01*
X115240419Y-77672380D02*
X115192800Y-77624761D01*
X115192800Y-77624761D02*
X115145180Y-77529523D01*
X115145180Y-77529523D02*
X115145180Y-77243809D01*
X115145180Y-77243809D02*
X115192800Y-77148571D01*
X115192800Y-77148571D02*
X115240419Y-77100952D01*
X116145180Y-78339047D02*
X116145180Y-78434285D01*
X116145180Y-78434285D02*
X116097561Y-78529523D01*
X116097561Y-78529523D02*
X116049942Y-78577142D01*
X116049942Y-78577142D02*
X115954704Y-78624761D01*
X115954704Y-78624761D02*
X115764228Y-78672380D01*
X115764228Y-78672380D02*
X115526133Y-78672380D01*
X115526133Y-78672380D02*
X115335657Y-78624761D01*
X115335657Y-78624761D02*
X115240419Y-78577142D01*
X115240419Y-78577142D02*
X115192800Y-78529523D01*
X115192800Y-78529523D02*
X115145180Y-78434285D01*
X115145180Y-78434285D02*
X115145180Y-78339047D01*
X115145180Y-78339047D02*
X115192800Y-78243809D01*
X115192800Y-78243809D02*
X115240419Y-78196190D01*
X115240419Y-78196190D02*
X115335657Y-78148571D01*
X115335657Y-78148571D02*
X115526133Y-78100952D01*
X115526133Y-78100952D02*
X115764228Y-78100952D01*
X115764228Y-78100952D02*
X115954704Y-78148571D01*
X115954704Y-78148571D02*
X116049942Y-78196190D01*
X116049942Y-78196190D02*
X116097561Y-78243809D01*
X116097561Y-78243809D02*
X116145180Y-78339047D01*
X116145180Y-79005714D02*
X116145180Y-79624761D01*
X116145180Y-79624761D02*
X115764228Y-79291428D01*
X115764228Y-79291428D02*
X115764228Y-79434285D01*
X115764228Y-79434285D02*
X115716609Y-79529523D01*
X115716609Y-79529523D02*
X115668990Y-79577142D01*
X115668990Y-79577142D02*
X115573752Y-79624761D01*
X115573752Y-79624761D02*
X115335657Y-79624761D01*
X115335657Y-79624761D02*
X115240419Y-79577142D01*
X115240419Y-79577142D02*
X115192800Y-79529523D01*
X115192800Y-79529523D02*
X115145180Y-79434285D01*
X115145180Y-79434285D02*
X115145180Y-79148571D01*
X115145180Y-79148571D02*
X115192800Y-79053333D01*
X115192800Y-79053333D02*
X115240419Y-79005714D01*
X115811847Y-80481904D02*
X115145180Y-80481904D01*
X116192800Y-80243809D02*
X115478514Y-80005714D01*
X115478514Y-80005714D02*
X115478514Y-80624761D01*
X137842666Y-55207819D02*
X137842666Y-55922104D01*
X137842666Y-55922104D02*
X137795047Y-56064961D01*
X137795047Y-56064961D02*
X137699809Y-56160200D01*
X137699809Y-56160200D02*
X137556952Y-56207819D01*
X137556952Y-56207819D02*
X137461714Y-56207819D01*
X138366476Y-56207819D02*
X138556952Y-56207819D01*
X138556952Y-56207819D02*
X138652190Y-56160200D01*
X138652190Y-56160200D02*
X138699809Y-56112580D01*
X138699809Y-56112580D02*
X138795047Y-55969723D01*
X138795047Y-55969723D02*
X138842666Y-55779247D01*
X138842666Y-55779247D02*
X138842666Y-55398295D01*
X138842666Y-55398295D02*
X138795047Y-55303057D01*
X138795047Y-55303057D02*
X138747428Y-55255438D01*
X138747428Y-55255438D02*
X138652190Y-55207819D01*
X138652190Y-55207819D02*
X138461714Y-55207819D01*
X138461714Y-55207819D02*
X138366476Y-55255438D01*
X138366476Y-55255438D02*
X138318857Y-55303057D01*
X138318857Y-55303057D02*
X138271238Y-55398295D01*
X138271238Y-55398295D02*
X138271238Y-55636390D01*
X138271238Y-55636390D02*
X138318857Y-55731628D01*
X138318857Y-55731628D02*
X138366476Y-55779247D01*
X138366476Y-55779247D02*
X138461714Y-55826866D01*
X138461714Y-55826866D02*
X138652190Y-55826866D01*
X138652190Y-55826866D02*
X138747428Y-55779247D01*
X138747428Y-55779247D02*
X138795047Y-55731628D01*
X138795047Y-55731628D02*
X138842666Y-55636390D01*
X198103080Y-67177465D02*
X197388795Y-67177465D01*
X197388795Y-67177465D02*
X197245938Y-67129846D01*
X197245938Y-67129846D02*
X197150700Y-67034608D01*
X197150700Y-67034608D02*
X197103080Y-66891751D01*
X197103080Y-66891751D02*
X197103080Y-66796513D01*
X197674509Y-67796513D02*
X197722128Y-67701275D01*
X197722128Y-67701275D02*
X197769747Y-67653656D01*
X197769747Y-67653656D02*
X197864985Y-67606037D01*
X197864985Y-67606037D02*
X197912604Y-67606037D01*
X197912604Y-67606037D02*
X198007842Y-67653656D01*
X198007842Y-67653656D02*
X198055461Y-67701275D01*
X198055461Y-67701275D02*
X198103080Y-67796513D01*
X198103080Y-67796513D02*
X198103080Y-67986989D01*
X198103080Y-67986989D02*
X198055461Y-68082227D01*
X198055461Y-68082227D02*
X198007842Y-68129846D01*
X198007842Y-68129846D02*
X197912604Y-68177465D01*
X197912604Y-68177465D02*
X197864985Y-68177465D01*
X197864985Y-68177465D02*
X197769747Y-68129846D01*
X197769747Y-68129846D02*
X197722128Y-68082227D01*
X197722128Y-68082227D02*
X197674509Y-67986989D01*
X197674509Y-67986989D02*
X197674509Y-67796513D01*
X197674509Y-67796513D02*
X197626890Y-67701275D01*
X197626890Y-67701275D02*
X197579271Y-67653656D01*
X197579271Y-67653656D02*
X197484033Y-67606037D01*
X197484033Y-67606037D02*
X197293557Y-67606037D01*
X197293557Y-67606037D02*
X197198319Y-67653656D01*
X197198319Y-67653656D02*
X197150700Y-67701275D01*
X197150700Y-67701275D02*
X197103080Y-67796513D01*
X197103080Y-67796513D02*
X197103080Y-67986989D01*
X197103080Y-67986989D02*
X197150700Y-68082227D01*
X197150700Y-68082227D02*
X197198319Y-68129846D01*
X197198319Y-68129846D02*
X197293557Y-68177465D01*
X197293557Y-68177465D02*
X197484033Y-68177465D01*
X197484033Y-68177465D02*
X197579271Y-68129846D01*
X197579271Y-68129846D02*
X197626890Y-68082227D01*
X197626890Y-68082227D02*
X197674509Y-67986989D01*
X198157180Y-100250666D02*
X197442895Y-100250666D01*
X197442895Y-100250666D02*
X197300038Y-100203047D01*
X197300038Y-100203047D02*
X197204800Y-100107809D01*
X197204800Y-100107809D02*
X197157180Y-99964952D01*
X197157180Y-99964952D02*
X197157180Y-99869714D01*
X198157180Y-100631619D02*
X198157180Y-101298285D01*
X198157180Y-101298285D02*
X197157180Y-100869714D01*
X114845180Y-97710666D02*
X114130895Y-97710666D01*
X114130895Y-97710666D02*
X113988038Y-97663047D01*
X113988038Y-97663047D02*
X113892800Y-97567809D01*
X113892800Y-97567809D02*
X113845180Y-97424952D01*
X113845180Y-97424952D02*
X113845180Y-97329714D01*
X114845180Y-98615428D02*
X114845180Y-98424952D01*
X114845180Y-98424952D02*
X114797561Y-98329714D01*
X114797561Y-98329714D02*
X114749942Y-98282095D01*
X114749942Y-98282095D02*
X114607085Y-98186857D01*
X114607085Y-98186857D02*
X114416609Y-98139238D01*
X114416609Y-98139238D02*
X114035657Y-98139238D01*
X114035657Y-98139238D02*
X113940419Y-98186857D01*
X113940419Y-98186857D02*
X113892800Y-98234476D01*
X113892800Y-98234476D02*
X113845180Y-98329714D01*
X113845180Y-98329714D02*
X113845180Y-98520190D01*
X113845180Y-98520190D02*
X113892800Y-98615428D01*
X113892800Y-98615428D02*
X113940419Y-98663047D01*
X113940419Y-98663047D02*
X114035657Y-98710666D01*
X114035657Y-98710666D02*
X114273752Y-98710666D01*
X114273752Y-98710666D02*
X114368990Y-98663047D01*
X114368990Y-98663047D02*
X114416609Y-98615428D01*
X114416609Y-98615428D02*
X114464228Y-98520190D01*
X114464228Y-98520190D02*
X114464228Y-98329714D01*
X114464228Y-98329714D02*
X114416609Y-98234476D01*
X114416609Y-98234476D02*
X114368990Y-98186857D01*
X114368990Y-98186857D02*
X114273752Y-98139238D01*
X146478666Y-97268819D02*
X146478666Y-97983104D01*
X146478666Y-97983104D02*
X146431047Y-98125961D01*
X146431047Y-98125961D02*
X146335809Y-98221200D01*
X146335809Y-98221200D02*
X146192952Y-98268819D01*
X146192952Y-98268819D02*
X146097714Y-98268819D01*
X147431047Y-97268819D02*
X146954857Y-97268819D01*
X146954857Y-97268819D02*
X146907238Y-97745009D01*
X146907238Y-97745009D02*
X146954857Y-97697390D01*
X146954857Y-97697390D02*
X147050095Y-97649771D01*
X147050095Y-97649771D02*
X147288190Y-97649771D01*
X147288190Y-97649771D02*
X147383428Y-97697390D01*
X147383428Y-97697390D02*
X147431047Y-97745009D01*
X147431047Y-97745009D02*
X147478666Y-97840247D01*
X147478666Y-97840247D02*
X147478666Y-98078342D01*
X147478666Y-98078342D02*
X147431047Y-98173580D01*
X147431047Y-98173580D02*
X147383428Y-98221200D01*
X147383428Y-98221200D02*
X147288190Y-98268819D01*
X147288190Y-98268819D02*
X147050095Y-98268819D01*
X147050095Y-98268819D02*
X146954857Y-98221200D01*
X146954857Y-98221200D02*
X146907238Y-98173580D01*
X109394666Y-63208819D02*
X109394666Y-63923104D01*
X109394666Y-63923104D02*
X109347047Y-64065961D01*
X109347047Y-64065961D02*
X109251809Y-64161200D01*
X109251809Y-64161200D02*
X109108952Y-64208819D01*
X109108952Y-64208819D02*
X109013714Y-64208819D01*
X110299428Y-63542152D02*
X110299428Y-64208819D01*
X110061333Y-63161200D02*
X109823238Y-63875485D01*
X109823238Y-63875485D02*
X110442285Y-63875485D01*
X108886666Y-54572819D02*
X108886666Y-55287104D01*
X108886666Y-55287104D02*
X108839047Y-55429961D01*
X108839047Y-55429961D02*
X108743809Y-55525200D01*
X108743809Y-55525200D02*
X108600952Y-55572819D01*
X108600952Y-55572819D02*
X108505714Y-55572819D01*
X109315238Y-54668057D02*
X109362857Y-54620438D01*
X109362857Y-54620438D02*
X109458095Y-54572819D01*
X109458095Y-54572819D02*
X109696190Y-54572819D01*
X109696190Y-54572819D02*
X109791428Y-54620438D01*
X109791428Y-54620438D02*
X109839047Y-54668057D01*
X109839047Y-54668057D02*
X109886666Y-54763295D01*
X109886666Y-54763295D02*
X109886666Y-54858533D01*
X109886666Y-54858533D02*
X109839047Y-55001390D01*
X109839047Y-55001390D02*
X109267619Y-55572819D01*
X109267619Y-55572819D02*
X109886666Y-55572819D01*
X109394666Y-73114819D02*
X109394666Y-73829104D01*
X109394666Y-73829104D02*
X109347047Y-73971961D01*
X109347047Y-73971961D02*
X109251809Y-74067200D01*
X109251809Y-74067200D02*
X109108952Y-74114819D01*
X109108952Y-74114819D02*
X109013714Y-74114819D01*
X110394666Y-74114819D02*
X109823238Y-74114819D01*
X110108952Y-74114819D02*
X110108952Y-73114819D01*
X110108952Y-73114819D02*
X110013714Y-73257676D01*
X110013714Y-73257676D02*
X109918476Y-73352914D01*
X109918476Y-73352914D02*
X109823238Y-73400533D01*
X122481009Y-98133333D02*
X122481009Y-98466666D01*
X123004819Y-98466666D02*
X122004819Y-98466666D01*
X122004819Y-98466666D02*
X122004819Y-97990476D01*
X123004819Y-97085714D02*
X123004819Y-97657142D01*
X123004819Y-97371428D02*
X122004819Y-97371428D01*
X122004819Y-97371428D02*
X122147676Y-97466666D01*
X122147676Y-97466666D02*
X122242914Y-97561904D01*
X122242914Y-97561904D02*
X122290533Y-97657142D01*
X118004819Y-102704761D02*
X117004819Y-102704761D01*
X117004819Y-102704761D02*
X117719104Y-102371428D01*
X117719104Y-102371428D02*
X117004819Y-102038095D01*
X117004819Y-102038095D02*
X118004819Y-102038095D01*
X117481009Y-101228571D02*
X117481009Y-101561904D01*
X118004819Y-101561904D02*
X117004819Y-101561904D01*
X117004819Y-101561904D02*
X117004819Y-101085714D01*
X117623866Y-100704761D02*
X117623866Y-99942857D01*
X118004819Y-98895238D02*
X117528628Y-99228571D01*
X118004819Y-99466666D02*
X117004819Y-99466666D01*
X117004819Y-99466666D02*
X117004819Y-99085714D01*
X117004819Y-99085714D02*
X117052438Y-98990476D01*
X117052438Y-98990476D02*
X117100057Y-98942857D01*
X117100057Y-98942857D02*
X117195295Y-98895238D01*
X117195295Y-98895238D02*
X117338152Y-98895238D01*
X117338152Y-98895238D02*
X117433390Y-98942857D01*
X117433390Y-98942857D02*
X117481009Y-98990476D01*
X117481009Y-98990476D02*
X117528628Y-99085714D01*
X117528628Y-99085714D02*
X117528628Y-99466666D01*
X117052438Y-97942857D02*
X117004819Y-98038095D01*
X117004819Y-98038095D02*
X117004819Y-98180952D01*
X117004819Y-98180952D02*
X117052438Y-98323809D01*
X117052438Y-98323809D02*
X117147676Y-98419047D01*
X117147676Y-98419047D02*
X117242914Y-98466666D01*
X117242914Y-98466666D02*
X117433390Y-98514285D01*
X117433390Y-98514285D02*
X117576247Y-98514285D01*
X117576247Y-98514285D02*
X117766723Y-98466666D01*
X117766723Y-98466666D02*
X117861961Y-98419047D01*
X117861961Y-98419047D02*
X117957200Y-98323809D01*
X117957200Y-98323809D02*
X118004819Y-98180952D01*
X118004819Y-98180952D02*
X118004819Y-98085714D01*
X118004819Y-98085714D02*
X117957200Y-97942857D01*
X117957200Y-97942857D02*
X117909580Y-97895238D01*
X117909580Y-97895238D02*
X117576247Y-97895238D01*
X117576247Y-97895238D02*
X117576247Y-98085714D01*
X117004819Y-97038095D02*
X117004819Y-97228571D01*
X117004819Y-97228571D02*
X117052438Y-97323809D01*
X117052438Y-97323809D02*
X117100057Y-97371428D01*
X117100057Y-97371428D02*
X117242914Y-97466666D01*
X117242914Y-97466666D02*
X117433390Y-97514285D01*
X117433390Y-97514285D02*
X117814342Y-97514285D01*
X117814342Y-97514285D02*
X117909580Y-97466666D01*
X117909580Y-97466666D02*
X117957200Y-97419047D01*
X117957200Y-97419047D02*
X118004819Y-97323809D01*
X118004819Y-97323809D02*
X118004819Y-97133333D01*
X118004819Y-97133333D02*
X117957200Y-97038095D01*
X117957200Y-97038095D02*
X117909580Y-96990476D01*
X117909580Y-96990476D02*
X117814342Y-96942857D01*
X117814342Y-96942857D02*
X117576247Y-96942857D01*
X117576247Y-96942857D02*
X117481009Y-96990476D01*
X117481009Y-96990476D02*
X117433390Y-97038095D01*
X117433390Y-97038095D02*
X117385771Y-97133333D01*
X117385771Y-97133333D02*
X117385771Y-97323809D01*
X117385771Y-97323809D02*
X117433390Y-97419047D01*
X117433390Y-97419047D02*
X117481009Y-97466666D01*
X117481009Y-97466666D02*
X117576247Y-97514285D01*
X117004819Y-96038095D02*
X117004819Y-96514285D01*
X117004819Y-96514285D02*
X117481009Y-96561904D01*
X117481009Y-96561904D02*
X117433390Y-96514285D01*
X117433390Y-96514285D02*
X117385771Y-96419047D01*
X117385771Y-96419047D02*
X117385771Y-96180952D01*
X117385771Y-96180952D02*
X117433390Y-96085714D01*
X117433390Y-96085714D02*
X117481009Y-96038095D01*
X117481009Y-96038095D02*
X117576247Y-95990476D01*
X117576247Y-95990476D02*
X117814342Y-95990476D01*
X117814342Y-95990476D02*
X117909580Y-96038095D01*
X117909580Y-96038095D02*
X117957200Y-96085714D01*
X117957200Y-96085714D02*
X118004819Y-96180952D01*
X118004819Y-96180952D02*
X118004819Y-96419047D01*
X118004819Y-96419047D02*
X117957200Y-96514285D01*
X117957200Y-96514285D02*
X117909580Y-96561904D01*
X117004819Y-95371428D02*
X117004819Y-95276190D01*
X117004819Y-95276190D02*
X117052438Y-95180952D01*
X117052438Y-95180952D02*
X117100057Y-95133333D01*
X117100057Y-95133333D02*
X117195295Y-95085714D01*
X117195295Y-95085714D02*
X117385771Y-95038095D01*
X117385771Y-95038095D02*
X117623866Y-95038095D01*
X117623866Y-95038095D02*
X117814342Y-95085714D01*
X117814342Y-95085714D02*
X117909580Y-95133333D01*
X117909580Y-95133333D02*
X117957200Y-95180952D01*
X117957200Y-95180952D02*
X118004819Y-95276190D01*
X118004819Y-95276190D02*
X118004819Y-95371428D01*
X118004819Y-95371428D02*
X117957200Y-95466666D01*
X117957200Y-95466666D02*
X117909580Y-95514285D01*
X117909580Y-95514285D02*
X117814342Y-95561904D01*
X117814342Y-95561904D02*
X117623866Y-95609523D01*
X117623866Y-95609523D02*
X117385771Y-95609523D01*
X117385771Y-95609523D02*
X117195295Y-95561904D01*
X117195295Y-95561904D02*
X117100057Y-95514285D01*
X117100057Y-95514285D02*
X117052438Y-95466666D01*
X117052438Y-95466666D02*
X117004819Y-95371428D01*
X117623866Y-94609523D02*
X117623866Y-93847619D01*
X117004819Y-93180952D02*
X117004819Y-93085714D01*
X117004819Y-93085714D02*
X117052438Y-92990476D01*
X117052438Y-92990476D02*
X117100057Y-92942857D01*
X117100057Y-92942857D02*
X117195295Y-92895238D01*
X117195295Y-92895238D02*
X117385771Y-92847619D01*
X117385771Y-92847619D02*
X117623866Y-92847619D01*
X117623866Y-92847619D02*
X117814342Y-92895238D01*
X117814342Y-92895238D02*
X117909580Y-92942857D01*
X117909580Y-92942857D02*
X117957200Y-92990476D01*
X117957200Y-92990476D02*
X118004819Y-93085714D01*
X118004819Y-93085714D02*
X118004819Y-93180952D01*
X118004819Y-93180952D02*
X117957200Y-93276190D01*
X117957200Y-93276190D02*
X117909580Y-93323809D01*
X117909580Y-93323809D02*
X117814342Y-93371428D01*
X117814342Y-93371428D02*
X117623866Y-93419047D01*
X117623866Y-93419047D02*
X117385771Y-93419047D01*
X117385771Y-93419047D02*
X117195295Y-93371428D01*
X117195295Y-93371428D02*
X117100057Y-93323809D01*
X117100057Y-93323809D02*
X117052438Y-93276190D01*
X117052438Y-93276190D02*
X117004819Y-93180952D01*
X127785905Y-107642819D02*
X127785905Y-106642819D01*
X127785905Y-106642819D02*
X128024000Y-106642819D01*
X128024000Y-106642819D02*
X128166857Y-106690438D01*
X128166857Y-106690438D02*
X128262095Y-106785676D01*
X128262095Y-106785676D02*
X128309714Y-106880914D01*
X128309714Y-106880914D02*
X128357333Y-107071390D01*
X128357333Y-107071390D02*
X128357333Y-107214247D01*
X128357333Y-107214247D02*
X128309714Y-107404723D01*
X128309714Y-107404723D02*
X128262095Y-107499961D01*
X128262095Y-107499961D02*
X128166857Y-107595200D01*
X128166857Y-107595200D02*
X128024000Y-107642819D01*
X128024000Y-107642819D02*
X127785905Y-107642819D01*
X129309714Y-107642819D02*
X128738286Y-107642819D01*
X129024000Y-107642819D02*
X129024000Y-106642819D01*
X129024000Y-106642819D02*
X128928762Y-106785676D01*
X128928762Y-106785676D02*
X128833524Y-106880914D01*
X128833524Y-106880914D02*
X128738286Y-106928533D01*
X130628000Y-107595200D02*
X130770857Y-107642819D01*
X130770857Y-107642819D02*
X131008952Y-107642819D01*
X131008952Y-107642819D02*
X131104190Y-107595200D01*
X131104190Y-107595200D02*
X131151809Y-107547580D01*
X131151809Y-107547580D02*
X131199428Y-107452342D01*
X131199428Y-107452342D02*
X131199428Y-107357104D01*
X131199428Y-107357104D02*
X131151809Y-107261866D01*
X131151809Y-107261866D02*
X131104190Y-107214247D01*
X131104190Y-107214247D02*
X131008952Y-107166628D01*
X131008952Y-107166628D02*
X130818476Y-107119009D01*
X130818476Y-107119009D02*
X130723238Y-107071390D01*
X130723238Y-107071390D02*
X130675619Y-107023771D01*
X130675619Y-107023771D02*
X130628000Y-106928533D01*
X130628000Y-106928533D02*
X130628000Y-106833295D01*
X130628000Y-106833295D02*
X130675619Y-106738057D01*
X130675619Y-106738057D02*
X130723238Y-106690438D01*
X130723238Y-106690438D02*
X130818476Y-106642819D01*
X130818476Y-106642819D02*
X131056571Y-106642819D01*
X131056571Y-106642819D02*
X131199428Y-106690438D01*
X131485143Y-106642819D02*
X132056571Y-106642819D01*
X131770857Y-107642819D02*
X131770857Y-106642819D01*
X132247048Y-106642819D02*
X132818476Y-106642819D01*
X132532762Y-107642819D02*
X132532762Y-106642819D01*
X133151810Y-107642819D02*
X133151810Y-106642819D01*
X133151810Y-107119009D02*
X133723238Y-107119009D01*
X133723238Y-107642819D02*
X133723238Y-106642819D01*
X134723238Y-107642819D02*
X134151810Y-107642819D01*
X134437524Y-107642819D02*
X134437524Y-106642819D01*
X134437524Y-106642819D02*
X134342286Y-106785676D01*
X134342286Y-106785676D02*
X134247048Y-106880914D01*
X134247048Y-106880914D02*
X134151810Y-106928533D01*
X135628000Y-106642819D02*
X135151810Y-106642819D01*
X135151810Y-106642819D02*
X135104191Y-107119009D01*
X135104191Y-107119009D02*
X135151810Y-107071390D01*
X135151810Y-107071390D02*
X135247048Y-107023771D01*
X135247048Y-107023771D02*
X135485143Y-107023771D01*
X135485143Y-107023771D02*
X135580381Y-107071390D01*
X135580381Y-107071390D02*
X135628000Y-107119009D01*
X135628000Y-107119009D02*
X135675619Y-107214247D01*
X135675619Y-107214247D02*
X135675619Y-107452342D01*
X135675619Y-107452342D02*
X135628000Y-107547580D01*
X135628000Y-107547580D02*
X135580381Y-107595200D01*
X135580381Y-107595200D02*
X135485143Y-107642819D01*
X135485143Y-107642819D02*
X135247048Y-107642819D01*
X135247048Y-107642819D02*
X135151810Y-107595200D01*
X135151810Y-107595200D02*
X135104191Y-107547580D01*
X136675619Y-107642819D02*
X136342286Y-107166628D01*
X136104191Y-107642819D02*
X136104191Y-106642819D01*
X136104191Y-106642819D02*
X136485143Y-106642819D01*
X136485143Y-106642819D02*
X136580381Y-106690438D01*
X136580381Y-106690438D02*
X136628000Y-106738057D01*
X136628000Y-106738057D02*
X136675619Y-106833295D01*
X136675619Y-106833295D02*
X136675619Y-106976152D01*
X136675619Y-106976152D02*
X136628000Y-107071390D01*
X136628000Y-107071390D02*
X136580381Y-107119009D01*
X136580381Y-107119009D02*
X136485143Y-107166628D01*
X136485143Y-107166628D02*
X136104191Y-107166628D01*
X137770857Y-107738057D02*
X137675619Y-107690438D01*
X137675619Y-107690438D02*
X137580381Y-107595200D01*
X137580381Y-107595200D02*
X137437524Y-107452342D01*
X137437524Y-107452342D02*
X137342286Y-107404723D01*
X137342286Y-107404723D02*
X137247048Y-107404723D01*
X137294667Y-107642819D02*
X137199429Y-107595200D01*
X137199429Y-107595200D02*
X137104191Y-107499961D01*
X137104191Y-107499961D02*
X137056572Y-107309485D01*
X137056572Y-107309485D02*
X137056572Y-106976152D01*
X137056572Y-106976152D02*
X137104191Y-106785676D01*
X137104191Y-106785676D02*
X137199429Y-106690438D01*
X137199429Y-106690438D02*
X137294667Y-106642819D01*
X137294667Y-106642819D02*
X137485143Y-106642819D01*
X137485143Y-106642819D02*
X137580381Y-106690438D01*
X137580381Y-106690438D02*
X137675619Y-106785676D01*
X137675619Y-106785676D02*
X137723238Y-106976152D01*
X137723238Y-106976152D02*
X137723238Y-107309485D01*
X137723238Y-107309485D02*
X137675619Y-107499961D01*
X137675619Y-107499961D02*
X137580381Y-107595200D01*
X137580381Y-107595200D02*
X137485143Y-107642819D01*
X137485143Y-107642819D02*
X137294667Y-107642819D01*
X138342286Y-106642819D02*
X138437524Y-106642819D01*
X138437524Y-106642819D02*
X138532762Y-106690438D01*
X138532762Y-106690438D02*
X138580381Y-106738057D01*
X138580381Y-106738057D02*
X138628000Y-106833295D01*
X138628000Y-106833295D02*
X138675619Y-107023771D01*
X138675619Y-107023771D02*
X138675619Y-107261866D01*
X138675619Y-107261866D02*
X138628000Y-107452342D01*
X138628000Y-107452342D02*
X138580381Y-107547580D01*
X138580381Y-107547580D02*
X138532762Y-107595200D01*
X138532762Y-107595200D02*
X138437524Y-107642819D01*
X138437524Y-107642819D02*
X138342286Y-107642819D01*
X138342286Y-107642819D02*
X138247048Y-107595200D01*
X138247048Y-107595200D02*
X138199429Y-107547580D01*
X138199429Y-107547580D02*
X138151810Y-107452342D01*
X138151810Y-107452342D02*
X138104191Y-107261866D01*
X138104191Y-107261866D02*
X138104191Y-107023771D01*
X138104191Y-107023771D02*
X138151810Y-106833295D01*
X138151810Y-106833295D02*
X138199429Y-106738057D01*
X138199429Y-106738057D02*
X138247048Y-106690438D01*
X138247048Y-106690438D02*
X138342286Y-106642819D01*
X139532762Y-106642819D02*
X139342286Y-106642819D01*
X139342286Y-106642819D02*
X139247048Y-106690438D01*
X139247048Y-106690438D02*
X139199429Y-106738057D01*
X139199429Y-106738057D02*
X139104191Y-106880914D01*
X139104191Y-106880914D02*
X139056572Y-107071390D01*
X139056572Y-107071390D02*
X139056572Y-107452342D01*
X139056572Y-107452342D02*
X139104191Y-107547580D01*
X139104191Y-107547580D02*
X139151810Y-107595200D01*
X139151810Y-107595200D02*
X139247048Y-107642819D01*
X139247048Y-107642819D02*
X139437524Y-107642819D01*
X139437524Y-107642819D02*
X139532762Y-107595200D01*
X139532762Y-107595200D02*
X139580381Y-107547580D01*
X139580381Y-107547580D02*
X139628000Y-107452342D01*
X139628000Y-107452342D02*
X139628000Y-107214247D01*
X139628000Y-107214247D02*
X139580381Y-107119009D01*
X139580381Y-107119009D02*
X139532762Y-107071390D01*
X139532762Y-107071390D02*
X139437524Y-107023771D01*
X139437524Y-107023771D02*
X139247048Y-107023771D01*
X139247048Y-107023771D02*
X139151810Y-107071390D01*
X139151810Y-107071390D02*
X139104191Y-107119009D01*
X139104191Y-107119009D02*
X139056572Y-107214247D01*
X148677333Y-72273580D02*
X148629714Y-72321200D01*
X148629714Y-72321200D02*
X148486857Y-72368819D01*
X148486857Y-72368819D02*
X148391619Y-72368819D01*
X148391619Y-72368819D02*
X148248762Y-72321200D01*
X148248762Y-72321200D02*
X148153524Y-72225961D01*
X148153524Y-72225961D02*
X148105905Y-72130723D01*
X148105905Y-72130723D02*
X148058286Y-71940247D01*
X148058286Y-71940247D02*
X148058286Y-71797390D01*
X148058286Y-71797390D02*
X148105905Y-71606914D01*
X148105905Y-71606914D02*
X148153524Y-71511676D01*
X148153524Y-71511676D02*
X148248762Y-71416438D01*
X148248762Y-71416438D02*
X148391619Y-71368819D01*
X148391619Y-71368819D02*
X148486857Y-71368819D01*
X148486857Y-71368819D02*
X148629714Y-71416438D01*
X148629714Y-71416438D02*
X148677333Y-71464057D01*
X149534476Y-71368819D02*
X149344000Y-71368819D01*
X149344000Y-71368819D02*
X149248762Y-71416438D01*
X149248762Y-71416438D02*
X149201143Y-71464057D01*
X149201143Y-71464057D02*
X149105905Y-71606914D01*
X149105905Y-71606914D02*
X149058286Y-71797390D01*
X149058286Y-71797390D02*
X149058286Y-72178342D01*
X149058286Y-72178342D02*
X149105905Y-72273580D01*
X149105905Y-72273580D02*
X149153524Y-72321200D01*
X149153524Y-72321200D02*
X149248762Y-72368819D01*
X149248762Y-72368819D02*
X149439238Y-72368819D01*
X149439238Y-72368819D02*
X149534476Y-72321200D01*
X149534476Y-72321200D02*
X149582095Y-72273580D01*
X149582095Y-72273580D02*
X149629714Y-72178342D01*
X149629714Y-72178342D02*
X149629714Y-71940247D01*
X149629714Y-71940247D02*
X149582095Y-71845009D01*
X149582095Y-71845009D02*
X149534476Y-71797390D01*
X149534476Y-71797390D02*
X149439238Y-71749771D01*
X149439238Y-71749771D02*
X149248762Y-71749771D01*
X149248762Y-71749771D02*
X149153524Y-71797390D01*
X149153524Y-71797390D02*
X149105905Y-71845009D01*
X149105905Y-71845009D02*
X149058286Y-71940247D01*
X147772571Y-63668819D02*
X147201143Y-63668819D01*
X147486857Y-63668819D02*
X147486857Y-62668819D01*
X147486857Y-62668819D02*
X147391619Y-62811676D01*
X147391619Y-62811676D02*
X147296381Y-62906914D01*
X147296381Y-62906914D02*
X147201143Y-62954533D01*
X148391619Y-62668819D02*
X148486857Y-62668819D01*
X148486857Y-62668819D02*
X148582095Y-62716438D01*
X148582095Y-62716438D02*
X148629714Y-62764057D01*
X148629714Y-62764057D02*
X148677333Y-62859295D01*
X148677333Y-62859295D02*
X148724952Y-63049771D01*
X148724952Y-63049771D02*
X148724952Y-63287866D01*
X148724952Y-63287866D02*
X148677333Y-63478342D01*
X148677333Y-63478342D02*
X148629714Y-63573580D01*
X148629714Y-63573580D02*
X148582095Y-63621200D01*
X148582095Y-63621200D02*
X148486857Y-63668819D01*
X148486857Y-63668819D02*
X148391619Y-63668819D01*
X148391619Y-63668819D02*
X148296381Y-63621200D01*
X148296381Y-63621200D02*
X148248762Y-63573580D01*
X148248762Y-63573580D02*
X148201143Y-63478342D01*
X148201143Y-63478342D02*
X148153524Y-63287866D01*
X148153524Y-63287866D02*
X148153524Y-63049771D01*
X148153524Y-63049771D02*
X148201143Y-62859295D01*
X148201143Y-62859295D02*
X148248762Y-62764057D01*
X148248762Y-62764057D02*
X148296381Y-62716438D01*
X148296381Y-62716438D02*
X148391619Y-62668819D01*
X149582095Y-63002152D02*
X149582095Y-63668819D01*
X149153524Y-63002152D02*
X149153524Y-63525961D01*
X149153524Y-63525961D02*
X149201143Y-63621200D01*
X149201143Y-63621200D02*
X149296381Y-63668819D01*
X149296381Y-63668819D02*
X149439238Y-63668819D01*
X149439238Y-63668819D02*
X149534476Y-63621200D01*
X149534476Y-63621200D02*
X149582095Y-63573580D01*
X150391619Y-63145009D02*
X150058286Y-63145009D01*
X150058286Y-63668819D02*
X150058286Y-62668819D01*
X150058286Y-62668819D02*
X150534476Y-62668819D01*
X148677333Y-78351580D02*
X148629714Y-78399200D01*
X148629714Y-78399200D02*
X148486857Y-78446819D01*
X148486857Y-78446819D02*
X148391619Y-78446819D01*
X148391619Y-78446819D02*
X148248762Y-78399200D01*
X148248762Y-78399200D02*
X148153524Y-78303961D01*
X148153524Y-78303961D02*
X148105905Y-78208723D01*
X148105905Y-78208723D02*
X148058286Y-78018247D01*
X148058286Y-78018247D02*
X148058286Y-77875390D01*
X148058286Y-77875390D02*
X148105905Y-77684914D01*
X148105905Y-77684914D02*
X148153524Y-77589676D01*
X148153524Y-77589676D02*
X148248762Y-77494438D01*
X148248762Y-77494438D02*
X148391619Y-77446819D01*
X148391619Y-77446819D02*
X148486857Y-77446819D01*
X148486857Y-77446819D02*
X148629714Y-77494438D01*
X148629714Y-77494438D02*
X148677333Y-77542057D01*
X149582095Y-77446819D02*
X149105905Y-77446819D01*
X149105905Y-77446819D02*
X149058286Y-77923009D01*
X149058286Y-77923009D02*
X149105905Y-77875390D01*
X149105905Y-77875390D02*
X149201143Y-77827771D01*
X149201143Y-77827771D02*
X149439238Y-77827771D01*
X149439238Y-77827771D02*
X149534476Y-77875390D01*
X149534476Y-77875390D02*
X149582095Y-77923009D01*
X149582095Y-77923009D02*
X149629714Y-78018247D01*
X149629714Y-78018247D02*
X149629714Y-78256342D01*
X149629714Y-78256342D02*
X149582095Y-78351580D01*
X149582095Y-78351580D02*
X149534476Y-78399200D01*
X149534476Y-78399200D02*
X149439238Y-78446819D01*
X149439238Y-78446819D02*
X149201143Y-78446819D01*
X149201143Y-78446819D02*
X149105905Y-78399200D01*
X149105905Y-78399200D02*
X149058286Y-78351580D01*
X147296380Y-73846819D02*
X146724952Y-73846819D01*
X147010666Y-73846819D02*
X147010666Y-72846819D01*
X147010666Y-72846819D02*
X146915428Y-72989676D01*
X146915428Y-72989676D02*
X146820190Y-73084914D01*
X146820190Y-73084914D02*
X146724952Y-73132533D01*
X147915428Y-72846819D02*
X148010666Y-72846819D01*
X148010666Y-72846819D02*
X148105904Y-72894438D01*
X148105904Y-72894438D02*
X148153523Y-72942057D01*
X148153523Y-72942057D02*
X148201142Y-73037295D01*
X148201142Y-73037295D02*
X148248761Y-73227771D01*
X148248761Y-73227771D02*
X148248761Y-73465866D01*
X148248761Y-73465866D02*
X148201142Y-73656342D01*
X148201142Y-73656342D02*
X148153523Y-73751580D01*
X148153523Y-73751580D02*
X148105904Y-73799200D01*
X148105904Y-73799200D02*
X148010666Y-73846819D01*
X148010666Y-73846819D02*
X147915428Y-73846819D01*
X147915428Y-73846819D02*
X147820190Y-73799200D01*
X147820190Y-73799200D02*
X147772571Y-73751580D01*
X147772571Y-73751580D02*
X147724952Y-73656342D01*
X147724952Y-73656342D02*
X147677333Y-73465866D01*
X147677333Y-73465866D02*
X147677333Y-73227771D01*
X147677333Y-73227771D02*
X147724952Y-73037295D01*
X147724952Y-73037295D02*
X147772571Y-72942057D01*
X147772571Y-72942057D02*
X147820190Y-72894438D01*
X147820190Y-72894438D02*
X147915428Y-72846819D01*
X148867809Y-72846819D02*
X148963047Y-72846819D01*
X148963047Y-72846819D02*
X149058285Y-72894438D01*
X149058285Y-72894438D02*
X149105904Y-72942057D01*
X149105904Y-72942057D02*
X149153523Y-73037295D01*
X149153523Y-73037295D02*
X149201142Y-73227771D01*
X149201142Y-73227771D02*
X149201142Y-73465866D01*
X149201142Y-73465866D02*
X149153523Y-73656342D01*
X149153523Y-73656342D02*
X149105904Y-73751580D01*
X149105904Y-73751580D02*
X149058285Y-73799200D01*
X149058285Y-73799200D02*
X148963047Y-73846819D01*
X148963047Y-73846819D02*
X148867809Y-73846819D01*
X148867809Y-73846819D02*
X148772571Y-73799200D01*
X148772571Y-73799200D02*
X148724952Y-73751580D01*
X148724952Y-73751580D02*
X148677333Y-73656342D01*
X148677333Y-73656342D02*
X148629714Y-73465866D01*
X148629714Y-73465866D02*
X148629714Y-73227771D01*
X148629714Y-73227771D02*
X148677333Y-73037295D01*
X148677333Y-73037295D02*
X148724952Y-72942057D01*
X148724952Y-72942057D02*
X148772571Y-72894438D01*
X148772571Y-72894438D02*
X148867809Y-72846819D01*
X149629714Y-73180152D02*
X149629714Y-73846819D01*
X149629714Y-73275390D02*
X149677333Y-73227771D01*
X149677333Y-73227771D02*
X149772571Y-73180152D01*
X149772571Y-73180152D02*
X149915428Y-73180152D01*
X149915428Y-73180152D02*
X150010666Y-73227771D01*
X150010666Y-73227771D02*
X150058285Y-73323009D01*
X150058285Y-73323009D02*
X150058285Y-73846819D01*
X150867809Y-73323009D02*
X150534476Y-73323009D01*
X150534476Y-73846819D02*
X150534476Y-72846819D01*
X150534476Y-72846819D02*
X151010666Y-72846819D01*
X170990833Y-74259580D02*
X170943214Y-74307200D01*
X170943214Y-74307200D02*
X170800357Y-74354819D01*
X170800357Y-74354819D02*
X170705119Y-74354819D01*
X170705119Y-74354819D02*
X170562262Y-74307200D01*
X170562262Y-74307200D02*
X170467024Y-74211961D01*
X170467024Y-74211961D02*
X170419405Y-74116723D01*
X170419405Y-74116723D02*
X170371786Y-73926247D01*
X170371786Y-73926247D02*
X170371786Y-73783390D01*
X170371786Y-73783390D02*
X170419405Y-73592914D01*
X170419405Y-73592914D02*
X170467024Y-73497676D01*
X170467024Y-73497676D02*
X170562262Y-73402438D01*
X170562262Y-73402438D02*
X170705119Y-73354819D01*
X170705119Y-73354819D02*
X170800357Y-73354819D01*
X170800357Y-73354819D02*
X170943214Y-73402438D01*
X170943214Y-73402438D02*
X170990833Y-73450057D01*
X171847976Y-73688152D02*
X171847976Y-74354819D01*
X171609881Y-73307200D02*
X171371786Y-74021485D01*
X171371786Y-74021485D02*
X171990833Y-74021485D01*
X169609880Y-78954819D02*
X169038452Y-78954819D01*
X169324166Y-78954819D02*
X169324166Y-77954819D01*
X169324166Y-77954819D02*
X169228928Y-78097676D01*
X169228928Y-78097676D02*
X169133690Y-78192914D01*
X169133690Y-78192914D02*
X169038452Y-78240533D01*
X170228928Y-77954819D02*
X170324166Y-77954819D01*
X170324166Y-77954819D02*
X170419404Y-78002438D01*
X170419404Y-78002438D02*
X170467023Y-78050057D01*
X170467023Y-78050057D02*
X170514642Y-78145295D01*
X170514642Y-78145295D02*
X170562261Y-78335771D01*
X170562261Y-78335771D02*
X170562261Y-78573866D01*
X170562261Y-78573866D02*
X170514642Y-78764342D01*
X170514642Y-78764342D02*
X170467023Y-78859580D01*
X170467023Y-78859580D02*
X170419404Y-78907200D01*
X170419404Y-78907200D02*
X170324166Y-78954819D01*
X170324166Y-78954819D02*
X170228928Y-78954819D01*
X170228928Y-78954819D02*
X170133690Y-78907200D01*
X170133690Y-78907200D02*
X170086071Y-78859580D01*
X170086071Y-78859580D02*
X170038452Y-78764342D01*
X170038452Y-78764342D02*
X169990833Y-78573866D01*
X169990833Y-78573866D02*
X169990833Y-78335771D01*
X169990833Y-78335771D02*
X170038452Y-78145295D01*
X170038452Y-78145295D02*
X170086071Y-78050057D01*
X170086071Y-78050057D02*
X170133690Y-78002438D01*
X170133690Y-78002438D02*
X170228928Y-77954819D01*
X171181309Y-77954819D02*
X171276547Y-77954819D01*
X171276547Y-77954819D02*
X171371785Y-78002438D01*
X171371785Y-78002438D02*
X171419404Y-78050057D01*
X171419404Y-78050057D02*
X171467023Y-78145295D01*
X171467023Y-78145295D02*
X171514642Y-78335771D01*
X171514642Y-78335771D02*
X171514642Y-78573866D01*
X171514642Y-78573866D02*
X171467023Y-78764342D01*
X171467023Y-78764342D02*
X171419404Y-78859580D01*
X171419404Y-78859580D02*
X171371785Y-78907200D01*
X171371785Y-78907200D02*
X171276547Y-78954819D01*
X171276547Y-78954819D02*
X171181309Y-78954819D01*
X171181309Y-78954819D02*
X171086071Y-78907200D01*
X171086071Y-78907200D02*
X171038452Y-78859580D01*
X171038452Y-78859580D02*
X170990833Y-78764342D01*
X170990833Y-78764342D02*
X170943214Y-78573866D01*
X170943214Y-78573866D02*
X170943214Y-78335771D01*
X170943214Y-78335771D02*
X170990833Y-78145295D01*
X170990833Y-78145295D02*
X171038452Y-78050057D01*
X171038452Y-78050057D02*
X171086071Y-78002438D01*
X171086071Y-78002438D02*
X171181309Y-77954819D01*
X171943214Y-78288152D02*
X171943214Y-78954819D01*
X171943214Y-78383390D02*
X171990833Y-78335771D01*
X171990833Y-78335771D02*
X172086071Y-78288152D01*
X172086071Y-78288152D02*
X172228928Y-78288152D01*
X172228928Y-78288152D02*
X172324166Y-78335771D01*
X172324166Y-78335771D02*
X172371785Y-78431009D01*
X172371785Y-78431009D02*
X172371785Y-78954819D01*
X173181309Y-78431009D02*
X172847976Y-78431009D01*
X172847976Y-78954819D02*
X172847976Y-77954819D01*
X172847976Y-77954819D02*
X173324166Y-77954819D01*
X162393333Y-80909580D02*
X162345714Y-80957200D01*
X162345714Y-80957200D02*
X162202857Y-81004819D01*
X162202857Y-81004819D02*
X162107619Y-81004819D01*
X162107619Y-81004819D02*
X161964762Y-80957200D01*
X161964762Y-80957200D02*
X161869524Y-80861961D01*
X161869524Y-80861961D02*
X161821905Y-80766723D01*
X161821905Y-80766723D02*
X161774286Y-80576247D01*
X161774286Y-80576247D02*
X161774286Y-80433390D01*
X161774286Y-80433390D02*
X161821905Y-80242914D01*
X161821905Y-80242914D02*
X161869524Y-80147676D01*
X161869524Y-80147676D02*
X161964762Y-80052438D01*
X161964762Y-80052438D02*
X162107619Y-80004819D01*
X162107619Y-80004819D02*
X162202857Y-80004819D01*
X162202857Y-80004819D02*
X162345714Y-80052438D01*
X162345714Y-80052438D02*
X162393333Y-80100057D01*
X162726667Y-80004819D02*
X163345714Y-80004819D01*
X163345714Y-80004819D02*
X163012381Y-80385771D01*
X163012381Y-80385771D02*
X163155238Y-80385771D01*
X163155238Y-80385771D02*
X163250476Y-80433390D01*
X163250476Y-80433390D02*
X163298095Y-80481009D01*
X163298095Y-80481009D02*
X163345714Y-80576247D01*
X163345714Y-80576247D02*
X163345714Y-80814342D01*
X163345714Y-80814342D02*
X163298095Y-80909580D01*
X163298095Y-80909580D02*
X163250476Y-80957200D01*
X163250476Y-80957200D02*
X163155238Y-81004819D01*
X163155238Y-81004819D02*
X162869524Y-81004819D01*
X162869524Y-81004819D02*
X162774286Y-80957200D01*
X162774286Y-80957200D02*
X162726667Y-80909580D01*
X161488571Y-72304819D02*
X160917143Y-72304819D01*
X161202857Y-72304819D02*
X161202857Y-71304819D01*
X161202857Y-71304819D02*
X161107619Y-71447676D01*
X161107619Y-71447676D02*
X161012381Y-71542914D01*
X161012381Y-71542914D02*
X160917143Y-71590533D01*
X162107619Y-71304819D02*
X162202857Y-71304819D01*
X162202857Y-71304819D02*
X162298095Y-71352438D01*
X162298095Y-71352438D02*
X162345714Y-71400057D01*
X162345714Y-71400057D02*
X162393333Y-71495295D01*
X162393333Y-71495295D02*
X162440952Y-71685771D01*
X162440952Y-71685771D02*
X162440952Y-71923866D01*
X162440952Y-71923866D02*
X162393333Y-72114342D01*
X162393333Y-72114342D02*
X162345714Y-72209580D01*
X162345714Y-72209580D02*
X162298095Y-72257200D01*
X162298095Y-72257200D02*
X162202857Y-72304819D01*
X162202857Y-72304819D02*
X162107619Y-72304819D01*
X162107619Y-72304819D02*
X162012381Y-72257200D01*
X162012381Y-72257200D02*
X161964762Y-72209580D01*
X161964762Y-72209580D02*
X161917143Y-72114342D01*
X161917143Y-72114342D02*
X161869524Y-71923866D01*
X161869524Y-71923866D02*
X161869524Y-71685771D01*
X161869524Y-71685771D02*
X161917143Y-71495295D01*
X161917143Y-71495295D02*
X161964762Y-71400057D01*
X161964762Y-71400057D02*
X162012381Y-71352438D01*
X162012381Y-71352438D02*
X162107619Y-71304819D01*
X163298095Y-71638152D02*
X163298095Y-72304819D01*
X162869524Y-71638152D02*
X162869524Y-72161961D01*
X162869524Y-72161961D02*
X162917143Y-72257200D01*
X162917143Y-72257200D02*
X163012381Y-72304819D01*
X163012381Y-72304819D02*
X163155238Y-72304819D01*
X163155238Y-72304819D02*
X163250476Y-72257200D01*
X163250476Y-72257200D02*
X163298095Y-72209580D01*
X164107619Y-71781009D02*
X163774286Y-71781009D01*
X163774286Y-72304819D02*
X163774286Y-71304819D01*
X163774286Y-71304819D02*
X164250476Y-71304819D01*
X188809333Y-81131580D02*
X188761714Y-81179200D01*
X188761714Y-81179200D02*
X188618857Y-81226819D01*
X188618857Y-81226819D02*
X188523619Y-81226819D01*
X188523619Y-81226819D02*
X188380762Y-81179200D01*
X188380762Y-81179200D02*
X188285524Y-81083961D01*
X188285524Y-81083961D02*
X188237905Y-80988723D01*
X188237905Y-80988723D02*
X188190286Y-80798247D01*
X188190286Y-80798247D02*
X188190286Y-80655390D01*
X188190286Y-80655390D02*
X188237905Y-80464914D01*
X188237905Y-80464914D02*
X188285524Y-80369676D01*
X188285524Y-80369676D02*
X188380762Y-80274438D01*
X188380762Y-80274438D02*
X188523619Y-80226819D01*
X188523619Y-80226819D02*
X188618857Y-80226819D01*
X188618857Y-80226819D02*
X188761714Y-80274438D01*
X188761714Y-80274438D02*
X188809333Y-80322057D01*
X189190286Y-80322057D02*
X189237905Y-80274438D01*
X189237905Y-80274438D02*
X189333143Y-80226819D01*
X189333143Y-80226819D02*
X189571238Y-80226819D01*
X189571238Y-80226819D02*
X189666476Y-80274438D01*
X189666476Y-80274438D02*
X189714095Y-80322057D01*
X189714095Y-80322057D02*
X189761714Y-80417295D01*
X189761714Y-80417295D02*
X189761714Y-80512533D01*
X189761714Y-80512533D02*
X189714095Y-80655390D01*
X189714095Y-80655390D02*
X189142667Y-81226819D01*
X189142667Y-81226819D02*
X189761714Y-81226819D01*
X187682380Y-84909819D02*
X187110952Y-84909819D01*
X187396666Y-84909819D02*
X187396666Y-83909819D01*
X187396666Y-83909819D02*
X187301428Y-84052676D01*
X187301428Y-84052676D02*
X187206190Y-84147914D01*
X187206190Y-84147914D02*
X187110952Y-84195533D01*
X188301428Y-83909819D02*
X188396666Y-83909819D01*
X188396666Y-83909819D02*
X188491904Y-83957438D01*
X188491904Y-83957438D02*
X188539523Y-84005057D01*
X188539523Y-84005057D02*
X188587142Y-84100295D01*
X188587142Y-84100295D02*
X188634761Y-84290771D01*
X188634761Y-84290771D02*
X188634761Y-84528866D01*
X188634761Y-84528866D02*
X188587142Y-84719342D01*
X188587142Y-84719342D02*
X188539523Y-84814580D01*
X188539523Y-84814580D02*
X188491904Y-84862200D01*
X188491904Y-84862200D02*
X188396666Y-84909819D01*
X188396666Y-84909819D02*
X188301428Y-84909819D01*
X188301428Y-84909819D02*
X188206190Y-84862200D01*
X188206190Y-84862200D02*
X188158571Y-84814580D01*
X188158571Y-84814580D02*
X188110952Y-84719342D01*
X188110952Y-84719342D02*
X188063333Y-84528866D01*
X188063333Y-84528866D02*
X188063333Y-84290771D01*
X188063333Y-84290771D02*
X188110952Y-84100295D01*
X188110952Y-84100295D02*
X188158571Y-84005057D01*
X188158571Y-84005057D02*
X188206190Y-83957438D01*
X188206190Y-83957438D02*
X188301428Y-83909819D01*
X189253809Y-83909819D02*
X189349047Y-83909819D01*
X189349047Y-83909819D02*
X189444285Y-83957438D01*
X189444285Y-83957438D02*
X189491904Y-84005057D01*
X189491904Y-84005057D02*
X189539523Y-84100295D01*
X189539523Y-84100295D02*
X189587142Y-84290771D01*
X189587142Y-84290771D02*
X189587142Y-84528866D01*
X189587142Y-84528866D02*
X189539523Y-84719342D01*
X189539523Y-84719342D02*
X189491904Y-84814580D01*
X189491904Y-84814580D02*
X189444285Y-84862200D01*
X189444285Y-84862200D02*
X189349047Y-84909819D01*
X189349047Y-84909819D02*
X189253809Y-84909819D01*
X189253809Y-84909819D02*
X189158571Y-84862200D01*
X189158571Y-84862200D02*
X189110952Y-84814580D01*
X189110952Y-84814580D02*
X189063333Y-84719342D01*
X189063333Y-84719342D02*
X189015714Y-84528866D01*
X189015714Y-84528866D02*
X189015714Y-84290771D01*
X189015714Y-84290771D02*
X189063333Y-84100295D01*
X189063333Y-84100295D02*
X189110952Y-84005057D01*
X189110952Y-84005057D02*
X189158571Y-83957438D01*
X189158571Y-83957438D02*
X189253809Y-83909819D01*
X190444285Y-84243152D02*
X190444285Y-84909819D01*
X190015714Y-84243152D02*
X190015714Y-84766961D01*
X190015714Y-84766961D02*
X190063333Y-84862200D01*
X190063333Y-84862200D02*
X190158571Y-84909819D01*
X190158571Y-84909819D02*
X190301428Y-84909819D01*
X190301428Y-84909819D02*
X190396666Y-84862200D01*
X190396666Y-84862200D02*
X190444285Y-84814580D01*
X191253809Y-84386009D02*
X190920476Y-84386009D01*
X190920476Y-84909819D02*
X190920476Y-83909819D01*
X190920476Y-83909819D02*
X191396666Y-83909819D01*
X131953333Y-81993580D02*
X131905714Y-82041200D01*
X131905714Y-82041200D02*
X131762857Y-82088819D01*
X131762857Y-82088819D02*
X131667619Y-82088819D01*
X131667619Y-82088819D02*
X131524762Y-82041200D01*
X131524762Y-82041200D02*
X131429524Y-81945961D01*
X131429524Y-81945961D02*
X131381905Y-81850723D01*
X131381905Y-81850723D02*
X131334286Y-81660247D01*
X131334286Y-81660247D02*
X131334286Y-81517390D01*
X131334286Y-81517390D02*
X131381905Y-81326914D01*
X131381905Y-81326914D02*
X131429524Y-81231676D01*
X131429524Y-81231676D02*
X131524762Y-81136438D01*
X131524762Y-81136438D02*
X131667619Y-81088819D01*
X131667619Y-81088819D02*
X131762857Y-81088819D01*
X131762857Y-81088819D02*
X131905714Y-81136438D01*
X131905714Y-81136438D02*
X131953333Y-81184057D01*
X132905714Y-82088819D02*
X132334286Y-82088819D01*
X132620000Y-82088819D02*
X132620000Y-81088819D01*
X132620000Y-81088819D02*
X132524762Y-81231676D01*
X132524762Y-81231676D02*
X132429524Y-81326914D01*
X132429524Y-81326914D02*
X132334286Y-81374533D01*
X130000952Y-93684057D02*
X130048571Y-93636438D01*
X130048571Y-93636438D02*
X130143809Y-93588819D01*
X130143809Y-93588819D02*
X130381904Y-93588819D01*
X130381904Y-93588819D02*
X130477142Y-93636438D01*
X130477142Y-93636438D02*
X130524761Y-93684057D01*
X130524761Y-93684057D02*
X130572380Y-93779295D01*
X130572380Y-93779295D02*
X130572380Y-93874533D01*
X130572380Y-93874533D02*
X130524761Y-94017390D01*
X130524761Y-94017390D02*
X129953333Y-94588819D01*
X129953333Y-94588819D02*
X130572380Y-94588819D01*
X130953333Y-93684057D02*
X131000952Y-93636438D01*
X131000952Y-93636438D02*
X131096190Y-93588819D01*
X131096190Y-93588819D02*
X131334285Y-93588819D01*
X131334285Y-93588819D02*
X131429523Y-93636438D01*
X131429523Y-93636438D02*
X131477142Y-93684057D01*
X131477142Y-93684057D02*
X131524761Y-93779295D01*
X131524761Y-93779295D02*
X131524761Y-93874533D01*
X131524761Y-93874533D02*
X131477142Y-94017390D01*
X131477142Y-94017390D02*
X130905714Y-94588819D01*
X130905714Y-94588819D02*
X131524761Y-94588819D01*
X132143809Y-93588819D02*
X132239047Y-93588819D01*
X132239047Y-93588819D02*
X132334285Y-93636438D01*
X132334285Y-93636438D02*
X132381904Y-93684057D01*
X132381904Y-93684057D02*
X132429523Y-93779295D01*
X132429523Y-93779295D02*
X132477142Y-93969771D01*
X132477142Y-93969771D02*
X132477142Y-94207866D01*
X132477142Y-94207866D02*
X132429523Y-94398342D01*
X132429523Y-94398342D02*
X132381904Y-94493580D01*
X132381904Y-94493580D02*
X132334285Y-94541200D01*
X132334285Y-94541200D02*
X132239047Y-94588819D01*
X132239047Y-94588819D02*
X132143809Y-94588819D01*
X132143809Y-94588819D02*
X132048571Y-94541200D01*
X132048571Y-94541200D02*
X132000952Y-94493580D01*
X132000952Y-94493580D02*
X131953333Y-94398342D01*
X131953333Y-94398342D02*
X131905714Y-94207866D01*
X131905714Y-94207866D02*
X131905714Y-93969771D01*
X131905714Y-93969771D02*
X131953333Y-93779295D01*
X131953333Y-93779295D02*
X132000952Y-93684057D01*
X132000952Y-93684057D02*
X132048571Y-93636438D01*
X132048571Y-93636438D02*
X132143809Y-93588819D01*
X133334285Y-93922152D02*
X133334285Y-94588819D01*
X132905714Y-93922152D02*
X132905714Y-94445961D01*
X132905714Y-94445961D02*
X132953333Y-94541200D01*
X132953333Y-94541200D02*
X133048571Y-94588819D01*
X133048571Y-94588819D02*
X133191428Y-94588819D01*
X133191428Y-94588819D02*
X133286666Y-94541200D01*
X133286666Y-94541200D02*
X133334285Y-94493580D01*
X134143809Y-94065009D02*
X133810476Y-94065009D01*
X133810476Y-94588819D02*
X133810476Y-93588819D01*
X133810476Y-93588819D02*
X134286666Y-93588819D01*
D11*
%TO.C,J3*%
X125399099Y-62484000D02*
G75*
G03*
X124637099Y-62484000I-381000J0D01*
G01*
X124637099Y-62484000D02*
G75*
G03*
X125399099Y-62484000I381000J0D01*
G01*
D12*
X131545899Y-63916200D02*
X131545899Y-60157000D01*
X131545899Y-60157000D02*
X126796099Y-60157000D01*
X126796099Y-63916200D02*
X131545899Y-63916200D01*
X126796099Y-60157000D02*
X126796099Y-63916200D01*
D13*
%TO.C,U2*%
X157226000Y-70996000D02*
X175136000Y-70996000D01*
X154556000Y-70996000D02*
X155956000Y-70996000D01*
X154556000Y-69596000D02*
X154556000Y-70996000D01*
X157226000Y-68326000D02*
X175136000Y-68326000D01*
X154556000Y-68326000D02*
X157226000Y-68326000D01*
X157226000Y-68326000D02*
X157226000Y-70996000D01*
X154556000Y-55496000D02*
X154556000Y-68326000D01*
X154556000Y-58166000D02*
X175136000Y-58166000D01*
X175136000Y-70996000D02*
X175136000Y-55496000D01*
X175136000Y-55496000D02*
X154556000Y-55496000D01*
%TO.C,U1*%
X185296000Y-109096000D02*
X185296000Y-88516000D01*
X169796000Y-109096000D02*
X185296000Y-109096000D01*
X182626000Y-88516000D02*
X182626000Y-109096000D01*
X185296000Y-88516000D02*
X172466000Y-88516000D01*
X172466000Y-91186000D02*
X169796000Y-91186000D01*
X172466000Y-88516000D02*
X172466000Y-91186000D01*
X172466000Y-91186000D02*
X172466000Y-109096000D01*
X171196000Y-88516000D02*
X169796000Y-88516000D01*
X169796000Y-88516000D02*
X169796000Y-89916000D01*
X169796000Y-91186000D02*
X169796000Y-109096000D01*
%TO.C,R4*%
X127697737Y-72813000D02*
X126250263Y-72813000D01*
X127697737Y-75523000D02*
X126250263Y-75523000D01*
%TO.C,R3*%
X116501000Y-61760263D02*
X116501000Y-63207737D01*
X119211000Y-61760263D02*
X119211000Y-63207737D01*
%TO.C,R2*%
X123783000Y-61633263D02*
X123783000Y-63080737D01*
X121073000Y-61633263D02*
X121073000Y-63080737D01*
%TO.C,R1*%
X148522000Y-89772936D02*
X148522000Y-94127064D01*
X145102000Y-89772936D02*
X145102000Y-94127064D01*
%TO.C,Q1*%
X121380000Y-72350000D02*
X116739000Y-72350000D01*
X121380000Y-72350000D02*
X121380000Y-82590000D01*
X119870000Y-72350000D02*
X119870000Y-82590000D01*
X116739000Y-72350000D02*
X116739000Y-82590000D01*
X121380000Y-75620000D02*
X119870000Y-75620000D01*
X121380000Y-79321000D02*
X119870000Y-79321000D01*
X121380000Y-82590000D02*
X116739000Y-82590000D01*
%TO.C,J9*%
X136060000Y-59730000D02*
X136060000Y-76130000D01*
X138060000Y-76990000D02*
X138060000Y-76130000D01*
X136060000Y-76130000D02*
X140260000Y-76130000D01*
X139160000Y-58670000D02*
X138860000Y-58070000D01*
X140770000Y-73460000D02*
X140260000Y-73460000D01*
X140770000Y-61460000D02*
X140260000Y-61460000D01*
X137260000Y-58870000D02*
X137260000Y-59730000D01*
X135550000Y-58870000D02*
X135550000Y-76990000D01*
X140770000Y-74400000D02*
X140260000Y-74400000D01*
X135550000Y-60900000D02*
X136060000Y-60900000D01*
X140260000Y-59730000D02*
X136060000Y-59730000D01*
X135550000Y-74960000D02*
X136060000Y-74960000D01*
X140770000Y-76990000D02*
X140770000Y-58870000D01*
X140770000Y-62400000D02*
X140260000Y-62400000D01*
X139460000Y-58070000D02*
X139160000Y-58670000D01*
X138860000Y-58070000D02*
X139460000Y-58070000D01*
X140260000Y-76130000D02*
X140260000Y-59730000D01*
X138060000Y-58870000D02*
X138060000Y-59730000D01*
X135550000Y-62400000D02*
X136060000Y-62400000D01*
X135550000Y-76990000D02*
X140770000Y-76990000D01*
X137260000Y-76990000D02*
X137260000Y-76130000D01*
X140770000Y-58870000D02*
X135550000Y-58870000D01*
X135550000Y-73460000D02*
X136060000Y-73460000D01*
D11*
%TO.C,J8*%
X194684900Y-52859799D02*
G75*
G03*
X193922900Y-52859799I-381000J0D01*
G01*
X193922900Y-52859799D02*
G75*
G03*
X194684900Y-52859799I381000J0D01*
G01*
D12*
X187617101Y-78636002D02*
X196430900Y-78636002D01*
X196430900Y-78636002D02*
X196430900Y-54637799D01*
X187617101Y-54637799D02*
X187617101Y-78636002D01*
X196430900Y-54637799D02*
X187617101Y-54637799D01*
%TO.C,J7*%
X196691000Y-91372898D02*
X187877201Y-91372898D01*
X187877201Y-91372898D02*
X187877201Y-107451098D01*
X196691000Y-107451098D02*
X196691000Y-91372898D01*
X187877201Y-107451098D02*
X196691000Y-107451098D01*
D11*
X194945000Y-89594898D02*
G75*
G03*
X194183000Y-89594898I-381000J0D01*
G01*
X194183000Y-89594898D02*
G75*
G03*
X194945000Y-89594898I381000J0D01*
G01*
D13*
%TO.C,J6*%
X113320000Y-92650000D02*
X105120000Y-92650000D01*
X105120000Y-92650000D02*
X105120000Y-102850000D01*
X105120000Y-102850000D02*
X113320000Y-102850000D01*
X113320000Y-102850000D02*
X113320000Y-92650000D01*
%TO.C,J5*%
X145482000Y-101854000D02*
X145482000Y-104454000D01*
X148142000Y-101854000D02*
X148142000Y-104454000D01*
X145482000Y-101854000D02*
X148142000Y-101854000D01*
X146812000Y-99254000D02*
X148142000Y-99254000D01*
X148142000Y-99254000D02*
X148142000Y-100584000D01*
X145482000Y-104454000D02*
X148142000Y-104454000D01*
D12*
%TO.C,J4*%
X105586208Y-64983000D02*
X105586208Y-68793000D01*
X105586208Y-68793000D02*
X113384008Y-68793000D01*
X113384008Y-64983000D02*
X105586208Y-64983000D01*
X113384008Y-68793000D02*
X113384008Y-64983000D01*
D11*
X114400008Y-67310000D02*
G75*
G03*
X113638008Y-67310000I-381000J0D01*
G01*
X113638008Y-67310000D02*
G75*
G03*
X114400008Y-67310000I381000J0D01*
G01*
%TO.C,J2*%
X114400008Y-58420000D02*
G75*
G03*
X113638008Y-58420000I-381000J0D01*
G01*
X113638008Y-58420000D02*
G75*
G03*
X114400008Y-58420000I381000J0D01*
G01*
D12*
X113384008Y-59903000D02*
X113384008Y-56093000D01*
X113384008Y-56093000D02*
X105586208Y-56093000D01*
X105586208Y-59903000D02*
X113384008Y-59903000D01*
X105586208Y-56093000D02*
X105586208Y-59903000D01*
%TO.C,J1*%
X105397300Y-82842100D02*
X114160300Y-82842100D01*
X114160300Y-82842100D02*
X114160300Y-74739500D01*
X105397300Y-74739500D02*
X105397300Y-82842100D01*
X114160300Y-74739500D02*
X105397300Y-74739500D01*
D11*
X104940100Y-80772000D02*
G75*
G03*
X104432100Y-80772000I-254000J0D01*
G01*
X104432100Y-80772000D02*
G75*
G03*
X104940100Y-80772000I254000J0D01*
G01*
D13*
%TO.C,F1*%
X121650000Y-96129000D02*
X121650000Y-103500000D01*
X121650000Y-92100000D02*
X118450000Y-92100000D01*
X118450000Y-92100000D02*
X118450000Y-99472000D01*
X118450000Y-101229000D02*
X118450000Y-103500000D01*
X121650000Y-103500000D02*
X118450000Y-103500000D01*
X121650000Y-92100000D02*
X121650000Y-94371000D01*
%TO.C,D1*%
X134885000Y-105765000D02*
X136385000Y-105765000D01*
X136385000Y-105765000D02*
X136385000Y-103955000D01*
X136385000Y-103955000D02*
X141510000Y-103955000D01*
X134885000Y-95365000D02*
X136385000Y-95365000D01*
X136385000Y-95365000D02*
X136385000Y-97175000D01*
X136385000Y-97175000D02*
X137485000Y-97175000D01*
%TO.C,C6*%
X152254000Y-65218437D02*
X152254000Y-66504000D01*
X152887750Y-69805250D02*
X152887750Y-69017750D01*
X152254000Y-65218437D02*
X151189563Y-64154000D01*
X152254000Y-69909563D02*
X151189563Y-70974000D01*
X153281500Y-69411500D02*
X152494000Y-69411500D01*
X151189563Y-70974000D02*
X145434000Y-70974000D01*
X145434000Y-70974000D02*
X145434000Y-68624000D01*
X145434000Y-64154000D02*
X145434000Y-66504000D01*
X152254000Y-69909563D02*
X152254000Y-68624000D01*
X151189563Y-64154000D02*
X145434000Y-64154000D01*
%TO.C,C5*%
X149555252Y-77052000D02*
X148132748Y-77052000D01*
X149555252Y-74332000D02*
X148132748Y-74332000D01*
%TO.C,C4*%
X170446248Y-77560000D02*
X171868752Y-77560000D01*
X170446248Y-74840000D02*
X171868752Y-74840000D01*
%TO.C,C3*%
X165970000Y-73854437D02*
X165970000Y-75140000D01*
X166603750Y-78441250D02*
X166603750Y-77653750D01*
X165970000Y-73854437D02*
X164905563Y-72790000D01*
X165970000Y-78545563D02*
X164905563Y-79610000D01*
X166997500Y-78047500D02*
X166210000Y-78047500D01*
X164905563Y-79610000D02*
X159150000Y-79610000D01*
X159150000Y-79610000D02*
X159150000Y-77260000D01*
X159150000Y-72790000D02*
X159150000Y-75140000D01*
X165970000Y-78545563D02*
X165970000Y-77260000D01*
X164905563Y-72790000D02*
X159150000Y-72790000D01*
%TO.C,C2*%
X175624000Y-86083563D02*
X175624000Y-83298000D01*
X186344000Y-76428000D02*
X186344000Y-80278000D01*
X175624000Y-77492437D02*
X176688437Y-76428000D01*
X186344000Y-87148000D02*
X186344000Y-83298000D01*
X176688437Y-76428000D02*
X186344000Y-76428000D01*
X175624000Y-86083563D02*
X176688437Y-87148000D01*
X174759000Y-78403000D02*
X174759000Y-79653000D01*
X175624000Y-77492437D02*
X175624000Y-80278000D01*
X174134000Y-79028000D02*
X175384000Y-79028000D01*
X176688437Y-87148000D02*
X186344000Y-87148000D01*
%TO.C,C1*%
X134481000Y-89125000D02*
X134481000Y-92388000D01*
X135841000Y-84406000D02*
X135841000Y-86643000D01*
X134121000Y-89125000D02*
X134121000Y-92558000D01*
X135281000Y-83895000D02*
X135281000Y-86643000D01*
X133881000Y-83116000D02*
X133881000Y-86643000D01*
X136681000Y-85595000D02*
X136681000Y-90173000D01*
X135361000Y-89125000D02*
X135361000Y-91809000D01*
X137001000Y-86374000D02*
X137001000Y-89394000D01*
X132560000Y-82822000D02*
X132560000Y-92946000D01*
X133601000Y-89125000D02*
X133601000Y-92746000D01*
X133601000Y-83022000D02*
X133601000Y-86643000D01*
X133441000Y-82977000D02*
X133441000Y-86643000D01*
X136801000Y-85847000D02*
X136801000Y-89921000D01*
X136881000Y-86038000D02*
X136881000Y-89730000D01*
X135721000Y-89125000D02*
X135721000Y-91485000D01*
X135041000Y-83718000D02*
X135041000Y-86643000D01*
X132440000Y-82814000D02*
X132440000Y-92954000D01*
X133721000Y-89125000D02*
X133721000Y-92708000D01*
X135241000Y-89125000D02*
X135241000Y-91904000D01*
X136081000Y-84678000D02*
X136081000Y-91090000D01*
X134961000Y-83663000D02*
X134961000Y-86643000D01*
X134201000Y-89125000D02*
X134201000Y-92523000D01*
X135081000Y-89125000D02*
X135081000Y-92022000D01*
X136601000Y-85445000D02*
X136601000Y-90323000D01*
X133641000Y-83034000D02*
X133641000Y-86643000D01*
X134281000Y-83281000D02*
X134281000Y-86643000D01*
X132160000Y-82804000D02*
X132160000Y-92964000D01*
X134241000Y-83263000D02*
X134241000Y-86643000D01*
X126640354Y-85009000D02*
X127640354Y-85009000D01*
X134121000Y-83210000D02*
X134121000Y-86643000D01*
X137081000Y-86654000D02*
X137081000Y-89114000D01*
X135001000Y-83690000D02*
X135001000Y-86643000D01*
X135921000Y-84492000D02*
X135921000Y-91276000D01*
X133641000Y-89125000D02*
X133641000Y-92734000D01*
X134001000Y-83161000D02*
X134001000Y-86643000D01*
X133041000Y-82887000D02*
X133041000Y-92881000D01*
X133201000Y-82919000D02*
X133201000Y-92849000D01*
X137041000Y-86506000D02*
X137041000Y-89262000D01*
X135801000Y-84364000D02*
X135801000Y-86643000D01*
X134441000Y-83359000D02*
X134441000Y-86643000D01*
X132841000Y-82854000D02*
X132841000Y-92914000D01*
X133801000Y-89125000D02*
X133801000Y-92681000D01*
X135441000Y-89125000D02*
X135441000Y-91742000D01*
X133281000Y-82937000D02*
X133281000Y-92831000D01*
X134281000Y-89125000D02*
X134281000Y-92487000D01*
X135521000Y-84095000D02*
X135521000Y-86643000D01*
X135561000Y-89125000D02*
X135561000Y-91637000D01*
X136921000Y-86142000D02*
X136921000Y-89626000D01*
X136401000Y-85114000D02*
X136401000Y-90654000D01*
X133401000Y-89125000D02*
X133401000Y-92802000D01*
X133081000Y-82894000D02*
X133081000Y-92874000D01*
X136761000Y-85759000D02*
X136761000Y-90009000D01*
X135241000Y-83864000D02*
X135241000Y-86643000D01*
X133921000Y-83130000D02*
X133921000Y-86643000D01*
X133881000Y-89125000D02*
X133881000Y-92652000D01*
X134521000Y-89125000D02*
X134521000Y-92367000D01*
X134321000Y-89125000D02*
X134321000Y-92468000D01*
X135641000Y-84205000D02*
X135641000Y-86643000D01*
X132760000Y-82844000D02*
X132760000Y-92924000D01*
X136441000Y-85175000D02*
X136441000Y-90593000D01*
X134881000Y-83611000D02*
X134881000Y-86643000D01*
X136961000Y-86254000D02*
X136961000Y-89514000D01*
X132600000Y-82826000D02*
X132600000Y-92942000D01*
X136241000Y-84884000D02*
X136241000Y-90884000D01*
X133681000Y-83047000D02*
X133681000Y-86643000D01*
X135321000Y-83927000D02*
X135321000Y-86643000D01*
X136481000Y-85239000D02*
X136481000Y-90529000D01*
X134801000Y-83561000D02*
X134801000Y-86643000D01*
X133321000Y-82946000D02*
X133321000Y-92822000D01*
X134041000Y-89125000D02*
X134041000Y-92591000D01*
X135081000Y-83746000D02*
X135081000Y-86643000D01*
X132200000Y-82804000D02*
X132200000Y-92964000D01*
X134001000Y-89125000D02*
X134001000Y-92607000D01*
X135881000Y-84448000D02*
X135881000Y-91320000D01*
X133841000Y-89125000D02*
X133841000Y-92667000D01*
X133121000Y-82902000D02*
X133121000Y-92866000D01*
X134961000Y-89125000D02*
X134961000Y-92105000D01*
X132961000Y-82873000D02*
X132961000Y-92895000D01*
X135001000Y-89125000D02*
X135001000Y-92078000D01*
X136321000Y-84995000D02*
X136321000Y-90773000D01*
X134641000Y-83467000D02*
X134641000Y-86643000D01*
X135761000Y-84323000D02*
X135761000Y-86643000D01*
X135401000Y-83992000D02*
X135401000Y-86643000D01*
X132240000Y-82805000D02*
X132240000Y-92963000D01*
X137121000Y-86822000D02*
X137121000Y-88946000D01*
X132881000Y-82860000D02*
X132881000Y-92908000D01*
X135121000Y-89125000D02*
X135121000Y-91994000D01*
X135201000Y-83834000D02*
X135201000Y-86643000D01*
X135161000Y-89125000D02*
X135161000Y-91964000D01*
X134361000Y-89125000D02*
X134361000Y-92448000D01*
X133561000Y-89125000D02*
X133561000Y-92758000D01*
X135841000Y-89125000D02*
X135841000Y-91362000D01*
X132921000Y-82866000D02*
X132921000Y-92902000D01*
X133441000Y-89125000D02*
X133441000Y-92791000D01*
X137201000Y-87285000D02*
X137201000Y-88483000D01*
X134601000Y-83444000D02*
X134601000Y-86643000D01*
X134041000Y-83177000D02*
X134041000Y-86643000D01*
X134921000Y-83637000D02*
X134921000Y-86643000D01*
X134801000Y-89125000D02*
X134801000Y-92207000D01*
X134361000Y-83320000D02*
X134361000Y-86643000D01*
X135801000Y-89125000D02*
X135801000Y-91404000D01*
X135121000Y-83774000D02*
X135121000Y-86643000D01*
X136201000Y-84830000D02*
X136201000Y-90938000D01*
X134521000Y-83401000D02*
X134521000Y-86643000D01*
X134681000Y-83489000D02*
X134681000Y-86643000D01*
X136641000Y-85519000D02*
X136641000Y-90249000D01*
X136281000Y-84939000D02*
X136281000Y-90829000D01*
X134241000Y-89125000D02*
X134241000Y-92505000D01*
X133961000Y-89125000D02*
X133961000Y-92622000D01*
X133921000Y-89125000D02*
X133921000Y-92638000D01*
X135561000Y-84131000D02*
X135561000Y-86643000D01*
X135681000Y-84244000D02*
X135681000Y-86643000D01*
X134721000Y-83513000D02*
X134721000Y-86643000D01*
X135681000Y-89125000D02*
X135681000Y-91524000D01*
X134401000Y-89125000D02*
X134401000Y-92429000D01*
X133361000Y-82956000D02*
X133361000Y-92812000D01*
X134321000Y-83300000D02*
X134321000Y-86643000D01*
X132280000Y-82806000D02*
X132280000Y-92962000D01*
X127140354Y-84509000D02*
X127140354Y-85509000D01*
X135521000Y-89125000D02*
X135521000Y-91673000D01*
X136521000Y-85305000D02*
X136521000Y-90463000D01*
X133401000Y-82966000D02*
X133401000Y-86643000D01*
X132360000Y-82809000D02*
X132360000Y-92959000D01*
X134561000Y-89125000D02*
X134561000Y-92346000D01*
X134081000Y-89125000D02*
X134081000Y-92574000D01*
X135321000Y-89125000D02*
X135321000Y-91841000D01*
X136161000Y-84778000D02*
X136161000Y-90990000D01*
X132520000Y-82819000D02*
X132520000Y-92949000D01*
X133761000Y-89125000D02*
X133761000Y-92695000D01*
X134761000Y-83537000D02*
X134761000Y-86643000D01*
X136561000Y-85374000D02*
X136561000Y-90394000D01*
X134681000Y-89125000D02*
X134681000Y-92279000D01*
X132400000Y-82811000D02*
X132400000Y-92957000D01*
X135481000Y-84060000D02*
X135481000Y-86643000D01*
X136001000Y-84583000D02*
X136001000Y-91185000D01*
X136041000Y-84630000D02*
X136041000Y-91138000D01*
X134881000Y-89125000D02*
X134881000Y-92157000D01*
X135481000Y-89125000D02*
X135481000Y-91708000D01*
X134401000Y-83339000D02*
X134401000Y-86643000D01*
X135201000Y-89125000D02*
X135201000Y-91934000D01*
X133161000Y-82910000D02*
X133161000Y-92858000D01*
X135361000Y-83959000D02*
X135361000Y-86643000D01*
X133721000Y-83060000D02*
X133721000Y-86643000D01*
X135961000Y-84537000D02*
X135961000Y-91231000D01*
X133521000Y-89125000D02*
X133521000Y-92769000D01*
X133961000Y-83146000D02*
X133961000Y-86643000D01*
X134601000Y-89125000D02*
X134601000Y-92324000D01*
X135441000Y-84026000D02*
X135441000Y-86643000D01*
X135641000Y-89125000D02*
X135641000Y-91563000D01*
X134161000Y-83227000D02*
X134161000Y-86643000D01*
X133681000Y-89125000D02*
X133681000Y-92721000D01*
X133841000Y-83101000D02*
X133841000Y-86643000D01*
X134641000Y-89125000D02*
X134641000Y-92301000D01*
X132640000Y-82830000D02*
X132640000Y-92938000D01*
X133241000Y-82928000D02*
X133241000Y-92840000D01*
X135601000Y-89125000D02*
X135601000Y-91600000D01*
X132320000Y-82807000D02*
X132320000Y-92961000D01*
X133561000Y-83010000D02*
X133561000Y-86643000D01*
X133001000Y-82880000D02*
X133001000Y-92888000D01*
X136721000Y-85675000D02*
X136721000Y-90093000D01*
X135401000Y-89125000D02*
X135401000Y-91776000D01*
X134921000Y-89125000D02*
X134921000Y-92131000D01*
X133761000Y-83073000D02*
X133761000Y-86643000D01*
X134481000Y-83380000D02*
X134481000Y-86643000D01*
X133481000Y-89125000D02*
X133481000Y-92781000D01*
X132800000Y-82849000D02*
X132800000Y-92919000D01*
X135601000Y-84168000D02*
X135601000Y-86643000D01*
X134841000Y-83586000D02*
X134841000Y-86643000D01*
X135281000Y-89125000D02*
X135281000Y-91873000D01*
X135761000Y-89125000D02*
X135761000Y-91445000D01*
X134201000Y-83245000D02*
X134201000Y-86643000D01*
X134441000Y-89125000D02*
X134441000Y-92409000D01*
X136121000Y-84728000D02*
X136121000Y-91040000D01*
X132680000Y-82834000D02*
X132680000Y-92934000D01*
X132480000Y-82816000D02*
X132480000Y-92952000D01*
X136841000Y-85940000D02*
X136841000Y-89828000D01*
X133801000Y-83087000D02*
X133801000Y-86643000D01*
X135721000Y-84283000D02*
X135721000Y-86643000D01*
X133481000Y-82987000D02*
X133481000Y-86643000D01*
X137161000Y-87022000D02*
X137161000Y-88746000D01*
X133521000Y-82999000D02*
X133521000Y-86643000D01*
X134081000Y-83194000D02*
X134081000Y-86643000D01*
X135161000Y-83804000D02*
X135161000Y-86643000D01*
X136361000Y-85054000D02*
X136361000Y-90714000D01*
X134161000Y-89125000D02*
X134161000Y-92541000D01*
X134761000Y-89125000D02*
X134761000Y-92231000D01*
X134561000Y-83422000D02*
X134561000Y-86643000D01*
X134841000Y-89125000D02*
X134841000Y-92182000D01*
X135041000Y-89125000D02*
X135041000Y-92050000D01*
X134721000Y-89125000D02*
X134721000Y-92255000D01*
X132120000Y-82804000D02*
X132120000Y-92964000D01*
X132720000Y-82839000D02*
X132720000Y-92929000D01*
X137240000Y-87884000D02*
G75*
G03*
X127000000Y-87884000I-5120000J0D01*
G01*
X127000000Y-87884000D02*
G75*
G03*
X137240000Y-87884000I5120000J0D01*
G01*
%TD*%
M02*
