%TF.GenerationSoftware,KiCad,Pcbnew,7.0.10*%
%TF.CreationDate,2024-02-16T16:08:38+01:00*%
%TF.ProjectId,arenaPCBv1,6172656e-6150-4434-9276-312e6b696361,rev?*%
%TF.SameCoordinates,Original*%
%TF.FileFunction,Copper,L2,Bot*%
%TF.FilePolarity,Positive*%
%FSLAX46Y46*%
G04 Gerber Fmt 4.6, Leading zero omitted, Abs format (unit mm)*
G04 Created by KiCad (PCBNEW 7.0.10) date 2024-02-16 16:08:38*
%MOMM*%
%LPD*%
G01*
G04 APERTURE LIST*
G04 Aperture macros list*
%AMRoundRect*
0 Rectangle with rounded corners*
0 $1 Rounding radius*
0 $2 $3 $4 $5 $6 $7 $8 $9 X,Y pos of 4 corners*
0 Add a 4 corners polygon primitive as box body*
4,1,4,$2,$3,$4,$5,$6,$7,$8,$9,$2,$3,0*
0 Add four circle primitives for the rounded corners*
1,1,$1+$1,$2,$3*
1,1,$1+$1,$4,$5*
1,1,$1+$1,$6,$7*
1,1,$1+$1,$8,$9*
0 Add four rect primitives between the rounded corners*
20,1,$1+$1,$2,$3,$4,$5,0*
20,1,$1+$1,$4,$5,$6,$7,0*
20,1,$1+$1,$6,$7,$8,$9,0*
20,1,$1+$1,$8,$9,$2,$3,0*%
G04 Aperture macros list end*
%TA.AperFunction,ComponentPad*%
%ADD10C,3.800000*%
%TD*%
%TA.AperFunction,ComponentPad*%
%ADD11C,1.244600*%
%TD*%
%TA.AperFunction,ComponentPad*%
%ADD12O,1.600000X1.600000*%
%TD*%
%TA.AperFunction,ComponentPad*%
%ADD13R,1.600000X1.600000*%
%TD*%
%TA.AperFunction,ComponentPad*%
%ADD14R,2.000000X1.905000*%
%TD*%
%TA.AperFunction,ComponentPad*%
%ADD15O,2.000000X1.905000*%
%TD*%
%TA.AperFunction,ComponentPad*%
%ADD16RoundRect,0.250000X-0.350000X0.350000X-0.350000X-0.350000X0.350000X-0.350000X0.350000X0.350000X0*%
%TD*%
%TA.AperFunction,ComponentPad*%
%ADD17C,1.200000*%
%TD*%
%TA.AperFunction,ComponentPad*%
%ADD18C,2.260600*%
%TD*%
%TA.AperFunction,ComponentPad*%
%ADD19C,1.270000*%
%TD*%
%TA.AperFunction,ComponentPad*%
%ADD20R,1.700000X1.700000*%
%TD*%
%TA.AperFunction,ComponentPad*%
%ADD21O,1.700000X1.700000*%
%TD*%
%TA.AperFunction,ComponentPad*%
%ADD22C,1.320800*%
%TD*%
%TA.AperFunction,ComponentPad*%
%ADD23C,2.159000*%
%TD*%
%TA.AperFunction,ComponentPad*%
%ADD24C,2.010000*%
%TD*%
%TA.AperFunction,ComponentPad*%
%ADD25R,2.000000X2.000000*%
%TD*%
%TA.AperFunction,ComponentPad*%
%ADD26C,2.000000*%
%TD*%
%TA.AperFunction,ViaPad*%
%ADD27C,0.800000*%
%TD*%
%TA.AperFunction,Conductor*%
%ADD28C,0.250000*%
%TD*%
%TA.AperFunction,Conductor*%
%ADD29C,0.800000*%
%TD*%
%TA.AperFunction,Conductor*%
%ADD30C,5.500000*%
%TD*%
G04 APERTURE END LIST*
D10*
%TO.P,M.2,1*%
%TO.N,GND*%
X200660000Y-109220000D03*
%TD*%
%TO.P,M.2,1*%
%TO.N,GND*%
X200660000Y-53340000D03*
%TD*%
%TO.P,M.2,1*%
%TO.N,GND*%
X102870000Y-53340000D03*
%TD*%
%TO.P,M.2,1*%
%TO.N,GND*%
X102870000Y-109220000D03*
%TD*%
D11*
%TO.P,J3,2,GND*%
%TO.N,GND*%
X129921000Y-62484000D03*
%TO.P,J3,1,COM*%
%TO.N,Net-(J3-COM)*%
X128420998Y-62484000D03*
%TD*%
D12*
%TO.P,U2,16,PWMA*%
%TO.N,Net-(J9-PWMA)*%
X155956000Y-56896000D03*
%TO.P,U2,15,AIN2*%
%TO.N,Net-(J9-AIN2)*%
X158496000Y-56896000D03*
%TO.P,U2,14,AIN1*%
%TO.N,Net-(J9-AIN1)*%
X161036000Y-56896000D03*
%TO.P,U2,13,nSTBY*%
%TO.N,+3.3V*%
X163576000Y-56896000D03*
%TO.P,U2,12,BIN1*%
%TO.N,unconnected-(U2-BIN1-Pad12)*%
X166116000Y-56896000D03*
%TO.P,U2,11,BIN2*%
%TO.N,unconnected-(U2-BIN2-Pad11)*%
X168656000Y-56896000D03*
%TO.P,U2,10,PWMB*%
%TO.N,unconnected-(U2-PWMB-Pad10)*%
X171196000Y-56896000D03*
%TO.P,U2,9,GND*%
%TO.N,GND*%
X173736000Y-56896000D03*
%TO.P,U2,8,GND*%
X173736000Y-69596000D03*
%TO.P,U2,7,VMOT*%
%TO.N,+12V*%
X171196000Y-69596000D03*
%TO.P,U2,6,BO1*%
%TO.N,unconnected-(U2-BO1-Pad6)*%
X168656000Y-69596000D03*
%TO.P,U2,5,BO2*%
%TO.N,unconnected-(U2-BO2-Pad5)*%
X166116000Y-69596000D03*
%TO.P,U2,4,AO2*%
%TO.N,Net-(J8-Pin_1)*%
X163576000Y-69596000D03*
%TO.P,U2,3,AO1*%
%TO.N,Net-(J8-Pin_6)*%
X161036000Y-69596000D03*
%TO.P,U2,2,VCC*%
%TO.N,+3.3V*%
X158496000Y-69596000D03*
D13*
%TO.P,U2,1,GND*%
%TO.N,GND*%
X155956000Y-69596000D03*
%TD*%
%TO.P,U1,1,EN*%
%TO.N,GND*%
X171196000Y-89916000D03*
D12*
%TO.P,U1,2,MS1*%
%TO.N,Net-(J9-MS1)*%
X171196000Y-92456000D03*
%TO.P,U1,3,MS2*%
%TO.N,Net-(J9-MS2)*%
X171196000Y-94996000D03*
%TO.P,U1,4,MS3*%
%TO.N,Net-(J9-MS3)*%
X171196000Y-97536000D03*
%TO.P,U1,5,RST*%
%TO.N,+3.3V*%
X171196000Y-100076000D03*
%TO.P,U1,6,SLP*%
X171196000Y-102616000D03*
%TO.P,U1,7,STEP*%
%TO.N,Net-(J9-STEP)*%
X171196000Y-105156000D03*
%TO.P,U1,8,DIR*%
%TO.N,Net-(J9-DIR)*%
X171196000Y-107696000D03*
%TO.P,U1,9,GND*%
%TO.N,GND*%
X183896000Y-107696000D03*
%TO.P,U1,10,FAULT*%
%TO.N,unconnected-(U1-FAULT-Pad10)*%
X183896000Y-105156000D03*
%TO.P,U1,11,A2*%
%TO.N,Net-(J7-Pin_4)*%
X183896000Y-102616000D03*
%TO.P,U1,12,A1*%
%TO.N,Net-(J7-Pin_3)*%
X183896000Y-100076000D03*
%TO.P,U1,13,B1*%
%TO.N,Net-(J7-Pin_2)*%
X183896000Y-97536000D03*
%TO.P,U1,14,B2*%
%TO.N,Net-(J7-Pin_1)*%
X183896000Y-94996000D03*
%TO.P,U1,15,GND*%
%TO.N,GND*%
X183896000Y-92456000D03*
%TO.P,U1,16,VMOT*%
%TO.N,+12V*%
X183896000Y-89916000D03*
%TD*%
D14*
%TO.P,Q1,1,G*%
%TO.N,/G*%
X118110000Y-74930000D03*
D15*
%TO.P,Q1,2,D*%
%TO.N,/D*%
X118110000Y-77470000D03*
%TO.P,Q1,3,S*%
%TO.N,GND*%
X118110000Y-80010000D03*
%TD*%
D16*
%TO.P,J9,1,3.3V*%
%TO.N,+3.3V*%
X139160000Y-60930000D03*
D17*
%TO.P,J9,2,GND*%
%TO.N,GND*%
X137160000Y-60930000D03*
%TO.P,J9,3,STEP*%
%TO.N,Net-(J9-STEP)*%
X139160000Y-62930000D03*
%TO.P,J9,4,DIR*%
%TO.N,Net-(J9-DIR)*%
X137160000Y-62930000D03*
%TO.P,J9,5,MS3*%
%TO.N,Net-(J9-MS3)*%
X139160000Y-64930000D03*
%TO.P,J9,6,MS2*%
%TO.N,Net-(J9-MS2)*%
X137160000Y-64930000D03*
%TO.P,J9,7,MS1*%
%TO.N,Net-(J9-MS1)*%
X139160000Y-66930000D03*
%TO.P,J9,8,PWMA*%
%TO.N,Net-(J9-PWMA)*%
X137160000Y-66930000D03*
%TO.P,J9,9,AIN1*%
%TO.N,Net-(J9-AIN1)*%
X139160000Y-68930000D03*
%TO.P,J9,10,AIN2*%
%TO.N,Net-(J9-AIN2)*%
X137160000Y-68930000D03*
%TO.P,J9,11,HAL2*%
%TO.N,Net-(J8-Pin_4)*%
X139160000Y-70930000D03*
%TO.P,J9,12,HAL1*%
%TO.N,Net-(J8-Pin_3)*%
X137160000Y-70930000D03*
%TO.P,J9,13,END*%
%TO.N,Net-(J3-COM)*%
X139160000Y-72930000D03*
%TO.P,J9,14,QI*%
%TO.N,Net-(J9-QI)*%
X137160000Y-72930000D03*
%TO.P,J9,15,SDA*%
%TO.N,/SDA*%
X139160000Y-74930000D03*
%TO.P,J9,16,SCL*%
%TO.N,/SCL*%
X137160000Y-74930000D03*
%TD*%
D18*
%TO.P,J8,6,Pin_6*%
%TO.N,Net-(J8-Pin_6)*%
X194303900Y-76536900D03*
%TO.P,J8,5,Pin_5*%
%TO.N,+3.3V*%
X194303900Y-72576900D03*
%TO.P,J8,4,Pin_4*%
%TO.N,Net-(J8-Pin_4)*%
X194303900Y-68616900D03*
%TO.P,J8,3,Pin_3*%
%TO.N,Net-(J8-Pin_3)*%
X194303900Y-64656900D03*
%TO.P,J8,2,Pin_2*%
%TO.N,GND*%
X194303900Y-60696901D03*
%TO.P,J8,1,Pin_1*%
%TO.N,Net-(J8-Pin_1)*%
X194303900Y-56736901D03*
%TD*%
%TO.P,J7,1,Pin_1*%
%TO.N,Net-(J7-Pin_1)*%
X194564000Y-93472000D03*
%TO.P,J7,2,Pin_2*%
%TO.N,Net-(J7-Pin_2)*%
X194564000Y-97432000D03*
%TO.P,J7,3,Pin_3*%
%TO.N,Net-(J7-Pin_3)*%
X194564000Y-101391999D03*
%TO.P,J7,4,Pin_4*%
%TO.N,Net-(J7-Pin_4)*%
X194564000Y-105351999D03*
%TD*%
D19*
%TO.P,J6,1,VCC*%
%TO.N,Net-(J6-VCC)*%
X109220000Y-95250000D03*
%TO.P,J6,2,GND*%
%TO.N,GND*%
X109220000Y-100250000D03*
%TD*%
D20*
%TO.P,J5,1,pin_1*%
%TO.N,Net-(J5-pin_1)*%
X146812000Y-100584000D03*
D21*
%TO.P,J5,2,Pin_2*%
%TO.N,GND*%
X146812000Y-103124000D03*
%TD*%
D22*
%TO.P,J4,1,Pin_1*%
%TO.N,+3.3V*%
X111760000Y-67310000D03*
%TO.P,J4,2,Pin_2*%
%TO.N,/SCL*%
X110260001Y-67310000D03*
%TO.P,J4,3,Pin_3*%
%TO.N,/SDA*%
X108759999Y-67310000D03*
%TO.P,J4,4,Pin_4*%
%TO.N,GND*%
X107259999Y-67310000D03*
%TD*%
%TO.P,J2,4,Pin_4*%
%TO.N,GND*%
X107259999Y-58420000D03*
%TO.P,J2,3,Pin_3*%
%TO.N,/SDA*%
X108759999Y-58420000D03*
%TO.P,J2,2,Pin_2*%
%TO.N,/SCL*%
X110260001Y-58420000D03*
%TO.P,J2,1,Pin_1*%
%TO.N,+3.3V*%
X111760000Y-58420000D03*
%TD*%
D23*
%TO.P,J1,1,VCC*%
%TO.N,+12V*%
X109220000Y-80772000D03*
%TO.P,J1,2,GND*%
%TO.N,/D*%
X109220000Y-76809600D03*
%TD*%
D24*
%TO.P,F1,1*%
%TO.N,Net-(J6-VCC)*%
X120650000Y-95250000D03*
%TO.P,F1,2*%
%TO.N,+12V*%
X119450000Y-100350000D03*
%TD*%
D25*
%TO.P,C1,1*%
%TO.N,+12V*%
X129620000Y-87884000D03*
D26*
%TO.P,C1,2*%
%TO.N,GND*%
X134620000Y-87884000D03*
%TD*%
D27*
%TO.N,GND*%
X145415000Y-75565000D03*
X161925000Y-88900000D03*
X162560000Y-85725000D03*
X157480000Y-89916000D03*
X153035000Y-92710000D03*
X139700000Y-78105000D03*
X156210000Y-76200000D03*
X189230000Y-81788000D03*
%TO.N,+3.3V*%
X154453577Y-86372271D03*
X149225000Y-61595000D03*
%TO.N,Net-(J8-Pin_4)*%
X158115000Y-60325000D03*
%TD*%
D28*
%TO.N,GND*%
X102870000Y-53340000D02*
X105410000Y-50800000D01*
X105410000Y-50800000D02*
X107315000Y-52705000D01*
X198437500Y-51117500D02*
X197485000Y-52070000D01*
X200660000Y-53340000D02*
X198437500Y-51117500D01*
X200660000Y-109220000D02*
X198437500Y-106997500D01*
X198437500Y-106997500D02*
X196215000Y-109220000D01*
X104775000Y-107315000D02*
X107315000Y-107315000D01*
X102870000Y-109220000D02*
X104775000Y-107315000D01*
X129921000Y-62484000D02*
X129921000Y-64410201D01*
X129976700Y-62428300D02*
X129921000Y-62484000D01*
X135661700Y-62428300D02*
X129976700Y-62428300D01*
X137160000Y-60930000D02*
X135661700Y-62428300D01*
X129921000Y-64410201D02*
X125116201Y-69215000D01*
X107259999Y-58420000D02*
X107259999Y-67310000D01*
X160909000Y-89916000D02*
X157480000Y-89916000D01*
X161925000Y-88900000D02*
X160909000Y-89916000D01*
X189230000Y-87122000D02*
X183896000Y-92456000D01*
X189230000Y-81788000D02*
X189230000Y-87122000D01*
X153035000Y-96901000D02*
X146812000Y-103124000D01*
X153035000Y-92710000D02*
X153035000Y-96901000D01*
X157480000Y-89916000D02*
X171196000Y-89916000D01*
X162560000Y-82550000D02*
X162560000Y-85725000D01*
X156210000Y-76200000D02*
X162560000Y-82550000D01*
X152509000Y-108821000D02*
X146812000Y-103124000D01*
X182771000Y-108821000D02*
X152509000Y-108821000D01*
X183896000Y-107696000D02*
X182771000Y-108821000D01*
X128651000Y-78105000D02*
X126746000Y-80010000D01*
X139700000Y-78105000D02*
X128651000Y-78105000D01*
X125116201Y-69215000D02*
X125116201Y-79988799D01*
X125116201Y-79988799D02*
X125095000Y-80010000D01*
X125095000Y-80010000D02*
X126746000Y-80010000D01*
X118110000Y-80010000D02*
X125095000Y-80010000D01*
X155956000Y-75946000D02*
X155956000Y-69596000D01*
X156210000Y-76200000D02*
X155956000Y-75946000D01*
X134620000Y-90932000D02*
X146812000Y-103124000D01*
X134620000Y-87884000D02*
X134620000Y-90932000D01*
X104140000Y-93980000D02*
X118110000Y-80010000D01*
X107235000Y-100250000D02*
X104140000Y-97155000D01*
X104140000Y-97155000D02*
X104140000Y-93980000D01*
X109220000Y-100250000D02*
X107235000Y-100250000D01*
X126746000Y-80010000D02*
X134620000Y-87884000D01*
X172611000Y-70721000D02*
X157081000Y-70721000D01*
X173736000Y-69596000D02*
X172611000Y-70721000D01*
X157081000Y-70721000D02*
X155956000Y-69596000D01*
X162687000Y-62865000D02*
X155956000Y-69596000D01*
X167767000Y-62865000D02*
X162687000Y-62865000D01*
X173736000Y-56896000D02*
X167767000Y-62865000D01*
X107259999Y-67310000D02*
X109164999Y-69215000D01*
X109164999Y-69215000D02*
X125116201Y-69215000D01*
%TO.N,+3.3V*%
X142875000Y-64645000D02*
X139160000Y-60930000D01*
X142875000Y-74793694D02*
X142875000Y-64645000D01*
X154453577Y-86372271D02*
X142875000Y-74793694D01*
X148560000Y-60930000D02*
X139160000Y-60930000D01*
X149225000Y-61595000D02*
X148560000Y-60930000D01*
%TO.N,Net-(J8-Pin_4)*%
X196215000Y-56589896D02*
X196215000Y-66705800D01*
X165735000Y-55245000D02*
X194870104Y-55245000D01*
X194870104Y-55245000D02*
X196215000Y-56589896D01*
X196215000Y-66705800D02*
X194303900Y-68616900D01*
X164991000Y-57259000D02*
X164991000Y-55989000D01*
X158115000Y-60325000D02*
X161925000Y-60325000D01*
X161925000Y-60325000D02*
X164991000Y-57259000D01*
X164991000Y-55989000D02*
X165735000Y-55245000D01*
%TO.N,Net-(J9-STEP)*%
X173355000Y-102997000D02*
X171196000Y-105156000D01*
X173355000Y-89291842D02*
X173355000Y-102997000D01*
X142240000Y-75184000D02*
X154309000Y-87253000D01*
X154309000Y-87253000D02*
X171316158Y-87253000D01*
X142240000Y-66010000D02*
X142240000Y-75184000D01*
X171316158Y-87253000D02*
X173355000Y-89291842D01*
X139160000Y-62930000D02*
X142240000Y-66010000D01*
D29*
%TO.N,Net-(J8-Pin_1)*%
X194303900Y-56736901D02*
X185000801Y-66040000D01*
X185000801Y-66040000D02*
X167132000Y-66040000D01*
X167132000Y-66040000D02*
X163576000Y-69596000D01*
D28*
%TO.N,GND*%
X185404801Y-69596000D02*
X173736000Y-69596000D01*
X194303900Y-60696901D02*
X185404801Y-69596000D01*
%TO.N,Net-(J9-MS3)*%
X172698000Y-89168000D02*
X172698000Y-96034000D01*
X172698000Y-96034000D02*
X171196000Y-97536000D01*
X153670000Y-87630000D02*
X171160000Y-87630000D01*
X141605000Y-75565000D02*
X153670000Y-87630000D01*
X141605000Y-67375000D02*
X141605000Y-75565000D01*
X139160000Y-64930000D02*
X141605000Y-67375000D01*
X171160000Y-87630000D02*
X172698000Y-89168000D01*
%TO.N,Net-(J9-MS2)*%
X140982579Y-75882500D02*
X156431079Y-91331000D01*
X139616686Y-66005000D02*
X140982579Y-67370893D01*
X172321000Y-93871000D02*
X171196000Y-94996000D01*
X137160000Y-64930000D02*
X138235000Y-66005000D01*
X138235000Y-66005000D02*
X139616686Y-66005000D01*
X140982579Y-67370893D02*
X140982579Y-75882500D01*
X172321000Y-91990009D02*
X172321000Y-93871000D01*
X156431079Y-91331000D02*
X171661991Y-91331000D01*
X171661991Y-91331000D02*
X172321000Y-91990009D01*
%TO.N,Net-(J9-MS1)*%
X139160000Y-66930000D02*
X140008528Y-66930000D01*
X140008528Y-66930000D02*
X140462000Y-67383472D01*
X140462000Y-67383472D02*
X140462000Y-76200000D01*
X140462000Y-76200000D02*
X156718000Y-92456000D01*
X156718000Y-92456000D02*
X171196000Y-92456000D01*
%TO.N,Net-(J9-DIR)*%
X136235000Y-63855000D02*
X137160000Y-62930000D01*
X136776852Y-67855000D02*
X136235000Y-67313148D01*
X140085000Y-68330000D02*
X139610000Y-67855000D01*
X140085000Y-76585000D02*
X140085000Y-68330000D01*
X139610000Y-67855000D02*
X136776852Y-67855000D01*
X171196000Y-107696000D02*
X140085000Y-76585000D01*
X136235000Y-67313148D02*
X136235000Y-63855000D01*
D30*
%TO.N,Net-(J6-VCC)*%
X109220000Y-95250000D02*
X120650000Y-95250000D01*
%TD*%
%TA.AperFunction,Conductor*%
%TO.N,GND*%
G36*
X170058317Y-88274454D02*
G01*
X170139099Y-88328430D01*
X170193075Y-88409212D01*
X170212029Y-88504500D01*
X170193075Y-88599788D01*
X170139099Y-88680570D01*
X170112251Y-88703833D01*
X170038816Y-88758806D01*
X170038810Y-88758812D01*
X169952646Y-88873912D01*
X169902403Y-89008621D01*
X169902401Y-89008628D01*
X169896000Y-89068167D01*
X169896000Y-89665999D01*
X169896001Y-89666000D01*
X170880314Y-89666000D01*
X170868359Y-89677955D01*
X170810835Y-89790852D01*
X170791014Y-89916000D01*
X170810835Y-90041148D01*
X170868359Y-90154045D01*
X170880314Y-90166000D01*
X169896001Y-90166000D01*
X169896000Y-90166001D01*
X169896000Y-90456500D01*
X169877046Y-90551788D01*
X169823070Y-90632570D01*
X169742288Y-90686546D01*
X169647000Y-90705500D01*
X156793310Y-90705500D01*
X156698022Y-90686546D01*
X156617240Y-90632570D01*
X154665240Y-88680570D01*
X154611264Y-88599788D01*
X154592310Y-88504500D01*
X154611264Y-88409212D01*
X154665240Y-88328430D01*
X154746022Y-88274454D01*
X154841310Y-88255500D01*
X169963029Y-88255500D01*
X170058317Y-88274454D01*
G37*
%TD.AperFunction*%
%TA.AperFunction,Conductor*%
G36*
X204315788Y-49549454D02*
G01*
X204396570Y-49603430D01*
X204450546Y-49684212D01*
X204469500Y-49779500D01*
X204469500Y-112780500D01*
X204450546Y-112875788D01*
X204396570Y-112956570D01*
X204315788Y-113010546D01*
X204220500Y-113029500D01*
X99309500Y-113029500D01*
X99214212Y-113010546D01*
X99133430Y-112956570D01*
X99079454Y-112875788D01*
X99060500Y-112780500D01*
X99060500Y-109220000D01*
X100465255Y-109220000D01*
X100484217Y-109521396D01*
X100540805Y-109818039D01*
X100634125Y-110105248D01*
X100762707Y-110378497D01*
X100924521Y-110633475D01*
X100924527Y-110633484D01*
X101005310Y-110731133D01*
X101934209Y-109802233D01*
X102034894Y-109943624D01*
X102186932Y-110088592D01*
X102289222Y-110154330D01*
X101356565Y-111086988D01*
X101581472Y-111250393D01*
X101846114Y-111395880D01*
X102126888Y-111507045D01*
X102126902Y-111507050D01*
X102419394Y-111582149D01*
X102719011Y-111620000D01*
X103020989Y-111620000D01*
X103320605Y-111582149D01*
X103613097Y-111507050D01*
X103613111Y-111507045D01*
X103893886Y-111395879D01*
X103893890Y-111395878D01*
X104158529Y-111250391D01*
X104158531Y-111250390D01*
X104383433Y-111086988D01*
X103453305Y-110156860D01*
X103467410Y-110149589D01*
X103632540Y-110019729D01*
X103770110Y-109860965D01*
X103804666Y-109801111D01*
X104734688Y-110731133D01*
X104815481Y-110633471D01*
X104977292Y-110378497D01*
X105105874Y-110105248D01*
X105199194Y-109818039D01*
X105255782Y-109521396D01*
X105274744Y-109220000D01*
X198255255Y-109220000D01*
X198274217Y-109521396D01*
X198330805Y-109818039D01*
X198424125Y-110105248D01*
X198552707Y-110378497D01*
X198714521Y-110633475D01*
X198714527Y-110633484D01*
X198795310Y-110731133D01*
X199724209Y-109802233D01*
X199824894Y-109943624D01*
X199976932Y-110088592D01*
X200079222Y-110154330D01*
X199146565Y-111086988D01*
X199371472Y-111250393D01*
X199636114Y-111395880D01*
X199916888Y-111507045D01*
X199916902Y-111507050D01*
X200209394Y-111582149D01*
X200509011Y-111620000D01*
X200810989Y-111620000D01*
X201110605Y-111582149D01*
X201403097Y-111507050D01*
X201403111Y-111507045D01*
X201683886Y-111395879D01*
X201683890Y-111395878D01*
X201948529Y-111250391D01*
X201948531Y-111250390D01*
X202173433Y-111086988D01*
X201243305Y-110156860D01*
X201257410Y-110149589D01*
X201422540Y-110019729D01*
X201560110Y-109860965D01*
X201594666Y-109801111D01*
X202524688Y-110731133D01*
X202605481Y-110633471D01*
X202767292Y-110378497D01*
X202895874Y-110105248D01*
X202989194Y-109818039D01*
X203045782Y-109521396D01*
X203064744Y-109220000D01*
X203045782Y-108918603D01*
X202989194Y-108621960D01*
X202895874Y-108334751D01*
X202767292Y-108061502D01*
X202605481Y-107806527D01*
X202524687Y-107708865D01*
X201595788Y-108637764D01*
X201495106Y-108496376D01*
X201343068Y-108351408D01*
X201240774Y-108285668D01*
X202173433Y-107353010D01*
X201948527Y-107189606D01*
X201683885Y-107044119D01*
X201403111Y-106932954D01*
X201403097Y-106932949D01*
X201110605Y-106857850D01*
X200810989Y-106820000D01*
X200509011Y-106820000D01*
X200209394Y-106857850D01*
X199916902Y-106932949D01*
X199916888Y-106932954D01*
X199636114Y-107044119D01*
X199371478Y-107189604D01*
X199146565Y-107353010D01*
X200076694Y-108283139D01*
X200062590Y-108290411D01*
X199897460Y-108420271D01*
X199759890Y-108579035D01*
X199725333Y-108638888D01*
X198795310Y-107708865D01*
X198714525Y-107806518D01*
X198714523Y-107806521D01*
X198552707Y-108061502D01*
X198424125Y-108334751D01*
X198330805Y-108621960D01*
X198274217Y-108918603D01*
X198255255Y-109220000D01*
X105274744Y-109220000D01*
X105255782Y-108918603D01*
X105199194Y-108621960D01*
X105105874Y-108334751D01*
X104977292Y-108061502D01*
X104815481Y-107806527D01*
X104734687Y-107708865D01*
X103805788Y-108637764D01*
X103705106Y-108496376D01*
X103553068Y-108351408D01*
X103450774Y-108285668D01*
X104383433Y-107353010D01*
X104158527Y-107189606D01*
X103893885Y-107044119D01*
X103613111Y-106932954D01*
X103613097Y-106932949D01*
X103320605Y-106857850D01*
X103020989Y-106820000D01*
X102719011Y-106820000D01*
X102419394Y-106857850D01*
X102126902Y-106932949D01*
X102126888Y-106932954D01*
X101846114Y-107044119D01*
X101581478Y-107189604D01*
X101356565Y-107353010D01*
X102286694Y-108283139D01*
X102272590Y-108290411D01*
X102107460Y-108420271D01*
X101969890Y-108579035D01*
X101935333Y-108638888D01*
X101005310Y-107708865D01*
X100924525Y-107806518D01*
X100924523Y-107806521D01*
X100762707Y-108061502D01*
X100634125Y-108334751D01*
X100540805Y-108621960D01*
X100484217Y-108918603D01*
X100465255Y-109220000D01*
X99060500Y-109220000D01*
X99060500Y-100250000D01*
X108080138Y-100250000D01*
X108099545Y-100459444D01*
X108099545Y-100459446D01*
X108157111Y-100661768D01*
X108250869Y-100850058D01*
X108250871Y-100850062D01*
X108257545Y-100858899D01*
X108257546Y-100858899D01*
X108835096Y-100281349D01*
X108835051Y-100281898D01*
X108866266Y-100405162D01*
X108935813Y-100511612D01*
X109036157Y-100589713D01*
X109156422Y-100631000D01*
X109192552Y-100631000D01*
X108613887Y-101209664D01*
X108711914Y-101270359D01*
X108711922Y-101270363D01*
X108908065Y-101346350D01*
X109114823Y-101385000D01*
X109325177Y-101385000D01*
X109531934Y-101346350D01*
X109728082Y-101270361D01*
X109826110Y-101209664D01*
X109247446Y-100631000D01*
X109251569Y-100631000D01*
X109345421Y-100615339D01*
X109457251Y-100554820D01*
X109543371Y-100461269D01*
X109594448Y-100344823D01*
X109600105Y-100276551D01*
X110182452Y-100858898D01*
X110189131Y-100850057D01*
X110282888Y-100661768D01*
X110340454Y-100459446D01*
X110340454Y-100459444D01*
X110359861Y-100250000D01*
X110340454Y-100040555D01*
X110340454Y-100040553D01*
X110282887Y-99838228D01*
X110189133Y-99649944D01*
X110189131Y-99649941D01*
X110182453Y-99641099D01*
X110182452Y-99641099D01*
X109604903Y-100218648D01*
X109604949Y-100218102D01*
X109573734Y-100094838D01*
X109504187Y-99988388D01*
X109403843Y-99910287D01*
X109283578Y-99869000D01*
X109247446Y-99869000D01*
X109826110Y-99290335D01*
X109826110Y-99290334D01*
X109728085Y-99229640D01*
X109728077Y-99229636D01*
X109531934Y-99153649D01*
X109325177Y-99115000D01*
X109114823Y-99115000D01*
X108908065Y-99153649D01*
X108711918Y-99229637D01*
X108613888Y-99290334D01*
X109192554Y-99869000D01*
X109188431Y-99869000D01*
X109094579Y-99884661D01*
X108982749Y-99945180D01*
X108896629Y-100038731D01*
X108845552Y-100155177D01*
X108839894Y-100223448D01*
X108257545Y-99641099D01*
X108250868Y-99649941D01*
X108157112Y-99838228D01*
X108157111Y-99838228D01*
X108099545Y-100040553D01*
X108099545Y-100040555D01*
X108080138Y-100250000D01*
X99060500Y-100250000D01*
X99060500Y-95160312D01*
X105965792Y-95160312D01*
X105975675Y-95518832D01*
X106024941Y-95874105D01*
X106112990Y-96221801D01*
X106112992Y-96221809D01*
X106238744Y-96557680D01*
X106238750Y-96557693D01*
X106238752Y-96557697D01*
X106400704Y-96877721D01*
X106595645Y-97176100D01*
X106596885Y-97177998D01*
X106713469Y-97319557D01*
X106824893Y-97454852D01*
X107081981Y-97704951D01*
X107365022Y-97925251D01*
X107365026Y-97925253D01*
X107365028Y-97925255D01*
X107458149Y-97982496D01*
X107670580Y-98113077D01*
X107670584Y-98113078D01*
X107670589Y-98113082D01*
X107842229Y-98194080D01*
X107994946Y-98266149D01*
X108334183Y-98382609D01*
X108684172Y-98461043D01*
X109040665Y-98500500D01*
X109040666Y-98500500D01*
X118729220Y-98500500D01*
X118824508Y-98519454D01*
X118905290Y-98573430D01*
X118959266Y-98654212D01*
X118978220Y-98749500D01*
X118959266Y-98844788D01*
X118905290Y-98925570D01*
X118824508Y-98979546D01*
X118764406Y-99004441D01*
X118562354Y-99128258D01*
X118382162Y-99282156D01*
X118382156Y-99282162D01*
X118228258Y-99462354D01*
X118104442Y-99664404D01*
X118013758Y-99883332D01*
X118013756Y-99883338D01*
X117958439Y-100113754D01*
X117958436Y-100113771D01*
X117939845Y-100349994D01*
X117939845Y-100350005D01*
X117958436Y-100586228D01*
X117958439Y-100586245D01*
X117995122Y-100739045D01*
X118013757Y-100816664D01*
X118104442Y-101035596D01*
X118228259Y-101237647D01*
X118382159Y-101417841D01*
X118562353Y-101571741D01*
X118764404Y-101695558D01*
X118983336Y-101786243D01*
X119213760Y-101841562D01*
X119213769Y-101841562D01*
X119213771Y-101841563D01*
X119449995Y-101860155D01*
X119450000Y-101860155D01*
X119450005Y-101860155D01*
X119686228Y-101841563D01*
X119686228Y-101841562D01*
X119686240Y-101841562D01*
X119916664Y-101786243D01*
X120135596Y-101695558D01*
X120337647Y-101571741D01*
X120442875Y-101481868D01*
X145461500Y-101481868D01*
X145461501Y-101481872D01*
X145461884Y-101485432D01*
X145467908Y-101541480D01*
X145467909Y-101541483D01*
X145518204Y-101676331D01*
X145604454Y-101791546D01*
X145719669Y-101877796D01*
X145719670Y-101877796D01*
X145733927Y-101888469D01*
X145731515Y-101891689D01*
X145780437Y-101932578D01*
X145825466Y-102018669D01*
X145834121Y-102115437D01*
X145805086Y-102208152D01*
X145777302Y-102248854D01*
X145773899Y-102252909D01*
X145638400Y-102446420D01*
X145638396Y-102446428D01*
X145538570Y-102660505D01*
X145538566Y-102660516D01*
X145481363Y-102873998D01*
X145481364Y-102874000D01*
X146378314Y-102874000D01*
X146352507Y-102914156D01*
X146312000Y-103052111D01*
X146312000Y-103195889D01*
X146352507Y-103333844D01*
X146378314Y-103374000D01*
X145481364Y-103374000D01*
X145481363Y-103374001D01*
X145538566Y-103587483D01*
X145538566Y-103587485D01*
X145638399Y-103801576D01*
X145773889Y-103995076D01*
X145940923Y-104162110D01*
X146134423Y-104297600D01*
X146348511Y-104397431D01*
X146562000Y-104454635D01*
X146562000Y-103559501D01*
X146669685Y-103608680D01*
X146776237Y-103624000D01*
X146847763Y-103624000D01*
X146954315Y-103608680D01*
X147062000Y-103559501D01*
X147062000Y-104454635D01*
X147275488Y-104397431D01*
X147489576Y-104297600D01*
X147683076Y-104162110D01*
X147850110Y-103995076D01*
X147985600Y-103801576D01*
X148085433Y-103587485D01*
X148085433Y-103587483D01*
X148142636Y-103374001D01*
X148142636Y-103374000D01*
X147245686Y-103374000D01*
X147271493Y-103333844D01*
X147312000Y-103195889D01*
X147312000Y-103052111D01*
X147271493Y-102914156D01*
X147245686Y-102874000D01*
X148142636Y-102874000D01*
X148142636Y-102873998D01*
X148085433Y-102660516D01*
X148085429Y-102660505D01*
X147985603Y-102446428D01*
X147985599Y-102446420D01*
X147850106Y-102252918D01*
X147846704Y-102248863D01*
X147844665Y-102245147D01*
X147843874Y-102244017D01*
X147843997Y-102243930D01*
X147799974Y-102163685D01*
X147789398Y-102067107D01*
X147816585Y-101973834D01*
X147877397Y-101898064D01*
X147890540Y-101889093D01*
X147890073Y-101888469D01*
X147904329Y-101877796D01*
X147904331Y-101877796D01*
X148019546Y-101791546D01*
X148105796Y-101676331D01*
X148156091Y-101541483D01*
X148162500Y-101481873D01*
X148162499Y-99686128D01*
X148156091Y-99626517D01*
X148105796Y-99491669D01*
X148019546Y-99376454D01*
X147904331Y-99290204D01*
X147824117Y-99260286D01*
X147769481Y-99239908D01*
X147709873Y-99233500D01*
X145914134Y-99233500D01*
X145914130Y-99233500D01*
X145914128Y-99233501D01*
X145901314Y-99234878D01*
X145854519Y-99239908D01*
X145854515Y-99239909D01*
X145719670Y-99290203D01*
X145604455Y-99376453D01*
X145604453Y-99376455D01*
X145518204Y-99491669D01*
X145467908Y-99626518D01*
X145461500Y-99686123D01*
X145461500Y-101481865D01*
X145461500Y-101481868D01*
X120442875Y-101481868D01*
X120517841Y-101417841D01*
X120671741Y-101237647D01*
X120795558Y-101035596D01*
X120886243Y-100816664D01*
X120941562Y-100586240D01*
X120951541Y-100459446D01*
X120960155Y-100350005D01*
X120960155Y-100349994D01*
X120941563Y-100113771D01*
X120941562Y-100113769D01*
X120941562Y-100113760D01*
X120886243Y-99883336D01*
X120795558Y-99664404D01*
X120671741Y-99462353D01*
X120517841Y-99282159D01*
X120337647Y-99128259D01*
X120135596Y-99004442D01*
X120075491Y-98979545D01*
X119994710Y-98925570D01*
X119940734Y-98844788D01*
X119921780Y-98749500D01*
X119940734Y-98654212D01*
X119994710Y-98573430D01*
X120075492Y-98519454D01*
X120170780Y-98500500D01*
X120739580Y-98500500D01*
X120739595Y-98500500D01*
X121008125Y-98485685D01*
X121361904Y-98426650D01*
X121707041Y-98329054D01*
X122039346Y-98194083D01*
X122354787Y-98023375D01*
X122649534Y-97819002D01*
X122920010Y-97583445D01*
X123162931Y-97319562D01*
X123375348Y-97030559D01*
X123554683Y-96719941D01*
X123672472Y-96451407D01*
X123698753Y-96391495D01*
X123698754Y-96391492D01*
X123698759Y-96391481D01*
X123805827Y-96049164D01*
X123874588Y-95697147D01*
X123904207Y-95339702D01*
X123900981Y-95222679D01*
X123894324Y-94981167D01*
X123884870Y-94912995D01*
X123845059Y-94625897D01*
X123757011Y-94278202D01*
X123733224Y-94214669D01*
X123631255Y-93942319D01*
X123631250Y-93942310D01*
X123631248Y-93942303D01*
X123469296Y-93622279D01*
X123273122Y-93322012D01*
X123273118Y-93322007D01*
X123273114Y-93322001D01*
X123045109Y-93045151D01*
X123045104Y-93045145D01*
X122788024Y-92795054D01*
X122788019Y-92795049D01*
X122504978Y-92574749D01*
X122504975Y-92574747D01*
X122504971Y-92574744D01*
X122199418Y-92386922D01*
X122199410Y-92386917D01*
X121875058Y-92233853D01*
X121875054Y-92233851D01*
X121535817Y-92117391D01*
X121535813Y-92117390D01*
X121535810Y-92117389D01*
X121185828Y-92038957D01*
X120964498Y-92014460D01*
X120829335Y-91999500D01*
X109130405Y-91999500D01*
X109130390Y-91999500D01*
X108861873Y-92014315D01*
X108508099Y-92073349D01*
X108162955Y-92170947D01*
X107830649Y-92305919D01*
X107515207Y-92476628D01*
X107220472Y-92680993D01*
X106949989Y-92916555D01*
X106904015Y-92966497D01*
X106707069Y-93180438D01*
X106707066Y-93180441D01*
X106707066Y-93180442D01*
X106707062Y-93180445D01*
X106494651Y-93469442D01*
X106315315Y-93780062D01*
X106315314Y-93780064D01*
X106171246Y-94108504D01*
X106171239Y-94108522D01*
X106064172Y-94450837D01*
X106064170Y-94450847D01*
X105995413Y-94802843D01*
X105995411Y-94802856D01*
X105965792Y-95160312D01*
X99060500Y-95160312D01*
X99060500Y-88931868D01*
X128119500Y-88931868D01*
X128119501Y-88931872D01*
X128120153Y-88937935D01*
X128125908Y-88991480D01*
X128125909Y-88991484D01*
X128176203Y-89126329D01*
X128176204Y-89126331D01*
X128262454Y-89241546D01*
X128377669Y-89327796D01*
X128512517Y-89378091D01*
X128572127Y-89384500D01*
X130667872Y-89384499D01*
X130727483Y-89378091D01*
X130862331Y-89327796D01*
X130977546Y-89241546D01*
X131063796Y-89126331D01*
X131114091Y-88991483D01*
X131120500Y-88931873D01*
X131120499Y-87884000D01*
X133114859Y-87884000D01*
X133135387Y-88131741D01*
X133135389Y-88131748D01*
X133196410Y-88372714D01*
X133196413Y-88372722D01*
X133296266Y-88600364D01*
X133396564Y-88753881D01*
X134136922Y-88013523D01*
X134160507Y-88093844D01*
X134238239Y-88214798D01*
X134346900Y-88308952D01*
X134477685Y-88368680D01*
X134487465Y-88370086D01*
X133749942Y-89107610D01*
X133796766Y-89144054D01*
X133796770Y-89144057D01*
X134015388Y-89262366D01*
X134015390Y-89262367D01*
X134250509Y-89343083D01*
X134250512Y-89343084D01*
X134495706Y-89384000D01*
X134744294Y-89384000D01*
X134989487Y-89343084D01*
X134989490Y-89343083D01*
X135224607Y-89262368D01*
X135443230Y-89144055D01*
X135443238Y-89144050D01*
X135490056Y-89107610D01*
X134752532Y-88370086D01*
X134762315Y-88368680D01*
X134893100Y-88308952D01*
X135001761Y-88214798D01*
X135079493Y-88093844D01*
X135103077Y-88013523D01*
X135843435Y-88753881D01*
X135943731Y-88600368D01*
X136043586Y-88372722D01*
X136043589Y-88372714D01*
X136104610Y-88131748D01*
X136104612Y-88131741D01*
X136125140Y-87884000D01*
X136104612Y-87636258D01*
X136104610Y-87636251D01*
X136043589Y-87395285D01*
X136043586Y-87395277D01*
X135943730Y-87167628D01*
X135843435Y-87014117D01*
X135103076Y-87754475D01*
X135079493Y-87674156D01*
X135001761Y-87553202D01*
X134893100Y-87459048D01*
X134762315Y-87399320D01*
X134752531Y-87397913D01*
X135490056Y-86660388D01*
X135443241Y-86623951D01*
X135443230Y-86623944D01*
X135224607Y-86505631D01*
X134989490Y-86424916D01*
X134989487Y-86424915D01*
X134744294Y-86384000D01*
X134495706Y-86384000D01*
X134250512Y-86424915D01*
X134250509Y-86424916D01*
X134015392Y-86505631D01*
X133796768Y-86623944D01*
X133796758Y-86623951D01*
X133749941Y-86660388D01*
X134487466Y-87397913D01*
X134477685Y-87399320D01*
X134346900Y-87459048D01*
X134238239Y-87553202D01*
X134160507Y-87674156D01*
X134136922Y-87754476D01*
X133396563Y-87014117D01*
X133296268Y-87167630D01*
X133296268Y-87167631D01*
X133196413Y-87395277D01*
X133196410Y-87395285D01*
X133135389Y-87636251D01*
X133135387Y-87636258D01*
X133114859Y-87884000D01*
X131120499Y-87884000D01*
X131120499Y-86836128D01*
X131114091Y-86776517D01*
X131063796Y-86641669D01*
X130977546Y-86526454D01*
X130862331Y-86440204D01*
X130782117Y-86410286D01*
X130727481Y-86389908D01*
X130667873Y-86383500D01*
X128572134Y-86383500D01*
X128572130Y-86383500D01*
X128572128Y-86383501D01*
X128559314Y-86384878D01*
X128512519Y-86389908D01*
X128512515Y-86389909D01*
X128377670Y-86440203D01*
X128262455Y-86526453D01*
X128262453Y-86526455D01*
X128176204Y-86641669D01*
X128125908Y-86776518D01*
X128119500Y-86836123D01*
X128119500Y-88931865D01*
X128119500Y-88931868D01*
X99060500Y-88931868D01*
X99060500Y-80772005D01*
X107635114Y-80772005D01*
X107654625Y-81019923D01*
X107654626Y-81019931D01*
X107712684Y-81261757D01*
X107807853Y-81491517D01*
X107807854Y-81491519D01*
X107807856Y-81491523D01*
X107937800Y-81703573D01*
X108099316Y-81892684D01*
X108288427Y-82054200D01*
X108500477Y-82184144D01*
X108730243Y-82279316D01*
X108914011Y-82323434D01*
X108972068Y-82337373D01*
X108972076Y-82337374D01*
X109219995Y-82356886D01*
X109220000Y-82356886D01*
X109220005Y-82356886D01*
X109467923Y-82337374D01*
X109467931Y-82337373D01*
X109709757Y-82279316D01*
X109939523Y-82184144D01*
X110151573Y-82054200D01*
X110340684Y-81892684D01*
X110502200Y-81703573D01*
X110632144Y-81491523D01*
X110727316Y-81261757D01*
X110785373Y-81019931D01*
X110787168Y-80997124D01*
X110804886Y-80772005D01*
X110804886Y-80771994D01*
X110785374Y-80524076D01*
X110785373Y-80524068D01*
X110747854Y-80367790D01*
X110727316Y-80282243D01*
X110632144Y-80052477D01*
X110502200Y-79840427D01*
X110340684Y-79651316D01*
X110151573Y-79489800D01*
X109939523Y-79359856D01*
X109939519Y-79359854D01*
X109939517Y-79359853D01*
X109709757Y-79264684D01*
X109467931Y-79206626D01*
X109467923Y-79206625D01*
X109220005Y-79187114D01*
X109219995Y-79187114D01*
X108972076Y-79206625D01*
X108972068Y-79206626D01*
X108730242Y-79264684D01*
X108500482Y-79359853D01*
X108288425Y-79489801D01*
X108099319Y-79651313D01*
X108099313Y-79651319D01*
X107937801Y-79840425D01*
X107807853Y-80052482D01*
X107712684Y-80282242D01*
X107654626Y-80524068D01*
X107654625Y-80524076D01*
X107635114Y-80771994D01*
X107635114Y-80772005D01*
X99060500Y-80772005D01*
X99060500Y-76809605D01*
X107635114Y-76809605D01*
X107654625Y-77057523D01*
X107654626Y-77057531D01*
X107712684Y-77299357D01*
X107807853Y-77529117D01*
X107807854Y-77529119D01*
X107807856Y-77529123D01*
X107937800Y-77741173D01*
X108099316Y-77930284D01*
X108288427Y-78091800D01*
X108500477Y-78221744D01*
X108730243Y-78316916D01*
X108914011Y-78361034D01*
X108972068Y-78374973D01*
X108972076Y-78374974D01*
X109219995Y-78394486D01*
X109220000Y-78394486D01*
X109220005Y-78394486D01*
X109467923Y-78374974D01*
X109467931Y-78374973D01*
X109709757Y-78316916D01*
X109939523Y-78221744D01*
X110151573Y-78091800D01*
X110340684Y-77930284D01*
X110502200Y-77741173D01*
X110594594Y-77590399D01*
X116609500Y-77590399D01*
X116649134Y-77827913D01*
X116676666Y-77908111D01*
X116727321Y-78055666D01*
X116727321Y-78055667D01*
X116841929Y-78267441D01*
X116989825Y-78457458D01*
X116989830Y-78457464D01*
X117098112Y-78557145D01*
X117155381Y-78635627D01*
X117178256Y-78730050D01*
X117163256Y-78826041D01*
X117112664Y-78908983D01*
X117098113Y-78923534D01*
X116990207Y-79022868D01*
X116990196Y-79022881D01*
X116842343Y-79212840D01*
X116727783Y-79424532D01*
X116727782Y-79424534D01*
X116649620Y-79652209D01*
X116649619Y-79652214D01*
X116631632Y-79759999D01*
X116631633Y-79760000D01*
X117615148Y-79760000D01*
X117566441Y-79897047D01*
X117556123Y-80047886D01*
X117586884Y-80195915D01*
X117620090Y-80260000D01*
X116631633Y-80260000D01*
X116649619Y-80367785D01*
X116649620Y-80367790D01*
X116727782Y-80595465D01*
X116727783Y-80595467D01*
X116842343Y-80807159D01*
X116990196Y-80997118D01*
X116990201Y-80997124D01*
X117167296Y-81160153D01*
X117167301Y-81160157D01*
X117368812Y-81291811D01*
X117368820Y-81291815D01*
X117589257Y-81388507D01*
X117822604Y-81447599D01*
X117860000Y-81450697D01*
X117860000Y-80501683D01*
X117888819Y-80519209D01*
X118034404Y-80560000D01*
X118147622Y-80560000D01*
X118259783Y-80544584D01*
X118360000Y-80501053D01*
X118360000Y-81450697D01*
X118397395Y-81447599D01*
X118630742Y-81388507D01*
X118851179Y-81291815D01*
X118851187Y-81291811D01*
X119052698Y-81160157D01*
X119052703Y-81160153D01*
X119229798Y-80997124D01*
X119229803Y-80997118D01*
X119377656Y-80807159D01*
X119492216Y-80595467D01*
X119492217Y-80595465D01*
X119570379Y-80367790D01*
X119570380Y-80367785D01*
X119588367Y-80260000D01*
X118604852Y-80260000D01*
X118653559Y-80122953D01*
X118663877Y-79972114D01*
X118633116Y-79824085D01*
X118599910Y-79760000D01*
X119588367Y-79760000D01*
X119588367Y-79759999D01*
X119570380Y-79652214D01*
X119570379Y-79652209D01*
X119492217Y-79424534D01*
X119492216Y-79424532D01*
X119377656Y-79212840D01*
X119229803Y-79022881D01*
X119229793Y-79022869D01*
X119121887Y-78923535D01*
X119064618Y-78845053D01*
X119041743Y-78750630D01*
X119056743Y-78654640D01*
X119107335Y-78571697D01*
X119121870Y-78557160D01*
X119230171Y-78457463D01*
X119378072Y-78267439D01*
X119446310Y-78141345D01*
X119492678Y-78055667D01*
X119492678Y-78055666D01*
X119513694Y-77994448D01*
X119570866Y-77827913D01*
X119610500Y-77590399D01*
X119610500Y-77349601D01*
X119570866Y-77112087D01*
X119494883Y-76890758D01*
X119492678Y-76884333D01*
X119492678Y-76884332D01*
X119384061Y-76683628D01*
X119378072Y-76672561D01*
X119378071Y-76672559D01*
X119378069Y-76672556D01*
X119378067Y-76672553D01*
X119354146Y-76641819D01*
X119310576Y-76554982D01*
X119303554Y-76458081D01*
X119334149Y-76365869D01*
X119397704Y-76292385D01*
X119401421Y-76289547D01*
X119467546Y-76240046D01*
X119553796Y-76124831D01*
X119604091Y-75989983D01*
X119610500Y-75930373D01*
X119610499Y-73929628D01*
X119604091Y-73870017D01*
X119553796Y-73735169D01*
X119467546Y-73619954D01*
X119352331Y-73533704D01*
X119272117Y-73503786D01*
X119217481Y-73483408D01*
X119157873Y-73477000D01*
X117062134Y-73477000D01*
X117062130Y-73477000D01*
X117062128Y-73477001D01*
X117049314Y-73478378D01*
X117002519Y-73483408D01*
X117002515Y-73483409D01*
X116867670Y-73533703D01*
X116752455Y-73619953D01*
X116752453Y-73619955D01*
X116666204Y-73735169D01*
X116615908Y-73870018D01*
X116609500Y-73929623D01*
X116609500Y-75930365D01*
X116609500Y-75930368D01*
X116609501Y-75930372D01*
X116611567Y-75949593D01*
X116615908Y-75989980D01*
X116615909Y-75989984D01*
X116653243Y-76090082D01*
X116666204Y-76124831D01*
X116752454Y-76240046D01*
X116752457Y-76240048D01*
X116752459Y-76240050D01*
X116818579Y-76289548D01*
X116883502Y-76361826D01*
X116915823Y-76453447D01*
X116910622Y-76550463D01*
X116868690Y-76638103D01*
X116865856Y-76641816D01*
X116841930Y-76672556D01*
X116727321Y-76884332D01*
X116727321Y-76884333D01*
X116671083Y-77048152D01*
X116649134Y-77112087D01*
X116609500Y-77349601D01*
X116609500Y-77590399D01*
X110594594Y-77590399D01*
X110632144Y-77529123D01*
X110727316Y-77299357D01*
X110785373Y-77057531D01*
X110785458Y-77056450D01*
X110804886Y-76809605D01*
X110804886Y-76809594D01*
X110785374Y-76561676D01*
X110785373Y-76561668D01*
X110759391Y-76453447D01*
X110727316Y-76319843D01*
X110632144Y-76090077D01*
X110502200Y-75878027D01*
X110340684Y-75688916D01*
X110151573Y-75527400D01*
X109939523Y-75397456D01*
X109939519Y-75397454D01*
X109939517Y-75397453D01*
X109709757Y-75302284D01*
X109467931Y-75244226D01*
X109467923Y-75244225D01*
X109220005Y-75224714D01*
X109219995Y-75224714D01*
X108972076Y-75244225D01*
X108972068Y-75244226D01*
X108730242Y-75302284D01*
X108500482Y-75397453D01*
X108288425Y-75527401D01*
X108099319Y-75688913D01*
X108099313Y-75688919D01*
X107937801Y-75878025D01*
X107807853Y-76090082D01*
X107712684Y-76319842D01*
X107654626Y-76561668D01*
X107654625Y-76561676D01*
X107635114Y-76809594D01*
X107635114Y-76809605D01*
X99060500Y-76809605D01*
X99060500Y-67309999D01*
X106094628Y-67309999D01*
X106114470Y-67524132D01*
X106173324Y-67730983D01*
X106269181Y-67923490D01*
X106279409Y-67937034D01*
X106856451Y-67359993D01*
X106868672Y-67437150D01*
X106927116Y-67551854D01*
X107018145Y-67642883D01*
X107132849Y-67701327D01*
X107210001Y-67713547D01*
X106635435Y-68288113D01*
X106635436Y-68288114D01*
X106740553Y-68353199D01*
X106740552Y-68353199D01*
X106941074Y-68430882D01*
X106941082Y-68430884D01*
X107152468Y-68470400D01*
X107367530Y-68470400D01*
X107578915Y-68430884D01*
X107578923Y-68430882D01*
X107779438Y-68353202D01*
X107779452Y-68353195D01*
X107878440Y-68291904D01*
X107969434Y-68257855D01*
X108066530Y-68261221D01*
X108140604Y-68291903D01*
X108181343Y-68317127D01*
X108240325Y-68353647D01*
X108440943Y-68431367D01*
X108440946Y-68431368D01*
X108652422Y-68470900D01*
X108652426Y-68470900D01*
X108867576Y-68470900D01*
X109079051Y-68431368D01*
X109079052Y-68431367D01*
X109079055Y-68431367D01*
X109279673Y-68353647D01*
X109378922Y-68292194D01*
X109469911Y-68258148D01*
X109567008Y-68261514D01*
X109641076Y-68292193D01*
X109740327Y-68353647D01*
X109940945Y-68431367D01*
X109940948Y-68431368D01*
X110152424Y-68470900D01*
X110152428Y-68470900D01*
X110367578Y-68470900D01*
X110579053Y-68431368D01*
X110579054Y-68431367D01*
X110579057Y-68431367D01*
X110779675Y-68353647D01*
X110878920Y-68292196D01*
X110969911Y-68258149D01*
X111067007Y-68261515D01*
X111141078Y-68292195D01*
X111240326Y-68353647D01*
X111440944Y-68431367D01*
X111440947Y-68431368D01*
X111652423Y-68470900D01*
X111652427Y-68470900D01*
X111867577Y-68470900D01*
X112079052Y-68431368D01*
X112079053Y-68431367D01*
X112079056Y-68431367D01*
X112279674Y-68353647D01*
X112462595Y-68240387D01*
X112621591Y-68095444D01*
X112751245Y-67923753D01*
X112847144Y-67731162D01*
X112906022Y-67524229D01*
X112925873Y-67310000D01*
X112906022Y-67095771D01*
X112900505Y-67076382D01*
X112867236Y-66959454D01*
X112847144Y-66888838D01*
X112751245Y-66696247D01*
X112621591Y-66524556D01*
X112462595Y-66379613D01*
X112433908Y-66361851D01*
X112279679Y-66266356D01*
X112279678Y-66266355D01*
X112279674Y-66266353D01*
X112141126Y-66212679D01*
X112079052Y-66188631D01*
X111867577Y-66149100D01*
X111867573Y-66149100D01*
X111652427Y-66149100D01*
X111652423Y-66149100D01*
X111440947Y-66188631D01*
X111240328Y-66266352D01*
X111240327Y-66266352D01*
X111240326Y-66266353D01*
X111239601Y-66266802D01*
X111141081Y-66327803D01*
X111050087Y-66361850D01*
X110952990Y-66358484D01*
X110878919Y-66327802D01*
X110779680Y-66266356D01*
X110779679Y-66266355D01*
X110779675Y-66266353D01*
X110641127Y-66212679D01*
X110579053Y-66188631D01*
X110367578Y-66149100D01*
X110367574Y-66149100D01*
X110152428Y-66149100D01*
X110152424Y-66149100D01*
X109940948Y-66188631D01*
X109740329Y-66266352D01*
X109740321Y-66266356D01*
X109641081Y-66327803D01*
X109550087Y-66361851D01*
X109452991Y-66358485D01*
X109378919Y-66327803D01*
X109279678Y-66266356D01*
X109279677Y-66266355D01*
X109279673Y-66266353D01*
X109141125Y-66212679D01*
X109079051Y-66188631D01*
X108867576Y-66149100D01*
X108867572Y-66149100D01*
X108652426Y-66149100D01*
X108652422Y-66149100D01*
X108440946Y-66188631D01*
X108240327Y-66266352D01*
X108240322Y-66266354D01*
X108140604Y-66328097D01*
X108049611Y-66362144D01*
X107952514Y-66358778D01*
X107878443Y-66328097D01*
X107779447Y-66266802D01*
X107779438Y-66266797D01*
X107578923Y-66189117D01*
X107578915Y-66189115D01*
X107367530Y-66149600D01*
X107152468Y-66149600D01*
X106941082Y-66189115D01*
X106941078Y-66189116D01*
X106740551Y-66266801D01*
X106635435Y-66331884D01*
X107210003Y-66906452D01*
X107132849Y-66918673D01*
X107018145Y-66977117D01*
X106927116Y-67068146D01*
X106868672Y-67182850D01*
X106856451Y-67260004D01*
X106279410Y-66682963D01*
X106279409Y-66682964D01*
X106269182Y-66696508D01*
X106173324Y-66889016D01*
X106114470Y-67095867D01*
X106094628Y-67309999D01*
X99060500Y-67309999D01*
X99060500Y-63835194D01*
X135604840Y-63835194D01*
X135608395Y-63872803D01*
X135609500Y-63896236D01*
X135609500Y-67219083D01*
X135608395Y-67242512D01*
X135607326Y-67253812D01*
X135609377Y-67319047D01*
X135609500Y-67326868D01*
X135609500Y-67352496D01*
X135609852Y-67358102D01*
X135611103Y-67374003D01*
X135612290Y-67411776D01*
X135615135Y-67421567D01*
X135623057Y-67459817D01*
X135624335Y-67469938D01*
X135638246Y-67505073D01*
X135645842Y-67527261D01*
X135656382Y-67563538D01*
X135661575Y-67572320D01*
X135678757Y-67607392D01*
X135682514Y-67616880D01*
X135682514Y-67616881D01*
X135704723Y-67647449D01*
X135717598Y-67667050D01*
X135736830Y-67699568D01*
X135736833Y-67699571D01*
X135744043Y-67706782D01*
X135769408Y-67736480D01*
X135775406Y-67744735D01*
X135804513Y-67768814D01*
X135821866Y-67784604D01*
X136148530Y-68111269D01*
X136202506Y-68192050D01*
X136221460Y-68287338D01*
X136202506Y-68382627D01*
X136195356Y-68398325D01*
X136129420Y-68530743D01*
X136129417Y-68530752D01*
X136073603Y-68726912D01*
X136073602Y-68726920D01*
X136054785Y-68930000D01*
X136073602Y-69133079D01*
X136073603Y-69133087D01*
X136129417Y-69329247D01*
X136129418Y-69329251D01*
X136220323Y-69511815D01*
X136220325Y-69511818D01*
X136220327Y-69511821D01*
X136283896Y-69596000D01*
X136343237Y-69674580D01*
X136421566Y-69745987D01*
X136479215Y-69824190D01*
X136502549Y-69918501D01*
X136488016Y-70014563D01*
X136437828Y-70097751D01*
X136421566Y-70114013D01*
X136343237Y-70185419D01*
X136220323Y-70348184D01*
X136129418Y-70530748D01*
X136129417Y-70530752D01*
X136073603Y-70726912D01*
X136073602Y-70726920D01*
X136054785Y-70930000D01*
X136073602Y-71133079D01*
X136073603Y-71133087D01*
X136129417Y-71329247D01*
X136129418Y-71329251D01*
X136220323Y-71511815D01*
X136220325Y-71511818D01*
X136220327Y-71511821D01*
X136298528Y-71615376D01*
X136343237Y-71674580D01*
X136421566Y-71745987D01*
X136479215Y-71824190D01*
X136502549Y-71918501D01*
X136488016Y-72014563D01*
X136437828Y-72097751D01*
X136421566Y-72114013D01*
X136343237Y-72185419D01*
X136220323Y-72348184D01*
X136129418Y-72530748D01*
X136129417Y-72530752D01*
X136073603Y-72726912D01*
X136073602Y-72726920D01*
X136054785Y-72930000D01*
X136073602Y-73133079D01*
X136073603Y-73133087D01*
X136129417Y-73329247D01*
X136129418Y-73329251D01*
X136220323Y-73511815D01*
X136220325Y-73511818D01*
X136220327Y-73511821D01*
X136301986Y-73619955D01*
X136343237Y-73674580D01*
X136421566Y-73745987D01*
X136479215Y-73824190D01*
X136502549Y-73918501D01*
X136488016Y-74014563D01*
X136437828Y-74097751D01*
X136421566Y-74114013D01*
X136343237Y-74185419D01*
X136220323Y-74348184D01*
X136129418Y-74530748D01*
X136129417Y-74530752D01*
X136073603Y-74726912D01*
X136073602Y-74726920D01*
X136054785Y-74930000D01*
X136073602Y-75133079D01*
X136073603Y-75133087D01*
X136129417Y-75329247D01*
X136129418Y-75329251D01*
X136220323Y-75511815D01*
X136220325Y-75511818D01*
X136220327Y-75511821D01*
X136300348Y-75617786D01*
X136343239Y-75674583D01*
X136493957Y-75811980D01*
X136493959Y-75811981D01*
X136667363Y-75919348D01*
X136857544Y-75993024D01*
X136991197Y-76018008D01*
X137058022Y-76030500D01*
X137058024Y-76030500D01*
X137261977Y-76030500D01*
X137295389Y-76024254D01*
X137462456Y-75993024D01*
X137652637Y-75919348D01*
X137826041Y-75811981D01*
X137845513Y-75794230D01*
X137985272Y-75666824D01*
X137986233Y-75667879D01*
X138054182Y-75617786D01*
X138148492Y-75594448D01*
X138244555Y-75608978D01*
X138327744Y-75659163D01*
X138342387Y-75673806D01*
X138493957Y-75811980D01*
X138493959Y-75811981D01*
X138667363Y-75919348D01*
X138857544Y-75993024D01*
X138991197Y-76018008D01*
X139058022Y-76030500D01*
X139210500Y-76030500D01*
X139305788Y-76049454D01*
X139386570Y-76103430D01*
X139440546Y-76184212D01*
X139459500Y-76279500D01*
X139459500Y-76490935D01*
X139458395Y-76514364D01*
X139457326Y-76525664D01*
X139459377Y-76590899D01*
X139459500Y-76598720D01*
X139459500Y-76624348D01*
X139459852Y-76629954D01*
X139461103Y-76645855D01*
X139462290Y-76683628D01*
X139465135Y-76693419D01*
X139473057Y-76731669D01*
X139474335Y-76741790D01*
X139488246Y-76776925D01*
X139495842Y-76799113D01*
X139506382Y-76835390D01*
X139511575Y-76844172D01*
X139528757Y-76879244D01*
X139532514Y-76888732D01*
X139532514Y-76888733D01*
X139554723Y-76919301D01*
X139567598Y-76938902D01*
X139586830Y-76971420D01*
X139586833Y-76971423D01*
X139594043Y-76978634D01*
X139619408Y-77008332D01*
X139625406Y-77016587D01*
X139654507Y-77040661D01*
X139671860Y-77056450D01*
X169845556Y-107230147D01*
X169899532Y-107310929D01*
X169918486Y-107406217D01*
X169911605Y-107458485D01*
X169912253Y-107458600D01*
X169910363Y-107469314D01*
X169890532Y-107695994D01*
X169890532Y-107696005D01*
X169910363Y-107922679D01*
X169910365Y-107922694D01*
X169969261Y-108142496D01*
X169969262Y-108142499D01*
X170065428Y-108348727D01*
X170065436Y-108348741D01*
X170115522Y-108420271D01*
X170195953Y-108535139D01*
X170356861Y-108696047D01*
X170356864Y-108696049D01*
X170356865Y-108696050D01*
X170543258Y-108826563D01*
X170543262Y-108826565D01*
X170543266Y-108826568D01*
X170749504Y-108922739D01*
X170969308Y-108981635D01*
X170988984Y-108983356D01*
X171195994Y-109001468D01*
X171196000Y-109001468D01*
X171196006Y-109001468D01*
X171375668Y-108985749D01*
X171422692Y-108981635D01*
X171642496Y-108922739D01*
X171848734Y-108826568D01*
X172035139Y-108696047D01*
X172196047Y-108535139D01*
X172326568Y-108348734D01*
X172422739Y-108142496D01*
X172481635Y-107922692D01*
X172491799Y-107806518D01*
X172501468Y-107696005D01*
X172501468Y-107695994D01*
X172481636Y-107469320D01*
X172481635Y-107469308D01*
X172422739Y-107249504D01*
X172326568Y-107043266D01*
X172326565Y-107043262D01*
X172326563Y-107043258D01*
X172196050Y-106856865D01*
X172196049Y-106856864D01*
X172196047Y-106856861D01*
X172035139Y-106695953D01*
X171940902Y-106629968D01*
X171873719Y-106559789D01*
X171838506Y-106469240D01*
X171840625Y-106372108D01*
X171879753Y-106283181D01*
X171940902Y-106222031D01*
X172035139Y-106156047D01*
X172196047Y-105995139D01*
X172326568Y-105808734D01*
X172422739Y-105602496D01*
X172481635Y-105382692D01*
X172501468Y-105156005D01*
X182590532Y-105156005D01*
X182610363Y-105382679D01*
X182610365Y-105382694D01*
X182669261Y-105602496D01*
X182669262Y-105602499D01*
X182765428Y-105808727D01*
X182765436Y-105808741D01*
X182799579Y-105857502D01*
X182895953Y-105995139D01*
X183056861Y-106156047D01*
X183151534Y-106222337D01*
X183218716Y-106292516D01*
X183253929Y-106383065D01*
X183251810Y-106480197D01*
X183212682Y-106569125D01*
X183151534Y-106630273D01*
X183057186Y-106696336D01*
X182896335Y-106857187D01*
X182765866Y-107043516D01*
X182669732Y-107249676D01*
X182617128Y-107445999D01*
X182617128Y-107446000D01*
X183580314Y-107446000D01*
X183568359Y-107457955D01*
X183510835Y-107570852D01*
X183491014Y-107696000D01*
X183510835Y-107821148D01*
X183568359Y-107934045D01*
X183580314Y-107946000D01*
X182617128Y-107946000D01*
X182669732Y-108142323D01*
X182765866Y-108348483D01*
X182896335Y-108534812D01*
X183057187Y-108695664D01*
X183243516Y-108826133D01*
X183449676Y-108922267D01*
X183645999Y-108974871D01*
X183646000Y-108974871D01*
X183646000Y-108011686D01*
X183657955Y-108023641D01*
X183770852Y-108081165D01*
X183864519Y-108096000D01*
X183927481Y-108096000D01*
X184021148Y-108081165D01*
X184134045Y-108023641D01*
X184146000Y-108011686D01*
X184146000Y-108974871D01*
X184342323Y-108922267D01*
X184548483Y-108826133D01*
X184734812Y-108695664D01*
X184895664Y-108534812D01*
X185026133Y-108348483D01*
X185122267Y-108142323D01*
X185174872Y-107946000D01*
X184211686Y-107946000D01*
X184223641Y-107934045D01*
X184281165Y-107821148D01*
X184300986Y-107696000D01*
X184281165Y-107570852D01*
X184223641Y-107457955D01*
X184211686Y-107446000D01*
X185174872Y-107446000D01*
X185174871Y-107445999D01*
X185122267Y-107249676D01*
X185026133Y-107043516D01*
X184895664Y-106857187D01*
X184734814Y-106696337D01*
X184640466Y-106630274D01*
X184573282Y-106560093D01*
X184538070Y-106469543D01*
X184540189Y-106372411D01*
X184579318Y-106283484D01*
X184640465Y-106222337D01*
X184735139Y-106156047D01*
X184896047Y-105995139D01*
X185026568Y-105808734D01*
X185122739Y-105602496D01*
X185181635Y-105382692D01*
X185184320Y-105352004D01*
X192928157Y-105352004D01*
X192948296Y-105607898D01*
X193008221Y-105857502D01*
X193106451Y-106094652D01*
X193106460Y-106094668D01*
X193240570Y-106313516D01*
X193240570Y-106313517D01*
X193407281Y-106508712D01*
X193407286Y-106508717D01*
X193602481Y-106675428D01*
X193813749Y-106804892D01*
X193821343Y-106809546D01*
X194058497Y-106907778D01*
X194308098Y-106967702D01*
X194381212Y-106973456D01*
X194563995Y-106987842D01*
X194564000Y-106987842D01*
X194564005Y-106987842D01*
X194723938Y-106975254D01*
X194819902Y-106967702D01*
X195069503Y-106907778D01*
X195306657Y-106809546D01*
X195525517Y-106675428D01*
X195525518Y-106675428D01*
X195525519Y-106675426D01*
X195525524Y-106675424D01*
X195720716Y-106508715D01*
X195887425Y-106313523D01*
X196021547Y-106094656D01*
X196119779Y-105857502D01*
X196179703Y-105607901D01*
X196187255Y-105511937D01*
X196199843Y-105352004D01*
X196199843Y-105351993D01*
X196179703Y-105096099D01*
X196179703Y-105096097D01*
X196119779Y-104846496D01*
X196021547Y-104609342D01*
X195956547Y-104503272D01*
X195887429Y-104390481D01*
X195887429Y-104390480D01*
X195720718Y-104195285D01*
X195720713Y-104195280D01*
X195525518Y-104028569D01*
X195306669Y-103894459D01*
X195306653Y-103894450D01*
X195069503Y-103796220D01*
X194819899Y-103736295D01*
X194564005Y-103716156D01*
X194563995Y-103716156D01*
X194308100Y-103736295D01*
X194058496Y-103796220D01*
X193821346Y-103894450D01*
X193821330Y-103894459D01*
X193602482Y-104028569D01*
X193602481Y-104028569D01*
X193407286Y-104195280D01*
X193407281Y-104195285D01*
X193240570Y-104390480D01*
X193240570Y-104390481D01*
X193106460Y-104609329D01*
X193106451Y-104609345D01*
X193008221Y-104846495D01*
X192948296Y-105096099D01*
X192928157Y-105351993D01*
X192928157Y-105352004D01*
X185184320Y-105352004D01*
X185201468Y-105156000D01*
X185201468Y-105155994D01*
X185181636Y-104929320D01*
X185181636Y-104929319D01*
X185181635Y-104929308D01*
X185122739Y-104709504D01*
X185026568Y-104503266D01*
X185026565Y-104503262D01*
X185026563Y-104503258D01*
X184896050Y-104316865D01*
X184896049Y-104316864D01*
X184896047Y-104316861D01*
X184735139Y-104155953D01*
X184735133Y-104155949D01*
X184706561Y-104135942D01*
X184640902Y-104089968D01*
X184573719Y-104019789D01*
X184538506Y-103929240D01*
X184540625Y-103832108D01*
X184579753Y-103743181D01*
X184640902Y-103682031D01*
X184735139Y-103616047D01*
X184896047Y-103455139D01*
X185026568Y-103268734D01*
X185122739Y-103062496D01*
X185181635Y-102842692D01*
X185194202Y-102699048D01*
X185201468Y-102616005D01*
X185201468Y-102615994D01*
X185181636Y-102389320D01*
X185181635Y-102389308D01*
X185122739Y-102169504D01*
X185052403Y-102018669D01*
X185026571Y-101963272D01*
X185026563Y-101963258D01*
X184896050Y-101776865D01*
X184896049Y-101776864D01*
X184896047Y-101776861D01*
X184735139Y-101615953D01*
X184735133Y-101615949D01*
X184671997Y-101571741D01*
X184640902Y-101549968D01*
X184573719Y-101479789D01*
X184539581Y-101392004D01*
X192928157Y-101392004D01*
X192948296Y-101647898D01*
X193008221Y-101897502D01*
X193106451Y-102134652D01*
X193106460Y-102134668D01*
X193240570Y-102353516D01*
X193240570Y-102353517D01*
X193407281Y-102548712D01*
X193407286Y-102548717D01*
X193602481Y-102715428D01*
X193810137Y-102842679D01*
X193821343Y-102849546D01*
X194058497Y-102947778D01*
X194308098Y-103007702D01*
X194381212Y-103013456D01*
X194563995Y-103027842D01*
X194564000Y-103027842D01*
X194564005Y-103027842D01*
X194723938Y-103015254D01*
X194819902Y-103007702D01*
X195069503Y-102947778D01*
X195306657Y-102849546D01*
X195525517Y-102715428D01*
X195525518Y-102715428D01*
X195525519Y-102715426D01*
X195525524Y-102715424D01*
X195720716Y-102548715D01*
X195887425Y-102353523D01*
X196021547Y-102134656D01*
X196119779Y-101897502D01*
X196179703Y-101647901D01*
X196192770Y-101481869D01*
X196199843Y-101392004D01*
X196199843Y-101391993D01*
X196179703Y-101136099D01*
X196179703Y-101136097D01*
X196119779Y-100886496D01*
X196021547Y-100649342D01*
X195963624Y-100554820D01*
X195887429Y-100430481D01*
X195887429Y-100430480D01*
X195720718Y-100235285D01*
X195720713Y-100235280D01*
X195525518Y-100068569D01*
X195306669Y-99934459D01*
X195306653Y-99934450D01*
X195069503Y-99836220D01*
X194819899Y-99776295D01*
X194564005Y-99756156D01*
X194563995Y-99756156D01*
X194308100Y-99776295D01*
X194058496Y-99836220D01*
X193821346Y-99934450D01*
X193821330Y-99934459D01*
X193602482Y-100068569D01*
X193602481Y-100068569D01*
X193407286Y-100235280D01*
X193407281Y-100235285D01*
X193240570Y-100430480D01*
X193240570Y-100430481D01*
X193106460Y-100649329D01*
X193106451Y-100649345D01*
X193008221Y-100886495D01*
X192948296Y-101136099D01*
X192928157Y-101391993D01*
X192928157Y-101392004D01*
X184539581Y-101392004D01*
X184538506Y-101389240D01*
X184540625Y-101292108D01*
X184579753Y-101203181D01*
X184640902Y-101142031D01*
X184735139Y-101076047D01*
X184896047Y-100915139D01*
X185026568Y-100728734D01*
X185122739Y-100522496D01*
X185181635Y-100302692D01*
X185194541Y-100155177D01*
X185201468Y-100076005D01*
X185201468Y-100075994D01*
X185181636Y-99849320D01*
X185181635Y-99849308D01*
X185122739Y-99629504D01*
X185044795Y-99462353D01*
X185026571Y-99423272D01*
X185026563Y-99423258D01*
X184896050Y-99236865D01*
X184896049Y-99236864D01*
X184896047Y-99236861D01*
X184735139Y-99075953D01*
X184735133Y-99075949D01*
X184694793Y-99047703D01*
X184640902Y-99009968D01*
X184573719Y-98939789D01*
X184538506Y-98849240D01*
X184540625Y-98752108D01*
X184579753Y-98663181D01*
X184640902Y-98602031D01*
X184735139Y-98536047D01*
X184896047Y-98375139D01*
X185026568Y-98188734D01*
X185122739Y-97982496D01*
X185181635Y-97762692D01*
X185197317Y-97583445D01*
X185201468Y-97536005D01*
X185201468Y-97535994D01*
X185192370Y-97432005D01*
X192928157Y-97432005D01*
X192948296Y-97687899D01*
X193008221Y-97937503D01*
X193106451Y-98174653D01*
X193106460Y-98174669D01*
X193240570Y-98393517D01*
X193240570Y-98393518D01*
X193407281Y-98588713D01*
X193407286Y-98588718D01*
X193422874Y-98602031D01*
X193598592Y-98752108D01*
X193602481Y-98755429D01*
X193772952Y-98859893D01*
X193821343Y-98889547D01*
X194058497Y-98987779D01*
X194308098Y-99047703D01*
X194381212Y-99053457D01*
X194563995Y-99067843D01*
X194564000Y-99067843D01*
X194564005Y-99067843D01*
X194723938Y-99055255D01*
X194819902Y-99047703D01*
X195069503Y-98987779D01*
X195306657Y-98889547D01*
X195525517Y-98755429D01*
X195525518Y-98755429D01*
X195525519Y-98755427D01*
X195525524Y-98755425D01*
X195720716Y-98588716D01*
X195887425Y-98393524D01*
X196021547Y-98174657D01*
X196119779Y-97937503D01*
X196179703Y-97687902D01*
X196191658Y-97536000D01*
X196199843Y-97432005D01*
X196199843Y-97431994D01*
X196184738Y-97240073D01*
X196179703Y-97176098D01*
X196119779Y-96926497D01*
X196021547Y-96689343D01*
X195940864Y-96557680D01*
X195887429Y-96470482D01*
X195887429Y-96470481D01*
X195720718Y-96275286D01*
X195720713Y-96275281D01*
X195546591Y-96126568D01*
X195525524Y-96108575D01*
X195525523Y-96108574D01*
X195525518Y-96108570D01*
X195306669Y-95974460D01*
X195306653Y-95974451D01*
X195069503Y-95876221D01*
X194819899Y-95816296D01*
X194564005Y-95796157D01*
X194563995Y-95796157D01*
X194308100Y-95816296D01*
X194058496Y-95876221D01*
X193821346Y-95974451D01*
X193821330Y-95974460D01*
X193602482Y-96108570D01*
X193602481Y-96108570D01*
X193407286Y-96275281D01*
X193407281Y-96275286D01*
X193240570Y-96470481D01*
X193240570Y-96470482D01*
X193106460Y-96689330D01*
X193106451Y-96689346D01*
X193008221Y-96926496D01*
X192948296Y-97176100D01*
X192928157Y-97431994D01*
X192928157Y-97432005D01*
X185192370Y-97432005D01*
X185181636Y-97309320D01*
X185181635Y-97309308D01*
X185122739Y-97089504D01*
X185026568Y-96883266D01*
X185026565Y-96883262D01*
X185026563Y-96883258D01*
X184896050Y-96696865D01*
X184896049Y-96696864D01*
X184896047Y-96696861D01*
X184735139Y-96535953D01*
X184735133Y-96535949D01*
X184706561Y-96515942D01*
X184640902Y-96469968D01*
X184573719Y-96399789D01*
X184538506Y-96309240D01*
X184540625Y-96212108D01*
X184579753Y-96123181D01*
X184640902Y-96062031D01*
X184735139Y-95996047D01*
X184896047Y-95835139D01*
X185026568Y-95648734D01*
X185122739Y-95442496D01*
X185181635Y-95222692D01*
X185201468Y-94996000D01*
X185201468Y-94995994D01*
X185181636Y-94769320D01*
X185181635Y-94769308D01*
X185122739Y-94549504D01*
X185068656Y-94433524D01*
X185026571Y-94343272D01*
X185026563Y-94343258D01*
X184896050Y-94156865D01*
X184896049Y-94156864D01*
X184896047Y-94156861D01*
X184735139Y-93995953D01*
X184735135Y-93995950D01*
X184735134Y-93995949D01*
X184640467Y-93929663D01*
X184573283Y-93859482D01*
X184538070Y-93768933D01*
X184540189Y-93671801D01*
X184579318Y-93582874D01*
X184640468Y-93521724D01*
X184711474Y-93472005D01*
X192928157Y-93472005D01*
X192948296Y-93727899D01*
X193008221Y-93977503D01*
X193106451Y-94214653D01*
X193106460Y-94214669D01*
X193240570Y-94433517D01*
X193240570Y-94433518D01*
X193407281Y-94628713D01*
X193407286Y-94628718D01*
X193602481Y-94795429D01*
X193813749Y-94924893D01*
X193821343Y-94929547D01*
X194058497Y-95027779D01*
X194308098Y-95087703D01*
X194381212Y-95093457D01*
X194563995Y-95107843D01*
X194564000Y-95107843D01*
X194564005Y-95107843D01*
X194723938Y-95095255D01*
X194819902Y-95087703D01*
X195069503Y-95027779D01*
X195306657Y-94929547D01*
X195525517Y-94795429D01*
X195525518Y-94795429D01*
X195525519Y-94795427D01*
X195525524Y-94795425D01*
X195720716Y-94628716D01*
X195887425Y-94433524D01*
X196021547Y-94214657D01*
X196119779Y-93977503D01*
X196179703Y-93727902D01*
X196191117Y-93582874D01*
X196199843Y-93472005D01*
X196199843Y-93471994D01*
X196179703Y-93216100D01*
X196179703Y-93216098D01*
X196119779Y-92966497D01*
X196021547Y-92729343D01*
X195887429Y-92510482D01*
X195887429Y-92510481D01*
X195858513Y-92476625D01*
X195781896Y-92386917D01*
X195720718Y-92315286D01*
X195720713Y-92315281D01*
X195525518Y-92148570D01*
X195306669Y-92014460D01*
X195306653Y-92014451D01*
X195069503Y-91916221D01*
X194819899Y-91856296D01*
X194564005Y-91836157D01*
X194563995Y-91836157D01*
X194308100Y-91856296D01*
X194058496Y-91916221D01*
X193821346Y-92014451D01*
X193821330Y-92014460D01*
X193602482Y-92148570D01*
X193602481Y-92148570D01*
X193407286Y-92315281D01*
X193407281Y-92315286D01*
X193240570Y-92510481D01*
X193240570Y-92510482D01*
X193106460Y-92729330D01*
X193106451Y-92729346D01*
X193008221Y-92966496D01*
X192948296Y-93216100D01*
X192928157Y-93471994D01*
X192928157Y-93472005D01*
X184711474Y-93472005D01*
X184734813Y-93455663D01*
X184895664Y-93294812D01*
X185026133Y-93108483D01*
X185122267Y-92902323D01*
X185174872Y-92706000D01*
X184211686Y-92706000D01*
X184223641Y-92694045D01*
X184281165Y-92581148D01*
X184300986Y-92456000D01*
X184281165Y-92330852D01*
X184223641Y-92217955D01*
X184211686Y-92206000D01*
X185174872Y-92206000D01*
X185174871Y-92205999D01*
X185122267Y-92009676D01*
X185026133Y-91803516D01*
X184895664Y-91617187D01*
X184734814Y-91456337D01*
X184640466Y-91390274D01*
X184573282Y-91320093D01*
X184538070Y-91229543D01*
X184540189Y-91132411D01*
X184579318Y-91043484D01*
X184640465Y-90982337D01*
X184735139Y-90916047D01*
X184896047Y-90755139D01*
X185026568Y-90568734D01*
X185122739Y-90362496D01*
X185181635Y-90142692D01*
X185201468Y-89916000D01*
X185201468Y-89915994D01*
X185181636Y-89689320D01*
X185181635Y-89689308D01*
X185122739Y-89469504D01*
X185037142Y-89285941D01*
X185026571Y-89263272D01*
X185026563Y-89263258D01*
X184896050Y-89076865D01*
X184896049Y-89076864D01*
X184896047Y-89076861D01*
X184735139Y-88915953D01*
X184735135Y-88915950D01*
X184735134Y-88915949D01*
X184548741Y-88785436D01*
X184548727Y-88785428D01*
X184342499Y-88689262D01*
X184342496Y-88689261D01*
X184122694Y-88630365D01*
X184122679Y-88630363D01*
X183896006Y-88610532D01*
X183895994Y-88610532D01*
X183669320Y-88630363D01*
X183669305Y-88630365D01*
X183449503Y-88689261D01*
X183449500Y-88689262D01*
X183243272Y-88785428D01*
X183243258Y-88785436D01*
X183056865Y-88915949D01*
X182895949Y-89076865D01*
X182765436Y-89263258D01*
X182765428Y-89263272D01*
X182669262Y-89469500D01*
X182669261Y-89469503D01*
X182610365Y-89689305D01*
X182610363Y-89689320D01*
X182590532Y-89915994D01*
X182590532Y-89916005D01*
X182610363Y-90142679D01*
X182610365Y-90142694D01*
X182669261Y-90362496D01*
X182669262Y-90362499D01*
X182765428Y-90568727D01*
X182765436Y-90568741D01*
X182895949Y-90755134D01*
X182895953Y-90755139D01*
X183056861Y-90916047D01*
X183151534Y-90982337D01*
X183218716Y-91052516D01*
X183253929Y-91143065D01*
X183251810Y-91240197D01*
X183212682Y-91329125D01*
X183151534Y-91390273D01*
X183057186Y-91456336D01*
X182896335Y-91617187D01*
X182765866Y-91803516D01*
X182669732Y-92009676D01*
X182617128Y-92205999D01*
X182617128Y-92206000D01*
X183580314Y-92206000D01*
X183568359Y-92217955D01*
X183510835Y-92330852D01*
X183491014Y-92456000D01*
X183510835Y-92581148D01*
X183568359Y-92694045D01*
X183580314Y-92706000D01*
X182617128Y-92706000D01*
X182669732Y-92902323D01*
X182765866Y-93108483D01*
X182896335Y-93294812D01*
X183057187Y-93455664D01*
X183151532Y-93521725D01*
X183218716Y-93591906D01*
X183253929Y-93682455D01*
X183251810Y-93779587D01*
X183212681Y-93868514D01*
X183151533Y-93929663D01*
X183056863Y-93995951D01*
X182895949Y-94156865D01*
X182765436Y-94343258D01*
X182765428Y-94343272D01*
X182669262Y-94549500D01*
X182669261Y-94549503D01*
X182610365Y-94769305D01*
X182610363Y-94769320D01*
X182590532Y-94995994D01*
X182590532Y-94996005D01*
X182610363Y-95222679D01*
X182610365Y-95222694D01*
X182669261Y-95442496D01*
X182669262Y-95442499D01*
X182765428Y-95648727D01*
X182765436Y-95648741D01*
X182895949Y-95835134D01*
X182895953Y-95835139D01*
X183056861Y-95996047D01*
X183056864Y-95996049D01*
X183056865Y-95996050D01*
X183151096Y-96062031D01*
X183218280Y-96132212D01*
X183253493Y-96222761D01*
X183251374Y-96319893D01*
X183212245Y-96408820D01*
X183151096Y-96469969D01*
X183056865Y-96535949D01*
X182895949Y-96696865D01*
X182765436Y-96883258D01*
X182765428Y-96883272D01*
X182669262Y-97089500D01*
X182669261Y-97089503D01*
X182610365Y-97309305D01*
X182610363Y-97309320D01*
X182590532Y-97535994D01*
X182590532Y-97536005D01*
X182610363Y-97762679D01*
X182610365Y-97762694D01*
X182669261Y-97982496D01*
X182669262Y-97982499D01*
X182765428Y-98188727D01*
X182765436Y-98188741D01*
X182863684Y-98329054D01*
X182895953Y-98375139D01*
X183056861Y-98536047D01*
X183056864Y-98536049D01*
X183056865Y-98536050D01*
X183151096Y-98602031D01*
X183218280Y-98672212D01*
X183253493Y-98762761D01*
X183251374Y-98859893D01*
X183212245Y-98948820D01*
X183151096Y-99009969D01*
X183056865Y-99075949D01*
X182895949Y-99236865D01*
X182765436Y-99423258D01*
X182765428Y-99423272D01*
X182669262Y-99629500D01*
X182669261Y-99629503D01*
X182610365Y-99849305D01*
X182610363Y-99849320D01*
X182590532Y-100075994D01*
X182590532Y-100076005D01*
X182610363Y-100302679D01*
X182610365Y-100302694D01*
X182669261Y-100522496D01*
X182669262Y-100522499D01*
X182765428Y-100728727D01*
X182765436Y-100728741D01*
X182875896Y-100886495D01*
X182895953Y-100915139D01*
X183056861Y-101076047D01*
X183056864Y-101076049D01*
X183056865Y-101076050D01*
X183151096Y-101142031D01*
X183218280Y-101212212D01*
X183253493Y-101302761D01*
X183251374Y-101399893D01*
X183212245Y-101488820D01*
X183151096Y-101549969D01*
X183056865Y-101615949D01*
X182895949Y-101776865D01*
X182765436Y-101963258D01*
X182765428Y-101963272D01*
X182669262Y-102169500D01*
X182669261Y-102169503D01*
X182610365Y-102389305D01*
X182610363Y-102389320D01*
X182590532Y-102615994D01*
X182590532Y-102616005D01*
X182610363Y-102842679D01*
X182610365Y-102842694D01*
X182669261Y-103062496D01*
X182669262Y-103062499D01*
X182765428Y-103268727D01*
X182765436Y-103268741D01*
X182882008Y-103435224D01*
X182895953Y-103455139D01*
X183056861Y-103616047D01*
X183056864Y-103616049D01*
X183056865Y-103616050D01*
X183151096Y-103682031D01*
X183218280Y-103752212D01*
X183253493Y-103842761D01*
X183251374Y-103939893D01*
X183212245Y-104028820D01*
X183151096Y-104089969D01*
X183056865Y-104155949D01*
X182895949Y-104316865D01*
X182765436Y-104503258D01*
X182765428Y-104503272D01*
X182669262Y-104709500D01*
X182669261Y-104709503D01*
X182610365Y-104929305D01*
X182610363Y-104929320D01*
X182590532Y-105155994D01*
X182590532Y-105156005D01*
X172501468Y-105156005D01*
X172501468Y-105156000D01*
X172501468Y-105155994D01*
X172481636Y-104929320D01*
X172481636Y-104929319D01*
X172481635Y-104929308D01*
X172481631Y-104929295D01*
X172479747Y-104918605D01*
X172481190Y-104918350D01*
X172475643Y-104833717D01*
X172506872Y-104741718D01*
X172546439Y-104690150D01*
X173730800Y-103505789D01*
X173748154Y-103490001D01*
X173756870Y-103482790D01*
X173756877Y-103482786D01*
X173801581Y-103435180D01*
X173806962Y-103429627D01*
X173825120Y-103411471D01*
X173825124Y-103411466D01*
X173828840Y-103407251D01*
X173839192Y-103395129D01*
X173865062Y-103367582D01*
X173869972Y-103358648D01*
X173891430Y-103325983D01*
X173897673Y-103317936D01*
X173912677Y-103283261D01*
X173922996Y-103262198D01*
X173941197Y-103229092D01*
X173943732Y-103219216D01*
X173956388Y-103182251D01*
X173960437Y-103172896D01*
X173966347Y-103135575D01*
X173971099Y-103112630D01*
X173980500Y-103076019D01*
X173980500Y-103065821D01*
X173983566Y-103026866D01*
X173985160Y-103016804D01*
X173981605Y-102979196D01*
X173980500Y-102955764D01*
X173980500Y-89385900D01*
X173981605Y-89362463D01*
X173982670Y-89351187D01*
X173982673Y-89351175D01*
X173980623Y-89285941D01*
X173980500Y-89278120D01*
X173980500Y-89252494D01*
X173980140Y-89246772D01*
X173978895Y-89230977D01*
X173977709Y-89193215D01*
X173974867Y-89183433D01*
X173966941Y-89145160D01*
X173966735Y-89143537D01*
X173965664Y-89135050D01*
X173951752Y-89099913D01*
X173944160Y-89077740D01*
X173933618Y-89041452D01*
X173928425Y-89032671D01*
X173911239Y-88997590D01*
X173907486Y-88988110D01*
X173885277Y-88957542D01*
X173872398Y-88937935D01*
X173853172Y-88905425D01*
X173853171Y-88905424D01*
X173853170Y-88905422D01*
X173845954Y-88898206D01*
X173820584Y-88868500D01*
X173814593Y-88860254D01*
X173785491Y-88836179D01*
X173768139Y-88820391D01*
X171824952Y-86877203D01*
X171809161Y-86859847D01*
X171801944Y-86851123D01*
X171754392Y-86806468D01*
X171748779Y-86801029D01*
X171730626Y-86782877D01*
X171726447Y-86779192D01*
X171714279Y-86768799D01*
X171686741Y-86742939D01*
X171686737Y-86742936D01*
X171677802Y-86738024D01*
X171645146Y-86716573D01*
X171637096Y-86710328D01*
X171637089Y-86710324D01*
X171602411Y-86695317D01*
X171581354Y-86685001D01*
X171548249Y-86666802D01*
X171538372Y-86664266D01*
X171501414Y-86651612D01*
X171492058Y-86647563D01*
X171492048Y-86647560D01*
X171454730Y-86641649D01*
X171431771Y-86636895D01*
X171411362Y-86631655D01*
X171395177Y-86627500D01*
X171395176Y-86627500D01*
X171384982Y-86627500D01*
X171346034Y-86624435D01*
X171335962Y-86622840D01*
X171298354Y-86626395D01*
X171274922Y-86627500D01*
X155608037Y-86627500D01*
X155512749Y-86608546D01*
X155431967Y-86554570D01*
X155377991Y-86473788D01*
X155359037Y-86378500D01*
X155359037Y-86372271D01*
X155339251Y-86184015D01*
X155280756Y-86003987D01*
X155186110Y-85840055D01*
X155186108Y-85840052D01*
X155186107Y-85840051D01*
X155059450Y-85699385D01*
X155059449Y-85699384D01*
X155059448Y-85699383D01*
X154982877Y-85643751D01*
X154906305Y-85588118D01*
X154733387Y-85511129D01*
X154733373Y-85511125D01*
X154548223Y-85471771D01*
X154540807Y-85471771D01*
X154445519Y-85452817D01*
X154364737Y-85398841D01*
X145502802Y-76536905D01*
X192668057Y-76536905D01*
X192688196Y-76792799D01*
X192748121Y-77042403D01*
X192846351Y-77279553D01*
X192846360Y-77279569D01*
X192980470Y-77498417D01*
X192980470Y-77498418D01*
X193147181Y-77693613D01*
X193147186Y-77693618D01*
X193342381Y-77860329D01*
X193553649Y-77989793D01*
X193561243Y-77994447D01*
X193798397Y-78092679D01*
X194047998Y-78152603D01*
X194121112Y-78158357D01*
X194303895Y-78172743D01*
X194303900Y-78172743D01*
X194303905Y-78172743D01*
X194463838Y-78160155D01*
X194559802Y-78152603D01*
X194809403Y-78092679D01*
X195046557Y-77994447D01*
X195265417Y-77860329D01*
X195265418Y-77860329D01*
X195265419Y-77860327D01*
X195265424Y-77860325D01*
X195460616Y-77693616D01*
X195627325Y-77498424D01*
X195761447Y-77279557D01*
X195859679Y-77042403D01*
X195919603Y-76792802D01*
X195932091Y-76634130D01*
X195939743Y-76536905D01*
X195939743Y-76536894D01*
X195919603Y-76281000D01*
X195909772Y-76240050D01*
X195859679Y-76031397D01*
X195761447Y-75794243D01*
X195696904Y-75688919D01*
X195627329Y-75575382D01*
X195627329Y-75575381D01*
X195460618Y-75380186D01*
X195460613Y-75380181D01*
X195265418Y-75213470D01*
X195046569Y-75079360D01*
X195046553Y-75079351D01*
X194809403Y-74981121D01*
X194559799Y-74921196D01*
X194303905Y-74901057D01*
X194303895Y-74901057D01*
X194048000Y-74921196D01*
X193798396Y-74981121D01*
X193561246Y-75079351D01*
X193561230Y-75079360D01*
X193342382Y-75213470D01*
X193342381Y-75213470D01*
X193147186Y-75380181D01*
X193147181Y-75380186D01*
X192980470Y-75575381D01*
X192980470Y-75575382D01*
X192846360Y-75794230D01*
X192846351Y-75794246D01*
X192748121Y-76031396D01*
X192688196Y-76281000D01*
X192668057Y-76536894D01*
X192668057Y-76536905D01*
X145502802Y-76536905D01*
X143573430Y-74607533D01*
X143519454Y-74526751D01*
X143500500Y-74431463D01*
X143500500Y-72576905D01*
X192668057Y-72576905D01*
X192688196Y-72832799D01*
X192748121Y-73082403D01*
X192846351Y-73319553D01*
X192846360Y-73319569D01*
X192980470Y-73538417D01*
X192980470Y-73538418D01*
X193147181Y-73733613D01*
X193147186Y-73733618D01*
X193238938Y-73811981D01*
X193306887Y-73870015D01*
X193342381Y-73900329D01*
X193528795Y-74014563D01*
X193561243Y-74034447D01*
X193798397Y-74132679D01*
X194047998Y-74192603D01*
X194121112Y-74198357D01*
X194303895Y-74212743D01*
X194303900Y-74212743D01*
X194303905Y-74212743D01*
X194463838Y-74200155D01*
X194559802Y-74192603D01*
X194809403Y-74132679D01*
X195046557Y-74034447D01*
X195265417Y-73900329D01*
X195265418Y-73900329D01*
X195265419Y-73900327D01*
X195265424Y-73900325D01*
X195460616Y-73733616D01*
X195627325Y-73538424D01*
X195761447Y-73319557D01*
X195859679Y-73082403D01*
X195919603Y-72832802D01*
X195939743Y-72576900D01*
X195919603Y-72320998D01*
X195859679Y-72071397D01*
X195761447Y-71834243D01*
X195707364Y-71745987D01*
X195627329Y-71615382D01*
X195627329Y-71615381D01*
X195460618Y-71420186D01*
X195460613Y-71420181D01*
X195265418Y-71253470D01*
X195046569Y-71119360D01*
X195046553Y-71119351D01*
X194809403Y-71021121D01*
X194559799Y-70961196D01*
X194303905Y-70941057D01*
X194303895Y-70941057D01*
X194048000Y-70961196D01*
X193798396Y-71021121D01*
X193561246Y-71119351D01*
X193561230Y-71119360D01*
X193342382Y-71253470D01*
X193342381Y-71253470D01*
X193147186Y-71420181D01*
X193147181Y-71420186D01*
X192980470Y-71615381D01*
X192980470Y-71615382D01*
X192846360Y-71834230D01*
X192846351Y-71834246D01*
X192748121Y-72071396D01*
X192688196Y-72321000D01*
X192668057Y-72576894D01*
X192668057Y-72576905D01*
X143500500Y-72576905D01*
X143500500Y-64739050D01*
X143501605Y-64715615D01*
X143502669Y-64704341D01*
X143502672Y-64704332D01*
X143500622Y-64639116D01*
X143500500Y-64631297D01*
X143500500Y-64605647D01*
X143500146Y-64600038D01*
X143498895Y-64584126D01*
X143497709Y-64546372D01*
X143494868Y-64536593D01*
X143486941Y-64498317D01*
X143486518Y-64494970D01*
X143485664Y-64488208D01*
X143471750Y-64453066D01*
X143464155Y-64430882D01*
X143453617Y-64394610D01*
X143448428Y-64385835D01*
X143431238Y-64350746D01*
X143427485Y-64341266D01*
X143405280Y-64310704D01*
X143392400Y-64291096D01*
X143373169Y-64258577D01*
X143365954Y-64251362D01*
X143340581Y-64221653D01*
X143334596Y-64213416D01*
X143334596Y-64213415D01*
X143334594Y-64213413D01*
X143305486Y-64189333D01*
X143288144Y-64173553D01*
X141095161Y-61980570D01*
X141041185Y-61899788D01*
X141022231Y-61804500D01*
X141041185Y-61709212D01*
X141095161Y-61628430D01*
X141175943Y-61574454D01*
X141271231Y-61555500D01*
X148091187Y-61555500D01*
X148186475Y-61574454D01*
X148267257Y-61628430D01*
X148321233Y-61709212D01*
X148338822Y-61778468D01*
X148339326Y-61783256D01*
X148397821Y-61963284D01*
X148492467Y-62127216D01*
X148492469Y-62127219D01*
X148586012Y-62231108D01*
X148619129Y-62267888D01*
X148729641Y-62348179D01*
X148772271Y-62379152D01*
X148945189Y-62456141D01*
X148945192Y-62456142D01*
X148945197Y-62456144D01*
X149130354Y-62495500D01*
X149319645Y-62495500D01*
X149319646Y-62495500D01*
X149504803Y-62456144D01*
X149677730Y-62379151D01*
X149830871Y-62267888D01*
X149957533Y-62127216D01*
X150052179Y-61963284D01*
X150110674Y-61783256D01*
X150130460Y-61595000D01*
X150110674Y-61406744D01*
X150052179Y-61226716D01*
X149957533Y-61062784D01*
X149957531Y-61062781D01*
X149957530Y-61062780D01*
X149830873Y-60922114D01*
X149830872Y-60922113D01*
X149830871Y-60922112D01*
X149721147Y-60842393D01*
X149677728Y-60810847D01*
X149504810Y-60733858D01*
X149504796Y-60733854D01*
X149319646Y-60694500D01*
X149312231Y-60694500D01*
X149216943Y-60675546D01*
X149136161Y-60621570D01*
X149068794Y-60554203D01*
X149053003Y-60536847D01*
X149045786Y-60528123D01*
X148998234Y-60483468D01*
X148992621Y-60478029D01*
X148974468Y-60459877D01*
X148970289Y-60456192D01*
X148958121Y-60445799D01*
X148938318Y-60427203D01*
X148930582Y-60419938D01*
X148930580Y-60419937D01*
X148930579Y-60419936D01*
X148921644Y-60415024D01*
X148888988Y-60393573D01*
X148880938Y-60387328D01*
X148880931Y-60387324D01*
X148846253Y-60372317D01*
X148825196Y-60362001D01*
X148792091Y-60343802D01*
X148782214Y-60341266D01*
X148745256Y-60328612D01*
X148735900Y-60324563D01*
X148735890Y-60324560D01*
X148698572Y-60318649D01*
X148675613Y-60313895D01*
X148655204Y-60308655D01*
X148639019Y-60304500D01*
X148639018Y-60304500D01*
X148628824Y-60304500D01*
X148589876Y-60301435D01*
X148579804Y-60299840D01*
X148542196Y-60303395D01*
X148518764Y-60304500D01*
X140360823Y-60304500D01*
X140265535Y-60285546D01*
X140184753Y-60231570D01*
X140148894Y-60186218D01*
X140118378Y-60136744D01*
X140102712Y-60111344D01*
X139978656Y-59987288D01*
X139829334Y-59895186D01*
X139829332Y-59895185D01*
X139829330Y-59895184D01*
X139829332Y-59895184D01*
X139662802Y-59840002D01*
X139662798Y-59840001D01*
X139662797Y-59840001D01*
X139560009Y-59829500D01*
X139560005Y-59829500D01*
X138759993Y-59829500D01*
X138657199Y-59840001D01*
X138490667Y-59895185D01*
X138341346Y-59987286D01*
X138217285Y-60111347D01*
X138204023Y-60132849D01*
X138137866Y-60204000D01*
X138129115Y-60208002D01*
X138129193Y-60208390D01*
X138116554Y-60286712D01*
X138115152Y-60290943D01*
X138067188Y-60375432D01*
X138054861Y-60388690D01*
X137538338Y-60905213D01*
X137538886Y-60898605D01*
X137508163Y-60777281D01*
X137439711Y-60672508D01*
X137340948Y-60595637D01*
X137222576Y-60555000D01*
X137181444Y-60555000D01*
X137704123Y-60032321D01*
X137741993Y-60007016D01*
X137740686Y-59995757D01*
X137652416Y-59941103D01*
X137652413Y-59941101D01*
X137462316Y-59867458D01*
X137261934Y-59830000D01*
X137058066Y-59830000D01*
X136857684Y-59867458D01*
X136857682Y-59867458D01*
X136667587Y-59941101D01*
X136579312Y-59995758D01*
X137138554Y-60555000D01*
X137128927Y-60555000D01*
X137036554Y-60570414D01*
X136926486Y-60629981D01*
X136841722Y-60722059D01*
X136791449Y-60836670D01*
X136785454Y-60909009D01*
X136222532Y-60346087D01*
X136220756Y-60348440D01*
X136129886Y-60530931D01*
X136074096Y-60727012D01*
X136055287Y-60930000D01*
X136074096Y-61132987D01*
X136129886Y-61329068D01*
X136220754Y-61511555D01*
X136222533Y-61513911D01*
X136781661Y-60954783D01*
X136781114Y-60961395D01*
X136811837Y-61082719D01*
X136880289Y-61187492D01*
X136979052Y-61264363D01*
X137097424Y-61305000D01*
X137138552Y-61305000D01*
X136572682Y-61870870D01*
X136567878Y-61930165D01*
X136523570Y-62016628D01*
X136496135Y-62046034D01*
X136343237Y-62185419D01*
X136220323Y-62348184D01*
X136129418Y-62530748D01*
X136129417Y-62530752D01*
X136073603Y-62726912D01*
X136073602Y-62726920D01*
X136054785Y-62930000D01*
X136054785Y-62930001D01*
X136062709Y-63015524D01*
X136052627Y-63112154D01*
X136006334Y-63197571D01*
X135990841Y-63214566D01*
X135859205Y-63346202D01*
X135841865Y-63361980D01*
X135833128Y-63369208D01*
X135788453Y-63416781D01*
X135783020Y-63422387D01*
X135764890Y-63440518D01*
X135761205Y-63444698D01*
X135750812Y-63456862D01*
X135724941Y-63484412D01*
X135724934Y-63484422D01*
X135720020Y-63493361D01*
X135698587Y-63525992D01*
X135692329Y-63534061D01*
X135692326Y-63534064D01*
X135677321Y-63568738D01*
X135667007Y-63589790D01*
X135648805Y-63622900D01*
X135648802Y-63622909D01*
X135646266Y-63632786D01*
X135633615Y-63669736D01*
X135629562Y-63679102D01*
X135629561Y-63679103D01*
X135623649Y-63716429D01*
X135618894Y-63739391D01*
X135609500Y-63775980D01*
X135609500Y-63786175D01*
X135606435Y-63825121D01*
X135604840Y-63835192D01*
X135604840Y-63835194D01*
X99060500Y-63835194D01*
X99060500Y-62484000D01*
X127293388Y-62484000D01*
X127312587Y-62691194D01*
X127312587Y-62691197D01*
X127312588Y-62691198D01*
X127322751Y-62726917D01*
X127369534Y-62891344D01*
X127462283Y-63077607D01*
X127462288Y-63077615D01*
X127587684Y-63243666D01*
X127587689Y-63243672D01*
X127741459Y-63383851D01*
X127801602Y-63421090D01*
X127918379Y-63493395D01*
X128111169Y-63568082D01*
X128112416Y-63568565D01*
X128316952Y-63606800D01*
X128316955Y-63606800D01*
X128525044Y-63606800D01*
X128729579Y-63568565D01*
X128729580Y-63568564D01*
X128729583Y-63568564D01*
X128923617Y-63493395D01*
X129040394Y-63421089D01*
X129131383Y-63387042D01*
X129228480Y-63390408D01*
X129302555Y-63421090D01*
X129418604Y-63492945D01*
X129612557Y-63568082D01*
X129817001Y-63606300D01*
X130024999Y-63606300D01*
X130229444Y-63568081D01*
X130423396Y-63492945D01*
X130517885Y-63434439D01*
X129935746Y-62852300D01*
X129951521Y-62852300D01*
X130042241Y-62837162D01*
X130150343Y-62778660D01*
X130233592Y-62688227D01*
X130282967Y-62575663D01*
X130289337Y-62498783D01*
X130874387Y-63083833D01*
X130874388Y-63083833D01*
X130879284Y-63077351D01*
X130971994Y-62891161D01*
X130971999Y-62891148D01*
X131028915Y-62691111D01*
X131028917Y-62691102D01*
X131048107Y-62484000D01*
X131028917Y-62276897D01*
X131028915Y-62276888D01*
X130971999Y-62076851D01*
X130971994Y-62076838D01*
X130879285Y-61890650D01*
X130874387Y-61884165D01*
X130292009Y-62466542D01*
X130293118Y-62453165D01*
X130262943Y-62334010D01*
X130195714Y-62231108D01*
X130098715Y-62155611D01*
X129982458Y-62115700D01*
X129935748Y-62115700D01*
X130517885Y-61533560D01*
X130423397Y-61475055D01*
X130229442Y-61399917D01*
X130024999Y-61361700D01*
X129817001Y-61361700D01*
X129612557Y-61399917D01*
X129418605Y-61475054D01*
X129302554Y-61546910D01*
X129211560Y-61580957D01*
X129114463Y-61577591D01*
X129040393Y-61546910D01*
X128923617Y-61474605D01*
X128865762Y-61452192D01*
X128729579Y-61399434D01*
X128525044Y-61361200D01*
X128525041Y-61361200D01*
X128316955Y-61361200D01*
X128316952Y-61361200D01*
X128112416Y-61399434D01*
X127918381Y-61474604D01*
X127918373Y-61474608D01*
X127741459Y-61584148D01*
X127587689Y-61724327D01*
X127587684Y-61724333D01*
X127462288Y-61890384D01*
X127462283Y-61890392D01*
X127369534Y-62076655D01*
X127312587Y-62276805D01*
X127293388Y-62484000D01*
X99060500Y-62484000D01*
X99060500Y-58419999D01*
X106094628Y-58419999D01*
X106114470Y-58634132D01*
X106173324Y-58840983D01*
X106269181Y-59033490D01*
X106279409Y-59047034D01*
X106856451Y-58469993D01*
X106868672Y-58547150D01*
X106927116Y-58661854D01*
X107018145Y-58752883D01*
X107132849Y-58811327D01*
X107210001Y-58823547D01*
X106635435Y-59398113D01*
X106635436Y-59398114D01*
X106740553Y-59463199D01*
X106740552Y-59463199D01*
X106941074Y-59540882D01*
X106941082Y-59540884D01*
X107152468Y-59580400D01*
X107367530Y-59580400D01*
X107578915Y-59540884D01*
X107578923Y-59540882D01*
X107779438Y-59463202D01*
X107779452Y-59463195D01*
X107878440Y-59401904D01*
X107969434Y-59367855D01*
X108066530Y-59371221D01*
X108140604Y-59401903D01*
X108177100Y-59424500D01*
X108240325Y-59463647D01*
X108440943Y-59541367D01*
X108440946Y-59541368D01*
X108652422Y-59580900D01*
X108652426Y-59580900D01*
X108867576Y-59580900D01*
X109079051Y-59541368D01*
X109079052Y-59541367D01*
X109079055Y-59541367D01*
X109279673Y-59463647D01*
X109378922Y-59402194D01*
X109469911Y-59368148D01*
X109567008Y-59371514D01*
X109641076Y-59402193D01*
X109740327Y-59463647D01*
X109940945Y-59541367D01*
X109940948Y-59541368D01*
X110152424Y-59580900D01*
X110152428Y-59580900D01*
X110367578Y-59580900D01*
X110579053Y-59541368D01*
X110579054Y-59541367D01*
X110579057Y-59541367D01*
X110779675Y-59463647D01*
X110878920Y-59402196D01*
X110969911Y-59368149D01*
X111067007Y-59371515D01*
X111141078Y-59402195D01*
X111240326Y-59463647D01*
X111440944Y-59541367D01*
X111440947Y-59541368D01*
X111652423Y-59580900D01*
X111652427Y-59580900D01*
X111867577Y-59580900D01*
X112079052Y-59541368D01*
X112079053Y-59541367D01*
X112079056Y-59541367D01*
X112279674Y-59463647D01*
X112462595Y-59350387D01*
X112621591Y-59205444D01*
X112751245Y-59033753D01*
X112847144Y-58841162D01*
X112906022Y-58634229D01*
X112925873Y-58420000D01*
X112906022Y-58205771D01*
X112902800Y-58194448D01*
X112872262Y-58087117D01*
X112847144Y-57998838D01*
X112751245Y-57806247D01*
X112621591Y-57634556D01*
X112462595Y-57489613D01*
X112433908Y-57471851D01*
X112279679Y-57376356D01*
X112279678Y-57376355D01*
X112279674Y-57376353D01*
X112191833Y-57342323D01*
X112079052Y-57298631D01*
X111867577Y-57259100D01*
X111867573Y-57259100D01*
X111652427Y-57259100D01*
X111652423Y-57259100D01*
X111440947Y-57298631D01*
X111240328Y-57376352D01*
X111240327Y-57376352D01*
X111240326Y-57376353D01*
X111239601Y-57376802D01*
X111141081Y-57437803D01*
X111050087Y-57471850D01*
X110952990Y-57468484D01*
X110878919Y-57437802D01*
X110779680Y-57376356D01*
X110779679Y-57376355D01*
X110779675Y-57376353D01*
X110691834Y-57342323D01*
X110579053Y-57298631D01*
X110367578Y-57259100D01*
X110367574Y-57259100D01*
X110152428Y-57259100D01*
X110152424Y-57259100D01*
X109940948Y-57298631D01*
X109740329Y-57376352D01*
X109740321Y-57376356D01*
X109641081Y-57437803D01*
X109550087Y-57471851D01*
X109452991Y-57468485D01*
X109378919Y-57437803D01*
X109279678Y-57376356D01*
X109279677Y-57376355D01*
X109279673Y-57376353D01*
X109191832Y-57342323D01*
X109079051Y-57298631D01*
X108867576Y-57259100D01*
X108867572Y-57259100D01*
X108652426Y-57259100D01*
X108652422Y-57259100D01*
X108440946Y-57298631D01*
X108240327Y-57376352D01*
X108240322Y-57376354D01*
X108140604Y-57438097D01*
X108049611Y-57472144D01*
X107952514Y-57468778D01*
X107878443Y-57438097D01*
X107779447Y-57376802D01*
X107779438Y-57376797D01*
X107578923Y-57299117D01*
X107578915Y-57299115D01*
X107367530Y-57259600D01*
X107152468Y-57259600D01*
X106941082Y-57299115D01*
X106941078Y-57299116D01*
X106740551Y-57376801D01*
X106635435Y-57441884D01*
X107210003Y-58016452D01*
X107132849Y-58028673D01*
X107018145Y-58087117D01*
X106927116Y-58178146D01*
X106868672Y-58292850D01*
X106856451Y-58370004D01*
X106279410Y-57792963D01*
X106279409Y-57792964D01*
X106269182Y-57806508D01*
X106173324Y-57999016D01*
X106114470Y-58205867D01*
X106094628Y-58419999D01*
X99060500Y-58419999D01*
X99060500Y-56896005D01*
X154650532Y-56896005D01*
X154670363Y-57122679D01*
X154670365Y-57122694D01*
X154729261Y-57342496D01*
X154729262Y-57342499D01*
X154825428Y-57548727D01*
X154825436Y-57548741D01*
X154955724Y-57734812D01*
X154955953Y-57735139D01*
X155116861Y-57896047D01*
X155116864Y-57896049D01*
X155116865Y-57896050D01*
X155303258Y-58026563D01*
X155303262Y-58026565D01*
X155303266Y-58026568D01*
X155303270Y-58026569D01*
X155303272Y-58026571D01*
X155307780Y-58028673D01*
X155509504Y-58122739D01*
X155729308Y-58181635D01*
X155748984Y-58183356D01*
X155955994Y-58201468D01*
X155956000Y-58201468D01*
X155956006Y-58201468D01*
X156135668Y-58185749D01*
X156182692Y-58181635D01*
X156402496Y-58122739D01*
X156608734Y-58026568D01*
X156795139Y-57896047D01*
X156956047Y-57735139D01*
X157022031Y-57640902D01*
X157092211Y-57573719D01*
X157182760Y-57538506D01*
X157279892Y-57540625D01*
X157368819Y-57579753D01*
X157429968Y-57640902D01*
X157495953Y-57735139D01*
X157656861Y-57896047D01*
X157656864Y-57896049D01*
X157656865Y-57896050D01*
X157843258Y-58026563D01*
X157843262Y-58026565D01*
X157843266Y-58026568D01*
X157843270Y-58026569D01*
X157843272Y-58026571D01*
X157847780Y-58028673D01*
X158049504Y-58122739D01*
X158269308Y-58181635D01*
X158288984Y-58183356D01*
X158495994Y-58201468D01*
X158496000Y-58201468D01*
X158496006Y-58201468D01*
X158675668Y-58185749D01*
X158722692Y-58181635D01*
X158942496Y-58122739D01*
X159148734Y-58026568D01*
X159335139Y-57896047D01*
X159496047Y-57735139D01*
X159562031Y-57640902D01*
X159632211Y-57573719D01*
X159722760Y-57538506D01*
X159819892Y-57540625D01*
X159908819Y-57579753D01*
X159969968Y-57640902D01*
X160035953Y-57735139D01*
X160196861Y-57896047D01*
X160196864Y-57896049D01*
X160196865Y-57896050D01*
X160383258Y-58026563D01*
X160383262Y-58026565D01*
X160383266Y-58026568D01*
X160383270Y-58026569D01*
X160383272Y-58026571D01*
X160387780Y-58028673D01*
X160589504Y-58122739D01*
X160809308Y-58181635D01*
X160828984Y-58183356D01*
X161035994Y-58201468D01*
X161036000Y-58201468D01*
X161036006Y-58201468D01*
X161215668Y-58185749D01*
X161262692Y-58181635D01*
X161482496Y-58122739D01*
X161688734Y-58026568D01*
X161875139Y-57896047D01*
X162036047Y-57735139D01*
X162102031Y-57640902D01*
X162172211Y-57573719D01*
X162262760Y-57538506D01*
X162359892Y-57540625D01*
X162448819Y-57579753D01*
X162509968Y-57640902D01*
X162575953Y-57735139D01*
X162736861Y-57896047D01*
X162736864Y-57896049D01*
X162736865Y-57896050D01*
X162924609Y-58027509D01*
X162991793Y-58097690D01*
X163027006Y-58188239D01*
X163024887Y-58285371D01*
X162985758Y-58374298D01*
X162957859Y-58407547D01*
X161738839Y-59626569D01*
X161658057Y-59680546D01*
X161562769Y-59699500D01*
X158867000Y-59699500D01*
X158771712Y-59680546D01*
X158720642Y-59651945D01*
X158567731Y-59540849D01*
X158567730Y-59540848D01*
X158394810Y-59463858D01*
X158394796Y-59463854D01*
X158209646Y-59424500D01*
X158020354Y-59424500D01*
X157835203Y-59463854D01*
X157835189Y-59463858D01*
X157662271Y-59540847D01*
X157509126Y-59652114D01*
X157382469Y-59792780D01*
X157342750Y-59861576D01*
X157287821Y-59956716D01*
X157276267Y-59992275D01*
X157229325Y-60136744D01*
X157209540Y-60325000D01*
X157229325Y-60513255D01*
X157247898Y-60570414D01*
X157287821Y-60693284D01*
X157362811Y-60823170D01*
X157382469Y-60857219D01*
X157466571Y-60950623D01*
X157509129Y-60997888D01*
X157598446Y-61062780D01*
X157662271Y-61109152D01*
X157835189Y-61186141D01*
X157835192Y-61186142D01*
X157835197Y-61186144D01*
X158020354Y-61225500D01*
X158209645Y-61225500D01*
X158209646Y-61225500D01*
X158394803Y-61186144D01*
X158567730Y-61109151D01*
X158631549Y-61062784D01*
X158720642Y-60998055D01*
X158808872Y-60957380D01*
X158867000Y-60950500D01*
X161830941Y-60950500D01*
X161854376Y-60951605D01*
X161865656Y-60952670D01*
X161865667Y-60952673D01*
X161930900Y-60950622D01*
X161938721Y-60950500D01*
X161964350Y-60950500D01*
X161970065Y-60950140D01*
X161985866Y-60948895D01*
X162023627Y-60947709D01*
X162033405Y-60944867D01*
X162071683Y-60936941D01*
X162077456Y-60936211D01*
X162081792Y-60935664D01*
X162116918Y-60921755D01*
X162139110Y-60914158D01*
X162140180Y-60913847D01*
X162175390Y-60903618D01*
X162184157Y-60898432D01*
X162219255Y-60881238D01*
X162228732Y-60877486D01*
X162259309Y-60855269D01*
X162278887Y-60842409D01*
X162311420Y-60823170D01*
X162318621Y-60815968D01*
X162348339Y-60790586D01*
X162356587Y-60784594D01*
X162380664Y-60755487D01*
X162396443Y-60738145D01*
X165106586Y-58028003D01*
X165187366Y-57974029D01*
X165282654Y-57955075D01*
X165377942Y-57974029D01*
X165425473Y-58000105D01*
X165463266Y-58026568D01*
X165463269Y-58026569D01*
X165463272Y-58026571D01*
X165467780Y-58028673D01*
X165669504Y-58122739D01*
X165889308Y-58181635D01*
X165908984Y-58183356D01*
X166115994Y-58201468D01*
X166116000Y-58201468D01*
X166116006Y-58201468D01*
X166295668Y-58185749D01*
X166342692Y-58181635D01*
X166562496Y-58122739D01*
X166768734Y-58026568D01*
X166955139Y-57896047D01*
X167116047Y-57735139D01*
X167182031Y-57640902D01*
X167252211Y-57573719D01*
X167342760Y-57538506D01*
X167439892Y-57540625D01*
X167528819Y-57579753D01*
X167589968Y-57640902D01*
X167655953Y-57735139D01*
X167816861Y-57896047D01*
X167816864Y-57896049D01*
X167816865Y-57896050D01*
X168003258Y-58026563D01*
X168003262Y-58026565D01*
X168003266Y-58026568D01*
X168003270Y-58026569D01*
X168003272Y-58026571D01*
X168007780Y-58028673D01*
X168209504Y-58122739D01*
X168429308Y-58181635D01*
X168448984Y-58183356D01*
X168655994Y-58201468D01*
X168656000Y-58201468D01*
X168656006Y-58201468D01*
X168835668Y-58185749D01*
X168882692Y-58181635D01*
X169102496Y-58122739D01*
X169308734Y-58026568D01*
X169495139Y-57896047D01*
X169656047Y-57735139D01*
X169722031Y-57640902D01*
X169792211Y-57573719D01*
X169882760Y-57538506D01*
X169979892Y-57540625D01*
X170068819Y-57579753D01*
X170129968Y-57640902D01*
X170195953Y-57735139D01*
X170356861Y-57896047D01*
X170356864Y-57896049D01*
X170356865Y-57896050D01*
X170543258Y-58026563D01*
X170543262Y-58026565D01*
X170543266Y-58026568D01*
X170543270Y-58026569D01*
X170543272Y-58026571D01*
X170547780Y-58028673D01*
X170749504Y-58122739D01*
X170969308Y-58181635D01*
X170988984Y-58183356D01*
X171195994Y-58201468D01*
X171196000Y-58201468D01*
X171196006Y-58201468D01*
X171375668Y-58185749D01*
X171422692Y-58181635D01*
X171642496Y-58122739D01*
X171848734Y-58026568D01*
X172035139Y-57896047D01*
X172196047Y-57735139D01*
X172262337Y-57640465D01*
X172332515Y-57573284D01*
X172423064Y-57538070D01*
X172520196Y-57540189D01*
X172609124Y-57579317D01*
X172670274Y-57640466D01*
X172736337Y-57734814D01*
X172897187Y-57895664D01*
X173083516Y-58026133D01*
X173289676Y-58122267D01*
X173485999Y-58174871D01*
X173486000Y-58174871D01*
X173486000Y-57211686D01*
X173497955Y-57223641D01*
X173610852Y-57281165D01*
X173704519Y-57296000D01*
X173767481Y-57296000D01*
X173861148Y-57281165D01*
X173974045Y-57223641D01*
X173986000Y-57211686D01*
X173986000Y-58174871D01*
X174182323Y-58122267D01*
X174388483Y-58026133D01*
X174574812Y-57895664D01*
X174735664Y-57734812D01*
X174866133Y-57548483D01*
X174962267Y-57342323D01*
X175014872Y-57146000D01*
X174051686Y-57146000D01*
X174063641Y-57134045D01*
X174121165Y-57021148D01*
X174140986Y-56896000D01*
X174121165Y-56770852D01*
X174063641Y-56657955D01*
X174051686Y-56646000D01*
X175014872Y-56646000D01*
X175014871Y-56645999D01*
X174962267Y-56449676D01*
X174861539Y-56233664D01*
X174862718Y-56233114D01*
X174835184Y-56152003D01*
X174841537Y-56055056D01*
X174884507Y-55967920D01*
X174957551Y-55903861D01*
X175049550Y-55872631D01*
X175082053Y-55870500D01*
X192524955Y-55870500D01*
X192620243Y-55889454D01*
X192701025Y-55943430D01*
X192755001Y-56024212D01*
X192773955Y-56119500D01*
X192755002Y-56214784D01*
X192753555Y-56218280D01*
X192748120Y-56231400D01*
X192688196Y-56481001D01*
X192668057Y-56736895D01*
X192668057Y-56736906D01*
X192685486Y-56958369D01*
X192674067Y-57054851D01*
X192626595Y-57139618D01*
X192613324Y-57153975D01*
X184700732Y-65066570D01*
X184619950Y-65120546D01*
X184524662Y-65139500D01*
X167222465Y-65139500D01*
X167183512Y-65136434D01*
X167179388Y-65135781D01*
X167179386Y-65135781D01*
X167114933Y-65139159D01*
X167101901Y-65139500D01*
X167084808Y-65139500D01*
X167076123Y-65140412D01*
X167067797Y-65141287D01*
X167054823Y-65142307D01*
X166990356Y-65145686D01*
X166990354Y-65145687D01*
X166986309Y-65146771D01*
X166947911Y-65153887D01*
X166947540Y-65153926D01*
X166943748Y-65154325D01*
X166943735Y-65154328D01*
X166882359Y-65174270D01*
X166869869Y-65177970D01*
X166807513Y-65194679D01*
X166807507Y-65194682D01*
X166803778Y-65196582D01*
X166767695Y-65211528D01*
X166763721Y-65212819D01*
X166763711Y-65212823D01*
X166707813Y-65245095D01*
X166696365Y-65251311D01*
X166638852Y-65280616D01*
X166638848Y-65280618D01*
X166635603Y-65283247D01*
X166603412Y-65305371D01*
X166599791Y-65307461D01*
X166599784Y-65307466D01*
X166551799Y-65350670D01*
X166541916Y-65359111D01*
X166528633Y-65369870D01*
X166528616Y-65369884D01*
X166516533Y-65381967D01*
X166507089Y-65390928D01*
X166459111Y-65434127D01*
X166456652Y-65437513D01*
X166431283Y-65467216D01*
X163675116Y-68223383D01*
X163594334Y-68277359D01*
X163520748Y-68295365D01*
X163349320Y-68310363D01*
X163349305Y-68310365D01*
X163129503Y-68369261D01*
X163129500Y-68369262D01*
X162923272Y-68465428D01*
X162923258Y-68465436D01*
X162736865Y-68595949D01*
X162575949Y-68756865D01*
X162509969Y-68851096D01*
X162439788Y-68918280D01*
X162349239Y-68953493D01*
X162252107Y-68951374D01*
X162163180Y-68912245D01*
X162102031Y-68851096D01*
X162036050Y-68756865D01*
X162036049Y-68756864D01*
X162036047Y-68756861D01*
X161875139Y-68595953D01*
X161875135Y-68595950D01*
X161875134Y-68595949D01*
X161688741Y-68465436D01*
X161688727Y-68465428D01*
X161482499Y-68369262D01*
X161482496Y-68369261D01*
X161262694Y-68310365D01*
X161262679Y-68310363D01*
X161036006Y-68290532D01*
X161035994Y-68290532D01*
X160809320Y-68310363D01*
X160809305Y-68310365D01*
X160589503Y-68369261D01*
X160589500Y-68369262D01*
X160383272Y-68465428D01*
X160383258Y-68465436D01*
X160196865Y-68595949D01*
X160035949Y-68756865D01*
X159969969Y-68851096D01*
X159899788Y-68918280D01*
X159809239Y-68953493D01*
X159712107Y-68951374D01*
X159623180Y-68912245D01*
X159562031Y-68851096D01*
X159496050Y-68756865D01*
X159496049Y-68756864D01*
X159496047Y-68756861D01*
X159335139Y-68595953D01*
X159335135Y-68595950D01*
X159335134Y-68595949D01*
X159148741Y-68465436D01*
X159148727Y-68465428D01*
X158942499Y-68369262D01*
X158942496Y-68369261D01*
X158722694Y-68310365D01*
X158722679Y-68310363D01*
X158496006Y-68290532D01*
X158495994Y-68290532D01*
X158269320Y-68310363D01*
X158269305Y-68310365D01*
X158049503Y-68369261D01*
X158049500Y-68369262D01*
X157843272Y-68465428D01*
X157843258Y-68465436D01*
X157656861Y-68595952D01*
X157609027Y-68643786D01*
X157528245Y-68697762D01*
X157432957Y-68716715D01*
X157337669Y-68697760D01*
X157256888Y-68643783D01*
X157202912Y-68563001D01*
X157199655Y-68554723D01*
X157199351Y-68553910D01*
X157113189Y-68438812D01*
X157113187Y-68438810D01*
X156998087Y-68352646D01*
X156863378Y-68302403D01*
X156863371Y-68302401D01*
X156803832Y-68296000D01*
X156206001Y-68296000D01*
X156206000Y-68296001D01*
X156206000Y-69280314D01*
X156194045Y-69268359D01*
X156081148Y-69210835D01*
X155987481Y-69196000D01*
X155924519Y-69196000D01*
X155830852Y-69210835D01*
X155717955Y-69268359D01*
X155706000Y-69280314D01*
X155706000Y-68296001D01*
X155705999Y-68296000D01*
X155108167Y-68296000D01*
X155048628Y-68302401D01*
X155048621Y-68302403D01*
X154913912Y-68352646D01*
X154798812Y-68438810D01*
X154798810Y-68438812D01*
X154712646Y-68553912D01*
X154662403Y-68688621D01*
X154662401Y-68688628D01*
X154656000Y-68748167D01*
X154656000Y-69345999D01*
X154656001Y-69346000D01*
X155640314Y-69346000D01*
X155628359Y-69357955D01*
X155570835Y-69470852D01*
X155551014Y-69596000D01*
X155570835Y-69721148D01*
X155628359Y-69834045D01*
X155640314Y-69846000D01*
X154656001Y-69846000D01*
X154656000Y-69846001D01*
X154656000Y-70443832D01*
X154662401Y-70503371D01*
X154662403Y-70503378D01*
X154712646Y-70638087D01*
X154798810Y-70753187D01*
X154798812Y-70753189D01*
X154913912Y-70839353D01*
X155048621Y-70889596D01*
X155048628Y-70889598D01*
X155108167Y-70895999D01*
X155108175Y-70896000D01*
X155705999Y-70896000D01*
X155706000Y-70895999D01*
X155706000Y-69911686D01*
X155717955Y-69923641D01*
X155830852Y-69981165D01*
X155924519Y-69996000D01*
X155987481Y-69996000D01*
X156081148Y-69981165D01*
X156194045Y-69923641D01*
X156206000Y-69911686D01*
X156206000Y-70895999D01*
X156206001Y-70896000D01*
X156803825Y-70896000D01*
X156803832Y-70895999D01*
X156863371Y-70889598D01*
X156863378Y-70889596D01*
X156998087Y-70839353D01*
X157113187Y-70753189D01*
X157113189Y-70753187D01*
X157199352Y-70638088D01*
X157199654Y-70637281D01*
X157200869Y-70635312D01*
X157207889Y-70622458D01*
X157208577Y-70622833D01*
X157250708Y-70554621D01*
X157329508Y-70497792D01*
X157424057Y-70475443D01*
X157519962Y-70490979D01*
X157602622Y-70542033D01*
X157609000Y-70548186D01*
X157656861Y-70596047D01*
X157656864Y-70596049D01*
X157656865Y-70596050D01*
X157843258Y-70726563D01*
X157843262Y-70726565D01*
X157843266Y-70726568D01*
X157843270Y-70726569D01*
X157843272Y-70726571D01*
X157967008Y-70784270D01*
X158049504Y-70822739D01*
X158269308Y-70881635D01*
X158288984Y-70883356D01*
X158495994Y-70901468D01*
X158496000Y-70901468D01*
X158496006Y-70901468D01*
X158675668Y-70885749D01*
X158722692Y-70881635D01*
X158942496Y-70822739D01*
X159148734Y-70726568D01*
X159335139Y-70596047D01*
X159496047Y-70435139D01*
X159562031Y-70340902D01*
X159632211Y-70273719D01*
X159722760Y-70238506D01*
X159819892Y-70240625D01*
X159908819Y-70279753D01*
X159969968Y-70340902D01*
X160035953Y-70435139D01*
X160196861Y-70596047D01*
X160196864Y-70596049D01*
X160196865Y-70596050D01*
X160383258Y-70726563D01*
X160383262Y-70726565D01*
X160383266Y-70726568D01*
X160383270Y-70726569D01*
X160383272Y-70726571D01*
X160507008Y-70784270D01*
X160589504Y-70822739D01*
X160809308Y-70881635D01*
X160828984Y-70883356D01*
X161035994Y-70901468D01*
X161036000Y-70901468D01*
X161036006Y-70901468D01*
X161215668Y-70885749D01*
X161262692Y-70881635D01*
X161482496Y-70822739D01*
X161688734Y-70726568D01*
X161875139Y-70596047D01*
X162036047Y-70435139D01*
X162102031Y-70340902D01*
X162172211Y-70273719D01*
X162262760Y-70238506D01*
X162359892Y-70240625D01*
X162448819Y-70279753D01*
X162509968Y-70340902D01*
X162575953Y-70435139D01*
X162736861Y-70596047D01*
X162736864Y-70596049D01*
X162736865Y-70596050D01*
X162923258Y-70726563D01*
X162923262Y-70726565D01*
X162923266Y-70726568D01*
X162923270Y-70726569D01*
X162923272Y-70726571D01*
X163047008Y-70784270D01*
X163129504Y-70822739D01*
X163349308Y-70881635D01*
X163368984Y-70883356D01*
X163575994Y-70901468D01*
X163576000Y-70901468D01*
X163576006Y-70901468D01*
X163755668Y-70885749D01*
X163802692Y-70881635D01*
X164022496Y-70822739D01*
X164228734Y-70726568D01*
X164415139Y-70596047D01*
X164576047Y-70435139D01*
X164642031Y-70340902D01*
X164712211Y-70273719D01*
X164802760Y-70238506D01*
X164899892Y-70240625D01*
X164988819Y-70279753D01*
X165049968Y-70340902D01*
X165115953Y-70435139D01*
X165276861Y-70596047D01*
X165276864Y-70596049D01*
X165276865Y-70596050D01*
X165463258Y-70726563D01*
X165463262Y-70726565D01*
X165463266Y-70726568D01*
X165463270Y-70726569D01*
X165463272Y-70726571D01*
X165587008Y-70784270D01*
X165669504Y-70822739D01*
X165889308Y-70881635D01*
X165908984Y-70883356D01*
X166115994Y-70901468D01*
X166116000Y-70901468D01*
X166116006Y-70901468D01*
X166295668Y-70885749D01*
X166342692Y-70881635D01*
X166562496Y-70822739D01*
X166768734Y-70726568D01*
X166955139Y-70596047D01*
X167116047Y-70435139D01*
X167182031Y-70340902D01*
X167252211Y-70273719D01*
X167342760Y-70238506D01*
X167439892Y-70240625D01*
X167528819Y-70279753D01*
X167589968Y-70340902D01*
X167655953Y-70435139D01*
X167816861Y-70596047D01*
X167816864Y-70596049D01*
X167816865Y-70596050D01*
X168003258Y-70726563D01*
X168003262Y-70726565D01*
X168003266Y-70726568D01*
X168003270Y-70726569D01*
X168003272Y-70726571D01*
X168127008Y-70784270D01*
X168209504Y-70822739D01*
X168429308Y-70881635D01*
X168448984Y-70883356D01*
X168655994Y-70901468D01*
X168656000Y-70901468D01*
X168656006Y-70901468D01*
X168835668Y-70885749D01*
X168882692Y-70881635D01*
X169102496Y-70822739D01*
X169308734Y-70726568D01*
X169495139Y-70596047D01*
X169656047Y-70435139D01*
X169722031Y-70340902D01*
X169792211Y-70273719D01*
X169882760Y-70238506D01*
X169979892Y-70240625D01*
X170068819Y-70279753D01*
X170129968Y-70340902D01*
X170195953Y-70435139D01*
X170356861Y-70596047D01*
X170356864Y-70596049D01*
X170356865Y-70596050D01*
X170543258Y-70726563D01*
X170543262Y-70726565D01*
X170543266Y-70726568D01*
X170543270Y-70726569D01*
X170543272Y-70726571D01*
X170667008Y-70784270D01*
X170749504Y-70822739D01*
X170969308Y-70881635D01*
X170988984Y-70883356D01*
X171195994Y-70901468D01*
X171196000Y-70901468D01*
X171196006Y-70901468D01*
X171375668Y-70885749D01*
X171422692Y-70881635D01*
X171642496Y-70822739D01*
X171848734Y-70726568D01*
X172035139Y-70596047D01*
X172196047Y-70435139D01*
X172262337Y-70340465D01*
X172332515Y-70273284D01*
X172423064Y-70238070D01*
X172520196Y-70240189D01*
X172609124Y-70279317D01*
X172670274Y-70340466D01*
X172736337Y-70434814D01*
X172897187Y-70595664D01*
X173083516Y-70726133D01*
X173289676Y-70822267D01*
X173485999Y-70874871D01*
X173486000Y-70874871D01*
X173486000Y-69911686D01*
X173497955Y-69923641D01*
X173610852Y-69981165D01*
X173704519Y-69996000D01*
X173767481Y-69996000D01*
X173861148Y-69981165D01*
X173974045Y-69923641D01*
X173986000Y-69911686D01*
X173986000Y-70874871D01*
X174182323Y-70822267D01*
X174388483Y-70726133D01*
X174574812Y-70595664D01*
X174735664Y-70434812D01*
X174866133Y-70248483D01*
X174962267Y-70042323D01*
X175014872Y-69846000D01*
X174051686Y-69846000D01*
X174063641Y-69834045D01*
X174121165Y-69721148D01*
X174140986Y-69596000D01*
X174121165Y-69470852D01*
X174063641Y-69357955D01*
X174051686Y-69346000D01*
X175014872Y-69346000D01*
X175014871Y-69345999D01*
X174962267Y-69149676D01*
X174866133Y-68943516D01*
X174735664Y-68757187D01*
X174574812Y-68596335D01*
X174388483Y-68465866D01*
X174182318Y-68369730D01*
X173986000Y-68317126D01*
X173986000Y-69280314D01*
X173974045Y-69268359D01*
X173861148Y-69210835D01*
X173767481Y-69196000D01*
X173704519Y-69196000D01*
X173610852Y-69210835D01*
X173497955Y-69268359D01*
X173486000Y-69280314D01*
X173486000Y-68317127D01*
X173485999Y-68317126D01*
X173289681Y-68369730D01*
X173083516Y-68465866D01*
X172897187Y-68596335D01*
X172736336Y-68757186D01*
X172670273Y-68851534D01*
X172600092Y-68918717D01*
X172509542Y-68953929D01*
X172412410Y-68951809D01*
X172323483Y-68912680D01*
X172262337Y-68851534D01*
X172196047Y-68756861D01*
X172035139Y-68595953D01*
X172035135Y-68595950D01*
X172035134Y-68595949D01*
X171848741Y-68465436D01*
X171848727Y-68465428D01*
X171642499Y-68369262D01*
X171642496Y-68369261D01*
X171422694Y-68310365D01*
X171422679Y-68310363D01*
X171196006Y-68290532D01*
X171195994Y-68290532D01*
X170969320Y-68310363D01*
X170969305Y-68310365D01*
X170749503Y-68369261D01*
X170749500Y-68369262D01*
X170543272Y-68465428D01*
X170543258Y-68465436D01*
X170356865Y-68595949D01*
X170195949Y-68756865D01*
X170129969Y-68851096D01*
X170059788Y-68918280D01*
X169969239Y-68953493D01*
X169872107Y-68951374D01*
X169783180Y-68912245D01*
X169722031Y-68851096D01*
X169656050Y-68756865D01*
X169656049Y-68756864D01*
X169656047Y-68756861D01*
X169495139Y-68595953D01*
X169495135Y-68595950D01*
X169495134Y-68595949D01*
X169308741Y-68465436D01*
X169308727Y-68465428D01*
X169102499Y-68369262D01*
X169102496Y-68369261D01*
X168882694Y-68310365D01*
X168882679Y-68310363D01*
X168656006Y-68290532D01*
X168655994Y-68290532D01*
X168429320Y-68310363D01*
X168429305Y-68310365D01*
X168209503Y-68369261D01*
X168209500Y-68369262D01*
X168003272Y-68465428D01*
X168003258Y-68465436D01*
X167816865Y-68595949D01*
X167655949Y-68756865D01*
X167589969Y-68851096D01*
X167519788Y-68918280D01*
X167429239Y-68953493D01*
X167332107Y-68951374D01*
X167243180Y-68912245D01*
X167182031Y-68851096D01*
X167116050Y-68756865D01*
X167116049Y-68756864D01*
X167116047Y-68756861D01*
X166955139Y-68595953D01*
X166955135Y-68595950D01*
X166955134Y-68595949D01*
X166768741Y-68465436D01*
X166768731Y-68465430D01*
X166553165Y-68364909D01*
X166474815Y-68307460D01*
X166424414Y-68224401D01*
X166409635Y-68128376D01*
X166432728Y-68034006D01*
X166482329Y-67963169D01*
X167432070Y-67013430D01*
X167512851Y-66959454D01*
X167608139Y-66940500D01*
X184910336Y-66940500D01*
X184949288Y-66943565D01*
X184953413Y-66944219D01*
X185017875Y-66940841D01*
X185030906Y-66940500D01*
X185047985Y-66940500D01*
X185047993Y-66940500D01*
X185065018Y-66938710D01*
X185077969Y-66937691D01*
X185142447Y-66934313D01*
X185146474Y-66933233D01*
X185184917Y-66926108D01*
X185189057Y-66925674D01*
X185250461Y-66905722D01*
X185262918Y-66902032D01*
X185325289Y-66885320D01*
X185328999Y-66883429D01*
X185365119Y-66868467D01*
X185369085Y-66867179D01*
X185425011Y-66834888D01*
X185436408Y-66828700D01*
X185493950Y-66799383D01*
X185497187Y-66796761D01*
X185529412Y-66774613D01*
X185533017Y-66772533D01*
X185580992Y-66729335D01*
X185590898Y-66720875D01*
X185604181Y-66710119D01*
X185616257Y-66698041D01*
X185625715Y-66689066D01*
X185673689Y-66645871D01*
X185676134Y-66642505D01*
X185701513Y-66612785D01*
X192322026Y-59992273D01*
X192402806Y-59938299D01*
X192498094Y-59919345D01*
X192593382Y-59938299D01*
X192674164Y-59992275D01*
X192728140Y-60073057D01*
X192747094Y-60168345D01*
X192740214Y-60226472D01*
X192688692Y-60441076D01*
X192688692Y-60441079D01*
X192668559Y-60696895D01*
X192668559Y-60696901D01*
X192688692Y-60952722D01*
X192748598Y-61202249D01*
X192846799Y-61439329D01*
X192846803Y-61439335D01*
X192980875Y-61658122D01*
X192980884Y-61658134D01*
X192984674Y-61662571D01*
X193533212Y-61114033D01*
X193574319Y-61191569D01*
X193697716Y-61336842D01*
X193849456Y-61452192D01*
X193885490Y-61468863D01*
X193338228Y-62016125D01*
X193342666Y-62019916D01*
X193342670Y-62019919D01*
X193561471Y-62154001D01*
X193798551Y-62252202D01*
X194048078Y-62312108D01*
X194303895Y-62332242D01*
X194303905Y-62332242D01*
X194559721Y-62312108D01*
X194809248Y-62252202D01*
X195046328Y-62154001D01*
X195046334Y-62153997D01*
X195210398Y-62053460D01*
X195301548Y-62019833D01*
X195398628Y-62023647D01*
X195486859Y-62064322D01*
X195552807Y-62135665D01*
X195586434Y-62226815D01*
X195589500Y-62265767D01*
X195589500Y-63087447D01*
X195570546Y-63182735D01*
X195516570Y-63263517D01*
X195435788Y-63317493D01*
X195340500Y-63336447D01*
X195245212Y-63317493D01*
X195210398Y-63299755D01*
X195046560Y-63199355D01*
X195046557Y-63199353D01*
X195046555Y-63199352D01*
X195046553Y-63199351D01*
X194809403Y-63101121D01*
X194559799Y-63041196D01*
X194303905Y-63021057D01*
X194303895Y-63021057D01*
X194048000Y-63041196D01*
X193798396Y-63101121D01*
X193561246Y-63199351D01*
X193561230Y-63199360D01*
X193342382Y-63333470D01*
X193342381Y-63333470D01*
X193147186Y-63500181D01*
X193147181Y-63500186D01*
X192980470Y-63695381D01*
X192980470Y-63695382D01*
X192846360Y-63914230D01*
X192846351Y-63914246D01*
X192748121Y-64151396D01*
X192688196Y-64401000D01*
X192668057Y-64656894D01*
X192668057Y-64656905D01*
X192688196Y-64912799D01*
X192748121Y-65162403D01*
X192846351Y-65399553D01*
X192846360Y-65399569D01*
X192980470Y-65618417D01*
X192980470Y-65618418D01*
X193147181Y-65813613D01*
X193147186Y-65813618D01*
X193342381Y-65980329D01*
X193553649Y-66109793D01*
X193561243Y-66114447D01*
X193798397Y-66212679D01*
X194047998Y-66272603D01*
X194121112Y-66278357D01*
X194303895Y-66292743D01*
X194303900Y-66292743D01*
X194303905Y-66292743D01*
X194463838Y-66280155D01*
X194559802Y-66272603D01*
X194809403Y-66212679D01*
X195046557Y-66114447D01*
X195210399Y-66014044D01*
X195301547Y-65980418D01*
X195398627Y-65984232D01*
X195486858Y-66024906D01*
X195552807Y-66096249D01*
X195586434Y-66187399D01*
X195589500Y-66226352D01*
X195589500Y-66343569D01*
X195570546Y-66438857D01*
X195516570Y-66519639D01*
X195516569Y-66519639D01*
X195041613Y-66994594D01*
X194960832Y-67048570D01*
X194865544Y-67067524D01*
X194807416Y-67060644D01*
X194559799Y-67001196D01*
X194303905Y-66981057D01*
X194303895Y-66981057D01*
X194048000Y-67001196D01*
X193798396Y-67061121D01*
X193561246Y-67159351D01*
X193561230Y-67159360D01*
X193342382Y-67293470D01*
X193342381Y-67293470D01*
X193147186Y-67460181D01*
X193147181Y-67460186D01*
X192980470Y-67655381D01*
X192980470Y-67655382D01*
X192846360Y-67874230D01*
X192846351Y-67874246D01*
X192748121Y-68111396D01*
X192688196Y-68361000D01*
X192668057Y-68616894D01*
X192668057Y-68616905D01*
X192688196Y-68872799D01*
X192748121Y-69122403D01*
X192846351Y-69359553D01*
X192846360Y-69359569D01*
X192980470Y-69578417D01*
X192980470Y-69578418D01*
X193147181Y-69773613D01*
X193147186Y-69773618D01*
X193231935Y-69846000D01*
X193322841Y-69923641D01*
X193342381Y-69940329D01*
X193518116Y-70048019D01*
X193561243Y-70074447D01*
X193798397Y-70172679D01*
X194047998Y-70232603D01*
X194117463Y-70238070D01*
X194303895Y-70252743D01*
X194303900Y-70252743D01*
X194303905Y-70252743D01*
X194463838Y-70240155D01*
X194559802Y-70232603D01*
X194809403Y-70172679D01*
X195046557Y-70074447D01*
X195265417Y-69940329D01*
X195265418Y-69940329D01*
X195265419Y-69940327D01*
X195265424Y-69940325D01*
X195460616Y-69773616D01*
X195627325Y-69578424D01*
X195761447Y-69359557D01*
X195859679Y-69122403D01*
X195919603Y-68872802D01*
X195928702Y-68757186D01*
X195939743Y-68616905D01*
X195939743Y-68616894D01*
X195919603Y-68361000D01*
X195917837Y-68353646D01*
X195860154Y-68113379D01*
X195856341Y-68016301D01*
X195889967Y-67925151D01*
X195926201Y-67879187D01*
X196590795Y-67214593D01*
X196608149Y-67198805D01*
X196616870Y-67191590D01*
X196616877Y-67191586D01*
X196661595Y-67143965D01*
X196666974Y-67138414D01*
X196685120Y-67120270D01*
X196685133Y-67120252D01*
X196688892Y-67115990D01*
X196699200Y-67103921D01*
X196725062Y-67076382D01*
X196729970Y-67067452D01*
X196751427Y-67034789D01*
X196757674Y-67026736D01*
X196772678Y-66992060D01*
X196782998Y-66970993D01*
X196801197Y-66937892D01*
X196803733Y-66928012D01*
X196816386Y-66891057D01*
X196820438Y-66881695D01*
X196826347Y-66844379D01*
X196831105Y-66821405D01*
X196840500Y-66784819D01*
X196840500Y-66774620D01*
X196843566Y-66735665D01*
X196845160Y-66725604D01*
X196841605Y-66687996D01*
X196840500Y-66664564D01*
X196840500Y-56683947D01*
X196841605Y-56660512D01*
X196842669Y-56649238D01*
X196842672Y-56649229D01*
X196840622Y-56584013D01*
X196840500Y-56576194D01*
X196840500Y-56550543D01*
X196840148Y-56544955D01*
X196838895Y-56529021D01*
X196837709Y-56491269D01*
X196834867Y-56481487D01*
X196826941Y-56443214D01*
X196825664Y-56433105D01*
X196825664Y-56433104D01*
X196811749Y-56397961D01*
X196804160Y-56375795D01*
X196793618Y-56339506D01*
X196788430Y-56330734D01*
X196771237Y-56295640D01*
X196767486Y-56286164D01*
X196745280Y-56255600D01*
X196732400Y-56235991D01*
X196713174Y-56203482D01*
X196713170Y-56203475D01*
X196713165Y-56203470D01*
X196713163Y-56203467D01*
X196705954Y-56196258D01*
X196680581Y-56166549D01*
X196674596Y-56158312D01*
X196674596Y-56158311D01*
X196666971Y-56152003D01*
X196645486Y-56134229D01*
X196628144Y-56118449D01*
X195378898Y-54869203D01*
X195363107Y-54851847D01*
X195355890Y-54843123D01*
X195308338Y-54798468D01*
X195302725Y-54793029D01*
X195284572Y-54774877D01*
X195280393Y-54771192D01*
X195268225Y-54760799D01*
X195260435Y-54753484D01*
X195240686Y-54734938D01*
X195240684Y-54734937D01*
X195240683Y-54734936D01*
X195231748Y-54730024D01*
X195199092Y-54708573D01*
X195191042Y-54702328D01*
X195191035Y-54702324D01*
X195156357Y-54687317D01*
X195135300Y-54677001D01*
X195102195Y-54658802D01*
X195092318Y-54656266D01*
X195055360Y-54643612D01*
X195046004Y-54639563D01*
X195045994Y-54639560D01*
X195008676Y-54633649D01*
X194985717Y-54628895D01*
X194965308Y-54623655D01*
X194949123Y-54619500D01*
X194949122Y-54619500D01*
X194938928Y-54619500D01*
X194899980Y-54616435D01*
X194889908Y-54614840D01*
X194852300Y-54618395D01*
X194828868Y-54619500D01*
X165829059Y-54619500D01*
X165805624Y-54618395D01*
X165794336Y-54617327D01*
X165794333Y-54617327D01*
X165794329Y-54617327D01*
X165794328Y-54617327D01*
X165729100Y-54619377D01*
X165721279Y-54619500D01*
X165695650Y-54619500D01*
X165695646Y-54619500D01*
X165690085Y-54619850D01*
X165674143Y-54621103D01*
X165636371Y-54622290D01*
X165626585Y-54625134D01*
X165588331Y-54633057D01*
X165578212Y-54634335D01*
X165578200Y-54634338D01*
X165543070Y-54648246D01*
X165520895Y-54655838D01*
X165484611Y-54666380D01*
X165484610Y-54666381D01*
X165475822Y-54671578D01*
X165440763Y-54688753D01*
X165431272Y-54692511D01*
X165431269Y-54692512D01*
X165400701Y-54714721D01*
X165381107Y-54727592D01*
X165348583Y-54746828D01*
X165348576Y-54746833D01*
X165341364Y-54754045D01*
X165311671Y-54779405D01*
X165303418Y-54785401D01*
X165303411Y-54785407D01*
X165279332Y-54814514D01*
X165263546Y-54831862D01*
X164615210Y-55480197D01*
X164597871Y-55495975D01*
X164589128Y-55503208D01*
X164544453Y-55550781D01*
X164539020Y-55556387D01*
X164520890Y-55574518D01*
X164517205Y-55578698D01*
X164506812Y-55590862D01*
X164480941Y-55618412D01*
X164480939Y-55618416D01*
X164477394Y-55624864D01*
X164414876Y-55699231D01*
X164328657Y-55744013D01*
X164231864Y-55752392D01*
X164153966Y-55730567D01*
X164117396Y-55713514D01*
X164022496Y-55669261D01*
X163930180Y-55644525D01*
X163802694Y-55610365D01*
X163802679Y-55610363D01*
X163576006Y-55590532D01*
X163575994Y-55590532D01*
X163349320Y-55610363D01*
X163349305Y-55610365D01*
X163129503Y-55669261D01*
X163129500Y-55669262D01*
X162923272Y-55765428D01*
X162923258Y-55765436D01*
X162736865Y-55895949D01*
X162575949Y-56056865D01*
X162509969Y-56151096D01*
X162439788Y-56218280D01*
X162349239Y-56253493D01*
X162252107Y-56251374D01*
X162163180Y-56212245D01*
X162102031Y-56151096D01*
X162036050Y-56056865D01*
X162036049Y-56056864D01*
X162036047Y-56056861D01*
X161875139Y-55895953D01*
X161875135Y-55895950D01*
X161875134Y-55895949D01*
X161688741Y-55765436D01*
X161688727Y-55765428D01*
X161482499Y-55669262D01*
X161482496Y-55669261D01*
X161262694Y-55610365D01*
X161262679Y-55610363D01*
X161036006Y-55590532D01*
X161035994Y-55590532D01*
X160809320Y-55610363D01*
X160809305Y-55610365D01*
X160589503Y-55669261D01*
X160589500Y-55669262D01*
X160383272Y-55765428D01*
X160383258Y-55765436D01*
X160196865Y-55895949D01*
X160035949Y-56056865D01*
X159969969Y-56151096D01*
X159899788Y-56218280D01*
X159809239Y-56253493D01*
X159712107Y-56251374D01*
X159623180Y-56212245D01*
X159562031Y-56151096D01*
X159496050Y-56056865D01*
X159496049Y-56056864D01*
X159496047Y-56056861D01*
X159335139Y-55895953D01*
X159335135Y-55895950D01*
X159335134Y-55895949D01*
X159148741Y-55765436D01*
X159148727Y-55765428D01*
X158942499Y-55669262D01*
X158942496Y-55669261D01*
X158722694Y-55610365D01*
X158722679Y-55610363D01*
X158496006Y-55590532D01*
X158495994Y-55590532D01*
X158269320Y-55610363D01*
X158269305Y-55610365D01*
X158049503Y-55669261D01*
X158049500Y-55669262D01*
X157843272Y-55765428D01*
X157843258Y-55765436D01*
X157656865Y-55895949D01*
X157495949Y-56056865D01*
X157429969Y-56151096D01*
X157359788Y-56218280D01*
X157269239Y-56253493D01*
X157172107Y-56251374D01*
X157083180Y-56212245D01*
X157022031Y-56151096D01*
X156956050Y-56056865D01*
X156956049Y-56056864D01*
X156956047Y-56056861D01*
X156795139Y-55895953D01*
X156795135Y-55895950D01*
X156795134Y-55895949D01*
X156608741Y-55765436D01*
X156608727Y-55765428D01*
X156402499Y-55669262D01*
X156402496Y-55669261D01*
X156182694Y-55610365D01*
X156182679Y-55610363D01*
X155956006Y-55590532D01*
X155955994Y-55590532D01*
X155729320Y-55610363D01*
X155729305Y-55610365D01*
X155509503Y-55669261D01*
X155509500Y-55669262D01*
X155303272Y-55765428D01*
X155303258Y-55765436D01*
X155116865Y-55895949D01*
X154955949Y-56056865D01*
X154825436Y-56243258D01*
X154825428Y-56243272D01*
X154729262Y-56449500D01*
X154729261Y-56449503D01*
X154670365Y-56669305D01*
X154670363Y-56669320D01*
X154650532Y-56895994D01*
X154650532Y-56896005D01*
X99060500Y-56896005D01*
X99060500Y-53340000D01*
X100465255Y-53340000D01*
X100484217Y-53641396D01*
X100540805Y-53938039D01*
X100634125Y-54225248D01*
X100762707Y-54498497D01*
X100924521Y-54753475D01*
X100924527Y-54753484D01*
X101005310Y-54851133D01*
X101934209Y-53922233D01*
X102034894Y-54063624D01*
X102186932Y-54208592D01*
X102289222Y-54274330D01*
X101356565Y-55206988D01*
X101581472Y-55370393D01*
X101846114Y-55515880D01*
X102126888Y-55627045D01*
X102126902Y-55627050D01*
X102419394Y-55702149D01*
X102719011Y-55740000D01*
X103020989Y-55740000D01*
X103320605Y-55702149D01*
X103613097Y-55627050D01*
X103613111Y-55627045D01*
X103893886Y-55515879D01*
X103893890Y-55515878D01*
X104158529Y-55370391D01*
X104158531Y-55370390D01*
X104383433Y-55206988D01*
X103453305Y-54276860D01*
X103467410Y-54269589D01*
X103632540Y-54139729D01*
X103770110Y-53980965D01*
X103804666Y-53921111D01*
X104734688Y-54851133D01*
X104815481Y-54753471D01*
X104977292Y-54498497D01*
X105105874Y-54225248D01*
X105199194Y-53938039D01*
X105255782Y-53641396D01*
X105274744Y-53340000D01*
X198255255Y-53340000D01*
X198274217Y-53641396D01*
X198330805Y-53938039D01*
X198424125Y-54225248D01*
X198552707Y-54498497D01*
X198714521Y-54753475D01*
X198714527Y-54753484D01*
X198795310Y-54851133D01*
X199724209Y-53922233D01*
X199824894Y-54063624D01*
X199976932Y-54208592D01*
X200079222Y-54274330D01*
X199146565Y-55206988D01*
X199371472Y-55370393D01*
X199636114Y-55515880D01*
X199916888Y-55627045D01*
X199916902Y-55627050D01*
X200209394Y-55702149D01*
X200509011Y-55740000D01*
X200810989Y-55740000D01*
X201110605Y-55702149D01*
X201403097Y-55627050D01*
X201403111Y-55627045D01*
X201683886Y-55515879D01*
X201683890Y-55515878D01*
X201948529Y-55370391D01*
X201948531Y-55370390D01*
X202173433Y-55206988D01*
X201243305Y-54276860D01*
X201257410Y-54269589D01*
X201422540Y-54139729D01*
X201560110Y-53980965D01*
X201594666Y-53921111D01*
X202524688Y-54851133D01*
X202605481Y-54753471D01*
X202767292Y-54498497D01*
X202895874Y-54225248D01*
X202989194Y-53938039D01*
X203045782Y-53641396D01*
X203064744Y-53340000D01*
X203045782Y-53038603D01*
X202989194Y-52741960D01*
X202895874Y-52454751D01*
X202767292Y-52181502D01*
X202605481Y-51926527D01*
X202524687Y-51828865D01*
X201595788Y-52757764D01*
X201495106Y-52616376D01*
X201343068Y-52471408D01*
X201240774Y-52405668D01*
X202173433Y-51473010D01*
X201948527Y-51309606D01*
X201683885Y-51164119D01*
X201403111Y-51052954D01*
X201403097Y-51052949D01*
X201110605Y-50977850D01*
X200810989Y-50940000D01*
X200509011Y-50940000D01*
X200209394Y-50977850D01*
X199916902Y-51052949D01*
X199916888Y-51052954D01*
X199636114Y-51164119D01*
X199371478Y-51309604D01*
X199146565Y-51473010D01*
X200076694Y-52403139D01*
X200062590Y-52410411D01*
X199897460Y-52540271D01*
X199759890Y-52699035D01*
X199725333Y-52758888D01*
X198795310Y-51828865D01*
X198714525Y-51926518D01*
X198714523Y-51926521D01*
X198552707Y-52181502D01*
X198424125Y-52454751D01*
X198330805Y-52741960D01*
X198274217Y-53038603D01*
X198255255Y-53340000D01*
X105274744Y-53340000D01*
X105255782Y-53038603D01*
X105199194Y-52741960D01*
X105105874Y-52454751D01*
X104977292Y-52181502D01*
X104815481Y-51926527D01*
X104734687Y-51828865D01*
X103805788Y-52757764D01*
X103705106Y-52616376D01*
X103553068Y-52471408D01*
X103450774Y-52405668D01*
X104383433Y-51473010D01*
X104158527Y-51309606D01*
X103893885Y-51164119D01*
X103613111Y-51052954D01*
X103613097Y-51052949D01*
X103320605Y-50977850D01*
X103020989Y-50940000D01*
X102719011Y-50940000D01*
X102419394Y-50977850D01*
X102126902Y-51052949D01*
X102126888Y-51052954D01*
X101846114Y-51164119D01*
X101581478Y-51309604D01*
X101356565Y-51473010D01*
X102286694Y-52403139D01*
X102272590Y-52410411D01*
X102107460Y-52540271D01*
X101969890Y-52699035D01*
X101935333Y-52758888D01*
X101005310Y-51828865D01*
X100924525Y-51926518D01*
X100924523Y-51926521D01*
X100762707Y-52181502D01*
X100634125Y-52454751D01*
X100540805Y-52741960D01*
X100484217Y-53038603D01*
X100465255Y-53340000D01*
X99060500Y-53340000D01*
X99060500Y-49779500D01*
X99079454Y-49684212D01*
X99133430Y-49603430D01*
X99214212Y-49549454D01*
X99309500Y-49530500D01*
X204220500Y-49530500D01*
X204315788Y-49549454D01*
G37*
%TD.AperFunction*%
%TD*%
M02*
