%TF.GenerationSoftware,KiCad,Pcbnew,7.0.10*%
%TF.CreationDate,2024-02-19T13:17:08+01:00*%
%TF.ProjectId,arenaPCBv1,6172656e-6150-4434-9276-312e6b696361,rev?*%
%TF.SameCoordinates,Original*%
%TF.FileFunction,Copper,L1,Top*%
%TF.FilePolarity,Positive*%
%FSLAX46Y46*%
G04 Gerber Fmt 4.6, Leading zero omitted, Abs format (unit mm)*
G04 Created by KiCad (PCBNEW 7.0.10) date 2024-02-19 13:17:08*
%MOMM*%
%LPD*%
G01*
G04 APERTURE LIST*
G04 Aperture macros list*
%AMRoundRect*
0 Rectangle with rounded corners*
0 $1 Rounding radius*
0 $2 $3 $4 $5 $6 $7 $8 $9 X,Y pos of 4 corners*
0 Add a 4 corners polygon primitive as box body*
4,1,4,$2,$3,$4,$5,$6,$7,$8,$9,$2,$3,0*
0 Add four circle primitives for the rounded corners*
1,1,$1+$1,$2,$3*
1,1,$1+$1,$4,$5*
1,1,$1+$1,$6,$7*
1,1,$1+$1,$8,$9*
0 Add four rect primitives between the rounded corners*
20,1,$1+$1,$2,$3,$4,$5,0*
20,1,$1+$1,$4,$5,$6,$7,0*
20,1,$1+$1,$6,$7,$8,$9,0*
20,1,$1+$1,$8,$9,$2,$3,0*%
G04 Aperture macros list end*
%TA.AperFunction,SMDPad,CuDef*%
%ADD10RoundRect,0.625000X-0.625000X-1.025000X0.625000X-1.025000X0.625000X1.025000X-0.625000X1.025000X0*%
%TD*%
%TA.AperFunction,SMDPad,CuDef*%
%ADD11RoundRect,0.625000X1.025000X-0.625000X1.025000X0.625000X-1.025000X0.625000X-1.025000X-0.625000X0*%
%TD*%
%TA.AperFunction,SMDPad,CuDef*%
%ADD12RoundRect,0.250000X-1.950000X-1.000000X1.950000X-1.000000X1.950000X1.000000X-1.950000X1.000000X0*%
%TD*%
%TA.AperFunction,ComponentPad*%
%ADD13C,3.800000*%
%TD*%
%TA.AperFunction,ComponentPad*%
%ADD14C,1.320800*%
%TD*%
%TA.AperFunction,ComponentPad*%
%ADD15C,2.260600*%
%TD*%
%TA.AperFunction,SMDPad,CuDef*%
%ADD16RoundRect,0.250000X0.412500X1.100000X-0.412500X1.100000X-0.412500X-1.100000X0.412500X-1.100000X0*%
%TD*%
%TA.AperFunction,SMDPad,CuDef*%
%ADD17RoundRect,0.250000X0.400000X1.075000X-0.400000X1.075000X-0.400000X-1.075000X0.400000X-1.075000X0*%
%TD*%
%TA.AperFunction,SMDPad,CuDef*%
%ADD18RoundRect,0.250000X1.500000X0.550000X-1.500000X0.550000X-1.500000X-0.550000X1.500000X-0.550000X0*%
%TD*%
%TA.AperFunction,SMDPad,CuDef*%
%ADD19RoundRect,0.250000X-1.075000X0.400000X-1.075000X-0.400000X1.075000X-0.400000X1.075000X0.400000X0*%
%TD*%
%TA.AperFunction,ComponentPad*%
%ADD20R,1.600000X1.600000*%
%TD*%
%TA.AperFunction,ComponentPad*%
%ADD21O,1.600000X1.600000*%
%TD*%
%TA.AperFunction,ComponentPad*%
%ADD22R,1.700000X1.700000*%
%TD*%
%TA.AperFunction,ComponentPad*%
%ADD23O,1.700000X1.700000*%
%TD*%
%TA.AperFunction,SMDPad,CuDef*%
%ADD24RoundRect,0.249999X-1.425001X0.450001X-1.425001X-0.450001X1.425001X-0.450001X1.425001X0.450001X0*%
%TD*%
%TA.AperFunction,ComponentPad*%
%ADD25C,2.010000*%
%TD*%
%TA.AperFunction,ComponentPad*%
%ADD26C,2.159000*%
%TD*%
%TA.AperFunction,ComponentPad*%
%ADD27C,1.244600*%
%TD*%
%TA.AperFunction,ComponentPad*%
%ADD28C,1.270000*%
%TD*%
%TA.AperFunction,ComponentPad*%
%ADD29RoundRect,0.250000X-0.350000X0.350000X-0.350000X-0.350000X0.350000X-0.350000X0.350000X0.350000X0*%
%TD*%
%TA.AperFunction,ComponentPad*%
%ADD30C,1.200000*%
%TD*%
%TA.AperFunction,SMDPad,CuDef*%
%ADD31RoundRect,0.250000X-0.412500X-1.100000X0.412500X-1.100000X0.412500X1.100000X-0.412500X1.100000X0*%
%TD*%
%TA.AperFunction,ComponentPad*%
%ADD32R,1.905000X2.000000*%
%TD*%
%TA.AperFunction,ComponentPad*%
%ADD33O,1.905000X2.000000*%
%TD*%
%TA.AperFunction,ViaPad*%
%ADD34C,0.800000*%
%TD*%
%TA.AperFunction,Conductor*%
%ADD35C,1.375000*%
%TD*%
%TA.AperFunction,Conductor*%
%ADD36C,1.250000*%
%TD*%
%TA.AperFunction,Conductor*%
%ADD37C,0.250000*%
%TD*%
%TA.AperFunction,Conductor*%
%ADD38C,2.500000*%
%TD*%
%TA.AperFunction,Conductor*%
%ADD39C,1.500000*%
%TD*%
%TA.AperFunction,Conductor*%
%ADD40C,0.500000*%
%TD*%
%TA.AperFunction,Conductor*%
%ADD41C,5.000000*%
%TD*%
%TA.AperFunction,Conductor*%
%ADD42C,2.000000*%
%TD*%
%TA.AperFunction,Conductor*%
%ADD43C,1.000000*%
%TD*%
%TA.AperFunction,Conductor*%
%ADD44C,0.800000*%
%TD*%
G04 APERTURE END LIST*
D10*
%TO.P,D1,1,K*%
%TO.N,+12V*%
X129794000Y-99060000D03*
%TO.P,D1,2,A*%
%TO.N,GND*%
X136694000Y-99060000D03*
%TD*%
D11*
%TO.P,D2,1,K*%
%TO.N,+12V*%
X119888000Y-83820000D03*
%TO.P,D2,2,A*%
%TO.N,/D*%
X119888000Y-76920000D03*
%TD*%
D12*
%TO.P,C1,1*%
%TO.N,+12V*%
X130030000Y-87884000D03*
%TO.P,C1,2*%
%TO.N,GND*%
X138430000Y-87884000D03*
%TD*%
D13*
%TO.P,M.2,1*%
%TO.N,GND*%
X102870000Y-53340000D03*
%TD*%
D14*
%TO.P,J4,1,Pin_1*%
%TO.N,+3.3V*%
X111760000Y-67310000D03*
%TO.P,J4,2,Pin_2*%
%TO.N,/SCL*%
X110260001Y-67310000D03*
%TO.P,J4,3,Pin_3*%
%TO.N,/SDA*%
X108759999Y-67310000D03*
%TO.P,J4,4,Pin_4*%
%TO.N,GND*%
X107259999Y-67310000D03*
%TD*%
D13*
%TO.P,M.2,1*%
%TO.N,GND*%
X200660000Y-109220000D03*
%TD*%
D15*
%TO.P,J7,1,Pin_1*%
%TO.N,Net-(J7-Pin_1)*%
X194564000Y-93472000D03*
%TO.P,J7,2,Pin_2*%
%TO.N,Net-(J7-Pin_2)*%
X194564000Y-97432000D03*
%TO.P,J7,3,Pin_3*%
%TO.N,Net-(J7-Pin_3)*%
X194564000Y-101391999D03*
%TO.P,J7,4,Pin_4*%
%TO.N,Net-(J7-Pin_4)*%
X194564000Y-105351999D03*
%TD*%
D16*
%TO.P,C5,1*%
%TO.N,+3.3V*%
X150406500Y-74676000D03*
%TO.P,C5,2*%
%TO.N,GND*%
X147281500Y-74676000D03*
%TD*%
D17*
%TO.P,R4,1*%
%TO.N,Net-(J9-QI)*%
X131090000Y-76200000D03*
%TO.P,R4,2*%
%TO.N,/G*%
X127990000Y-76200000D03*
%TD*%
D18*
%TO.P,C6,2*%
%TO.N,GND*%
X146144000Y-67564000D03*
%TO.P,C6,1*%
%TO.N,+3.3V*%
X151544000Y-67564000D03*
%TD*%
D19*
%TO.P,R2,1*%
%TO.N,+3.3V*%
X122428000Y-60807000D03*
%TO.P,R2,2*%
%TO.N,/SCL*%
X122428000Y-63907000D03*
%TD*%
D20*
%TO.P,U1,1,EN*%
%TO.N,GND*%
X171196000Y-89916000D03*
D21*
%TO.P,U1,2,MS1*%
%TO.N,Net-(J9-MS1)*%
X171196000Y-92456000D03*
%TO.P,U1,3,MS2*%
%TO.N,Net-(J9-MS2)*%
X171196000Y-94996000D03*
%TO.P,U1,4,MS3*%
%TO.N,Net-(J9-MS3)*%
X171196000Y-97536000D03*
%TO.P,U1,5,RST*%
%TO.N,+3.3V*%
X171196000Y-100076000D03*
%TO.P,U1,6,SLP*%
X171196000Y-102616000D03*
%TO.P,U1,7,STEP*%
%TO.N,Net-(J9-STEP)*%
X171196000Y-105156000D03*
%TO.P,U1,8,DIR*%
%TO.N,Net-(J9-DIR)*%
X171196000Y-107696000D03*
%TO.P,U1,9,GND*%
%TO.N,GND*%
X183896000Y-107696000D03*
%TO.P,U1,10,FAULT*%
%TO.N,unconnected-(U1-FAULT-Pad10)*%
X183896000Y-105156000D03*
%TO.P,U1,11,A2*%
%TO.N,Net-(J7-Pin_4)*%
X183896000Y-102616000D03*
%TO.P,U1,12,A1*%
%TO.N,Net-(J7-Pin_3)*%
X183896000Y-100076000D03*
%TO.P,U1,13,B1*%
%TO.N,Net-(J7-Pin_2)*%
X183896000Y-97536000D03*
%TO.P,U1,14,B2*%
%TO.N,Net-(J7-Pin_1)*%
X183896000Y-94996000D03*
%TO.P,U1,15,GND*%
%TO.N,GND*%
X183896000Y-92456000D03*
%TO.P,U1,16,VMOT*%
%TO.N,+12V*%
X183896000Y-89916000D03*
%TD*%
D13*
%TO.P,M.2,1*%
%TO.N,GND*%
X102870000Y-109220000D03*
%TD*%
D19*
%TO.P,R3,1*%
%TO.N,+3.3V*%
X117856000Y-60934000D03*
%TO.P,R3,2*%
%TO.N,/SDA*%
X117856000Y-64034000D03*
%TD*%
D22*
%TO.P,J5,1,pin_1*%
%TO.N,Net-(J5-pin_1)*%
X146812000Y-100584000D03*
D23*
%TO.P,J5,2,Pin_2*%
%TO.N,GND*%
X146812000Y-103124000D03*
%TD*%
D24*
%TO.P,R1,1*%
%TO.N,+12V*%
X146812000Y-88900000D03*
%TO.P,R1,2*%
%TO.N,Net-(J5-pin_1)*%
X146812000Y-95000000D03*
%TD*%
D15*
%TO.P,J8,1,Pin_1*%
%TO.N,Net-(J8-Pin_1)*%
X194303900Y-56736901D03*
%TO.P,J8,2,Pin_2*%
%TO.N,GND*%
X194303900Y-60696901D03*
%TO.P,J8,3,Pin_3*%
%TO.N,Net-(J8-Pin_3)*%
X194303900Y-64656900D03*
%TO.P,J8,4,Pin_4*%
%TO.N,Net-(J8-Pin_4)*%
X194303900Y-68616900D03*
%TO.P,J8,5,Pin_5*%
%TO.N,+3.3V*%
X194303900Y-72576900D03*
%TO.P,J8,6,Pin_6*%
%TO.N,Net-(J8-Pin_6)*%
X194303900Y-76536900D03*
%TD*%
D25*
%TO.P,F1,1*%
%TO.N,Net-(J6-VCC)*%
X120650000Y-95250000D03*
%TO.P,F1,2*%
%TO.N,+12V*%
X119450000Y-100350000D03*
%TD*%
D26*
%TO.P,J1,1,VCC*%
%TO.N,+12V*%
X109220000Y-80772000D03*
%TO.P,J1,2,GND*%
%TO.N,/D*%
X109220000Y-76809600D03*
%TD*%
D18*
%TO.P,C3,1*%
%TO.N,+12V*%
X168435000Y-75565000D03*
%TO.P,C3,2*%
%TO.N,GND*%
X163035000Y-75565000D03*
%TD*%
D27*
%TO.P,J3,1,COM*%
%TO.N,Net-(J3-COM)*%
X128420998Y-62484000D03*
%TO.P,J3,2,GND*%
%TO.N,GND*%
X129921000Y-62484000D03*
%TD*%
D13*
%TO.P,M.2,1*%
%TO.N,GND*%
X200660000Y-53340000D03*
%TD*%
D28*
%TO.P,J6,1,VCC*%
%TO.N,Net-(J6-VCC)*%
X109220000Y-95250000D03*
%TO.P,J6,2,GND*%
%TO.N,GND*%
X109220000Y-100250000D03*
%TD*%
D29*
%TO.P,J9,1,3.3V*%
%TO.N,+3.3V*%
X139160000Y-60930000D03*
D30*
%TO.P,J9,2,GND*%
%TO.N,GND*%
X137160000Y-60930000D03*
%TO.P,J9,3,STEP*%
%TO.N,Net-(J9-STEP)*%
X139160000Y-62930000D03*
%TO.P,J9,4,DIR*%
%TO.N,Net-(J9-DIR)*%
X137160000Y-62930000D03*
%TO.P,J9,5,MS3*%
%TO.N,Net-(J9-MS3)*%
X139160000Y-64930000D03*
%TO.P,J9,6,MS2*%
%TO.N,Net-(J9-MS2)*%
X137160000Y-64930000D03*
%TO.P,J9,7,MS1*%
%TO.N,Net-(J9-MS1)*%
X139160000Y-66930000D03*
%TO.P,J9,8,PWMA*%
%TO.N,Net-(J9-PWMA)*%
X137160000Y-66930000D03*
%TO.P,J9,9,AIN1*%
%TO.N,Net-(J9-AIN1)*%
X139160000Y-68930000D03*
%TO.P,J9,10,AIN2*%
%TO.N,Net-(J9-AIN2)*%
X137160000Y-68930000D03*
%TO.P,J9,11,HAL2*%
%TO.N,Net-(J8-Pin_4)*%
X139160000Y-70930000D03*
%TO.P,J9,12,HAL1*%
%TO.N,Net-(J8-Pin_3)*%
X137160000Y-70930000D03*
%TO.P,J9,13,END*%
%TO.N,Net-(J3-COM)*%
X139160000Y-72930000D03*
%TO.P,J9,14,QI*%
%TO.N,Net-(J9-QI)*%
X137160000Y-72930000D03*
%TO.P,J9,15,SDA*%
%TO.N,/SDA*%
X139160000Y-74930000D03*
%TO.P,J9,16,SCL*%
%TO.N,/SCL*%
X137160000Y-74930000D03*
%TD*%
D31*
%TO.P,C4,2*%
%TO.N,GND*%
X174917500Y-74295000D03*
%TO.P,C4,1*%
%TO.N,+12V*%
X171792500Y-74295000D03*
%TD*%
D12*
%TO.P,C2,1*%
%TO.N,+12V*%
X176784000Y-81788000D03*
%TO.P,C2,2*%
%TO.N,GND*%
X185184000Y-81788000D03*
%TD*%
D14*
%TO.P,J2,1,Pin_1*%
%TO.N,+3.3V*%
X111760000Y-58420000D03*
%TO.P,J2,2,Pin_2*%
%TO.N,/SCL*%
X110260001Y-58420000D03*
%TO.P,J2,3,Pin_3*%
%TO.N,/SDA*%
X108759999Y-58420000D03*
%TO.P,J2,4,Pin_4*%
%TO.N,GND*%
X107259999Y-58420000D03*
%TD*%
D32*
%TO.P,Q1,1,G*%
%TO.N,/G*%
X123952000Y-71120000D03*
D33*
%TO.P,Q1,2,D*%
%TO.N,/D*%
X121412000Y-71120000D03*
%TO.P,Q1,3,S*%
%TO.N,GND*%
X118872000Y-71120000D03*
%TD*%
D20*
%TO.P,U2,1,GND*%
%TO.N,GND*%
X155956000Y-69596000D03*
D21*
%TO.P,U2,2,VCC*%
%TO.N,+3.3V*%
X158496000Y-69596000D03*
%TO.P,U2,3,AO1*%
%TO.N,Net-(J8-Pin_6)*%
X161036000Y-69596000D03*
%TO.P,U2,4,AO2*%
%TO.N,Net-(J8-Pin_1)*%
X163576000Y-69596000D03*
%TO.P,U2,5,BO2*%
%TO.N,unconnected-(U2-BO2-Pad5)*%
X166116000Y-69596000D03*
%TO.P,U2,6,BO1*%
%TO.N,unconnected-(U2-BO1-Pad6)*%
X168656000Y-69596000D03*
%TO.P,U2,7,VMOT*%
%TO.N,+12V*%
X171196000Y-69596000D03*
%TO.P,U2,8,GND*%
%TO.N,GND*%
X173736000Y-69596000D03*
%TO.P,U2,9,GND*%
X173736000Y-56896000D03*
%TO.P,U2,10,PWMB*%
%TO.N,unconnected-(U2-PWMB-Pad10)*%
X171196000Y-56896000D03*
%TO.P,U2,11,BIN2*%
%TO.N,unconnected-(U2-BIN2-Pad11)*%
X168656000Y-56896000D03*
%TO.P,U2,12,BIN1*%
%TO.N,unconnected-(U2-BIN1-Pad12)*%
X166116000Y-56896000D03*
%TO.P,U2,13,nSTBY*%
%TO.N,+3.3V*%
X163576000Y-56896000D03*
%TO.P,U2,14,AIN1*%
%TO.N,Net-(J9-AIN1)*%
X161036000Y-56896000D03*
%TO.P,U2,15,AIN2*%
%TO.N,Net-(J9-AIN2)*%
X158496000Y-56896000D03*
%TO.P,U2,16,PWMA*%
%TO.N,Net-(J9-PWMA)*%
X155956000Y-56896000D03*
%TD*%
D34*
%TO.N,GND*%
X140970000Y-99060000D03*
X143256000Y-87884000D03*
X162560000Y-85725000D03*
X189230000Y-81788000D03*
X139700000Y-78105000D03*
X158750000Y-75565000D03*
X161925000Y-88900000D03*
X153035000Y-92710000D03*
X145415000Y-75565000D03*
X157480000Y-89916000D03*
%TO.N,+3.3V*%
X149225000Y-61595000D03*
X154453577Y-85725000D03*
%TO.N,Net-(J8-Pin_4)*%
X158115000Y-60325000D03*
%TD*%
D35*
%TO.N,+12V*%
X129794000Y-92202000D02*
X129794000Y-99060000D01*
X130048000Y-91948000D02*
X129794000Y-92202000D01*
X130048000Y-87902000D02*
X130048000Y-91948000D01*
X130030000Y-87884000D02*
X130048000Y-87902000D01*
X131572000Y-87884000D02*
X124460000Y-87884000D01*
D36*
X119888000Y-83820000D02*
X121920000Y-81788000D01*
X119888000Y-83820000D02*
X117856000Y-81788000D01*
X119888000Y-83820000D02*
X115824000Y-87884000D01*
X123952000Y-87884000D02*
X119888000Y-83820000D01*
X124460000Y-87884000D02*
X123952000Y-87884000D01*
D37*
%TO.N,/G*%
X123952000Y-72162000D02*
X123952000Y-71120000D01*
X123952000Y-71120000D02*
X124460000Y-71120000D01*
X127990000Y-76200000D02*
X123952000Y-72162000D01*
D38*
%TO.N,/D*%
X119888000Y-74676000D02*
X121412000Y-73152000D01*
X119635400Y-76809600D02*
X119888000Y-76557000D01*
X121412000Y-73152000D02*
X121412000Y-71120000D01*
X109220000Y-76809600D02*
X119635400Y-76809600D01*
X119888000Y-76557000D02*
X119888000Y-74676000D01*
D37*
%TO.N,/G*%
X128524000Y-76200000D02*
X127990000Y-76200000D01*
%TO.N,Net-(J9-QI)*%
X131598000Y-76708000D02*
X131090000Y-76200000D01*
X140085000Y-75815000D02*
X139192000Y-76708000D01*
X140085000Y-74546852D02*
X140085000Y-75815000D01*
X139192000Y-76708000D02*
X131598000Y-76708000D01*
X139452148Y-73914000D02*
X140085000Y-74546852D01*
X138144000Y-73914000D02*
X139452148Y-73914000D01*
X137160000Y-72930000D02*
X138144000Y-73914000D01*
%TO.N,+3.3V*%
X150406500Y-68701500D02*
X151544000Y-67564000D01*
X150406500Y-74676000D02*
X150406500Y-68701500D01*
X153416000Y-74676000D02*
X150406500Y-74676000D01*
X158496000Y-69596000D02*
X153416000Y-74676000D01*
%TO.N,GND*%
X146304000Y-74676000D02*
X145415000Y-75565000D01*
X147281500Y-74676000D02*
X146304000Y-74676000D01*
X147281500Y-68701500D02*
X147281500Y-74676000D01*
X146144000Y-67564000D02*
X147281500Y-68701500D01*
D39*
%TO.N,+12V*%
X127762000Y-101092000D02*
X129794000Y-99060000D01*
X125984000Y-101092000D02*
X127762000Y-101092000D01*
X125242000Y-100350000D02*
X125984000Y-101092000D01*
X119450000Y-100350000D02*
X125242000Y-100350000D01*
D35*
X130030000Y-84600000D02*
X130030000Y-87884000D01*
X132842000Y-81788000D02*
X130030000Y-84600000D01*
X130030000Y-87884000D02*
X133604000Y-87884000D01*
D40*
%TO.N,GND*%
X174917500Y-70777500D02*
X173736000Y-69596000D01*
X174917500Y-74295000D02*
X174917500Y-70777500D01*
D41*
%TO.N,+12V*%
X123952000Y-88392000D02*
X124460000Y-87884000D01*
X116332000Y-88392000D02*
X123952000Y-88392000D01*
X115824000Y-87884000D02*
X116332000Y-88392000D01*
D42*
%TO.N,GND*%
X138430000Y-87884000D02*
X143256000Y-87884000D01*
X136694000Y-99060000D02*
X140970000Y-99060000D01*
D41*
%TO.N,+12V*%
X143510000Y-81788000D02*
X146685000Y-81788000D01*
X143510000Y-81788000D02*
X132842000Y-81788000D01*
D43*
X171069000Y-75565000D02*
X168435000Y-75565000D01*
X171792500Y-76111500D02*
X171704000Y-76200000D01*
X171704000Y-76200000D02*
X171069000Y-75565000D01*
X171196000Y-71755000D02*
X171792500Y-72351500D01*
X171792500Y-72351500D02*
X171792500Y-76111500D01*
D41*
X111760000Y-83820000D02*
X115824000Y-87884000D01*
D37*
X111760000Y-83312000D02*
X111760000Y-83820000D01*
D36*
X109220000Y-80772000D02*
X107696000Y-79248000D01*
X109220000Y-80772000D02*
X107442000Y-82550000D01*
X109220000Y-80772000D02*
X110744000Y-79248000D01*
D43*
X182626000Y-89916000D02*
X183896000Y-89916000D01*
X176784000Y-84074000D02*
X182626000Y-89916000D01*
X176784000Y-81788000D02*
X176784000Y-84074000D01*
X168435000Y-75565000D02*
X168435000Y-78453000D01*
D42*
X168435000Y-78453000D02*
X168435000Y-81313000D01*
X168435000Y-81313000D02*
X168910000Y-81788000D01*
X168910000Y-81788000D02*
X171450000Y-81788000D01*
D43*
X176784000Y-81788000D02*
X171450000Y-81788000D01*
D41*
X146685000Y-81788000D02*
X171450000Y-81788000D01*
D36*
X109220000Y-80772000D02*
X111760000Y-83312000D01*
D37*
%TO.N,+3.3V*%
X156845000Y-85725000D02*
X171196000Y-100076000D01*
X154453577Y-85725000D02*
X156845000Y-85725000D01*
D44*
%TO.N,+12V*%
X171196000Y-69596000D02*
X171196000Y-71755000D01*
D43*
%TO.N,GND*%
X158750000Y-75565000D02*
X163035000Y-75565000D01*
D40*
%TO.N,+12V*%
X146812000Y-88900000D02*
X146812000Y-81915000D01*
D37*
X146812000Y-81915000D02*
X146685000Y-81788000D01*
D42*
%TO.N,GND*%
X185184000Y-81788000D02*
X189230000Y-81788000D01*
D43*
X145415000Y-75565000D02*
X142875000Y-78105000D01*
X162560000Y-88265000D02*
X162560000Y-85725000D01*
X155829000Y-89916000D02*
X157480000Y-89916000D01*
X153035000Y-92710000D02*
X155829000Y-89916000D01*
D37*
X129817998Y-62484000D02*
X129794000Y-62507998D01*
X183896000Y-92456000D02*
X173736000Y-92456000D01*
X173736000Y-92456000D02*
X171196000Y-89916000D01*
D43*
X142875000Y-78105000D02*
X139700000Y-78105000D01*
X161925000Y-88900000D02*
X162560000Y-88265000D01*
D37*
%TO.N,/D*%
X109880400Y-77470000D02*
X109220000Y-76809600D01*
%TO.N,/SDA*%
X119354000Y-65532000D02*
X117856000Y-64034000D01*
X114741600Y-68672400D02*
X110122399Y-68672400D01*
X116205000Y-67209000D02*
X114741600Y-68672400D01*
X138235000Y-75855000D02*
X135316158Y-75855000D01*
X124993158Y-65532000D02*
X119354000Y-65532000D01*
X135316158Y-75855000D02*
X124993158Y-65532000D01*
X116205000Y-65685000D02*
X116205000Y-67209000D01*
X110122399Y-68672400D02*
X108759999Y-67310000D01*
X139160000Y-74930000D02*
X138235000Y-75855000D01*
X117856000Y-64034000D02*
X116205000Y-65685000D01*
X108759999Y-67310000D02*
X108759999Y-58420000D01*
D44*
%TO.N,Net-(J7-Pin_1)*%
X189992000Y-93472000D02*
X188468000Y-94996000D01*
X194564000Y-93472000D02*
X189992000Y-93472000D01*
X188468000Y-94996000D02*
X183896000Y-94996000D01*
D37*
%TO.N,Net-(J7-Pin_2)*%
X184000000Y-97432000D02*
X183896000Y-97536000D01*
D44*
X194564000Y-97432000D02*
X184000000Y-97432000D01*
D37*
%TO.N,+3.3V*%
X111760000Y-67310000D02*
X111760000Y-60960000D01*
X158496000Y-69596000D02*
X158496000Y-61976000D01*
X111760000Y-58420000D02*
X115342000Y-58420000D01*
X149225000Y-65245000D02*
X149225000Y-61595000D01*
X170942000Y-64262000D02*
X163576000Y-56896000D01*
X134086000Y-60934000D02*
X134112000Y-60960000D01*
X151544000Y-67564000D02*
X149225000Y-65245000D01*
X158496000Y-61976000D02*
X163576000Y-56896000D01*
X171196000Y-102616000D02*
X171196000Y-100076000D01*
X185989000Y-64262000D02*
X170942000Y-64262000D01*
X194303900Y-72576900D02*
X185989000Y-64262000D01*
X117856000Y-60934000D02*
X134086000Y-60934000D01*
X111760000Y-60960000D02*
X111760000Y-58420000D01*
X134112000Y-60960000D02*
X135636000Y-59436000D01*
X137666000Y-59436000D02*
X139160000Y-60930000D01*
X115342000Y-58420000D02*
X117856000Y-60934000D01*
X135636000Y-59436000D02*
X137666000Y-59436000D01*
D44*
%TO.N,Net-(J7-Pin_3)*%
X188468000Y-100076000D02*
X189783999Y-101391999D01*
X189783999Y-101391999D02*
X194564000Y-101391999D01*
X183896000Y-100076000D02*
X188468000Y-100076000D01*
%TO.N,Net-(J7-Pin_4)*%
X187960000Y-102616000D02*
X183896000Y-102616000D01*
X190695999Y-105351999D02*
X187960000Y-102616000D01*
X194564000Y-105351999D02*
X190695999Y-105351999D01*
D37*
%TO.N,/SCL*%
X122428000Y-63907000D02*
X126137000Y-63907000D01*
X126137000Y-63907000D02*
X137160000Y-74930000D01*
X110260001Y-67310000D02*
X111245401Y-68295400D01*
X116713000Y-62357000D02*
X120878000Y-62357000D01*
X111245401Y-68295400D02*
X112168167Y-68295400D01*
X110260001Y-67310000D02*
X110260001Y-58420000D01*
X112168167Y-68295400D02*
X112745400Y-67718167D01*
X120878000Y-62357000D02*
X122428000Y-63907000D01*
X112745400Y-67718167D02*
X112745400Y-66324600D01*
X112745400Y-66324600D02*
X116713000Y-62357000D01*
%TO.N,Net-(J8-Pin_3)*%
X148213000Y-59432000D02*
X160278000Y-59432000D01*
X139543148Y-69855000D02*
X141089000Y-68309148D01*
X162451000Y-57259000D02*
X162451000Y-56430009D01*
X160278000Y-59432000D02*
X162451000Y-57259000D01*
X138240000Y-69850000D02*
X138771852Y-69850000D01*
X137160000Y-70930000D02*
X138240000Y-69850000D01*
X141089000Y-68309148D02*
X141089000Y-66556000D01*
X162451000Y-56430009D02*
X163110009Y-55771000D01*
X141089000Y-66556000D02*
X148213000Y-59432000D01*
X138776852Y-69855000D02*
X139543148Y-69855000D01*
X138771852Y-69850000D02*
X138776852Y-69855000D01*
X163110009Y-55771000D02*
X185418000Y-55771000D01*
X185418000Y-55771000D02*
X194303900Y-64656900D01*
%TO.N,Net-(J8-Pin_4)*%
X139255000Y-70930000D02*
X141605000Y-68580000D01*
X139160000Y-70930000D02*
X139255000Y-70930000D01*
X147955000Y-60325000D02*
X158115000Y-60325000D01*
X141605000Y-66675000D02*
X147955000Y-60325000D01*
X141605000Y-68580000D02*
X141605000Y-66675000D01*
D44*
%TO.N,Net-(J8-Pin_6)*%
X194011900Y-76536900D02*
X184785000Y-67310000D01*
X184785000Y-67310000D02*
X163322000Y-67310000D01*
X163322000Y-67310000D02*
X161036000Y-69596000D01*
D40*
X194303900Y-76536900D02*
X194011900Y-76536900D01*
D37*
%TO.N,Net-(J3-COM)*%
X138235000Y-72005000D02*
X136776852Y-72005000D01*
X139160000Y-72930000D02*
X138235000Y-72005000D01*
X136776852Y-72005000D02*
X128420998Y-63649146D01*
X128420998Y-63649146D02*
X128420998Y-62484000D01*
%TO.N,Net-(J9-PWMA)*%
X138235000Y-65855000D02*
X139885000Y-65855000D01*
X139885000Y-65855000D02*
X148844000Y-56896000D01*
X148844000Y-56896000D02*
X155956000Y-56896000D01*
X137160000Y-66930000D02*
X138235000Y-65855000D01*
%TO.N,Net-(J9-AIN1)*%
X140712000Y-66298000D02*
X147955000Y-59055000D01*
X158877000Y-59055000D02*
X161036000Y-56896000D01*
X139160000Y-68930000D02*
X139248158Y-68930000D01*
X147955000Y-59055000D02*
X158877000Y-59055000D01*
X139248158Y-68930000D02*
X140712000Y-67466158D01*
X140712000Y-67466158D02*
X140712000Y-66298000D01*
%TO.N,Net-(J9-AIN2)*%
X140335000Y-66040000D02*
X140335000Y-67310000D01*
X140335000Y-67310000D02*
X139640000Y-68005000D01*
X157244000Y-58021000D02*
X148354000Y-58021000D01*
X158496000Y-56896000D02*
X158369000Y-56896000D01*
X138085000Y-68005000D02*
X137160000Y-68930000D01*
X158369000Y-56896000D02*
X157244000Y-58021000D01*
X139640000Y-68005000D02*
X138085000Y-68005000D01*
X148354000Y-58021000D02*
X140335000Y-66040000D01*
D43*
%TO.N,Net-(J5-pin_1)*%
X146812000Y-95000000D02*
X146812000Y-100584000D01*
%TD*%
%TA.AperFunction,Conductor*%
%TO.N,+12V*%
G36*
X184404149Y-68229454D02*
G01*
X184484931Y-68283430D01*
X191062070Y-74860569D01*
X191116046Y-74941351D01*
X191135000Y-75036639D01*
X191135000Y-81223701D01*
X191116046Y-81318989D01*
X191062070Y-81399771D01*
X190981288Y-81453747D01*
X190886000Y-81472701D01*
X190790712Y-81453747D01*
X190709930Y-81399771D01*
X190655954Y-81318989D01*
X190650492Y-81304552D01*
X190608827Y-81183188D01*
X190520432Y-81019849D01*
X190490474Y-80964491D01*
X190490471Y-80964487D01*
X190490470Y-80964485D01*
X190337742Y-80768261D01*
X190337741Y-80768260D01*
X190337738Y-80768256D01*
X190337733Y-80768252D01*
X190337730Y-80768248D01*
X190154785Y-80599836D01*
X190154778Y-80599830D01*
X189954341Y-80468880D01*
X189946607Y-80463827D01*
X189946604Y-80463825D01*
X189946603Y-80463825D01*
X189847037Y-80420151D01*
X189718881Y-80363937D01*
X189718879Y-80363936D01*
X189718878Y-80363936D01*
X189718874Y-80363935D01*
X189477831Y-80302894D01*
X189477812Y-80302890D01*
X189292089Y-80287500D01*
X189292067Y-80287500D01*
X187798007Y-80287500D01*
X187702719Y-80268546D01*
X187621940Y-80214572D01*
X187602656Y-80195288D01*
X187453334Y-80103186D01*
X187453332Y-80103185D01*
X187453330Y-80103184D01*
X187453332Y-80103184D01*
X187286802Y-80048002D01*
X187286798Y-80048001D01*
X187286797Y-80048001D01*
X187184009Y-80037500D01*
X187184005Y-80037500D01*
X183183993Y-80037500D01*
X183081199Y-80048001D01*
X182914667Y-80103185D01*
X182765346Y-80195286D01*
X182641286Y-80319346D01*
X182549184Y-80468668D01*
X182494002Y-80635197D01*
X182494001Y-80635204D01*
X182483500Y-80737988D01*
X182483500Y-82838006D01*
X182494001Y-82940800D01*
X182549115Y-83107120D01*
X182549186Y-83107334D01*
X182641288Y-83256656D01*
X182765344Y-83380712D01*
X182914666Y-83472814D01*
X182914669Y-83472815D01*
X182914667Y-83472815D01*
X183078310Y-83527040D01*
X183081203Y-83527999D01*
X183183991Y-83538500D01*
X187184008Y-83538499D01*
X187286797Y-83527999D01*
X187453334Y-83472814D01*
X187602656Y-83380712D01*
X187621940Y-83361427D01*
X187702719Y-83307454D01*
X187798007Y-83288500D01*
X189292066Y-83288500D01*
X189292067Y-83288500D01*
X189292068Y-83288499D01*
X189292089Y-83288499D01*
X189477812Y-83273109D01*
X189477813Y-83273108D01*
X189477821Y-83273108D01*
X189718881Y-83212063D01*
X189946607Y-83112173D01*
X190104690Y-83008892D01*
X190154778Y-82976169D01*
X190154780Y-82976167D01*
X190154785Y-82976164D01*
X190337738Y-82807744D01*
X190490474Y-82611509D01*
X190608828Y-82392810D01*
X190650492Y-82271446D01*
X190699359Y-82187477D01*
X190776640Y-82128598D01*
X190870571Y-82103776D01*
X190966851Y-82116790D01*
X191050821Y-82165657D01*
X191109700Y-82242938D01*
X191134522Y-82336869D01*
X191135000Y-82352298D01*
X191135000Y-90556000D01*
X191116046Y-90651288D01*
X191062070Y-90732070D01*
X190981288Y-90786046D01*
X190886000Y-90805000D01*
X185306698Y-90805000D01*
X185211410Y-90786046D01*
X185130628Y-90732070D01*
X185076652Y-90651288D01*
X185061870Y-90576978D01*
X185038951Y-90541000D01*
X182753049Y-90541000D01*
X182728856Y-90578975D01*
X182719288Y-90641157D01*
X182668889Y-90724217D01*
X182590540Y-90781668D01*
X182496170Y-90804763D01*
X182485302Y-90805000D01*
X173072731Y-90805000D01*
X172977443Y-90786046D01*
X172896661Y-90732070D01*
X172569429Y-90404838D01*
X172515453Y-90324056D01*
X172496499Y-90228768D01*
X172496499Y-89916000D01*
X183491014Y-89916000D01*
X183510835Y-90041148D01*
X183568359Y-90154045D01*
X183657955Y-90243641D01*
X183770852Y-90301165D01*
X183864519Y-90316000D01*
X183927481Y-90316000D01*
X184021148Y-90301165D01*
X184134045Y-90243641D01*
X184223641Y-90154045D01*
X184281165Y-90041148D01*
X184300986Y-89916000D01*
X184281165Y-89790852D01*
X184223641Y-89677955D01*
X184134045Y-89588359D01*
X184021148Y-89530835D01*
X183927481Y-89516000D01*
X183864519Y-89516000D01*
X183770852Y-89530835D01*
X183657955Y-89588359D01*
X183568359Y-89677955D01*
X183510835Y-89790852D01*
X183491014Y-89916000D01*
X172496499Y-89916000D01*
X172496499Y-89291000D01*
X182753049Y-89291000D01*
X183270999Y-89291000D01*
X183271000Y-89290999D01*
X183271000Y-88773050D01*
X184521000Y-88773050D01*
X184521000Y-89290999D01*
X184521001Y-89291000D01*
X185038950Y-89291000D01*
X185026134Y-89263517D01*
X184895662Y-89077185D01*
X184734814Y-88916337D01*
X184548482Y-88785865D01*
X184521000Y-88773050D01*
X183271000Y-88773050D01*
X183243517Y-88785865D01*
X183057185Y-88916337D01*
X182896337Y-89077185D01*
X182765865Y-89263517D01*
X182753049Y-89291000D01*
X172496499Y-89291000D01*
X172496499Y-89068134D01*
X172496499Y-89068128D01*
X172490091Y-89008517D01*
X172439796Y-88873669D01*
X172353546Y-88758454D01*
X172238331Y-88672204D01*
X172146757Y-88638049D01*
X172103481Y-88621908D01*
X172043873Y-88615500D01*
X170348134Y-88615500D01*
X170348130Y-88615500D01*
X170348128Y-88615501D01*
X170335314Y-88616878D01*
X170288519Y-88621908D01*
X170288515Y-88621909D01*
X170153670Y-88672203D01*
X170038455Y-88758453D01*
X170038453Y-88758455D01*
X169952204Y-88873669D01*
X169901908Y-89008518D01*
X169897319Y-89051205D01*
X169895500Y-89068127D01*
X169895500Y-89902757D01*
X169895501Y-90556000D01*
X169876547Y-90651288D01*
X169822571Y-90732069D01*
X169741789Y-90786046D01*
X169646501Y-90805000D01*
X164079000Y-90805000D01*
X163983712Y-90786046D01*
X163902930Y-90732070D01*
X163848954Y-90651288D01*
X163830000Y-90556000D01*
X163830000Y-84709001D01*
X163830000Y-84709000D01*
X163829999Y-84709000D01*
X153924001Y-84709000D01*
X153924000Y-84709000D01*
X151765000Y-86868000D01*
X151765000Y-86868001D01*
X151765000Y-106431000D01*
X151746046Y-106526288D01*
X151692070Y-106607070D01*
X151611288Y-106661046D01*
X151516000Y-106680000D01*
X103119000Y-106680000D01*
X103023712Y-106661046D01*
X102942930Y-106607070D01*
X102888954Y-106526288D01*
X102870000Y-106431000D01*
X102870000Y-101760760D01*
X118923122Y-101760760D01*
X118983483Y-101785763D01*
X118983491Y-101785766D01*
X119213840Y-101841068D01*
X119449994Y-101859654D01*
X119450006Y-101859654D01*
X119686159Y-101841068D01*
X119916506Y-101785766D01*
X119976876Y-101760760D01*
X119449999Y-101233883D01*
X118923122Y-101760759D01*
X118923122Y-101760760D01*
X102870000Y-101760760D01*
X102870000Y-100250000D01*
X108079635Y-100250000D01*
X108099051Y-100459537D01*
X108099051Y-100459539D01*
X108099052Y-100459542D01*
X108155935Y-100659466D01*
X108156642Y-100661949D01*
X108250443Y-100850327D01*
X108250445Y-100850330D01*
X108377255Y-101018253D01*
X108377261Y-101018260D01*
X108532775Y-101160030D01*
X108535847Y-101161932D01*
X108711696Y-101270813D01*
X108907924Y-101346832D01*
X109026127Y-101368928D01*
X109114777Y-101385500D01*
X109114780Y-101385500D01*
X109325223Y-101385500D01*
X109402791Y-101370999D01*
X109532076Y-101346832D01*
X109728304Y-101270813D01*
X109907223Y-101160031D01*
X109987382Y-101086957D01*
X128650926Y-101086957D01*
X128824897Y-101161455D01*
X129034820Y-101207122D01*
X129034837Y-101207125D01*
X129083090Y-101210000D01*
X130504910Y-101210000D01*
X130553162Y-101207125D01*
X130553180Y-101207122D01*
X130763103Y-101161455D01*
X130763104Y-101161455D01*
X130937073Y-101086957D01*
X130021072Y-100170956D01*
X134943500Y-100170956D01*
X134946376Y-100219230D01*
X134992065Y-100429257D01*
X134992067Y-100429264D01*
X135076678Y-100626845D01*
X135076682Y-100626854D01*
X135105840Y-100669934D01*
X135197157Y-100804855D01*
X135349145Y-100956843D01*
X135410092Y-100998092D01*
X135527145Y-101077317D01*
X135527148Y-101077318D01*
X135527152Y-101077321D01*
X135645836Y-101128144D01*
X135724735Y-101161932D01*
X135724738Y-101161933D01*
X135724741Y-101161934D01*
X135874431Y-101194497D01*
X135929919Y-101206568D01*
X135934769Y-101207623D01*
X135934774Y-101207624D01*
X135962486Y-101209274D01*
X135983044Y-101210500D01*
X135983052Y-101210500D01*
X137404956Y-101210500D01*
X137423534Y-101209392D01*
X137453226Y-101207624D01*
X137663259Y-101161934D01*
X137860848Y-101077321D01*
X138038855Y-100956843D01*
X138190843Y-100804855D01*
X138282161Y-100669931D01*
X138351266Y-100601645D01*
X138441245Y-100565000D01*
X138488369Y-100560500D01*
X141032066Y-100560500D01*
X141032067Y-100560500D01*
X141032068Y-100560499D01*
X141032089Y-100560499D01*
X141217812Y-100545109D01*
X141217813Y-100545108D01*
X141217821Y-100545108D01*
X141458881Y-100484063D01*
X141686607Y-100384173D01*
X141891975Y-100250000D01*
X141894778Y-100248169D01*
X141894780Y-100248167D01*
X141894785Y-100248164D01*
X142077738Y-100079744D01*
X142230474Y-99883509D01*
X142348828Y-99664810D01*
X142408267Y-99491670D01*
X142429569Y-99429621D01*
X142429569Y-99429618D01*
X142429571Y-99429614D01*
X142470500Y-99184335D01*
X142470500Y-98935665D01*
X142429571Y-98690386D01*
X142429569Y-98690382D01*
X142429569Y-98690378D01*
X142348827Y-98455188D01*
X142337159Y-98433627D01*
X142230474Y-98236491D01*
X142230471Y-98236487D01*
X142230470Y-98236485D01*
X142077742Y-98040261D01*
X142077741Y-98040260D01*
X142077738Y-98040256D01*
X142077733Y-98040252D01*
X142077730Y-98040248D01*
X141894785Y-97871836D01*
X141894778Y-97871830D01*
X141727302Y-97762414D01*
X141686607Y-97735827D01*
X141686604Y-97735825D01*
X141686603Y-97735825D01*
X141583808Y-97690735D01*
X141458881Y-97635937D01*
X141458879Y-97635936D01*
X141458878Y-97635936D01*
X141458874Y-97635935D01*
X141217831Y-97574894D01*
X141217812Y-97574890D01*
X141032089Y-97559500D01*
X141032067Y-97559500D01*
X138488369Y-97559500D01*
X138393081Y-97540546D01*
X138312299Y-97486570D01*
X138282162Y-97450070D01*
X138190843Y-97315145D01*
X138038855Y-97163157D01*
X138022662Y-97152197D01*
X137860854Y-97042682D01*
X137860849Y-97042679D01*
X137860848Y-97042679D01*
X137821395Y-97025784D01*
X137663264Y-96958067D01*
X137663257Y-96958065D01*
X137453230Y-96912376D01*
X137453231Y-96912376D01*
X137404956Y-96909500D01*
X137404948Y-96909500D01*
X135983052Y-96909500D01*
X135983044Y-96909500D01*
X135934769Y-96912376D01*
X135724742Y-96958065D01*
X135724735Y-96958067D01*
X135527154Y-97042678D01*
X135527145Y-97042682D01*
X135349150Y-97163153D01*
X135349148Y-97163154D01*
X135197154Y-97315148D01*
X135197153Y-97315150D01*
X135076682Y-97493145D01*
X135076678Y-97493154D01*
X134992067Y-97690735D01*
X134992065Y-97690742D01*
X134946376Y-97900769D01*
X134943500Y-97949043D01*
X134943500Y-100170956D01*
X130021072Y-100170956D01*
X129793999Y-99943883D01*
X128650926Y-101086957D01*
X109987382Y-101086957D01*
X110062740Y-101018259D01*
X110189558Y-100850325D01*
X110283359Y-100661947D01*
X110340948Y-100459542D01*
X110351098Y-100350005D01*
X117940346Y-100350005D01*
X117958931Y-100586157D01*
X118014235Y-100816513D01*
X118039238Y-100876877D01*
X118493508Y-100422608D01*
X118945000Y-100422608D01*
X118985912Y-100561942D01*
X119064422Y-100684105D01*
X119174169Y-100779202D01*
X119306262Y-100839527D01*
X119413881Y-100855000D01*
X119486119Y-100855000D01*
X119593738Y-100839527D01*
X119725831Y-100779202D01*
X119835578Y-100684105D01*
X119914088Y-100561942D01*
X119955000Y-100422608D01*
X119955000Y-100349999D01*
X120333883Y-100349999D01*
X120860760Y-100876876D01*
X120885766Y-100816506D01*
X120941068Y-100586159D01*
X120959654Y-100350005D01*
X120959654Y-100349994D01*
X120941068Y-100113840D01*
X120885766Y-99883491D01*
X120885763Y-99883483D01*
X120860760Y-99823122D01*
X120860759Y-99823122D01*
X120333883Y-100349999D01*
X119955000Y-100349999D01*
X119955000Y-100277392D01*
X119914088Y-100138058D01*
X119835578Y-100015895D01*
X119725831Y-99920798D01*
X119593738Y-99860473D01*
X119486119Y-99845000D01*
X119413881Y-99845000D01*
X119306262Y-99860473D01*
X119174169Y-99920798D01*
X119064422Y-100015895D01*
X118985912Y-100138058D01*
X118945000Y-100277392D01*
X118945000Y-100422608D01*
X118493508Y-100422608D01*
X118566116Y-100350000D01*
X118039239Y-99823123D01*
X118014234Y-99883492D01*
X117958931Y-100113842D01*
X117940346Y-100349994D01*
X117940346Y-100350005D01*
X110351098Y-100350005D01*
X110360365Y-100250000D01*
X110340948Y-100040458D01*
X110283359Y-99838053D01*
X110189558Y-99649675D01*
X110189556Y-99649672D01*
X110189554Y-99649669D01*
X110062744Y-99481746D01*
X110062738Y-99481739D01*
X109907224Y-99339969D01*
X109728309Y-99229190D01*
X109728302Y-99229186D01*
X109684675Y-99212285D01*
X109532076Y-99153168D01*
X109532071Y-99153167D01*
X109325223Y-99114500D01*
X109325220Y-99114500D01*
X109114780Y-99114500D01*
X109114777Y-99114500D01*
X108907928Y-99153167D01*
X108907926Y-99153167D01*
X108907924Y-99153168D01*
X108834308Y-99181687D01*
X108711697Y-99229186D01*
X108711690Y-99229190D01*
X108532775Y-99339969D01*
X108377261Y-99481739D01*
X108377255Y-99481746D01*
X108250445Y-99649669D01*
X108250443Y-99649672D01*
X108164076Y-99823122D01*
X108156641Y-99838053D01*
X108153439Y-99849308D01*
X108099051Y-100040462D01*
X108079635Y-100250000D01*
X102870000Y-100250000D01*
X102870000Y-98939239D01*
X118923123Y-98939239D01*
X119450000Y-99466116D01*
X119976877Y-98939238D01*
X119916513Y-98914235D01*
X119686157Y-98858931D01*
X119450006Y-98840346D01*
X119449994Y-98840346D01*
X119213842Y-98858931D01*
X118983492Y-98914234D01*
X118923123Y-98939239D01*
X102870000Y-98939239D01*
X102870000Y-98193883D01*
X128044000Y-98193883D01*
X128044000Y-99926116D01*
X128910116Y-99060000D01*
X130677883Y-99060000D01*
X131543999Y-99926116D01*
X131544000Y-99926116D01*
X131544000Y-98193883D01*
X131543999Y-98193883D01*
X130677883Y-99060000D01*
X128910116Y-99060000D01*
X128044000Y-98193883D01*
X102870000Y-98193883D01*
X102870000Y-97033041D01*
X128650925Y-97033041D01*
X129793999Y-98176115D01*
X130937073Y-97033041D01*
X130763107Y-96958546D01*
X130763102Y-96958544D01*
X130553179Y-96912877D01*
X130553162Y-96912874D01*
X130504910Y-96910000D01*
X129083090Y-96910000D01*
X129034837Y-96912874D01*
X129034820Y-96912877D01*
X128824898Y-96958544D01*
X128824890Y-96958546D01*
X128650925Y-97033041D01*
X102870000Y-97033041D01*
X102870000Y-95250000D01*
X108079635Y-95250000D01*
X108099051Y-95459537D01*
X108099051Y-95459539D01*
X108099052Y-95459542D01*
X108153078Y-95649425D01*
X108156642Y-95661949D01*
X108250443Y-95850327D01*
X108250445Y-95850330D01*
X108377255Y-96018253D01*
X108377261Y-96018260D01*
X108532775Y-96160030D01*
X108532777Y-96160031D01*
X108711696Y-96270813D01*
X108907924Y-96346832D01*
X109026127Y-96368928D01*
X109114777Y-96385500D01*
X109114780Y-96385500D01*
X109325223Y-96385500D01*
X109402791Y-96370999D01*
X109532076Y-96346832D01*
X109728304Y-96270813D01*
X109907223Y-96160031D01*
X110062740Y-96018259D01*
X110189558Y-95850325D01*
X110283359Y-95661947D01*
X110340948Y-95459542D01*
X110360365Y-95250005D01*
X119139845Y-95250005D01*
X119158436Y-95486228D01*
X119158439Y-95486245D01*
X119197614Y-95649425D01*
X119213757Y-95716664D01*
X119304442Y-95935596D01*
X119428259Y-96137647D01*
X119582159Y-96317841D01*
X119762353Y-96471741D01*
X119964404Y-96595558D01*
X120183336Y-96686243D01*
X120413760Y-96741562D01*
X120413769Y-96741562D01*
X120413771Y-96741563D01*
X120649995Y-96760155D01*
X120650000Y-96760155D01*
X120650005Y-96760155D01*
X120886228Y-96741563D01*
X120886228Y-96741562D01*
X120886240Y-96741562D01*
X121116664Y-96686243D01*
X121335596Y-96595558D01*
X121537647Y-96471741D01*
X121717841Y-96317841D01*
X121871741Y-96137647D01*
X121995558Y-95935596D01*
X122086243Y-95716664D01*
X122138256Y-95500012D01*
X144636500Y-95500012D01*
X144647001Y-95602796D01*
X144647003Y-95602806D01*
X144702182Y-95769327D01*
X144702185Y-95769335D01*
X144780622Y-95896500D01*
X144794288Y-95918656D01*
X144918344Y-96042712D01*
X144918346Y-96042713D01*
X145067664Y-96134814D01*
X145067672Y-96134817D01*
X145229973Y-96188597D01*
X145234202Y-96189999D01*
X145336990Y-96200500D01*
X145562500Y-96200500D01*
X145657788Y-96219454D01*
X145738570Y-96273430D01*
X145792546Y-96354212D01*
X145811500Y-96449500D01*
X145811500Y-99096819D01*
X145792546Y-99192107D01*
X145738570Y-99272889D01*
X145711722Y-99296152D01*
X145604459Y-99376449D01*
X145604453Y-99376455D01*
X145518204Y-99491669D01*
X145467908Y-99626518D01*
X145461500Y-99686123D01*
X145461500Y-101481865D01*
X145461500Y-101481868D01*
X145461501Y-101481872D01*
X145461884Y-101485432D01*
X145467908Y-101541480D01*
X145467909Y-101541483D01*
X145518204Y-101676331D01*
X145604454Y-101791546D01*
X145719669Y-101877796D01*
X145719670Y-101877796D01*
X145733927Y-101888469D01*
X145731454Y-101891771D01*
X145779965Y-101932305D01*
X145825006Y-102018389D01*
X145833675Y-102115156D01*
X145804653Y-102207875D01*
X145776855Y-102248605D01*
X145773513Y-102252587D01*
X145637965Y-102446169D01*
X145637961Y-102446177D01*
X145538098Y-102660333D01*
X145538097Y-102660335D01*
X145476935Y-102888598D01*
X145456341Y-103123994D01*
X145456341Y-103124005D01*
X145476935Y-103359401D01*
X145538096Y-103587660D01*
X145637965Y-103801830D01*
X145696901Y-103886000D01*
X145773505Y-103995401D01*
X145940599Y-104162495D01*
X146134170Y-104298035D01*
X146348337Y-104397903D01*
X146576592Y-104459063D01*
X146576595Y-104459063D01*
X146576598Y-104459064D01*
X146811995Y-104479659D01*
X146812000Y-104479659D01*
X146812005Y-104479659D01*
X147047401Y-104459064D01*
X147047403Y-104459063D01*
X147047408Y-104459063D01*
X147275663Y-104397903D01*
X147489830Y-104298035D01*
X147683401Y-104162495D01*
X147850495Y-103995401D01*
X147986035Y-103801830D01*
X148085903Y-103587663D01*
X148147063Y-103359408D01*
X148147064Y-103359401D01*
X148167659Y-103124005D01*
X148167659Y-103123994D01*
X148147064Y-102888598D01*
X148147063Y-102888595D01*
X148147063Y-102888592D01*
X148085903Y-102660337D01*
X147986035Y-102446171D01*
X147850495Y-102252599D01*
X147850492Y-102252596D01*
X147847151Y-102248614D01*
X147845150Y-102244966D01*
X147844259Y-102243694D01*
X147844398Y-102243596D01*
X147800423Y-102163434D01*
X147789848Y-102066857D01*
X147817037Y-101973584D01*
X147877850Y-101897815D01*
X147890571Y-101889135D01*
X147890073Y-101888469D01*
X147904329Y-101877796D01*
X147904331Y-101877796D01*
X148019546Y-101791546D01*
X148105796Y-101676331D01*
X148156091Y-101541483D01*
X148162500Y-101481873D01*
X148162499Y-99686128D01*
X148156091Y-99626517D01*
X148105796Y-99491669D01*
X148019546Y-99376454D01*
X148019542Y-99376451D01*
X148019540Y-99376449D01*
X147912278Y-99296152D01*
X147847355Y-99223874D01*
X147815034Y-99132253D01*
X147812500Y-99096819D01*
X147812500Y-96449500D01*
X147831454Y-96354212D01*
X147885430Y-96273430D01*
X147966212Y-96219454D01*
X148061500Y-96200500D01*
X148287001Y-96200500D01*
X148287010Y-96200500D01*
X148389798Y-96189999D01*
X148480238Y-96160030D01*
X148556327Y-96134817D01*
X148556335Y-96134814D01*
X148569704Y-96126568D01*
X148705656Y-96042712D01*
X148829712Y-95918656D01*
X148921814Y-95769335D01*
X148926438Y-95755383D01*
X148976996Y-95602806D01*
X148976999Y-95602798D01*
X148987500Y-95500010D01*
X148987500Y-94499990D01*
X148976999Y-94397202D01*
X148968814Y-94372500D01*
X148921817Y-94230672D01*
X148921814Y-94230664D01*
X148829713Y-94081346D01*
X148829712Y-94081344D01*
X148705656Y-93957288D01*
X148705653Y-93957286D01*
X148556335Y-93865185D01*
X148556327Y-93865182D01*
X148389806Y-93810003D01*
X148389801Y-93810002D01*
X148389798Y-93810001D01*
X148338404Y-93804750D01*
X148287012Y-93799500D01*
X148287010Y-93799500D01*
X145336990Y-93799500D01*
X145336987Y-93799500D01*
X145259899Y-93807375D01*
X145234202Y-93810001D01*
X145234200Y-93810001D01*
X145234193Y-93810003D01*
X145067672Y-93865182D01*
X145067664Y-93865185D01*
X144918346Y-93957286D01*
X144918342Y-93957289D01*
X144794289Y-94081342D01*
X144794286Y-94081346D01*
X144702185Y-94230664D01*
X144702182Y-94230672D01*
X144647003Y-94397193D01*
X144647001Y-94397203D01*
X144636500Y-94499987D01*
X144636500Y-95500012D01*
X122138256Y-95500012D01*
X122141562Y-95486240D01*
X122160155Y-95250000D01*
X122141562Y-95013760D01*
X122086243Y-94783336D01*
X121995558Y-94564404D01*
X121871741Y-94362353D01*
X121717841Y-94182159D01*
X121537647Y-94028259D01*
X121335596Y-93904442D01*
X121197539Y-93847256D01*
X121116667Y-93813758D01*
X121116661Y-93813756D01*
X120886245Y-93758439D01*
X120886241Y-93758438D01*
X120886240Y-93758438D01*
X120886238Y-93758437D01*
X120886228Y-93758436D01*
X120650005Y-93739845D01*
X120649995Y-93739845D01*
X120413771Y-93758436D01*
X120413754Y-93758439D01*
X120183338Y-93813756D01*
X120183332Y-93813758D01*
X119964404Y-93904442D01*
X119762354Y-94028258D01*
X119582162Y-94182156D01*
X119582156Y-94182162D01*
X119428258Y-94362354D01*
X119304442Y-94564404D01*
X119213758Y-94783332D01*
X119213756Y-94783338D01*
X119158439Y-95013754D01*
X119158436Y-95013771D01*
X119139845Y-95249994D01*
X119139845Y-95250005D01*
X110360365Y-95250005D01*
X110360365Y-95250000D01*
X110340948Y-95040458D01*
X110283359Y-94838053D01*
X110189558Y-94649675D01*
X110189556Y-94649672D01*
X110189554Y-94649669D01*
X110062744Y-94481746D01*
X110062738Y-94481739D01*
X109907224Y-94339969D01*
X109728309Y-94229190D01*
X109728302Y-94229186D01*
X109690278Y-94214456D01*
X109532076Y-94153168D01*
X109532071Y-94153167D01*
X109325223Y-94114500D01*
X109325220Y-94114500D01*
X109114780Y-94114500D01*
X109114777Y-94114500D01*
X108907928Y-94153167D01*
X108907926Y-94153167D01*
X108907924Y-94153168D01*
X108833082Y-94182162D01*
X108711697Y-94229186D01*
X108711690Y-94229190D01*
X108532775Y-94339969D01*
X108377261Y-94481739D01*
X108377255Y-94481746D01*
X108250445Y-94649669D01*
X108250443Y-94649672D01*
X108156642Y-94838050D01*
X108099051Y-95040462D01*
X108079635Y-95250000D01*
X102870000Y-95250000D01*
X102870000Y-88933984D01*
X127330001Y-88933984D01*
X127340494Y-89036699D01*
X127340495Y-89036702D01*
X127395640Y-89203119D01*
X127395641Y-89203121D01*
X127487681Y-89352341D01*
X127487684Y-89352345D01*
X127611654Y-89476315D01*
X127611658Y-89476318D01*
X127760878Y-89568358D01*
X127760879Y-89568359D01*
X127927298Y-89623504D01*
X127927305Y-89623505D01*
X128030023Y-89633999D01*
X129404998Y-89633999D01*
X129405000Y-89633998D01*
X130655000Y-89633998D01*
X130655001Y-89633999D01*
X132029968Y-89633999D01*
X132029984Y-89633998D01*
X132132699Y-89623505D01*
X132132702Y-89623504D01*
X132299119Y-89568359D01*
X132299121Y-89568358D01*
X132448341Y-89476318D01*
X132448345Y-89476315D01*
X132572315Y-89352345D01*
X132572318Y-89352341D01*
X132664358Y-89203121D01*
X132664359Y-89203120D01*
X132719504Y-89036701D01*
X132719505Y-89036694D01*
X132729996Y-88934006D01*
X135729500Y-88934006D01*
X135740001Y-89036800D01*
X135795115Y-89203120D01*
X135795186Y-89203334D01*
X135887288Y-89352656D01*
X136011344Y-89476712D01*
X136160666Y-89568814D01*
X136160669Y-89568815D01*
X136160667Y-89568815D01*
X136324310Y-89623040D01*
X136327203Y-89623999D01*
X136429991Y-89634500D01*
X140430008Y-89634499D01*
X140532797Y-89623999D01*
X140699334Y-89568814D01*
X140848656Y-89476712D01*
X140867940Y-89457427D01*
X140948719Y-89403454D01*
X141044007Y-89384500D01*
X143318066Y-89384500D01*
X143318067Y-89384500D01*
X143318068Y-89384499D01*
X143318089Y-89384499D01*
X143503812Y-89369109D01*
X143503813Y-89369108D01*
X143503821Y-89369108D01*
X143744881Y-89308063D01*
X143972607Y-89208173D01*
X144130690Y-89104892D01*
X144180778Y-89072169D01*
X144180778Y-89072168D01*
X144180785Y-89072164D01*
X144219360Y-89036652D01*
X144302298Y-88986064D01*
X144398287Y-88971063D01*
X144492711Y-88993937D01*
X144571194Y-89051205D01*
X144621786Y-89134148D01*
X144637000Y-89219849D01*
X144637000Y-89399975D01*
X144647494Y-89502697D01*
X144702641Y-89669121D01*
X144794681Y-89818341D01*
X144918658Y-89942318D01*
X145067878Y-90034359D01*
X145234302Y-90089505D01*
X145337023Y-90099999D01*
X146186998Y-90099999D01*
X146187000Y-90099998D01*
X147437000Y-90099998D01*
X147437001Y-90099999D01*
X148286968Y-90099999D01*
X148286984Y-90099998D01*
X148389697Y-90089505D01*
X148556121Y-90034358D01*
X148705341Y-89942318D01*
X148829319Y-89818340D01*
X148921356Y-89669128D01*
X148921357Y-89669126D01*
X148969115Y-89525000D01*
X147437001Y-89525000D01*
X147437000Y-89525001D01*
X147437000Y-90099998D01*
X146187000Y-90099998D01*
X146187000Y-88274999D01*
X147437000Y-88274999D01*
X147437001Y-88275000D01*
X148969115Y-88275000D01*
X148969114Y-88274999D01*
X148921357Y-88130873D01*
X148921356Y-88130871D01*
X148829319Y-87981659D01*
X148705341Y-87857681D01*
X148556121Y-87765640D01*
X148389697Y-87710494D01*
X148286981Y-87700000D01*
X147437001Y-87700000D01*
X147437000Y-87700001D01*
X147437000Y-88274999D01*
X146187000Y-88274999D01*
X146187000Y-87700001D01*
X146186999Y-87700000D01*
X145337023Y-87700000D01*
X145234302Y-87710494D01*
X145054111Y-87770203D01*
X145053138Y-87767269D01*
X144982405Y-87784565D01*
X144886383Y-87769769D01*
X144803333Y-87719353D01*
X144745898Y-87640993D01*
X144725983Y-87576783D01*
X144715571Y-87514386D01*
X144715569Y-87514382D01*
X144715569Y-87514378D01*
X144634827Y-87279188D01*
X144623159Y-87257627D01*
X144516474Y-87060491D01*
X144516471Y-87060487D01*
X144516470Y-87060485D01*
X144363742Y-86864261D01*
X144363741Y-86864260D01*
X144363738Y-86864256D01*
X144363733Y-86864252D01*
X144363730Y-86864248D01*
X144180785Y-86695836D01*
X144180778Y-86695830D01*
X143980341Y-86564880D01*
X143972607Y-86559827D01*
X143972604Y-86559825D01*
X143972603Y-86559825D01*
X143857077Y-86509151D01*
X143744881Y-86459937D01*
X143744879Y-86459936D01*
X143744878Y-86459936D01*
X143744874Y-86459935D01*
X143503831Y-86398894D01*
X143503812Y-86398890D01*
X143318089Y-86383500D01*
X143318067Y-86383500D01*
X141044007Y-86383500D01*
X140948719Y-86364546D01*
X140867940Y-86310572D01*
X140848656Y-86291288D01*
X140699334Y-86199186D01*
X140699332Y-86199185D01*
X140699330Y-86199184D01*
X140699332Y-86199184D01*
X140532802Y-86144002D01*
X140532798Y-86144001D01*
X140532797Y-86144001D01*
X140430009Y-86133500D01*
X140430005Y-86133500D01*
X136429993Y-86133500D01*
X136327199Y-86144001D01*
X136160667Y-86199185D01*
X136011346Y-86291286D01*
X135887286Y-86415346D01*
X135795184Y-86564668D01*
X135740002Y-86731197D01*
X135740001Y-86731204D01*
X135729500Y-86833988D01*
X135729500Y-88934006D01*
X132729996Y-88934006D01*
X132729999Y-88933981D01*
X132730000Y-88933971D01*
X132730000Y-88509001D01*
X132729999Y-88509000D01*
X130655001Y-88509000D01*
X130655000Y-88509001D01*
X130655000Y-89633998D01*
X129405000Y-89633998D01*
X129405000Y-88509001D01*
X129404999Y-88509000D01*
X127330002Y-88509000D01*
X127330001Y-88509001D01*
X127330001Y-88933984D01*
X102870000Y-88933984D01*
X102870000Y-87258999D01*
X127330000Y-87258999D01*
X127330001Y-87259000D01*
X129404999Y-87259000D01*
X129405000Y-87258999D01*
X130655000Y-87258999D01*
X130655001Y-87259000D01*
X132729998Y-87259000D01*
X132729999Y-87258999D01*
X132729999Y-86834032D01*
X132729998Y-86834015D01*
X132719505Y-86731300D01*
X132719504Y-86731297D01*
X132664359Y-86564880D01*
X132664358Y-86564878D01*
X132572318Y-86415658D01*
X132572315Y-86415654D01*
X132448345Y-86291684D01*
X132448341Y-86291681D01*
X132299121Y-86199641D01*
X132299120Y-86199640D01*
X132132701Y-86144495D01*
X132132694Y-86144494D01*
X132029981Y-86134000D01*
X130655001Y-86134000D01*
X130655000Y-86134001D01*
X130655000Y-87258999D01*
X129405000Y-87258999D01*
X129405000Y-86134001D01*
X129404999Y-86134000D01*
X128030023Y-86134000D01*
X127927300Y-86144494D01*
X127927297Y-86144495D01*
X127760880Y-86199640D01*
X127760878Y-86199641D01*
X127611658Y-86291681D01*
X127611654Y-86291684D01*
X127487684Y-86415654D01*
X127487681Y-86415658D01*
X127395641Y-86564878D01*
X127395640Y-86564879D01*
X127340495Y-86731298D01*
X127340494Y-86731305D01*
X127330000Y-86834018D01*
X127330000Y-87258999D01*
X102870000Y-87258999D01*
X102870000Y-85570000D01*
X119021883Y-85570000D01*
X120754117Y-85570000D01*
X119888000Y-84703883D01*
X119021883Y-85569999D01*
X119021883Y-85570000D01*
X102870000Y-85570000D01*
X102870000Y-84530910D01*
X117738000Y-84530910D01*
X117740874Y-84579162D01*
X117740877Y-84579179D01*
X117786544Y-84789102D01*
X117786546Y-84789107D01*
X117861041Y-84963073D01*
X119004115Y-83819999D01*
X120771883Y-83819999D01*
X121914957Y-84963073D01*
X121989455Y-84789104D01*
X121989455Y-84789103D01*
X122035122Y-84579180D01*
X122035125Y-84579162D01*
X122038000Y-84530910D01*
X122038000Y-83109089D01*
X122035125Y-83060837D01*
X122035122Y-83060820D01*
X121989455Y-82850897D01*
X121989455Y-82850896D01*
X121983926Y-82837984D01*
X174084001Y-82837984D01*
X174094494Y-82940699D01*
X174094495Y-82940702D01*
X174149640Y-83107119D01*
X174149641Y-83107121D01*
X174241681Y-83256341D01*
X174241684Y-83256345D01*
X174365654Y-83380315D01*
X174365658Y-83380318D01*
X174514878Y-83472358D01*
X174514879Y-83472359D01*
X174681298Y-83527504D01*
X174681305Y-83527505D01*
X174784023Y-83537999D01*
X176158998Y-83537999D01*
X176159000Y-83537998D01*
X177409000Y-83537998D01*
X177409001Y-83537999D01*
X178783968Y-83537999D01*
X178783984Y-83537998D01*
X178886699Y-83527505D01*
X178886702Y-83527504D01*
X179053119Y-83472359D01*
X179053121Y-83472358D01*
X179202341Y-83380318D01*
X179202345Y-83380315D01*
X179326315Y-83256345D01*
X179326318Y-83256341D01*
X179418358Y-83107121D01*
X179418359Y-83107120D01*
X179473504Y-82940701D01*
X179473505Y-82940694D01*
X179483999Y-82837981D01*
X179484000Y-82837971D01*
X179484000Y-82413001D01*
X179483999Y-82413000D01*
X177409001Y-82413000D01*
X177409000Y-82413001D01*
X177409000Y-83537998D01*
X176159000Y-83537998D01*
X176159000Y-82413001D01*
X176158999Y-82413000D01*
X174084002Y-82413000D01*
X174084001Y-82413001D01*
X174084001Y-82837984D01*
X121983926Y-82837984D01*
X121914957Y-82676926D01*
X120771883Y-83819999D01*
X119004115Y-83819999D01*
X117861041Y-82676925D01*
X117786546Y-82850890D01*
X117786544Y-82850898D01*
X117740877Y-83060820D01*
X117740874Y-83060837D01*
X117738000Y-83109089D01*
X117738000Y-84530910D01*
X102870000Y-84530910D01*
X102870000Y-82239779D01*
X108636101Y-82239779D01*
X108730396Y-82278838D01*
X108730399Y-82278839D01*
X108972150Y-82336878D01*
X109219994Y-82356384D01*
X109220006Y-82356384D01*
X109467849Y-82336878D01*
X109709601Y-82278838D01*
X109709602Y-82278838D01*
X109803896Y-82239780D01*
X109634116Y-82070000D01*
X119021883Y-82070000D01*
X119888000Y-82936116D01*
X120754117Y-82070000D01*
X119021883Y-82070000D01*
X109634116Y-82070000D01*
X109219999Y-81655883D01*
X108636101Y-82239779D01*
X102870000Y-82239779D01*
X102870000Y-80772005D01*
X107635616Y-80772005D01*
X107655121Y-81019849D01*
X107713161Y-81261604D01*
X107752218Y-81355897D01*
X108336116Y-80772000D01*
X108291161Y-80727045D01*
X108390850Y-80727045D01*
X108400571Y-80906339D01*
X108448607Y-81079351D01*
X108532714Y-81237992D01*
X108648956Y-81374843D01*
X108791901Y-81483507D01*
X108954862Y-81558901D01*
X109130221Y-81597500D01*
X109264760Y-81597500D01*
X109398505Y-81582954D01*
X109568662Y-81525622D01*
X109722517Y-81433050D01*
X109852875Y-81309569D01*
X109953640Y-81160951D01*
X110020101Y-80994147D01*
X110049150Y-80816955D01*
X110046713Y-80771999D01*
X110103883Y-80771999D01*
X110687780Y-81355896D01*
X110726838Y-81261602D01*
X110726838Y-81261601D01*
X110750510Y-81162999D01*
X174084000Y-81162999D01*
X174084001Y-81163000D01*
X176158999Y-81163000D01*
X176159000Y-81162999D01*
X177409000Y-81162999D01*
X177409001Y-81163000D01*
X179483998Y-81163000D01*
X179483999Y-81162999D01*
X179483999Y-80738032D01*
X179483998Y-80738015D01*
X179473505Y-80635300D01*
X179473504Y-80635297D01*
X179418359Y-80468880D01*
X179418358Y-80468878D01*
X179326318Y-80319658D01*
X179326315Y-80319654D01*
X179202345Y-80195684D01*
X179202341Y-80195681D01*
X179053121Y-80103641D01*
X179053120Y-80103640D01*
X178886701Y-80048495D01*
X178886694Y-80048494D01*
X178783981Y-80038000D01*
X177409001Y-80038000D01*
X177409000Y-80038001D01*
X177409000Y-81162999D01*
X176159000Y-81162999D01*
X176159000Y-80038001D01*
X176158999Y-80038000D01*
X174784023Y-80038000D01*
X174681300Y-80048494D01*
X174681297Y-80048495D01*
X174514880Y-80103640D01*
X174514878Y-80103641D01*
X174365658Y-80195681D01*
X174365654Y-80195684D01*
X174241684Y-80319654D01*
X174241681Y-80319658D01*
X174149641Y-80468878D01*
X174149640Y-80468879D01*
X174094495Y-80635298D01*
X174094494Y-80635305D01*
X174084000Y-80738018D01*
X174084000Y-81162999D01*
X110750510Y-81162999D01*
X110784878Y-81019849D01*
X110804384Y-80772005D01*
X110804384Y-80771994D01*
X110784878Y-80524150D01*
X110726839Y-80282399D01*
X110726838Y-80282396D01*
X110687779Y-80188101D01*
X110103883Y-80771999D01*
X110046713Y-80771999D01*
X110039429Y-80637661D01*
X109991393Y-80464649D01*
X109907286Y-80306008D01*
X109791044Y-80169157D01*
X109648099Y-80060493D01*
X109485138Y-79985099D01*
X109309779Y-79946500D01*
X109175240Y-79946500D01*
X109041495Y-79961046D01*
X108871338Y-80018378D01*
X108717483Y-80110950D01*
X108587125Y-80234431D01*
X108486360Y-80383049D01*
X108419899Y-80549853D01*
X108390850Y-80727045D01*
X108291161Y-80727045D01*
X107752218Y-80188102D01*
X107713162Y-80282393D01*
X107713160Y-80282400D01*
X107655121Y-80524150D01*
X107635616Y-80771994D01*
X107635616Y-80772005D01*
X102870000Y-80772005D01*
X102870000Y-79304218D01*
X108636102Y-79304218D01*
X109220000Y-79888116D01*
X109803897Y-79304218D01*
X109709604Y-79265161D01*
X109467849Y-79207121D01*
X109220006Y-79187616D01*
X109219994Y-79187616D01*
X108972150Y-79207121D01*
X108730400Y-79265160D01*
X108730393Y-79265162D01*
X108636102Y-79304218D01*
X102870000Y-79304218D01*
X102870000Y-78354000D01*
X102888954Y-78258712D01*
X102942930Y-78177930D01*
X103023712Y-78123954D01*
X103119000Y-78105000D01*
X107949668Y-78105000D01*
X108044956Y-78123954D01*
X108104916Y-78159323D01*
X108231143Y-78259986D01*
X108458357Y-78391168D01*
X108458361Y-78391169D01*
X108458364Y-78391171D01*
X108702587Y-78487021D01*
X108763897Y-78501014D01*
X108958370Y-78545402D01*
X109115278Y-78557160D01*
X109154505Y-78560100D01*
X109154506Y-78560100D01*
X118323273Y-78560100D01*
X118418561Y-78579054D01*
X118421292Y-78580204D01*
X118493121Y-78610962D01*
X118518741Y-78621934D01*
X118728769Y-78667623D01*
X118728774Y-78667624D01*
X118756486Y-78669274D01*
X118777044Y-78670500D01*
X118777052Y-78670500D01*
X120998956Y-78670500D01*
X121017534Y-78669392D01*
X121047226Y-78667624D01*
X121257259Y-78621934D01*
X121454848Y-78537321D01*
X121632855Y-78416843D01*
X121784843Y-78264855D01*
X121818970Y-78214431D01*
X121888075Y-78146145D01*
X121978054Y-78109500D01*
X122025178Y-78105000D01*
X132713494Y-78105000D01*
X132716494Y-78105018D01*
X138489454Y-78174571D01*
X138584499Y-78194671D01*
X138664624Y-78249616D01*
X138717623Y-78331042D01*
X138723976Y-78350406D01*
X138726443Y-78357069D01*
X138726444Y-78357071D01*
X138797114Y-78547887D01*
X138843266Y-78621932D01*
X138904748Y-78720572D01*
X139044939Y-78868052D01*
X139186437Y-78966537D01*
X139211951Y-78984295D01*
X139398942Y-79064540D01*
X139598259Y-79105500D01*
X142859134Y-79105500D01*
X142865441Y-79105580D01*
X142951360Y-79107757D01*
X142951360Y-79107756D01*
X142951363Y-79107757D01*
X143004751Y-79098187D01*
X143023462Y-79095562D01*
X143077438Y-79090074D01*
X143098892Y-79083342D01*
X143129511Y-79075826D01*
X143151653Y-79071858D01*
X143202047Y-79051727D01*
X143219811Y-79045403D01*
X143271588Y-79029159D01*
X143291251Y-79018244D01*
X143319732Y-79004719D01*
X143322744Y-79003515D01*
X143340617Y-78996377D01*
X143385908Y-78966527D01*
X143402073Y-78956733D01*
X143449502Y-78930409D01*
X143466575Y-78915751D01*
X143491734Y-78896781D01*
X143510519Y-78884402D01*
X143548875Y-78846045D01*
X143562738Y-78833196D01*
X143603895Y-78797866D01*
X143617666Y-78780074D01*
X143638494Y-78756426D01*
X145613992Y-76780930D01*
X145694773Y-76726954D01*
X145790061Y-76708000D01*
X151891999Y-76708000D01*
X151892000Y-76708000D01*
X151892000Y-75615927D01*
X157745630Y-75615927D01*
X157745631Y-75615947D01*
X157776442Y-75817065D01*
X157776443Y-75817069D01*
X157776444Y-75817071D01*
X157847114Y-76007887D01*
X157884337Y-76067606D01*
X157954748Y-76180572D01*
X158094939Y-76328052D01*
X158225587Y-76418985D01*
X158261951Y-76444295D01*
X158448942Y-76524540D01*
X158648259Y-76565500D01*
X160820993Y-76565500D01*
X160916281Y-76584454D01*
X160997059Y-76638427D01*
X161066344Y-76707712D01*
X161215666Y-76799814D01*
X161215669Y-76799815D01*
X161215667Y-76799815D01*
X161379310Y-76854040D01*
X161382203Y-76854999D01*
X161484991Y-76865500D01*
X164585008Y-76865499D01*
X164687797Y-76854999D01*
X164854334Y-76799814D01*
X165003656Y-76707712D01*
X165127712Y-76583656D01*
X165219814Y-76434334D01*
X165274999Y-76267797D01*
X165282947Y-76190000D01*
X166187557Y-76190000D01*
X166195494Y-76267700D01*
X166195495Y-76267702D01*
X166250640Y-76434119D01*
X166250641Y-76434121D01*
X166342681Y-76583341D01*
X166342684Y-76583345D01*
X166466654Y-76707315D01*
X166466658Y-76707318D01*
X166615878Y-76799358D01*
X166615879Y-76799359D01*
X166782298Y-76854504D01*
X166782305Y-76854505D01*
X166885023Y-76864999D01*
X167809998Y-76864999D01*
X167810000Y-76864998D01*
X169060000Y-76864998D01*
X169060001Y-76864999D01*
X169984968Y-76864999D01*
X169984984Y-76864998D01*
X170087699Y-76854505D01*
X170087702Y-76854504D01*
X170254119Y-76799359D01*
X170254121Y-76799358D01*
X170403341Y-76707318D01*
X170403345Y-76707315D01*
X170527315Y-76583345D01*
X170527318Y-76583341D01*
X170619358Y-76434121D01*
X170619359Y-76434120D01*
X170674504Y-76267701D01*
X170674506Y-76267691D01*
X170675141Y-76261479D01*
X170703679Y-76168609D01*
X170765584Y-76093731D01*
X170851432Y-76048242D01*
X170948152Y-76039068D01*
X171041022Y-76067606D01*
X171053572Y-76074851D01*
X171060878Y-76079357D01*
X171060880Y-76079358D01*
X171167500Y-76114687D01*
X171167500Y-76114686D01*
X172417500Y-76114686D01*
X172524119Y-76079358D01*
X172524126Y-76079355D01*
X172673341Y-75987318D01*
X172673345Y-75987315D01*
X172797315Y-75863345D01*
X172797318Y-75863341D01*
X172889358Y-75714121D01*
X172889359Y-75714120D01*
X172944504Y-75547701D01*
X172944505Y-75547694D01*
X172954999Y-75444981D01*
X172955000Y-75444971D01*
X172955000Y-74920001D01*
X172954999Y-74920000D01*
X172417501Y-74920000D01*
X172417500Y-74920001D01*
X172417500Y-76114686D01*
X171167500Y-76114686D01*
X171167500Y-72475311D01*
X171167499Y-72475310D01*
X172417500Y-72475310D01*
X172417500Y-73669999D01*
X172417501Y-73670000D01*
X172954998Y-73670000D01*
X172954999Y-73669999D01*
X172954999Y-73145032D01*
X172954998Y-73145015D01*
X172944505Y-73042300D01*
X172944504Y-73042297D01*
X172889359Y-72875880D01*
X172889358Y-72875878D01*
X172797318Y-72726658D01*
X172797315Y-72726654D01*
X172673341Y-72602680D01*
X172524127Y-72510644D01*
X172524117Y-72510639D01*
X172417500Y-72475310D01*
X171167499Y-72475310D01*
X171060882Y-72510639D01*
X171060872Y-72510644D01*
X170911658Y-72602680D01*
X170787684Y-72726654D01*
X170787681Y-72726658D01*
X170695641Y-72875878D01*
X170695640Y-72875879D01*
X170640495Y-73042298D01*
X170640494Y-73042305D01*
X170630000Y-73145018D01*
X170630000Y-74116344D01*
X170611046Y-74211632D01*
X170557070Y-74292414D01*
X170476288Y-74346390D01*
X170381000Y-74365344D01*
X170285712Y-74346390D01*
X170263106Y-74334831D01*
X170254120Y-74330640D01*
X170087701Y-74275495D01*
X170087694Y-74275494D01*
X169984981Y-74265000D01*
X169060001Y-74265000D01*
X169060000Y-74265001D01*
X169060000Y-76864998D01*
X167810000Y-76864998D01*
X167810000Y-76190001D01*
X167809999Y-76190000D01*
X166187557Y-76190000D01*
X165282947Y-76190000D01*
X165285500Y-76165009D01*
X165285499Y-74964992D01*
X165282946Y-74940000D01*
X166187556Y-74940000D01*
X167809999Y-74940000D01*
X167810000Y-74939999D01*
X167810000Y-74265001D01*
X167809999Y-74265000D01*
X166885023Y-74265000D01*
X166782300Y-74275494D01*
X166782297Y-74275495D01*
X166615880Y-74330640D01*
X166615878Y-74330641D01*
X166466658Y-74422681D01*
X166466654Y-74422684D01*
X166342684Y-74546654D01*
X166342681Y-74546658D01*
X166250641Y-74695878D01*
X166250640Y-74695879D01*
X166195494Y-74862302D01*
X166187556Y-74939999D01*
X166187556Y-74940000D01*
X165282946Y-74940000D01*
X165274999Y-74862203D01*
X165256264Y-74805666D01*
X165234369Y-74739591D01*
X165219814Y-74695666D01*
X165127712Y-74546344D01*
X165003656Y-74422288D01*
X164854334Y-74330186D01*
X164854332Y-74330185D01*
X164854330Y-74330184D01*
X164854332Y-74330184D01*
X164687802Y-74275002D01*
X164687798Y-74275001D01*
X164687797Y-74275001D01*
X164585009Y-74264500D01*
X164585005Y-74264500D01*
X161484993Y-74264500D01*
X161382199Y-74275001D01*
X161215667Y-74330185D01*
X161066346Y-74422286D01*
X161066344Y-74422287D01*
X161066344Y-74422288D01*
X160997059Y-74491572D01*
X160916281Y-74545546D01*
X160820993Y-74564500D01*
X158699258Y-74564500D01*
X158699253Y-74564500D01*
X158699239Y-74564501D01*
X158547566Y-74579924D01*
X158353405Y-74640843D01*
X158175495Y-74739591D01*
X158021107Y-74872130D01*
X157896549Y-75033046D01*
X157806941Y-75215724D01*
X157806940Y-75215728D01*
X157755937Y-75412713D01*
X157755936Y-75412722D01*
X157745630Y-75615927D01*
X151892000Y-75615927D01*
X151892000Y-75550500D01*
X151910954Y-75455212D01*
X151964930Y-75374430D01*
X152045712Y-75320454D01*
X152141000Y-75301500D01*
X153321941Y-75301500D01*
X153345376Y-75302605D01*
X153356656Y-75303670D01*
X153356667Y-75303673D01*
X153421900Y-75301622D01*
X153429721Y-75301500D01*
X153455350Y-75301500D01*
X153461065Y-75301140D01*
X153476866Y-75299895D01*
X153514627Y-75298709D01*
X153524405Y-75295867D01*
X153562683Y-75287941D01*
X153568456Y-75287211D01*
X153572792Y-75286664D01*
X153607918Y-75272755D01*
X153630110Y-75265158D01*
X153631180Y-75264847D01*
X153666390Y-75254618D01*
X153675157Y-75249432D01*
X153710255Y-75232238D01*
X153719732Y-75228486D01*
X153750309Y-75206269D01*
X153769887Y-75193409D01*
X153802420Y-75174170D01*
X153809621Y-75166968D01*
X153839339Y-75141586D01*
X153847587Y-75135594D01*
X153871664Y-75106487D01*
X153887443Y-75089145D01*
X158030148Y-70946441D01*
X158110928Y-70892467D01*
X158206216Y-70873513D01*
X158258490Y-70880395D01*
X158258605Y-70879747D01*
X158269295Y-70881631D01*
X158269308Y-70881635D01*
X158271537Y-70881830D01*
X158495994Y-70901468D01*
X158496000Y-70901468D01*
X158496006Y-70901468D01*
X158675668Y-70885749D01*
X158722692Y-70881635D01*
X158942496Y-70822739D01*
X159148734Y-70726568D01*
X159335139Y-70596047D01*
X159496047Y-70435139D01*
X159562031Y-70340902D01*
X159632211Y-70273719D01*
X159722760Y-70238506D01*
X159819892Y-70240625D01*
X159908819Y-70279753D01*
X159969968Y-70340902D01*
X160035953Y-70435139D01*
X160196861Y-70596047D01*
X160196864Y-70596049D01*
X160196865Y-70596050D01*
X160383258Y-70726563D01*
X160383262Y-70726565D01*
X160383266Y-70726568D01*
X160383270Y-70726569D01*
X160383272Y-70726571D01*
X160441116Y-70753544D01*
X160589504Y-70822739D01*
X160809308Y-70881635D01*
X160811537Y-70881830D01*
X161035994Y-70901468D01*
X161036000Y-70901468D01*
X161036006Y-70901468D01*
X161215668Y-70885749D01*
X161262692Y-70881635D01*
X161482496Y-70822739D01*
X161688734Y-70726568D01*
X161875139Y-70596047D01*
X162036047Y-70435139D01*
X162102031Y-70340902D01*
X162172211Y-70273719D01*
X162262760Y-70238506D01*
X162359892Y-70240625D01*
X162448819Y-70279753D01*
X162509968Y-70340902D01*
X162575953Y-70435139D01*
X162736861Y-70596047D01*
X162736864Y-70596049D01*
X162736865Y-70596050D01*
X162923258Y-70726563D01*
X162923262Y-70726565D01*
X162923266Y-70726568D01*
X162923270Y-70726569D01*
X162923272Y-70726571D01*
X162981116Y-70753544D01*
X163129504Y-70822739D01*
X163349308Y-70881635D01*
X163351537Y-70881830D01*
X163575994Y-70901468D01*
X163576000Y-70901468D01*
X163576006Y-70901468D01*
X163755668Y-70885749D01*
X163802692Y-70881635D01*
X164022496Y-70822739D01*
X164228734Y-70726568D01*
X164415139Y-70596047D01*
X164576047Y-70435139D01*
X164642031Y-70340902D01*
X164712211Y-70273719D01*
X164802760Y-70238506D01*
X164899892Y-70240625D01*
X164988819Y-70279753D01*
X165049968Y-70340902D01*
X165115953Y-70435139D01*
X165276861Y-70596047D01*
X165276864Y-70596049D01*
X165276865Y-70596050D01*
X165463258Y-70726563D01*
X165463262Y-70726565D01*
X165463266Y-70726568D01*
X165463270Y-70726569D01*
X165463272Y-70726571D01*
X165521116Y-70753544D01*
X165669504Y-70822739D01*
X165889308Y-70881635D01*
X165891537Y-70881830D01*
X166115994Y-70901468D01*
X166116000Y-70901468D01*
X166116006Y-70901468D01*
X166295668Y-70885749D01*
X166342692Y-70881635D01*
X166562496Y-70822739D01*
X166768734Y-70726568D01*
X166955139Y-70596047D01*
X167116047Y-70435139D01*
X167182031Y-70340902D01*
X167252211Y-70273719D01*
X167342760Y-70238506D01*
X167439892Y-70240625D01*
X167528819Y-70279753D01*
X167589968Y-70340902D01*
X167655953Y-70435139D01*
X167816861Y-70596047D01*
X167816864Y-70596049D01*
X167816865Y-70596050D01*
X168003258Y-70726563D01*
X168003262Y-70726565D01*
X168003266Y-70726568D01*
X168003270Y-70726569D01*
X168003272Y-70726571D01*
X168061116Y-70753544D01*
X168209504Y-70822739D01*
X168429308Y-70881635D01*
X168431537Y-70881830D01*
X168655994Y-70901468D01*
X168656000Y-70901468D01*
X168656006Y-70901468D01*
X168835668Y-70885749D01*
X168882692Y-70881635D01*
X169102496Y-70822739D01*
X169308734Y-70726568D01*
X169495139Y-70596047D01*
X169656047Y-70435139D01*
X169722337Y-70340465D01*
X169792515Y-70273284D01*
X169883064Y-70238070D01*
X169980196Y-70240189D01*
X170069124Y-70279317D01*
X170130274Y-70340466D01*
X170196337Y-70434814D01*
X170357185Y-70595662D01*
X170543519Y-70726134D01*
X170571000Y-70738948D01*
X170571000Y-69596000D01*
X170791014Y-69596000D01*
X170810835Y-69721148D01*
X170868359Y-69834045D01*
X170957955Y-69923641D01*
X171070852Y-69981165D01*
X171164519Y-69996000D01*
X171227481Y-69996000D01*
X171321148Y-69981165D01*
X171434045Y-69923641D01*
X171523641Y-69834045D01*
X171581165Y-69721148D01*
X171600986Y-69596000D01*
X171581165Y-69470852D01*
X171523641Y-69357955D01*
X171434045Y-69268359D01*
X171321148Y-69210835D01*
X171227481Y-69196000D01*
X171164519Y-69196000D01*
X171070852Y-69210835D01*
X170957955Y-69268359D01*
X170868359Y-69357955D01*
X170810835Y-69470852D01*
X170791014Y-69596000D01*
X170571000Y-69596000D01*
X170571000Y-69220000D01*
X170589954Y-69124712D01*
X170643930Y-69043930D01*
X170724712Y-68989954D01*
X170820000Y-68971000D01*
X171572000Y-68971000D01*
X171667288Y-68989954D01*
X171748070Y-69043930D01*
X171802046Y-69124712D01*
X171821000Y-69220000D01*
X171821000Y-70738948D01*
X171848480Y-70726134D01*
X172034814Y-70595662D01*
X172195663Y-70434813D01*
X172261724Y-70340468D01*
X172331905Y-70273283D01*
X172422454Y-70238070D01*
X172519586Y-70240189D01*
X172608513Y-70279317D01*
X172669663Y-70340467D01*
X172735725Y-70434814D01*
X172735953Y-70435139D01*
X172896861Y-70596047D01*
X172896864Y-70596049D01*
X172896865Y-70596050D01*
X173083258Y-70726563D01*
X173083262Y-70726565D01*
X173083266Y-70726568D01*
X173083270Y-70726569D01*
X173083272Y-70726571D01*
X173141116Y-70753544D01*
X173289504Y-70822739D01*
X173509308Y-70881635D01*
X173511537Y-70881830D01*
X173735994Y-70901468D01*
X173736000Y-70901468D01*
X173736001Y-70901468D01*
X173744366Y-70900736D01*
X173844795Y-70891949D01*
X173941368Y-70902525D01*
X174026547Y-70949254D01*
X174042545Y-70963913D01*
X174094072Y-71015440D01*
X174148046Y-71096218D01*
X174167000Y-71191506D01*
X174167000Y-72382726D01*
X174148046Y-72478014D01*
X174094070Y-72558796D01*
X174048724Y-72594651D01*
X174036348Y-72602284D01*
X174036338Y-72602292D01*
X173912288Y-72726343D01*
X173820184Y-72875668D01*
X173765002Y-73042197D01*
X173765001Y-73042204D01*
X173754500Y-73144988D01*
X173754500Y-75445006D01*
X173765001Y-75547800D01*
X173820115Y-75714120D01*
X173820186Y-75714334D01*
X173912288Y-75863656D01*
X174036344Y-75987712D01*
X174185666Y-76079814D01*
X174185669Y-76079815D01*
X174185667Y-76079815D01*
X174349310Y-76134040D01*
X174352203Y-76134999D01*
X174454991Y-76145500D01*
X175380008Y-76145499D01*
X175482797Y-76134999D01*
X175649334Y-76079814D01*
X175798656Y-75987712D01*
X175922712Y-75863656D01*
X176014814Y-75714334D01*
X176069999Y-75547797D01*
X176080500Y-75445009D01*
X176080499Y-73144992D01*
X176069999Y-73042203D01*
X176050476Y-72983288D01*
X176033242Y-72931278D01*
X176014814Y-72875666D01*
X175922712Y-72726344D01*
X175922711Y-72726343D01*
X175798661Y-72602292D01*
X175798651Y-72602284D01*
X175786276Y-72594651D01*
X175715127Y-72528494D01*
X175674711Y-72440144D01*
X175668000Y-72382726D01*
X175668000Y-70850311D01*
X175670629Y-70814221D01*
X175672789Y-70799477D01*
X175668948Y-70755574D01*
X175668000Y-70733872D01*
X175668000Y-70733791D01*
X175664613Y-70704816D01*
X175663877Y-70697610D01*
X175657498Y-70624703D01*
X175655272Y-70613923D01*
X175652742Y-70603248D01*
X175652741Y-70603245D01*
X175627691Y-70534419D01*
X175625362Y-70527720D01*
X175602314Y-70458165D01*
X175602311Y-70458160D01*
X175597664Y-70448193D01*
X175592738Y-70438385D01*
X175590603Y-70435139D01*
X175552522Y-70377240D01*
X175548643Y-70371151D01*
X175529716Y-70340466D01*
X175510212Y-70308844D01*
X175503408Y-70300239D01*
X175496333Y-70291808D01*
X175496330Y-70291804D01*
X175443134Y-70241616D01*
X175437939Y-70236571D01*
X175103932Y-69902564D01*
X175049956Y-69821782D01*
X175031002Y-69726494D01*
X175031950Y-69704791D01*
X175041468Y-69596004D01*
X175041468Y-69595994D01*
X175021636Y-69369320D01*
X175021635Y-69369308D01*
X174962739Y-69149504D01*
X174900188Y-69015364D01*
X174866571Y-68943272D01*
X174866563Y-68943258D01*
X174736050Y-68756865D01*
X174736048Y-68756863D01*
X174736047Y-68756861D01*
X174614752Y-68635566D01*
X174560779Y-68554788D01*
X174541825Y-68459500D01*
X174560779Y-68364212D01*
X174614755Y-68283430D01*
X174695537Y-68229454D01*
X174790825Y-68210500D01*
X184308861Y-68210500D01*
X184404149Y-68229454D01*
G37*
%TD.AperFunction*%
%TD*%
M02*
