%TF.GenerationSoftware,KiCad,Pcbnew,7.0.10*%
%TF.CreationDate,2024-02-16T16:08:38+01:00*%
%TF.ProjectId,arenaPCBv1,6172656e-6150-4434-9276-312e6b696361,rev?*%
%TF.SameCoordinates,Original*%
%TF.FileFunction,Soldermask,Top*%
%TF.FilePolarity,Negative*%
%FSLAX46Y46*%
G04 Gerber Fmt 4.6, Leading zero omitted, Abs format (unit mm)*
G04 Created by KiCad (PCBNEW 7.0.10) date 2024-02-16 16:08:38*
%MOMM*%
%LPD*%
G01*
G04 APERTURE LIST*
G04 Aperture macros list*
%AMRoundRect*
0 Rectangle with rounded corners*
0 $1 Rounding radius*
0 $2 $3 $4 $5 $6 $7 $8 $9 X,Y pos of 4 corners*
0 Add a 4 corners polygon primitive as box body*
4,1,4,$2,$3,$4,$5,$6,$7,$8,$9,$2,$3,0*
0 Add four circle primitives for the rounded corners*
1,1,$1+$1,$2,$3*
1,1,$1+$1,$4,$5*
1,1,$1+$1,$6,$7*
1,1,$1+$1,$8,$9*
0 Add four rect primitives between the rounded corners*
20,1,$1+$1,$2,$3,$4,$5,0*
20,1,$1+$1,$4,$5,$6,$7,0*
20,1,$1+$1,$6,$7,$8,$9,0*
20,1,$1+$1,$8,$9,$2,$3,0*%
G04 Aperture macros list end*
%ADD10C,3.800000*%
%ADD11C,1.244600*%
%ADD12O,1.600000X1.600000*%
%ADD13R,1.600000X1.600000*%
%ADD14RoundRect,0.250000X0.400000X1.075000X-0.400000X1.075000X-0.400000X-1.075000X0.400000X-1.075000X0*%
%ADD15RoundRect,0.250000X-1.075000X0.400000X-1.075000X-0.400000X1.075000X-0.400000X1.075000X0.400000X0*%
%ADD16RoundRect,0.249999X-1.425001X0.450001X-1.425001X-0.450001X1.425001X-0.450001X1.425001X0.450001X0*%
%ADD17R,2.000000X1.905000*%
%ADD18O,2.000000X1.905000*%
%ADD19RoundRect,0.250000X-0.350000X0.350000X-0.350000X-0.350000X0.350000X-0.350000X0.350000X0.350000X0*%
%ADD20C,1.200000*%
%ADD21C,2.260600*%
%ADD22C,1.270000*%
%ADD23R,1.700000X1.700000*%
%ADD24O,1.700000X1.700000*%
%ADD25C,1.320800*%
%ADD26C,2.159000*%
%ADD27C,2.010000*%
%ADD28RoundRect,0.250000X2.050000X0.300000X-2.050000X0.300000X-2.050000X-0.300000X2.050000X-0.300000X0*%
%ADD29RoundRect,0.250002X4.449998X5.149998X-4.449998X5.149998X-4.449998X-5.149998X4.449998X-5.149998X0*%
%ADD30RoundRect,0.250000X1.500000X0.550000X-1.500000X0.550000X-1.500000X-0.550000X1.500000X-0.550000X0*%
%ADD31RoundRect,0.250000X0.412500X1.100000X-0.412500X1.100000X-0.412500X-1.100000X0.412500X-1.100000X0*%
%ADD32RoundRect,0.250000X-0.412500X-1.100000X0.412500X-1.100000X0.412500X1.100000X-0.412500X1.100000X0*%
%ADD33RoundRect,0.250000X-1.950000X-1.000000X1.950000X-1.000000X1.950000X1.000000X-1.950000X1.000000X0*%
%ADD34R,2.000000X2.000000*%
%ADD35C,2.000000*%
G04 APERTURE END LIST*
D10*
%TO.C,M.2*%
X200660000Y-109220000D03*
%TD*%
%TO.C,M.2*%
X200660000Y-53340000D03*
%TD*%
%TO.C,M.2*%
X102870000Y-53340000D03*
%TD*%
%TO.C,M.2*%
X102870000Y-109220000D03*
%TD*%
D11*
%TO.C,J3*%
X129921000Y-62484000D03*
X128420998Y-62484000D03*
%TD*%
D12*
%TO.C,U2*%
X155956000Y-56896000D03*
X158496000Y-56896000D03*
X161036000Y-56896000D03*
X163576000Y-56896000D03*
X166116000Y-56896000D03*
X168656000Y-56896000D03*
X171196000Y-56896000D03*
X173736000Y-56896000D03*
X173736000Y-69596000D03*
X171196000Y-69596000D03*
X168656000Y-69596000D03*
X166116000Y-69596000D03*
X163576000Y-69596000D03*
X161036000Y-69596000D03*
X158496000Y-69596000D03*
D13*
X155956000Y-69596000D03*
%TD*%
%TO.C,U1*%
X171196000Y-89916000D03*
D12*
X171196000Y-92456000D03*
X171196000Y-94996000D03*
X171196000Y-97536000D03*
X171196000Y-100076000D03*
X171196000Y-102616000D03*
X171196000Y-105156000D03*
X171196000Y-107696000D03*
X183896000Y-107696000D03*
X183896000Y-105156000D03*
X183896000Y-102616000D03*
X183896000Y-100076000D03*
X183896000Y-97536000D03*
X183896000Y-94996000D03*
X183896000Y-92456000D03*
X183896000Y-89916000D03*
%TD*%
D14*
%TO.C,R4*%
X128524000Y-74168000D03*
X125424000Y-74168000D03*
%TD*%
D15*
%TO.C,R3*%
X117856000Y-60934000D03*
X117856000Y-64034000D03*
%TD*%
%TO.C,R2*%
X122428000Y-63907000D03*
X122428000Y-60807000D03*
%TD*%
D16*
%TO.C,R1*%
X146812000Y-88900000D03*
X146812000Y-95000000D03*
%TD*%
D17*
%TO.C,Q1*%
X118110000Y-74930000D03*
D18*
X118110000Y-77470000D03*
X118110000Y-80010000D03*
%TD*%
D19*
%TO.C,J9*%
X139160000Y-60930000D03*
D20*
X137160000Y-60930000D03*
X139160000Y-62930000D03*
X137160000Y-62930000D03*
X139160000Y-64930000D03*
X137160000Y-64930000D03*
X139160000Y-66930000D03*
X137160000Y-66930000D03*
X139160000Y-68930000D03*
X137160000Y-68930000D03*
X139160000Y-70930000D03*
X137160000Y-70930000D03*
X139160000Y-72930000D03*
X137160000Y-72930000D03*
X139160000Y-74930000D03*
X137160000Y-74930000D03*
%TD*%
D21*
%TO.C,J8*%
X194303900Y-76536900D03*
X194303900Y-72576900D03*
X194303900Y-68616900D03*
X194303900Y-64656900D03*
X194303900Y-60696901D03*
X194303900Y-56736901D03*
%TD*%
%TO.C,J7*%
X194564000Y-93472000D03*
X194564000Y-97432000D03*
X194564000Y-101391999D03*
X194564000Y-105351999D03*
%TD*%
D22*
%TO.C,J6*%
X109220000Y-95250000D03*
X109220000Y-100250000D03*
%TD*%
D23*
%TO.C,J5*%
X146812000Y-100584000D03*
D24*
X146812000Y-103124000D03*
%TD*%
D25*
%TO.C,J4*%
X111760000Y-67310000D03*
X110260001Y-67310000D03*
X108759999Y-67310000D03*
X107259999Y-67310000D03*
%TD*%
%TO.C,J2*%
X107259999Y-58420000D03*
X108759999Y-58420000D03*
X110260001Y-58420000D03*
X111760000Y-58420000D03*
%TD*%
D26*
%TO.C,J1*%
X109220000Y-80772000D03*
X109220000Y-76809600D03*
%TD*%
D27*
%TO.C,F1*%
X120650000Y-95250000D03*
X119450000Y-100350000D03*
%TD*%
D28*
%TO.C,D1*%
X139210000Y-103105000D03*
X139210000Y-98025000D03*
D29*
X130060000Y-100565000D03*
%TD*%
D30*
%TO.C,C6*%
X146144000Y-67564000D03*
X151544000Y-67564000D03*
%TD*%
D31*
%TO.C,C5*%
X150406500Y-75692000D03*
X147281500Y-75692000D03*
%TD*%
D32*
%TO.C,C4*%
X172720000Y-76200000D03*
X169595000Y-76200000D03*
%TD*%
D30*
%TO.C,C3*%
X159860000Y-76200000D03*
X165260000Y-76200000D03*
%TD*%
D33*
%TO.C,C2*%
X176784000Y-81788000D03*
X185184000Y-81788000D03*
%TD*%
D34*
%TO.C,C1*%
X129620000Y-87884000D03*
D35*
X134620000Y-87884000D03*
%TD*%
M02*
