M48
; DRILL file {KiCad 7.0.10} date Tue Feb 20 10:07:28 2024
; FORMAT={-:-/ absolute / inch / decimal}
; #@! TF.CreationDate,2024-02-20T10:07:28+01:00
; #@! TF.GenerationSoftware,Kicad,Pcbnew,7.0.10
; #@! TF.FileFunction,Plated,1,2,PTH
FMAT,2
INCH
; #@! TA.AperFunction,Plated,PTH,ViaDrill
T1C0.0157
; #@! TA.AperFunction,Plated,PTH,ComponentDrill
T2C0.0290
; #@! TA.AperFunction,Plated,PTH,ComponentDrill
T3C0.0295
; #@! TA.AperFunction,Plated,PTH,ComponentDrill
T4C0.0300
; #@! TA.AperFunction,Plated,PTH,ComponentDrill
T5C0.0315
; #@! TA.AperFunction,Plated,PTH,ComponentDrill
T6C0.0320
; #@! TA.AperFunction,Plated,PTH,ComponentDrill
T7C0.0394
; #@! TA.AperFunction,Plated,PTH,ComponentDrill
T8C0.0398
; #@! TA.AperFunction,Plated,PTH,ComponentDrill
T9C0.0433
; #@! TA.AperFunction,Plated,PTH,ComponentDrill
T10C0.0650
; #@! TA.AperFunction,Plated,PTH,ComponentDrill
T11C0.0690
; #@! TA.AperFunction,Plated,PTH,ComponentDrill
T12C0.0866
%
G90
G05
T1
X5.5Y-3.075
X5.55Y-3.9
X5.64Y-3.46
X5.725Y-2.975
X5.875Y-2.425
X6.025Y-3.65
X6.0808Y-3.375
X6.2Y-3.54
X6.225Y-2.375
X6.25Y-2.975
X6.375Y-3.5
X6.4Y-3.375
X7.45Y-3.22
T2
X5.0559Y-2.46
X5.115Y-2.46
T3
X5.4Y-2.3988
X5.4Y-2.4776
X5.4Y-2.5563
X5.4Y-2.635
X5.4Y-2.7138
X5.4Y-2.7925
X5.4Y-2.8713
X5.4Y-2.95
X5.4787Y-2.3988
X5.4787Y-2.4776
X5.4787Y-2.5563
X5.4787Y-2.635
X5.4787Y-2.7138
X5.4787Y-2.7925
X5.4787Y-2.8713
X5.4787Y-2.95
T4
X4.3Y-3.75
X4.3Y-3.9469
T5
X6.14Y-2.24
X6.14Y-2.74
X6.24Y-2.24
X6.24Y-2.74
X6.34Y-2.24
X6.34Y-2.74
X6.44Y-2.24
X6.44Y-2.74
X6.54Y-2.24
X6.54Y-2.74
X6.64Y-2.24
X6.64Y-2.74
X6.74Y-2.24
X6.74Y-2.74
X6.74Y-3.54
X6.74Y-3.64
X6.74Y-3.74
X6.74Y-3.84
X6.74Y-3.94
X6.74Y-4.04
X6.74Y-4.14
X6.74Y-4.24
X6.84Y-2.24
X6.84Y-2.74
X7.24Y-3.54
X7.24Y-3.64
X7.24Y-3.74
X7.24Y-3.84
X7.24Y-3.94
X7.24Y-4.04
X7.24Y-4.14
X7.24Y-4.24
T6
X4.2228Y-2.3
X4.2228Y-2.65
X4.2819Y-2.3
X4.2819Y-2.65
X4.3409Y-2.3
X4.3409Y-2.65
X4.4Y-2.3
X4.4Y-2.65
T7
X5.78Y-3.96
X5.78Y-4.06
T8
X4.7028Y-3.9508
X4.75Y-3.75
T9
X4.68Y-2.8
X4.78Y-2.8
X4.88Y-2.8
T10
X4.3Y-3.024
X4.3Y-3.18
T11
X7.6498Y-2.2337
X7.6498Y-2.3896
X7.6498Y-2.5455
X7.6498Y-2.7015
X7.6498Y-2.8574
X7.6498Y-3.0133
X7.66Y-3.68
X7.66Y-3.8359
X7.66Y-3.9918
X7.66Y-4.1477
T12
X4.05Y-2.1
X4.05Y-4.3
X7.9Y-2.1
X7.9Y-4.3
M30
