%TF.GenerationSoftware,KiCad,Pcbnew,7.0.10*%
%TF.CreationDate,2024-02-19T13:17:08+01:00*%
%TF.ProjectId,arenaPCBv1,6172656e-6150-4434-9276-312e6b696361,rev?*%
%TF.SameCoordinates,Original*%
%TF.FileFunction,Copper,L2,Bot*%
%TF.FilePolarity,Positive*%
%FSLAX46Y46*%
G04 Gerber Fmt 4.6, Leading zero omitted, Abs format (unit mm)*
G04 Created by KiCad (PCBNEW 7.0.10) date 2024-02-19 13:17:08*
%MOMM*%
%LPD*%
G01*
G04 APERTURE LIST*
G04 Aperture macros list*
%AMRoundRect*
0 Rectangle with rounded corners*
0 $1 Rounding radius*
0 $2 $3 $4 $5 $6 $7 $8 $9 X,Y pos of 4 corners*
0 Add a 4 corners polygon primitive as box body*
4,1,4,$2,$3,$4,$5,$6,$7,$8,$9,$2,$3,0*
0 Add four circle primitives for the rounded corners*
1,1,$1+$1,$2,$3*
1,1,$1+$1,$4,$5*
1,1,$1+$1,$6,$7*
1,1,$1+$1,$8,$9*
0 Add four rect primitives between the rounded corners*
20,1,$1+$1,$2,$3,$4,$5,0*
20,1,$1+$1,$4,$5,$6,$7,0*
20,1,$1+$1,$6,$7,$8,$9,0*
20,1,$1+$1,$8,$9,$2,$3,0*%
G04 Aperture macros list end*
%TA.AperFunction,ComponentPad*%
%ADD10C,3.800000*%
%TD*%
%TA.AperFunction,ComponentPad*%
%ADD11C,1.320800*%
%TD*%
%TA.AperFunction,ComponentPad*%
%ADD12C,2.260600*%
%TD*%
%TA.AperFunction,ComponentPad*%
%ADD13R,1.600000X1.600000*%
%TD*%
%TA.AperFunction,ComponentPad*%
%ADD14O,1.600000X1.600000*%
%TD*%
%TA.AperFunction,ComponentPad*%
%ADD15R,1.700000X1.700000*%
%TD*%
%TA.AperFunction,ComponentPad*%
%ADD16O,1.700000X1.700000*%
%TD*%
%TA.AperFunction,ComponentPad*%
%ADD17C,2.010000*%
%TD*%
%TA.AperFunction,ComponentPad*%
%ADD18C,2.159000*%
%TD*%
%TA.AperFunction,ComponentPad*%
%ADD19C,1.244600*%
%TD*%
%TA.AperFunction,ComponentPad*%
%ADD20C,1.270000*%
%TD*%
%TA.AperFunction,ComponentPad*%
%ADD21RoundRect,0.250000X-0.350000X0.350000X-0.350000X-0.350000X0.350000X-0.350000X0.350000X0.350000X0*%
%TD*%
%TA.AperFunction,ComponentPad*%
%ADD22C,1.200000*%
%TD*%
%TA.AperFunction,ComponentPad*%
%ADD23R,1.905000X2.000000*%
%TD*%
%TA.AperFunction,ComponentPad*%
%ADD24O,1.905000X2.000000*%
%TD*%
%TA.AperFunction,ViaPad*%
%ADD25C,0.800000*%
%TD*%
%TA.AperFunction,Conductor*%
%ADD26C,0.250000*%
%TD*%
%TA.AperFunction,Conductor*%
%ADD27C,1.375000*%
%TD*%
%TA.AperFunction,Conductor*%
%ADD28C,5.500000*%
%TD*%
%TA.AperFunction,Conductor*%
%ADD29C,0.800000*%
%TD*%
G04 APERTURE END LIST*
D10*
%TO.P,M.2,1*%
%TO.N,GND*%
X102870000Y-53340000D03*
%TD*%
D11*
%TO.P,J4,1,Pin_1*%
%TO.N,+3.3V*%
X111760000Y-67310000D03*
%TO.P,J4,2,Pin_2*%
%TO.N,/SCL*%
X110260001Y-67310000D03*
%TO.P,J4,3,Pin_3*%
%TO.N,/SDA*%
X108759999Y-67310000D03*
%TO.P,J4,4,Pin_4*%
%TO.N,GND*%
X107259999Y-67310000D03*
%TD*%
D10*
%TO.P,M.2,1*%
%TO.N,GND*%
X200660000Y-109220000D03*
%TD*%
D12*
%TO.P,J7,1,Pin_1*%
%TO.N,Net-(J7-Pin_1)*%
X194564000Y-93472000D03*
%TO.P,J7,2,Pin_2*%
%TO.N,Net-(J7-Pin_2)*%
X194564000Y-97432000D03*
%TO.P,J7,3,Pin_3*%
%TO.N,Net-(J7-Pin_3)*%
X194564000Y-101391999D03*
%TO.P,J7,4,Pin_4*%
%TO.N,Net-(J7-Pin_4)*%
X194564000Y-105351999D03*
%TD*%
D13*
%TO.P,U1,1,EN*%
%TO.N,GND*%
X171196000Y-89916000D03*
D14*
%TO.P,U1,2,MS1*%
%TO.N,Net-(J9-MS1)*%
X171196000Y-92456000D03*
%TO.P,U1,3,MS2*%
%TO.N,Net-(J9-MS2)*%
X171196000Y-94996000D03*
%TO.P,U1,4,MS3*%
%TO.N,Net-(J9-MS3)*%
X171196000Y-97536000D03*
%TO.P,U1,5,RST*%
%TO.N,+3.3V*%
X171196000Y-100076000D03*
%TO.P,U1,6,SLP*%
X171196000Y-102616000D03*
%TO.P,U1,7,STEP*%
%TO.N,Net-(J9-STEP)*%
X171196000Y-105156000D03*
%TO.P,U1,8,DIR*%
%TO.N,Net-(J9-DIR)*%
X171196000Y-107696000D03*
%TO.P,U1,9,GND*%
%TO.N,GND*%
X183896000Y-107696000D03*
%TO.P,U1,10,FAULT*%
%TO.N,unconnected-(U1-FAULT-Pad10)*%
X183896000Y-105156000D03*
%TO.P,U1,11,A2*%
%TO.N,Net-(J7-Pin_4)*%
X183896000Y-102616000D03*
%TO.P,U1,12,A1*%
%TO.N,Net-(J7-Pin_3)*%
X183896000Y-100076000D03*
%TO.P,U1,13,B1*%
%TO.N,Net-(J7-Pin_2)*%
X183896000Y-97536000D03*
%TO.P,U1,14,B2*%
%TO.N,Net-(J7-Pin_1)*%
X183896000Y-94996000D03*
%TO.P,U1,15,GND*%
%TO.N,GND*%
X183896000Y-92456000D03*
%TO.P,U1,16,VMOT*%
%TO.N,+12V*%
X183896000Y-89916000D03*
%TD*%
D10*
%TO.P,M.2,1*%
%TO.N,GND*%
X102870000Y-109220000D03*
%TD*%
D15*
%TO.P,J5,1,pin_1*%
%TO.N,Net-(J5-pin_1)*%
X146812000Y-100584000D03*
D16*
%TO.P,J5,2,Pin_2*%
%TO.N,GND*%
X146812000Y-103124000D03*
%TD*%
D12*
%TO.P,J8,1,Pin_1*%
%TO.N,Net-(J8-Pin_1)*%
X194303900Y-56736901D03*
%TO.P,J8,2,Pin_2*%
%TO.N,GND*%
X194303900Y-60696901D03*
%TO.P,J8,3,Pin_3*%
%TO.N,Net-(J8-Pin_3)*%
X194303900Y-64656900D03*
%TO.P,J8,4,Pin_4*%
%TO.N,Net-(J8-Pin_4)*%
X194303900Y-68616900D03*
%TO.P,J8,5,Pin_5*%
%TO.N,+3.3V*%
X194303900Y-72576900D03*
%TO.P,J8,6,Pin_6*%
%TO.N,Net-(J8-Pin_6)*%
X194303900Y-76536900D03*
%TD*%
D17*
%TO.P,F1,1*%
%TO.N,Net-(J6-VCC)*%
X120650000Y-95250000D03*
%TO.P,F1,2*%
%TO.N,+12V*%
X119450000Y-100350000D03*
%TD*%
D18*
%TO.P,J1,1,VCC*%
%TO.N,+12V*%
X109220000Y-80772000D03*
%TO.P,J1,2,GND*%
%TO.N,/D*%
X109220000Y-76809600D03*
%TD*%
D19*
%TO.P,J3,1,COM*%
%TO.N,Net-(J3-COM)*%
X128420998Y-62484000D03*
%TO.P,J3,2,GND*%
%TO.N,GND*%
X129921000Y-62484000D03*
%TD*%
D10*
%TO.P,M.2,1*%
%TO.N,GND*%
X200660000Y-53340000D03*
%TD*%
D20*
%TO.P,J6,1,VCC*%
%TO.N,Net-(J6-VCC)*%
X109220000Y-95250000D03*
%TO.P,J6,2,GND*%
%TO.N,GND*%
X109220000Y-100250000D03*
%TD*%
D21*
%TO.P,J9,1,3.3V*%
%TO.N,+3.3V*%
X139160000Y-60930000D03*
D22*
%TO.P,J9,2,GND*%
%TO.N,GND*%
X137160000Y-60930000D03*
%TO.P,J9,3,STEP*%
%TO.N,Net-(J9-STEP)*%
X139160000Y-62930000D03*
%TO.P,J9,4,DIR*%
%TO.N,Net-(J9-DIR)*%
X137160000Y-62930000D03*
%TO.P,J9,5,MS3*%
%TO.N,Net-(J9-MS3)*%
X139160000Y-64930000D03*
%TO.P,J9,6,MS2*%
%TO.N,Net-(J9-MS2)*%
X137160000Y-64930000D03*
%TO.P,J9,7,MS1*%
%TO.N,Net-(J9-MS1)*%
X139160000Y-66930000D03*
%TO.P,J9,8,PWMA*%
%TO.N,Net-(J9-PWMA)*%
X137160000Y-66930000D03*
%TO.P,J9,9,AIN1*%
%TO.N,Net-(J9-AIN1)*%
X139160000Y-68930000D03*
%TO.P,J9,10,AIN2*%
%TO.N,Net-(J9-AIN2)*%
X137160000Y-68930000D03*
%TO.P,J9,11,HAL2*%
%TO.N,Net-(J8-Pin_4)*%
X139160000Y-70930000D03*
%TO.P,J9,12,HAL1*%
%TO.N,Net-(J8-Pin_3)*%
X137160000Y-70930000D03*
%TO.P,J9,13,END*%
%TO.N,Net-(J3-COM)*%
X139160000Y-72930000D03*
%TO.P,J9,14,QI*%
%TO.N,Net-(J9-QI)*%
X137160000Y-72930000D03*
%TO.P,J9,15,SDA*%
%TO.N,/SDA*%
X139160000Y-74930000D03*
%TO.P,J9,16,SCL*%
%TO.N,/SCL*%
X137160000Y-74930000D03*
%TD*%
D11*
%TO.P,J2,1,Pin_1*%
%TO.N,+3.3V*%
X111760000Y-58420000D03*
%TO.P,J2,2,Pin_2*%
%TO.N,/SCL*%
X110260001Y-58420000D03*
%TO.P,J2,3,Pin_3*%
%TO.N,/SDA*%
X108759999Y-58420000D03*
%TO.P,J2,4,Pin_4*%
%TO.N,GND*%
X107259999Y-58420000D03*
%TD*%
D23*
%TO.P,Q1,1,G*%
%TO.N,/G*%
X123952000Y-71120000D03*
D24*
%TO.P,Q1,2,D*%
%TO.N,/D*%
X121412000Y-71120000D03*
%TO.P,Q1,3,S*%
%TO.N,GND*%
X118872000Y-71120000D03*
%TD*%
D13*
%TO.P,U2,1,GND*%
%TO.N,GND*%
X155956000Y-69596000D03*
D14*
%TO.P,U2,2,VCC*%
%TO.N,+3.3V*%
X158496000Y-69596000D03*
%TO.P,U2,3,AO1*%
%TO.N,Net-(J8-Pin_6)*%
X161036000Y-69596000D03*
%TO.P,U2,4,AO2*%
%TO.N,Net-(J8-Pin_1)*%
X163576000Y-69596000D03*
%TO.P,U2,5,BO2*%
%TO.N,unconnected-(U2-BO2-Pad5)*%
X166116000Y-69596000D03*
%TO.P,U2,6,BO1*%
%TO.N,unconnected-(U2-BO1-Pad6)*%
X168656000Y-69596000D03*
%TO.P,U2,7,VMOT*%
%TO.N,+12V*%
X171196000Y-69596000D03*
%TO.P,U2,8,GND*%
%TO.N,GND*%
X173736000Y-69596000D03*
%TO.P,U2,9,GND*%
X173736000Y-56896000D03*
%TO.P,U2,10,PWMB*%
%TO.N,unconnected-(U2-PWMB-Pad10)*%
X171196000Y-56896000D03*
%TO.P,U2,11,BIN2*%
%TO.N,unconnected-(U2-BIN2-Pad11)*%
X168656000Y-56896000D03*
%TO.P,U2,12,BIN1*%
%TO.N,unconnected-(U2-BIN1-Pad12)*%
X166116000Y-56896000D03*
%TO.P,U2,13,nSTBY*%
%TO.N,+3.3V*%
X163576000Y-56896000D03*
%TO.P,U2,14,AIN1*%
%TO.N,Net-(J9-AIN1)*%
X161036000Y-56896000D03*
%TO.P,U2,15,AIN2*%
%TO.N,Net-(J9-AIN2)*%
X158496000Y-56896000D03*
%TO.P,U2,16,PWMA*%
%TO.N,Net-(J9-PWMA)*%
X155956000Y-56896000D03*
%TD*%
D25*
%TO.N,GND*%
X140970000Y-99060000D03*
X143256000Y-87884000D03*
X162560000Y-85725000D03*
X189230000Y-81788000D03*
X139700000Y-78105000D03*
X158750000Y-75565000D03*
X161925000Y-88900000D03*
X153035000Y-92710000D03*
X145415000Y-75565000D03*
X157480000Y-89916000D03*
%TO.N,+3.3V*%
X149225000Y-61595000D03*
X154453577Y-85725000D03*
%TO.N,Net-(J8-Pin_4)*%
X158115000Y-60325000D03*
%TD*%
D26*
%TO.N,GND*%
X126682500Y-80010000D02*
X125095000Y-80010000D01*
X127508000Y-79184500D02*
X126682500Y-80010000D01*
X127127000Y-69215000D02*
X127508000Y-69596000D01*
X127508000Y-69596000D02*
X127508000Y-79184500D01*
X125116201Y-69215000D02*
X127127000Y-69215000D01*
X135890000Y-89154000D02*
X126746000Y-80010000D01*
X135890000Y-93980000D02*
X135890000Y-89154000D01*
X140970000Y-99060000D02*
X135890000Y-93980000D01*
X145034000Y-103124000D02*
X146812000Y-103124000D01*
X140970000Y-99060000D02*
X145034000Y-103124000D01*
X148336000Y-103124000D02*
X146812000Y-103124000D01*
X153035000Y-98425000D02*
X148336000Y-103124000D01*
X153035000Y-92710000D02*
X153035000Y-98425000D01*
X148463000Y-103124000D02*
X146812000Y-103124000D01*
X154559000Y-109220000D02*
X148463000Y-103124000D01*
X183896000Y-107696000D02*
X183896000Y-109220000D01*
X183896000Y-109220000D02*
X154559000Y-109220000D01*
X162687000Y-62865000D02*
X155956000Y-69596000D01*
X169291000Y-62865000D02*
X162687000Y-62865000D01*
X173736000Y-56896000D02*
X173736000Y-58420000D01*
X173736000Y-58420000D02*
X169291000Y-62865000D01*
X106045000Y-99060000D02*
X104140000Y-97155000D01*
X104140000Y-97155000D02*
X104140000Y-92710000D01*
X116840000Y-80010000D02*
X118110000Y-80010000D01*
X107950000Y-99060000D02*
X106045000Y-99060000D01*
X104140000Y-92710000D02*
X116840000Y-80010000D01*
D27*
X108030000Y-99060000D02*
X107950000Y-99060000D01*
X109220000Y-100250000D02*
X108030000Y-99060000D01*
X109220000Y-100250000D02*
X106680000Y-102790000D01*
X109220000Y-100250000D02*
X111760000Y-102790000D01*
X110156000Y-99314000D02*
X110236000Y-99314000D01*
X109220000Y-100250000D02*
X110156000Y-99314000D01*
D26*
%TO.N,Net-(J9-STEP)*%
X173355000Y-102997000D02*
X171196000Y-105156000D01*
X173355000Y-88778421D02*
X173355000Y-102997000D01*
X171571579Y-86995000D02*
X173355000Y-88778421D01*
X142240000Y-75184000D02*
X154051000Y-86995000D01*
X142240000Y-66010000D02*
X142240000Y-75184000D01*
X154051000Y-86995000D02*
X171571579Y-86995000D01*
X139160000Y-62930000D02*
X142240000Y-66010000D01*
%TO.N,+3.3V*%
X142875000Y-74793694D02*
X142875000Y-64645000D01*
X153806306Y-85725000D02*
X142875000Y-74793694D01*
X154453577Y-85725000D02*
X153806306Y-85725000D01*
X142875000Y-64645000D02*
X139160000Y-60930000D01*
%TO.N,GND*%
X162560000Y-82550000D02*
X162560000Y-85725000D01*
X158750000Y-78740000D02*
X162560000Y-82550000D01*
X158750000Y-75565000D02*
X158750000Y-78740000D01*
X158750000Y-74930000D02*
X155956000Y-72136000D01*
X155956000Y-72136000D02*
X155956000Y-69596000D01*
X158750000Y-75565000D02*
X158750000Y-74930000D01*
X172611000Y-70721000D02*
X157081000Y-70721000D01*
X198437500Y-106997500D02*
X196215000Y-109220000D01*
X125095000Y-80010000D02*
X126746000Y-80010000D01*
X102870000Y-53340000D02*
X105410000Y-50800000D01*
X189230000Y-81788000D02*
X189230000Y-87122000D01*
X173736000Y-69596000D02*
X172611000Y-70721000D01*
X160909000Y-89916000D02*
X157480000Y-89916000D01*
X107259999Y-58420000D02*
X107259999Y-67310000D01*
X128651000Y-78105000D02*
X126746000Y-80010000D01*
X137160000Y-60930000D02*
X135661700Y-62428300D01*
X185404801Y-69596000D02*
X173736000Y-69596000D01*
X129921000Y-64410201D02*
X125116201Y-69215000D01*
X194303900Y-60696901D02*
X185404801Y-69596000D01*
X157081000Y-70721000D02*
X155956000Y-69596000D01*
X135661700Y-62428300D02*
X129976700Y-62428300D01*
X129976700Y-62428300D02*
X129921000Y-62484000D01*
X102870000Y-109220000D02*
X104775000Y-107315000D01*
X161925000Y-88900000D02*
X160909000Y-89916000D01*
X200660000Y-109220000D02*
X198437500Y-106997500D01*
X200660000Y-53340000D02*
X198437500Y-51117500D01*
X189230000Y-87122000D02*
X183896000Y-92456000D01*
X109164999Y-69215000D02*
X125116201Y-69215000D01*
X129921000Y-62484000D02*
X129921000Y-64410201D01*
X157480000Y-89916000D02*
X171196000Y-89916000D01*
X104775000Y-107315000D02*
X107315000Y-107315000D01*
X139700000Y-78105000D02*
X128651000Y-78105000D01*
X107259999Y-67310000D02*
X109164999Y-69215000D01*
X105410000Y-50800000D02*
X107315000Y-52705000D01*
X198437500Y-51117500D02*
X197485000Y-52070000D01*
X118110000Y-80010000D02*
X125095000Y-80010000D01*
D28*
%TO.N,Net-(J6-VCC)*%
X109220000Y-95250000D02*
X120650000Y-95250000D01*
D26*
%TO.N,+3.3V*%
X148560000Y-60930000D02*
X139160000Y-60930000D01*
X149225000Y-61595000D02*
X148560000Y-60930000D01*
D29*
%TO.N,Net-(J8-Pin_1)*%
X194303900Y-56736901D02*
X185000801Y-66040000D01*
X167132000Y-66040000D02*
X163576000Y-69596000D01*
X185000801Y-66040000D02*
X167132000Y-66040000D01*
D26*
%TO.N,Net-(J8-Pin_4)*%
X165735000Y-55245000D02*
X194870104Y-55245000D01*
X158115000Y-60325000D02*
X161925000Y-60325000D01*
X196215000Y-56589896D02*
X196215000Y-66705800D01*
X194870104Y-55245000D02*
X196215000Y-56589896D01*
X196215000Y-66705800D02*
X194303900Y-68616900D01*
X161925000Y-60325000D02*
X164991000Y-57259000D01*
X164991000Y-57259000D02*
X164991000Y-55989000D01*
X164991000Y-55989000D02*
X165735000Y-55245000D01*
%TO.N,Net-(J9-DIR)*%
X171196000Y-107696000D02*
X140085000Y-76585000D01*
X139610000Y-67855000D02*
X136776852Y-67855000D01*
X140085000Y-68330000D02*
X139610000Y-67855000D01*
X140085000Y-76585000D02*
X140085000Y-68330000D01*
X136235000Y-63855000D02*
X137160000Y-62930000D01*
X136776852Y-67855000D02*
X136235000Y-67313148D01*
X136235000Y-67313148D02*
X136235000Y-63855000D01*
%TO.N,Net-(J9-MS3)*%
X172698000Y-89168000D02*
X172698000Y-96034000D01*
X141605000Y-67375000D02*
X141605000Y-75565000D01*
X172698000Y-96034000D02*
X171196000Y-97536000D01*
X139160000Y-64930000D02*
X141605000Y-67375000D01*
X141605000Y-75565000D02*
X153670000Y-87630000D01*
X171160000Y-87630000D02*
X172698000Y-89168000D01*
X153670000Y-87630000D02*
X171160000Y-87630000D01*
%TO.N,Net-(J9-MS2)*%
X139616686Y-66005000D02*
X140982579Y-67370893D01*
X140982579Y-67370893D02*
X140982579Y-75882500D01*
X172321000Y-91990009D02*
X172321000Y-93871000D01*
X172321000Y-93871000D02*
X171196000Y-94996000D01*
X140982579Y-75882500D02*
X156431079Y-91331000D01*
X156431079Y-91331000D02*
X171661991Y-91331000D01*
X137160000Y-64930000D02*
X138235000Y-66005000D01*
X138235000Y-66005000D02*
X139616686Y-66005000D01*
X171661991Y-91331000D02*
X172321000Y-91990009D01*
%TO.N,Net-(J9-MS1)*%
X156718000Y-92456000D02*
X171196000Y-92456000D01*
X140008528Y-66930000D02*
X140462000Y-67383472D01*
X140462000Y-67383472D02*
X140462000Y-76200000D01*
X139160000Y-66930000D02*
X140008528Y-66930000D01*
X140462000Y-76200000D02*
X156718000Y-92456000D01*
%TD*%
%TA.AperFunction,Conductor*%
%TO.N,GND*%
G36*
X101825770Y-109581411D02*
G01*
X101913038Y-109772502D01*
X102034894Y-109943624D01*
X102186932Y-110088592D01*
X102363658Y-110202167D01*
X102528818Y-110268287D01*
X101561340Y-111235765D01*
X101561340Y-111235766D01*
X101581467Y-111250388D01*
X101846109Y-111395877D01*
X101846112Y-111395879D01*
X101937447Y-111432041D01*
X102060718Y-111502587D01*
X102159122Y-111605005D01*
X102224684Y-111730997D01*
X102252095Y-111870358D01*
X102239133Y-112011795D01*
X102186848Y-112143852D01*
X102099477Y-112255829D01*
X101984097Y-112338654D01*
X101850057Y-112385619D01*
X101753754Y-112395000D01*
X100194000Y-112395000D01*
X100053415Y-112374787D01*
X99924220Y-112315786D01*
X99816881Y-112222776D01*
X99740094Y-112103292D01*
X99700079Y-111967015D01*
X99695000Y-111896000D01*
X99695000Y-110341902D01*
X99715213Y-110201317D01*
X99774214Y-110072122D01*
X99867224Y-109964783D01*
X99986708Y-109887996D01*
X100122985Y-109847981D01*
X100265015Y-109847981D01*
X100401292Y-109887996D01*
X100520776Y-109964783D01*
X100613786Y-110072122D01*
X100645509Y-110129438D01*
X100762708Y-110378500D01*
X100856538Y-110526352D01*
X101821027Y-109561863D01*
X101825770Y-109581411D01*
G37*
%TD.AperFunction*%
%TA.AperFunction,Conductor*%
G36*
X169605191Y-88275713D02*
G01*
X169734386Y-88334714D01*
X169841725Y-88427724D01*
X169918512Y-88547208D01*
X169958527Y-88683485D01*
X169958527Y-88825515D01*
X169932144Y-88928882D01*
X169902402Y-89008622D01*
X169902402Y-89008623D01*
X169896000Y-89068175D01*
X169896000Y-89416000D01*
X171197000Y-89416000D01*
X171337585Y-89436213D01*
X171466780Y-89495214D01*
X171574119Y-89588224D01*
X171650906Y-89707708D01*
X171690921Y-89843985D01*
X171696000Y-89915000D01*
X171696000Y-89917000D01*
X171675787Y-90057585D01*
X171616786Y-90186780D01*
X171523776Y-90294119D01*
X171404292Y-90370906D01*
X171268015Y-90410921D01*
X171197000Y-90416000D01*
X169895999Y-90416000D01*
X169752653Y-90559346D01*
X169638952Y-90644462D01*
X169505877Y-90694096D01*
X169399807Y-90705500D01*
X156896862Y-90705500D01*
X156756277Y-90685287D01*
X156627082Y-90626286D01*
X156544016Y-90559346D01*
X155900670Y-89916000D01*
X170791014Y-89916000D01*
X170810835Y-90041148D01*
X170868359Y-90154045D01*
X170957955Y-90243641D01*
X171070852Y-90301165D01*
X171164519Y-90316000D01*
X171227481Y-90316000D01*
X171321148Y-90301165D01*
X171434045Y-90243641D01*
X171523641Y-90154045D01*
X171581165Y-90041148D01*
X171600986Y-89916000D01*
X171581165Y-89790852D01*
X171523641Y-89677955D01*
X171434045Y-89588359D01*
X171321148Y-89530835D01*
X171227481Y-89516000D01*
X171164519Y-89516000D01*
X171070852Y-89530835D01*
X170957955Y-89588359D01*
X170868359Y-89677955D01*
X170810835Y-89790852D01*
X170791014Y-89916000D01*
X155900670Y-89916000D01*
X155092016Y-89107346D01*
X155006900Y-88993645D01*
X154957266Y-88860570D01*
X154947133Y-88718902D01*
X154977324Y-88580117D01*
X155045392Y-88455460D01*
X155145822Y-88355030D01*
X155270479Y-88286962D01*
X155409264Y-88256771D01*
X155444862Y-88255500D01*
X169464606Y-88255500D01*
X169605191Y-88275713D01*
G37*
%TD.AperFunction*%
%TA.AperFunction,Conductor*%
G36*
X199684339Y-50185213D02*
G01*
X199813534Y-50244214D01*
X199920873Y-50337224D01*
X199997660Y-50456708D01*
X200037675Y-50592985D01*
X200037675Y-50735015D01*
X199997660Y-50871292D01*
X199920873Y-50990776D01*
X199813534Y-51083786D01*
X199727447Y-51127959D01*
X199636112Y-51164120D01*
X199636109Y-51164122D01*
X199371470Y-51309609D01*
X199351339Y-51324233D01*
X200320386Y-52293280D01*
X200249311Y-52314150D01*
X200062590Y-52410411D01*
X199897460Y-52540271D01*
X199759890Y-52699035D01*
X199654853Y-52880965D01*
X199613458Y-53000564D01*
X198646539Y-52033646D01*
X198552705Y-52181506D01*
X198424127Y-52454746D01*
X198330802Y-52741969D01*
X198274217Y-53038601D01*
X198274215Y-53038612D01*
X198255255Y-53339993D01*
X198255255Y-53340006D01*
X198274215Y-53641387D01*
X198274217Y-53641398D01*
X198330802Y-53938030D01*
X198424126Y-54225249D01*
X198552708Y-54498500D01*
X198646538Y-54646352D01*
X199611027Y-53681863D01*
X199615770Y-53701411D01*
X199703038Y-53892502D01*
X199824894Y-54063624D01*
X199976932Y-54208592D01*
X200153658Y-54322167D01*
X200318818Y-54388287D01*
X199351340Y-55355765D01*
X199351340Y-55355766D01*
X199371467Y-55370388D01*
X199636109Y-55515877D01*
X199636112Y-55515879D01*
X199916892Y-55627047D01*
X199916896Y-55627048D01*
X200209395Y-55702149D01*
X200209405Y-55702151D01*
X200508994Y-55739999D01*
X200509007Y-55740000D01*
X200810993Y-55740000D01*
X200811005Y-55739999D01*
X201110594Y-55702151D01*
X201110604Y-55702149D01*
X201403103Y-55627048D01*
X201403107Y-55627047D01*
X201683887Y-55515879D01*
X201683898Y-55515874D01*
X201948522Y-55370395D01*
X201948530Y-55370390D01*
X201968658Y-55355766D01*
X201968659Y-55355765D01*
X200999613Y-54386719D01*
X201070689Y-54365850D01*
X201257410Y-54269589D01*
X201422540Y-54139729D01*
X201560110Y-53980965D01*
X201665147Y-53799035D01*
X201706541Y-53679434D01*
X202673459Y-54646352D01*
X202673460Y-54646352D01*
X202767291Y-54498499D01*
X202884491Y-54249438D01*
X202962638Y-54130840D01*
X203071033Y-54039062D01*
X203200894Y-53981540D01*
X203341700Y-53962935D01*
X203482045Y-53984752D01*
X203610557Y-54045226D01*
X203716827Y-54139456D01*
X203792245Y-54259809D01*
X203830700Y-54396534D01*
X203835000Y-54461902D01*
X203835000Y-108098097D01*
X203814787Y-108238682D01*
X203755786Y-108367877D01*
X203662776Y-108475216D01*
X203543292Y-108552003D01*
X203407015Y-108592018D01*
X203264985Y-108592018D01*
X203128708Y-108552003D01*
X203009224Y-108475216D01*
X202916214Y-108367877D01*
X202884492Y-108310561D01*
X202767298Y-108061512D01*
X202767289Y-108061496D01*
X202673460Y-107913645D01*
X201708971Y-108878134D01*
X201704230Y-108858589D01*
X201616962Y-108667498D01*
X201495106Y-108496376D01*
X201343068Y-108351408D01*
X201166342Y-108237833D01*
X201001180Y-108171711D01*
X201968658Y-107204232D01*
X201968659Y-107204232D01*
X201948523Y-107189604D01*
X201683898Y-107044125D01*
X201683887Y-107044120D01*
X201403107Y-106932952D01*
X201403103Y-106932951D01*
X201110604Y-106857850D01*
X201110594Y-106857848D01*
X200811005Y-106820000D01*
X200508994Y-106820000D01*
X200209405Y-106857848D01*
X200209395Y-106857850D01*
X199916896Y-106932951D01*
X199916892Y-106932952D01*
X199636112Y-107044120D01*
X199636109Y-107044122D01*
X199371470Y-107189609D01*
X199351339Y-107204233D01*
X200320386Y-108173280D01*
X200249311Y-108194150D01*
X200062590Y-108290411D01*
X199897460Y-108420271D01*
X199759890Y-108579035D01*
X199654853Y-108760965D01*
X199613458Y-108880564D01*
X198646539Y-107913646D01*
X198552705Y-108061506D01*
X198424127Y-108334746D01*
X198330802Y-108621969D01*
X198274217Y-108918601D01*
X198274215Y-108918612D01*
X198255255Y-109219993D01*
X198255255Y-109220006D01*
X198274215Y-109521387D01*
X198274217Y-109521398D01*
X198330802Y-109818030D01*
X198424126Y-110105249D01*
X198552708Y-110378500D01*
X198646538Y-110526352D01*
X199611027Y-109561863D01*
X199615770Y-109581411D01*
X199703038Y-109772502D01*
X199824894Y-109943624D01*
X199976932Y-110088592D01*
X200153658Y-110202167D01*
X200318818Y-110268287D01*
X199351340Y-111235765D01*
X199351340Y-111235766D01*
X199371467Y-111250388D01*
X199636109Y-111395877D01*
X199636112Y-111395879D01*
X199727447Y-111432041D01*
X199850718Y-111502587D01*
X199949122Y-111605005D01*
X200014684Y-111730997D01*
X200042095Y-111870358D01*
X200029133Y-112011795D01*
X199976848Y-112143852D01*
X199889477Y-112255829D01*
X199774097Y-112338654D01*
X199640057Y-112385619D01*
X199543754Y-112395000D01*
X103986246Y-112395000D01*
X103845661Y-112374787D01*
X103716466Y-112315786D01*
X103609127Y-112222776D01*
X103532340Y-112103292D01*
X103492325Y-111967015D01*
X103492325Y-111824985D01*
X103532340Y-111688708D01*
X103609127Y-111569224D01*
X103716466Y-111476214D01*
X103802553Y-111432041D01*
X103893887Y-111395879D01*
X103893898Y-111395874D01*
X104158522Y-111250395D01*
X104158530Y-111250390D01*
X104178658Y-111235766D01*
X104178659Y-111235765D01*
X103209613Y-110266719D01*
X103280689Y-110245850D01*
X103467410Y-110149589D01*
X103632540Y-110019729D01*
X103770110Y-109860965D01*
X103875147Y-109679035D01*
X103916541Y-109559434D01*
X104883459Y-110526352D01*
X104883460Y-110526352D01*
X104977291Y-110378499D01*
X105105873Y-110105249D01*
X105199197Y-109818030D01*
X105255782Y-109521398D01*
X105255784Y-109521387D01*
X105274745Y-109220006D01*
X105274745Y-109219993D01*
X105255784Y-108918612D01*
X105255782Y-108918601D01*
X105199197Y-108621969D01*
X105105873Y-108334750D01*
X104977291Y-108061499D01*
X104977289Y-108061496D01*
X104883460Y-107913645D01*
X103918971Y-108878134D01*
X103914230Y-108858589D01*
X103826962Y-108667498D01*
X103705106Y-108496376D01*
X103553068Y-108351408D01*
X103376342Y-108237833D01*
X103211180Y-108171711D01*
X104178658Y-107204232D01*
X104178659Y-107204232D01*
X104158523Y-107189604D01*
X103893898Y-107044125D01*
X103893887Y-107044120D01*
X103613107Y-106932952D01*
X103613103Y-106932951D01*
X103320604Y-106857850D01*
X103320594Y-106857848D01*
X103021005Y-106820000D01*
X102718994Y-106820000D01*
X102419405Y-106857848D01*
X102419395Y-106857850D01*
X102126896Y-106932951D01*
X102126892Y-106932952D01*
X101846112Y-107044120D01*
X101846109Y-107044122D01*
X101581470Y-107189609D01*
X101561339Y-107204233D01*
X102530386Y-108173280D01*
X102459311Y-108194150D01*
X102272590Y-108290411D01*
X102107460Y-108420271D01*
X101969890Y-108579035D01*
X101864853Y-108760965D01*
X101823458Y-108880565D01*
X100856539Y-107913646D01*
X100762705Y-108061506D01*
X100645508Y-108310562D01*
X100567361Y-108429160D01*
X100458966Y-108520938D01*
X100329105Y-108578459D01*
X100188298Y-108597064D01*
X100047954Y-108575246D01*
X99919441Y-108514773D01*
X99813172Y-108420542D01*
X99737755Y-108300189D01*
X99699300Y-108163464D01*
X99695000Y-108098097D01*
X99695000Y-103624000D01*
X145555592Y-103624000D01*
X145638398Y-103801576D01*
X145638398Y-103801577D01*
X145773890Y-103995078D01*
X145773894Y-103995083D01*
X145940918Y-104162107D01*
X146134422Y-104297600D01*
X146312000Y-104380405D01*
X146312000Y-103624000D01*
X145555592Y-103624000D01*
X99695000Y-103624000D01*
X99695000Y-101324762D01*
X108852343Y-101324762D01*
X108908058Y-101346347D01*
X108908069Y-101346350D01*
X109114818Y-101384999D01*
X109114828Y-101385000D01*
X109325172Y-101385000D01*
X109325181Y-101384999D01*
X109531927Y-101346351D01*
X109531940Y-101346347D01*
X109587655Y-101324762D01*
X109220000Y-100957107D01*
X108852343Y-101324762D01*
X99695000Y-101324762D01*
X99695000Y-100250005D01*
X108080138Y-100250005D01*
X108099544Y-100459442D01*
X108099547Y-100459456D01*
X108144708Y-100618182D01*
X108144709Y-100618182D01*
X108480994Y-100281898D01*
X108835051Y-100281898D01*
X108866266Y-100405162D01*
X108935813Y-100511612D01*
X109036157Y-100589713D01*
X109156422Y-100631000D01*
X109251569Y-100631000D01*
X109345421Y-100615339D01*
X109457251Y-100554820D01*
X109543371Y-100461269D01*
X109594448Y-100344823D01*
X109602306Y-100250001D01*
X109927107Y-100250001D01*
X110295289Y-100618183D01*
X110340453Y-100459449D01*
X110340455Y-100459437D01*
X110359862Y-100250005D01*
X110359862Y-100249994D01*
X110340455Y-100040556D01*
X110340454Y-100040554D01*
X110295290Y-99881816D01*
X109927107Y-100250000D01*
X109927107Y-100250001D01*
X109602306Y-100250001D01*
X109604949Y-100218102D01*
X109573734Y-100094838D01*
X109504187Y-99988388D01*
X109403843Y-99910287D01*
X109283578Y-99869000D01*
X109188431Y-99869000D01*
X109094579Y-99884661D01*
X108982749Y-99945180D01*
X108896629Y-100038731D01*
X108845552Y-100155177D01*
X108835051Y-100281898D01*
X108480994Y-100281898D01*
X108512892Y-100250000D01*
X108144709Y-99881816D01*
X108099546Y-100040550D01*
X108099544Y-100040558D01*
X108080138Y-100249994D01*
X108080138Y-100250005D01*
X99695000Y-100250005D01*
X99695000Y-95160297D01*
X105965793Y-95160297D01*
X105975676Y-95518837D01*
X106024938Y-95874086D01*
X106024941Y-95874103D01*
X106112989Y-96221798D01*
X106112992Y-96221807D01*
X106112993Y-96221809D01*
X106238745Y-96557682D01*
X106238750Y-96557693D01*
X106238752Y-96557697D01*
X106238753Y-96557698D01*
X106400696Y-96877707D01*
X106400700Y-96877714D01*
X106400704Y-96877721D01*
X106596878Y-97177988D01*
X106596879Y-97177989D01*
X106596878Y-97177989D01*
X106764868Y-97381967D01*
X106824893Y-97454852D01*
X106908307Y-97535998D01*
X107081982Y-97704952D01*
X107081987Y-97704956D01*
X107228509Y-97818999D01*
X107365022Y-97925251D01*
X107670580Y-98113077D01*
X107994946Y-98266149D01*
X107994951Y-98266150D01*
X107994956Y-98266153D01*
X108178179Y-98329053D01*
X108334183Y-98382609D01*
X108507765Y-98421509D01*
X108640526Y-98471976D01*
X108753692Y-98557802D01*
X108838094Y-98672034D01*
X108886894Y-98805417D01*
X108896139Y-98947146D01*
X108886897Y-99011430D01*
X108852342Y-99175234D01*
X109220000Y-99542892D01*
X109587656Y-99175235D01*
X109572312Y-99102498D01*
X109563071Y-98960769D01*
X109594135Y-98822177D01*
X109662987Y-98697951D01*
X109764048Y-98598155D01*
X109889131Y-98530873D01*
X110028102Y-98501557D01*
X110060566Y-98500500D01*
X117967344Y-98500500D01*
X118107929Y-98520713D01*
X118237124Y-98579714D01*
X118344463Y-98672724D01*
X118421250Y-98792208D01*
X118461265Y-98928485D01*
X118461265Y-99070515D01*
X118421250Y-99206792D01*
X118346787Y-99323574D01*
X118228259Y-99462352D01*
X118104441Y-99664406D01*
X118104436Y-99664414D01*
X118013758Y-99883329D01*
X117958439Y-100113754D01*
X117958438Y-100113760D01*
X117939845Y-100350000D01*
X117958438Y-100586240D01*
X117958438Y-100586243D01*
X117958439Y-100586245D01*
X118013758Y-100816670D01*
X118104436Y-101035585D01*
X118104440Y-101035591D01*
X118104442Y-101035596D01*
X118166029Y-101136097D01*
X118228259Y-101237648D01*
X118382158Y-101417841D01*
X118562351Y-101571740D01*
X118562353Y-101571741D01*
X118764404Y-101695558D01*
X118764409Y-101695560D01*
X118764414Y-101695563D01*
X118983331Y-101786241D01*
X118983328Y-101786241D01*
X118983335Y-101786242D01*
X118983336Y-101786243D01*
X119213760Y-101841562D01*
X119450000Y-101860155D01*
X119686240Y-101841562D01*
X119916664Y-101786243D01*
X119916667Y-101786241D01*
X119916670Y-101786241D01*
X120135585Y-101695563D01*
X120135587Y-101695561D01*
X120135596Y-101695558D01*
X120337647Y-101571741D01*
X120442867Y-101481875D01*
X145461500Y-101481875D01*
X145461501Y-101481880D01*
X145467908Y-101541480D01*
X145467909Y-101541484D01*
X145518202Y-101676326D01*
X145518206Y-101676334D01*
X145625841Y-101820115D01*
X145624808Y-101820887D01*
X145683164Y-101898841D01*
X145732798Y-102031916D01*
X145742931Y-102173584D01*
X145712740Y-102312369D01*
X145653963Y-102424194D01*
X145638403Y-102446415D01*
X145638398Y-102446424D01*
X145555594Y-102624000D01*
X146776237Y-102624000D01*
X146669685Y-102639320D01*
X146538900Y-102699048D01*
X146430239Y-102793202D01*
X146352507Y-102914156D01*
X146312000Y-103052111D01*
X146312000Y-103195889D01*
X146352507Y-103333844D01*
X146430239Y-103454798D01*
X146538900Y-103548952D01*
X146669685Y-103608680D01*
X146776237Y-103624000D01*
X146847763Y-103624000D01*
X147312000Y-103624000D01*
X147312000Y-104380405D01*
X147489577Y-104297600D01*
X147683081Y-104162107D01*
X147850105Y-103995083D01*
X147850109Y-103995078D01*
X147985601Y-103801577D01*
X147985601Y-103801576D01*
X148068407Y-103624000D01*
X147312000Y-103624000D01*
X146847763Y-103624000D01*
X146954315Y-103608680D01*
X147085100Y-103548952D01*
X147193761Y-103454798D01*
X147271493Y-103333844D01*
X147312000Y-103195889D01*
X147312000Y-103052111D01*
X147271493Y-102914156D01*
X147193761Y-102793202D01*
X147085100Y-102699048D01*
X146954315Y-102639320D01*
X146847763Y-102624000D01*
X148068406Y-102624000D01*
X147985601Y-102446424D01*
X147985597Y-102446418D01*
X147970041Y-102424201D01*
X147905962Y-102297447D01*
X147880190Y-102157775D01*
X147894811Y-102016500D01*
X147948643Y-101885066D01*
X147998624Y-101820463D01*
X147998159Y-101820115D01*
X148019546Y-101791546D01*
X148105796Y-101676331D01*
X148156091Y-101541483D01*
X148162500Y-101481873D01*
X148162499Y-99686128D01*
X148156091Y-99626517D01*
X148105796Y-99491669D01*
X148019546Y-99376454D01*
X147904331Y-99290204D01*
X147904327Y-99290202D01*
X147904324Y-99290201D01*
X147769485Y-99239909D01*
X147749613Y-99237772D01*
X147709873Y-99233500D01*
X147709869Y-99233500D01*
X145914124Y-99233500D01*
X145914119Y-99233501D01*
X145854519Y-99239908D01*
X145854515Y-99239909D01*
X145719673Y-99290202D01*
X145719665Y-99290206D01*
X145604454Y-99376454D01*
X145518206Y-99491665D01*
X145518201Y-99491675D01*
X145467909Y-99626514D01*
X145467588Y-99629501D01*
X145461501Y-99686124D01*
X145461500Y-99686130D01*
X145461500Y-101481875D01*
X120442867Y-101481875D01*
X120517841Y-101417841D01*
X120671741Y-101237647D01*
X120795558Y-101035596D01*
X120795563Y-101035585D01*
X120886241Y-100816670D01*
X120886241Y-100816667D01*
X120886243Y-100816664D01*
X120941562Y-100586240D01*
X120960155Y-100350000D01*
X120941562Y-100113760D01*
X120886243Y-99883336D01*
X120886242Y-99883334D01*
X120886241Y-99883329D01*
X120795563Y-99664414D01*
X120795560Y-99664409D01*
X120795558Y-99664404D01*
X120671741Y-99462353D01*
X120671740Y-99462351D01*
X120545144Y-99314126D01*
X120469212Y-99194097D01*
X120430172Y-99057538D01*
X120431186Y-98915511D01*
X120472173Y-98779524D01*
X120549811Y-98660592D01*
X120657812Y-98568351D01*
X120787425Y-98510273D01*
X120897092Y-98491810D01*
X121008125Y-98485685D01*
X121361904Y-98426650D01*
X121707041Y-98329054D01*
X122039346Y-98194083D01*
X122354787Y-98023375D01*
X122649534Y-97819002D01*
X122920010Y-97583445D01*
X123162931Y-97319562D01*
X123375348Y-97030559D01*
X123554683Y-96719941D01*
X123698759Y-96391481D01*
X123805827Y-96049164D01*
X123874588Y-95697147D01*
X123904207Y-95339702D01*
X123894324Y-94981168D01*
X123845059Y-94625897D01*
X123757011Y-94278202D01*
X123693484Y-94108528D01*
X123631254Y-93942317D01*
X123631250Y-93942310D01*
X123631248Y-93942303D01*
X123469296Y-93622279D01*
X123273122Y-93322012D01*
X123273120Y-93322010D01*
X123273121Y-93322010D01*
X123045109Y-93045151D01*
X123045107Y-93045148D01*
X122788019Y-92795049D01*
X122788017Y-92795047D01*
X122788012Y-92795043D01*
X122504980Y-92574750D01*
X122504975Y-92574747D01*
X122199422Y-92386924D01*
X121875043Y-92233846D01*
X121535821Y-92117392D01*
X121535814Y-92117390D01*
X121407873Y-92088718D01*
X121185828Y-92038957D01*
X121185822Y-92038956D01*
X121185821Y-92038956D01*
X121185819Y-92038955D01*
X120829349Y-91999500D01*
X120829335Y-91999500D01*
X109130405Y-91999500D01*
X109130400Y-91999500D01*
X108861885Y-92014313D01*
X108861875Y-92014314D01*
X108508105Y-92073348D01*
X108508101Y-92073349D01*
X108508099Y-92073349D01*
X108508096Y-92073350D01*
X108352354Y-92117390D01*
X108162958Y-92170946D01*
X107830652Y-92305917D01*
X107515213Y-92476624D01*
X107220463Y-92681000D01*
X106949998Y-92916546D01*
X106949995Y-92916549D01*
X106707071Y-93180434D01*
X106494658Y-93469432D01*
X106494653Y-93469439D01*
X106315315Y-93780062D01*
X106171243Y-94108512D01*
X106171237Y-94108528D01*
X106064176Y-94450824D01*
X106064172Y-94450841D01*
X105995412Y-94802851D01*
X105965793Y-95160297D01*
X99695000Y-95160297D01*
X99695000Y-80772000D01*
X107635114Y-80772000D01*
X107654627Y-81019932D01*
X107712683Y-81261754D01*
X107712684Y-81261757D01*
X107807856Y-81491523D01*
X107937802Y-81703576D01*
X108099315Y-81892684D01*
X108288423Y-82054197D01*
X108288427Y-82054200D01*
X108500477Y-82184144D01*
X108730243Y-82279316D01*
X108972069Y-82337373D01*
X109220000Y-82356886D01*
X109467931Y-82337373D01*
X109709757Y-82279316D01*
X109939523Y-82184144D01*
X110151573Y-82054200D01*
X110340684Y-81892684D01*
X110502200Y-81703573D01*
X110632144Y-81491523D01*
X110727316Y-81261757D01*
X110785373Y-81019931D01*
X110804886Y-80772000D01*
X110785373Y-80524069D01*
X110727316Y-80282243D01*
X110632144Y-80052477D01*
X110502200Y-79840427D01*
X110502197Y-79840423D01*
X110340684Y-79651315D01*
X110151576Y-79489802D01*
X109939523Y-79359856D01*
X109691643Y-79257181D01*
X109692248Y-79255719D01*
X109584435Y-79202712D01*
X109479795Y-79106675D01*
X109406450Y-78985048D01*
X109370343Y-78847684D01*
X109374398Y-78705711D01*
X109418287Y-78570632D01*
X109498455Y-78453390D01*
X109608406Y-78363483D01*
X109692008Y-78325302D01*
X109691643Y-78324419D01*
X109709757Y-78316916D01*
X109939523Y-78221744D01*
X110151573Y-78091800D01*
X110340684Y-77930284D01*
X110502200Y-77741173D01*
X110632144Y-77529123D01*
X110727316Y-77299357D01*
X110785373Y-77057531D01*
X110804886Y-76809600D01*
X110785373Y-76561669D01*
X110727316Y-76319843D01*
X110632144Y-76090077D01*
X110502200Y-75878027D01*
X110502197Y-75878023D01*
X110340684Y-75688915D01*
X110151576Y-75527402D01*
X109939523Y-75397456D01*
X109709757Y-75302284D01*
X109709754Y-75302283D01*
X109467932Y-75244227D01*
X109220000Y-75224714D01*
X108972067Y-75244227D01*
X108730245Y-75302283D01*
X108730242Y-75302284D01*
X108500476Y-75397456D01*
X108288423Y-75527402D01*
X108099315Y-75688915D01*
X107937802Y-75878023D01*
X107807856Y-76090076D01*
X107712684Y-76319842D01*
X107712683Y-76319845D01*
X107654627Y-76561667D01*
X107635114Y-76809600D01*
X107654627Y-77057532D01*
X107712683Y-77299354D01*
X107712684Y-77299357D01*
X107807856Y-77529123D01*
X107937802Y-77741176D01*
X108099315Y-77930284D01*
X108288423Y-78091797D01*
X108288427Y-78091800D01*
X108500477Y-78221744D01*
X108730243Y-78316916D01*
X108748357Y-78324419D01*
X108747751Y-78325880D01*
X108855572Y-78378893D01*
X108960210Y-78474932D01*
X109033552Y-78596561D01*
X109069657Y-78733925D01*
X109065599Y-78875897D01*
X109021708Y-79010975D01*
X108941538Y-79128216D01*
X108831585Y-79218122D01*
X108747991Y-79256297D01*
X108748357Y-79257181D01*
X108500476Y-79359856D01*
X108288423Y-79489802D01*
X108099315Y-79651315D01*
X107937802Y-79840423D01*
X107807856Y-80052476D01*
X107712684Y-80282242D01*
X107712683Y-80282245D01*
X107654627Y-80524067D01*
X107635114Y-80772000D01*
X99695000Y-80772000D01*
X99695000Y-71620000D01*
X117488239Y-71620000D01*
X117493492Y-71640743D01*
X117493493Y-71640746D01*
X117590183Y-71861178D01*
X117721845Y-72062702D01*
X117884877Y-72239800D01*
X117884882Y-72239805D01*
X118074835Y-72387652D01*
X118074834Y-72387652D01*
X118286538Y-72502219D01*
X118286540Y-72502220D01*
X118372000Y-72531558D01*
X118372000Y-71620000D01*
X117488239Y-71620000D01*
X99695000Y-71620000D01*
X99695000Y-71157886D01*
X118318123Y-71157886D01*
X118348884Y-71305915D01*
X118418442Y-71440156D01*
X118521638Y-71550652D01*
X118650819Y-71629209D01*
X118796404Y-71670000D01*
X118909622Y-71670000D01*
X119021783Y-71654584D01*
X119160458Y-71594349D01*
X119277739Y-71498934D01*
X119364928Y-71375415D01*
X119372000Y-71355516D01*
X119372000Y-72531557D01*
X119457459Y-72502220D01*
X119457461Y-72502219D01*
X119669161Y-72387653D01*
X119835096Y-72258500D01*
X119958451Y-72188102D01*
X120096643Y-72155307D01*
X120238477Y-72162775D01*
X120372462Y-72209899D01*
X120448082Y-72258497D01*
X120614559Y-72388071D01*
X120614561Y-72388072D01*
X120826336Y-72502679D01*
X121054087Y-72580866D01*
X121291601Y-72620500D01*
X121532399Y-72620500D01*
X121769913Y-72580866D01*
X121997664Y-72502679D01*
X122110232Y-72441760D01*
X122243487Y-72392627D01*
X122385192Y-72383026D01*
X122523862Y-72413738D01*
X122646763Y-72481146D01*
X122757169Y-72563796D01*
X122892017Y-72614091D01*
X122951627Y-72620500D01*
X124952372Y-72620499D01*
X124952375Y-72620499D01*
X124952378Y-72620498D01*
X125011983Y-72614091D01*
X125146831Y-72563796D01*
X125262046Y-72477546D01*
X125348296Y-72362331D01*
X125398591Y-72227483D01*
X125405000Y-72167873D01*
X125404999Y-70072128D01*
X125398591Y-70012517D01*
X125348296Y-69877669D01*
X125262046Y-69762454D01*
X125146831Y-69676204D01*
X125146827Y-69676202D01*
X125146824Y-69676201D01*
X125011985Y-69625909D01*
X124992113Y-69623772D01*
X124952373Y-69619500D01*
X124952369Y-69619500D01*
X122951624Y-69619500D01*
X122951619Y-69619501D01*
X122892019Y-69625908D01*
X122892015Y-69625909D01*
X122757173Y-69676202D01*
X122757165Y-69676206D01*
X122646768Y-69758850D01*
X122522111Y-69826918D01*
X122383327Y-69857109D01*
X122241659Y-69846978D01*
X122110229Y-69798238D01*
X121997667Y-69737322D01*
X121913539Y-69708441D01*
X121769913Y-69659134D01*
X121769904Y-69659132D01*
X121769902Y-69659132D01*
X121532399Y-69619500D01*
X121291601Y-69619500D01*
X121054097Y-69659132D01*
X121054091Y-69659133D01*
X121054087Y-69659134D01*
X121054084Y-69659134D01*
X121054084Y-69659135D01*
X120826333Y-69737322D01*
X120614560Y-69851928D01*
X120448081Y-69981503D01*
X120324724Y-70051900D01*
X120186532Y-70084692D01*
X120044698Y-70077223D01*
X119910714Y-70030096D01*
X119835097Y-69981500D01*
X119669165Y-69852349D01*
X119457459Y-69737780D01*
X119457451Y-69737777D01*
X119372000Y-69708441D01*
X119372000Y-70889473D01*
X119325558Y-70799844D01*
X119222362Y-70689348D01*
X119093181Y-70610791D01*
X118947596Y-70570000D01*
X118834378Y-70570000D01*
X118722217Y-70585416D01*
X118583542Y-70645651D01*
X118466261Y-70741066D01*
X118379072Y-70864585D01*
X118328441Y-71007047D01*
X118318123Y-71157886D01*
X99695000Y-71157886D01*
X99695000Y-70619999D01*
X117488238Y-70619999D01*
X117488239Y-70620000D01*
X118372000Y-70620000D01*
X118372000Y-69708441D01*
X118371999Y-69708441D01*
X118286548Y-69737777D01*
X118286540Y-69737780D01*
X118074830Y-69852350D01*
X117884882Y-70000194D01*
X117884877Y-70000199D01*
X117721845Y-70177297D01*
X117590183Y-70378821D01*
X117493493Y-70599253D01*
X117493492Y-70599256D01*
X117488238Y-70619999D01*
X99695000Y-70619999D01*
X99695000Y-67310004D01*
X106094628Y-67310004D01*
X106114469Y-67524130D01*
X106114471Y-67524141D01*
X106164149Y-67698740D01*
X106164149Y-67698741D01*
X106552890Y-67310000D01*
X106848533Y-67310000D01*
X106868672Y-67437150D01*
X106927116Y-67551854D01*
X107018145Y-67642883D01*
X107132849Y-67701327D01*
X107228014Y-67716400D01*
X107291984Y-67716400D01*
X107387149Y-67701327D01*
X107501853Y-67642883D01*
X107592882Y-67551854D01*
X107597891Y-67542022D01*
X107596987Y-67559951D01*
X107550157Y-67694039D01*
X107467447Y-67809502D01*
X107460118Y-67816987D01*
X106872709Y-68404395D01*
X106941083Y-68430884D01*
X107152463Y-68470399D01*
X107152473Y-68470400D01*
X107367525Y-68470400D01*
X107367534Y-68470399D01*
X107578910Y-68430885D01*
X107578925Y-68430881D01*
X107779436Y-68353202D01*
X107786998Y-68349437D01*
X107921852Y-68304863D01*
X108063802Y-68300088D01*
X108201347Y-68335497D01*
X108231870Y-68349436D01*
X108240312Y-68353639D01*
X108240325Y-68353647D01*
X108440943Y-68431367D01*
X108546684Y-68451133D01*
X108652419Y-68470899D01*
X108652423Y-68470899D01*
X108652426Y-68470900D01*
X108652427Y-68470900D01*
X108867571Y-68470900D01*
X108867572Y-68470900D01*
X108867575Y-68470899D01*
X108867578Y-68470899D01*
X108930873Y-68459067D01*
X109079055Y-68431367D01*
X109279673Y-68353647D01*
X109279685Y-68353639D01*
X109287560Y-68349719D01*
X109422414Y-68305144D01*
X109564364Y-68300367D01*
X109701910Y-68335776D01*
X109732440Y-68349719D01*
X109740318Y-68353641D01*
X109740327Y-68353647D01*
X109940945Y-68431367D01*
X110046686Y-68451133D01*
X110152421Y-68470899D01*
X110152425Y-68470899D01*
X110152428Y-68470900D01*
X110152429Y-68470900D01*
X110367573Y-68470900D01*
X110367574Y-68470900D01*
X110367577Y-68470899D01*
X110367580Y-68470899D01*
X110430875Y-68459067D01*
X110579057Y-68431367D01*
X110779675Y-68353647D01*
X110779687Y-68353639D01*
X110787560Y-68349720D01*
X110922415Y-68305145D01*
X111064364Y-68300368D01*
X111201910Y-68335777D01*
X111232433Y-68349716D01*
X111240317Y-68353641D01*
X111240326Y-68353647D01*
X111440944Y-68431367D01*
X111546685Y-68451133D01*
X111652420Y-68470899D01*
X111652424Y-68470899D01*
X111652427Y-68470900D01*
X111652428Y-68470900D01*
X111867572Y-68470900D01*
X111867573Y-68470900D01*
X111867576Y-68470899D01*
X111867579Y-68470899D01*
X111930874Y-68459067D01*
X112079056Y-68431367D01*
X112279674Y-68353647D01*
X112462595Y-68240387D01*
X112621591Y-68095444D01*
X112751245Y-67923753D01*
X112847144Y-67731162D01*
X112906022Y-67524229D01*
X112908813Y-67494111D01*
X112925873Y-67310005D01*
X112925873Y-67309994D01*
X112906023Y-67095778D01*
X112906022Y-67095776D01*
X112906022Y-67095771D01*
X112847144Y-66888838D01*
X112751245Y-66696247D01*
X112621591Y-66524556D01*
X112462595Y-66379613D01*
X112462592Y-66379611D01*
X112462591Y-66379610D01*
X112279671Y-66266351D01*
X112080300Y-66189115D01*
X112079056Y-66188633D01*
X112079052Y-66188632D01*
X112079048Y-66188631D01*
X111867579Y-66149100D01*
X111867573Y-66149100D01*
X111652427Y-66149100D01*
X111652420Y-66149100D01*
X111440951Y-66188631D01*
X111440938Y-66188635D01*
X111240325Y-66266352D01*
X111232421Y-66270289D01*
X111097565Y-66314858D01*
X110955615Y-66319628D01*
X110818071Y-66284214D01*
X110787573Y-66270286D01*
X110779672Y-66266351D01*
X110580301Y-66189115D01*
X110579057Y-66188633D01*
X110579053Y-66188632D01*
X110579049Y-66188631D01*
X110367580Y-66149100D01*
X110367574Y-66149100D01*
X110152428Y-66149100D01*
X110152421Y-66149100D01*
X109940952Y-66188631D01*
X109940939Y-66188635D01*
X109740329Y-66266351D01*
X109732427Y-66270287D01*
X109597572Y-66314858D01*
X109455622Y-66319630D01*
X109318077Y-66284217D01*
X109287573Y-66270287D01*
X109279670Y-66266351D01*
X109080299Y-66189115D01*
X109079055Y-66188633D01*
X109079051Y-66188632D01*
X109079047Y-66188631D01*
X108867578Y-66149100D01*
X108867572Y-66149100D01*
X108652426Y-66149100D01*
X108652419Y-66149100D01*
X108440950Y-66188631D01*
X108440937Y-66188635D01*
X108240325Y-66266352D01*
X108231858Y-66270569D01*
X108097002Y-66315139D01*
X107955052Y-66319910D01*
X107817508Y-66284496D01*
X107787010Y-66270568D01*
X107779443Y-66266800D01*
X107578925Y-66189118D01*
X107578910Y-66189114D01*
X107367534Y-66149600D01*
X107152465Y-66149600D01*
X106941083Y-66189115D01*
X106941072Y-66189118D01*
X106872709Y-66215602D01*
X107259999Y-66602892D01*
X107259999Y-66602893D01*
X107460117Y-66803011D01*
X107545233Y-66916712D01*
X107594867Y-67049787D01*
X107596718Y-67075676D01*
X107592882Y-67068146D01*
X107501853Y-66977117D01*
X107387149Y-66918673D01*
X107291984Y-66903600D01*
X107228014Y-66903600D01*
X107132849Y-66918673D01*
X107018145Y-66977117D01*
X106927116Y-67068146D01*
X106868672Y-67182850D01*
X106848533Y-67310000D01*
X106552890Y-67310000D01*
X106552891Y-67309999D01*
X106164150Y-66921258D01*
X106164149Y-66921258D01*
X106114470Y-67095865D01*
X106094628Y-67309995D01*
X106094628Y-67310004D01*
X99695000Y-67310004D01*
X99695000Y-63835195D01*
X135604840Y-63835195D01*
X135607285Y-63861058D01*
X135609500Y-63908023D01*
X135609500Y-67207291D01*
X135607318Y-67253550D01*
X135609254Y-67315134D01*
X135609500Y-67330807D01*
X135609500Y-67352493D01*
X135610484Y-67368138D01*
X135610090Y-67368162D01*
X135611472Y-67385766D01*
X135612289Y-67411767D01*
X135614762Y-67427378D01*
X135620411Y-67454655D01*
X135624335Y-67469941D01*
X135633905Y-67494111D01*
X135649128Y-67538572D01*
X135656382Y-67563539D01*
X135662642Y-67578006D01*
X135674916Y-67603060D01*
X135682513Y-67616878D01*
X135697795Y-67637912D01*
X135723599Y-67677196D01*
X135736828Y-67699566D01*
X135746515Y-67712054D01*
X135764593Y-67733220D01*
X135775402Y-67744730D01*
X135775406Y-67744735D01*
X135795424Y-67761295D01*
X135830197Y-67792936D01*
X136021971Y-67984710D01*
X136107087Y-68098411D01*
X136156721Y-68231486D01*
X136166854Y-68373154D01*
X136136663Y-68511939D01*
X136134431Y-68517810D01*
X136129419Y-68530745D01*
X136073602Y-68726919D01*
X136073601Y-68726928D01*
X136054785Y-68929994D01*
X136054785Y-68930005D01*
X136073601Y-69133071D01*
X136073602Y-69133080D01*
X136129419Y-69329253D01*
X136220326Y-69511820D01*
X136309032Y-69629287D01*
X136377622Y-69753658D01*
X136408395Y-69892314D01*
X136398857Y-70034024D01*
X136349781Y-70167306D01*
X136309032Y-70230713D01*
X136220326Y-70348179D01*
X136129419Y-70530746D01*
X136073602Y-70726919D01*
X136073601Y-70726928D01*
X136054785Y-70929994D01*
X136054785Y-70930005D01*
X136073601Y-71133071D01*
X136073602Y-71133080D01*
X136129419Y-71329253D01*
X136220326Y-71511820D01*
X136309032Y-71629287D01*
X136377622Y-71753658D01*
X136408395Y-71892314D01*
X136398857Y-72034024D01*
X136349781Y-72167306D01*
X136309032Y-72230713D01*
X136220326Y-72348179D01*
X136129419Y-72530746D01*
X136073602Y-72726919D01*
X136073601Y-72726928D01*
X136054785Y-72929994D01*
X136054785Y-72930005D01*
X136073601Y-73133071D01*
X136073602Y-73133080D01*
X136129419Y-73329253D01*
X136220326Y-73511820D01*
X136309032Y-73629287D01*
X136377622Y-73753658D01*
X136408395Y-73892314D01*
X136398857Y-74034024D01*
X136349781Y-74167306D01*
X136309032Y-74230713D01*
X136220326Y-74348179D01*
X136129419Y-74530746D01*
X136073602Y-74726919D01*
X136073601Y-74726928D01*
X136054785Y-74929994D01*
X136054785Y-74930005D01*
X136073601Y-75133071D01*
X136073602Y-75133080D01*
X136073603Y-75133083D01*
X136121745Y-75302284D01*
X136129419Y-75329253D01*
X136220325Y-75511818D01*
X136220326Y-75511819D01*
X136220327Y-75511821D01*
X136343236Y-75674579D01*
X136493959Y-75811981D01*
X136667363Y-75919348D01*
X136857544Y-75993024D01*
X137058024Y-76030500D01*
X137058027Y-76030500D01*
X137261973Y-76030500D01*
X137261976Y-76030500D01*
X137462456Y-75993024D01*
X137652637Y-75919348D01*
X137826041Y-75811981D01*
X137826042Y-75811979D01*
X137826045Y-75811978D01*
X137844451Y-75798079D01*
X137845409Y-75799348D01*
X137941320Y-75734234D01*
X138076543Y-75690793D01*
X138218528Y-75687209D01*
X138355772Y-75723772D01*
X138477155Y-75797520D01*
X138493070Y-75811310D01*
X138493954Y-75811978D01*
X138493959Y-75811981D01*
X138667363Y-75919348D01*
X138857544Y-75993024D01*
X139049574Y-76028920D01*
X139184050Y-76074621D01*
X139300204Y-76156357D01*
X139388626Y-76267506D01*
X139442151Y-76399065D01*
X139456638Y-76503749D01*
X139459254Y-76586984D01*
X139459500Y-76602659D01*
X139459500Y-76624345D01*
X139460484Y-76639990D01*
X139460090Y-76640014D01*
X139461472Y-76657618D01*
X139462289Y-76683619D01*
X139464762Y-76699230D01*
X139470411Y-76726507D01*
X139474335Y-76741793D01*
X139483905Y-76765963D01*
X139499128Y-76810424D01*
X139506382Y-76835391D01*
X139512642Y-76849858D01*
X139524916Y-76874912D01*
X139532513Y-76888730D01*
X139547795Y-76909764D01*
X139573599Y-76949048D01*
X139586828Y-76971418D01*
X139596515Y-76983906D01*
X139614593Y-77005072D01*
X139625402Y-77016582D01*
X139625406Y-77016587D01*
X139645442Y-77033162D01*
X139680203Y-77064793D01*
X169759856Y-107144447D01*
X169844972Y-107258148D01*
X169894606Y-107391223D01*
X169904739Y-107532891D01*
X169904111Y-107540782D01*
X169890532Y-107695995D01*
X169890532Y-107696001D01*
X169910365Y-107922693D01*
X169969261Y-108142498D01*
X170047632Y-108310562D01*
X170065432Y-108348734D01*
X170195953Y-108535139D01*
X170356861Y-108696047D01*
X170543266Y-108826568D01*
X170611935Y-108858589D01*
X170749501Y-108922738D01*
X170749503Y-108922738D01*
X170749504Y-108922739D01*
X170969308Y-108981635D01*
X171174264Y-108999566D01*
X171195999Y-109001468D01*
X171196000Y-109001468D01*
X171196001Y-109001468D01*
X171215834Y-108999732D01*
X171422692Y-108981635D01*
X171642496Y-108922739D01*
X171848734Y-108826568D01*
X172035139Y-108696047D01*
X172196047Y-108535139D01*
X172326568Y-108348734D01*
X172397790Y-108196000D01*
X182694762Y-108196000D01*
X182765864Y-108348479D01*
X182896340Y-108534819D01*
X183057180Y-108695659D01*
X183243517Y-108826133D01*
X183243518Y-108826134D01*
X183396000Y-108897236D01*
X183396000Y-108196000D01*
X184396000Y-108196000D01*
X184396000Y-108897235D01*
X184548481Y-108826134D01*
X184548482Y-108826133D01*
X184734819Y-108695659D01*
X184895659Y-108534819D01*
X185026135Y-108348479D01*
X185097238Y-108196000D01*
X184396000Y-108196000D01*
X183396000Y-108196000D01*
X182694762Y-108196000D01*
X172397790Y-108196000D01*
X172422739Y-108142496D01*
X172481635Y-107922692D01*
X172501468Y-107696000D01*
X183491014Y-107696000D01*
X183510835Y-107821148D01*
X183568359Y-107934045D01*
X183657955Y-108023641D01*
X183770852Y-108081165D01*
X183864519Y-108096000D01*
X183927481Y-108096000D01*
X184021148Y-108081165D01*
X184134045Y-108023641D01*
X184223641Y-107934045D01*
X184281165Y-107821148D01*
X184300986Y-107696000D01*
X184281165Y-107570852D01*
X184223641Y-107457955D01*
X184134045Y-107368359D01*
X184021148Y-107310835D01*
X183927481Y-107296000D01*
X183864519Y-107296000D01*
X183770852Y-107310835D01*
X183657955Y-107368359D01*
X183568359Y-107457955D01*
X183510835Y-107570852D01*
X183491014Y-107696000D01*
X172501468Y-107696000D01*
X172481635Y-107469308D01*
X172422739Y-107249504D01*
X172326568Y-107043266D01*
X172196047Y-106856861D01*
X172118032Y-106778846D01*
X172032916Y-106665145D01*
X171983282Y-106532070D01*
X171973149Y-106390402D01*
X172003340Y-106251617D01*
X172071408Y-106126960D01*
X172118032Y-106073154D01*
X172196047Y-105995139D01*
X172326568Y-105808734D01*
X172422739Y-105602496D01*
X172481635Y-105382692D01*
X172501468Y-105156001D01*
X182590532Y-105156001D01*
X182610365Y-105382693D01*
X182669261Y-105602498D01*
X182671781Y-105607901D01*
X182765432Y-105808734D01*
X182895953Y-105995139D01*
X182895955Y-105995141D01*
X182895956Y-105995142D01*
X182974321Y-106073507D01*
X183059437Y-106187208D01*
X183109071Y-106320283D01*
X183119204Y-106461951D01*
X183089013Y-106600736D01*
X183020945Y-106725393D01*
X182974323Y-106779197D01*
X182896340Y-106857180D01*
X182765864Y-107043520D01*
X182694762Y-107196000D01*
X185097238Y-107196000D01*
X185026135Y-107043520D01*
X184895659Y-106857180D01*
X184817678Y-106779199D01*
X184732562Y-106665498D01*
X184682928Y-106532423D01*
X184672795Y-106390755D01*
X184702986Y-106251970D01*
X184771054Y-106127313D01*
X184817673Y-106073512D01*
X184896047Y-105995139D01*
X185026568Y-105808734D01*
X185122739Y-105602496D01*
X185181635Y-105382692D01*
X185184320Y-105351999D01*
X192928157Y-105351999D01*
X192948297Y-105607901D01*
X193008220Y-105857499D01*
X193008221Y-105857503D01*
X193106452Y-106094655D01*
X193240575Y-106313524D01*
X193407283Y-106508715D01*
X193602474Y-106675423D01*
X193602476Y-106675424D01*
X193821343Y-106809546D01*
X194058497Y-106907778D01*
X194308098Y-106967702D01*
X194564000Y-106987842D01*
X194819902Y-106967702D01*
X195069503Y-106907778D01*
X195306657Y-106809546D01*
X195525524Y-106675424D01*
X195720716Y-106508715D01*
X195887425Y-106313523D01*
X196021547Y-106094656D01*
X196119779Y-105857502D01*
X196179703Y-105607901D01*
X196199843Y-105351999D01*
X196179703Y-105096097D01*
X196119779Y-104846496D01*
X196021547Y-104609342D01*
X196018547Y-104604446D01*
X195887424Y-104390473D01*
X195720716Y-104195282D01*
X195525525Y-104028574D01*
X195306654Y-103894450D01*
X195158334Y-103833015D01*
X195036186Y-103760542D01*
X194939404Y-103656591D01*
X194875828Y-103529584D01*
X194850610Y-103389811D01*
X194865792Y-103248594D01*
X194920144Y-103117375D01*
X195009264Y-103006784D01*
X195125930Y-102925781D01*
X195158334Y-102910983D01*
X195306657Y-102849546D01*
X195525524Y-102715424D01*
X195720716Y-102548715D01*
X195887425Y-102353523D01*
X196021547Y-102134656D01*
X196119779Y-101897502D01*
X196179703Y-101647901D01*
X196199843Y-101391999D01*
X196179703Y-101136097D01*
X196119779Y-100886496D01*
X196021547Y-100649342D01*
X195905185Y-100459456D01*
X195887424Y-100430473D01*
X195720716Y-100235282D01*
X195525525Y-100068574D01*
X195394672Y-99988388D01*
X195306657Y-99934452D01*
X195158333Y-99873014D01*
X195036186Y-99800541D01*
X194939404Y-99696589D01*
X194875830Y-99569582D01*
X194850612Y-99429809D01*
X194865795Y-99288592D01*
X194920147Y-99157373D01*
X195009267Y-99046783D01*
X195125934Y-98965780D01*
X195158304Y-98950996D01*
X195306657Y-98889547D01*
X195525524Y-98755425D01*
X195720716Y-98588716D01*
X195887425Y-98393524D01*
X196021547Y-98174657D01*
X196119779Y-97937503D01*
X196179703Y-97687902D01*
X196199843Y-97432000D01*
X196179703Y-97176098D01*
X196119779Y-96926497D01*
X196021547Y-96689343D01*
X195940865Y-96557682D01*
X195887424Y-96470474D01*
X195720716Y-96275283D01*
X195525525Y-96108575D01*
X195306654Y-95974451D01*
X195182313Y-95922948D01*
X195158333Y-95913015D01*
X195036186Y-95840543D01*
X194939404Y-95736592D01*
X194875828Y-95609585D01*
X194850610Y-95469812D01*
X194865792Y-95328595D01*
X194920144Y-95197376D01*
X195009264Y-95086785D01*
X195125930Y-95005782D01*
X195158334Y-94990984D01*
X195182032Y-94981168D01*
X195306657Y-94929547D01*
X195525524Y-94795425D01*
X195720716Y-94628716D01*
X195887425Y-94433524D01*
X196021547Y-94214657D01*
X196119779Y-93977503D01*
X196179703Y-93727902D01*
X196199843Y-93472000D01*
X196179703Y-93216098D01*
X196119779Y-92966497D01*
X196021547Y-92729343D01*
X195926812Y-92574749D01*
X195887424Y-92510474D01*
X195720716Y-92315283D01*
X195525525Y-92148575D01*
X195306656Y-92014452D01*
X195069504Y-91916221D01*
X195069500Y-91916220D01*
X194819902Y-91856297D01*
X194564000Y-91836157D01*
X194308097Y-91856297D01*
X194058499Y-91916220D01*
X194058495Y-91916221D01*
X193821343Y-92014452D01*
X193602474Y-92148575D01*
X193407283Y-92315283D01*
X193240575Y-92510474D01*
X193106452Y-92729343D01*
X193008221Y-92966495D01*
X193008220Y-92966499D01*
X192948297Y-93216097D01*
X192928157Y-93472000D01*
X192948297Y-93727902D01*
X193008220Y-93977500D01*
X193008221Y-93977504D01*
X193106452Y-94214656D01*
X193240575Y-94433525D01*
X193407283Y-94628716D01*
X193602474Y-94795424D01*
X193821343Y-94929547D01*
X193969666Y-94990984D01*
X194091814Y-95063458D01*
X194188596Y-95167409D01*
X194252171Y-95294416D01*
X194277389Y-95434189D01*
X194262207Y-95575406D01*
X194207854Y-95706625D01*
X194118735Y-95817215D01*
X194002068Y-95898218D01*
X193969669Y-95913014D01*
X193950763Y-95920845D01*
X193821343Y-95974452D01*
X193602474Y-96108575D01*
X193407283Y-96275283D01*
X193240575Y-96470474D01*
X193106452Y-96689343D01*
X193008221Y-96926495D01*
X193008220Y-96926499D01*
X192948297Y-97176097D01*
X192928157Y-97432000D01*
X192948297Y-97687902D01*
X193008220Y-97937500D01*
X193008221Y-97937504D01*
X193106452Y-98174656D01*
X193240575Y-98393525D01*
X193407283Y-98588716D01*
X193602474Y-98755424D01*
X193602476Y-98755425D01*
X193821343Y-98889547D01*
X193969665Y-98950984D01*
X194091812Y-99023457D01*
X194188594Y-99127408D01*
X194252169Y-99254414D01*
X194277387Y-99394188D01*
X194262205Y-99535404D01*
X194207852Y-99666623D01*
X194118733Y-99777214D01*
X194002066Y-99858217D01*
X193969666Y-99873014D01*
X193821345Y-99934451D01*
X193821343Y-99934452D01*
X193803837Y-99945180D01*
X193602474Y-100068574D01*
X193407283Y-100235282D01*
X193240575Y-100430473D01*
X193106452Y-100649342D01*
X193008221Y-100886494D01*
X193008220Y-100886498D01*
X192948297Y-101136096D01*
X192928157Y-101391999D01*
X192948297Y-101647901D01*
X193008220Y-101897499D01*
X193008221Y-101897503D01*
X193106452Y-102134655D01*
X193240575Y-102353524D01*
X193407283Y-102548715D01*
X193602474Y-102715423D01*
X193821343Y-102849546D01*
X193969666Y-102910983D01*
X194091814Y-102983457D01*
X194188596Y-103087408D01*
X194252171Y-103214415D01*
X194277389Y-103354188D01*
X194262207Y-103495405D01*
X194207854Y-103626624D01*
X194118735Y-103737214D01*
X194002068Y-103818217D01*
X193969666Y-103833015D01*
X193821343Y-103894451D01*
X193602474Y-104028574D01*
X193407283Y-104195282D01*
X193240575Y-104390473D01*
X193106452Y-104609342D01*
X193008221Y-104846494D01*
X193008220Y-104846498D01*
X192948297Y-105096096D01*
X192928157Y-105351999D01*
X185184320Y-105351999D01*
X185201468Y-105156000D01*
X185181635Y-104929308D01*
X185122739Y-104709504D01*
X185026568Y-104503266D01*
X184896047Y-104316861D01*
X184818032Y-104238846D01*
X184732916Y-104125145D01*
X184683282Y-103992070D01*
X184673149Y-103850402D01*
X184703340Y-103711617D01*
X184771408Y-103586960D01*
X184818032Y-103533154D01*
X184855781Y-103495405D01*
X184896047Y-103455139D01*
X185026568Y-103268734D01*
X185122739Y-103062496D01*
X185181635Y-102842692D01*
X185201468Y-102616000D01*
X185181635Y-102389308D01*
X185122739Y-102169504D01*
X185026568Y-101963266D01*
X184896047Y-101776861D01*
X184818032Y-101698846D01*
X184732916Y-101585145D01*
X184683282Y-101452070D01*
X184673149Y-101310402D01*
X184703340Y-101171617D01*
X184771408Y-101046960D01*
X184818032Y-100993154D01*
X184854079Y-100957107D01*
X184896047Y-100915139D01*
X185026568Y-100728734D01*
X185122739Y-100522496D01*
X185181635Y-100302692D01*
X185201468Y-100076000D01*
X185181635Y-99849308D01*
X185122739Y-99629504D01*
X185121346Y-99626517D01*
X185058463Y-99491665D01*
X185026568Y-99423266D01*
X184896047Y-99236861D01*
X184818032Y-99158846D01*
X184732916Y-99045145D01*
X184683282Y-98912070D01*
X184673149Y-98770402D01*
X184703340Y-98631617D01*
X184771408Y-98506960D01*
X184818032Y-98453154D01*
X184849677Y-98421509D01*
X184896047Y-98375139D01*
X185026568Y-98188734D01*
X185122739Y-97982496D01*
X185181635Y-97762692D01*
X185201468Y-97536000D01*
X185181635Y-97309308D01*
X185122739Y-97089504D01*
X185026568Y-96883266D01*
X184896047Y-96696861D01*
X184818032Y-96618846D01*
X184732916Y-96505145D01*
X184683282Y-96372070D01*
X184673149Y-96230402D01*
X184703340Y-96091617D01*
X184771408Y-95966960D01*
X184818032Y-95913154D01*
X184854965Y-95876221D01*
X184896047Y-95835139D01*
X185026568Y-95648734D01*
X185122739Y-95442496D01*
X185181635Y-95222692D01*
X185201468Y-94996000D01*
X185181635Y-94769308D01*
X185122739Y-94549504D01*
X185026568Y-94343266D01*
X184896047Y-94156861D01*
X184817678Y-94078492D01*
X184732562Y-93964791D01*
X184682928Y-93831716D01*
X184672795Y-93690048D01*
X184702986Y-93551263D01*
X184771054Y-93426606D01*
X184817680Y-93372798D01*
X184895659Y-93294819D01*
X185026135Y-93108479D01*
X185097238Y-92956000D01*
X182694762Y-92956000D01*
X182765864Y-93108479D01*
X182896340Y-93294819D01*
X182974321Y-93372800D01*
X183059437Y-93486501D01*
X183109071Y-93619576D01*
X183119204Y-93761244D01*
X183089013Y-93900029D01*
X183020945Y-94024686D01*
X182974323Y-94078490D01*
X182895956Y-94156856D01*
X182895951Y-94156863D01*
X182765433Y-94343263D01*
X182669261Y-94549501D01*
X182610365Y-94769306D01*
X182590532Y-94995998D01*
X182590532Y-94996001D01*
X182610365Y-95222693D01*
X182669261Y-95442498D01*
X182765433Y-95648736D01*
X182805967Y-95706625D01*
X182895953Y-95835139D01*
X182895956Y-95835142D01*
X182973968Y-95913154D01*
X183059084Y-96026855D01*
X183108718Y-96159930D01*
X183118851Y-96301598D01*
X183088660Y-96440383D01*
X183020592Y-96565040D01*
X182973968Y-96618846D01*
X182895956Y-96696857D01*
X182895951Y-96696863D01*
X182765433Y-96883263D01*
X182669261Y-97089501D01*
X182610365Y-97309306D01*
X182590532Y-97535998D01*
X182590532Y-97536001D01*
X182610365Y-97762693D01*
X182669261Y-97982498D01*
X182765433Y-98188736D01*
X182769177Y-98194083D01*
X182895953Y-98375139D01*
X182895956Y-98375142D01*
X182973968Y-98453154D01*
X183059084Y-98566855D01*
X183108718Y-98699930D01*
X183118851Y-98841598D01*
X183088660Y-98980383D01*
X183020592Y-99105040D01*
X182973968Y-99158846D01*
X182895956Y-99236857D01*
X182895951Y-99236863D01*
X182765433Y-99423263D01*
X182669261Y-99629501D01*
X182610365Y-99849306D01*
X182590532Y-100075998D01*
X182590532Y-100076001D01*
X182610365Y-100302693D01*
X182669261Y-100522498D01*
X182758953Y-100714840D01*
X182765432Y-100728734D01*
X182895953Y-100915139D01*
X182895956Y-100915142D01*
X182973968Y-100993154D01*
X183059084Y-101106855D01*
X183108718Y-101239930D01*
X183118851Y-101381598D01*
X183088660Y-101520383D01*
X183020592Y-101645040D01*
X182973968Y-101698846D01*
X182895956Y-101776857D01*
X182895951Y-101776863D01*
X182765433Y-101963263D01*
X182669261Y-102169501D01*
X182610365Y-102389306D01*
X182590532Y-102615998D01*
X182590532Y-102616001D01*
X182610365Y-102842693D01*
X182669261Y-103062498D01*
X182765433Y-103268736D01*
X182825267Y-103354188D01*
X182895953Y-103455139D01*
X182895956Y-103455142D01*
X182973968Y-103533154D01*
X183059084Y-103646855D01*
X183108718Y-103779930D01*
X183118851Y-103921598D01*
X183088660Y-104060383D01*
X183020592Y-104185040D01*
X182973968Y-104238846D01*
X182895956Y-104316857D01*
X182895951Y-104316863D01*
X182765433Y-104503263D01*
X182669261Y-104709501D01*
X182610365Y-104929306D01*
X182590532Y-105155998D01*
X182590532Y-105156001D01*
X172501468Y-105156001D01*
X172501468Y-105156000D01*
X172487888Y-105000781D01*
X172495771Y-104858973D01*
X172543287Y-104725127D01*
X172626588Y-104610089D01*
X172632079Y-104604510D01*
X173722456Y-103514133D01*
X173756688Y-103482985D01*
X173756871Y-103482789D01*
X173756877Y-103482786D01*
X173798884Y-103438052D01*
X173809729Y-103426860D01*
X173825120Y-103411471D01*
X173825133Y-103411453D01*
X173835495Y-103399702D01*
X173835794Y-103399966D01*
X173847270Y-103386527D01*
X173865062Y-103367582D01*
X173865064Y-103367576D01*
X173874366Y-103354775D01*
X173889615Y-103331560D01*
X173897670Y-103317939D01*
X173897673Y-103317936D01*
X173907989Y-103294096D01*
X173928678Y-103251862D01*
X173941197Y-103229092D01*
X173941197Y-103229089D01*
X173941199Y-103229087D01*
X173947016Y-103214394D01*
X173956024Y-103188086D01*
X173960435Y-103172904D01*
X173960435Y-103172898D01*
X173960437Y-103172896D01*
X173964504Y-103147216D01*
X173974032Y-103101205D01*
X173980500Y-103076019D01*
X173980500Y-103076012D01*
X173980501Y-103076009D01*
X173982479Y-103060354D01*
X173984663Y-103032600D01*
X173985160Y-103016804D01*
X173982715Y-102990939D01*
X173980500Y-102943976D01*
X173980500Y-92456000D01*
X183491014Y-92456000D01*
X183510835Y-92581148D01*
X183568359Y-92694045D01*
X183657955Y-92783641D01*
X183770852Y-92841165D01*
X183864519Y-92856000D01*
X183927481Y-92856000D01*
X184021148Y-92841165D01*
X184134045Y-92783641D01*
X184223641Y-92694045D01*
X184281165Y-92581148D01*
X184300986Y-92456000D01*
X184281165Y-92330852D01*
X184223641Y-92217955D01*
X184134045Y-92128359D01*
X184021148Y-92070835D01*
X183927481Y-92056000D01*
X183864519Y-92056000D01*
X183770852Y-92070835D01*
X183657955Y-92128359D01*
X183568359Y-92217955D01*
X183510835Y-92330852D01*
X183491014Y-92456000D01*
X173980500Y-92456000D01*
X173980500Y-89916001D01*
X182590532Y-89916001D01*
X182610365Y-90142693D01*
X182669261Y-90362498D01*
X182765433Y-90568736D01*
X182853211Y-90694096D01*
X182895953Y-90755139D01*
X182895955Y-90755141D01*
X182895956Y-90755142D01*
X182974321Y-90833507D01*
X183059437Y-90947208D01*
X183109071Y-91080283D01*
X183119204Y-91221951D01*
X183089013Y-91360736D01*
X183020945Y-91485393D01*
X182974323Y-91539197D01*
X182896340Y-91617180D01*
X182765864Y-91803520D01*
X182694762Y-91956000D01*
X185097238Y-91956000D01*
X185026135Y-91803520D01*
X184895659Y-91617180D01*
X184817678Y-91539199D01*
X184732562Y-91425498D01*
X184682928Y-91292423D01*
X184672795Y-91150755D01*
X184702986Y-91011970D01*
X184771054Y-90887313D01*
X184817673Y-90833512D01*
X184896047Y-90755139D01*
X185026568Y-90568734D01*
X185122739Y-90362496D01*
X185181635Y-90142692D01*
X185201468Y-89916000D01*
X185181635Y-89689308D01*
X185122739Y-89469504D01*
X185026568Y-89263266D01*
X184896047Y-89076861D01*
X184735139Y-88915953D01*
X184623850Y-88838028D01*
X184548736Y-88785433D01*
X184342498Y-88689261D01*
X184122693Y-88630365D01*
X183896001Y-88610532D01*
X183895999Y-88610532D01*
X183669306Y-88630365D01*
X183449501Y-88689261D01*
X183243263Y-88785433D01*
X183056863Y-88915951D01*
X183056857Y-88915956D01*
X182895956Y-89076857D01*
X182895951Y-89076863D01*
X182765433Y-89263263D01*
X182669261Y-89469501D01*
X182610365Y-89689306D01*
X182590532Y-89915998D01*
X182590532Y-89916001D01*
X173980500Y-89916001D01*
X173980500Y-88884266D01*
X173982680Y-88838028D01*
X173982671Y-88837756D01*
X173982672Y-88837754D01*
X173980745Y-88776453D01*
X173980500Y-88760783D01*
X173980500Y-88739074D01*
X173979515Y-88723416D01*
X173979915Y-88723390D01*
X173978525Y-88705767D01*
X173977709Y-88679794D01*
X173977706Y-88679786D01*
X173975232Y-88664161D01*
X173969596Y-88636946D01*
X173965665Y-88621633D01*
X173965664Y-88621631D01*
X173965664Y-88621629D01*
X173956093Y-88597457D01*
X173940868Y-88552985D01*
X173933619Y-88528036D01*
X173933618Y-88528031D01*
X173933613Y-88528023D01*
X173927334Y-88513513D01*
X173915104Y-88488547D01*
X173907485Y-88474688D01*
X173892214Y-88453669D01*
X173866402Y-88414374D01*
X173853172Y-88392004D01*
X173853170Y-88392000D01*
X173853165Y-88391995D01*
X173843481Y-88379510D01*
X173825406Y-88358347D01*
X173814596Y-88346835D01*
X173794567Y-88330266D01*
X173759797Y-88298627D01*
X172088722Y-86627552D01*
X172057566Y-86593313D01*
X172057366Y-86593126D01*
X172057365Y-86593123D01*
X172012621Y-86551105D01*
X172001399Y-86540229D01*
X171986052Y-86524882D01*
X171974287Y-86514509D01*
X171974548Y-86514211D01*
X171961121Y-86502742D01*
X171942160Y-86484937D01*
X171929382Y-86475653D01*
X171906116Y-86460371D01*
X171892515Y-86452327D01*
X171868654Y-86442001D01*
X171826447Y-86421324D01*
X171803671Y-86408803D01*
X171788990Y-86402990D01*
X171762623Y-86393963D01*
X171747472Y-86389561D01*
X171721780Y-86385491D01*
X171675771Y-86375963D01*
X171672663Y-86375165D01*
X171650598Y-86369500D01*
X171650597Y-86369500D01*
X171650593Y-86369499D01*
X171634940Y-86367521D01*
X171607164Y-86365335D01*
X171591382Y-86364839D01*
X171565518Y-86367285D01*
X171518555Y-86369500D01*
X155845493Y-86369500D01*
X155704908Y-86349287D01*
X155575713Y-86290286D01*
X155468374Y-86197276D01*
X155391587Y-86077792D01*
X155351572Y-85941515D01*
X155349227Y-85818341D01*
X155359037Y-85725004D01*
X155359037Y-85725003D01*
X155359037Y-85725000D01*
X155339251Y-85536744D01*
X155280756Y-85356716D01*
X155186110Y-85192784D01*
X155059448Y-85052112D01*
X155059447Y-85052111D01*
X155059445Y-85052109D01*
X154906308Y-84940849D01*
X154763548Y-84877288D01*
X154733380Y-84863856D01*
X154733378Y-84863855D01*
X154733377Y-84863855D01*
X154733373Y-84863854D01*
X154548228Y-84824501D01*
X154548227Y-84824500D01*
X154548223Y-84824500D01*
X154358931Y-84824500D01*
X154358927Y-84824500D01*
X154358925Y-84824501D01*
X154155070Y-84867831D01*
X154013355Y-84877288D01*
X153874716Y-84846437D01*
X153750385Y-84777776D01*
X153698478Y-84732581D01*
X143646654Y-74680757D01*
X143561538Y-74567056D01*
X143511904Y-74433981D01*
X143500500Y-74327911D01*
X143500500Y-70096000D01*
X154656000Y-70096000D01*
X154656000Y-70443824D01*
X154662402Y-70503374D01*
X154712647Y-70638089D01*
X154712648Y-70638090D01*
X154798811Y-70753188D01*
X154913909Y-70839351D01*
X154913910Y-70839352D01*
X155048625Y-70889597D01*
X155108175Y-70896000D01*
X155456000Y-70896000D01*
X155456000Y-70096000D01*
X154656000Y-70096000D01*
X143500500Y-70096000D01*
X143500500Y-69596000D01*
X155551014Y-69596000D01*
X155570835Y-69721148D01*
X155628359Y-69834045D01*
X155717955Y-69923641D01*
X155830852Y-69981165D01*
X155924519Y-69996000D01*
X155987481Y-69996000D01*
X156081148Y-69981165D01*
X156194045Y-69923641D01*
X156283641Y-69834045D01*
X156341165Y-69721148D01*
X156360986Y-69596000D01*
X156341165Y-69470852D01*
X156283641Y-69357955D01*
X156194045Y-69268359D01*
X156081148Y-69210835D01*
X155987481Y-69196000D01*
X155924519Y-69196000D01*
X155830852Y-69210835D01*
X155717955Y-69268359D01*
X155628359Y-69357955D01*
X155570835Y-69470852D01*
X155551014Y-69596000D01*
X143500500Y-69596000D01*
X143500500Y-69096000D01*
X154656000Y-69096000D01*
X155456000Y-69096000D01*
X155456000Y-68296000D01*
X155108175Y-68296000D01*
X155048625Y-68302402D01*
X154913910Y-68352647D01*
X154913909Y-68352648D01*
X154798811Y-68438811D01*
X154712648Y-68553909D01*
X154712647Y-68553910D01*
X154662402Y-68688625D01*
X154656000Y-68748175D01*
X154656000Y-69096000D01*
X143500500Y-69096000D01*
X143500500Y-64750844D01*
X143502680Y-64704606D01*
X143502671Y-64704334D01*
X143502672Y-64704332D01*
X143500745Y-64643031D01*
X143500500Y-64627361D01*
X143500500Y-64605653D01*
X143499515Y-64589995D01*
X143499915Y-64589969D01*
X143498525Y-64572346D01*
X143497709Y-64546372D01*
X143497707Y-64546365D01*
X143495231Y-64530731D01*
X143489599Y-64503533D01*
X143485665Y-64488210D01*
X143476097Y-64464045D01*
X143460868Y-64419569D01*
X143453617Y-64394610D01*
X143453614Y-64394606D01*
X143447337Y-64380101D01*
X143435095Y-64355110D01*
X143427485Y-64341267D01*
X143412211Y-64320244D01*
X143386400Y-64280949D01*
X143373173Y-64258583D01*
X143363482Y-64246090D01*
X143345418Y-64224938D01*
X143334596Y-64213414D01*
X143314567Y-64196845D01*
X143279797Y-64165206D01*
X141521937Y-62407346D01*
X141436821Y-62293645D01*
X141387187Y-62160570D01*
X141377054Y-62018902D01*
X141407245Y-61880117D01*
X141475313Y-61755460D01*
X141575743Y-61655030D01*
X141700400Y-61586962D01*
X141839185Y-61556771D01*
X141874783Y-61555500D01*
X147902779Y-61555500D01*
X148043364Y-61575713D01*
X148172559Y-61634714D01*
X148279898Y-61727724D01*
X148356685Y-61847208D01*
X148377356Y-61900301D01*
X148397818Y-61963277D01*
X148397820Y-61963283D01*
X148463279Y-62076661D01*
X148492467Y-62127216D01*
X148586012Y-62231108D01*
X148619131Y-62267890D01*
X148772268Y-62379150D01*
X148772269Y-62379150D01*
X148772270Y-62379151D01*
X148945197Y-62456144D01*
X149130354Y-62495500D01*
X149130359Y-62495500D01*
X149319641Y-62495500D01*
X149319646Y-62495500D01*
X149504803Y-62456144D01*
X149677730Y-62379151D01*
X149830871Y-62267888D01*
X149957533Y-62127216D01*
X150052179Y-61963284D01*
X150110674Y-61783256D01*
X150130460Y-61595000D01*
X150110674Y-61406744D01*
X150052179Y-61226716D01*
X149957533Y-61062784D01*
X149830871Y-60922112D01*
X149830870Y-60922111D01*
X149830868Y-60922109D01*
X149677731Y-60810849D01*
X149533060Y-60746437D01*
X149504803Y-60733856D01*
X149504801Y-60733855D01*
X149504800Y-60733855D01*
X149504799Y-60733854D01*
X149324334Y-60695496D01*
X149191024Y-60646495D01*
X149076919Y-60561922D01*
X149047424Y-60529662D01*
X149045787Y-60528124D01*
X149045786Y-60528123D01*
X149001042Y-60486105D01*
X148989820Y-60475229D01*
X148974473Y-60459882D01*
X148962708Y-60449509D01*
X148962969Y-60449211D01*
X148949542Y-60437742D01*
X148930581Y-60419937D01*
X148917803Y-60410653D01*
X148894537Y-60395371D01*
X148880936Y-60387327D01*
X148857075Y-60377001D01*
X148814868Y-60356324D01*
X148792092Y-60343803D01*
X148777411Y-60337990D01*
X148751044Y-60328963D01*
X148735893Y-60324561D01*
X148710201Y-60320491D01*
X148664192Y-60310963D01*
X148661084Y-60310165D01*
X148639019Y-60304500D01*
X148639018Y-60304500D01*
X148639014Y-60304499D01*
X148623361Y-60302521D01*
X148595585Y-60300335D01*
X148579803Y-60299839D01*
X148553939Y-60302285D01*
X148506976Y-60304500D01*
X140497024Y-60304500D01*
X140356439Y-60284287D01*
X140227244Y-60225286D01*
X140119905Y-60132276D01*
X140105595Y-60114991D01*
X140102714Y-60111347D01*
X140102712Y-60111344D01*
X140102708Y-60111340D01*
X140102705Y-60111336D01*
X139978659Y-59987290D01*
X139929090Y-59956716D01*
X139829334Y-59895186D01*
X139745657Y-59867458D01*
X139662795Y-59840000D01*
X139581009Y-59831645D01*
X139560009Y-59829500D01*
X139560007Y-59829500D01*
X138759992Y-59829500D01*
X138657206Y-59840000D01*
X138657200Y-59840002D01*
X138490666Y-59895185D01*
X138316607Y-60002546D01*
X138315748Y-60001153D01*
X138223293Y-60054856D01*
X138085354Y-60088701D01*
X137943468Y-60082313D01*
X137809128Y-60036211D01*
X137773932Y-60016343D01*
X137652413Y-59941100D01*
X137462320Y-59867459D01*
X137462317Y-59867458D01*
X137261932Y-59830000D01*
X137058069Y-59830000D01*
X136857682Y-59867459D01*
X136819396Y-59882290D01*
X137230180Y-60293074D01*
X137230187Y-60293080D01*
X137514261Y-60577154D01*
X137599377Y-60690855D01*
X137649011Y-60823930D01*
X137659144Y-60965598D01*
X137628953Y-61104383D01*
X137560885Y-61229040D01*
X137514261Y-61282846D01*
X137306155Y-61490952D01*
X137306143Y-61490960D01*
X137050462Y-61746642D01*
X136936761Y-61831758D01*
X136877888Y-61859095D01*
X136873273Y-61860883D01*
X136734881Y-61892823D01*
X136593096Y-61884481D01*
X136542738Y-61866419D01*
X136517445Y-61963809D01*
X136444459Y-62085652D01*
X136393412Y-62139679D01*
X136343236Y-62185420D01*
X136220325Y-62348181D01*
X136129419Y-62530746D01*
X136073602Y-62726919D01*
X136073601Y-62726928D01*
X136054785Y-62929994D01*
X136054785Y-62943931D01*
X136034572Y-63084516D01*
X135975571Y-63213711D01*
X135908631Y-63296776D01*
X135871933Y-63333475D01*
X135867539Y-63337869D01*
X135833299Y-63369025D01*
X135791128Y-63413931D01*
X135780249Y-63425157D01*
X135764886Y-63440521D01*
X135754514Y-63452285D01*
X135754220Y-63452026D01*
X135742746Y-63465453D01*
X135724943Y-63484411D01*
X135715666Y-63497180D01*
X135700350Y-63520497D01*
X135692323Y-63534069D01*
X135681998Y-63557929D01*
X135661328Y-63600122D01*
X135648805Y-63622902D01*
X135642994Y-63637578D01*
X135633959Y-63663968D01*
X135629560Y-63679108D01*
X135625493Y-63704786D01*
X135615967Y-63750789D01*
X135609500Y-63775979D01*
X135607521Y-63791643D01*
X135605335Y-63819414D01*
X135604840Y-63835195D01*
X99695000Y-63835195D01*
X99695000Y-62484003D01*
X127293388Y-62484003D01*
X127312586Y-62691192D01*
X127312588Y-62691203D01*
X127369531Y-62891336D01*
X127369532Y-62891338D01*
X127462286Y-63077612D01*
X127587684Y-63243666D01*
X127587686Y-63243668D01*
X127741458Y-63383850D01*
X127741460Y-63383851D01*
X127741461Y-63383852D01*
X127918377Y-63493394D01*
X127918381Y-63493396D01*
X127965942Y-63511821D01*
X128112413Y-63568564D01*
X128224471Y-63589511D01*
X128316948Y-63606799D01*
X128316952Y-63606799D01*
X128316955Y-63606800D01*
X128316956Y-63606800D01*
X128525040Y-63606800D01*
X128525041Y-63606800D01*
X128525044Y-63606799D01*
X128525047Y-63606799D01*
X128561495Y-63599985D01*
X128729583Y-63568564D01*
X128923617Y-63493395D01*
X128923625Y-63493389D01*
X128944264Y-63483114D01*
X128945891Y-63486383D01*
X129038898Y-63445770D01*
X129179801Y-63427906D01*
X129320028Y-63450463D01*
X129396581Y-63485418D01*
X129397954Y-63482663D01*
X129418603Y-63492945D01*
X129612547Y-63568079D01*
X129612554Y-63568081D01*
X129816997Y-63606299D01*
X129817005Y-63606300D01*
X130024995Y-63606300D01*
X130025004Y-63606299D01*
X130229445Y-63568081D01*
X130278838Y-63548946D01*
X130278838Y-63548945D01*
X129685861Y-62955969D01*
X129600745Y-62842268D01*
X129551111Y-62709192D01*
X129540978Y-62567524D01*
X129541836Y-62557078D01*
X129545751Y-62514835D01*
X129548882Y-62514835D01*
X129579057Y-62633990D01*
X129646286Y-62736892D01*
X129743285Y-62812389D01*
X129859542Y-62852300D01*
X129951521Y-62852300D01*
X130042241Y-62837162D01*
X130150343Y-62778660D01*
X130233592Y-62688227D01*
X130282967Y-62575663D01*
X130290563Y-62484001D01*
X130628107Y-62484001D01*
X130986010Y-62841904D01*
X131028918Y-62691100D01*
X131048108Y-62484005D01*
X131048108Y-62483994D01*
X131028918Y-62276899D01*
X131028917Y-62276897D01*
X130986011Y-62126095D01*
X130628107Y-62484000D01*
X130628107Y-62484001D01*
X130290563Y-62484001D01*
X130293118Y-62453165D01*
X130262943Y-62334010D01*
X130195714Y-62231108D01*
X130098715Y-62155611D01*
X129982458Y-62115700D01*
X129890479Y-62115700D01*
X129799759Y-62130838D01*
X129691657Y-62189340D01*
X129608408Y-62279773D01*
X129559033Y-62392337D01*
X129548882Y-62514835D01*
X129545751Y-62514835D01*
X129548608Y-62484000D01*
X129548608Y-62483999D01*
X129541836Y-62410921D01*
X129548991Y-62269071D01*
X129595819Y-62134983D01*
X129678528Y-62019519D01*
X129685861Y-62012030D01*
X129921000Y-61776892D01*
X130278838Y-61419052D01*
X130229456Y-61399922D01*
X130229444Y-61399918D01*
X130025002Y-61361700D01*
X129816997Y-61361700D01*
X129612554Y-61399918D01*
X129612547Y-61399920D01*
X129418603Y-61475054D01*
X129397954Y-61485337D01*
X129396275Y-61481965D01*
X129303910Y-61522266D01*
X129163002Y-61540090D01*
X129022781Y-61517494D01*
X128945585Y-61482232D01*
X128944264Y-61484886D01*
X128923617Y-61474605D01*
X128729587Y-61399437D01*
X128729580Y-61399435D01*
X128525047Y-61361200D01*
X128525041Y-61361200D01*
X128316955Y-61361200D01*
X128316948Y-61361200D01*
X128112415Y-61399435D01*
X128112408Y-61399437D01*
X127918381Y-61474603D01*
X127741458Y-61584149D01*
X127587686Y-61724331D01*
X127587684Y-61724333D01*
X127462286Y-61890387D01*
X127369532Y-62076661D01*
X127369531Y-62076663D01*
X127312588Y-62276796D01*
X127312586Y-62276807D01*
X127293388Y-62483996D01*
X127293388Y-62484003D01*
X99695000Y-62484003D01*
X99695000Y-60930003D01*
X136055287Y-60930003D01*
X136074096Y-61132990D01*
X136113037Y-61269854D01*
X136182670Y-61287939D01*
X136208645Y-61298826D01*
X136223299Y-61227118D01*
X136289787Y-61101612D01*
X136340155Y-61042737D01*
X136421497Y-60961395D01*
X136781114Y-60961395D01*
X136811837Y-61082719D01*
X136880289Y-61187492D01*
X136979052Y-61264363D01*
X137097424Y-61305000D01*
X137191073Y-61305000D01*
X137283446Y-61289586D01*
X137393514Y-61230019D01*
X137478278Y-61137941D01*
X137528551Y-61023330D01*
X137538886Y-60898605D01*
X137508163Y-60777281D01*
X137439711Y-60672508D01*
X137340948Y-60595637D01*
X137222576Y-60555000D01*
X137128927Y-60555000D01*
X137036554Y-60570414D01*
X136926486Y-60629981D01*
X136841722Y-60722059D01*
X136791449Y-60836670D01*
X136781114Y-60961395D01*
X136421497Y-60961395D01*
X136452892Y-60930000D01*
X136113037Y-60590144D01*
X136074098Y-60727002D01*
X136074095Y-60727016D01*
X136055287Y-60929996D01*
X136055287Y-60930003D01*
X99695000Y-60930003D01*
X99695000Y-58420004D01*
X106094628Y-58420004D01*
X106114469Y-58634130D01*
X106114471Y-58634141D01*
X106164149Y-58808740D01*
X106164149Y-58808741D01*
X106552890Y-58420000D01*
X106848533Y-58420000D01*
X106868672Y-58547150D01*
X106927116Y-58661854D01*
X107018145Y-58752883D01*
X107132849Y-58811327D01*
X107228014Y-58826400D01*
X107291984Y-58826400D01*
X107387149Y-58811327D01*
X107501853Y-58752883D01*
X107592882Y-58661854D01*
X107597891Y-58652022D01*
X107596987Y-58669951D01*
X107550157Y-58804039D01*
X107467447Y-58919502D01*
X107460118Y-58926987D01*
X106872709Y-59514395D01*
X106941083Y-59540884D01*
X107152463Y-59580399D01*
X107152473Y-59580400D01*
X107367525Y-59580400D01*
X107367534Y-59580399D01*
X107578910Y-59540885D01*
X107578925Y-59540881D01*
X107779436Y-59463202D01*
X107786998Y-59459437D01*
X107921852Y-59414863D01*
X108063802Y-59410088D01*
X108201347Y-59445497D01*
X108231870Y-59459436D01*
X108240312Y-59463639D01*
X108240325Y-59463647D01*
X108440943Y-59541367D01*
X108546684Y-59561133D01*
X108652419Y-59580899D01*
X108652423Y-59580899D01*
X108652426Y-59580900D01*
X108652427Y-59580900D01*
X108867571Y-59580900D01*
X108867572Y-59580900D01*
X108867575Y-59580899D01*
X108867578Y-59580899D01*
X108909249Y-59573109D01*
X109079055Y-59541367D01*
X109279673Y-59463647D01*
X109279685Y-59463639D01*
X109287560Y-59459719D01*
X109422414Y-59415144D01*
X109564364Y-59410367D01*
X109701910Y-59445776D01*
X109732440Y-59459719D01*
X109740318Y-59463641D01*
X109740327Y-59463647D01*
X109940945Y-59541367D01*
X110046686Y-59561133D01*
X110152421Y-59580899D01*
X110152425Y-59580899D01*
X110152428Y-59580900D01*
X110152429Y-59580900D01*
X110367573Y-59580900D01*
X110367574Y-59580900D01*
X110367577Y-59580899D01*
X110367580Y-59580899D01*
X110409251Y-59573109D01*
X110579057Y-59541367D01*
X110779675Y-59463647D01*
X110779687Y-59463639D01*
X110787560Y-59459720D01*
X110922415Y-59415145D01*
X111064364Y-59410368D01*
X111201910Y-59445777D01*
X111232433Y-59459716D01*
X111240317Y-59463641D01*
X111240326Y-59463647D01*
X111440944Y-59541367D01*
X111546685Y-59561133D01*
X111652420Y-59580899D01*
X111652424Y-59580899D01*
X111652427Y-59580900D01*
X111652428Y-59580900D01*
X111867572Y-59580900D01*
X111867573Y-59580900D01*
X111867576Y-59580899D01*
X111867579Y-59580899D01*
X111909250Y-59573109D01*
X112079056Y-59541367D01*
X112279674Y-59463647D01*
X112462595Y-59350387D01*
X112621591Y-59205444D01*
X112751245Y-59033753D01*
X112847144Y-58841162D01*
X112906022Y-58634229D01*
X112907791Y-58615143D01*
X112925873Y-58420005D01*
X112925873Y-58419994D01*
X112906023Y-58205778D01*
X112906022Y-58205776D01*
X112906022Y-58205771D01*
X112847144Y-57998838D01*
X112751245Y-57806247D01*
X112621591Y-57634556D01*
X112462595Y-57489613D01*
X112462592Y-57489611D01*
X112462591Y-57489610D01*
X112279671Y-57376351D01*
X112080300Y-57299115D01*
X112079056Y-57298633D01*
X112079052Y-57298632D01*
X112079048Y-57298631D01*
X111867579Y-57259100D01*
X111867573Y-57259100D01*
X111652427Y-57259100D01*
X111652420Y-57259100D01*
X111440951Y-57298631D01*
X111440938Y-57298635D01*
X111240325Y-57376352D01*
X111232421Y-57380289D01*
X111097565Y-57424858D01*
X110955615Y-57429628D01*
X110818071Y-57394214D01*
X110787573Y-57380286D01*
X110779672Y-57376351D01*
X110580301Y-57299115D01*
X110579057Y-57298633D01*
X110579053Y-57298632D01*
X110579049Y-57298631D01*
X110367580Y-57259100D01*
X110367574Y-57259100D01*
X110152428Y-57259100D01*
X110152421Y-57259100D01*
X109940952Y-57298631D01*
X109940939Y-57298635D01*
X109740329Y-57376351D01*
X109732427Y-57380287D01*
X109597572Y-57424858D01*
X109455622Y-57429630D01*
X109318077Y-57394217D01*
X109287573Y-57380287D01*
X109279670Y-57376351D01*
X109080299Y-57299115D01*
X109079055Y-57298633D01*
X109079051Y-57298632D01*
X109079047Y-57298631D01*
X108867578Y-57259100D01*
X108867572Y-57259100D01*
X108652426Y-57259100D01*
X108652419Y-57259100D01*
X108440950Y-57298631D01*
X108440937Y-57298635D01*
X108240325Y-57376352D01*
X108231858Y-57380569D01*
X108097002Y-57425139D01*
X107955052Y-57429910D01*
X107817508Y-57394496D01*
X107787010Y-57380568D01*
X107779443Y-57376800D01*
X107578925Y-57299118D01*
X107578910Y-57299114D01*
X107367534Y-57259600D01*
X107152465Y-57259600D01*
X106941083Y-57299115D01*
X106941072Y-57299118D01*
X106872709Y-57325602D01*
X107259999Y-57712892D01*
X107259999Y-57712893D01*
X107460117Y-57913011D01*
X107545233Y-58026712D01*
X107594867Y-58159787D01*
X107596718Y-58185676D01*
X107592882Y-58178146D01*
X107501853Y-58087117D01*
X107387149Y-58028673D01*
X107291984Y-58013600D01*
X107228014Y-58013600D01*
X107132849Y-58028673D01*
X107018145Y-58087117D01*
X106927116Y-58178146D01*
X106868672Y-58292850D01*
X106848533Y-58420000D01*
X106552890Y-58420000D01*
X106552891Y-58419999D01*
X106164150Y-58031258D01*
X106164149Y-58031258D01*
X106114470Y-58205865D01*
X106094628Y-58419995D01*
X106094628Y-58420004D01*
X99695000Y-58420004D01*
X99695000Y-56896001D01*
X154650532Y-56896001D01*
X154670365Y-57122693D01*
X154729261Y-57342498D01*
X154825433Y-57548736D01*
X154919395Y-57682928D01*
X154955953Y-57735139D01*
X155116861Y-57896047D01*
X155303266Y-58026568D01*
X155375660Y-58060326D01*
X155509501Y-58122738D01*
X155509503Y-58122738D01*
X155509504Y-58122739D01*
X155729308Y-58181635D01*
X155934264Y-58199566D01*
X155955999Y-58201468D01*
X155956000Y-58201468D01*
X155956001Y-58201468D01*
X155975834Y-58199732D01*
X156182692Y-58181635D01*
X156402496Y-58122739D01*
X156608734Y-58026568D01*
X156795139Y-57896047D01*
X156873154Y-57818032D01*
X156986855Y-57732916D01*
X157119930Y-57683282D01*
X157261598Y-57673149D01*
X157400383Y-57703340D01*
X157525040Y-57771408D01*
X157578846Y-57818032D01*
X157656861Y-57896047D01*
X157843266Y-58026568D01*
X157915660Y-58060326D01*
X158049501Y-58122738D01*
X158049503Y-58122738D01*
X158049504Y-58122739D01*
X158269308Y-58181635D01*
X158474264Y-58199566D01*
X158495999Y-58201468D01*
X158496000Y-58201468D01*
X158496001Y-58201468D01*
X158515834Y-58199732D01*
X158722692Y-58181635D01*
X158942496Y-58122739D01*
X159148734Y-58026568D01*
X159335139Y-57896047D01*
X159413154Y-57818032D01*
X159526855Y-57732916D01*
X159659930Y-57683282D01*
X159801598Y-57673149D01*
X159940383Y-57703340D01*
X160065040Y-57771408D01*
X160118846Y-57818032D01*
X160196861Y-57896047D01*
X160383266Y-58026568D01*
X160455660Y-58060326D01*
X160589501Y-58122738D01*
X160589503Y-58122738D01*
X160589504Y-58122739D01*
X160809308Y-58181635D01*
X161014264Y-58199566D01*
X161035999Y-58201468D01*
X161036000Y-58201468D01*
X161036001Y-58201468D01*
X161055834Y-58199732D01*
X161262692Y-58181635D01*
X161482496Y-58122739D01*
X161688734Y-58026568D01*
X161875139Y-57896047D01*
X161953154Y-57818032D01*
X162066855Y-57732916D01*
X162199930Y-57683282D01*
X162341598Y-57673149D01*
X162480383Y-57703340D01*
X162605040Y-57771408D01*
X162658846Y-57818032D01*
X162750265Y-57909451D01*
X162835381Y-58023152D01*
X162885015Y-58156227D01*
X162895148Y-58297895D01*
X162864957Y-58436680D01*
X162796889Y-58561337D01*
X162750265Y-58615143D01*
X161812063Y-59553346D01*
X161698362Y-59638462D01*
X161565287Y-59688096D01*
X161459217Y-59699500D01*
X158948230Y-59699500D01*
X158807645Y-59679287D01*
X158678450Y-59620286D01*
X158654926Y-59604200D01*
X158567731Y-59540849D01*
X158469138Y-59496952D01*
X158394803Y-59463856D01*
X158394801Y-59463855D01*
X158394800Y-59463855D01*
X158394796Y-59463854D01*
X158209651Y-59424501D01*
X158209650Y-59424500D01*
X158209646Y-59424500D01*
X158020354Y-59424500D01*
X158020350Y-59424500D01*
X158020348Y-59424501D01*
X157835203Y-59463854D01*
X157835199Y-59463855D01*
X157662268Y-59540849D01*
X157509131Y-59652109D01*
X157382465Y-59792786D01*
X157287820Y-59956716D01*
X157287818Y-59956722D01*
X157229327Y-60136740D01*
X157229326Y-60136744D01*
X157209540Y-60325000D01*
X157229326Y-60513255D01*
X157229327Y-60513259D01*
X157287818Y-60693277D01*
X157287820Y-60693283D01*
X157372242Y-60839506D01*
X157382467Y-60857216D01*
X157507375Y-60995940D01*
X157509131Y-60997890D01*
X157662268Y-61109150D01*
X157662269Y-61109150D01*
X157662270Y-61109151D01*
X157835197Y-61186144D01*
X158020354Y-61225500D01*
X158020359Y-61225500D01*
X158209641Y-61225500D01*
X158209646Y-61225500D01*
X158394803Y-61186144D01*
X158567730Y-61109151D01*
X158631549Y-61062784D01*
X158654926Y-61045800D01*
X158780542Y-60979519D01*
X158919744Y-60951314D01*
X158948230Y-60950500D01*
X161819149Y-60950500D01*
X161865401Y-60952681D01*
X161865665Y-60952672D01*
X161865667Y-60952673D01*
X161922205Y-60950896D01*
X161926987Y-60950746D01*
X161942660Y-60950500D01*
X161964356Y-60950500D01*
X161980005Y-60949515D01*
X161980030Y-60949915D01*
X161997658Y-60948524D01*
X162023627Y-60947709D01*
X162023634Y-60947706D01*
X162039288Y-60945228D01*
X162066442Y-60939604D01*
X162081780Y-60935665D01*
X162081792Y-60935664D01*
X162105961Y-60926094D01*
X162150438Y-60910867D01*
X162175390Y-60903618D01*
X162175397Y-60903613D01*
X162189913Y-60897332D01*
X162214881Y-60885100D01*
X162228726Y-60877489D01*
X162228727Y-60877487D01*
X162228732Y-60877486D01*
X162249760Y-60862207D01*
X162289062Y-60836392D01*
X162311420Y-60823170D01*
X162311424Y-60823165D01*
X162323930Y-60813466D01*
X162345037Y-60795439D01*
X162356582Y-60784597D01*
X162356587Y-60784594D01*
X162373156Y-60764564D01*
X162404786Y-60729802D01*
X164973931Y-58160658D01*
X165087629Y-58075545D01*
X165220704Y-58025911D01*
X165362372Y-58015778D01*
X165501157Y-58045969D01*
X165537661Y-58061260D01*
X165669499Y-58122737D01*
X165669500Y-58122737D01*
X165669504Y-58122739D01*
X165889308Y-58181635D01*
X166094264Y-58199566D01*
X166115999Y-58201468D01*
X166116000Y-58201468D01*
X166116001Y-58201468D01*
X166135834Y-58199732D01*
X166342692Y-58181635D01*
X166562496Y-58122739D01*
X166768734Y-58026568D01*
X166955139Y-57896047D01*
X167033154Y-57818032D01*
X167146855Y-57732916D01*
X167279930Y-57683282D01*
X167421598Y-57673149D01*
X167560383Y-57703340D01*
X167685040Y-57771408D01*
X167738846Y-57818032D01*
X167816861Y-57896047D01*
X168003266Y-58026568D01*
X168075660Y-58060326D01*
X168209501Y-58122738D01*
X168209503Y-58122738D01*
X168209504Y-58122739D01*
X168429308Y-58181635D01*
X168634264Y-58199566D01*
X168655999Y-58201468D01*
X168656000Y-58201468D01*
X168656001Y-58201468D01*
X168675834Y-58199732D01*
X168882692Y-58181635D01*
X169102496Y-58122739D01*
X169308734Y-58026568D01*
X169495139Y-57896047D01*
X169573154Y-57818032D01*
X169686855Y-57732916D01*
X169819930Y-57683282D01*
X169961598Y-57673149D01*
X170100383Y-57703340D01*
X170225040Y-57771408D01*
X170278846Y-57818032D01*
X170356861Y-57896047D01*
X170543266Y-58026568D01*
X170615660Y-58060326D01*
X170749501Y-58122738D01*
X170749503Y-58122738D01*
X170749504Y-58122739D01*
X170969308Y-58181635D01*
X171174264Y-58199566D01*
X171195999Y-58201468D01*
X171196000Y-58201468D01*
X171196001Y-58201468D01*
X171215834Y-58199732D01*
X171422692Y-58181635D01*
X171642496Y-58122739D01*
X171848734Y-58026568D01*
X172035139Y-57896047D01*
X172113508Y-57817677D01*
X172227205Y-57732563D01*
X172360280Y-57682928D01*
X172501949Y-57672795D01*
X172640733Y-57702985D01*
X172765390Y-57771052D01*
X172819199Y-57817678D01*
X172897180Y-57895659D01*
X173083517Y-58026133D01*
X173083518Y-58026134D01*
X173236000Y-58097236D01*
X173236000Y-57396000D01*
X174236000Y-57396000D01*
X174236000Y-58097235D01*
X174388481Y-58026134D01*
X174388482Y-58026133D01*
X174574819Y-57895659D01*
X174735659Y-57734819D01*
X174866135Y-57548479D01*
X174937238Y-57396000D01*
X174236000Y-57396000D01*
X173236000Y-57396000D01*
X173236000Y-56896000D01*
X173331014Y-56896000D01*
X173350835Y-57021148D01*
X173408359Y-57134045D01*
X173497955Y-57223641D01*
X173610852Y-57281165D01*
X173704519Y-57296000D01*
X173767481Y-57296000D01*
X173861148Y-57281165D01*
X173974045Y-57223641D01*
X174063641Y-57134045D01*
X174121165Y-57021148D01*
X174140986Y-56896000D01*
X174121165Y-56770852D01*
X174063641Y-56657955D01*
X173974045Y-56568359D01*
X173861148Y-56510835D01*
X173767481Y-56496000D01*
X173704519Y-56496000D01*
X173610852Y-56510835D01*
X173497955Y-56568359D01*
X173408359Y-56657955D01*
X173350835Y-56770852D01*
X173331014Y-56896000D01*
X173236000Y-56896000D01*
X173236000Y-56895000D01*
X173256213Y-56754415D01*
X173315214Y-56625220D01*
X173408224Y-56517881D01*
X173527708Y-56441094D01*
X173663985Y-56401079D01*
X173735000Y-56396000D01*
X174937239Y-56396000D01*
X174981194Y-56327004D01*
X174980999Y-56302403D01*
X175019932Y-56165813D01*
X175095769Y-56045724D01*
X175202368Y-55951866D01*
X175331091Y-55891843D01*
X175471511Y-55870516D01*
X175475467Y-55870500D01*
X192201787Y-55870500D01*
X192342372Y-55890713D01*
X192471567Y-55949714D01*
X192578906Y-56042724D01*
X192655693Y-56162208D01*
X192695708Y-56298485D01*
X192695708Y-56440515D01*
X192689353Y-56473700D01*
X192688198Y-56480991D01*
X192688197Y-56480996D01*
X192688197Y-56480999D01*
X192668057Y-56736901D01*
X192668057Y-56736903D01*
X192676444Y-56843477D01*
X192667323Y-56985214D01*
X192618639Y-57118640D01*
X192534337Y-57232945D01*
X192531828Y-57235471D01*
X184773956Y-64993346D01*
X184660255Y-65078462D01*
X184527180Y-65128096D01*
X184421110Y-65139500D01*
X167242144Y-65139500D01*
X167205533Y-65136618D01*
X167205506Y-65137149D01*
X167179392Y-65135780D01*
X167127159Y-65138518D01*
X167121475Y-65138816D01*
X167095361Y-65139500D01*
X167084805Y-65139500D01*
X167074284Y-65140605D01*
X167048286Y-65142651D01*
X166990351Y-65145688D01*
X166966925Y-65149398D01*
X166943737Y-65154327D01*
X166888572Y-65172251D01*
X166863531Y-65179669D01*
X166807512Y-65194679D01*
X166785370Y-65203179D01*
X166763717Y-65212819D01*
X166713474Y-65241827D01*
X166690526Y-65254286D01*
X166638855Y-65280613D01*
X166618968Y-65293528D01*
X166599785Y-65307465D01*
X166556659Y-65346295D01*
X166536837Y-65363225D01*
X166528627Y-65369873D01*
X166528614Y-65369885D01*
X166521135Y-65377364D01*
X166502228Y-65395305D01*
X166459115Y-65434126D01*
X166441616Y-65453561D01*
X166441221Y-65453205D01*
X166417371Y-65481128D01*
X163739458Y-68159041D01*
X163625757Y-68244157D01*
X163492682Y-68293791D01*
X163430106Y-68303296D01*
X163349305Y-68310365D01*
X163129501Y-68369261D01*
X162923263Y-68465433D01*
X162736863Y-68595951D01*
X162736857Y-68595956D01*
X162658846Y-68673968D01*
X162545145Y-68759084D01*
X162412070Y-68808718D01*
X162270402Y-68818851D01*
X162131617Y-68788660D01*
X162006960Y-68720592D01*
X161953154Y-68673968D01*
X161875142Y-68595956D01*
X161875139Y-68595953D01*
X161782019Y-68530750D01*
X161688736Y-68465433D01*
X161482498Y-68369261D01*
X161262693Y-68310365D01*
X161036001Y-68290532D01*
X161035999Y-68290532D01*
X160809306Y-68310365D01*
X160589501Y-68369261D01*
X160383263Y-68465433D01*
X160196863Y-68595951D01*
X160196857Y-68595956D01*
X160118846Y-68673968D01*
X160005145Y-68759084D01*
X159872070Y-68808718D01*
X159730402Y-68818851D01*
X159591617Y-68788660D01*
X159466960Y-68720592D01*
X159413154Y-68673968D01*
X159335142Y-68595956D01*
X159335139Y-68595953D01*
X159242019Y-68530750D01*
X159148736Y-68465433D01*
X158942498Y-68369261D01*
X158722693Y-68310365D01*
X158496001Y-68290532D01*
X158495999Y-68290532D01*
X158269306Y-68310365D01*
X158049501Y-68369261D01*
X157843265Y-68465432D01*
X157772503Y-68514980D01*
X157645748Y-68579058D01*
X157506076Y-68604829D01*
X157364800Y-68590206D01*
X157233367Y-68536373D01*
X157133445Y-68459067D01*
X157113191Y-68438813D01*
X156998090Y-68352648D01*
X156998089Y-68352647D01*
X156863374Y-68302402D01*
X156803825Y-68296000D01*
X156456000Y-68296000D01*
X156456000Y-70896000D01*
X156803825Y-70896000D01*
X156863374Y-70889597D01*
X156998089Y-70839352D01*
X156998090Y-70839351D01*
X157113189Y-70753188D01*
X157133441Y-70732936D01*
X157247141Y-70647819D01*
X157380216Y-70598183D01*
X157521884Y-70588049D01*
X157660668Y-70618238D01*
X157772501Y-70677018D01*
X157834323Y-70720306D01*
X157843266Y-70726568D01*
X158049501Y-70822738D01*
X158049503Y-70822738D01*
X158049504Y-70822739D01*
X158269308Y-70881635D01*
X158474264Y-70899566D01*
X158495999Y-70901468D01*
X158496000Y-70901468D01*
X158496001Y-70901468D01*
X158515834Y-70899732D01*
X158722692Y-70881635D01*
X158942496Y-70822739D01*
X159148734Y-70726568D01*
X159335139Y-70596047D01*
X159413154Y-70518032D01*
X159526855Y-70432916D01*
X159659930Y-70383282D01*
X159801598Y-70373149D01*
X159940383Y-70403340D01*
X160065040Y-70471408D01*
X160118846Y-70518032D01*
X160196861Y-70596047D01*
X160383266Y-70726568D01*
X160443134Y-70754485D01*
X160589501Y-70822738D01*
X160589503Y-70822738D01*
X160589504Y-70822739D01*
X160809308Y-70881635D01*
X161014264Y-70899566D01*
X161035999Y-70901468D01*
X161036000Y-70901468D01*
X161036001Y-70901468D01*
X161055834Y-70899732D01*
X161262692Y-70881635D01*
X161482496Y-70822739D01*
X161688734Y-70726568D01*
X161875139Y-70596047D01*
X161953154Y-70518032D01*
X162066855Y-70432916D01*
X162199930Y-70383282D01*
X162341598Y-70373149D01*
X162480383Y-70403340D01*
X162605040Y-70471408D01*
X162658846Y-70518032D01*
X162736861Y-70596047D01*
X162923266Y-70726568D01*
X162983134Y-70754485D01*
X163129501Y-70822738D01*
X163129503Y-70822738D01*
X163129504Y-70822739D01*
X163349308Y-70881635D01*
X163554264Y-70899566D01*
X163575999Y-70901468D01*
X163576000Y-70901468D01*
X163576001Y-70901468D01*
X163595834Y-70899732D01*
X163802692Y-70881635D01*
X164022496Y-70822739D01*
X164228734Y-70726568D01*
X164415139Y-70596047D01*
X164493154Y-70518032D01*
X164606855Y-70432916D01*
X164739930Y-70383282D01*
X164881598Y-70373149D01*
X165020383Y-70403340D01*
X165145040Y-70471408D01*
X165198846Y-70518032D01*
X165276861Y-70596047D01*
X165463266Y-70726568D01*
X165523134Y-70754485D01*
X165669501Y-70822738D01*
X165669503Y-70822738D01*
X165669504Y-70822739D01*
X165889308Y-70881635D01*
X166094264Y-70899566D01*
X166115999Y-70901468D01*
X166116000Y-70901468D01*
X166116001Y-70901468D01*
X166135834Y-70899732D01*
X166342692Y-70881635D01*
X166562496Y-70822739D01*
X166768734Y-70726568D01*
X166955139Y-70596047D01*
X167033154Y-70518032D01*
X167146855Y-70432916D01*
X167279930Y-70383282D01*
X167421598Y-70373149D01*
X167560383Y-70403340D01*
X167685040Y-70471408D01*
X167738846Y-70518032D01*
X167816861Y-70596047D01*
X168003266Y-70726568D01*
X168063134Y-70754485D01*
X168209501Y-70822738D01*
X168209503Y-70822738D01*
X168209504Y-70822739D01*
X168429308Y-70881635D01*
X168634264Y-70899566D01*
X168655999Y-70901468D01*
X168656000Y-70901468D01*
X168656001Y-70901468D01*
X168675834Y-70899732D01*
X168882692Y-70881635D01*
X169102496Y-70822739D01*
X169308734Y-70726568D01*
X169495139Y-70596047D01*
X169573154Y-70518032D01*
X169686855Y-70432916D01*
X169819930Y-70383282D01*
X169961598Y-70373149D01*
X170100383Y-70403340D01*
X170225040Y-70471408D01*
X170278846Y-70518032D01*
X170356861Y-70596047D01*
X170543266Y-70726568D01*
X170603134Y-70754485D01*
X170749501Y-70822738D01*
X170749503Y-70822738D01*
X170749504Y-70822739D01*
X170969308Y-70881635D01*
X171174264Y-70899566D01*
X171195999Y-70901468D01*
X171196000Y-70901468D01*
X171196001Y-70901468D01*
X171215834Y-70899732D01*
X171422692Y-70881635D01*
X171642496Y-70822739D01*
X171848734Y-70726568D01*
X172035139Y-70596047D01*
X172113508Y-70517677D01*
X172227205Y-70432563D01*
X172360280Y-70382928D01*
X172501949Y-70372795D01*
X172640733Y-70402985D01*
X172765390Y-70471052D01*
X172819199Y-70517678D01*
X172897180Y-70595659D01*
X173083517Y-70726133D01*
X173083518Y-70726134D01*
X173236000Y-70797236D01*
X173236000Y-70096000D01*
X174236000Y-70096000D01*
X174236000Y-70797235D01*
X174388481Y-70726134D01*
X174388482Y-70726133D01*
X174574819Y-70595659D01*
X174735659Y-70434819D01*
X174866135Y-70248479D01*
X174937238Y-70096000D01*
X174236000Y-70096000D01*
X173236000Y-70096000D01*
X173236000Y-69596000D01*
X173331014Y-69596000D01*
X173350835Y-69721148D01*
X173408359Y-69834045D01*
X173497955Y-69923641D01*
X173610852Y-69981165D01*
X173704519Y-69996000D01*
X173767481Y-69996000D01*
X173861148Y-69981165D01*
X173974045Y-69923641D01*
X174063641Y-69834045D01*
X174121165Y-69721148D01*
X174140986Y-69596000D01*
X174121165Y-69470852D01*
X174063641Y-69357955D01*
X173974045Y-69268359D01*
X173861148Y-69210835D01*
X173767481Y-69196000D01*
X173704519Y-69196000D01*
X173610852Y-69210835D01*
X173497955Y-69268359D01*
X173408359Y-69357955D01*
X173350835Y-69470852D01*
X173331014Y-69596000D01*
X173236000Y-69596000D01*
X173236000Y-68394761D01*
X174236000Y-68394761D01*
X174236000Y-69096000D01*
X174937238Y-69096000D01*
X174866135Y-68943520D01*
X174735659Y-68757180D01*
X174574819Y-68596340D01*
X174388479Y-68465864D01*
X174236000Y-68394761D01*
X173236000Y-68394761D01*
X173083520Y-68465864D01*
X172897180Y-68596340D01*
X172819197Y-68674323D01*
X172705496Y-68759438D01*
X172572420Y-68809072D01*
X172430752Y-68819203D01*
X172291968Y-68789012D01*
X172167311Y-68720943D01*
X172113507Y-68674321D01*
X172035142Y-68595956D01*
X172035139Y-68595953D01*
X171942019Y-68530750D01*
X171848736Y-68465433D01*
X171642498Y-68369261D01*
X171422693Y-68310365D01*
X171196001Y-68290532D01*
X171195999Y-68290532D01*
X170969306Y-68310365D01*
X170749501Y-68369261D01*
X170543263Y-68465433D01*
X170356863Y-68595951D01*
X170356857Y-68595956D01*
X170278846Y-68673968D01*
X170165145Y-68759084D01*
X170032070Y-68808718D01*
X169890402Y-68818851D01*
X169751617Y-68788660D01*
X169626960Y-68720592D01*
X169573154Y-68673968D01*
X169495142Y-68595956D01*
X169495139Y-68595953D01*
X169402019Y-68530750D01*
X169308736Y-68465433D01*
X169102498Y-68369261D01*
X168882693Y-68310365D01*
X168656001Y-68290532D01*
X168655999Y-68290532D01*
X168429306Y-68310365D01*
X168209501Y-68369261D01*
X168003263Y-68465433D01*
X167816863Y-68595951D01*
X167816857Y-68595956D01*
X167738846Y-68673968D01*
X167625145Y-68759084D01*
X167492070Y-68808718D01*
X167350402Y-68818851D01*
X167211617Y-68788660D01*
X167086960Y-68720592D01*
X167033154Y-68673968D01*
X166955142Y-68595956D01*
X166955139Y-68595953D01*
X166792006Y-68481727D01*
X166688440Y-68384535D01*
X166616451Y-68262100D01*
X166581872Y-68124344D01*
X166587504Y-67982425D01*
X166632890Y-67847842D01*
X166714355Y-67731498D01*
X166725329Y-67720168D01*
X167358848Y-67086650D01*
X167472546Y-67001538D01*
X167605621Y-66951904D01*
X167711691Y-66940500D01*
X184890662Y-66940500D01*
X184927277Y-66943381D01*
X184927305Y-66942850D01*
X184953401Y-66944217D01*
X184953413Y-66944219D01*
X185011330Y-66941183D01*
X185037444Y-66940500D01*
X185047993Y-66940500D01*
X185058473Y-66939398D01*
X185084495Y-66937349D01*
X185142447Y-66934313D01*
X185142451Y-66934311D01*
X185165857Y-66930604D01*
X185189052Y-66925675D01*
X185189054Y-66925674D01*
X185189057Y-66925674D01*
X185244240Y-66907743D01*
X185269254Y-66900334D01*
X185325289Y-66885320D01*
X185325295Y-66885316D01*
X185347437Y-66876817D01*
X185369081Y-66867181D01*
X185369083Y-66867179D01*
X185369085Y-66867179D01*
X185419327Y-66838170D01*
X185442246Y-66825726D01*
X185493950Y-66799383D01*
X185493960Y-66799374D01*
X185513832Y-66786470D01*
X185533012Y-66772535D01*
X185533017Y-66772533D01*
X185576141Y-66733703D01*
X185595978Y-66716761D01*
X185604181Y-66710119D01*
X185611624Y-66702676D01*
X185630580Y-66684684D01*
X185673689Y-66645871D01*
X185673689Y-66645870D01*
X185673692Y-66645868D01*
X185691191Y-66626433D01*
X185691587Y-66626789D01*
X185715435Y-66598863D01*
X191826486Y-60487812D01*
X191940185Y-60402699D01*
X192073260Y-60353065D01*
X192214928Y-60342932D01*
X192353713Y-60373123D01*
X192478370Y-60441191D01*
X192578800Y-60541621D01*
X192646868Y-60666278D01*
X192676792Y-60801508D01*
X192688694Y-60952730D01*
X192748598Y-61202248D01*
X192748600Y-61202254D01*
X192846797Y-61439325D01*
X192846797Y-61439326D01*
X192849674Y-61444018D01*
X193438421Y-60855270D01*
X193485038Y-61023166D01*
X193574319Y-61191569D01*
X193697716Y-61336842D01*
X193849456Y-61452192D01*
X194022446Y-61532226D01*
X194148035Y-61559870D01*
X193556780Y-62151125D01*
X193561467Y-62153998D01*
X193710216Y-62215612D01*
X193832365Y-62288086D01*
X193929147Y-62392037D01*
X193992723Y-62519043D01*
X194017941Y-62658817D01*
X194002759Y-62800033D01*
X193948407Y-62931252D01*
X193859288Y-63041843D01*
X193742622Y-63122847D01*
X193710220Y-63137644D01*
X193561245Y-63199352D01*
X193342374Y-63333475D01*
X193147183Y-63500183D01*
X192980475Y-63695374D01*
X192846352Y-63914243D01*
X192748121Y-64151395D01*
X192748120Y-64151399D01*
X192688197Y-64400997D01*
X192668057Y-64656900D01*
X192688197Y-64912802D01*
X192748120Y-65162400D01*
X192748121Y-65162404D01*
X192846352Y-65399556D01*
X192980475Y-65618425D01*
X193147183Y-65813616D01*
X193342374Y-65980324D01*
X193561243Y-66114447D01*
X193709566Y-66175884D01*
X193831714Y-66248358D01*
X193928496Y-66352309D01*
X193992071Y-66479316D01*
X194017289Y-66619089D01*
X194002107Y-66760306D01*
X193947754Y-66891525D01*
X193858635Y-67002115D01*
X193741968Y-67083118D01*
X193709566Y-67097916D01*
X193561243Y-67159352D01*
X193342374Y-67293475D01*
X193147183Y-67460183D01*
X192980475Y-67655374D01*
X192846352Y-67874243D01*
X192748121Y-68111395D01*
X192748120Y-68111399D01*
X192688197Y-68360997D01*
X192668057Y-68616900D01*
X192688197Y-68872802D01*
X192748120Y-69122400D01*
X192748121Y-69122404D01*
X192846352Y-69359556D01*
X192980475Y-69578425D01*
X193147183Y-69773616D01*
X193342374Y-69940324D01*
X193561243Y-70074447D01*
X193709566Y-70135884D01*
X193831714Y-70208358D01*
X193928496Y-70312309D01*
X193992071Y-70439316D01*
X194017289Y-70579089D01*
X194002107Y-70720306D01*
X193947754Y-70851525D01*
X193858635Y-70962115D01*
X193741968Y-71043118D01*
X193709566Y-71057916D01*
X193561243Y-71119352D01*
X193342374Y-71253475D01*
X193147183Y-71420183D01*
X192980475Y-71615374D01*
X192846352Y-71834243D01*
X192748121Y-72071395D01*
X192748120Y-72071399D01*
X192688197Y-72320997D01*
X192668057Y-72576900D01*
X192688197Y-72832802D01*
X192748120Y-73082400D01*
X192748121Y-73082404D01*
X192846352Y-73319556D01*
X192980475Y-73538425D01*
X193147183Y-73733616D01*
X193342374Y-73900324D01*
X193561243Y-74034447D01*
X193709566Y-74095884D01*
X193831714Y-74168358D01*
X193928496Y-74272309D01*
X193992071Y-74399316D01*
X194017289Y-74539089D01*
X194002107Y-74680306D01*
X193947754Y-74811525D01*
X193858635Y-74922115D01*
X193741968Y-75003118D01*
X193709566Y-75017916D01*
X193561243Y-75079352D01*
X193342374Y-75213475D01*
X193147183Y-75380183D01*
X192980475Y-75575374D01*
X192846352Y-75794243D01*
X192748121Y-76031395D01*
X192748120Y-76031399D01*
X192688197Y-76280997D01*
X192668057Y-76536900D01*
X192688197Y-76792802D01*
X192748120Y-77042400D01*
X192748121Y-77042404D01*
X192846352Y-77279556D01*
X192980475Y-77498425D01*
X193147183Y-77693616D01*
X193342374Y-77860324D01*
X193561243Y-77994447D01*
X193798397Y-78092679D01*
X194047998Y-78152603D01*
X194303900Y-78172743D01*
X194559802Y-78152603D01*
X194809403Y-78092679D01*
X195046557Y-77994447D01*
X195265424Y-77860325D01*
X195460616Y-77693616D01*
X195627325Y-77498424D01*
X195761447Y-77279557D01*
X195859679Y-77042403D01*
X195919603Y-76792802D01*
X195939743Y-76536900D01*
X195919603Y-76280998D01*
X195859679Y-76031397D01*
X195761447Y-75794243D01*
X195698053Y-75690793D01*
X195627324Y-75575374D01*
X195460616Y-75380183D01*
X195265425Y-75213475D01*
X195046554Y-75079351D01*
X194898234Y-75017916D01*
X194776086Y-74945443D01*
X194679304Y-74841492D01*
X194615728Y-74714485D01*
X194590510Y-74574712D01*
X194605692Y-74433495D01*
X194660044Y-74302276D01*
X194749164Y-74191685D01*
X194865830Y-74110682D01*
X194898234Y-74095884D01*
X195013791Y-74048019D01*
X195046557Y-74034447D01*
X195265424Y-73900325D01*
X195460616Y-73733616D01*
X195627325Y-73538424D01*
X195761447Y-73319557D01*
X195859679Y-73082403D01*
X195919603Y-72832802D01*
X195939743Y-72576900D01*
X195919603Y-72320998D01*
X195859679Y-72071397D01*
X195761447Y-71834243D01*
X195627325Y-71615376D01*
X195627324Y-71615374D01*
X195460616Y-71420183D01*
X195265425Y-71253475D01*
X195046554Y-71119351D01*
X194898234Y-71057916D01*
X194776086Y-70985443D01*
X194679304Y-70881492D01*
X194615728Y-70754485D01*
X194590510Y-70614712D01*
X194605692Y-70473495D01*
X194660044Y-70342276D01*
X194749164Y-70231685D01*
X194865830Y-70150682D01*
X194898234Y-70135884D01*
X195039855Y-70077223D01*
X195046557Y-70074447D01*
X195265424Y-69940325D01*
X195460616Y-69773616D01*
X195627325Y-69578424D01*
X195761447Y-69359557D01*
X195859679Y-69122403D01*
X195919603Y-68872802D01*
X195939743Y-68616900D01*
X195919603Y-68360998D01*
X195892838Y-68249517D01*
X195879674Y-68108100D01*
X195906885Y-67968701D01*
X195972267Y-67842614D01*
X196025199Y-67780189D01*
X196582451Y-67222937D01*
X196616685Y-67191788D01*
X196616871Y-67191589D01*
X196616877Y-67191586D01*
X196658930Y-67146803D01*
X196669744Y-67135644D01*
X196685120Y-67120270D01*
X196685130Y-67120256D01*
X196695500Y-67108496D01*
X196695800Y-67108761D01*
X196707276Y-67095320D01*
X196725062Y-67076382D01*
X196725063Y-67076379D01*
X196734362Y-67063581D01*
X196749626Y-67040343D01*
X196757672Y-67026738D01*
X196757674Y-67026736D01*
X196767995Y-67002883D01*
X196788675Y-66960666D01*
X196801197Y-66937892D01*
X196801199Y-66937885D01*
X196807020Y-66923185D01*
X196816029Y-66896869D01*
X196820436Y-66881701D01*
X196820436Y-66881698D01*
X196820438Y-66881695D01*
X196824503Y-66856023D01*
X196834040Y-66809976D01*
X196840500Y-66784819D01*
X196840500Y-66784807D01*
X196842479Y-66769143D01*
X196844663Y-66741399D01*
X196845160Y-66725603D01*
X196842715Y-66699739D01*
X196840500Y-66652776D01*
X196840500Y-56695741D01*
X196842680Y-56649503D01*
X196842671Y-56649231D01*
X196842672Y-56649229D01*
X196840745Y-56587928D01*
X196840500Y-56572258D01*
X196840500Y-56550549D01*
X196839515Y-56534891D01*
X196839915Y-56534865D01*
X196838525Y-56517242D01*
X196837709Y-56491269D01*
X196837706Y-56491261D01*
X196835232Y-56475636D01*
X196829596Y-56448421D01*
X196825665Y-56433108D01*
X196825664Y-56433106D01*
X196825664Y-56433104D01*
X196816093Y-56408932D01*
X196800868Y-56364460D01*
X196793619Y-56339511D01*
X196793618Y-56339506D01*
X196793613Y-56339498D01*
X196787334Y-56324988D01*
X196775104Y-56300022D01*
X196767485Y-56286163D01*
X196752214Y-56265144D01*
X196726402Y-56225849D01*
X196713172Y-56203479D01*
X196713170Y-56203475D01*
X196713165Y-56203470D01*
X196703481Y-56190985D01*
X196685406Y-56169822D01*
X196674596Y-56158310D01*
X196654567Y-56141741D01*
X196619797Y-56110102D01*
X195387247Y-54877552D01*
X195356091Y-54843313D01*
X195355891Y-54843126D01*
X195355890Y-54843123D01*
X195311146Y-54801105D01*
X195299924Y-54790229D01*
X195284577Y-54774882D01*
X195272812Y-54764509D01*
X195273073Y-54764211D01*
X195259646Y-54752742D01*
X195240685Y-54734937D01*
X195227907Y-54725653D01*
X195204641Y-54710371D01*
X195191040Y-54702327D01*
X195167179Y-54692001D01*
X195124972Y-54671324D01*
X195102196Y-54658803D01*
X195087515Y-54652990D01*
X195061148Y-54643963D01*
X195045997Y-54639561D01*
X195020305Y-54635491D01*
X194974296Y-54625963D01*
X194969606Y-54624759D01*
X194949123Y-54619500D01*
X194949122Y-54619500D01*
X194949118Y-54619499D01*
X194933465Y-54617521D01*
X194905689Y-54615335D01*
X194889907Y-54614839D01*
X194864043Y-54617285D01*
X194817080Y-54619500D01*
X165840851Y-54619500D01*
X165794598Y-54617318D01*
X165733013Y-54619254D01*
X165717340Y-54619500D01*
X165695650Y-54619500D01*
X165695648Y-54619500D01*
X165680001Y-54620484D01*
X165679976Y-54620087D01*
X165662370Y-54621473D01*
X165636376Y-54622290D01*
X165620784Y-54624759D01*
X165593500Y-54630409D01*
X165578202Y-54634337D01*
X165554023Y-54643910D01*
X165509574Y-54659128D01*
X165484615Y-54666379D01*
X165470156Y-54672636D01*
X165445062Y-54684930D01*
X165431267Y-54692514D01*
X165410233Y-54707796D01*
X165370959Y-54733594D01*
X165348582Y-54746828D01*
X165336134Y-54756483D01*
X165314890Y-54774627D01*
X165303408Y-54785409D01*
X165286846Y-54805430D01*
X165255211Y-54840197D01*
X164623538Y-55471869D01*
X164589306Y-55503018D01*
X164553805Y-55540822D01*
X164442832Y-55629464D01*
X164311380Y-55683251D01*
X164170100Y-55697825D01*
X164043660Y-55674449D01*
X164043540Y-55674900D01*
X164037853Y-55673376D01*
X164030436Y-55672005D01*
X164022996Y-55669395D01*
X163802693Y-55610365D01*
X163576001Y-55590532D01*
X163575999Y-55590532D01*
X163349306Y-55610365D01*
X163129501Y-55669261D01*
X162923263Y-55765433D01*
X162736863Y-55895951D01*
X162736857Y-55895956D01*
X162658846Y-55973968D01*
X162545145Y-56059084D01*
X162412070Y-56108718D01*
X162270402Y-56118851D01*
X162131617Y-56088660D01*
X162006960Y-56020592D01*
X161953154Y-55973968D01*
X161875142Y-55895956D01*
X161875139Y-55895953D01*
X161826674Y-55862018D01*
X161688736Y-55765433D01*
X161482498Y-55669261D01*
X161262693Y-55610365D01*
X161036001Y-55590532D01*
X161035999Y-55590532D01*
X160809306Y-55610365D01*
X160589501Y-55669261D01*
X160383263Y-55765433D01*
X160196863Y-55895951D01*
X160196857Y-55895956D01*
X160118846Y-55973968D01*
X160005145Y-56059084D01*
X159872070Y-56108718D01*
X159730402Y-56118851D01*
X159591617Y-56088660D01*
X159466960Y-56020592D01*
X159413154Y-55973968D01*
X159335142Y-55895956D01*
X159335139Y-55895953D01*
X159286674Y-55862018D01*
X159148736Y-55765433D01*
X158942498Y-55669261D01*
X158722693Y-55610365D01*
X158496001Y-55590532D01*
X158495999Y-55590532D01*
X158269306Y-55610365D01*
X158049501Y-55669261D01*
X157843263Y-55765433D01*
X157656863Y-55895951D01*
X157656857Y-55895956D01*
X157578846Y-55973968D01*
X157465145Y-56059084D01*
X157332070Y-56108718D01*
X157190402Y-56118851D01*
X157051617Y-56088660D01*
X156926960Y-56020592D01*
X156873154Y-55973968D01*
X156795142Y-55895956D01*
X156795139Y-55895953D01*
X156746674Y-55862018D01*
X156608736Y-55765433D01*
X156402498Y-55669261D01*
X156182693Y-55610365D01*
X155956001Y-55590532D01*
X155955999Y-55590532D01*
X155729306Y-55610365D01*
X155509501Y-55669261D01*
X155303263Y-55765433D01*
X155116863Y-55895951D01*
X155116857Y-55895956D01*
X154955956Y-56056857D01*
X154955951Y-56056863D01*
X154825433Y-56243263D01*
X154729261Y-56449501D01*
X154670365Y-56669306D01*
X154650532Y-56895998D01*
X154650532Y-56896001D01*
X99695000Y-56896001D01*
X99695000Y-54461902D01*
X99715213Y-54321317D01*
X99774214Y-54192122D01*
X99867224Y-54084783D01*
X99986708Y-54007996D01*
X100122985Y-53967981D01*
X100265015Y-53967981D01*
X100401292Y-54007996D01*
X100520776Y-54084783D01*
X100613786Y-54192122D01*
X100645509Y-54249438D01*
X100762708Y-54498500D01*
X100856538Y-54646352D01*
X101821027Y-53681863D01*
X101825770Y-53701411D01*
X101913038Y-53892502D01*
X102034894Y-54063624D01*
X102186932Y-54208592D01*
X102363658Y-54322167D01*
X102528818Y-54388287D01*
X101561340Y-55355765D01*
X101561340Y-55355766D01*
X101581467Y-55370388D01*
X101846109Y-55515877D01*
X101846112Y-55515879D01*
X102126892Y-55627047D01*
X102126896Y-55627048D01*
X102419395Y-55702149D01*
X102419405Y-55702151D01*
X102718994Y-55739999D01*
X102719007Y-55740000D01*
X103020993Y-55740000D01*
X103021005Y-55739999D01*
X103320594Y-55702151D01*
X103320604Y-55702149D01*
X103613103Y-55627048D01*
X103613107Y-55627047D01*
X103893887Y-55515879D01*
X103893898Y-55515874D01*
X104158522Y-55370395D01*
X104158530Y-55370390D01*
X104178658Y-55355766D01*
X104178659Y-55355765D01*
X103209613Y-54386719D01*
X103280689Y-54365850D01*
X103467410Y-54269589D01*
X103632540Y-54139729D01*
X103770110Y-53980965D01*
X103875147Y-53799035D01*
X103916541Y-53679434D01*
X104883459Y-54646352D01*
X104883460Y-54646352D01*
X104977291Y-54498499D01*
X105105873Y-54225249D01*
X105199197Y-53938030D01*
X105255782Y-53641398D01*
X105255784Y-53641387D01*
X105274745Y-53340006D01*
X105274745Y-53339993D01*
X105255784Y-53038612D01*
X105255782Y-53038601D01*
X105199197Y-52741969D01*
X105105873Y-52454750D01*
X104977291Y-52181499D01*
X104977289Y-52181496D01*
X104883460Y-52033645D01*
X103918971Y-52998134D01*
X103914230Y-52978589D01*
X103826962Y-52787498D01*
X103705106Y-52616376D01*
X103553068Y-52471408D01*
X103376342Y-52357833D01*
X103211180Y-52291711D01*
X104178658Y-51324232D01*
X104178659Y-51324232D01*
X104158523Y-51309604D01*
X103893898Y-51164125D01*
X103893887Y-51164120D01*
X103802553Y-51127959D01*
X103679282Y-51057413D01*
X103580878Y-50954995D01*
X103515316Y-50829003D01*
X103487905Y-50689642D01*
X103500867Y-50548205D01*
X103553152Y-50416148D01*
X103640523Y-50304171D01*
X103755903Y-50221346D01*
X103889943Y-50174381D01*
X103986246Y-50165000D01*
X199543754Y-50165000D01*
X199684339Y-50185213D01*
G37*
%TD.AperFunction*%
%TA.AperFunction,Conductor*%
G36*
X202673459Y-110526352D02*
G01*
X202673460Y-110526352D01*
X202767291Y-110378499D01*
X202884491Y-110129438D01*
X202962638Y-110010840D01*
X203071033Y-109919062D01*
X203200894Y-109861540D01*
X203341700Y-109842935D01*
X203482045Y-109864752D01*
X203610557Y-109925226D01*
X203716827Y-110019456D01*
X203792245Y-110139809D01*
X203830700Y-110276534D01*
X203835000Y-110341902D01*
X203835000Y-111896000D01*
X203814787Y-112036585D01*
X203755786Y-112165780D01*
X203662776Y-112273119D01*
X203543292Y-112349906D01*
X203407015Y-112389921D01*
X203336000Y-112395000D01*
X201776246Y-112395000D01*
X201635661Y-112374787D01*
X201506466Y-112315786D01*
X201399127Y-112222776D01*
X201322340Y-112103292D01*
X201282325Y-111967015D01*
X201282325Y-111824985D01*
X201322340Y-111688708D01*
X201399127Y-111569224D01*
X201506466Y-111476214D01*
X201592553Y-111432041D01*
X201683887Y-111395879D01*
X201683898Y-111395874D01*
X201948522Y-111250395D01*
X201948530Y-111250390D01*
X201968658Y-111235766D01*
X201968659Y-111235765D01*
X200999613Y-110266719D01*
X201070689Y-110245850D01*
X201257410Y-110149589D01*
X201422540Y-110019729D01*
X201560110Y-109860965D01*
X201665147Y-109679035D01*
X201706541Y-109559434D01*
X202673459Y-110526352D01*
G37*
%TD.AperFunction*%
%TA.AperFunction,Conductor*%
G36*
X101894339Y-50185213D02*
G01*
X102023534Y-50244214D01*
X102130873Y-50337224D01*
X102207660Y-50456708D01*
X102247675Y-50592985D01*
X102247675Y-50735015D01*
X102207660Y-50871292D01*
X102130873Y-50990776D01*
X102023534Y-51083786D01*
X101937447Y-51127959D01*
X101846112Y-51164120D01*
X101846109Y-51164122D01*
X101581470Y-51309609D01*
X101561339Y-51324233D01*
X102530386Y-52293280D01*
X102459311Y-52314150D01*
X102272590Y-52410411D01*
X102107460Y-52540271D01*
X101969890Y-52699035D01*
X101864853Y-52880965D01*
X101823458Y-53000565D01*
X100856539Y-52033646D01*
X100762705Y-52181506D01*
X100645508Y-52430562D01*
X100567361Y-52549160D01*
X100458966Y-52640938D01*
X100329105Y-52698459D01*
X100188298Y-52717064D01*
X100047954Y-52695246D01*
X99919441Y-52634773D01*
X99813172Y-52540542D01*
X99737755Y-52420189D01*
X99699300Y-52283464D01*
X99695000Y-52218097D01*
X99695000Y-50664000D01*
X99715213Y-50523415D01*
X99774214Y-50394220D01*
X99867224Y-50286881D01*
X99986708Y-50210094D01*
X100122985Y-50170079D01*
X100194000Y-50165000D01*
X101753754Y-50165000D01*
X101894339Y-50185213D01*
G37*
%TD.AperFunction*%
%TA.AperFunction,Conductor*%
G36*
X203476585Y-50185213D02*
G01*
X203605780Y-50244214D01*
X203713119Y-50337224D01*
X203789906Y-50456708D01*
X203829921Y-50592985D01*
X203835000Y-50664000D01*
X203835000Y-52218097D01*
X203814787Y-52358682D01*
X203755786Y-52487877D01*
X203662776Y-52595216D01*
X203543292Y-52672003D01*
X203407015Y-52712018D01*
X203264985Y-52712018D01*
X203128708Y-52672003D01*
X203009224Y-52595216D01*
X202916214Y-52487877D01*
X202884492Y-52430561D01*
X202767298Y-52181512D01*
X202767289Y-52181496D01*
X202673460Y-52033645D01*
X201708971Y-52998134D01*
X201704230Y-52978589D01*
X201616962Y-52787498D01*
X201495106Y-52616376D01*
X201343068Y-52471408D01*
X201166342Y-52357833D01*
X201001180Y-52291711D01*
X201968658Y-51324232D01*
X201968659Y-51324232D01*
X201948523Y-51309604D01*
X201683898Y-51164125D01*
X201683887Y-51164120D01*
X201592553Y-51127959D01*
X201469282Y-51057413D01*
X201370878Y-50954995D01*
X201305316Y-50829003D01*
X201277905Y-50689642D01*
X201290867Y-50548205D01*
X201343152Y-50416148D01*
X201430523Y-50304171D01*
X201545903Y-50221346D01*
X201679943Y-50174381D01*
X201776246Y-50165000D01*
X203336000Y-50165000D01*
X203476585Y-50185213D01*
G37*
%TD.AperFunction*%
%TD*%
M02*
