%TF.GenerationSoftware,KiCad,Pcbnew,7.0.10*%
%TF.CreationDate,2024-03-01T15:17:48+01:00*%
%TF.ProjectId,arenaPCBv2,6172656e-6150-4434-9276-322e6b696361,rev?*%
%TF.SameCoordinates,Original*%
%TF.FileFunction,Copper,L2,Bot*%
%TF.FilePolarity,Positive*%
%FSLAX46Y46*%
G04 Gerber Fmt 4.6, Leading zero omitted, Abs format (unit mm)*
G04 Created by KiCad (PCBNEW 7.0.10) date 2024-03-01 15:17:48*
%MOMM*%
%LPD*%
G01*
G04 APERTURE LIST*
%TA.AperFunction,ComponentPad*%
%ADD10C,3.800000*%
%TD*%
%TA.AperFunction,ViaPad*%
%ADD11C,0.800000*%
%TD*%
%TA.AperFunction,Conductor*%
%ADD12C,0.250000*%
%TD*%
%TA.AperFunction,Conductor*%
%ADD13C,1.000000*%
%TD*%
G04 APERTURE END LIST*
D10*
%TO.P,M.2,1*%
%TO.N,GND*%
X108000000Y-117000000D03*
%TD*%
%TO.P,M.2,1*%
%TO.N,GND*%
X187000000Y-117000000D03*
%TD*%
%TO.P,M\u002C2,1*%
%TO.N,GND*%
X187000000Y-57000000D03*
%TD*%
%TO.P,M.2,1*%
%TO.N,GND*%
X108000000Y-57000000D03*
%TD*%
D11*
%TO.N,Net-(J9-QI)*%
X130556000Y-100076000D03*
X130556000Y-103632000D03*
%TO.N,GND*%
X156210000Y-59436000D03*
%TO.N,Net-(J9-DIR)*%
X166370000Y-84455000D03*
%TO.N,Net-(J9-STEP)*%
X166370000Y-85725000D03*
%TO.N,Net-(J9-MS3)*%
X143510548Y-97790000D03*
%TO.N,Net-(J9-MS1)*%
X143510000Y-100600000D03*
%TO.N,Net-(J9-MS2)*%
X143510000Y-99060000D03*
%TO.N,Net-(J9-STEP)*%
X142748000Y-95250000D03*
%TO.N,Net-(J9-DIR)*%
X143473000Y-96483000D03*
%TO.N,Net-(J9-MS3)*%
X161290000Y-84582000D03*
%TO.N,Net-(J9-MS2)*%
X158750000Y-84582000D03*
%TO.N,Net-(J9-MS1)*%
X156210000Y-84582000D03*
%TO.N,GND*%
X115824000Y-70612000D03*
X122428000Y-69342000D03*
%TO.N,+3.3V*%
X163576000Y-85852000D03*
X140716000Y-90932000D03*
%TO.N,Net-(J8-Pin_3)*%
X165608000Y-106680000D03*
%TO.N,Net-(J8-Pin_4)*%
X166624000Y-106172000D03*
%TO.N,Net-(J8-Pin_3)*%
X173736000Y-107950000D03*
%TO.N,Net-(J8-Pin_4)*%
X173736000Y-105410000D03*
%TO.N,+3.3V*%
X173736000Y-102815107D03*
X168910000Y-101854000D03*
X163830000Y-106934000D03*
%TO.N,Net-(J9-AIN2)*%
X143256000Y-103632000D03*
%TO.N,Net-(J9-AIN1)*%
X144272000Y-103124000D03*
X145542001Y-108965999D03*
%TO.N,Net-(J9-AIN2)*%
X147576936Y-110991630D03*
%TO.N,Net-(J9-PWMA)*%
X145288000Y-102616000D03*
X146473633Y-109897631D03*
%TO.N,GND*%
X171450000Y-79502000D03*
X156210000Y-79502000D03*
X153670000Y-81534000D03*
X172085000Y-95250000D03*
X162560000Y-93980000D03*
X151130000Y-99060000D03*
X150495000Y-111760000D03*
X140716000Y-89154000D03*
X111760000Y-90805000D03*
X130810000Y-91440000D03*
X133350000Y-94615000D03*
X137795000Y-82305000D03*
X114935000Y-74421800D03*
X118650000Y-69818000D03*
X146050000Y-63500000D03*
X184150000Y-93980000D03*
X185420000Y-110490000D03*
X119380000Y-112395000D03*
%TD*%
D12*
%TO.N,Net-(J9-PWMA)*%
X146473633Y-103801633D02*
X145288000Y-102616000D01*
X146473633Y-109897631D02*
X146473633Y-103801633D01*
%TO.N,Net-(J9-AIN2)*%
X144780000Y-105156000D02*
X143256000Y-103632000D01*
X144780000Y-109229304D02*
X144780000Y-105156000D01*
X146542326Y-110991630D02*
X144780000Y-109229304D01*
X147576936Y-110991630D02*
X146542326Y-110991630D01*
%TO.N,Net-(J9-STEP)*%
X165518000Y-85725000D02*
X166370000Y-85725000D01*
X164666000Y-86577000D02*
X165518000Y-85725000D01*
X163275695Y-86577000D02*
X164666000Y-86577000D01*
X163058695Y-86360000D02*
X163275695Y-86577000D01*
X149352000Y-86360000D02*
X163058695Y-86360000D01*
X142748000Y-92964000D02*
X149352000Y-86360000D01*
X142748000Y-95250000D02*
X142748000Y-92964000D01*
%TO.N,Net-(J9-DIR)*%
X167095000Y-85180000D02*
X166370000Y-84455000D01*
X167095000Y-86025305D02*
X167095000Y-85180000D01*
X166166305Y-86954000D02*
X167095000Y-86025305D01*
X163119536Y-86954000D02*
X166166305Y-86954000D01*
X163033536Y-86868000D02*
X163119536Y-86954000D01*
X149860000Y-86868000D02*
X163033536Y-86868000D01*
X143473000Y-93255000D02*
X149860000Y-86868000D01*
X143473000Y-96483000D02*
X143473000Y-93255000D01*
%TO.N,Net-(J9-MS2)*%
X158025000Y-85307000D02*
X158750000Y-84582000D01*
X155909695Y-85307000D02*
X158025000Y-85307000D01*
X154422695Y-83820000D02*
X155909695Y-85307000D01*
X149860000Y-83820000D02*
X154422695Y-83820000D01*
X141224000Y-92456000D02*
X149860000Y-83820000D01*
X141224000Y-98053305D02*
X141224000Y-92456000D01*
X143510000Y-99060000D02*
X142230695Y-99060000D01*
X142230695Y-99060000D02*
X141224000Y-98053305D01*
%TO.N,Net-(J9-MS1)*%
X154940000Y-83312000D02*
X156210000Y-84582000D01*
X149356653Y-83312000D02*
X154940000Y-83312000D01*
X141441000Y-91227653D02*
X149356653Y-83312000D01*
X141441000Y-91232305D02*
X141441000Y-91227653D01*
X141016305Y-91657000D02*
X141441000Y-91232305D01*
X140462000Y-92206653D02*
X141011653Y-91657000D01*
X142754695Y-100600000D02*
X140462000Y-98307305D01*
X143510000Y-100600000D02*
X142754695Y-100600000D01*
X140462000Y-98307305D02*
X140462000Y-92206653D01*
X141011653Y-91657000D02*
X141016305Y-91657000D01*
%TO.N,Net-(J9-MS3)*%
X148780500Y-85852000D02*
X160020000Y-85852000D01*
X141986000Y-96265452D02*
X141986000Y-92646500D01*
X141986000Y-92646500D02*
X148780500Y-85852000D01*
X160020000Y-85852000D02*
X161290000Y-84582000D01*
X143510548Y-97790000D02*
X141986000Y-96265452D01*
%TO.N,Net-(J9-QI)*%
X130556000Y-103632000D02*
X130556000Y-100076000D01*
D13*
%TO.N,GND*%
X108000000Y-117000000D02*
X110000000Y-115000000D01*
X187000000Y-117000000D02*
X185000000Y-115000000D01*
X187000000Y-57000000D02*
X184000000Y-60000000D01*
X108000000Y-57000000D02*
X110000000Y-59000000D01*
D12*
%TO.N,+3.3V*%
X163576000Y-85842695D02*
X160537305Y-82804000D01*
X160537305Y-82804000D02*
X148844000Y-82804000D01*
X148844000Y-82804000D02*
X140716000Y-90932000D01*
X163576000Y-85852000D02*
X163576000Y-85842695D01*
%TO.N,Net-(J8-Pin_3)*%
X166878000Y-107950000D02*
X165608000Y-106680000D01*
X173736000Y-107950000D02*
X166878000Y-107950000D01*
%TO.N,Net-(J8-Pin_4)*%
X172974000Y-106172000D02*
X166624000Y-106172000D01*
X173736000Y-105410000D02*
X172974000Y-106172000D01*
%TO.N,+3.3V*%
X169926000Y-101854000D02*
X168910000Y-101854000D01*
X170887107Y-102815107D02*
X169926000Y-101854000D01*
X173736000Y-102815107D02*
X170887107Y-102815107D01*
X168910000Y-101854000D02*
X163830000Y-106934000D01*
%TO.N,Net-(J9-AIN1)*%
X145542001Y-104394001D02*
X144272000Y-103124000D01*
X145542001Y-108965999D02*
X145542001Y-104394001D01*
%TD*%
%TA.AperFunction,Conductor*%
%TO.N,GND*%
G36*
X184601299Y-57439685D02*
G01*
X184647054Y-57492489D01*
X184656063Y-57520764D01*
X184670803Y-57598033D01*
X184670803Y-57598035D01*
X184764125Y-57885247D01*
X184764127Y-57885252D01*
X184892704Y-58158491D01*
X184892707Y-58158497D01*
X185054516Y-58413469D01*
X185135311Y-58511133D01*
X186064210Y-57582234D01*
X186164894Y-57723624D01*
X186316932Y-57868592D01*
X186419221Y-57934329D01*
X185486564Y-58866987D01*
X185486565Y-58866989D01*
X185711461Y-59030385D01*
X185711479Y-59030397D01*
X185976109Y-59175878D01*
X185976117Y-59175882D01*
X186256889Y-59287047D01*
X186256892Y-59287048D01*
X186549392Y-59362149D01*
X186549406Y-59362151D01*
X186581540Y-59366211D01*
X186645584Y-59394142D01*
X186684361Y-59452264D01*
X186690000Y-59489233D01*
X186690000Y-114510766D01*
X186670315Y-114577805D01*
X186617511Y-114623560D01*
X186581543Y-114633788D01*
X186549398Y-114637849D01*
X186256892Y-114712951D01*
X186256889Y-114712952D01*
X185976117Y-114824117D01*
X185976109Y-114824121D01*
X185711476Y-114969604D01*
X185711471Y-114969607D01*
X185486565Y-115133010D01*
X185486564Y-115133011D01*
X186416693Y-116063140D01*
X186402590Y-116070411D01*
X186237460Y-116200271D01*
X186099890Y-116359035D01*
X186065334Y-116418887D01*
X185135311Y-115488864D01*
X185054520Y-115586525D01*
X185054518Y-115586528D01*
X184892707Y-115841502D01*
X184892704Y-115841508D01*
X184764127Y-116114747D01*
X184764125Y-116114752D01*
X184670805Y-116401959D01*
X184614216Y-116698609D01*
X184614215Y-116698616D01*
X184612632Y-116723787D01*
X184588777Y-116789458D01*
X184533204Y-116831806D01*
X184488877Y-116840000D01*
X110511123Y-116840000D01*
X110444084Y-116820315D01*
X110398329Y-116767511D01*
X110387368Y-116723787D01*
X110385784Y-116698616D01*
X110385783Y-116698609D01*
X110329194Y-116401959D01*
X110235874Y-116114752D01*
X110235872Y-116114747D01*
X110107295Y-115841508D01*
X110107292Y-115841502D01*
X109945483Y-115586530D01*
X109864686Y-115488864D01*
X108935787Y-116417762D01*
X108835106Y-116276376D01*
X108683068Y-116131408D01*
X108580776Y-116065668D01*
X109513434Y-115133011D01*
X109513433Y-115133009D01*
X109288538Y-114969614D01*
X109288520Y-114969602D01*
X109023890Y-114824121D01*
X109023882Y-114824117D01*
X108743110Y-114712952D01*
X108743107Y-114712951D01*
X108450600Y-114637849D01*
X108328458Y-114622418D01*
X108264414Y-114594486D01*
X108225639Y-114536363D01*
X108220000Y-114499396D01*
X108220000Y-109500000D01*
X137869353Y-109500000D01*
X137873573Y-109529353D01*
X137876282Y-109548192D01*
X137877544Y-109565839D01*
X137877544Y-109571527D01*
X137879145Y-109576978D01*
X137882903Y-109594255D01*
X137889834Y-109642454D01*
X137889834Y-109642455D01*
X137889835Y-109642457D01*
X137898253Y-109660890D01*
X137910059Y-109686741D01*
X137916239Y-109703309D01*
X137917843Y-109708772D01*
X137917844Y-109708773D01*
X137917845Y-109708776D01*
X137920924Y-109713566D01*
X137929397Y-109729085D01*
X137949623Y-109773373D01*
X137981510Y-109810173D01*
X137992102Y-109824322D01*
X137995182Y-109829114D01*
X137995183Y-109829115D01*
X137999473Y-109832832D01*
X138011984Y-109845342D01*
X138043872Y-109882143D01*
X138084835Y-109908468D01*
X138098994Y-109919067D01*
X138103290Y-109922790D01*
X138108463Y-109925152D01*
X138123984Y-109933628D01*
X138142988Y-109945841D01*
X138164948Y-109959954D01*
X138211665Y-109973671D01*
X138228232Y-109979848D01*
X138233409Y-109982213D01*
X138239032Y-109983021D01*
X138256315Y-109986781D01*
X138303039Y-110000500D01*
X138351727Y-110000500D01*
X138369372Y-110001761D01*
X138375000Y-110002571D01*
X138380627Y-110001761D01*
X138398273Y-110000500D01*
X138446962Y-110000500D01*
X138455688Y-109997937D01*
X138493689Y-109986779D01*
X138510963Y-109983022D01*
X138516591Y-109982213D01*
X138521759Y-109979853D01*
X138538331Y-109973671D01*
X138585053Y-109959953D01*
X138626016Y-109933627D01*
X138641547Y-109925148D01*
X138643042Y-109924464D01*
X138646710Y-109922790D01*
X138651008Y-109919065D01*
X138665162Y-109908469D01*
X138706128Y-109882143D01*
X138738015Y-109845342D01*
X138750518Y-109832839D01*
X138754818Y-109829114D01*
X138757892Y-109824329D01*
X138768490Y-109810171D01*
X138800377Y-109773373D01*
X138820607Y-109729074D01*
X138829075Y-109713566D01*
X138832155Y-109708776D01*
X138833756Y-109703322D01*
X138839934Y-109686755D01*
X138860165Y-109642457D01*
X138867094Y-109594258D01*
X138870854Y-109576978D01*
X138872456Y-109571523D01*
X138872907Y-109558825D01*
X138874088Y-109545619D01*
X138880647Y-109500000D01*
X138874088Y-109454385D01*
X138872907Y-109441172D01*
X138872456Y-109428477D01*
X138870852Y-109423016D01*
X138867094Y-109405735D01*
X138864270Y-109386096D01*
X138860165Y-109357543D01*
X138839933Y-109313241D01*
X138833756Y-109296678D01*
X138832155Y-109291224D01*
X138829079Y-109286437D01*
X138820603Y-109270915D01*
X138800377Y-109226627D01*
X138793701Y-109218923D01*
X138768496Y-109189834D01*
X138757895Y-109175674D01*
X138754818Y-109170886D01*
X138754816Y-109170884D01*
X138754813Y-109170881D01*
X138750521Y-109167162D01*
X138738015Y-109154657D01*
X138706128Y-109117857D01*
X138665164Y-109091531D01*
X138651003Y-109080930D01*
X138646709Y-109077209D01*
X138646706Y-109077207D01*
X138641536Y-109074846D01*
X138626018Y-109066373D01*
X138585053Y-109040047D01*
X138585048Y-109040045D01*
X138538329Y-109026326D01*
X138521764Y-109020148D01*
X138516596Y-109017788D01*
X138516592Y-109017787D01*
X138510965Y-109016978D01*
X138493681Y-109013218D01*
X138446962Y-108999500D01*
X138446961Y-108999500D01*
X138398273Y-108999500D01*
X138380627Y-108998238D01*
X138375000Y-108997429D01*
X138369372Y-108998238D01*
X138351727Y-108999500D01*
X138303036Y-108999500D01*
X138256310Y-109013219D01*
X138239036Y-109016977D01*
X138233412Y-109017785D01*
X138233409Y-109017787D01*
X138228233Y-109020150D01*
X138211677Y-109026324D01*
X138164944Y-109040047D01*
X138123985Y-109066370D01*
X138108468Y-109074844D01*
X138103294Y-109077207D01*
X138103289Y-109077210D01*
X138098994Y-109080932D01*
X138084839Y-109091528D01*
X138043872Y-109117856D01*
X138043868Y-109117860D01*
X138011986Y-109154654D01*
X137999482Y-109167159D01*
X137995183Y-109170884D01*
X137995181Y-109170886D01*
X137992100Y-109175680D01*
X137981506Y-109189830D01*
X137949624Y-109226625D01*
X137949620Y-109226631D01*
X137929396Y-109270915D01*
X137920920Y-109286438D01*
X137917845Y-109291222D01*
X137917843Y-109291226D01*
X137916241Y-109296683D01*
X137910062Y-109313251D01*
X137903360Y-109327928D01*
X137890295Y-109356537D01*
X137889834Y-109357546D01*
X137882903Y-109405745D01*
X137879147Y-109423017D01*
X137877545Y-109428476D01*
X137877544Y-109428478D01*
X137877544Y-109434159D01*
X137876282Y-109451805D01*
X137869793Y-109496938D01*
X137869353Y-109500000D01*
X108220000Y-109500000D01*
X108220000Y-103632000D01*
X129650540Y-103632000D01*
X129670326Y-103820256D01*
X129670327Y-103820259D01*
X129728818Y-104000277D01*
X129728821Y-104000284D01*
X129823467Y-104164216D01*
X129950129Y-104304888D01*
X130103265Y-104416148D01*
X130103270Y-104416151D01*
X130276192Y-104493142D01*
X130276197Y-104493144D01*
X130461354Y-104532500D01*
X130461355Y-104532500D01*
X130650644Y-104532500D01*
X130650646Y-104532500D01*
X130835803Y-104493144D01*
X131008730Y-104416151D01*
X131161871Y-104304888D01*
X131288533Y-104164216D01*
X131383179Y-104000284D01*
X131441674Y-103820256D01*
X131461460Y-103632000D01*
X142350540Y-103632000D01*
X142370326Y-103820256D01*
X142370327Y-103820259D01*
X142428818Y-104000277D01*
X142428821Y-104000284D01*
X142523467Y-104164216D01*
X142650129Y-104304888D01*
X142803265Y-104416148D01*
X142803270Y-104416151D01*
X142976192Y-104493142D01*
X142976197Y-104493144D01*
X143161354Y-104532500D01*
X143220548Y-104532500D01*
X143287587Y-104552185D01*
X143308229Y-104568819D01*
X144118181Y-105378771D01*
X144151666Y-105440094D01*
X144154500Y-105466452D01*
X144154500Y-109146559D01*
X144152775Y-109162176D01*
X144153061Y-109162203D01*
X144152326Y-109169969D01*
X144154439Y-109237176D01*
X144154500Y-109241071D01*
X144154500Y-109268661D01*
X144155003Y-109272639D01*
X144155918Y-109284271D01*
X144157290Y-109327928D01*
X144157291Y-109327931D01*
X144162880Y-109347171D01*
X144166824Y-109366215D01*
X144169336Y-109386096D01*
X144185414Y-109426707D01*
X144189197Y-109437756D01*
X144201381Y-109479692D01*
X144211580Y-109496938D01*
X144220138Y-109514407D01*
X144227514Y-109533036D01*
X144253181Y-109568364D01*
X144259593Y-109578125D01*
X144281828Y-109615721D01*
X144281833Y-109615728D01*
X144295990Y-109629884D01*
X144308627Y-109644679D01*
X144320406Y-109660891D01*
X144351646Y-109686735D01*
X144354057Y-109688729D01*
X144362698Y-109696592D01*
X146041523Y-111375418D01*
X146051348Y-111387681D01*
X146051569Y-111387499D01*
X146056537Y-111393504D01*
X146105548Y-111439529D01*
X146108347Y-111442242D01*
X146127848Y-111461744D01*
X146127852Y-111461747D01*
X146127855Y-111461750D01*
X146131028Y-111464211D01*
X146139900Y-111471789D01*
X146171744Y-111501692D01*
X146189302Y-111511344D01*
X146205561Y-111522025D01*
X146221390Y-111534303D01*
X146261481Y-111551651D01*
X146271952Y-111556781D01*
X146294506Y-111569180D01*
X146310228Y-111577824D01*
X146310230Y-111577825D01*
X146310234Y-111577827D01*
X146329642Y-111582810D01*
X146348045Y-111589111D01*
X146366427Y-111597066D01*
X146366428Y-111597066D01*
X146366430Y-111597067D01*
X146409576Y-111603900D01*
X146420998Y-111606266D01*
X146463307Y-111617130D01*
X146483342Y-111617130D01*
X146502740Y-111618656D01*
X146522520Y-111621789D01*
X146522521Y-111621790D01*
X146522521Y-111621789D01*
X146522522Y-111621790D01*
X146566001Y-111617680D01*
X146577670Y-111617130D01*
X146873188Y-111617130D01*
X146940227Y-111636815D01*
X146965336Y-111658156D01*
X146971062Y-111664515D01*
X146971066Y-111664519D01*
X147124201Y-111775778D01*
X147124206Y-111775781D01*
X147297128Y-111852772D01*
X147297133Y-111852774D01*
X147482290Y-111892130D01*
X147482291Y-111892130D01*
X147671580Y-111892130D01*
X147671582Y-111892130D01*
X147856739Y-111852774D01*
X148029666Y-111775781D01*
X148182807Y-111664518D01*
X148309469Y-111523846D01*
X148404115Y-111359914D01*
X148462610Y-111179886D01*
X148482396Y-110991630D01*
X148462610Y-110803374D01*
X148404115Y-110623346D01*
X148309469Y-110459414D01*
X148182807Y-110318742D01*
X148182806Y-110318741D01*
X148029670Y-110207481D01*
X148029665Y-110207478D01*
X147856743Y-110130487D01*
X147856738Y-110130485D01*
X147710937Y-110099495D01*
X147671582Y-110091130D01*
X147496471Y-110091130D01*
X147429432Y-110071445D01*
X147383677Y-110018641D01*
X147373150Y-109954171D01*
X147379093Y-109897631D01*
X147359307Y-109709375D01*
X147300812Y-109529347D01*
X147206166Y-109365415D01*
X147189731Y-109347162D01*
X147130983Y-109281915D01*
X147100753Y-109218923D01*
X147099133Y-109198943D01*
X147099133Y-106934000D01*
X162924540Y-106934000D01*
X162944326Y-107122256D01*
X162944327Y-107122259D01*
X163002818Y-107302277D01*
X163002820Y-107302281D01*
X163002821Y-107302284D01*
X163097467Y-107466216D01*
X163218094Y-107600185D01*
X163224129Y-107606888D01*
X163377265Y-107718148D01*
X163377270Y-107718151D01*
X163550192Y-107795142D01*
X163550197Y-107795144D01*
X163735354Y-107834500D01*
X163735355Y-107834500D01*
X163924644Y-107834500D01*
X163924646Y-107834500D01*
X164109803Y-107795144D01*
X164282730Y-107718151D01*
X164435871Y-107606888D01*
X164562533Y-107466216D01*
X164657179Y-107302284D01*
X164670198Y-107262213D01*
X164709634Y-107204540D01*
X164773992Y-107177341D01*
X164842839Y-107189254D01*
X164880279Y-107217560D01*
X165002129Y-107352888D01*
X165155265Y-107464148D01*
X165155270Y-107464151D01*
X165328192Y-107541142D01*
X165328197Y-107541144D01*
X165513354Y-107580500D01*
X165572548Y-107580500D01*
X165639587Y-107600185D01*
X165660229Y-107616819D01*
X166377197Y-108333788D01*
X166387022Y-108346051D01*
X166387243Y-108345869D01*
X166392211Y-108351874D01*
X166441222Y-108397899D01*
X166444021Y-108400612D01*
X166463522Y-108420114D01*
X166463526Y-108420117D01*
X166463529Y-108420120D01*
X166466702Y-108422581D01*
X166475574Y-108430159D01*
X166507418Y-108460062D01*
X166524976Y-108469714D01*
X166541235Y-108480395D01*
X166557064Y-108492673D01*
X166597155Y-108510021D01*
X166607626Y-108515151D01*
X166630180Y-108527550D01*
X166645902Y-108536194D01*
X166645904Y-108536195D01*
X166645908Y-108536197D01*
X166665316Y-108541180D01*
X166683719Y-108547481D01*
X166702101Y-108555436D01*
X166702102Y-108555436D01*
X166702104Y-108555437D01*
X166745250Y-108562270D01*
X166756672Y-108564636D01*
X166798981Y-108575500D01*
X166819016Y-108575500D01*
X166838414Y-108577026D01*
X166858194Y-108580159D01*
X166858195Y-108580160D01*
X166858195Y-108580159D01*
X166858196Y-108580160D01*
X166901675Y-108576050D01*
X166913344Y-108575500D01*
X173032252Y-108575500D01*
X173099291Y-108595185D01*
X173124400Y-108616526D01*
X173130126Y-108622885D01*
X173130130Y-108622889D01*
X173283265Y-108734148D01*
X173283270Y-108734151D01*
X173456192Y-108811142D01*
X173456197Y-108811144D01*
X173641354Y-108850500D01*
X173641355Y-108850500D01*
X173830644Y-108850500D01*
X173830646Y-108850500D01*
X174015803Y-108811144D01*
X174188730Y-108734151D01*
X174341871Y-108622888D01*
X174468533Y-108482216D01*
X174563179Y-108318284D01*
X174621674Y-108138256D01*
X174641460Y-107950000D01*
X174621674Y-107761744D01*
X174563179Y-107581716D01*
X174468533Y-107417784D01*
X174341871Y-107277112D01*
X174341870Y-107277111D01*
X174188734Y-107165851D01*
X174188729Y-107165848D01*
X174015807Y-107088857D01*
X174015802Y-107088855D01*
X173870001Y-107057865D01*
X173830646Y-107049500D01*
X173641354Y-107049500D01*
X173608897Y-107056398D01*
X173456197Y-107088855D01*
X173456192Y-107088857D01*
X173283270Y-107165848D01*
X173283265Y-107165851D01*
X173130130Y-107277110D01*
X173130126Y-107277114D01*
X173124400Y-107283474D01*
X173064913Y-107320121D01*
X173032252Y-107324500D01*
X167188453Y-107324500D01*
X167121414Y-107304815D01*
X167100772Y-107288181D01*
X166991200Y-107178609D01*
X166957715Y-107117286D01*
X166962699Y-107047594D01*
X167004571Y-106991661D01*
X167028445Y-106977649D01*
X167076730Y-106956151D01*
X167229871Y-106844888D01*
X167232788Y-106841647D01*
X167235600Y-106838526D01*
X167295087Y-106801879D01*
X167327748Y-106797500D01*
X172891257Y-106797500D01*
X172906877Y-106799224D01*
X172906904Y-106798939D01*
X172914660Y-106799671D01*
X172914667Y-106799673D01*
X172981873Y-106797561D01*
X172985768Y-106797500D01*
X173013346Y-106797500D01*
X173013350Y-106797500D01*
X173017324Y-106796997D01*
X173028963Y-106796080D01*
X173072627Y-106794709D01*
X173091869Y-106789117D01*
X173110912Y-106785174D01*
X173130792Y-106782664D01*
X173171401Y-106766585D01*
X173182444Y-106762803D01*
X173224390Y-106750618D01*
X173241629Y-106740422D01*
X173259103Y-106731862D01*
X173277727Y-106724488D01*
X173277727Y-106724487D01*
X173277732Y-106724486D01*
X173313083Y-106698800D01*
X173322814Y-106692408D01*
X173360420Y-106670170D01*
X173374589Y-106655999D01*
X173389379Y-106643368D01*
X173405587Y-106631594D01*
X173433438Y-106597926D01*
X173441269Y-106589319D01*
X173683772Y-106346816D01*
X173745094Y-106313334D01*
X173771452Y-106310500D01*
X173830644Y-106310500D01*
X173830646Y-106310500D01*
X174015803Y-106271144D01*
X174188730Y-106194151D01*
X174341871Y-106082888D01*
X174468533Y-105942216D01*
X174563179Y-105778284D01*
X174621674Y-105598256D01*
X174641460Y-105410000D01*
X174621674Y-105221744D01*
X174563179Y-105041716D01*
X174468533Y-104877784D01*
X174341871Y-104737112D01*
X174341870Y-104737111D01*
X174188734Y-104625851D01*
X174188729Y-104625848D01*
X174015807Y-104548857D01*
X174015802Y-104548855D01*
X173870001Y-104517865D01*
X173830646Y-104509500D01*
X173641354Y-104509500D01*
X173608897Y-104516398D01*
X173456197Y-104548855D01*
X173456192Y-104548857D01*
X173283270Y-104625848D01*
X173283265Y-104625851D01*
X173130129Y-104737111D01*
X173003466Y-104877785D01*
X172908821Y-105041715D01*
X172908818Y-105041722D01*
X172880183Y-105129853D01*
X172850326Y-105221744D01*
X172840960Y-105310857D01*
X172832679Y-105389649D01*
X172806094Y-105454263D01*
X172797040Y-105464367D01*
X172751228Y-105510180D01*
X172689905Y-105543666D01*
X172663546Y-105546500D01*
X167327748Y-105546500D01*
X167260709Y-105526815D01*
X167235600Y-105505474D01*
X167229873Y-105499114D01*
X167229869Y-105499110D01*
X167076734Y-105387851D01*
X167076729Y-105387848D01*
X166903807Y-105310857D01*
X166903802Y-105310855D01*
X166758001Y-105279865D01*
X166718646Y-105271500D01*
X166676451Y-105271500D01*
X166609412Y-105251815D01*
X166563657Y-105199011D01*
X166553713Y-105129853D01*
X166582738Y-105066297D01*
X166588770Y-105059819D01*
X167022739Y-104625851D01*
X168857772Y-102790819D01*
X168919095Y-102757334D01*
X168945453Y-102754500D01*
X169004644Y-102754500D01*
X169004646Y-102754500D01*
X169189803Y-102715144D01*
X169362730Y-102638151D01*
X169515871Y-102526888D01*
X169518788Y-102523647D01*
X169521600Y-102520526D01*
X169581087Y-102483879D01*
X169613748Y-102479500D01*
X169615548Y-102479500D01*
X169682587Y-102499185D01*
X169703229Y-102515819D01*
X170386301Y-103198891D01*
X170396126Y-103211155D01*
X170396347Y-103210973D01*
X170401317Y-103216981D01*
X170450346Y-103263022D01*
X170453143Y-103265733D01*
X170472637Y-103285227D01*
X170475802Y-103287682D01*
X170484678Y-103295263D01*
X170516525Y-103325169D01*
X170516529Y-103325171D01*
X170534080Y-103334820D01*
X170550338Y-103345499D01*
X170566171Y-103357781D01*
X170601517Y-103373075D01*
X170606262Y-103375129D01*
X170616742Y-103380262D01*
X170655015Y-103401304D01*
X170674419Y-103406286D01*
X170692817Y-103412585D01*
X170711212Y-103420545D01*
X170754361Y-103427378D01*
X170765787Y-103429745D01*
X170808088Y-103440607D01*
X170828123Y-103440607D01*
X170847520Y-103442133D01*
X170867303Y-103445267D01*
X170910782Y-103441157D01*
X170922451Y-103440607D01*
X173032252Y-103440607D01*
X173099291Y-103460292D01*
X173124400Y-103481633D01*
X173130126Y-103487992D01*
X173130130Y-103487996D01*
X173283265Y-103599255D01*
X173283270Y-103599258D01*
X173456192Y-103676249D01*
X173456197Y-103676251D01*
X173641354Y-103715607D01*
X173641355Y-103715607D01*
X173830644Y-103715607D01*
X173830646Y-103715607D01*
X174015803Y-103676251D01*
X174188730Y-103599258D01*
X174341871Y-103487995D01*
X174468533Y-103347323D01*
X174563179Y-103183391D01*
X174621674Y-103003363D01*
X174641460Y-102815107D01*
X174621674Y-102626851D01*
X174563179Y-102446823D01*
X174468533Y-102282891D01*
X174341871Y-102142219D01*
X174341870Y-102142218D01*
X174188734Y-102030958D01*
X174188729Y-102030955D01*
X174015807Y-101953964D01*
X174015802Y-101953962D01*
X173870001Y-101922972D01*
X173830646Y-101914607D01*
X173641354Y-101914607D01*
X173608897Y-101921505D01*
X173456197Y-101953962D01*
X173456192Y-101953964D01*
X173283270Y-102030955D01*
X173283265Y-102030958D01*
X173130130Y-102142217D01*
X173130126Y-102142221D01*
X173124400Y-102148581D01*
X173064913Y-102185228D01*
X173032252Y-102189607D01*
X171197559Y-102189607D01*
X171130520Y-102169922D01*
X171109878Y-102153288D01*
X170426803Y-101470212D01*
X170416980Y-101457950D01*
X170416759Y-101458134D01*
X170411786Y-101452122D01*
X170362776Y-101406099D01*
X170359977Y-101403386D01*
X170340477Y-101383885D01*
X170340471Y-101383880D01*
X170337286Y-101381409D01*
X170328434Y-101373848D01*
X170296582Y-101343938D01*
X170296580Y-101343936D01*
X170296577Y-101343935D01*
X170279029Y-101334288D01*
X170262763Y-101323604D01*
X170246932Y-101311324D01*
X170206849Y-101293978D01*
X170196363Y-101288841D01*
X170158094Y-101267803D01*
X170158092Y-101267802D01*
X170138693Y-101262822D01*
X170120281Y-101256518D01*
X170101898Y-101248562D01*
X170101892Y-101248560D01*
X170058760Y-101241729D01*
X170047322Y-101239361D01*
X170005020Y-101228500D01*
X170005019Y-101228500D01*
X169984984Y-101228500D01*
X169965586Y-101226973D01*
X169956279Y-101225499D01*
X169945805Y-101223840D01*
X169945804Y-101223840D01*
X169902325Y-101227950D01*
X169890656Y-101228500D01*
X169613748Y-101228500D01*
X169546709Y-101208815D01*
X169521600Y-101187474D01*
X169515873Y-101181114D01*
X169515869Y-101181110D01*
X169362734Y-101069851D01*
X169362729Y-101069848D01*
X169189807Y-100992857D01*
X169189802Y-100992855D01*
X169044001Y-100961865D01*
X169004646Y-100953500D01*
X168815354Y-100953500D01*
X168782897Y-100960398D01*
X168630197Y-100992855D01*
X168630192Y-100992857D01*
X168457270Y-101069848D01*
X168457265Y-101069851D01*
X168304129Y-101181111D01*
X168177466Y-101321785D01*
X168082821Y-101485715D01*
X168082818Y-101485722D01*
X168024327Y-101665740D01*
X168024326Y-101665744D01*
X168019097Y-101715500D01*
X168006678Y-101833651D01*
X167980093Y-101898266D01*
X167971038Y-101908370D01*
X163882228Y-105997181D01*
X163820905Y-106030666D01*
X163794547Y-106033500D01*
X163735354Y-106033500D01*
X163702897Y-106040398D01*
X163550197Y-106072855D01*
X163550192Y-106072857D01*
X163377270Y-106149848D01*
X163377265Y-106149851D01*
X163224129Y-106261111D01*
X163097466Y-106401785D01*
X163002821Y-106565715D01*
X163002818Y-106565722D01*
X162946054Y-106740426D01*
X162944326Y-106745744D01*
X162924540Y-106934000D01*
X147099133Y-106934000D01*
X147099133Y-103884370D01*
X147100857Y-103868756D01*
X147100571Y-103868729D01*
X147101305Y-103860966D01*
X147099194Y-103793777D01*
X147099133Y-103789883D01*
X147099133Y-103762284D01*
X147099133Y-103762283D01*
X147098630Y-103758303D01*
X147097713Y-103746654D01*
X147096342Y-103703006D01*
X147090755Y-103683777D01*
X147086807Y-103664717D01*
X147084297Y-103644841D01*
X147068218Y-103604230D01*
X147064437Y-103593185D01*
X147052252Y-103551245D01*
X147042051Y-103533996D01*
X147033493Y-103516527D01*
X147026119Y-103497901D01*
X147026116Y-103497897D01*
X147026116Y-103497896D01*
X147000449Y-103462568D01*
X146994036Y-103452805D01*
X146971805Y-103415216D01*
X146971803Y-103415212D01*
X146971799Y-103415208D01*
X146971796Y-103415204D01*
X146957638Y-103401046D01*
X146945003Y-103386253D01*
X146933226Y-103370045D01*
X146899578Y-103342209D01*
X146890937Y-103334346D01*
X146226960Y-102670369D01*
X146193475Y-102609046D01*
X146191323Y-102595668D01*
X146173674Y-102427744D01*
X146115179Y-102247716D01*
X146020533Y-102083784D01*
X145893871Y-101943112D01*
X145893870Y-101943111D01*
X145740734Y-101831851D01*
X145740729Y-101831848D01*
X145567807Y-101754857D01*
X145567802Y-101754855D01*
X145422001Y-101723865D01*
X145382646Y-101715500D01*
X145193354Y-101715500D01*
X145160897Y-101722398D01*
X145008197Y-101754855D01*
X145008192Y-101754857D01*
X144835270Y-101831848D01*
X144835265Y-101831851D01*
X144682129Y-101943111D01*
X144555465Y-102083785D01*
X144508025Y-102165955D01*
X144457458Y-102214171D01*
X144388851Y-102227393D01*
X144374861Y-102225246D01*
X144371960Y-102224629D01*
X144366646Y-102223500D01*
X144177354Y-102223500D01*
X144169140Y-102225246D01*
X143992197Y-102262855D01*
X143992192Y-102262857D01*
X143819270Y-102339848D01*
X143819265Y-102339851D01*
X143666129Y-102451111D01*
X143539465Y-102591785D01*
X143492025Y-102673955D01*
X143441458Y-102722171D01*
X143372851Y-102735393D01*
X143358861Y-102733246D01*
X143355960Y-102732629D01*
X143350646Y-102731500D01*
X143161354Y-102731500D01*
X143153140Y-102733246D01*
X142976197Y-102770855D01*
X142976192Y-102770857D01*
X142803270Y-102847848D01*
X142803265Y-102847851D01*
X142650129Y-102959111D01*
X142523466Y-103099785D01*
X142428821Y-103263715D01*
X142428818Y-103263722D01*
X142370849Y-103442134D01*
X142370326Y-103443744D01*
X142350540Y-103632000D01*
X131461460Y-103632000D01*
X131441674Y-103443744D01*
X131383179Y-103263716D01*
X131288533Y-103099784D01*
X131213350Y-103016284D01*
X131183120Y-102953292D01*
X131181500Y-102933312D01*
X131181500Y-100774687D01*
X131201185Y-100707648D01*
X131213350Y-100691715D01*
X131231891Y-100671122D01*
X131288533Y-100608216D01*
X131383179Y-100444284D01*
X131441674Y-100264256D01*
X131461460Y-100076000D01*
X131441674Y-99887744D01*
X131383179Y-99707716D01*
X131288533Y-99543784D01*
X131161871Y-99403112D01*
X131161870Y-99403111D01*
X131008734Y-99291851D01*
X131008729Y-99291848D01*
X130835807Y-99214857D01*
X130835802Y-99214855D01*
X130690001Y-99183865D01*
X130650646Y-99175500D01*
X130461354Y-99175500D01*
X130428897Y-99182398D01*
X130276197Y-99214855D01*
X130276192Y-99214857D01*
X130103270Y-99291848D01*
X130103265Y-99291851D01*
X129950129Y-99403111D01*
X129823466Y-99543785D01*
X129728821Y-99707715D01*
X129728818Y-99707722D01*
X129670327Y-99887740D01*
X129670326Y-99887744D01*
X129650540Y-100076000D01*
X129670326Y-100264256D01*
X129670327Y-100264259D01*
X129728818Y-100444277D01*
X129728821Y-100444284D01*
X129823467Y-100608216D01*
X129866772Y-100656310D01*
X129898650Y-100691715D01*
X129928880Y-100754706D01*
X129930500Y-100774687D01*
X129930500Y-102933312D01*
X129910815Y-103000351D01*
X129898650Y-103016284D01*
X129823466Y-103099784D01*
X129728821Y-103263715D01*
X129728818Y-103263722D01*
X129670849Y-103442134D01*
X129670326Y-103443744D01*
X129650540Y-103632000D01*
X108220000Y-103632000D01*
X108220000Y-95499999D01*
X137869353Y-95499999D01*
X137876282Y-95548192D01*
X137877544Y-95565839D01*
X137877544Y-95571527D01*
X137879145Y-95576978D01*
X137882903Y-95594255D01*
X137889834Y-95642454D01*
X137910059Y-95686741D01*
X137916239Y-95703309D01*
X137917843Y-95708772D01*
X137917844Y-95708773D01*
X137917845Y-95708776D01*
X137920924Y-95713566D01*
X137929397Y-95729085D01*
X137949623Y-95773373D01*
X137981510Y-95810173D01*
X137992102Y-95824322D01*
X137995182Y-95829114D01*
X137995183Y-95829115D01*
X137999473Y-95832832D01*
X138011984Y-95845342D01*
X138043872Y-95882143D01*
X138084835Y-95908468D01*
X138098994Y-95919067D01*
X138103290Y-95922790D01*
X138108463Y-95925152D01*
X138123984Y-95933628D01*
X138142988Y-95945841D01*
X138164948Y-95959954D01*
X138211665Y-95973671D01*
X138228232Y-95979848D01*
X138233409Y-95982213D01*
X138239032Y-95983021D01*
X138256315Y-95986781D01*
X138303039Y-96000500D01*
X138351727Y-96000500D01*
X138369372Y-96001761D01*
X138375000Y-96002571D01*
X138380627Y-96001761D01*
X138398273Y-96000500D01*
X138446962Y-96000500D01*
X138455688Y-95997937D01*
X138493689Y-95986779D01*
X138510963Y-95983022D01*
X138516591Y-95982213D01*
X138521759Y-95979853D01*
X138538331Y-95973671D01*
X138585053Y-95959953D01*
X138626016Y-95933627D01*
X138641547Y-95925148D01*
X138643042Y-95924464D01*
X138646710Y-95922790D01*
X138651008Y-95919065D01*
X138665162Y-95908469D01*
X138706128Y-95882143D01*
X138738015Y-95845342D01*
X138750518Y-95832839D01*
X138754818Y-95829114D01*
X138757892Y-95824329D01*
X138768490Y-95810171D01*
X138800377Y-95773373D01*
X138820607Y-95729074D01*
X138829075Y-95713566D01*
X138832155Y-95708776D01*
X138833756Y-95703322D01*
X138839934Y-95686755D01*
X138860165Y-95642457D01*
X138867094Y-95594258D01*
X138870854Y-95576978D01*
X138872456Y-95571523D01*
X138872907Y-95558825D01*
X138874088Y-95545619D01*
X138880647Y-95500000D01*
X138874088Y-95454385D01*
X138872907Y-95441172D01*
X138872456Y-95428477D01*
X138870852Y-95423016D01*
X138867094Y-95405735D01*
X138865961Y-95397858D01*
X138860165Y-95357543D01*
X138839933Y-95313241D01*
X138833756Y-95296678D01*
X138832155Y-95291224D01*
X138829079Y-95286437D01*
X138820603Y-95270915D01*
X138800377Y-95226627D01*
X138768496Y-95189834D01*
X138757895Y-95175674D01*
X138754818Y-95170886D01*
X138754816Y-95170884D01*
X138754813Y-95170881D01*
X138750521Y-95167162D01*
X138738015Y-95154657D01*
X138706128Y-95117857D01*
X138665164Y-95091531D01*
X138651003Y-95080930D01*
X138646709Y-95077209D01*
X138646706Y-95077207D01*
X138641536Y-95074846D01*
X138626018Y-95066373D01*
X138585053Y-95040047D01*
X138585048Y-95040045D01*
X138538329Y-95026326D01*
X138521764Y-95020148D01*
X138516596Y-95017788D01*
X138516592Y-95017787D01*
X138510965Y-95016978D01*
X138493681Y-95013218D01*
X138446962Y-94999500D01*
X138446961Y-94999500D01*
X138398273Y-94999500D01*
X138380627Y-94998238D01*
X138375000Y-94997429D01*
X138369372Y-94998238D01*
X138351727Y-94999500D01*
X138303036Y-94999500D01*
X138256310Y-95013219D01*
X138239036Y-95016977D01*
X138233412Y-95017785D01*
X138233409Y-95017787D01*
X138228233Y-95020150D01*
X138211677Y-95026324D01*
X138164944Y-95040047D01*
X138123985Y-95066370D01*
X138108468Y-95074844D01*
X138103294Y-95077207D01*
X138103289Y-95077210D01*
X138098994Y-95080932D01*
X138084839Y-95091528D01*
X138043872Y-95117856D01*
X138043868Y-95117860D01*
X138011986Y-95154654D01*
X137999482Y-95167159D01*
X137995183Y-95170884D01*
X137995181Y-95170886D01*
X137992100Y-95175680D01*
X137981506Y-95189830D01*
X137949624Y-95226625D01*
X137949620Y-95226631D01*
X137929396Y-95270915D01*
X137920920Y-95286438D01*
X137917845Y-95291222D01*
X137917843Y-95291226D01*
X137916241Y-95296683D01*
X137910062Y-95313251D01*
X137889834Y-95357546D01*
X137882903Y-95405745D01*
X137879147Y-95423017D01*
X137877545Y-95428476D01*
X137877544Y-95428478D01*
X137877544Y-95434159D01*
X137876282Y-95451805D01*
X137869353Y-95499999D01*
X108220000Y-95499999D01*
X108220000Y-90932000D01*
X139810540Y-90932000D01*
X139830326Y-91120256D01*
X139830327Y-91120259D01*
X139888818Y-91300277D01*
X139888821Y-91300284D01*
X139983467Y-91464216D01*
X140062666Y-91552175D01*
X140092896Y-91615166D01*
X140084271Y-91684501D01*
X140060906Y-91720033D01*
X140014098Y-91769876D01*
X140011391Y-91772669D01*
X139991889Y-91792170D01*
X139991875Y-91792187D01*
X139989407Y-91795368D01*
X139981843Y-91804223D01*
X139951937Y-91836071D01*
X139951936Y-91836073D01*
X139942284Y-91853629D01*
X139931610Y-91869879D01*
X139919329Y-91885714D01*
X139919324Y-91885721D01*
X139901975Y-91925811D01*
X139896838Y-91936297D01*
X139875803Y-91974559D01*
X139870822Y-91993960D01*
X139864521Y-92012363D01*
X139856562Y-92030755D01*
X139856561Y-92030758D01*
X139849728Y-92073896D01*
X139847360Y-92085327D01*
X139836501Y-92127624D01*
X139836500Y-92127635D01*
X139836500Y-92147669D01*
X139834973Y-92167068D01*
X139831840Y-92186847D01*
X139831840Y-92186848D01*
X139835950Y-92230327D01*
X139836500Y-92241996D01*
X139836500Y-98224560D01*
X139834775Y-98240177D01*
X139835061Y-98240204D01*
X139834326Y-98247970D01*
X139836439Y-98315177D01*
X139836500Y-98319072D01*
X139836500Y-98346662D01*
X139837003Y-98350640D01*
X139837918Y-98362272D01*
X139839290Y-98405929D01*
X139839291Y-98405932D01*
X139844880Y-98425172D01*
X139848824Y-98444216D01*
X139848960Y-98445287D01*
X139851336Y-98464097D01*
X139867414Y-98504708D01*
X139871197Y-98515757D01*
X139883381Y-98557693D01*
X139893580Y-98574939D01*
X139902138Y-98592408D01*
X139909514Y-98611037D01*
X139935181Y-98646365D01*
X139941593Y-98656126D01*
X139963828Y-98693722D01*
X139963833Y-98693729D01*
X139977990Y-98707885D01*
X139990628Y-98722681D01*
X140002405Y-98738891D01*
X140002406Y-98738892D01*
X140036057Y-98766730D01*
X140044698Y-98774593D01*
X142253892Y-100983788D01*
X142263717Y-100996051D01*
X142263938Y-100995869D01*
X142268906Y-101001874D01*
X142317917Y-101047899D01*
X142320716Y-101050612D01*
X142340217Y-101070114D01*
X142340221Y-101070117D01*
X142340224Y-101070120D01*
X142343397Y-101072581D01*
X142352269Y-101080159D01*
X142384113Y-101110062D01*
X142401671Y-101119714D01*
X142417930Y-101130395D01*
X142433759Y-101142673D01*
X142473850Y-101160021D01*
X142484321Y-101165151D01*
X142506875Y-101177550D01*
X142522597Y-101186194D01*
X142522599Y-101186195D01*
X142522603Y-101186197D01*
X142542011Y-101191180D01*
X142560414Y-101197481D01*
X142578796Y-101205436D01*
X142578797Y-101205436D01*
X142578799Y-101205437D01*
X142621945Y-101212270D01*
X142633367Y-101214636D01*
X142675676Y-101225500D01*
X142695711Y-101225500D01*
X142715109Y-101227026D01*
X142734889Y-101230159D01*
X142734890Y-101230160D01*
X142734890Y-101230159D01*
X142734891Y-101230160D01*
X142768034Y-101227027D01*
X142778370Y-101226050D01*
X142790039Y-101225500D01*
X142806252Y-101225500D01*
X142873291Y-101245185D01*
X142898400Y-101266526D01*
X142904126Y-101272885D01*
X142904130Y-101272889D01*
X143057265Y-101384148D01*
X143057270Y-101384151D01*
X143230192Y-101461142D01*
X143230197Y-101461144D01*
X143415354Y-101500500D01*
X143415355Y-101500500D01*
X143604644Y-101500500D01*
X143604646Y-101500500D01*
X143789803Y-101461144D01*
X143962730Y-101384151D01*
X144115871Y-101272888D01*
X144242533Y-101132216D01*
X144337179Y-100968284D01*
X144395674Y-100788256D01*
X144415460Y-100600000D01*
X144395674Y-100411744D01*
X144337179Y-100231716D01*
X144242533Y-100067784D01*
X144115871Y-99927112D01*
X144115870Y-99927111D01*
X144111037Y-99922759D01*
X144112880Y-99920711D01*
X144077626Y-99875006D01*
X144071636Y-99805394D01*
X144104232Y-99743594D01*
X144111267Y-99737497D01*
X144111037Y-99737241D01*
X144115865Y-99732891D01*
X144115871Y-99732888D01*
X144242533Y-99592216D01*
X144337179Y-99428284D01*
X144395674Y-99248256D01*
X144415460Y-99060000D01*
X144395674Y-98871744D01*
X144337179Y-98691716D01*
X144242533Y-98527784D01*
X144224968Y-98508276D01*
X144194738Y-98445287D01*
X144203361Y-98375952D01*
X144224967Y-98342332D01*
X144243081Y-98322216D01*
X144337727Y-98158284D01*
X144396222Y-97978256D01*
X144416008Y-97790000D01*
X144396222Y-97601744D01*
X144337727Y-97421716D01*
X144243081Y-97257784D01*
X144189809Y-97198620D01*
X144159580Y-97135630D01*
X144168205Y-97066295D01*
X144189810Y-97032677D01*
X144205533Y-97015216D01*
X144300179Y-96851284D01*
X144358674Y-96671256D01*
X144378460Y-96483000D01*
X144358674Y-96294744D01*
X144300179Y-96114716D01*
X144205533Y-95950784D01*
X144130350Y-95867284D01*
X144100120Y-95804292D01*
X144098500Y-95784312D01*
X144098500Y-93565452D01*
X144118185Y-93498413D01*
X144134819Y-93477771D01*
X150082772Y-87529819D01*
X150144095Y-87496334D01*
X150170453Y-87493500D01*
X162765590Y-87493500D01*
X162814834Y-87503698D01*
X162838674Y-87514014D01*
X162849162Y-87519151D01*
X162887444Y-87540197D01*
X162906852Y-87545180D01*
X162925255Y-87551481D01*
X162943637Y-87559436D01*
X162943638Y-87559436D01*
X162943640Y-87559437D01*
X162986786Y-87566270D01*
X162998208Y-87568636D01*
X163040517Y-87579500D01*
X163060552Y-87579500D01*
X163079950Y-87581026D01*
X163099730Y-87584159D01*
X163099731Y-87584160D01*
X163099731Y-87584159D01*
X163099732Y-87584160D01*
X163143211Y-87580050D01*
X163154880Y-87579500D01*
X166083562Y-87579500D01*
X166099182Y-87581224D01*
X166099209Y-87580939D01*
X166106965Y-87581671D01*
X166106972Y-87581673D01*
X166174178Y-87579561D01*
X166178073Y-87579500D01*
X166205651Y-87579500D01*
X166205655Y-87579500D01*
X166209629Y-87578997D01*
X166221268Y-87578080D01*
X166264932Y-87576709D01*
X166284174Y-87571117D01*
X166303217Y-87567174D01*
X166323097Y-87564664D01*
X166363706Y-87548585D01*
X166374749Y-87544803D01*
X166416695Y-87532618D01*
X166433934Y-87522422D01*
X166451408Y-87513862D01*
X166470032Y-87506488D01*
X166470032Y-87506487D01*
X166470037Y-87506486D01*
X166505388Y-87480800D01*
X166515119Y-87474408D01*
X166552725Y-87452170D01*
X166566894Y-87437999D01*
X166581684Y-87425368D01*
X166597892Y-87413594D01*
X166625743Y-87379926D01*
X166633584Y-87371309D01*
X167478787Y-86526107D01*
X167491042Y-86516291D01*
X167490859Y-86516069D01*
X167496868Y-86511096D01*
X167496877Y-86511091D01*
X167542949Y-86462027D01*
X167545566Y-86459328D01*
X167565120Y-86439776D01*
X167567576Y-86436608D01*
X167575156Y-86427732D01*
X167605062Y-86395887D01*
X167614715Y-86378325D01*
X167625389Y-86362075D01*
X167637673Y-86346241D01*
X167655019Y-86306155D01*
X167660157Y-86295667D01*
X167681196Y-86257398D01*
X167681197Y-86257397D01*
X167686177Y-86237996D01*
X167692478Y-86219593D01*
X167700438Y-86201201D01*
X167707272Y-86158046D01*
X167709635Y-86146636D01*
X167720500Y-86104324D01*
X167720500Y-86084288D01*
X167722027Y-86064887D01*
X167725160Y-86045109D01*
X167721050Y-86001629D01*
X167720500Y-85989960D01*
X167720500Y-85262742D01*
X167722224Y-85247122D01*
X167721939Y-85247096D01*
X167722671Y-85239340D01*
X167722673Y-85239333D01*
X167720561Y-85172126D01*
X167720500Y-85168231D01*
X167720500Y-85140654D01*
X167720500Y-85140650D01*
X167719996Y-85136665D01*
X167719080Y-85125021D01*
X167717709Y-85081373D01*
X167712122Y-85062144D01*
X167708174Y-85043084D01*
X167705663Y-85023204D01*
X167689588Y-84982604D01*
X167685804Y-84971552D01*
X167673618Y-84929609D01*
X167673616Y-84929606D01*
X167663423Y-84912371D01*
X167654861Y-84894894D01*
X167647487Y-84876269D01*
X167621816Y-84840937D01*
X167615405Y-84831177D01*
X167593170Y-84793580D01*
X167593168Y-84793578D01*
X167593165Y-84793574D01*
X167579006Y-84779415D01*
X167566368Y-84764619D01*
X167554594Y-84748413D01*
X167520940Y-84720572D01*
X167512299Y-84712709D01*
X167308960Y-84509369D01*
X167275475Y-84448046D01*
X167273323Y-84434668D01*
X167255674Y-84266744D01*
X167197179Y-84086716D01*
X167102533Y-83922784D01*
X166975871Y-83782112D01*
X166975870Y-83782111D01*
X166822734Y-83670851D01*
X166822729Y-83670848D01*
X166649807Y-83593857D01*
X166649802Y-83593855D01*
X166504001Y-83562865D01*
X166464646Y-83554500D01*
X166275354Y-83554500D01*
X166242897Y-83561398D01*
X166090197Y-83593855D01*
X166090192Y-83593857D01*
X165917270Y-83670848D01*
X165917265Y-83670851D01*
X165764129Y-83782111D01*
X165637466Y-83922785D01*
X165542821Y-84086715D01*
X165542818Y-84086722D01*
X165484327Y-84266740D01*
X165484326Y-84266744D01*
X165464540Y-84455000D01*
X165484326Y-84643256D01*
X165484327Y-84643259D01*
X165542818Y-84823277D01*
X165542821Y-84823284D01*
X165594907Y-84913500D01*
X165611380Y-84981401D01*
X165588527Y-85047427D01*
X165533606Y-85090618D01*
X165487520Y-85099500D01*
X165478647Y-85099500D01*
X165474661Y-85100003D01*
X165463033Y-85100918D01*
X165419373Y-85102290D01*
X165400129Y-85107881D01*
X165381079Y-85111825D01*
X165361211Y-85114334D01*
X165361210Y-85114334D01*
X165320599Y-85130413D01*
X165309554Y-85134194D01*
X165267614Y-85146379D01*
X165267610Y-85146381D01*
X165250366Y-85156579D01*
X165232905Y-85165133D01*
X165214274Y-85172510D01*
X165214262Y-85172517D01*
X165178933Y-85198185D01*
X165169173Y-85204596D01*
X165131580Y-85226829D01*
X165117414Y-85240995D01*
X165102624Y-85253627D01*
X165086414Y-85265404D01*
X165086411Y-85265407D01*
X165058573Y-85299058D01*
X165050711Y-85307697D01*
X164661894Y-85696513D01*
X164600571Y-85729998D01*
X164530879Y-85725014D01*
X164474946Y-85683142D01*
X164456282Y-85647150D01*
X164403181Y-85483721D01*
X164403178Y-85483715D01*
X164402477Y-85482500D01*
X164308533Y-85319784D01*
X164181871Y-85179112D01*
X164172790Y-85172514D01*
X164028734Y-85067851D01*
X164028729Y-85067848D01*
X163855807Y-84990857D01*
X163855802Y-84990855D01*
X163710001Y-84959865D01*
X163670646Y-84951500D01*
X163670645Y-84951500D01*
X163620757Y-84951500D01*
X163553718Y-84931815D01*
X163533076Y-84915181D01*
X162288746Y-83670851D01*
X161038108Y-82420212D01*
X161028285Y-82407950D01*
X161028064Y-82408134D01*
X161023091Y-82402122D01*
X160974081Y-82356099D01*
X160971282Y-82353386D01*
X160951782Y-82333885D01*
X160951776Y-82333880D01*
X160948591Y-82331409D01*
X160939739Y-82323848D01*
X160907887Y-82293938D01*
X160907885Y-82293936D01*
X160907882Y-82293935D01*
X160890334Y-82284288D01*
X160874068Y-82273604D01*
X160858237Y-82261324D01*
X160818154Y-82243978D01*
X160807668Y-82238841D01*
X160769399Y-82217803D01*
X160769397Y-82217802D01*
X160749998Y-82212822D01*
X160731586Y-82206518D01*
X160713203Y-82198562D01*
X160713197Y-82198560D01*
X160670065Y-82191729D01*
X160658627Y-82189361D01*
X160616325Y-82178500D01*
X160616324Y-82178500D01*
X160596289Y-82178500D01*
X160576891Y-82176973D01*
X160569467Y-82175797D01*
X160557110Y-82173840D01*
X160557109Y-82173840D01*
X160513630Y-82177950D01*
X160501961Y-82178500D01*
X148926743Y-82178500D01*
X148911122Y-82176775D01*
X148911096Y-82177061D01*
X148903334Y-82176327D01*
X148903333Y-82176327D01*
X148851688Y-82177950D01*
X148836127Y-82178439D01*
X148832232Y-82178500D01*
X148804647Y-82178500D01*
X148800661Y-82179003D01*
X148789033Y-82179918D01*
X148745373Y-82181290D01*
X148726129Y-82186881D01*
X148707079Y-82190825D01*
X148687211Y-82193334D01*
X148687210Y-82193334D01*
X148646599Y-82209413D01*
X148635554Y-82213194D01*
X148593614Y-82225379D01*
X148593610Y-82225381D01*
X148576366Y-82235579D01*
X148558905Y-82244133D01*
X148540274Y-82251510D01*
X148540262Y-82251517D01*
X148504933Y-82277185D01*
X148495173Y-82283596D01*
X148457580Y-82305829D01*
X148443414Y-82319995D01*
X148428624Y-82332627D01*
X148412414Y-82344404D01*
X148412411Y-82344407D01*
X148384573Y-82378058D01*
X148376711Y-82386697D01*
X140768228Y-89995181D01*
X140706905Y-90028666D01*
X140680547Y-90031500D01*
X140621354Y-90031500D01*
X140588897Y-90038398D01*
X140436197Y-90070855D01*
X140436192Y-90070857D01*
X140263270Y-90147848D01*
X140263265Y-90147851D01*
X140110129Y-90259111D01*
X139983466Y-90399785D01*
X139888821Y-90563715D01*
X139888818Y-90563722D01*
X139830327Y-90743740D01*
X139830326Y-90743744D01*
X139810540Y-90932000D01*
X108220000Y-90932000D01*
X108220000Y-76274619D01*
X108236612Y-76212621D01*
X108239619Y-76207411D01*
X108264703Y-76163965D01*
X108271766Y-76153090D01*
X108279069Y-76143039D01*
X108284134Y-76131661D01*
X108289993Y-76120161D01*
X108324679Y-76060084D01*
X108346102Y-75994148D01*
X108350753Y-75982034D01*
X108355808Y-75970681D01*
X108358394Y-75958511D01*
X108361740Y-75946020D01*
X108383174Y-75880056D01*
X108390421Y-75811099D01*
X108392448Y-75798305D01*
X108395035Y-75786135D01*
X108395566Y-75765792D01*
X108396200Y-75756115D01*
X108402960Y-75691800D01*
X108396200Y-75627487D01*
X108395566Y-75617806D01*
X108395035Y-75597465D01*
X108392448Y-75585297D01*
X108390421Y-75572500D01*
X108383174Y-75503544D01*
X108361747Y-75437599D01*
X108358392Y-75425077D01*
X108355808Y-75412919D01*
X108350753Y-75401565D01*
X108346101Y-75389446D01*
X108324680Y-75323519D01*
X108324679Y-75323518D01*
X108324679Y-75323516D01*
X108290006Y-75263462D01*
X108284124Y-75251915D01*
X108279069Y-75240561D01*
X108271763Y-75230505D01*
X108264697Y-75219623D01*
X108236613Y-75170980D01*
X108220000Y-75108980D01*
X108220000Y-70413000D01*
X112844815Y-70413000D01*
X112863503Y-70590805D01*
X112863504Y-70590807D01*
X112918747Y-70760829D01*
X112918750Y-70760834D01*
X112918750Y-70760835D01*
X113008141Y-70915665D01*
X113049812Y-70961946D01*
X113127764Y-71048521D01*
X113127767Y-71048523D01*
X113127770Y-71048526D01*
X113272407Y-71153612D01*
X113435733Y-71226329D01*
X113461951Y-71231901D01*
X113469312Y-71233704D01*
X113471918Y-71234427D01*
X113471930Y-71234432D01*
X113477503Y-71235345D01*
X113483167Y-71236411D01*
X113610609Y-71263500D01*
X113610610Y-71263500D01*
X113639137Y-71263500D01*
X113647117Y-71264149D01*
X113647131Y-71263892D01*
X113653845Y-71264256D01*
X113653845Y-71264255D01*
X113653846Y-71264256D01*
X113664433Y-71263681D01*
X113671146Y-71263500D01*
X113789390Y-71263500D01*
X113789391Y-71263500D01*
X113821600Y-71256653D01*
X113831288Y-71255370D01*
X113831287Y-71255363D01*
X113837912Y-71254276D01*
X113837920Y-71254276D01*
X113851061Y-71250627D01*
X113858339Y-71248844D01*
X113964267Y-71226329D01*
X113998442Y-71211113D01*
X114015202Y-71205094D01*
X114015540Y-71204959D01*
X114015545Y-71204958D01*
X114028993Y-71197828D01*
X114036582Y-71194132D01*
X114127593Y-71153612D01*
X114161556Y-71128935D01*
X114176356Y-71119701D01*
X114178415Y-71118610D01*
X114190501Y-71108343D01*
X114197837Y-71102576D01*
X114272230Y-71048526D01*
X114303447Y-71013855D01*
X114315322Y-71002320D01*
X114318916Y-70999268D01*
X114328465Y-70986705D01*
X114335000Y-70978812D01*
X114391859Y-70915665D01*
X114417592Y-70871093D01*
X114426249Y-70858073D01*
X114430476Y-70852513D01*
X114436834Y-70838768D01*
X114441957Y-70828891D01*
X114481250Y-70760835D01*
X114498692Y-70707152D01*
X114504070Y-70693440D01*
X114507880Y-70685206D01*
X114510904Y-70671465D01*
X114514060Y-70659854D01*
X114536497Y-70590803D01*
X114542933Y-70529562D01*
X114545149Y-70515890D01*
X114547509Y-70505172D01*
X114548075Y-70484205D01*
X114548705Y-70474644D01*
X114555185Y-70413000D01*
X114548706Y-70351359D01*
X114548075Y-70341791D01*
X114547509Y-70320828D01*
X114545150Y-70310115D01*
X114542934Y-70296443D01*
X114536497Y-70235197D01*
X114514063Y-70166153D01*
X114510902Y-70154525D01*
X114507880Y-70140794D01*
X114504076Y-70132571D01*
X114498684Y-70118822D01*
X114481250Y-70065165D01*
X114481248Y-70065161D01*
X114441974Y-69997136D01*
X114436822Y-69987203D01*
X114430476Y-69973488D01*
X114430476Y-69973487D01*
X114426257Y-69967937D01*
X114417594Y-69954910D01*
X114391859Y-69910335D01*
X114335014Y-69847202D01*
X114328448Y-69839271D01*
X114318920Y-69826737D01*
X114318919Y-69826736D01*
X114318916Y-69826732D01*
X114315309Y-69823668D01*
X114303445Y-69812141D01*
X114272230Y-69777474D01*
X114272231Y-69777474D01*
X114197866Y-69723444D01*
X114190480Y-69717637D01*
X114178415Y-69707390D01*
X114176352Y-69706296D01*
X114161549Y-69697059D01*
X114127592Y-69672387D01*
X114036605Y-69631877D01*
X114028958Y-69628153D01*
X114015547Y-69621043D01*
X114015546Y-69621042D01*
X114015545Y-69621042D01*
X114015543Y-69621041D01*
X114015219Y-69620912D01*
X113998440Y-69614886D01*
X113964267Y-69599671D01*
X113964265Y-69599670D01*
X113964264Y-69599670D01*
X113858409Y-69577170D01*
X113851019Y-69575361D01*
X113837918Y-69571723D01*
X113831280Y-69570635D01*
X113831280Y-69570629D01*
X113821590Y-69569344D01*
X113789391Y-69562500D01*
X113671146Y-69562500D01*
X113664433Y-69562318D01*
X113653845Y-69561743D01*
X113647131Y-69562108D01*
X113647117Y-69561850D01*
X113639137Y-69562500D01*
X113610609Y-69562500D01*
X113520505Y-69581652D01*
X113483187Y-69589584D01*
X113477474Y-69590658D01*
X113471929Y-69591567D01*
X113469284Y-69592301D01*
X113461928Y-69594101D01*
X113435736Y-69599669D01*
X113435731Y-69599670D01*
X113272408Y-69672387D01*
X113127768Y-69777475D01*
X113008140Y-69910336D01*
X112918750Y-70065164D01*
X112918747Y-70065170D01*
X112863504Y-70235192D01*
X112863503Y-70235194D01*
X112844815Y-70413000D01*
X108220000Y-70413000D01*
X108220000Y-61413000D01*
X112844815Y-61413000D01*
X112863503Y-61590805D01*
X112863504Y-61590807D01*
X112918747Y-61760829D01*
X112918750Y-61760834D01*
X112918750Y-61760835D01*
X113008141Y-61915665D01*
X113049812Y-61961946D01*
X113127764Y-62048521D01*
X113127767Y-62048523D01*
X113127770Y-62048526D01*
X113272407Y-62153612D01*
X113435733Y-62226329D01*
X113461951Y-62231901D01*
X113469312Y-62233704D01*
X113471918Y-62234427D01*
X113471930Y-62234432D01*
X113477503Y-62235345D01*
X113483167Y-62236411D01*
X113610609Y-62263500D01*
X113610610Y-62263500D01*
X113639137Y-62263500D01*
X113647117Y-62264149D01*
X113647131Y-62263892D01*
X113653845Y-62264256D01*
X113653845Y-62264255D01*
X113653846Y-62264256D01*
X113664433Y-62263681D01*
X113671146Y-62263500D01*
X113789390Y-62263500D01*
X113789391Y-62263500D01*
X113821600Y-62256653D01*
X113831288Y-62255370D01*
X113831287Y-62255363D01*
X113837912Y-62254276D01*
X113837920Y-62254276D01*
X113851061Y-62250627D01*
X113858339Y-62248844D01*
X113964267Y-62226329D01*
X113998442Y-62211113D01*
X114015202Y-62205094D01*
X114015540Y-62204959D01*
X114015545Y-62204958D01*
X114028993Y-62197828D01*
X114036582Y-62194132D01*
X114127593Y-62153612D01*
X114161556Y-62128935D01*
X114176356Y-62119701D01*
X114178415Y-62118610D01*
X114190501Y-62108343D01*
X114197837Y-62102576D01*
X114272230Y-62048526D01*
X114303447Y-62013855D01*
X114315322Y-62002320D01*
X114318916Y-61999268D01*
X114328465Y-61986705D01*
X114335000Y-61978812D01*
X114391859Y-61915665D01*
X114417592Y-61871093D01*
X114426249Y-61858073D01*
X114430476Y-61852513D01*
X114436834Y-61838768D01*
X114441957Y-61828891D01*
X114481250Y-61760835D01*
X114498692Y-61707152D01*
X114504070Y-61693440D01*
X114507880Y-61685206D01*
X114510904Y-61671465D01*
X114514060Y-61659854D01*
X114536497Y-61590803D01*
X114542933Y-61529562D01*
X114545149Y-61515890D01*
X114547509Y-61505172D01*
X114548075Y-61484205D01*
X114548705Y-61474644D01*
X114555185Y-61413000D01*
X114548706Y-61351359D01*
X114548075Y-61341791D01*
X114547509Y-61320828D01*
X114545150Y-61310115D01*
X114542934Y-61296443D01*
X114536497Y-61235197D01*
X114514063Y-61166153D01*
X114510902Y-61154525D01*
X114507880Y-61140794D01*
X114504076Y-61132571D01*
X114498684Y-61118822D01*
X114481250Y-61065165D01*
X114481248Y-61065161D01*
X114441974Y-60997136D01*
X114436822Y-60987203D01*
X114430476Y-60973488D01*
X114430476Y-60973487D01*
X114426257Y-60967937D01*
X114417594Y-60954910D01*
X114391859Y-60910335D01*
X114335014Y-60847202D01*
X114328448Y-60839271D01*
X114318920Y-60826737D01*
X114318919Y-60826736D01*
X114318916Y-60826732D01*
X114315309Y-60823668D01*
X114303445Y-60812141D01*
X114272230Y-60777474D01*
X114272231Y-60777474D01*
X114197866Y-60723444D01*
X114190480Y-60717637D01*
X114178415Y-60707390D01*
X114176352Y-60706296D01*
X114161549Y-60697059D01*
X114127592Y-60672387D01*
X114036605Y-60631877D01*
X114028958Y-60628153D01*
X114015547Y-60621043D01*
X114015546Y-60621042D01*
X114015545Y-60621042D01*
X114015543Y-60621041D01*
X114015219Y-60620912D01*
X113998440Y-60614886D01*
X113964267Y-60599671D01*
X113964265Y-60599670D01*
X113964264Y-60599670D01*
X113858409Y-60577170D01*
X113851019Y-60575361D01*
X113837918Y-60571723D01*
X113831280Y-60570635D01*
X113831280Y-60570629D01*
X113821590Y-60569344D01*
X113789391Y-60562500D01*
X113671146Y-60562500D01*
X113664433Y-60562318D01*
X113653845Y-60561743D01*
X113647131Y-60562108D01*
X113647117Y-60561850D01*
X113639137Y-60562500D01*
X113610609Y-60562500D01*
X113520505Y-60581652D01*
X113483187Y-60589584D01*
X113477474Y-60590658D01*
X113471929Y-60591567D01*
X113469284Y-60592301D01*
X113461928Y-60594101D01*
X113435736Y-60599669D01*
X113435731Y-60599670D01*
X113272408Y-60672387D01*
X113127768Y-60777475D01*
X113008140Y-60910336D01*
X112918750Y-61065164D01*
X112918747Y-61065170D01*
X112863504Y-61235192D01*
X112863503Y-61235194D01*
X112844815Y-61413000D01*
X108220000Y-61413000D01*
X108220000Y-59500602D01*
X108239685Y-59433563D01*
X108292489Y-59387808D01*
X108328460Y-59377580D01*
X108450593Y-59362151D01*
X108450607Y-59362149D01*
X108743107Y-59287048D01*
X108743110Y-59287047D01*
X109023882Y-59175882D01*
X109023890Y-59175878D01*
X109288520Y-59030397D01*
X109288530Y-59030390D01*
X109513433Y-58866987D01*
X109513434Y-58866987D01*
X108583306Y-57936859D01*
X108597410Y-57929589D01*
X108762540Y-57799729D01*
X108900110Y-57640965D01*
X108934665Y-57581112D01*
X109864687Y-58511134D01*
X109945486Y-58413464D01*
X110107292Y-58158497D01*
X110107295Y-58158491D01*
X110235872Y-57885252D01*
X110235874Y-57885247D01*
X110329196Y-57598035D01*
X110329196Y-57598033D01*
X110343937Y-57520764D01*
X110375835Y-57458601D01*
X110436277Y-57423551D01*
X110465740Y-57420000D01*
X184534260Y-57420000D01*
X184601299Y-57439685D01*
G37*
%TD.AperFunction*%
%TD*%
M02*
