M48
; DRILL file {KiCad 7.0.10} date Fri Mar  1 15:17:50 2024
; FORMAT={-:-/ absolute / inch / decimal}
; #@! TF.CreationDate,2024-03-01T15:17:50+01:00
; #@! TF.GenerationSoftware,Kicad,Pcbnew,7.0.10
; #@! TF.FileFunction,Plated,1,2,PTH
FMAT,2
INCH
; #@! TA.AperFunction,Plated,PTH,ViaDrill
T1C0.0157
; #@! TA.AperFunction,Plated,PTH,ComponentDrill
T2C0.0866
%
G90
G05
T1
X4.4Y-3.575
X4.525Y-2.93
X4.56Y-2.78
X4.6713Y-2.7487
X4.7Y-4.425
X4.82Y-2.73
X5.14Y-3.94
X5.14Y-4.08
X5.15Y-3.6
X5.25Y-3.725
X5.425Y-3.2404
X5.54Y-3.51
X5.54Y-3.58
X5.62Y-3.75
X5.64Y-4.08
X5.6485Y-3.7985
X5.65Y-3.9
X5.65Y-3.9606
X5.65Y-3.85
X5.68Y-4.06
X5.72Y-4.04
X5.73Y-4.29
X5.75Y-2.5
X5.7667Y-4.3267
X5.8101Y-4.3697
X5.925Y-4.4
X5.95Y-3.9
X6.05Y-3.21
X6.15Y-2.34
X6.15Y-3.13
X6.15Y-3.33
X6.25Y-3.33
X6.35Y-3.33
X6.4Y-3.7
X6.44Y-3.38
X6.45Y-4.21
X6.52Y-4.2
X6.55Y-3.325
X6.55Y-3.375
X6.56Y-4.18
X6.65Y-4.01
X6.75Y-3.13
X6.775Y-3.75
X6.84Y-4.0478
X6.84Y-4.15
X6.84Y-4.25
X7.25Y-3.7
X7.3Y-4.35
T2
X4.252Y-2.2441
X4.252Y-4.6063
X7.3622Y-2.2441
X7.3622Y-4.6063
M30
